%TF.GenerationSoftware,KiCad,Pcbnew,7.0.7*%
%TF.CreationDate,2023-11-28T22:26:52+01:00*%
%TF.ProjectId,STM32G474_Black-Pill_v3.0,53544d33-3247-4343-9734-5f426c61636b,A*%
%TF.SameCoordinates,Original*%
%TF.FileFunction,Drillmap*%
%TF.FilePolarity,Positive*%
%FSLAX45Y45*%
G04 Gerber Fmt 4.5, Leading zero omitted, Abs format (unit mm)*
G04 Created by KiCad (PCBNEW 7.0.7) date 2023-11-28 22:26:52*
%MOMM*%
%LPD*%
G01*
G04 APERTURE LIST*
%ADD10C,0.100000*%
%ADD11C,0.200000*%
%ADD12C,0.065000*%
G04 APERTURE END LIST*
D10*
X9906000Y-9144000D02*
X15240000Y-9144000D01*
X15240000Y-11176000D01*
X9906000Y-11176000D01*
X9906000Y-9144000D01*
D11*
D12*
X10501500Y-9838500D02*
X10566500Y-9903500D01*
X10566500Y-9838500D02*
X10501500Y-9903500D01*
X10501500Y-10416500D02*
X10566500Y-10481500D01*
X10566500Y-10416500D02*
X10501500Y-10481500D01*
D11*
X10161777Y-11492484D02*
X10161777Y-11292484D01*
X10161777Y-11292484D02*
X10209396Y-11292484D01*
X10209396Y-11292484D02*
X10237967Y-11302008D01*
X10237967Y-11302008D02*
X10257015Y-11321055D01*
X10257015Y-11321055D02*
X10266539Y-11340103D01*
X10266539Y-11340103D02*
X10276063Y-11378198D01*
X10276063Y-11378198D02*
X10276063Y-11406769D01*
X10276063Y-11406769D02*
X10266539Y-11444865D01*
X10266539Y-11444865D02*
X10257015Y-11463912D01*
X10257015Y-11463912D02*
X10237967Y-11482960D01*
X10237967Y-11482960D02*
X10209396Y-11492484D01*
X10209396Y-11492484D02*
X10161777Y-11492484D01*
X10361777Y-11492484D02*
X10361777Y-11359150D01*
X10361777Y-11397246D02*
X10371301Y-11378198D01*
X10371301Y-11378198D02*
X10380824Y-11368674D01*
X10380824Y-11368674D02*
X10399872Y-11359150D01*
X10399872Y-11359150D02*
X10418920Y-11359150D01*
X10485586Y-11492484D02*
X10485586Y-11359150D01*
X10485586Y-11292484D02*
X10476063Y-11302008D01*
X10476063Y-11302008D02*
X10485586Y-11311531D01*
X10485586Y-11311531D02*
X10495110Y-11302008D01*
X10495110Y-11302008D02*
X10485586Y-11292484D01*
X10485586Y-11292484D02*
X10485586Y-11311531D01*
X10609396Y-11492484D02*
X10590348Y-11482960D01*
X10590348Y-11482960D02*
X10580824Y-11463912D01*
X10580824Y-11463912D02*
X10580824Y-11292484D01*
X10714158Y-11492484D02*
X10695110Y-11482960D01*
X10695110Y-11482960D02*
X10685586Y-11463912D01*
X10685586Y-11463912D02*
X10685586Y-11292484D01*
X10942729Y-11492484D02*
X10942729Y-11292484D01*
X10942729Y-11292484D02*
X11009396Y-11435341D01*
X11009396Y-11435341D02*
X11076063Y-11292484D01*
X11076063Y-11292484D02*
X11076063Y-11492484D01*
X11257015Y-11492484D02*
X11257015Y-11387722D01*
X11257015Y-11387722D02*
X11247491Y-11368674D01*
X11247491Y-11368674D02*
X11228443Y-11359150D01*
X11228443Y-11359150D02*
X11190348Y-11359150D01*
X11190348Y-11359150D02*
X11171301Y-11368674D01*
X11257015Y-11482960D02*
X11237967Y-11492484D01*
X11237967Y-11492484D02*
X11190348Y-11492484D01*
X11190348Y-11492484D02*
X11171301Y-11482960D01*
X11171301Y-11482960D02*
X11161777Y-11463912D01*
X11161777Y-11463912D02*
X11161777Y-11444865D01*
X11161777Y-11444865D02*
X11171301Y-11425817D01*
X11171301Y-11425817D02*
X11190348Y-11416293D01*
X11190348Y-11416293D02*
X11237967Y-11416293D01*
X11237967Y-11416293D02*
X11257015Y-11406769D01*
X11352253Y-11359150D02*
X11352253Y-11559150D01*
X11352253Y-11368674D02*
X11371301Y-11359150D01*
X11371301Y-11359150D02*
X11409396Y-11359150D01*
X11409396Y-11359150D02*
X11428443Y-11368674D01*
X11428443Y-11368674D02*
X11437967Y-11378198D01*
X11437967Y-11378198D02*
X11447491Y-11397246D01*
X11447491Y-11397246D02*
X11447491Y-11454388D01*
X11447491Y-11454388D02*
X11437967Y-11473436D01*
X11437967Y-11473436D02*
X11428443Y-11482960D01*
X11428443Y-11482960D02*
X11409396Y-11492484D01*
X11409396Y-11492484D02*
X11371301Y-11492484D01*
X11371301Y-11492484D02*
X11352253Y-11482960D01*
X11533205Y-11473436D02*
X11542729Y-11482960D01*
X11542729Y-11482960D02*
X11533205Y-11492484D01*
X11533205Y-11492484D02*
X11523682Y-11482960D01*
X11523682Y-11482960D02*
X11533205Y-11473436D01*
X11533205Y-11473436D02*
X11533205Y-11492484D01*
X11533205Y-11368674D02*
X11542729Y-11378198D01*
X11542729Y-11378198D02*
X11533205Y-11387722D01*
X11533205Y-11387722D02*
X11523682Y-11378198D01*
X11523682Y-11378198D02*
X11533205Y-11368674D01*
X11533205Y-11368674D02*
X11533205Y-11387722D01*
D12*
X9836000Y-11788500D02*
X9901000Y-11853500D01*
X9901000Y-11788500D02*
X9836000Y-11853500D01*
D11*
X10199872Y-11712484D02*
X10218920Y-11712484D01*
X10218920Y-11712484D02*
X10237967Y-11722008D01*
X10237967Y-11722008D02*
X10247491Y-11731531D01*
X10247491Y-11731531D02*
X10257015Y-11750579D01*
X10257015Y-11750579D02*
X10266539Y-11788674D01*
X10266539Y-11788674D02*
X10266539Y-11836293D01*
X10266539Y-11836293D02*
X10257015Y-11874388D01*
X10257015Y-11874388D02*
X10247491Y-11893436D01*
X10247491Y-11893436D02*
X10237967Y-11902960D01*
X10237967Y-11902960D02*
X10218920Y-11912484D01*
X10218920Y-11912484D02*
X10199872Y-11912484D01*
X10199872Y-11912484D02*
X10180824Y-11902960D01*
X10180824Y-11902960D02*
X10171301Y-11893436D01*
X10171301Y-11893436D02*
X10161777Y-11874388D01*
X10161777Y-11874388D02*
X10152253Y-11836293D01*
X10152253Y-11836293D02*
X10152253Y-11788674D01*
X10152253Y-11788674D02*
X10161777Y-11750579D01*
X10161777Y-11750579D02*
X10171301Y-11731531D01*
X10171301Y-11731531D02*
X10180824Y-11722008D01*
X10180824Y-11722008D02*
X10199872Y-11712484D01*
X10352253Y-11893436D02*
X10361777Y-11902960D01*
X10361777Y-11902960D02*
X10352253Y-11912484D01*
X10352253Y-11912484D02*
X10342729Y-11902960D01*
X10342729Y-11902960D02*
X10352253Y-11893436D01*
X10352253Y-11893436D02*
X10352253Y-11912484D01*
X10533205Y-11712484D02*
X10495110Y-11712484D01*
X10495110Y-11712484D02*
X10476063Y-11722008D01*
X10476063Y-11722008D02*
X10466539Y-11731531D01*
X10466539Y-11731531D02*
X10447491Y-11760103D01*
X10447491Y-11760103D02*
X10437967Y-11798198D01*
X10437967Y-11798198D02*
X10437967Y-11874388D01*
X10437967Y-11874388D02*
X10447491Y-11893436D01*
X10447491Y-11893436D02*
X10457015Y-11902960D01*
X10457015Y-11902960D02*
X10476063Y-11912484D01*
X10476063Y-11912484D02*
X10514158Y-11912484D01*
X10514158Y-11912484D02*
X10533205Y-11902960D01*
X10533205Y-11902960D02*
X10542729Y-11893436D01*
X10542729Y-11893436D02*
X10552253Y-11874388D01*
X10552253Y-11874388D02*
X10552253Y-11826769D01*
X10552253Y-11826769D02*
X10542729Y-11807722D01*
X10542729Y-11807722D02*
X10533205Y-11798198D01*
X10533205Y-11798198D02*
X10514158Y-11788674D01*
X10514158Y-11788674D02*
X10476063Y-11788674D01*
X10476063Y-11788674D02*
X10457015Y-11798198D01*
X10457015Y-11798198D02*
X10447491Y-11807722D01*
X10447491Y-11807722D02*
X10437967Y-11826769D01*
X10733205Y-11712484D02*
X10637967Y-11712484D01*
X10637967Y-11712484D02*
X10628444Y-11807722D01*
X10628444Y-11807722D02*
X10637967Y-11798198D01*
X10637967Y-11798198D02*
X10657015Y-11788674D01*
X10657015Y-11788674D02*
X10704634Y-11788674D01*
X10704634Y-11788674D02*
X10723682Y-11798198D01*
X10723682Y-11798198D02*
X10733205Y-11807722D01*
X10733205Y-11807722D02*
X10742729Y-11826769D01*
X10742729Y-11826769D02*
X10742729Y-11874388D01*
X10742729Y-11874388D02*
X10733205Y-11893436D01*
X10733205Y-11893436D02*
X10723682Y-11902960D01*
X10723682Y-11902960D02*
X10704634Y-11912484D01*
X10704634Y-11912484D02*
X10657015Y-11912484D01*
X10657015Y-11912484D02*
X10637967Y-11902960D01*
X10637967Y-11902960D02*
X10628444Y-11893436D01*
X10866539Y-11712484D02*
X10885586Y-11712484D01*
X10885586Y-11712484D02*
X10904634Y-11722008D01*
X10904634Y-11722008D02*
X10914158Y-11731531D01*
X10914158Y-11731531D02*
X10923682Y-11750579D01*
X10923682Y-11750579D02*
X10933205Y-11788674D01*
X10933205Y-11788674D02*
X10933205Y-11836293D01*
X10933205Y-11836293D02*
X10923682Y-11874388D01*
X10923682Y-11874388D02*
X10914158Y-11893436D01*
X10914158Y-11893436D02*
X10904634Y-11902960D01*
X10904634Y-11902960D02*
X10885586Y-11912484D01*
X10885586Y-11912484D02*
X10866539Y-11912484D01*
X10866539Y-11912484D02*
X10847491Y-11902960D01*
X10847491Y-11902960D02*
X10837967Y-11893436D01*
X10837967Y-11893436D02*
X10828444Y-11874388D01*
X10828444Y-11874388D02*
X10818920Y-11836293D01*
X10818920Y-11836293D02*
X10818920Y-11788674D01*
X10818920Y-11788674D02*
X10828444Y-11750579D01*
X10828444Y-11750579D02*
X10837967Y-11731531D01*
X10837967Y-11731531D02*
X10847491Y-11722008D01*
X10847491Y-11722008D02*
X10866539Y-11712484D01*
X11018920Y-11912484D02*
X11018920Y-11779150D01*
X11018920Y-11798198D02*
X11028444Y-11788674D01*
X11028444Y-11788674D02*
X11047491Y-11779150D01*
X11047491Y-11779150D02*
X11076063Y-11779150D01*
X11076063Y-11779150D02*
X11095110Y-11788674D01*
X11095110Y-11788674D02*
X11104634Y-11807722D01*
X11104634Y-11807722D02*
X11104634Y-11912484D01*
X11104634Y-11807722D02*
X11114158Y-11788674D01*
X11114158Y-11788674D02*
X11133205Y-11779150D01*
X11133205Y-11779150D02*
X11161777Y-11779150D01*
X11161777Y-11779150D02*
X11180825Y-11788674D01*
X11180825Y-11788674D02*
X11190348Y-11807722D01*
X11190348Y-11807722D02*
X11190348Y-11912484D01*
X11285586Y-11912484D02*
X11285586Y-11779150D01*
X11285586Y-11798198D02*
X11295110Y-11788674D01*
X11295110Y-11788674D02*
X11314158Y-11779150D01*
X11314158Y-11779150D02*
X11342729Y-11779150D01*
X11342729Y-11779150D02*
X11361777Y-11788674D01*
X11361777Y-11788674D02*
X11371301Y-11807722D01*
X11371301Y-11807722D02*
X11371301Y-11912484D01*
X11371301Y-11807722D02*
X11380824Y-11788674D01*
X11380824Y-11788674D02*
X11399872Y-11779150D01*
X11399872Y-11779150D02*
X11428443Y-11779150D01*
X11428443Y-11779150D02*
X11447491Y-11788674D01*
X11447491Y-11788674D02*
X11457015Y-11807722D01*
X11457015Y-11807722D02*
X11457015Y-11912484D01*
X11847491Y-11702960D02*
X11676063Y-11960103D01*
X12104634Y-11712484D02*
X12123682Y-11712484D01*
X12123682Y-11712484D02*
X12142729Y-11722008D01*
X12142729Y-11722008D02*
X12152253Y-11731531D01*
X12152253Y-11731531D02*
X12161777Y-11750579D01*
X12161777Y-11750579D02*
X12171301Y-11788674D01*
X12171301Y-11788674D02*
X12171301Y-11836293D01*
X12171301Y-11836293D02*
X12161777Y-11874388D01*
X12161777Y-11874388D02*
X12152253Y-11893436D01*
X12152253Y-11893436D02*
X12142729Y-11902960D01*
X12142729Y-11902960D02*
X12123682Y-11912484D01*
X12123682Y-11912484D02*
X12104634Y-11912484D01*
X12104634Y-11912484D02*
X12085586Y-11902960D01*
X12085586Y-11902960D02*
X12076063Y-11893436D01*
X12076063Y-11893436D02*
X12066539Y-11874388D01*
X12066539Y-11874388D02*
X12057015Y-11836293D01*
X12057015Y-11836293D02*
X12057015Y-11788674D01*
X12057015Y-11788674D02*
X12066539Y-11750579D01*
X12066539Y-11750579D02*
X12076063Y-11731531D01*
X12076063Y-11731531D02*
X12085586Y-11722008D01*
X12085586Y-11722008D02*
X12104634Y-11712484D01*
X12257015Y-11893436D02*
X12266539Y-11902960D01*
X12266539Y-11902960D02*
X12257015Y-11912484D01*
X12257015Y-11912484D02*
X12247491Y-11902960D01*
X12247491Y-11902960D02*
X12257015Y-11893436D01*
X12257015Y-11893436D02*
X12257015Y-11912484D01*
X12390348Y-11712484D02*
X12409396Y-11712484D01*
X12409396Y-11712484D02*
X12428444Y-11722008D01*
X12428444Y-11722008D02*
X12437967Y-11731531D01*
X12437967Y-11731531D02*
X12447491Y-11750579D01*
X12447491Y-11750579D02*
X12457015Y-11788674D01*
X12457015Y-11788674D02*
X12457015Y-11836293D01*
X12457015Y-11836293D02*
X12447491Y-11874388D01*
X12447491Y-11874388D02*
X12437967Y-11893436D01*
X12437967Y-11893436D02*
X12428444Y-11902960D01*
X12428444Y-11902960D02*
X12409396Y-11912484D01*
X12409396Y-11912484D02*
X12390348Y-11912484D01*
X12390348Y-11912484D02*
X12371301Y-11902960D01*
X12371301Y-11902960D02*
X12361777Y-11893436D01*
X12361777Y-11893436D02*
X12352253Y-11874388D01*
X12352253Y-11874388D02*
X12342729Y-11836293D01*
X12342729Y-11836293D02*
X12342729Y-11788674D01*
X12342729Y-11788674D02*
X12352253Y-11750579D01*
X12352253Y-11750579D02*
X12361777Y-11731531D01*
X12361777Y-11731531D02*
X12371301Y-11722008D01*
X12371301Y-11722008D02*
X12390348Y-11712484D01*
X12533206Y-11731531D02*
X12542729Y-11722008D01*
X12542729Y-11722008D02*
X12561777Y-11712484D01*
X12561777Y-11712484D02*
X12609396Y-11712484D01*
X12609396Y-11712484D02*
X12628444Y-11722008D01*
X12628444Y-11722008D02*
X12637967Y-11731531D01*
X12637967Y-11731531D02*
X12647491Y-11750579D01*
X12647491Y-11750579D02*
X12647491Y-11769627D01*
X12647491Y-11769627D02*
X12637967Y-11798198D01*
X12637967Y-11798198D02*
X12523682Y-11912484D01*
X12523682Y-11912484D02*
X12647491Y-11912484D01*
X12828444Y-11712484D02*
X12733206Y-11712484D01*
X12733206Y-11712484D02*
X12723682Y-11807722D01*
X12723682Y-11807722D02*
X12733206Y-11798198D01*
X12733206Y-11798198D02*
X12752253Y-11788674D01*
X12752253Y-11788674D02*
X12799872Y-11788674D01*
X12799872Y-11788674D02*
X12818920Y-11798198D01*
X12818920Y-11798198D02*
X12828444Y-11807722D01*
X12828444Y-11807722D02*
X12837967Y-11826769D01*
X12837967Y-11826769D02*
X12837967Y-11874388D01*
X12837967Y-11874388D02*
X12828444Y-11893436D01*
X12828444Y-11893436D02*
X12818920Y-11902960D01*
X12818920Y-11902960D02*
X12799872Y-11912484D01*
X12799872Y-11912484D02*
X12752253Y-11912484D01*
X12752253Y-11912484D02*
X12733206Y-11902960D01*
X12733206Y-11902960D02*
X12723682Y-11893436D01*
X13009396Y-11712484D02*
X12971301Y-11712484D01*
X12971301Y-11712484D02*
X12952253Y-11722008D01*
X12952253Y-11722008D02*
X12942729Y-11731531D01*
X12942729Y-11731531D02*
X12923682Y-11760103D01*
X12923682Y-11760103D02*
X12914158Y-11798198D01*
X12914158Y-11798198D02*
X12914158Y-11874388D01*
X12914158Y-11874388D02*
X12923682Y-11893436D01*
X12923682Y-11893436D02*
X12933206Y-11902960D01*
X12933206Y-11902960D02*
X12952253Y-11912484D01*
X12952253Y-11912484D02*
X12990348Y-11912484D01*
X12990348Y-11912484D02*
X13009396Y-11902960D01*
X13009396Y-11902960D02*
X13018920Y-11893436D01*
X13018920Y-11893436D02*
X13028444Y-11874388D01*
X13028444Y-11874388D02*
X13028444Y-11826769D01*
X13028444Y-11826769D02*
X13018920Y-11807722D01*
X13018920Y-11807722D02*
X13009396Y-11798198D01*
X13009396Y-11798198D02*
X12990348Y-11788674D01*
X12990348Y-11788674D02*
X12952253Y-11788674D01*
X12952253Y-11788674D02*
X12933206Y-11798198D01*
X12933206Y-11798198D02*
X12923682Y-11807722D01*
X12923682Y-11807722D02*
X12914158Y-11826769D01*
X13104634Y-11712484D02*
X13104634Y-11750579D01*
X13180825Y-11712484D02*
X13180825Y-11750579D01*
X13476063Y-11988674D02*
X13466539Y-11979150D01*
X13466539Y-11979150D02*
X13447491Y-11950579D01*
X13447491Y-11950579D02*
X13437968Y-11931531D01*
X13437968Y-11931531D02*
X13428444Y-11902960D01*
X13428444Y-11902960D02*
X13418920Y-11855341D01*
X13418920Y-11855341D02*
X13418920Y-11817246D01*
X13418920Y-11817246D02*
X13428444Y-11769627D01*
X13428444Y-11769627D02*
X13437968Y-11741055D01*
X13437968Y-11741055D02*
X13447491Y-11722008D01*
X13447491Y-11722008D02*
X13466539Y-11693436D01*
X13466539Y-11693436D02*
X13476063Y-11683912D01*
X13542729Y-11731531D02*
X13552253Y-11722008D01*
X13552253Y-11722008D02*
X13571301Y-11712484D01*
X13571301Y-11712484D02*
X13618920Y-11712484D01*
X13618920Y-11712484D02*
X13637968Y-11722008D01*
X13637968Y-11722008D02*
X13647491Y-11731531D01*
X13647491Y-11731531D02*
X13657015Y-11750579D01*
X13657015Y-11750579D02*
X13657015Y-11769627D01*
X13657015Y-11769627D02*
X13647491Y-11798198D01*
X13647491Y-11798198D02*
X13533206Y-11912484D01*
X13533206Y-11912484D02*
X13657015Y-11912484D01*
X13895110Y-11912484D02*
X13895110Y-11712484D01*
X13980825Y-11912484D02*
X13980825Y-11807722D01*
X13980825Y-11807722D02*
X13971301Y-11788674D01*
X13971301Y-11788674D02*
X13952253Y-11779150D01*
X13952253Y-11779150D02*
X13923682Y-11779150D01*
X13923682Y-11779150D02*
X13904634Y-11788674D01*
X13904634Y-11788674D02*
X13895110Y-11798198D01*
X14104634Y-11912484D02*
X14085587Y-11902960D01*
X14085587Y-11902960D02*
X14076063Y-11893436D01*
X14076063Y-11893436D02*
X14066539Y-11874388D01*
X14066539Y-11874388D02*
X14066539Y-11817246D01*
X14066539Y-11817246D02*
X14076063Y-11798198D01*
X14076063Y-11798198D02*
X14085587Y-11788674D01*
X14085587Y-11788674D02*
X14104634Y-11779150D01*
X14104634Y-11779150D02*
X14133206Y-11779150D01*
X14133206Y-11779150D02*
X14152253Y-11788674D01*
X14152253Y-11788674D02*
X14161777Y-11798198D01*
X14161777Y-11798198D02*
X14171301Y-11817246D01*
X14171301Y-11817246D02*
X14171301Y-11874388D01*
X14171301Y-11874388D02*
X14161777Y-11893436D01*
X14161777Y-11893436D02*
X14152253Y-11902960D01*
X14152253Y-11902960D02*
X14133206Y-11912484D01*
X14133206Y-11912484D02*
X14104634Y-11912484D01*
X14285587Y-11912484D02*
X14266539Y-11902960D01*
X14266539Y-11902960D02*
X14257015Y-11883912D01*
X14257015Y-11883912D02*
X14257015Y-11712484D01*
X14437968Y-11902960D02*
X14418920Y-11912484D01*
X14418920Y-11912484D02*
X14380825Y-11912484D01*
X14380825Y-11912484D02*
X14361777Y-11902960D01*
X14361777Y-11902960D02*
X14352253Y-11883912D01*
X14352253Y-11883912D02*
X14352253Y-11807722D01*
X14352253Y-11807722D02*
X14361777Y-11788674D01*
X14361777Y-11788674D02*
X14380825Y-11779150D01*
X14380825Y-11779150D02*
X14418920Y-11779150D01*
X14418920Y-11779150D02*
X14437968Y-11788674D01*
X14437968Y-11788674D02*
X14447491Y-11807722D01*
X14447491Y-11807722D02*
X14447491Y-11826769D01*
X14447491Y-11826769D02*
X14352253Y-11845817D01*
X14523682Y-11902960D02*
X14542730Y-11912484D01*
X14542730Y-11912484D02*
X14580825Y-11912484D01*
X14580825Y-11912484D02*
X14599872Y-11902960D01*
X14599872Y-11902960D02*
X14609396Y-11883912D01*
X14609396Y-11883912D02*
X14609396Y-11874388D01*
X14609396Y-11874388D02*
X14599872Y-11855341D01*
X14599872Y-11855341D02*
X14580825Y-11845817D01*
X14580825Y-11845817D02*
X14552253Y-11845817D01*
X14552253Y-11845817D02*
X14533206Y-11836293D01*
X14533206Y-11836293D02*
X14523682Y-11817246D01*
X14523682Y-11817246D02*
X14523682Y-11807722D01*
X14523682Y-11807722D02*
X14533206Y-11788674D01*
X14533206Y-11788674D02*
X14552253Y-11779150D01*
X14552253Y-11779150D02*
X14580825Y-11779150D01*
X14580825Y-11779150D02*
X14599872Y-11788674D01*
X14676063Y-11988674D02*
X14685587Y-11979150D01*
X14685587Y-11979150D02*
X14704634Y-11950579D01*
X14704634Y-11950579D02*
X14714158Y-11931531D01*
X14714158Y-11931531D02*
X14723682Y-11902960D01*
X14723682Y-11902960D02*
X14733206Y-11855341D01*
X14733206Y-11855341D02*
X14733206Y-11817246D01*
X14733206Y-11817246D02*
X14723682Y-11769627D01*
X14723682Y-11769627D02*
X14714158Y-11741055D01*
X14714158Y-11741055D02*
X14704634Y-11722008D01*
X14704634Y-11722008D02*
X14685587Y-11693436D01*
X14685587Y-11693436D02*
X14676063Y-11683912D01*
X15037968Y-11988674D02*
X15028444Y-11979150D01*
X15028444Y-11979150D02*
X15009396Y-11950579D01*
X15009396Y-11950579D02*
X14999872Y-11931531D01*
X14999872Y-11931531D02*
X14990349Y-11902960D01*
X14990349Y-11902960D02*
X14980825Y-11855341D01*
X14980825Y-11855341D02*
X14980825Y-11817246D01*
X14980825Y-11817246D02*
X14990349Y-11769627D01*
X14990349Y-11769627D02*
X14999872Y-11741055D01*
X14999872Y-11741055D02*
X15009396Y-11722008D01*
X15009396Y-11722008D02*
X15028444Y-11693436D01*
X15028444Y-11693436D02*
X15037968Y-11683912D01*
X15114158Y-11779150D02*
X15114158Y-11912484D01*
X15114158Y-11798198D02*
X15123682Y-11788674D01*
X15123682Y-11788674D02*
X15142730Y-11779150D01*
X15142730Y-11779150D02*
X15171301Y-11779150D01*
X15171301Y-11779150D02*
X15190349Y-11788674D01*
X15190349Y-11788674D02*
X15199872Y-11807722D01*
X15199872Y-11807722D02*
X15199872Y-11912484D01*
X15323682Y-11912484D02*
X15304634Y-11902960D01*
X15304634Y-11902960D02*
X15295111Y-11893436D01*
X15295111Y-11893436D02*
X15285587Y-11874388D01*
X15285587Y-11874388D02*
X15285587Y-11817246D01*
X15285587Y-11817246D02*
X15295111Y-11798198D01*
X15295111Y-11798198D02*
X15304634Y-11788674D01*
X15304634Y-11788674D02*
X15323682Y-11779150D01*
X15323682Y-11779150D02*
X15352253Y-11779150D01*
X15352253Y-11779150D02*
X15371301Y-11788674D01*
X15371301Y-11788674D02*
X15380825Y-11798198D01*
X15380825Y-11798198D02*
X15390349Y-11817246D01*
X15390349Y-11817246D02*
X15390349Y-11874388D01*
X15390349Y-11874388D02*
X15380825Y-11893436D01*
X15380825Y-11893436D02*
X15371301Y-11902960D01*
X15371301Y-11902960D02*
X15352253Y-11912484D01*
X15352253Y-11912484D02*
X15323682Y-11912484D01*
X15447492Y-11779150D02*
X15523682Y-11779150D01*
X15476063Y-11712484D02*
X15476063Y-11883912D01*
X15476063Y-11883912D02*
X15485587Y-11902960D01*
X15485587Y-11902960D02*
X15504634Y-11912484D01*
X15504634Y-11912484D02*
X15523682Y-11912484D01*
X15742730Y-11779150D02*
X15742730Y-11979150D01*
X15742730Y-11788674D02*
X15761777Y-11779150D01*
X15761777Y-11779150D02*
X15799873Y-11779150D01*
X15799873Y-11779150D02*
X15818920Y-11788674D01*
X15818920Y-11788674D02*
X15828444Y-11798198D01*
X15828444Y-11798198D02*
X15837968Y-11817246D01*
X15837968Y-11817246D02*
X15837968Y-11874388D01*
X15837968Y-11874388D02*
X15828444Y-11893436D01*
X15828444Y-11893436D02*
X15818920Y-11902960D01*
X15818920Y-11902960D02*
X15799873Y-11912484D01*
X15799873Y-11912484D02*
X15761777Y-11912484D01*
X15761777Y-11912484D02*
X15742730Y-11902960D01*
X15952253Y-11912484D02*
X15933206Y-11902960D01*
X15933206Y-11902960D02*
X15923682Y-11883912D01*
X15923682Y-11883912D02*
X15923682Y-11712484D01*
X16114158Y-11912484D02*
X16114158Y-11807722D01*
X16114158Y-11807722D02*
X16104634Y-11788674D01*
X16104634Y-11788674D02*
X16085587Y-11779150D01*
X16085587Y-11779150D02*
X16047492Y-11779150D01*
X16047492Y-11779150D02*
X16028444Y-11788674D01*
X16114158Y-11902960D02*
X16095111Y-11912484D01*
X16095111Y-11912484D02*
X16047492Y-11912484D01*
X16047492Y-11912484D02*
X16028444Y-11902960D01*
X16028444Y-11902960D02*
X16018920Y-11883912D01*
X16018920Y-11883912D02*
X16018920Y-11864865D01*
X16018920Y-11864865D02*
X16028444Y-11845817D01*
X16028444Y-11845817D02*
X16047492Y-11836293D01*
X16047492Y-11836293D02*
X16095111Y-11836293D01*
X16095111Y-11836293D02*
X16114158Y-11826769D01*
X16180825Y-11779150D02*
X16257015Y-11779150D01*
X16209396Y-11712484D02*
X16209396Y-11883912D01*
X16209396Y-11883912D02*
X16218920Y-11902960D01*
X16218920Y-11902960D02*
X16237968Y-11912484D01*
X16237968Y-11912484D02*
X16257015Y-11912484D01*
X16399873Y-11902960D02*
X16380825Y-11912484D01*
X16380825Y-11912484D02*
X16342730Y-11912484D01*
X16342730Y-11912484D02*
X16323682Y-11902960D01*
X16323682Y-11902960D02*
X16314158Y-11883912D01*
X16314158Y-11883912D02*
X16314158Y-11807722D01*
X16314158Y-11807722D02*
X16323682Y-11788674D01*
X16323682Y-11788674D02*
X16342730Y-11779150D01*
X16342730Y-11779150D02*
X16380825Y-11779150D01*
X16380825Y-11779150D02*
X16399873Y-11788674D01*
X16399873Y-11788674D02*
X16409396Y-11807722D01*
X16409396Y-11807722D02*
X16409396Y-11826769D01*
X16409396Y-11826769D02*
X16314158Y-11845817D01*
X16580825Y-11912484D02*
X16580825Y-11712484D01*
X16580825Y-11902960D02*
X16561777Y-11912484D01*
X16561777Y-11912484D02*
X16523682Y-11912484D01*
X16523682Y-11912484D02*
X16504634Y-11902960D01*
X16504634Y-11902960D02*
X16495111Y-11893436D01*
X16495111Y-11893436D02*
X16485587Y-11874388D01*
X16485587Y-11874388D02*
X16485587Y-11817246D01*
X16485587Y-11817246D02*
X16495111Y-11798198D01*
X16495111Y-11798198D02*
X16504634Y-11788674D01*
X16504634Y-11788674D02*
X16523682Y-11779150D01*
X16523682Y-11779150D02*
X16561777Y-11779150D01*
X16561777Y-11779150D02*
X16580825Y-11788674D01*
X16657015Y-11988674D02*
X16666539Y-11979150D01*
X16666539Y-11979150D02*
X16685587Y-11950579D01*
X16685587Y-11950579D02*
X16695111Y-11931531D01*
X16695111Y-11931531D02*
X16704634Y-11902960D01*
X16704634Y-11902960D02*
X16714158Y-11855341D01*
X16714158Y-11855341D02*
X16714158Y-11817246D01*
X16714158Y-11817246D02*
X16704634Y-11769627D01*
X16704634Y-11769627D02*
X16695111Y-11741055D01*
X16695111Y-11741055D02*
X16685587Y-11722008D01*
X16685587Y-11722008D02*
X16666539Y-11693436D01*
X16666539Y-11693436D02*
X16657015Y-11683912D01*
M02*
