%TF.GenerationSoftware,KiCad,Pcbnew,7.0.7*%
%TF.CreationDate,2023-11-13T21:49:10+01:00*%
%TF.ProjectId,STM32G474_Black-Pill_v3.0,53544d33-3247-4343-9734-5f426c61636b,A*%
%TF.SameCoordinates,Original*%
%TF.FileFunction,Copper,L3,Inr*%
%TF.FilePolarity,Positive*%
%FSLAX46Y46*%
G04 Gerber Fmt 4.6, Leading zero omitted, Abs format (unit mm)*
G04 Created by KiCad (PCBNEW 7.0.7) date 2023-11-13 21:49:10*
%MOMM*%
%LPD*%
G01*
G04 APERTURE LIST*
%TA.AperFunction,ComponentPad*%
%ADD10R,1.700000X1.700000*%
%TD*%
%TA.AperFunction,ComponentPad*%
%ADD11O,1.700000X1.700000*%
%TD*%
%TA.AperFunction,ComponentPad*%
%ADD12O,2.100000X1.000000*%
%TD*%
%TA.AperFunction,ComponentPad*%
%ADD13O,1.800000X1.000000*%
%TD*%
%TA.AperFunction,ViaPad*%
%ADD14C,0.500000*%
%TD*%
%TA.AperFunction,Conductor*%
%ADD15C,0.500000*%
%TD*%
%TA.AperFunction,Conductor*%
%ADD16C,0.200000*%
%TD*%
G04 APERTURE END LIST*
D10*
%TO.N,+3.3V*%
%TO.C,J104*%
X148285000Y-97800000D03*
D11*
%TO.N,/SWDIO*%
X148285000Y-100340000D03*
%TO.N,/SWCLK*%
X148285000Y-102880000D03*
%TO.N,GND*%
X148285000Y-105420000D03*
%TD*%
D12*
%TO.N,GND*%
%TO.C,J101*%
X105840000Y-97280000D03*
D13*
X101660000Y-97280000D03*
D12*
X105840000Y-105920000D03*
D13*
X101660000Y-105920000D03*
%TD*%
D10*
%TO.N,/PB12*%
%TO.C,J102*%
X101600000Y-109220000D03*
D11*
%TO.N,/PB13*%
X104140000Y-109220000D03*
%TO.N,/PB14*%
X106680000Y-109220000D03*
%TO.N,/PB15*%
X109220000Y-109220000D03*
%TO.N,/PA8*%
X111760000Y-109220000D03*
%TO.N,/PA9*%
X114300000Y-109220000D03*
%TO.N,/PA10*%
X116840000Y-109220000D03*
%TO.N,/PA11*%
X119380000Y-109220000D03*
%TO.N,/PA12*%
X121920000Y-109220000D03*
%TO.N,/PA15*%
X124460000Y-109220000D03*
%TO.N,/PB3*%
X127000000Y-109220000D03*
%TO.N,/PB4*%
X129540000Y-109220000D03*
%TO.N,/PB5*%
X132080000Y-109220000D03*
%TO.N,/PB6*%
X134620000Y-109220000D03*
%TO.N,/PB7*%
X137160000Y-109220000D03*
%TO.N,/PB11*%
X139700000Y-109220000D03*
%TO.N,/PB9*%
X142240000Y-109220000D03*
%TO.N,+5V*%
X144780000Y-109220000D03*
%TO.N,GND*%
X147320000Y-109220000D03*
%TO.N,+3.3V*%
X149860000Y-109220000D03*
%TD*%
D10*
%TO.N,+5V*%
%TO.C,J103*%
X101600000Y-93980000D03*
D11*
%TO.N,GND*%
X104140000Y-93980000D03*
%TO.N,+3.3V*%
X106680000Y-93980000D03*
%TO.N,/PB10*%
X109220000Y-93980000D03*
%TO.N,/PB2*%
X111760000Y-93980000D03*
%TO.N,/PB1*%
X114300000Y-93980000D03*
%TO.N,/PB0*%
X116840000Y-93980000D03*
%TO.N,/PA7*%
X119380000Y-93980000D03*
%TO.N,/PA6*%
X121920000Y-93980000D03*
%TO.N,/PA5*%
X124460000Y-93980000D03*
%TO.N,/PA4*%
X127000000Y-93980000D03*
%TO.N,/PA3*%
X129540000Y-93980000D03*
%TO.N,/PA2*%
X132080000Y-93980000D03*
%TO.N,/PA1*%
X134620000Y-93980000D03*
%TO.N,/PA0*%
X137160000Y-93980000D03*
%TO.N,NRST*%
X139700000Y-93980000D03*
%TO.N,/Pin17*%
X142240000Y-93980000D03*
%TO.N,/Pin18*%
X144780000Y-93980000D03*
%TO.N,/PC13*%
X147320000Y-93980000D03*
%TO.N,VB*%
X149860000Y-93980000D03*
%TD*%
D14*
%TO.N,+3.3V*%
X113919000Y-101346000D03*
X110998000Y-103632000D03*
X138811000Y-101346000D03*
X115316000Y-96774000D03*
X108524000Y-95316000D03*
X117153000Y-105342000D03*
X118745000Y-102362000D03*
%TO.N,GND*%
X114681000Y-101854000D03*
X132207000Y-97663000D03*
X110109000Y-102489000D03*
X133350000Y-104013000D03*
X125730000Y-104140000D03*
X133413500Y-101790500D03*
X141704000Y-100556000D03*
X110998000Y-97536000D03*
X120396000Y-99314000D03*
X124460000Y-102870000D03*
X123190000Y-101600000D03*
X117983000Y-100838000D03*
X125730000Y-100330000D03*
X123190000Y-107823000D03*
X124460000Y-100330000D03*
X141351000Y-106426000D03*
X125730000Y-99060000D03*
X145542000Y-102235000D03*
X133731000Y-106235500D03*
X117602000Y-96647000D03*
X136144000Y-96647000D03*
X127000000Y-102743000D03*
X125730000Y-102743000D03*
X125730000Y-101600000D03*
X129766000Y-97056000D03*
X132235000Y-98580000D03*
X124460000Y-101600000D03*
X131380139Y-101679033D03*
X110109000Y-103632000D03*
X127000000Y-101600000D03*
X127000000Y-100330000D03*
X110109000Y-97282000D03*
X128270000Y-101600000D03*
X116713000Y-96647000D03*
%TO.N,NRST*%
X128905000Y-96647000D03*
X114300000Y-100008000D03*
%TO.N,VBAT*%
X130556000Y-101473000D03*
X139855000Y-99596000D03*
%TO.N,+5V*%
X109474000Y-98879076D03*
%TO.N,/PC13*%
X131122378Y-100838000D03*
X137922000Y-100838000D03*
%TO.N,Net-(J101-CC1)*%
X104902000Y-100076000D03*
%TO.N,Net-(J101-D+-PadA6)*%
X104902000Y-102108000D03*
%TO.N,Net-(J101-D--PadA7)*%
X104902000Y-101092000D03*
%TO.N,Net-(J101-CC2)*%
X104902000Y-103124000D03*
%TO.N,/PB11*%
X117729000Y-103759000D03*
%TO.N,/PC6*%
X121920000Y-104349339D03*
%TO.N,/PC4*%
X123311884Y-97414116D03*
%TO.N,/SWDIO*%
X125256311Y-107026689D03*
%TO.N,/SWCLK*%
X125857000Y-106426000D03*
%TO.N,/PC10*%
X127635000Y-106172000D03*
X138176000Y-104140000D03*
X138176000Y-106172000D03*
%TO.N,/PC11*%
X127319503Y-106960744D03*
%TO.N,/PB8*%
X131318000Y-105791000D03*
X114300000Y-103192000D03*
%TO.N,/+3.3V_{MCU}*%
X131545386Y-103478386D03*
X119606000Y-101600000D03*
X124460000Y-107569000D03*
X137160000Y-102489000D03*
%TD*%
D15*
%TO.N,+5V*%
X99695000Y-95885000D02*
X99695000Y-109855000D01*
X100965000Y-111125000D02*
X142875000Y-111125000D01*
X103850000Y-96230000D02*
X101600000Y-93980000D01*
X101600000Y-93980000D02*
X99695000Y-95885000D01*
X106824924Y-96230000D02*
X103850000Y-96230000D01*
X99695000Y-109855000D02*
X100965000Y-111125000D01*
X109474000Y-98879076D02*
X106824924Y-96230000D01*
X142875000Y-111125000D02*
X144780000Y-109220000D01*
D16*
%TO.N,/PB11*%
X117729000Y-104928050D02*
X118110000Y-105309050D01*
X118110000Y-105309050D02*
X118110000Y-109576346D01*
X118110000Y-109576346D02*
X118903654Y-110370000D01*
X138550000Y-110370000D02*
X139700000Y-109220000D01*
X117729000Y-103759000D02*
X117729000Y-104928050D01*
X118903654Y-110370000D02*
X138550000Y-110370000D01*
D15*
%TO.N,/+3.3V_{MCU}*%
X122047000Y-105918000D02*
X122809000Y-105918000D01*
X131545386Y-103478386D02*
X131545386Y-103936943D01*
X127605640Y-107876689D02*
X124767689Y-107876689D01*
X124460000Y-107569000D02*
X124094743Y-107203743D01*
X119606000Y-101600000D02*
X119606000Y-103477000D01*
X131545386Y-103936943D02*
X127605640Y-107876689D01*
X119606000Y-103477000D02*
X122047000Y-105918000D01*
X124767689Y-107876689D02*
X124094743Y-107203743D01*
X122809000Y-105918000D02*
X124094743Y-107203743D01*
%TD*%
%TA.AperFunction,Conductor*%
%TO.N,+3.3V*%
G36*
X152092539Y-91710185D02*
G01*
X152138294Y-91762989D01*
X152149500Y-91814500D01*
X152149500Y-111385500D01*
X152129815Y-111452539D01*
X152077011Y-111498294D01*
X152025500Y-111509500D01*
X143497675Y-111509500D01*
X143430636Y-111489815D01*
X143384881Y-111437011D01*
X143374937Y-111367853D01*
X143403962Y-111304297D01*
X143409994Y-111297819D01*
X144386881Y-110320931D01*
X144448202Y-110287448D01*
X144497342Y-110286725D01*
X144678024Y-110320500D01*
X144678026Y-110320500D01*
X144881974Y-110320500D01*
X144881976Y-110320500D01*
X145082456Y-110283024D01*
X145272637Y-110209348D01*
X145446041Y-110101981D01*
X145596764Y-109964579D01*
X145719673Y-109801821D01*
X145810582Y-109619250D01*
X145866397Y-109423083D01*
X145885215Y-109220000D01*
X146214785Y-109220000D01*
X146233602Y-109423082D01*
X146289417Y-109619247D01*
X146289422Y-109619260D01*
X146380327Y-109801821D01*
X146503237Y-109964581D01*
X146653958Y-110101980D01*
X146653960Y-110101982D01*
X146753141Y-110163392D01*
X146827363Y-110209348D01*
X147017544Y-110283024D01*
X147218024Y-110320500D01*
X147218026Y-110320500D01*
X147421974Y-110320500D01*
X147421976Y-110320500D01*
X147622456Y-110283024D01*
X147812637Y-110209348D01*
X147986041Y-110101981D01*
X148136764Y-109964579D01*
X148259673Y-109801821D01*
X148346816Y-109626812D01*
X148394319Y-109575575D01*
X148461982Y-109558153D01*
X148528323Y-109580078D01*
X148572278Y-109634389D01*
X148577592Y-109649989D01*
X148586567Y-109683485D01*
X148586570Y-109683492D01*
X148686399Y-109897578D01*
X148821894Y-110091082D01*
X148988917Y-110258105D01*
X149182421Y-110393600D01*
X149396507Y-110493429D01*
X149396516Y-110493433D01*
X149610000Y-110550634D01*
X149610000Y-109832301D01*
X149629685Y-109765262D01*
X149682489Y-109719507D01*
X149751647Y-109709563D01*
X149824237Y-109720000D01*
X149824238Y-109720000D01*
X149895762Y-109720000D01*
X149895763Y-109720000D01*
X149968353Y-109709563D01*
X150037512Y-109719507D01*
X150090315Y-109765262D01*
X150110000Y-109832301D01*
X150110000Y-110550633D01*
X150323483Y-110493433D01*
X150323492Y-110493429D01*
X150537578Y-110393600D01*
X150731082Y-110258105D01*
X150898105Y-110091082D01*
X151033600Y-109897578D01*
X151133429Y-109683492D01*
X151133432Y-109683486D01*
X151190636Y-109470000D01*
X150473347Y-109470000D01*
X150406308Y-109450315D01*
X150360553Y-109397511D01*
X150350609Y-109328353D01*
X150354369Y-109311067D01*
X150360000Y-109291888D01*
X150360000Y-109148111D01*
X150354369Y-109128933D01*
X150354370Y-109059064D01*
X150392145Y-109000286D01*
X150455701Y-108971262D01*
X150473347Y-108970000D01*
X151190636Y-108970000D01*
X151190635Y-108969999D01*
X151133432Y-108756513D01*
X151133429Y-108756507D01*
X151033600Y-108542422D01*
X151033599Y-108542420D01*
X150898113Y-108348926D01*
X150898108Y-108348920D01*
X150731082Y-108181894D01*
X150537578Y-108046399D01*
X150323492Y-107946570D01*
X150323486Y-107946567D01*
X150110000Y-107889364D01*
X150110000Y-108607698D01*
X150090315Y-108674737D01*
X150037511Y-108720492D01*
X149968355Y-108730436D01*
X149895766Y-108720000D01*
X149895763Y-108720000D01*
X149824237Y-108720000D01*
X149824233Y-108720000D01*
X149751645Y-108730436D01*
X149682487Y-108720492D01*
X149629684Y-108674736D01*
X149610000Y-108607698D01*
X149610000Y-107889364D01*
X149609999Y-107889364D01*
X149396513Y-107946567D01*
X149396507Y-107946570D01*
X149182422Y-108046399D01*
X149182420Y-108046400D01*
X148988926Y-108181886D01*
X148988920Y-108181891D01*
X148821891Y-108348920D01*
X148821886Y-108348926D01*
X148686400Y-108542420D01*
X148686399Y-108542422D01*
X148586570Y-108756507D01*
X148586568Y-108756511D01*
X148577592Y-108790011D01*
X148541226Y-108849671D01*
X148478379Y-108880199D01*
X148409003Y-108871904D01*
X148355126Y-108827418D01*
X148346817Y-108813188D01*
X148300415Y-108720000D01*
X148259673Y-108638179D01*
X148175564Y-108526801D01*
X148136762Y-108475418D01*
X147986041Y-108338019D01*
X147986039Y-108338017D01*
X147812642Y-108230655D01*
X147812635Y-108230651D01*
X147686769Y-108181891D01*
X147622456Y-108156976D01*
X147421976Y-108119500D01*
X147218024Y-108119500D01*
X147017544Y-108156976D01*
X147017541Y-108156976D01*
X147017541Y-108156977D01*
X146827364Y-108230651D01*
X146827357Y-108230655D01*
X146653960Y-108338017D01*
X146653958Y-108338019D01*
X146503237Y-108475418D01*
X146380327Y-108638178D01*
X146289422Y-108820739D01*
X146289417Y-108820752D01*
X146233602Y-109016917D01*
X146214785Y-109219999D01*
X146214785Y-109220000D01*
X145885215Y-109220000D01*
X145866397Y-109016917D01*
X145810582Y-108820750D01*
X145719673Y-108638179D01*
X145635564Y-108526801D01*
X145596762Y-108475418D01*
X145446041Y-108338019D01*
X145446039Y-108338017D01*
X145272642Y-108230655D01*
X145272635Y-108230651D01*
X145146769Y-108181891D01*
X145082456Y-108156976D01*
X144881976Y-108119500D01*
X144678024Y-108119500D01*
X144477544Y-108156976D01*
X144477541Y-108156976D01*
X144477541Y-108156977D01*
X144287364Y-108230651D01*
X144287357Y-108230655D01*
X144113960Y-108338017D01*
X144113958Y-108338019D01*
X143963237Y-108475418D01*
X143840327Y-108638178D01*
X143749422Y-108820739D01*
X143749417Y-108820752D01*
X143693602Y-109016917D01*
X143674785Y-109219999D01*
X143674785Y-109220000D01*
X143693602Y-109423079D01*
X143693602Y-109423082D01*
X143693603Y-109423083D01*
X143712534Y-109489622D01*
X143711947Y-109559487D01*
X143680949Y-109611235D01*
X143409042Y-109883142D01*
X143347719Y-109916627D01*
X143278027Y-109911643D01*
X143222094Y-109869771D01*
X143197677Y-109804307D01*
X143210360Y-109740192D01*
X143270582Y-109619250D01*
X143326397Y-109423083D01*
X143345215Y-109220000D01*
X143326397Y-109016917D01*
X143270582Y-108820750D01*
X143179673Y-108638179D01*
X143095564Y-108526801D01*
X143056762Y-108475418D01*
X142906041Y-108338019D01*
X142906039Y-108338017D01*
X142732642Y-108230655D01*
X142732635Y-108230651D01*
X142606769Y-108181891D01*
X142542456Y-108156976D01*
X142341976Y-108119500D01*
X142138024Y-108119500D01*
X141937544Y-108156976D01*
X141937541Y-108156976D01*
X141937541Y-108156977D01*
X141747364Y-108230651D01*
X141747357Y-108230655D01*
X141573960Y-108338017D01*
X141573958Y-108338019D01*
X141423237Y-108475418D01*
X141300327Y-108638178D01*
X141209422Y-108820739D01*
X141209417Y-108820752D01*
X141153602Y-109016917D01*
X141134785Y-109219999D01*
X141134785Y-109220000D01*
X141153602Y-109423082D01*
X141209417Y-109619247D01*
X141209422Y-109619260D01*
X141300327Y-109801821D01*
X141423237Y-109964581D01*
X141573958Y-110101980D01*
X141573960Y-110101982D01*
X141673141Y-110163392D01*
X141747363Y-110209348D01*
X141937544Y-110283024D01*
X142138024Y-110320500D01*
X142138026Y-110320500D01*
X142341974Y-110320500D01*
X142341976Y-110320500D01*
X142542456Y-110283024D01*
X142732637Y-110209348D01*
X142743490Y-110202627D01*
X142810845Y-110184069D01*
X142877546Y-110204873D01*
X142922411Y-110258435D01*
X142931195Y-110327751D01*
X142901111Y-110390812D01*
X142896452Y-110395733D01*
X142821328Y-110470858D01*
X142704003Y-110588182D01*
X142642683Y-110621666D01*
X142616324Y-110624500D01*
X139090544Y-110624500D01*
X139023505Y-110604815D01*
X138977750Y-110552011D01*
X138967806Y-110482853D01*
X138996831Y-110419297D01*
X139002862Y-110412819D01*
X139031718Y-110383963D01*
X139149490Y-110266190D01*
X139210809Y-110232708D01*
X139280501Y-110237692D01*
X139281962Y-110238248D01*
X139397536Y-110283021D01*
X139397544Y-110283024D01*
X139598024Y-110320500D01*
X139598026Y-110320500D01*
X139801974Y-110320500D01*
X139801976Y-110320500D01*
X140002456Y-110283024D01*
X140192637Y-110209348D01*
X140366041Y-110101981D01*
X140516764Y-109964579D01*
X140639673Y-109801821D01*
X140730582Y-109619250D01*
X140786397Y-109423083D01*
X140805215Y-109220000D01*
X140786397Y-109016917D01*
X140730582Y-108820750D01*
X140639673Y-108638179D01*
X140555564Y-108526801D01*
X140516762Y-108475418D01*
X140366041Y-108338019D01*
X140366039Y-108338017D01*
X140192642Y-108230655D01*
X140192635Y-108230651D01*
X140066769Y-108181891D01*
X140002456Y-108156976D01*
X139801976Y-108119500D01*
X139598024Y-108119500D01*
X139397544Y-108156976D01*
X139397541Y-108156976D01*
X139397541Y-108156977D01*
X139207364Y-108230651D01*
X139207357Y-108230655D01*
X139033960Y-108338017D01*
X139033958Y-108338019D01*
X138883237Y-108475418D01*
X138760327Y-108638178D01*
X138669422Y-108820739D01*
X138669417Y-108820752D01*
X138613602Y-109016917D01*
X138594785Y-109219999D01*
X138594785Y-109220000D01*
X138613602Y-109423082D01*
X138669419Y-109619253D01*
X138674744Y-109629948D01*
X138687002Y-109698734D01*
X138660125Y-109763227D01*
X138651422Y-109772895D01*
X138441137Y-109983181D01*
X138379814Y-110016666D01*
X138353456Y-110019500D01*
X138184315Y-110019500D01*
X138117276Y-109999815D01*
X138071521Y-109947011D01*
X138061577Y-109877853D01*
X138085361Y-109820773D01*
X138099673Y-109801821D01*
X138190582Y-109619250D01*
X138246397Y-109423083D01*
X138265215Y-109220000D01*
X138246397Y-109016917D01*
X138190582Y-108820750D01*
X138099673Y-108638179D01*
X138015564Y-108526801D01*
X137976762Y-108475418D01*
X137826041Y-108338019D01*
X137826039Y-108338017D01*
X137652642Y-108230655D01*
X137652635Y-108230651D01*
X137526769Y-108181891D01*
X137462456Y-108156976D01*
X137261976Y-108119500D01*
X137058024Y-108119500D01*
X136857544Y-108156976D01*
X136857541Y-108156976D01*
X136857541Y-108156977D01*
X136667364Y-108230651D01*
X136667357Y-108230655D01*
X136493960Y-108338017D01*
X136493958Y-108338019D01*
X136343237Y-108475418D01*
X136220327Y-108638178D01*
X136129422Y-108820739D01*
X136129417Y-108820752D01*
X136073602Y-109016917D01*
X136054785Y-109219999D01*
X136054785Y-109220000D01*
X136073602Y-109423082D01*
X136129417Y-109619247D01*
X136129422Y-109619260D01*
X136220327Y-109801821D01*
X136234639Y-109820773D01*
X136259331Y-109886134D01*
X136244766Y-109954469D01*
X136195569Y-110004081D01*
X136135685Y-110019500D01*
X135644315Y-110019500D01*
X135577276Y-109999815D01*
X135531521Y-109947011D01*
X135521577Y-109877853D01*
X135545361Y-109820773D01*
X135559673Y-109801821D01*
X135650582Y-109619250D01*
X135706397Y-109423083D01*
X135725215Y-109220000D01*
X135706397Y-109016917D01*
X135650582Y-108820750D01*
X135559673Y-108638179D01*
X135475564Y-108526801D01*
X135436762Y-108475418D01*
X135286041Y-108338019D01*
X135286039Y-108338017D01*
X135112642Y-108230655D01*
X135112635Y-108230651D01*
X134986769Y-108181891D01*
X134922456Y-108156976D01*
X134721976Y-108119500D01*
X134518024Y-108119500D01*
X134317544Y-108156976D01*
X134317541Y-108156976D01*
X134317541Y-108156977D01*
X134127364Y-108230651D01*
X134127357Y-108230655D01*
X133953960Y-108338017D01*
X133953958Y-108338019D01*
X133803237Y-108475418D01*
X133680327Y-108638178D01*
X133589422Y-108820739D01*
X133589417Y-108820752D01*
X133533602Y-109016917D01*
X133514785Y-109219999D01*
X133514785Y-109220000D01*
X133533602Y-109423082D01*
X133589417Y-109619247D01*
X133589422Y-109619260D01*
X133680327Y-109801821D01*
X133694639Y-109820773D01*
X133719331Y-109886134D01*
X133704766Y-109954469D01*
X133655569Y-110004081D01*
X133595685Y-110019500D01*
X133104315Y-110019500D01*
X133037276Y-109999815D01*
X132991521Y-109947011D01*
X132981577Y-109877853D01*
X133005361Y-109820773D01*
X133019673Y-109801821D01*
X133110582Y-109619250D01*
X133166397Y-109423083D01*
X133185215Y-109220000D01*
X133166397Y-109016917D01*
X133110582Y-108820750D01*
X133019673Y-108638179D01*
X132935564Y-108526801D01*
X132896762Y-108475418D01*
X132746041Y-108338019D01*
X132746039Y-108338017D01*
X132572642Y-108230655D01*
X132572635Y-108230651D01*
X132446769Y-108181891D01*
X132382456Y-108156976D01*
X132181976Y-108119500D01*
X131978024Y-108119500D01*
X131777544Y-108156976D01*
X131777541Y-108156976D01*
X131777541Y-108156977D01*
X131587364Y-108230651D01*
X131587357Y-108230655D01*
X131413960Y-108338017D01*
X131413958Y-108338019D01*
X131263237Y-108475418D01*
X131140327Y-108638178D01*
X131049422Y-108820739D01*
X131049417Y-108820752D01*
X130993602Y-109016917D01*
X130974785Y-109219999D01*
X130974785Y-109220000D01*
X130993602Y-109423082D01*
X131049417Y-109619247D01*
X131049422Y-109619260D01*
X131140327Y-109801821D01*
X131154639Y-109820773D01*
X131179331Y-109886134D01*
X131164766Y-109954469D01*
X131115569Y-110004081D01*
X131055685Y-110019500D01*
X130564315Y-110019500D01*
X130497276Y-109999815D01*
X130451521Y-109947011D01*
X130441577Y-109877853D01*
X130465361Y-109820773D01*
X130479673Y-109801821D01*
X130570582Y-109619250D01*
X130626397Y-109423083D01*
X130645215Y-109220000D01*
X130626397Y-109016917D01*
X130570582Y-108820750D01*
X130479673Y-108638179D01*
X130395564Y-108526801D01*
X130356762Y-108475418D01*
X130206041Y-108338019D01*
X130206039Y-108338017D01*
X130032642Y-108230655D01*
X130032635Y-108230651D01*
X129906769Y-108181891D01*
X129842456Y-108156976D01*
X129641976Y-108119500D01*
X129438024Y-108119500D01*
X129237544Y-108156976D01*
X129237541Y-108156976D01*
X129237541Y-108156977D01*
X129047364Y-108230651D01*
X129047357Y-108230655D01*
X128873960Y-108338017D01*
X128873958Y-108338019D01*
X128723237Y-108475418D01*
X128600327Y-108638178D01*
X128509422Y-108820739D01*
X128509417Y-108820752D01*
X128453602Y-109016917D01*
X128434785Y-109219999D01*
X128434785Y-109220000D01*
X128453602Y-109423082D01*
X128509417Y-109619247D01*
X128509422Y-109619260D01*
X128600327Y-109801821D01*
X128614639Y-109820773D01*
X128639331Y-109886134D01*
X128624766Y-109954469D01*
X128575569Y-110004081D01*
X128515685Y-110019500D01*
X128024315Y-110019500D01*
X127957276Y-109999815D01*
X127911521Y-109947011D01*
X127901577Y-109877853D01*
X127925361Y-109820773D01*
X127939673Y-109801821D01*
X128030582Y-109619250D01*
X128086397Y-109423083D01*
X128105215Y-109220000D01*
X128086397Y-109016917D01*
X128030582Y-108820750D01*
X127939673Y-108638179D01*
X127828514Y-108490981D01*
X127803823Y-108425621D01*
X127818388Y-108357286D01*
X127867586Y-108307673D01*
X127875956Y-108303461D01*
X127879013Y-108302066D01*
X127918204Y-108268105D01*
X127921654Y-108265326D01*
X127924570Y-108263142D01*
X127934233Y-108255910D01*
X127945360Y-108244781D01*
X127948565Y-108241798D01*
X127987783Y-108207817D01*
X127990391Y-108203757D01*
X128007021Y-108183120D01*
X130501501Y-105688640D01*
X130562822Y-105655157D01*
X130632514Y-105660141D01*
X130688447Y-105702013D01*
X130712864Y-105767477D01*
X130712318Y-105785842D01*
X130712318Y-105791001D01*
X130732955Y-105947760D01*
X130732956Y-105947762D01*
X130787208Y-106078739D01*
X130793464Y-106093841D01*
X130889718Y-106219282D01*
X131015159Y-106315536D01*
X131161238Y-106376044D01*
X131203562Y-106381616D01*
X131317999Y-106396682D01*
X131318000Y-106396682D01*
X131318001Y-106396682D01*
X131370254Y-106389802D01*
X131474762Y-106376044D01*
X131620841Y-106315536D01*
X131725145Y-106235501D01*
X133125318Y-106235501D01*
X133145955Y-106392260D01*
X133145956Y-106392262D01*
X133180160Y-106474839D01*
X133206464Y-106538341D01*
X133302718Y-106663782D01*
X133428159Y-106760036D01*
X133574238Y-106820544D01*
X133652619Y-106830862D01*
X133730999Y-106841182D01*
X133731000Y-106841182D01*
X133731001Y-106841182D01*
X133783253Y-106834302D01*
X133887762Y-106820544D01*
X134033841Y-106760036D01*
X134159282Y-106663782D01*
X134255536Y-106538341D01*
X134316044Y-106392262D01*
X134332240Y-106269238D01*
X134336682Y-106235501D01*
X134336682Y-106235498D01*
X134328322Y-106172001D01*
X137570318Y-106172001D01*
X137590955Y-106328760D01*
X137590956Y-106328762D01*
X137643170Y-106454819D01*
X137651464Y-106474841D01*
X137747718Y-106600282D01*
X137873159Y-106696536D01*
X138019238Y-106757044D01*
X138041965Y-106760036D01*
X138175999Y-106777682D01*
X138176000Y-106777682D01*
X138176001Y-106777682D01*
X138228254Y-106770802D01*
X138332762Y-106757044D01*
X138478841Y-106696536D01*
X138604282Y-106600282D01*
X138700536Y-106474841D01*
X138720766Y-106426001D01*
X140745318Y-106426001D01*
X140765955Y-106582760D01*
X140765956Y-106582762D01*
X140823008Y-106720499D01*
X140826464Y-106728841D01*
X140922718Y-106854282D01*
X141048159Y-106950536D01*
X141194238Y-107011044D01*
X141252247Y-107018681D01*
X141350999Y-107031682D01*
X141351000Y-107031682D01*
X141351001Y-107031682D01*
X141416438Y-107023067D01*
X141507762Y-107011044D01*
X141653841Y-106950536D01*
X141779282Y-106854282D01*
X141875536Y-106728841D01*
X141936044Y-106582762D01*
X141956682Y-106426000D01*
X141955715Y-106418658D01*
X141940355Y-106301981D01*
X141936044Y-106269238D01*
X141875536Y-106123159D01*
X141779282Y-105997718D01*
X141653841Y-105901464D01*
X141575852Y-105869160D01*
X141507762Y-105840956D01*
X141507760Y-105840955D01*
X141351001Y-105820318D01*
X141350999Y-105820318D01*
X141194239Y-105840955D01*
X141194237Y-105840956D01*
X141048160Y-105901463D01*
X140922718Y-105997718D01*
X140826463Y-106123160D01*
X140765956Y-106269237D01*
X140765955Y-106269239D01*
X140745318Y-106425998D01*
X140745318Y-106426001D01*
X138720766Y-106426001D01*
X138761044Y-106328762D01*
X138781682Y-106172000D01*
X138780705Y-106164581D01*
X138761044Y-106015239D01*
X138761044Y-106015238D01*
X138700536Y-105869159D01*
X138604282Y-105743718D01*
X138478841Y-105647464D01*
X138446908Y-105634237D01*
X138332762Y-105586956D01*
X138332760Y-105586955D01*
X138176001Y-105566318D01*
X138175999Y-105566318D01*
X138019239Y-105586955D01*
X138019237Y-105586956D01*
X137873160Y-105647463D01*
X137747718Y-105743718D01*
X137651463Y-105869160D01*
X137590956Y-106015237D01*
X137590955Y-106015239D01*
X137570318Y-106171998D01*
X137570318Y-106172001D01*
X134328322Y-106172001D01*
X134316044Y-106078739D01*
X134316044Y-106078738D01*
X134255536Y-105932659D01*
X134159282Y-105807218D01*
X134033841Y-105710964D01*
X134012231Y-105702013D01*
X133887762Y-105650456D01*
X133887760Y-105650455D01*
X133731001Y-105629818D01*
X133730999Y-105629818D01*
X133574239Y-105650455D01*
X133574237Y-105650456D01*
X133428160Y-105710963D01*
X133302718Y-105807218D01*
X133206463Y-105932660D01*
X133145956Y-106078737D01*
X133145955Y-106078739D01*
X133125318Y-106235498D01*
X133125318Y-106235501D01*
X131725145Y-106235501D01*
X131746282Y-106219282D01*
X131842536Y-106093841D01*
X131903044Y-105947762D01*
X131923682Y-105791000D01*
X131917066Y-105740750D01*
X131903044Y-105634239D01*
X131903044Y-105634238D01*
X131842536Y-105488159D01*
X131790236Y-105420000D01*
X147179785Y-105420000D01*
X147198602Y-105623082D01*
X147254417Y-105819247D01*
X147254421Y-105819257D01*
X147345327Y-106001821D01*
X147468237Y-106164581D01*
X147618958Y-106301980D01*
X147618960Y-106301982D01*
X147715564Y-106361796D01*
X147792363Y-106409348D01*
X147982544Y-106483024D01*
X148183024Y-106520500D01*
X148183026Y-106520500D01*
X148386974Y-106520500D01*
X148386976Y-106520500D01*
X148587456Y-106483024D01*
X148777637Y-106409348D01*
X148951041Y-106301981D01*
X149079122Y-106185219D01*
X149101762Y-106164581D01*
X149133042Y-106123160D01*
X149224673Y-106001821D01*
X149290730Y-105869160D01*
X149315579Y-105819257D01*
X149315579Y-105819254D01*
X149315582Y-105819250D01*
X149371397Y-105623083D01*
X149390215Y-105420000D01*
X149390005Y-105417739D01*
X149371397Y-105216917D01*
X149366727Y-105200503D01*
X149315582Y-105020750D01*
X149294589Y-104978591D01*
X149257588Y-104904282D01*
X149224673Y-104838179D01*
X149101764Y-104675421D01*
X149101762Y-104675418D01*
X148951041Y-104538019D01*
X148951039Y-104538017D01*
X148777642Y-104430655D01*
X148777635Y-104430651D01*
X148682546Y-104393813D01*
X148587456Y-104356976D01*
X148386976Y-104319500D01*
X148183024Y-104319500D01*
X147982544Y-104356976D01*
X147982541Y-104356976D01*
X147982541Y-104356977D01*
X147792364Y-104430651D01*
X147792357Y-104430655D01*
X147618960Y-104538017D01*
X147618958Y-104538019D01*
X147468237Y-104675418D01*
X147345327Y-104838178D01*
X147254422Y-105020739D01*
X147254417Y-105020752D01*
X147198602Y-105216917D01*
X147179785Y-105419999D01*
X147179785Y-105420000D01*
X131790236Y-105420000D01*
X131746282Y-105362718D01*
X131620841Y-105266464D01*
X131523618Y-105226193D01*
X131474762Y-105205956D01*
X131474760Y-105205955D01*
X131318001Y-105185318D01*
X131309873Y-105185318D01*
X131309873Y-105183617D01*
X131250468Y-105174351D01*
X131198214Y-105127968D01*
X131179332Y-105060698D01*
X131199816Y-104993899D01*
X131215637Y-104974504D01*
X131851817Y-104338324D01*
X131872454Y-104321694D01*
X131876514Y-104319086D01*
X131879328Y-104315839D01*
X131886020Y-104308115D01*
X131910495Y-104279868D01*
X131913478Y-104276663D01*
X131924607Y-104265536D01*
X131934023Y-104252957D01*
X131936803Y-104249507D01*
X131944108Y-104241077D01*
X131970763Y-104210316D01*
X131972761Y-104205938D01*
X131986293Y-104183132D01*
X131989182Y-104179274D01*
X132007308Y-104130671D01*
X132009000Y-104126588D01*
X132030551Y-104079400D01*
X132031236Y-104074628D01*
X132037795Y-104048935D01*
X132039477Y-104044426D01*
X132041724Y-104013001D01*
X132744318Y-104013001D01*
X132764955Y-104169760D01*
X132764956Y-104169762D01*
X132825391Y-104315666D01*
X132825464Y-104315841D01*
X132921718Y-104441282D01*
X133047159Y-104537536D01*
X133193238Y-104598044D01*
X133271618Y-104608363D01*
X133349999Y-104618682D01*
X133350000Y-104618682D01*
X133350001Y-104618682D01*
X133402254Y-104611802D01*
X133506762Y-104598044D01*
X133652841Y-104537536D01*
X133778282Y-104441282D01*
X133874536Y-104315841D01*
X133935044Y-104169762D01*
X133938962Y-104140001D01*
X137570318Y-104140001D01*
X137590955Y-104296760D01*
X137590956Y-104296762D01*
X137612734Y-104349340D01*
X137651464Y-104442841D01*
X137747718Y-104568282D01*
X137873159Y-104664536D01*
X138019238Y-104725044D01*
X138097619Y-104735363D01*
X138175999Y-104745682D01*
X138176000Y-104745682D01*
X138176001Y-104745682D01*
X138228253Y-104738802D01*
X138332762Y-104725044D01*
X138478841Y-104664536D01*
X138604282Y-104568282D01*
X138700536Y-104442841D01*
X138761044Y-104296762D01*
X138781682Y-104140000D01*
X138779916Y-104126588D01*
X138762288Y-103992688D01*
X138761044Y-103983238D01*
X138700536Y-103837159D01*
X138604282Y-103711718D01*
X138478841Y-103615464D01*
X138478836Y-103615462D01*
X138332762Y-103554956D01*
X138332760Y-103554955D01*
X138176001Y-103534318D01*
X138175999Y-103534318D01*
X138019239Y-103554955D01*
X138019237Y-103554956D01*
X137873160Y-103615463D01*
X137747718Y-103711718D01*
X137651463Y-103837160D01*
X137590956Y-103983237D01*
X137590955Y-103983239D01*
X137570318Y-104139998D01*
X137570318Y-104140001D01*
X133938962Y-104140001D01*
X133955682Y-104013000D01*
X133952717Y-103990481D01*
X133940299Y-103896157D01*
X133935044Y-103856238D01*
X133874536Y-103710159D01*
X133778282Y-103584718D01*
X133652841Y-103488464D01*
X133620908Y-103475237D01*
X133506762Y-103427956D01*
X133506760Y-103427955D01*
X133350001Y-103407318D01*
X133349999Y-103407318D01*
X133193239Y-103427955D01*
X133193237Y-103427956D01*
X133047160Y-103488463D01*
X132921718Y-103584718D01*
X132825463Y-103710160D01*
X132764956Y-103856237D01*
X132764955Y-103856239D01*
X132744318Y-104012998D01*
X132744318Y-104013001D01*
X132041724Y-104013001D01*
X132043177Y-103992683D01*
X132043651Y-103988283D01*
X132045886Y-103972742D01*
X132045886Y-103957037D01*
X132046044Y-103952612D01*
X132048301Y-103921057D01*
X132049745Y-103900870D01*
X132048718Y-103896149D01*
X132045886Y-103869801D01*
X132045886Y-103854643D01*
X132065571Y-103787604D01*
X132069310Y-103782286D01*
X132069918Y-103781231D01*
X132069922Y-103781227D01*
X132130430Y-103635148D01*
X132144491Y-103528343D01*
X132151068Y-103478387D01*
X132151068Y-103478384D01*
X132134003Y-103348762D01*
X132130430Y-103321624D01*
X132069922Y-103175545D01*
X131973668Y-103050104D01*
X131848227Y-102953850D01*
X131702148Y-102893342D01*
X131702146Y-102893341D01*
X131545387Y-102872704D01*
X131545385Y-102872704D01*
X131388625Y-102893341D01*
X131388623Y-102893342D01*
X131242546Y-102953849D01*
X131117104Y-103050104D01*
X131020849Y-103175546D01*
X130960342Y-103321623D01*
X130960341Y-103321625D01*
X130939704Y-103478384D01*
X130939704Y-103478387D01*
X130960341Y-103635146D01*
X130960342Y-103635148D01*
X130981070Y-103685189D01*
X130988539Y-103754659D01*
X130957264Y-103817138D01*
X130954190Y-103820323D01*
X128444123Y-106330390D01*
X128382800Y-106363875D01*
X128313108Y-106358891D01*
X128257175Y-106317019D01*
X128232758Y-106251555D01*
X128233502Y-106226532D01*
X128240682Y-106172000D01*
X128239705Y-106164581D01*
X128220044Y-106015239D01*
X128220044Y-106015238D01*
X128159536Y-105869159D01*
X128063282Y-105743718D01*
X127937841Y-105647464D01*
X127905908Y-105634237D01*
X127791762Y-105586956D01*
X127791760Y-105586955D01*
X127635001Y-105566318D01*
X127634999Y-105566318D01*
X127478239Y-105586955D01*
X127478237Y-105586956D01*
X127332160Y-105647463D01*
X127206718Y-105743718D01*
X127110463Y-105869160D01*
X127049956Y-106015237D01*
X127049955Y-106015239D01*
X127029318Y-106171998D01*
X127029318Y-106172001D01*
X127050404Y-106332167D01*
X127039638Y-106401202D01*
X127002952Y-106446727D01*
X126891223Y-106532460D01*
X126891222Y-106532461D01*
X126891221Y-106532462D01*
X126886710Y-106538341D01*
X126794966Y-106657904D01*
X126734459Y-106803981D01*
X126734458Y-106803983D01*
X126713821Y-106960742D01*
X126713821Y-106960745D01*
X126734458Y-107117504D01*
X126734459Y-107117506D01*
X126770591Y-107204736D01*
X126778060Y-107274206D01*
X126746785Y-107336685D01*
X126686696Y-107372337D01*
X126656030Y-107376189D01*
X125947099Y-107376189D01*
X125880060Y-107356504D01*
X125834305Y-107303700D01*
X125824361Y-107234542D01*
X125832538Y-107204736D01*
X125833681Y-107201977D01*
X125841355Y-107183451D01*
X125848993Y-107125433D01*
X125877257Y-107061539D01*
X125935581Y-107023067D01*
X125955738Y-107018682D01*
X126013762Y-107011044D01*
X126159841Y-106950536D01*
X126285282Y-106854282D01*
X126381536Y-106728841D01*
X126442044Y-106582762D01*
X126462682Y-106426000D01*
X126461715Y-106418658D01*
X126446355Y-106301981D01*
X126442044Y-106269238D01*
X126381536Y-106123159D01*
X126285282Y-105997718D01*
X126159841Y-105901464D01*
X126081852Y-105869160D01*
X126013762Y-105840956D01*
X126013760Y-105840955D01*
X125857001Y-105820318D01*
X125856999Y-105820318D01*
X125700239Y-105840955D01*
X125700237Y-105840956D01*
X125554160Y-105901463D01*
X125428718Y-105997718D01*
X125332463Y-106123160D01*
X125271956Y-106269238D01*
X125264317Y-106327255D01*
X125236049Y-106391151D01*
X125177724Y-106429621D01*
X125157566Y-106434006D01*
X125099549Y-106441645D01*
X124953471Y-106502152D01*
X124828029Y-106598407D01*
X124731774Y-106723849D01*
X124682966Y-106841682D01*
X124639125Y-106896085D01*
X124572830Y-106918150D01*
X124505131Y-106900870D01*
X124480724Y-106881910D01*
X123210385Y-105611571D01*
X123193750Y-105590928D01*
X123191145Y-105586874D01*
X123191142Y-105586871D01*
X123167422Y-105566318D01*
X123151932Y-105552896D01*
X123148700Y-105549886D01*
X123137596Y-105538782D01*
X123137588Y-105538775D01*
X123125013Y-105529362D01*
X123121583Y-105526598D01*
X123082373Y-105492623D01*
X123082371Y-105492622D01*
X123082367Y-105492619D01*
X123077983Y-105490617D01*
X123055194Y-105477096D01*
X123051331Y-105474204D01*
X123051329Y-105474203D01*
X123002716Y-105456071D01*
X122998642Y-105454383D01*
X122951457Y-105432835D01*
X122951455Y-105432834D01*
X122946682Y-105432148D01*
X122921000Y-105425593D01*
X122916485Y-105423909D01*
X122864740Y-105420207D01*
X122860343Y-105419734D01*
X122844799Y-105417500D01*
X122829094Y-105417500D01*
X122824671Y-105417342D01*
X122807083Y-105416084D01*
X122772929Y-105413641D01*
X122772925Y-105413641D01*
X122768215Y-105414666D01*
X122741857Y-105417500D01*
X122305675Y-105417500D01*
X122238636Y-105397815D01*
X122217994Y-105381181D01*
X121984543Y-105147730D01*
X121951058Y-105086407D01*
X121956042Y-105016715D01*
X121997914Y-104960782D01*
X122056036Y-104937111D01*
X122076762Y-104934383D01*
X122222841Y-104873875D01*
X122348282Y-104777621D01*
X122444536Y-104652180D01*
X122505044Y-104506101D01*
X122518802Y-104401593D01*
X122525682Y-104349340D01*
X122525682Y-104349337D01*
X122507772Y-104213299D01*
X122505044Y-104192577D01*
X122444536Y-104046498D01*
X122348282Y-103921057D01*
X122222841Y-103824803D01*
X122212025Y-103820323D01*
X122076762Y-103764295D01*
X122076760Y-103764294D01*
X121920001Y-103743657D01*
X121919999Y-103743657D01*
X121763239Y-103764294D01*
X121763237Y-103764295D01*
X121617160Y-103824802D01*
X121491718Y-103921057D01*
X121395463Y-104046499D01*
X121334956Y-104192576D01*
X121334956Y-104192577D01*
X121332228Y-104213299D01*
X121303961Y-104277195D01*
X121245636Y-104315666D01*
X121175772Y-104316497D01*
X121121608Y-104284794D01*
X120634496Y-103797682D01*
X120142816Y-103306002D01*
X120109333Y-103244682D01*
X120106500Y-103218333D01*
X120106500Y-101976253D01*
X120126184Y-101909218D01*
X120129928Y-101903892D01*
X120130532Y-101902845D01*
X120130536Y-101902841D01*
X120191044Y-101756762D01*
X120207240Y-101633738D01*
X120211682Y-101600001D01*
X122584318Y-101600001D01*
X122604955Y-101756760D01*
X122604956Y-101756762D01*
X122645232Y-101853998D01*
X122665464Y-101902841D01*
X122761718Y-102028282D01*
X122887159Y-102124536D01*
X123033238Y-102185044D01*
X123111619Y-102195363D01*
X123189999Y-102205682D01*
X123190000Y-102205682D01*
X123190001Y-102205682D01*
X123242254Y-102198802D01*
X123346762Y-102185044D01*
X123492841Y-102124536D01*
X123618282Y-102028282D01*
X123714536Y-101902841D01*
X123714541Y-101902828D01*
X123717610Y-101897515D01*
X123768175Y-101849298D01*
X123836782Y-101836072D01*
X123901648Y-101862037D01*
X123932390Y-101897515D01*
X123935461Y-101902834D01*
X123935464Y-101902841D01*
X124031718Y-102028282D01*
X124157159Y-102124536D01*
X124157166Y-102124541D01*
X124162487Y-102127613D01*
X124210703Y-102178179D01*
X124223927Y-102246786D01*
X124197959Y-102311651D01*
X124162487Y-102342387D01*
X124157166Y-102345458D01*
X124031718Y-102441718D01*
X123935463Y-102567160D01*
X123874956Y-102713237D01*
X123874955Y-102713239D01*
X123854318Y-102869998D01*
X123854318Y-102870001D01*
X123874955Y-103026760D01*
X123874956Y-103026762D01*
X123915232Y-103123998D01*
X123935464Y-103172841D01*
X124031718Y-103298282D01*
X124157159Y-103394536D01*
X124303238Y-103455044D01*
X124354715Y-103461821D01*
X124459999Y-103475682D01*
X124460000Y-103475682D01*
X124460001Y-103475682D01*
X124512253Y-103468802D01*
X124616762Y-103455044D01*
X124762841Y-103394536D01*
X124888282Y-103298282D01*
X124984536Y-103172841D01*
X125013961Y-103101801D01*
X125057799Y-103047403D01*
X125124093Y-103025337D01*
X125191792Y-103042616D01*
X125226894Y-103073769D01*
X125301718Y-103171282D01*
X125427159Y-103267536D01*
X125570571Y-103326939D01*
X125624974Y-103370780D01*
X125647039Y-103437074D01*
X125629760Y-103504773D01*
X125578623Y-103552384D01*
X125570577Y-103556057D01*
X125523011Y-103575760D01*
X125427160Y-103615463D01*
X125301718Y-103711718D01*
X125205463Y-103837160D01*
X125144956Y-103983237D01*
X125144955Y-103983239D01*
X125124318Y-104139998D01*
X125124318Y-104140001D01*
X125144955Y-104296760D01*
X125144956Y-104296762D01*
X125166734Y-104349340D01*
X125205464Y-104442841D01*
X125301718Y-104568282D01*
X125427159Y-104664536D01*
X125573238Y-104725044D01*
X125651618Y-104735363D01*
X125729999Y-104745682D01*
X125730000Y-104745682D01*
X125730001Y-104745682D01*
X125782253Y-104738802D01*
X125886762Y-104725044D01*
X126032841Y-104664536D01*
X126158282Y-104568282D01*
X126254536Y-104442841D01*
X126315044Y-104296762D01*
X126335682Y-104140000D01*
X126333916Y-104126588D01*
X126316288Y-103992688D01*
X126315044Y-103983238D01*
X126254536Y-103837159D01*
X126158282Y-103711718D01*
X126032841Y-103615464D01*
X126032840Y-103615463D01*
X126032838Y-103615462D01*
X125929202Y-103572535D01*
X125889428Y-103556060D01*
X125835025Y-103512220D01*
X125812960Y-103445926D01*
X125830239Y-103378227D01*
X125881376Y-103330616D01*
X125889422Y-103326942D01*
X126032841Y-103267536D01*
X126158282Y-103171282D01*
X126254536Y-103045841D01*
X126254541Y-103045828D01*
X126257610Y-103040515D01*
X126308175Y-102992298D01*
X126376782Y-102979072D01*
X126441648Y-103005037D01*
X126472390Y-103040515D01*
X126475461Y-103045834D01*
X126475464Y-103045841D01*
X126571718Y-103171282D01*
X126697159Y-103267536D01*
X126843238Y-103328044D01*
X126921618Y-103338363D01*
X126999999Y-103348682D01*
X127000000Y-103348682D01*
X127000001Y-103348682D01*
X127052253Y-103341802D01*
X127156762Y-103328044D01*
X127302841Y-103267536D01*
X127428282Y-103171282D01*
X127524536Y-103045841D01*
X127585044Y-102899762D01*
X127599252Y-102791839D01*
X127605682Y-102743001D01*
X127605682Y-102742998D01*
X127588962Y-102615999D01*
X127585044Y-102586238D01*
X127544767Y-102489001D01*
X136554318Y-102489001D01*
X136574955Y-102645760D01*
X136574956Y-102645762D01*
X136615232Y-102742998D01*
X136635464Y-102791841D01*
X136731718Y-102917282D01*
X136857159Y-103013536D01*
X137003238Y-103074044D01*
X137081618Y-103084363D01*
X137159999Y-103094682D01*
X137160000Y-103094682D01*
X137160001Y-103094682D01*
X137212253Y-103087802D01*
X137316762Y-103074044D01*
X137462841Y-103013536D01*
X137588282Y-102917282D01*
X137616889Y-102880000D01*
X147179785Y-102880000D01*
X147198602Y-103083082D01*
X147254417Y-103279247D01*
X147254422Y-103279260D01*
X147345327Y-103461821D01*
X147468237Y-103624581D01*
X147618958Y-103761980D01*
X147618960Y-103761982D01*
X147707333Y-103816700D01*
X147792363Y-103869348D01*
X147982544Y-103943024D01*
X148183024Y-103980500D01*
X148183026Y-103980500D01*
X148386974Y-103980500D01*
X148386976Y-103980500D01*
X148587456Y-103943024D01*
X148777637Y-103869348D01*
X148951041Y-103761981D01*
X149090173Y-103635146D01*
X149101762Y-103624581D01*
X149101764Y-103624579D01*
X149224673Y-103461821D01*
X149315582Y-103279250D01*
X149371397Y-103083083D01*
X149390215Y-102880000D01*
X149389288Y-102870001D01*
X149371397Y-102676917D01*
X149367517Y-102663281D01*
X149315582Y-102480750D01*
X149305091Y-102459682D01*
X149246686Y-102342387D01*
X149224673Y-102298179D01*
X149101764Y-102135421D01*
X149101762Y-102135418D01*
X148951041Y-101998019D01*
X148951039Y-101998017D01*
X148777642Y-101890655D01*
X148777635Y-101890651D01*
X148636749Y-101836072D01*
X148587456Y-101816976D01*
X148386976Y-101779500D01*
X148183024Y-101779500D01*
X147982544Y-101816976D01*
X147982541Y-101816976D01*
X147982541Y-101816977D01*
X147792364Y-101890651D01*
X147792357Y-101890655D01*
X147618960Y-101998017D01*
X147618958Y-101998019D01*
X147468237Y-102135418D01*
X147345327Y-102298178D01*
X147254422Y-102480739D01*
X147254417Y-102480752D01*
X147198602Y-102676917D01*
X147179785Y-102879999D01*
X147179785Y-102880000D01*
X137616889Y-102880000D01*
X137684536Y-102791841D01*
X137745044Y-102645762D01*
X137763322Y-102506927D01*
X137765682Y-102489001D01*
X137765682Y-102488998D01*
X137746784Y-102345458D01*
X137745044Y-102332238D01*
X137704767Y-102235001D01*
X144936318Y-102235001D01*
X144956955Y-102391760D01*
X144956956Y-102391762D01*
X144997232Y-102488998D01*
X145017464Y-102537841D01*
X145113718Y-102663282D01*
X145239159Y-102759536D01*
X145385238Y-102820044D01*
X145463618Y-102830363D01*
X145541999Y-102840682D01*
X145542000Y-102840682D01*
X145542001Y-102840682D01*
X145594253Y-102833802D01*
X145698762Y-102820044D01*
X145844841Y-102759536D01*
X145970282Y-102663282D01*
X146066536Y-102537841D01*
X146127044Y-102391762D01*
X146147682Y-102235000D01*
X146140201Y-102178179D01*
X146127044Y-102078239D01*
X146127044Y-102078238D01*
X146066536Y-101932159D01*
X145970282Y-101806718D01*
X145844841Y-101710464D01*
X145812908Y-101697237D01*
X145698762Y-101649956D01*
X145698760Y-101649955D01*
X145542001Y-101629318D01*
X145541999Y-101629318D01*
X145385239Y-101649955D01*
X145385237Y-101649956D01*
X145239160Y-101710463D01*
X145113718Y-101806718D01*
X145017463Y-101932160D01*
X144956956Y-102078237D01*
X144956955Y-102078239D01*
X144936318Y-102234998D01*
X144936318Y-102235001D01*
X137704767Y-102235001D01*
X137684536Y-102186159D01*
X137588282Y-102060718D01*
X137462841Y-101964464D01*
X137430908Y-101951237D01*
X137316762Y-101903956D01*
X137316760Y-101903955D01*
X137160001Y-101883318D01*
X137159999Y-101883318D01*
X137003239Y-101903955D01*
X137003237Y-101903956D01*
X136857160Y-101964463D01*
X136731718Y-102060718D01*
X136635463Y-102186160D01*
X136574956Y-102332237D01*
X136574955Y-102332239D01*
X136554318Y-102488998D01*
X136554318Y-102489001D01*
X127544767Y-102489001D01*
X127524536Y-102440159D01*
X127428282Y-102314718D01*
X127428280Y-102314717D01*
X127428280Y-102314716D01*
X127389181Y-102284715D01*
X127369841Y-102269874D01*
X127328639Y-102213448D01*
X127324484Y-102143702D01*
X127358696Y-102082782D01*
X127369841Y-102073125D01*
X127428282Y-102028282D01*
X127524536Y-101902841D01*
X127524541Y-101902828D01*
X127527610Y-101897515D01*
X127578175Y-101849298D01*
X127646782Y-101836072D01*
X127711648Y-101862037D01*
X127742390Y-101897515D01*
X127745461Y-101902834D01*
X127745464Y-101902841D01*
X127841718Y-102028282D01*
X127967159Y-102124536D01*
X128113238Y-102185044D01*
X128191619Y-102195363D01*
X128269999Y-102205682D01*
X128270000Y-102205682D01*
X128270001Y-102205682D01*
X128322254Y-102198802D01*
X128426762Y-102185044D01*
X128572841Y-102124536D01*
X128698282Y-102028282D01*
X128794536Y-101902841D01*
X128855044Y-101756762D01*
X128871240Y-101633738D01*
X128875682Y-101600001D01*
X128875682Y-101599998D01*
X128858962Y-101473001D01*
X129950318Y-101473001D01*
X129970955Y-101629760D01*
X129970956Y-101629762D01*
X130004383Y-101710463D01*
X130031464Y-101775841D01*
X130127718Y-101901282D01*
X130253159Y-101997536D01*
X130399238Y-102058044D01*
X130477619Y-102068363D01*
X130555999Y-102078682D01*
X130556000Y-102078682D01*
X130556001Y-102078682D01*
X130608254Y-102071802D01*
X130712762Y-102058044D01*
X130777598Y-102031187D01*
X130847066Y-102023719D01*
X130909546Y-102054994D01*
X130923422Y-102070258D01*
X130951857Y-102107315D01*
X131077298Y-102203569D01*
X131223377Y-102264077D01*
X131267425Y-102269876D01*
X131380138Y-102284715D01*
X131380139Y-102284715D01*
X131380140Y-102284715D01*
X131432392Y-102277835D01*
X131536901Y-102264077D01*
X131682980Y-102203569D01*
X131808421Y-102107315D01*
X131904675Y-101981874D01*
X131965183Y-101835795D01*
X131971146Y-101790501D01*
X132807818Y-101790501D01*
X132828455Y-101947260D01*
X132828456Y-101947262D01*
X132882708Y-102078239D01*
X132888964Y-102093341D01*
X132985218Y-102218782D01*
X133110659Y-102315036D01*
X133256738Y-102375544D01*
X133279465Y-102378536D01*
X133413499Y-102396182D01*
X133413500Y-102396182D01*
X133413501Y-102396182D01*
X133465753Y-102389302D01*
X133570262Y-102375544D01*
X133716341Y-102315036D01*
X133841782Y-102218782D01*
X133938036Y-102093341D01*
X133998544Y-101947262D01*
X134019182Y-101790500D01*
X134014740Y-101756762D01*
X133998544Y-101633739D01*
X133998544Y-101633738D01*
X133938036Y-101487659D01*
X133841782Y-101362218D01*
X133716341Y-101265964D01*
X133610154Y-101221980D01*
X133570262Y-101205456D01*
X133570260Y-101205455D01*
X133413501Y-101184818D01*
X133413499Y-101184818D01*
X133256739Y-101205455D01*
X133256737Y-101205456D01*
X133110660Y-101265963D01*
X132985218Y-101362218D01*
X132888963Y-101487660D01*
X132828456Y-101633737D01*
X132828455Y-101633739D01*
X132807818Y-101790498D01*
X132807818Y-101790501D01*
X131971146Y-101790501D01*
X131985821Y-101679033D01*
X131979334Y-101629762D01*
X131965183Y-101522272D01*
X131965183Y-101522271D01*
X131904675Y-101376192D01*
X131808421Y-101250751D01*
X131808419Y-101250750D01*
X131808419Y-101250749D01*
X131726806Y-101188126D01*
X131685603Y-101131698D01*
X131681448Y-101061952D01*
X131687729Y-101042303D01*
X131707422Y-100994762D01*
X131728060Y-100838001D01*
X137316318Y-100838001D01*
X137336955Y-100994760D01*
X137336956Y-100994762D01*
X137377232Y-101091998D01*
X137397464Y-101140841D01*
X137493718Y-101266282D01*
X137619159Y-101362536D01*
X137765238Y-101423044D01*
X137843618Y-101433363D01*
X137921999Y-101443682D01*
X137922000Y-101443682D01*
X137922001Y-101443682D01*
X137974253Y-101436802D01*
X138078762Y-101423044D01*
X138224841Y-101362536D01*
X138350282Y-101266282D01*
X138446536Y-101140841D01*
X138507044Y-100994762D01*
X138522003Y-100881133D01*
X138527682Y-100838001D01*
X138527682Y-100837998D01*
X138507044Y-100681239D01*
X138507044Y-100681238D01*
X138455169Y-100556001D01*
X141098318Y-100556001D01*
X141118955Y-100712760D01*
X141118956Y-100712762D01*
X141170830Y-100837998D01*
X141179464Y-100858841D01*
X141275718Y-100984282D01*
X141401159Y-101080536D01*
X141547238Y-101141044D01*
X141625619Y-101151363D01*
X141703999Y-101161682D01*
X141704000Y-101161682D01*
X141704001Y-101161682D01*
X141758576Y-101154497D01*
X141860762Y-101141044D01*
X142006841Y-101080536D01*
X142132282Y-100984282D01*
X142228536Y-100858841D01*
X142289044Y-100712762D01*
X142309682Y-100556000D01*
X142307981Y-100543083D01*
X142289044Y-100399239D01*
X142289044Y-100399238D01*
X142228536Y-100253159D01*
X142132282Y-100127718D01*
X142006841Y-100031464D01*
X141996450Y-100027160D01*
X141860762Y-99970956D01*
X141860760Y-99970955D01*
X141704001Y-99950318D01*
X141703999Y-99950318D01*
X141547239Y-99970955D01*
X141547237Y-99970956D01*
X141401160Y-100031463D01*
X141275718Y-100127718D01*
X141179463Y-100253160D01*
X141118956Y-100399237D01*
X141118955Y-100399239D01*
X141098318Y-100555998D01*
X141098318Y-100556001D01*
X138455169Y-100556001D01*
X138446536Y-100535159D01*
X138350282Y-100409718D01*
X138224841Y-100313464D01*
X138079254Y-100253160D01*
X138078762Y-100252956D01*
X138078760Y-100252955D01*
X137922001Y-100232318D01*
X137921999Y-100232318D01*
X137765239Y-100252955D01*
X137765237Y-100252956D01*
X137619160Y-100313463D01*
X137493718Y-100409718D01*
X137397463Y-100535160D01*
X137336956Y-100681237D01*
X137336955Y-100681239D01*
X137316318Y-100837998D01*
X137316318Y-100838001D01*
X131728060Y-100838001D01*
X131728060Y-100838000D01*
X131707422Y-100681238D01*
X131646914Y-100535159D01*
X131550660Y-100409718D01*
X131425219Y-100313464D01*
X131279632Y-100253160D01*
X131279140Y-100252956D01*
X131279138Y-100252955D01*
X131122379Y-100232318D01*
X131122377Y-100232318D01*
X130965617Y-100252955D01*
X130965615Y-100252956D01*
X130819538Y-100313463D01*
X130694096Y-100409718D01*
X130597841Y-100535160D01*
X130537334Y-100681237D01*
X130537334Y-100681238D01*
X130524494Y-100778766D01*
X130496227Y-100842662D01*
X130437903Y-100881133D01*
X130417746Y-100885518D01*
X130399241Y-100887955D01*
X130399238Y-100887955D01*
X130399238Y-100887956D01*
X130356454Y-100905677D01*
X130253160Y-100948463D01*
X130127718Y-101044718D01*
X130031463Y-101170160D01*
X129970956Y-101316237D01*
X129970955Y-101316239D01*
X129950318Y-101472998D01*
X129950318Y-101473001D01*
X128858962Y-101473001D01*
X128855044Y-101443239D01*
X128855044Y-101443238D01*
X128794536Y-101297159D01*
X128698282Y-101171718D01*
X128572841Y-101075464D01*
X128565412Y-101072387D01*
X128426762Y-101014956D01*
X128426760Y-101014955D01*
X128270001Y-100994318D01*
X128269999Y-100994318D01*
X128113239Y-101014955D01*
X128113237Y-101014956D01*
X127967160Y-101075463D01*
X127841718Y-101171718D01*
X127745458Y-101297166D01*
X127742387Y-101302487D01*
X127691821Y-101350703D01*
X127623214Y-101363927D01*
X127558349Y-101337959D01*
X127527613Y-101302487D01*
X127524541Y-101297166D01*
X127500843Y-101266282D01*
X127428282Y-101171718D01*
X127302841Y-101075464D01*
X127302834Y-101075461D01*
X127297515Y-101072390D01*
X127249298Y-101021825D01*
X127236072Y-100953218D01*
X127262037Y-100888352D01*
X127297515Y-100857610D01*
X127302828Y-100854541D01*
X127302841Y-100854536D01*
X127428282Y-100758282D01*
X127524536Y-100632841D01*
X127585044Y-100486762D01*
X127599252Y-100378841D01*
X127605682Y-100330001D01*
X127605682Y-100329998D01*
X127586072Y-100181044D01*
X127585044Y-100173238D01*
X127524536Y-100027159D01*
X127428282Y-99901718D01*
X127302841Y-99805464D01*
X127295412Y-99802387D01*
X127156762Y-99744956D01*
X127156760Y-99744955D01*
X127000001Y-99724318D01*
X126999999Y-99724318D01*
X126843239Y-99744955D01*
X126843237Y-99744956D01*
X126697160Y-99805463D01*
X126571718Y-99901718D01*
X126475458Y-100027166D01*
X126472387Y-100032487D01*
X126421821Y-100080703D01*
X126353214Y-100093927D01*
X126288349Y-100067959D01*
X126257613Y-100032487D01*
X126254541Y-100027166D01*
X126252328Y-100024282D01*
X126158282Y-99901718D01*
X126032841Y-99805464D01*
X126032834Y-99805461D01*
X126027515Y-99802390D01*
X125979298Y-99751825D01*
X125966072Y-99683218D01*
X125992037Y-99618352D01*
X126017831Y-99596001D01*
X139249318Y-99596001D01*
X139269955Y-99752760D01*
X139269956Y-99752762D01*
X139310746Y-99851239D01*
X139330464Y-99898841D01*
X139426718Y-100024282D01*
X139552159Y-100120536D01*
X139698238Y-100181044D01*
X139776618Y-100191363D01*
X139854999Y-100201682D01*
X139855000Y-100201682D01*
X139855001Y-100201682D01*
X139907254Y-100194802D01*
X140011762Y-100181044D01*
X140157841Y-100120536D01*
X140283282Y-100024282D01*
X140379536Y-99898841D01*
X140440044Y-99752762D01*
X140460682Y-99596000D01*
X140460605Y-99595418D01*
X140443254Y-99463620D01*
X140440044Y-99439238D01*
X140379536Y-99293159D01*
X140283282Y-99167718D01*
X140157841Y-99071464D01*
X140071832Y-99035838D01*
X140011762Y-99010956D01*
X140011760Y-99010955D01*
X139855001Y-98990318D01*
X139854999Y-98990318D01*
X139698239Y-99010955D01*
X139698237Y-99010956D01*
X139552160Y-99071463D01*
X139426718Y-99167718D01*
X139330463Y-99293160D01*
X139269956Y-99439237D01*
X139269955Y-99439239D01*
X139249318Y-99595998D01*
X139249318Y-99596001D01*
X126017831Y-99596001D01*
X126027515Y-99587610D01*
X126032828Y-99584541D01*
X126032841Y-99584536D01*
X126158282Y-99488282D01*
X126254536Y-99362841D01*
X126315044Y-99216762D01*
X126335682Y-99060000D01*
X126332346Y-99034664D01*
X126315044Y-98903239D01*
X126315044Y-98903238D01*
X126254536Y-98757159D01*
X126158282Y-98631718D01*
X126032841Y-98535464D01*
X125886762Y-98474956D01*
X125886760Y-98474955D01*
X125730001Y-98454318D01*
X125729999Y-98454318D01*
X125573239Y-98474955D01*
X125573237Y-98474956D01*
X125427160Y-98535463D01*
X125301718Y-98631718D01*
X125205463Y-98757160D01*
X125144956Y-98903237D01*
X125144955Y-98903239D01*
X125124318Y-99059998D01*
X125124318Y-99060001D01*
X125144955Y-99216760D01*
X125144956Y-99216762D01*
X125185232Y-99313998D01*
X125205464Y-99362841D01*
X125301718Y-99488282D01*
X125427159Y-99584536D01*
X125427166Y-99584541D01*
X125432487Y-99587613D01*
X125480703Y-99638179D01*
X125493927Y-99706786D01*
X125467959Y-99771651D01*
X125432487Y-99802387D01*
X125427166Y-99805458D01*
X125301718Y-99901718D01*
X125205458Y-100027166D01*
X125202387Y-100032487D01*
X125151821Y-100080703D01*
X125083214Y-100093927D01*
X125018349Y-100067959D01*
X124987613Y-100032487D01*
X124984541Y-100027166D01*
X124982328Y-100024282D01*
X124888282Y-99901718D01*
X124762841Y-99805464D01*
X124755412Y-99802387D01*
X124616762Y-99744956D01*
X124616760Y-99744955D01*
X124460001Y-99724318D01*
X124459999Y-99724318D01*
X124303239Y-99744955D01*
X124303237Y-99744956D01*
X124157160Y-99805463D01*
X124031718Y-99901718D01*
X123935463Y-100027160D01*
X123874956Y-100173237D01*
X123874955Y-100173239D01*
X123854318Y-100329998D01*
X123854318Y-100330001D01*
X123874955Y-100486760D01*
X123874956Y-100486762D01*
X123918979Y-100593044D01*
X123935464Y-100632841D01*
X124031718Y-100758282D01*
X124157159Y-100854536D01*
X124157166Y-100854541D01*
X124162487Y-100857613D01*
X124210703Y-100908179D01*
X124223927Y-100976786D01*
X124197959Y-101041651D01*
X124162487Y-101072387D01*
X124157166Y-101075458D01*
X124031718Y-101171718D01*
X123935458Y-101297166D01*
X123932387Y-101302487D01*
X123881821Y-101350703D01*
X123813214Y-101363927D01*
X123748349Y-101337959D01*
X123717613Y-101302487D01*
X123714541Y-101297166D01*
X123690843Y-101266282D01*
X123618282Y-101171718D01*
X123492841Y-101075464D01*
X123485412Y-101072387D01*
X123346762Y-101014956D01*
X123346760Y-101014955D01*
X123190001Y-100994318D01*
X123189999Y-100994318D01*
X123033239Y-101014955D01*
X123033237Y-101014956D01*
X122887160Y-101075463D01*
X122761718Y-101171718D01*
X122665463Y-101297160D01*
X122604956Y-101443237D01*
X122604955Y-101443239D01*
X122584318Y-101599998D01*
X122584318Y-101600001D01*
X120211682Y-101600001D01*
X120211682Y-101599998D01*
X120191044Y-101443239D01*
X120191044Y-101443238D01*
X120130536Y-101297159D01*
X120034282Y-101171718D01*
X119908841Y-101075464D01*
X119901412Y-101072387D01*
X119762762Y-101014956D01*
X119762760Y-101014955D01*
X119606001Y-100994318D01*
X119605999Y-100994318D01*
X119449239Y-101014955D01*
X119449237Y-101014956D01*
X119303160Y-101075463D01*
X119177718Y-101171718D01*
X119081463Y-101297160D01*
X119020956Y-101443237D01*
X119020955Y-101443239D01*
X119000318Y-101599998D01*
X119000318Y-101600001D01*
X119020955Y-101756760D01*
X119020957Y-101756765D01*
X119081461Y-101902836D01*
X119085526Y-101909876D01*
X119083785Y-101910880D01*
X119105070Y-101965950D01*
X119105499Y-101976257D01*
X119105500Y-103409858D01*
X119102667Y-103436206D01*
X119101641Y-103440927D01*
X119101641Y-103440929D01*
X119101641Y-103440930D01*
X119105342Y-103492669D01*
X119105500Y-103497094D01*
X119105500Y-103512799D01*
X119107734Y-103528343D01*
X119108207Y-103532740D01*
X119111909Y-103584485D01*
X119113593Y-103589000D01*
X119120148Y-103614682D01*
X119120834Y-103619455D01*
X119120835Y-103619457D01*
X119142383Y-103666642D01*
X119144071Y-103670716D01*
X119162203Y-103719329D01*
X119165096Y-103723194D01*
X119178617Y-103745983D01*
X119180619Y-103750367D01*
X119180622Y-103750371D01*
X119180623Y-103750373D01*
X119214598Y-103789583D01*
X119217362Y-103793013D01*
X119226775Y-103805588D01*
X119226782Y-103805596D01*
X119237886Y-103816700D01*
X119240896Y-103819932D01*
X119248710Y-103828950D01*
X119274871Y-103859142D01*
X119274874Y-103859145D01*
X119278928Y-103861750D01*
X119299571Y-103878385D01*
X121645614Y-106224427D01*
X121662250Y-106245071D01*
X121664857Y-106249128D01*
X121704063Y-106283100D01*
X121707304Y-106286117D01*
X121718407Y-106297220D01*
X121718410Y-106297222D01*
X121718412Y-106297224D01*
X121730970Y-106306625D01*
X121734418Y-106309403D01*
X121773623Y-106343374D01*
X121773624Y-106343375D01*
X121773625Y-106343375D01*
X121773627Y-106343377D01*
X121778010Y-106345379D01*
X121800807Y-106358905D01*
X121804669Y-106361796D01*
X121853295Y-106379932D01*
X121857351Y-106381612D01*
X121878237Y-106391151D01*
X121904540Y-106403164D01*
X121904541Y-106403164D01*
X121904543Y-106403165D01*
X121909312Y-106403850D01*
X121935002Y-106410407D01*
X121939517Y-106412091D01*
X121991258Y-106415791D01*
X121995657Y-106416264D01*
X122011201Y-106418500D01*
X122026906Y-106418500D01*
X122031328Y-106418657D01*
X122083073Y-106422359D01*
X122087784Y-106421334D01*
X122114143Y-106418500D01*
X122550324Y-106418500D01*
X122617363Y-106438185D01*
X122638005Y-106454819D01*
X123198215Y-107015029D01*
X123231700Y-107076352D01*
X123226716Y-107146044D01*
X123184844Y-107201977D01*
X123126719Y-107225649D01*
X123033239Y-107237955D01*
X123033237Y-107237956D01*
X122887160Y-107298463D01*
X122761718Y-107394718D01*
X122665463Y-107520160D01*
X122604956Y-107666237D01*
X122604955Y-107666239D01*
X122584318Y-107822998D01*
X122584318Y-107823001D01*
X122604955Y-107979760D01*
X122604957Y-107979765D01*
X122663861Y-108121973D01*
X122671330Y-108191442D01*
X122640055Y-108253921D01*
X122579966Y-108289573D01*
X122510140Y-108287079D01*
X122484023Y-108274852D01*
X122412642Y-108230655D01*
X122412635Y-108230651D01*
X122286769Y-108181891D01*
X122222456Y-108156976D01*
X122021976Y-108119500D01*
X121818024Y-108119500D01*
X121617544Y-108156976D01*
X121617541Y-108156976D01*
X121617541Y-108156977D01*
X121427364Y-108230651D01*
X121427357Y-108230655D01*
X121253960Y-108338017D01*
X121253958Y-108338019D01*
X121103237Y-108475418D01*
X120980327Y-108638178D01*
X120889422Y-108820739D01*
X120889417Y-108820752D01*
X120833602Y-109016917D01*
X120814785Y-109219999D01*
X120814785Y-109220000D01*
X120833602Y-109423082D01*
X120889417Y-109619247D01*
X120889422Y-109619260D01*
X120980327Y-109801821D01*
X120994639Y-109820773D01*
X121019331Y-109886134D01*
X121004766Y-109954469D01*
X120955569Y-110004081D01*
X120895685Y-110019500D01*
X120404315Y-110019500D01*
X120337276Y-109999815D01*
X120291521Y-109947011D01*
X120281577Y-109877853D01*
X120305361Y-109820773D01*
X120319673Y-109801821D01*
X120410582Y-109619250D01*
X120466397Y-109423083D01*
X120485215Y-109220000D01*
X120466397Y-109016917D01*
X120410582Y-108820750D01*
X120319673Y-108638179D01*
X120235564Y-108526801D01*
X120196762Y-108475418D01*
X120046041Y-108338019D01*
X120046039Y-108338017D01*
X119872642Y-108230655D01*
X119872635Y-108230651D01*
X119746769Y-108181891D01*
X119682456Y-108156976D01*
X119481976Y-108119500D01*
X119278024Y-108119500D01*
X119077544Y-108156976D01*
X119077541Y-108156976D01*
X119077541Y-108156977D01*
X118887364Y-108230651D01*
X118887357Y-108230655D01*
X118713960Y-108338017D01*
X118713958Y-108338019D01*
X118668038Y-108379881D01*
X118605234Y-108410498D01*
X118535847Y-108402300D01*
X118481907Y-108357890D01*
X118460539Y-108291368D01*
X118460500Y-108288244D01*
X118460500Y-105358256D01*
X118463139Y-105332810D01*
X118465042Y-105323735D01*
X118462782Y-105305611D01*
X118460977Y-105291118D01*
X118460500Y-105283441D01*
X118460500Y-105280013D01*
X118460498Y-105280000D01*
X118456910Y-105258499D01*
X118451727Y-105216917D01*
X118450573Y-105207657D01*
X118450572Y-105207654D01*
X118448518Y-105200754D01*
X118448475Y-105200629D01*
X118448437Y-105200503D01*
X118446092Y-105193668D01*
X118421704Y-105148605D01*
X118399199Y-105102568D01*
X118394919Y-105096574D01*
X118390419Y-105090793D01*
X118352724Y-105056091D01*
X118115818Y-104819186D01*
X118082333Y-104757863D01*
X118079499Y-104731513D01*
X118079499Y-104308115D01*
X118099184Y-104241077D01*
X118128011Y-104209741D01*
X118157282Y-104187282D01*
X118253536Y-104061841D01*
X118314044Y-103915762D01*
X118331756Y-103781227D01*
X118334682Y-103759001D01*
X118334682Y-103758998D01*
X118316985Y-103624579D01*
X118314044Y-103602238D01*
X118253536Y-103456159D01*
X118157282Y-103330718D01*
X118031841Y-103234464D01*
X117929326Y-103192001D01*
X117885762Y-103173956D01*
X117885760Y-103173955D01*
X117729001Y-103153318D01*
X117728999Y-103153318D01*
X117572239Y-103173955D01*
X117572237Y-103173956D01*
X117426160Y-103234463D01*
X117300718Y-103330718D01*
X117204463Y-103456160D01*
X117143956Y-103602237D01*
X117143955Y-103602239D01*
X117123318Y-103758998D01*
X117123318Y-103759001D01*
X117143955Y-103915760D01*
X117143956Y-103915762D01*
X117184232Y-104012998D01*
X117204464Y-104061841D01*
X117300718Y-104187282D01*
X117329987Y-104209740D01*
X117371189Y-104266165D01*
X117378500Y-104308115D01*
X117378500Y-104878838D01*
X117375861Y-104904282D01*
X117373957Y-104913361D01*
X117373957Y-104913367D01*
X117378023Y-104945987D01*
X117378500Y-104953664D01*
X117378500Y-104957088D01*
X117382087Y-104978591D01*
X117388427Y-105029443D01*
X117390520Y-105036476D01*
X117392908Y-105043431D01*
X117417295Y-105088494D01*
X117439801Y-105134533D01*
X117444065Y-105140505D01*
X117448580Y-105146306D01*
X117486275Y-105181008D01*
X117723181Y-105417913D01*
X117756666Y-105479236D01*
X117759500Y-105505594D01*
X117759500Y-108288244D01*
X117739815Y-108355283D01*
X117687011Y-108401038D01*
X117617853Y-108410982D01*
X117554297Y-108381957D01*
X117551962Y-108379881D01*
X117506041Y-108338019D01*
X117506039Y-108338017D01*
X117332642Y-108230655D01*
X117332635Y-108230651D01*
X117206769Y-108181891D01*
X117142456Y-108156976D01*
X116941976Y-108119500D01*
X116738024Y-108119500D01*
X116537544Y-108156976D01*
X116537541Y-108156976D01*
X116537541Y-108156977D01*
X116347364Y-108230651D01*
X116347357Y-108230655D01*
X116173960Y-108338017D01*
X116173958Y-108338019D01*
X116023237Y-108475418D01*
X115900327Y-108638178D01*
X115809422Y-108820739D01*
X115809417Y-108820752D01*
X115753602Y-109016917D01*
X115734785Y-109219999D01*
X115734785Y-109220000D01*
X115753602Y-109423082D01*
X115809417Y-109619247D01*
X115809422Y-109619260D01*
X115900327Y-109801821D01*
X116023237Y-109964581D01*
X116173958Y-110101980D01*
X116173960Y-110101982D01*
X116273141Y-110163392D01*
X116347363Y-110209348D01*
X116537544Y-110283024D01*
X116738024Y-110320500D01*
X116738026Y-110320500D01*
X116941974Y-110320500D01*
X116941976Y-110320500D01*
X117142456Y-110283024D01*
X117332637Y-110209348D01*
X117506041Y-110101981D01*
X117656764Y-109964579D01*
X117719667Y-109881281D01*
X117775773Y-109839648D01*
X117845485Y-109834955D01*
X117906300Y-109868329D01*
X118450791Y-110412819D01*
X118484276Y-110474142D01*
X118479292Y-110543833D01*
X118437421Y-110599767D01*
X118371956Y-110624184D01*
X118363110Y-110624500D01*
X101223676Y-110624500D01*
X101156637Y-110604815D01*
X101135995Y-110588181D01*
X101079995Y-110532181D01*
X101046510Y-110470858D01*
X101051494Y-110401166D01*
X101093366Y-110345233D01*
X101158830Y-110320816D01*
X101167676Y-110320500D01*
X102474676Y-110320500D01*
X102474677Y-110320499D01*
X102547740Y-110305966D01*
X102630601Y-110250601D01*
X102685966Y-110167740D01*
X102700500Y-110094674D01*
X102700500Y-109220000D01*
X103034785Y-109220000D01*
X103053602Y-109423082D01*
X103109417Y-109619247D01*
X103109422Y-109619260D01*
X103200327Y-109801821D01*
X103323237Y-109964581D01*
X103473958Y-110101980D01*
X103473960Y-110101982D01*
X103573141Y-110163392D01*
X103647363Y-110209348D01*
X103837544Y-110283024D01*
X104038024Y-110320500D01*
X104038026Y-110320500D01*
X104241974Y-110320500D01*
X104241976Y-110320500D01*
X104442456Y-110283024D01*
X104632637Y-110209348D01*
X104806041Y-110101981D01*
X104956764Y-109964579D01*
X105079673Y-109801821D01*
X105170582Y-109619250D01*
X105226397Y-109423083D01*
X105245215Y-109220000D01*
X105574785Y-109220000D01*
X105593602Y-109423082D01*
X105649417Y-109619247D01*
X105649422Y-109619260D01*
X105740327Y-109801821D01*
X105863237Y-109964581D01*
X106013958Y-110101980D01*
X106013960Y-110101982D01*
X106113141Y-110163392D01*
X106187363Y-110209348D01*
X106377544Y-110283024D01*
X106578024Y-110320500D01*
X106578026Y-110320500D01*
X106781974Y-110320500D01*
X106781976Y-110320500D01*
X106982456Y-110283024D01*
X107172637Y-110209348D01*
X107346041Y-110101981D01*
X107496764Y-109964579D01*
X107619673Y-109801821D01*
X107710582Y-109619250D01*
X107766397Y-109423083D01*
X107785215Y-109220000D01*
X108114785Y-109220000D01*
X108133602Y-109423082D01*
X108189417Y-109619247D01*
X108189422Y-109619260D01*
X108280327Y-109801821D01*
X108403237Y-109964581D01*
X108553958Y-110101980D01*
X108553960Y-110101982D01*
X108653141Y-110163392D01*
X108727363Y-110209348D01*
X108917544Y-110283024D01*
X109118024Y-110320500D01*
X109118026Y-110320500D01*
X109321974Y-110320500D01*
X109321976Y-110320500D01*
X109522456Y-110283024D01*
X109712637Y-110209348D01*
X109886041Y-110101981D01*
X110036764Y-109964579D01*
X110159673Y-109801821D01*
X110250582Y-109619250D01*
X110306397Y-109423083D01*
X110325215Y-109220000D01*
X110654785Y-109220000D01*
X110673602Y-109423082D01*
X110729417Y-109619247D01*
X110729422Y-109619260D01*
X110820327Y-109801821D01*
X110943237Y-109964581D01*
X111093958Y-110101980D01*
X111093960Y-110101982D01*
X111193141Y-110163392D01*
X111267363Y-110209348D01*
X111457544Y-110283024D01*
X111658024Y-110320500D01*
X111658026Y-110320500D01*
X111861974Y-110320500D01*
X111861976Y-110320500D01*
X112062456Y-110283024D01*
X112252637Y-110209348D01*
X112426041Y-110101981D01*
X112576764Y-109964579D01*
X112699673Y-109801821D01*
X112790582Y-109619250D01*
X112846397Y-109423083D01*
X112865215Y-109220000D01*
X113194785Y-109220000D01*
X113213602Y-109423082D01*
X113269417Y-109619247D01*
X113269422Y-109619260D01*
X113360327Y-109801821D01*
X113483237Y-109964581D01*
X113633958Y-110101980D01*
X113633960Y-110101982D01*
X113733141Y-110163392D01*
X113807363Y-110209348D01*
X113997544Y-110283024D01*
X114198024Y-110320500D01*
X114198026Y-110320500D01*
X114401974Y-110320500D01*
X114401976Y-110320500D01*
X114602456Y-110283024D01*
X114792637Y-110209348D01*
X114966041Y-110101981D01*
X115116764Y-109964579D01*
X115239673Y-109801821D01*
X115330582Y-109619250D01*
X115386397Y-109423083D01*
X115405215Y-109220000D01*
X115386397Y-109016917D01*
X115330582Y-108820750D01*
X115239673Y-108638179D01*
X115155564Y-108526801D01*
X115116762Y-108475418D01*
X114966041Y-108338019D01*
X114966039Y-108338017D01*
X114792642Y-108230655D01*
X114792635Y-108230651D01*
X114666769Y-108181891D01*
X114602456Y-108156976D01*
X114401976Y-108119500D01*
X114198024Y-108119500D01*
X113997544Y-108156976D01*
X113997541Y-108156976D01*
X113997541Y-108156977D01*
X113807364Y-108230651D01*
X113807357Y-108230655D01*
X113633960Y-108338017D01*
X113633958Y-108338019D01*
X113483237Y-108475418D01*
X113360327Y-108638178D01*
X113269422Y-108820739D01*
X113269417Y-108820752D01*
X113213602Y-109016917D01*
X113194785Y-109219999D01*
X113194785Y-109220000D01*
X112865215Y-109220000D01*
X112846397Y-109016917D01*
X112790582Y-108820750D01*
X112699673Y-108638179D01*
X112615564Y-108526801D01*
X112576762Y-108475418D01*
X112426041Y-108338019D01*
X112426039Y-108338017D01*
X112252642Y-108230655D01*
X112252635Y-108230651D01*
X112126769Y-108181891D01*
X112062456Y-108156976D01*
X111861976Y-108119500D01*
X111658024Y-108119500D01*
X111457544Y-108156976D01*
X111457541Y-108156976D01*
X111457541Y-108156977D01*
X111267364Y-108230651D01*
X111267357Y-108230655D01*
X111093960Y-108338017D01*
X111093958Y-108338019D01*
X110943237Y-108475418D01*
X110820327Y-108638178D01*
X110729422Y-108820739D01*
X110729417Y-108820752D01*
X110673602Y-109016917D01*
X110654785Y-109219999D01*
X110654785Y-109220000D01*
X110325215Y-109220000D01*
X110306397Y-109016917D01*
X110250582Y-108820750D01*
X110159673Y-108638179D01*
X110075564Y-108526801D01*
X110036762Y-108475418D01*
X109886041Y-108338019D01*
X109886039Y-108338017D01*
X109712642Y-108230655D01*
X109712635Y-108230651D01*
X109586769Y-108181891D01*
X109522456Y-108156976D01*
X109321976Y-108119500D01*
X109118024Y-108119500D01*
X108917544Y-108156976D01*
X108917541Y-108156976D01*
X108917541Y-108156977D01*
X108727364Y-108230651D01*
X108727357Y-108230655D01*
X108553960Y-108338017D01*
X108553958Y-108338019D01*
X108403237Y-108475418D01*
X108280327Y-108638178D01*
X108189422Y-108820739D01*
X108189417Y-108820752D01*
X108133602Y-109016917D01*
X108114785Y-109219999D01*
X108114785Y-109220000D01*
X107785215Y-109220000D01*
X107766397Y-109016917D01*
X107710582Y-108820750D01*
X107619673Y-108638179D01*
X107535564Y-108526801D01*
X107496762Y-108475418D01*
X107346041Y-108338019D01*
X107346039Y-108338017D01*
X107172642Y-108230655D01*
X107172635Y-108230651D01*
X107046769Y-108181891D01*
X106982456Y-108156976D01*
X106781976Y-108119500D01*
X106578024Y-108119500D01*
X106377544Y-108156976D01*
X106377541Y-108156976D01*
X106377541Y-108156977D01*
X106187364Y-108230651D01*
X106187357Y-108230655D01*
X106013960Y-108338017D01*
X106013958Y-108338019D01*
X105863237Y-108475418D01*
X105740327Y-108638178D01*
X105649422Y-108820739D01*
X105649417Y-108820752D01*
X105593602Y-109016917D01*
X105574785Y-109219999D01*
X105574785Y-109220000D01*
X105245215Y-109220000D01*
X105226397Y-109016917D01*
X105170582Y-108820750D01*
X105079673Y-108638179D01*
X104995564Y-108526801D01*
X104956762Y-108475418D01*
X104806041Y-108338019D01*
X104806039Y-108338017D01*
X104632642Y-108230655D01*
X104632635Y-108230651D01*
X104506769Y-108181891D01*
X104442456Y-108156976D01*
X104241976Y-108119500D01*
X104038024Y-108119500D01*
X103837544Y-108156976D01*
X103837541Y-108156976D01*
X103837541Y-108156977D01*
X103647364Y-108230651D01*
X103647357Y-108230655D01*
X103473960Y-108338017D01*
X103473958Y-108338019D01*
X103323237Y-108475418D01*
X103200327Y-108638178D01*
X103109422Y-108820739D01*
X103109417Y-108820752D01*
X103053602Y-109016917D01*
X103034785Y-109219999D01*
X103034785Y-109220000D01*
X102700500Y-109220000D01*
X102700500Y-108345326D01*
X102700500Y-108345323D01*
X102700499Y-108345321D01*
X102685967Y-108272264D01*
X102685966Y-108272260D01*
X102665598Y-108241777D01*
X102630601Y-108189399D01*
X102547740Y-108134034D01*
X102547739Y-108134033D01*
X102547735Y-108134032D01*
X102474677Y-108119500D01*
X102474674Y-108119500D01*
X100725326Y-108119500D01*
X100725323Y-108119500D01*
X100652264Y-108134032D01*
X100652260Y-108134033D01*
X100569399Y-108189399D01*
X100514033Y-108272260D01*
X100514032Y-108272264D01*
X100499500Y-108345321D01*
X100499500Y-109652323D01*
X100479815Y-109719362D01*
X100427011Y-109765117D01*
X100357853Y-109775061D01*
X100294297Y-109746036D01*
X100287819Y-109740004D01*
X100231819Y-109684004D01*
X100198334Y-109622681D01*
X100195500Y-109596323D01*
X100195500Y-105920003D01*
X100454435Y-105920003D01*
X100474630Y-106099249D01*
X100474631Y-106099254D01*
X100534211Y-106269523D01*
X100623793Y-106412091D01*
X100630184Y-106422262D01*
X100757738Y-106549816D01*
X100910478Y-106645789D01*
X101055505Y-106696536D01*
X101080745Y-106705368D01*
X101080750Y-106705369D01*
X101171246Y-106715565D01*
X101215040Y-106720499D01*
X101215043Y-106720500D01*
X101215046Y-106720500D01*
X102104957Y-106720500D01*
X102104958Y-106720499D01*
X102172104Y-106712934D01*
X102239249Y-106705369D01*
X102239252Y-106705368D01*
X102239255Y-106705368D01*
X102409522Y-106645789D01*
X102562262Y-106549816D01*
X102689816Y-106422262D01*
X102785789Y-106269522D01*
X102845368Y-106099255D01*
X102845978Y-106093841D01*
X102865565Y-105920003D01*
X102865565Y-105919996D01*
X102845369Y-105740750D01*
X102845368Y-105740745D01*
X102815419Y-105655157D01*
X102785789Y-105570478D01*
X102689816Y-105417738D01*
X102562262Y-105290184D01*
X102524512Y-105266464D01*
X102409523Y-105194211D01*
X102239254Y-105134631D01*
X102239249Y-105134630D01*
X102104960Y-105119500D01*
X102104954Y-105119500D01*
X101215046Y-105119500D01*
X101215039Y-105119500D01*
X101080750Y-105134630D01*
X101080745Y-105134631D01*
X100910476Y-105194211D01*
X100757737Y-105290184D01*
X100630184Y-105417737D01*
X100534211Y-105570476D01*
X100474631Y-105740745D01*
X100474630Y-105740750D01*
X100454435Y-105919996D01*
X100454435Y-105920003D01*
X100195500Y-105920003D01*
X100195500Y-97280003D01*
X100454435Y-97280003D01*
X100474630Y-97459249D01*
X100474631Y-97459254D01*
X100534211Y-97629523D01*
X100627786Y-97778446D01*
X100630184Y-97782262D01*
X100757738Y-97909816D01*
X100910478Y-98005789D01*
X101033219Y-98048738D01*
X101080745Y-98065368D01*
X101080750Y-98065369D01*
X101171246Y-98075565D01*
X101215040Y-98080499D01*
X101215043Y-98080500D01*
X101215046Y-98080500D01*
X102104957Y-98080500D01*
X102104958Y-98080499D01*
X102172104Y-98072934D01*
X102239249Y-98065369D01*
X102239252Y-98065368D01*
X102239255Y-98065368D01*
X102409522Y-98005789D01*
X102562262Y-97909816D01*
X102689816Y-97782262D01*
X102785789Y-97629522D01*
X102845368Y-97459255D01*
X102847677Y-97438762D01*
X102865565Y-97280003D01*
X102865565Y-97279996D01*
X102845369Y-97100750D01*
X102845368Y-97100745D01*
X102814127Y-97011463D01*
X102785789Y-96930478D01*
X102785688Y-96930318D01*
X102737557Y-96853718D01*
X102689816Y-96777738D01*
X102562262Y-96650184D01*
X102497070Y-96609221D01*
X102409523Y-96554211D01*
X102239254Y-96494631D01*
X102239249Y-96494630D01*
X102104960Y-96479500D01*
X102104954Y-96479500D01*
X101215046Y-96479500D01*
X101215039Y-96479500D01*
X101080750Y-96494630D01*
X101080745Y-96494631D01*
X100910476Y-96554211D01*
X100757737Y-96650184D01*
X100630184Y-96777737D01*
X100534211Y-96930476D01*
X100474631Y-97100745D01*
X100474630Y-97100750D01*
X100454435Y-97279996D01*
X100454435Y-97280003D01*
X100195500Y-97280003D01*
X100195500Y-96143675D01*
X100215185Y-96076636D01*
X100231814Y-96055999D01*
X101170994Y-95116818D01*
X101232318Y-95083334D01*
X101258676Y-95080500D01*
X101941324Y-95080500D01*
X102008363Y-95100185D01*
X102029005Y-95116819D01*
X103448614Y-96536428D01*
X103465246Y-96557066D01*
X103467854Y-96561125D01*
X103467857Y-96561128D01*
X103507067Y-96595103D01*
X103510283Y-96598097D01*
X103521407Y-96609221D01*
X103521412Y-96609224D01*
X103521417Y-96609229D01*
X103533979Y-96618633D01*
X103537427Y-96621411D01*
X103566957Y-96646998D01*
X103576627Y-96655377D01*
X103581010Y-96657379D01*
X103603807Y-96670905D01*
X103607669Y-96673796D01*
X103656295Y-96691932D01*
X103660351Y-96693612D01*
X103667670Y-96696955D01*
X103707540Y-96715164D01*
X103707541Y-96715164D01*
X103707543Y-96715165D01*
X103712312Y-96715850D01*
X103738002Y-96722407D01*
X103742517Y-96724091D01*
X103794258Y-96727791D01*
X103798657Y-96728264D01*
X103814201Y-96730500D01*
X103829906Y-96730500D01*
X103834328Y-96730657D01*
X103886073Y-96734359D01*
X103890784Y-96733334D01*
X103917143Y-96730500D01*
X104465504Y-96730500D01*
X104532543Y-96750185D01*
X104578298Y-96802989D01*
X104588242Y-96872147D01*
X104570497Y-96920473D01*
X104564211Y-96930475D01*
X104504631Y-97100745D01*
X104504630Y-97100750D01*
X104484435Y-97279996D01*
X104484435Y-97280003D01*
X104504630Y-97459249D01*
X104504631Y-97459254D01*
X104564211Y-97629523D01*
X104660184Y-97782262D01*
X104792662Y-97914740D01*
X104790574Y-97916827D01*
X104823145Y-97963229D01*
X104825995Y-98033040D01*
X104790967Y-98093011D01*
X104707123Y-98172431D01*
X104606358Y-98321051D01*
X104606357Y-98321053D01*
X104539900Y-98487847D01*
X104539899Y-98487852D01*
X104539899Y-98487853D01*
X104524793Y-98580000D01*
X104510850Y-98665048D01*
X104520571Y-98844338D01*
X104520571Y-98844343D01*
X104568605Y-99017348D01*
X104568608Y-99017354D01*
X104652714Y-99175993D01*
X104764521Y-99307622D01*
X104792919Y-99371460D01*
X104782295Y-99440518D01*
X104736022Y-99492869D01*
X104717466Y-99502459D01*
X104599160Y-99551463D01*
X104473718Y-99647718D01*
X104377463Y-99773160D01*
X104316956Y-99919237D01*
X104316955Y-99919239D01*
X104296318Y-100075998D01*
X104296318Y-100076001D01*
X104316955Y-100232760D01*
X104316956Y-100232762D01*
X104377464Y-100378842D01*
X104476965Y-100508514D01*
X104502159Y-100573683D01*
X104488121Y-100642128D01*
X104476965Y-100659486D01*
X104377464Y-100789157D01*
X104316956Y-100935237D01*
X104316955Y-100935239D01*
X104296318Y-101091998D01*
X104296318Y-101092001D01*
X104316955Y-101248760D01*
X104316956Y-101248762D01*
X104377464Y-101394842D01*
X104476965Y-101524514D01*
X104502159Y-101589683D01*
X104488121Y-101658128D01*
X104476965Y-101675486D01*
X104377464Y-101805157D01*
X104316956Y-101951237D01*
X104316955Y-101951239D01*
X104296318Y-102107998D01*
X104296318Y-102108001D01*
X104316955Y-102264760D01*
X104316956Y-102264762D01*
X104344905Y-102332238D01*
X104377464Y-102410841D01*
X104473718Y-102536282D01*
X104473720Y-102536284D01*
X104476965Y-102540512D01*
X104502159Y-102605682D01*
X104488121Y-102674126D01*
X104476965Y-102691485D01*
X104377464Y-102821157D01*
X104316956Y-102967237D01*
X104316955Y-102967239D01*
X104296318Y-103123998D01*
X104296318Y-103124001D01*
X104316955Y-103280760D01*
X104316956Y-103280762D01*
X104345122Y-103348762D01*
X104377464Y-103426841D01*
X104473718Y-103552282D01*
X104599159Y-103648536D01*
X104720906Y-103698965D01*
X104775309Y-103742806D01*
X104797374Y-103809100D01*
X104780095Y-103876799D01*
X104758728Y-103903549D01*
X104707124Y-103952431D01*
X104707123Y-103952431D01*
X104606358Y-104101051D01*
X104606357Y-104101053D01*
X104539900Y-104267847D01*
X104539899Y-104267852D01*
X104539899Y-104267853D01*
X104511212Y-104442841D01*
X104510850Y-104445048D01*
X104520571Y-104624338D01*
X104520571Y-104624343D01*
X104568605Y-104797348D01*
X104568608Y-104797354D01*
X104652714Y-104955993D01*
X104768956Y-105092843D01*
X104768958Y-105092845D01*
X104778664Y-105100224D01*
X104820120Y-105156466D01*
X104824589Y-105226193D01*
X104791303Y-105286619D01*
X104660183Y-105417739D01*
X104564211Y-105570476D01*
X104504631Y-105740745D01*
X104504630Y-105740750D01*
X104484435Y-105919996D01*
X104484435Y-105920003D01*
X104504630Y-106099249D01*
X104504631Y-106099254D01*
X104564211Y-106269523D01*
X104653793Y-106412091D01*
X104660184Y-106422262D01*
X104787738Y-106549816D01*
X104940478Y-106645789D01*
X105085505Y-106696536D01*
X105110745Y-106705368D01*
X105110750Y-106705369D01*
X105201246Y-106715565D01*
X105245040Y-106720499D01*
X105245043Y-106720500D01*
X105245046Y-106720500D01*
X106434957Y-106720500D01*
X106434958Y-106720499D01*
X106502104Y-106712934D01*
X106569249Y-106705369D01*
X106569252Y-106705368D01*
X106569255Y-106705368D01*
X106739522Y-106645789D01*
X106892262Y-106549816D01*
X107019816Y-106422262D01*
X107115789Y-106269522D01*
X107175368Y-106099255D01*
X107175978Y-106093841D01*
X107195565Y-105920003D01*
X107195565Y-105919996D01*
X107175369Y-105740750D01*
X107175368Y-105740745D01*
X107145419Y-105655157D01*
X107115789Y-105570478D01*
X107019816Y-105417738D01*
X106892262Y-105290184D01*
X106854512Y-105266464D01*
X106739523Y-105194211D01*
X106569254Y-105134631D01*
X106569249Y-105134630D01*
X106434960Y-105119500D01*
X106434954Y-105119500D01*
X106144432Y-105119500D01*
X106077393Y-105099815D01*
X106031638Y-105047011D01*
X106021694Y-104977853D01*
X106041796Y-104925916D01*
X106073640Y-104878951D01*
X106075663Y-104873875D01*
X106140099Y-104712152D01*
X106140098Y-104712152D01*
X106140101Y-104712147D01*
X106169150Y-104534955D01*
X106159429Y-104355661D01*
X106157674Y-104349339D01*
X106111394Y-104182651D01*
X106111391Y-104182645D01*
X106027285Y-104024006D01*
X105911044Y-103887157D01*
X105897418Y-103876799D01*
X105768099Y-103778493D01*
X105605138Y-103703099D01*
X105605134Y-103703097D01*
X105461399Y-103671460D01*
X105400158Y-103637824D01*
X105396997Y-103632001D01*
X109503318Y-103632001D01*
X109523955Y-103788760D01*
X109523956Y-103788762D01*
X109568440Y-103896157D01*
X109584464Y-103934841D01*
X109680718Y-104060282D01*
X109806159Y-104156536D01*
X109952238Y-104217044D01*
X110030618Y-104227363D01*
X110108999Y-104237682D01*
X110109000Y-104237682D01*
X110109001Y-104237682D01*
X110161254Y-104230802D01*
X110265762Y-104217044D01*
X110411841Y-104156536D01*
X110537282Y-104060282D01*
X110633536Y-103934841D01*
X110694044Y-103788762D01*
X110714682Y-103632000D01*
X110713705Y-103624581D01*
X110696625Y-103494841D01*
X110694044Y-103475238D01*
X110633536Y-103329159D01*
X110537282Y-103203718D01*
X110537280Y-103203717D01*
X110537280Y-103203716D01*
X110522012Y-103192001D01*
X113694318Y-103192001D01*
X113714955Y-103348760D01*
X113714956Y-103348762D01*
X113772822Y-103488464D01*
X113775464Y-103494841D01*
X113871718Y-103620282D01*
X113997159Y-103716536D01*
X114143238Y-103777044D01*
X114221619Y-103787363D01*
X114299999Y-103797682D01*
X114300000Y-103797682D01*
X114300001Y-103797682D01*
X114367754Y-103788762D01*
X114456762Y-103777044D01*
X114602841Y-103716536D01*
X114728282Y-103620282D01*
X114824536Y-103494841D01*
X114885044Y-103348762D01*
X114905682Y-103192000D01*
X114903306Y-103173956D01*
X114887001Y-103050104D01*
X114885044Y-103035238D01*
X114824536Y-102889159D01*
X114728282Y-102763718D01*
X114728280Y-102763717D01*
X114728280Y-102763716D01*
X114620656Y-102681134D01*
X114579453Y-102624706D01*
X114575298Y-102554960D01*
X114609510Y-102494040D01*
X114671228Y-102461287D01*
X114679957Y-102459819D01*
X114680998Y-102459681D01*
X114681000Y-102459682D01*
X114837762Y-102439044D01*
X114983841Y-102378536D01*
X115109282Y-102282282D01*
X115205536Y-102156841D01*
X115266044Y-102010762D01*
X115286682Y-101854000D01*
X115266044Y-101697238D01*
X115205536Y-101551159D01*
X115109282Y-101425718D01*
X114983841Y-101329464D01*
X114983551Y-101329344D01*
X114837762Y-101268956D01*
X114837760Y-101268955D01*
X114681001Y-101248318D01*
X114680999Y-101248318D01*
X114524239Y-101268955D01*
X114524237Y-101268956D01*
X114378160Y-101329463D01*
X114252718Y-101425718D01*
X114156463Y-101551160D01*
X114095956Y-101697237D01*
X114095955Y-101697239D01*
X114075318Y-101853998D01*
X114075318Y-101854001D01*
X114095955Y-102010760D01*
X114095956Y-102010762D01*
X114151021Y-102143702D01*
X114156464Y-102156841D01*
X114243197Y-102269874D01*
X114252719Y-102282283D01*
X114294987Y-102314716D01*
X114331052Y-102342390D01*
X114360343Y-102364865D01*
X114401546Y-102421293D01*
X114405701Y-102491039D01*
X114371489Y-102551959D01*
X114309772Y-102584712D01*
X114301043Y-102586180D01*
X114143238Y-102606956D01*
X114143237Y-102606956D01*
X113997160Y-102667463D01*
X113871718Y-102763718D01*
X113775463Y-102889160D01*
X113714956Y-103035237D01*
X113714955Y-103035239D01*
X113694318Y-103191998D01*
X113694318Y-103192001D01*
X110522012Y-103192001D01*
X110497042Y-103172841D01*
X110478841Y-103158874D01*
X110437639Y-103102448D01*
X110433484Y-103032702D01*
X110467696Y-102971782D01*
X110478841Y-102962125D01*
X110537282Y-102917282D01*
X110633536Y-102791841D01*
X110694044Y-102645762D01*
X110712322Y-102506927D01*
X110714682Y-102489001D01*
X110714682Y-102488998D01*
X110695784Y-102345458D01*
X110694044Y-102332238D01*
X110633536Y-102186159D01*
X110537282Y-102060718D01*
X110411841Y-101964464D01*
X110379908Y-101951237D01*
X110265762Y-101903956D01*
X110265760Y-101903955D01*
X110109001Y-101883318D01*
X110108999Y-101883318D01*
X109952239Y-101903955D01*
X109952237Y-101903956D01*
X109806160Y-101964463D01*
X109680718Y-102060718D01*
X109584463Y-102186160D01*
X109523956Y-102332237D01*
X109523955Y-102332239D01*
X109503318Y-102488998D01*
X109503318Y-102489001D01*
X109523955Y-102645760D01*
X109523956Y-102645762D01*
X109564232Y-102742998D01*
X109584464Y-102791841D01*
X109680718Y-102917282D01*
X109709952Y-102939714D01*
X109739158Y-102962125D01*
X109780360Y-103018553D01*
X109784515Y-103088299D01*
X109750302Y-103149219D01*
X109739158Y-103158875D01*
X109680720Y-103203716D01*
X109680719Y-103203717D01*
X109680718Y-103203718D01*
X109631749Y-103267536D01*
X109584463Y-103329160D01*
X109523956Y-103475237D01*
X109523955Y-103475239D01*
X109503318Y-103631998D01*
X109503318Y-103632001D01*
X105396997Y-103632001D01*
X105366824Y-103576419D01*
X105371980Y-103506740D01*
X105389676Y-103474877D01*
X105426536Y-103426841D01*
X105487044Y-103280762D01*
X105507682Y-103124000D01*
X105497953Y-103050104D01*
X105487044Y-102967239D01*
X105487044Y-102967238D01*
X105426536Y-102821159D01*
X105330282Y-102695718D01*
X105330278Y-102695715D01*
X105327034Y-102691487D01*
X105301840Y-102626318D01*
X105315878Y-102557873D01*
X105327034Y-102540513D01*
X105330278Y-102536284D01*
X105330282Y-102536282D01*
X105426536Y-102410841D01*
X105487044Y-102264762D01*
X105507682Y-102108000D01*
X105503090Y-102073123D01*
X105487044Y-101951239D01*
X105487044Y-101951238D01*
X105426536Y-101805159D01*
X105330282Y-101679718D01*
X105330278Y-101679715D01*
X105327034Y-101675487D01*
X105301840Y-101610318D01*
X105315878Y-101541873D01*
X105327034Y-101524513D01*
X105330278Y-101520284D01*
X105330282Y-101520282D01*
X105426536Y-101394841D01*
X105487044Y-101248762D01*
X105507682Y-101092000D01*
X105506705Y-101084581D01*
X105487044Y-100935239D01*
X105487044Y-100935238D01*
X105446767Y-100838001D01*
X117377318Y-100838001D01*
X117397955Y-100994760D01*
X117397956Y-100994762D01*
X117438232Y-101091998D01*
X117458464Y-101140841D01*
X117554718Y-101266282D01*
X117680159Y-101362536D01*
X117826238Y-101423044D01*
X117904618Y-101433363D01*
X117982999Y-101443682D01*
X117983000Y-101443682D01*
X117983001Y-101443682D01*
X118035254Y-101436802D01*
X118139762Y-101423044D01*
X118285841Y-101362536D01*
X118411282Y-101266282D01*
X118507536Y-101140841D01*
X118568044Y-100994762D01*
X118583003Y-100881133D01*
X118588682Y-100838001D01*
X118588682Y-100837998D01*
X118568044Y-100681239D01*
X118568044Y-100681238D01*
X118507536Y-100535159D01*
X118411282Y-100409718D01*
X118285841Y-100313464D01*
X118140254Y-100253160D01*
X118139762Y-100252956D01*
X118139760Y-100252955D01*
X117983001Y-100232318D01*
X117982999Y-100232318D01*
X117826239Y-100252955D01*
X117826237Y-100252956D01*
X117680160Y-100313463D01*
X117554718Y-100409718D01*
X117458463Y-100535160D01*
X117397956Y-100681237D01*
X117397955Y-100681239D01*
X117377318Y-100837998D01*
X117377318Y-100838001D01*
X105446767Y-100838001D01*
X105426536Y-100789159D01*
X105426535Y-100789158D01*
X105426535Y-100789157D01*
X105327034Y-100659485D01*
X105301840Y-100594316D01*
X105315878Y-100525871D01*
X105327035Y-100508512D01*
X105330279Y-100504284D01*
X105330282Y-100504282D01*
X105426536Y-100378841D01*
X105487044Y-100232762D01*
X105507682Y-100076000D01*
X105506623Y-100067959D01*
X105498730Y-100008001D01*
X113694318Y-100008001D01*
X113714955Y-100164760D01*
X113714956Y-100164762D01*
X113743122Y-100232762D01*
X113775464Y-100310841D01*
X113871718Y-100436282D01*
X113997159Y-100532536D01*
X114143238Y-100593044D01*
X114221619Y-100603363D01*
X114299999Y-100613682D01*
X114300000Y-100613682D01*
X114300001Y-100613682D01*
X114352254Y-100606802D01*
X114456762Y-100593044D01*
X114602841Y-100532536D01*
X114728282Y-100436282D01*
X114824536Y-100310841D01*
X114885044Y-100164762D01*
X114903160Y-100027159D01*
X114905682Y-100008001D01*
X114905682Y-100007998D01*
X114885044Y-99851239D01*
X114885044Y-99851238D01*
X114824536Y-99705159D01*
X114728282Y-99579718D01*
X114602841Y-99483464D01*
X114554938Y-99463622D01*
X114456762Y-99422956D01*
X114456760Y-99422955D01*
X114300001Y-99402318D01*
X114299999Y-99402318D01*
X114143239Y-99422955D01*
X114143237Y-99422956D01*
X113997160Y-99483463D01*
X113871718Y-99579718D01*
X113775463Y-99705160D01*
X113714956Y-99851237D01*
X113714955Y-99851239D01*
X113694318Y-100007998D01*
X113694318Y-100008001D01*
X105498730Y-100008001D01*
X105487044Y-99919239D01*
X105487044Y-99919238D01*
X105426536Y-99773159D01*
X105426535Y-99773158D01*
X105426535Y-99773157D01*
X105389224Y-99724533D01*
X105364029Y-99659364D01*
X105378067Y-99590919D01*
X105426881Y-99540929D01*
X105474191Y-99525773D01*
X105518505Y-99520954D01*
X105688662Y-99463622D01*
X105842517Y-99371050D01*
X105972875Y-99247569D01*
X106073640Y-99098951D01*
X106140101Y-98932147D01*
X106169150Y-98754955D01*
X106159429Y-98575661D01*
X106159428Y-98575656D01*
X106111394Y-98402651D01*
X106111393Y-98402649D01*
X106053806Y-98294030D01*
X106037133Y-98262582D01*
X106023123Y-98194133D01*
X106048344Y-98128974D01*
X106104788Y-98087794D01*
X106146689Y-98080500D01*
X106434957Y-98080500D01*
X106434958Y-98080499D01*
X106502104Y-98072934D01*
X106569249Y-98065369D01*
X106569252Y-98065368D01*
X106569255Y-98065368D01*
X106739522Y-98005789D01*
X106892262Y-97909816D01*
X107019816Y-97782262D01*
X107115789Y-97629522D01*
X107154514Y-97518850D01*
X107195234Y-97462077D01*
X107260187Y-97436329D01*
X107328749Y-97449785D01*
X107359236Y-97472126D01*
X108854038Y-98966928D01*
X108887523Y-99028251D01*
X108888641Y-99034664D01*
X108888954Y-99035834D01*
X108944397Y-99169685D01*
X108949464Y-99181917D01*
X109045718Y-99307358D01*
X109171159Y-99403612D01*
X109317238Y-99464120D01*
X109395619Y-99474438D01*
X109473999Y-99484758D01*
X109474000Y-99484758D01*
X109474001Y-99484758D01*
X109526253Y-99477878D01*
X109630762Y-99464120D01*
X109776841Y-99403612D01*
X109893625Y-99314001D01*
X119790318Y-99314001D01*
X119810955Y-99470760D01*
X119810956Y-99470762D01*
X119862830Y-99595998D01*
X119871464Y-99616841D01*
X119967718Y-99742282D01*
X120093159Y-99838536D01*
X120239238Y-99899044D01*
X120317619Y-99909363D01*
X120395999Y-99919682D01*
X120396000Y-99919682D01*
X120396001Y-99919682D01*
X120448253Y-99912802D01*
X120552762Y-99899044D01*
X120698841Y-99838536D01*
X120824282Y-99742282D01*
X120920536Y-99616841D01*
X120981044Y-99470762D01*
X121001682Y-99314000D01*
X121000842Y-99307622D01*
X120982072Y-99165044D01*
X120981044Y-99157238D01*
X120920536Y-99011159D01*
X120824282Y-98885718D01*
X120698841Y-98789464D01*
X120620852Y-98757160D01*
X120552762Y-98728956D01*
X120552760Y-98728955D01*
X120396001Y-98708318D01*
X120395999Y-98708318D01*
X120239239Y-98728955D01*
X120239237Y-98728956D01*
X120093160Y-98789463D01*
X119967718Y-98885718D01*
X119871463Y-99011160D01*
X119810956Y-99157237D01*
X119810955Y-99157239D01*
X119790318Y-99313998D01*
X119790318Y-99314001D01*
X109893625Y-99314001D01*
X109902282Y-99307358D01*
X109998536Y-99181917D01*
X110059044Y-99035838D01*
X110079682Y-98879076D01*
X110075109Y-98844343D01*
X110063659Y-98757372D01*
X110059044Y-98722314D01*
X109998536Y-98576235D01*
X109902282Y-98450794D01*
X109776841Y-98354540D01*
X109776839Y-98354539D01*
X109630758Y-98294030D01*
X109622911Y-98291928D01*
X109623430Y-98289987D01*
X109569443Y-98266099D01*
X109561852Y-98259114D01*
X108584739Y-97282001D01*
X109503318Y-97282001D01*
X109523955Y-97438760D01*
X109523956Y-97438762D01*
X109564232Y-97535998D01*
X109584464Y-97584841D01*
X109680718Y-97710282D01*
X109806159Y-97806536D01*
X109952238Y-97867044D01*
X109989040Y-97871889D01*
X110108999Y-97887682D01*
X110109000Y-97887682D01*
X110109001Y-97887682D01*
X110161253Y-97880802D01*
X110265762Y-97867044D01*
X110351887Y-97831369D01*
X110421354Y-97823901D01*
X110483834Y-97855176D01*
X110497712Y-97870442D01*
X110569718Y-97964282D01*
X110695159Y-98060536D01*
X110841238Y-98121044D01*
X110901473Y-98128974D01*
X110997999Y-98141682D01*
X110998000Y-98141682D01*
X110998001Y-98141682D01*
X111069704Y-98132242D01*
X111154762Y-98121044D01*
X111300841Y-98060536D01*
X111426282Y-97964282D01*
X111522536Y-97838841D01*
X111583044Y-97692762D01*
X111603682Y-97536000D01*
X111587636Y-97414117D01*
X122706202Y-97414117D01*
X122726839Y-97570876D01*
X122726840Y-97570878D01*
X122787348Y-97716957D01*
X122883602Y-97842398D01*
X123009043Y-97938652D01*
X123155122Y-97999160D01*
X123205467Y-98005788D01*
X123311883Y-98019798D01*
X123311884Y-98019798D01*
X123311885Y-98019798D01*
X123364138Y-98012918D01*
X123468646Y-97999160D01*
X123614725Y-97938652D01*
X123740166Y-97842398D01*
X123836420Y-97716957D01*
X123858769Y-97663001D01*
X131601318Y-97663001D01*
X131621955Y-97819760D01*
X131621956Y-97819762D01*
X131682464Y-97965842D01*
X131757982Y-98064259D01*
X131783176Y-98129428D01*
X131769137Y-98197873D01*
X131757982Y-98215231D01*
X131710464Y-98277157D01*
X131649956Y-98423237D01*
X131649955Y-98423239D01*
X131629318Y-98579998D01*
X131629318Y-98580001D01*
X131649955Y-98736760D01*
X131649956Y-98736762D01*
X131708903Y-98879074D01*
X131710464Y-98882841D01*
X131806718Y-99008282D01*
X131932159Y-99104536D01*
X132078238Y-99165044D01*
X132156618Y-99175363D01*
X132234999Y-99185682D01*
X132235000Y-99185682D01*
X132235001Y-99185682D01*
X132287254Y-99178802D01*
X132391762Y-99165044D01*
X132537841Y-99104536D01*
X132663282Y-99008282D01*
X132759536Y-98882841D01*
X132820044Y-98736762D01*
X132825168Y-98697844D01*
X146935000Y-98697844D01*
X146941401Y-98757372D01*
X146941403Y-98757379D01*
X146991645Y-98892086D01*
X146991649Y-98892093D01*
X147077809Y-99007187D01*
X147077812Y-99007190D01*
X147192906Y-99093350D01*
X147192913Y-99093354D01*
X147327620Y-99143596D01*
X147327627Y-99143598D01*
X147387155Y-99149999D01*
X147387172Y-99150000D01*
X147680612Y-99150000D01*
X147747651Y-99169685D01*
X147793406Y-99222489D01*
X147803350Y-99291647D01*
X147774325Y-99355203D01*
X147745889Y-99379427D01*
X147618960Y-99458017D01*
X147618958Y-99458019D01*
X147468237Y-99595418D01*
X147345327Y-99758178D01*
X147254422Y-99940739D01*
X147254417Y-99940752D01*
X147198602Y-100136917D01*
X147179785Y-100339999D01*
X147179785Y-100340000D01*
X147198602Y-100543082D01*
X147254417Y-100739247D01*
X147254422Y-100739260D01*
X147345327Y-100921821D01*
X147468237Y-101084581D01*
X147618958Y-101221980D01*
X147618960Y-101221982D01*
X147689994Y-101265964D01*
X147792363Y-101329348D01*
X147982544Y-101403024D01*
X148183024Y-101440500D01*
X148183026Y-101440500D01*
X148386974Y-101440500D01*
X148386976Y-101440500D01*
X148587456Y-101403024D01*
X148777637Y-101329348D01*
X148951041Y-101221981D01*
X149079122Y-101105219D01*
X149101762Y-101084581D01*
X149104817Y-101080536D01*
X149224673Y-100921821D01*
X149315582Y-100739250D01*
X149371397Y-100543083D01*
X149390215Y-100340000D01*
X149389288Y-100330001D01*
X149371397Y-100136917D01*
X149359165Y-100093927D01*
X149315582Y-99940750D01*
X149305091Y-99919682D01*
X149246686Y-99802387D01*
X149224673Y-99758179D01*
X149154823Y-99665682D01*
X149101762Y-99595418D01*
X148951041Y-99458019D01*
X148951039Y-99458017D01*
X148824111Y-99379427D01*
X148777475Y-99327399D01*
X148766371Y-99258417D01*
X148794324Y-99194383D01*
X148852459Y-99155627D01*
X148889388Y-99150000D01*
X149182828Y-99150000D01*
X149182844Y-99149999D01*
X149242372Y-99143598D01*
X149242379Y-99143596D01*
X149377086Y-99093354D01*
X149377093Y-99093350D01*
X149492187Y-99007190D01*
X149492190Y-99007187D01*
X149578350Y-98892093D01*
X149578354Y-98892086D01*
X149628596Y-98757379D01*
X149628598Y-98757372D01*
X149634999Y-98697844D01*
X149635000Y-98697827D01*
X149635000Y-98050000D01*
X148898347Y-98050000D01*
X148831308Y-98030315D01*
X148785553Y-97977511D01*
X148775609Y-97908353D01*
X148779369Y-97891067D01*
X148785000Y-97871888D01*
X148785000Y-97728111D01*
X148779369Y-97708933D01*
X148779370Y-97639064D01*
X148817145Y-97580286D01*
X148880701Y-97551262D01*
X148898347Y-97550000D01*
X149635000Y-97550000D01*
X149635000Y-96902172D01*
X149634999Y-96902155D01*
X149628598Y-96842627D01*
X149628596Y-96842620D01*
X149578354Y-96707913D01*
X149578350Y-96707906D01*
X149492190Y-96592812D01*
X149492187Y-96592809D01*
X149377093Y-96506649D01*
X149377086Y-96506645D01*
X149242379Y-96456403D01*
X149242372Y-96456401D01*
X149182844Y-96450000D01*
X148535000Y-96450000D01*
X148535000Y-97187698D01*
X148515315Y-97254737D01*
X148462511Y-97300492D01*
X148393355Y-97310436D01*
X148320766Y-97300000D01*
X148320763Y-97300000D01*
X148249237Y-97300000D01*
X148249233Y-97300000D01*
X148176645Y-97310436D01*
X148107487Y-97300492D01*
X148054684Y-97254736D01*
X148035000Y-97187698D01*
X148035000Y-96450000D01*
X147387155Y-96450000D01*
X147327627Y-96456401D01*
X147327620Y-96456403D01*
X147192913Y-96506645D01*
X147192906Y-96506649D01*
X147077812Y-96592809D01*
X147077809Y-96592812D01*
X146991649Y-96707906D01*
X146991645Y-96707913D01*
X146941403Y-96842620D01*
X146941401Y-96842627D01*
X146935000Y-96902155D01*
X146935000Y-97550000D01*
X147671653Y-97550000D01*
X147738692Y-97569685D01*
X147784447Y-97622489D01*
X147794391Y-97691647D01*
X147790631Y-97708933D01*
X147785000Y-97728111D01*
X147785000Y-97871888D01*
X147790631Y-97891067D01*
X147790630Y-97960936D01*
X147752855Y-98019714D01*
X147689299Y-98048738D01*
X147671653Y-98050000D01*
X146935000Y-98050000D01*
X146935000Y-98697844D01*
X132825168Y-98697844D01*
X132840682Y-98580000D01*
X132840186Y-98576236D01*
X132820044Y-98423239D01*
X132820044Y-98423238D01*
X132759536Y-98277159D01*
X132684015Y-98178738D01*
X132658823Y-98113573D01*
X132672861Y-98045128D01*
X132684012Y-98027774D01*
X132731536Y-97965841D01*
X132792044Y-97819762D01*
X132812682Y-97663000D01*
X132812508Y-97661682D01*
X132792044Y-97506239D01*
X132792044Y-97506238D01*
X132731536Y-97360159D01*
X132635282Y-97234718D01*
X132509841Y-97138464D01*
X132477908Y-97125237D01*
X132363762Y-97077956D01*
X132363760Y-97077955D01*
X132207001Y-97057318D01*
X132206999Y-97057318D01*
X132050239Y-97077955D01*
X132050237Y-97077956D01*
X131904160Y-97138463D01*
X131778718Y-97234718D01*
X131682463Y-97360160D01*
X131621956Y-97506237D01*
X131621955Y-97506239D01*
X131601318Y-97662998D01*
X131601318Y-97663001D01*
X123858769Y-97663001D01*
X123896928Y-97570878D01*
X123917566Y-97414116D01*
X123912974Y-97379239D01*
X123896928Y-97257355D01*
X123896928Y-97257354D01*
X123836420Y-97111275D01*
X123740166Y-96985834D01*
X123614725Y-96889580D01*
X123468646Y-96829072D01*
X123468644Y-96829071D01*
X123311885Y-96808434D01*
X123311883Y-96808434D01*
X123155123Y-96829071D01*
X123155121Y-96829072D01*
X123009044Y-96889579D01*
X122883602Y-96985834D01*
X122787347Y-97111276D01*
X122726840Y-97257353D01*
X122726839Y-97257355D01*
X122706202Y-97414114D01*
X122706202Y-97414117D01*
X111587636Y-97414117D01*
X111583044Y-97379238D01*
X111522536Y-97233159D01*
X111426282Y-97107718D01*
X111300841Y-97011464D01*
X111222852Y-96979160D01*
X111154762Y-96950956D01*
X111154760Y-96950955D01*
X110998001Y-96930318D01*
X110997999Y-96930318D01*
X110841240Y-96950955D01*
X110755113Y-96986630D01*
X110685643Y-96994098D01*
X110623164Y-96962822D01*
X110609285Y-96947555D01*
X110537282Y-96853718D01*
X110411841Y-96757464D01*
X110401450Y-96753160D01*
X110265762Y-96696956D01*
X110265760Y-96696955D01*
X110109001Y-96676318D01*
X110108999Y-96676318D01*
X109952239Y-96696955D01*
X109952237Y-96696956D01*
X109806160Y-96757463D01*
X109680718Y-96853718D01*
X109584463Y-96979160D01*
X109523956Y-97125237D01*
X109523955Y-97125239D01*
X109503318Y-97281998D01*
X109503318Y-97282001D01*
X108584739Y-97282001D01*
X107949739Y-96647001D01*
X116107318Y-96647001D01*
X116127955Y-96803760D01*
X116127956Y-96803762D01*
X116180443Y-96930478D01*
X116188464Y-96949841D01*
X116284718Y-97075282D01*
X116410159Y-97171536D01*
X116556238Y-97232044D01*
X116634619Y-97242363D01*
X116712999Y-97252682D01*
X116713000Y-97252682D01*
X116713001Y-97252682D01*
X116765253Y-97245802D01*
X116869762Y-97232044D01*
X117015841Y-97171536D01*
X117082014Y-97120759D01*
X117147182Y-97095565D01*
X117215627Y-97109603D01*
X117232982Y-97120757D01*
X117256059Y-97138464D01*
X117299157Y-97171535D01*
X117299158Y-97171535D01*
X117299159Y-97171536D01*
X117445238Y-97232044D01*
X117523618Y-97242363D01*
X117601999Y-97252682D01*
X117602000Y-97252682D01*
X117602001Y-97252682D01*
X117654253Y-97245802D01*
X117758762Y-97232044D01*
X117904841Y-97171536D01*
X118030282Y-97075282D01*
X118126536Y-96949841D01*
X118187044Y-96803762D01*
X118204155Y-96673794D01*
X118207682Y-96647001D01*
X128299318Y-96647001D01*
X128319955Y-96803760D01*
X128319956Y-96803762D01*
X128372443Y-96930478D01*
X128380464Y-96949841D01*
X128476718Y-97075282D01*
X128602159Y-97171536D01*
X128748238Y-97232044D01*
X128826619Y-97242363D01*
X128904999Y-97252682D01*
X128905000Y-97252682D01*
X128905001Y-97252682D01*
X128957253Y-97245802D01*
X129061762Y-97232044D01*
X129061765Y-97232042D01*
X129069613Y-97229940D01*
X129070422Y-97232959D01*
X129125195Y-97227057D01*
X129187682Y-97258316D01*
X129217770Y-97301639D01*
X129241464Y-97358841D01*
X129337718Y-97484282D01*
X129463159Y-97580536D01*
X129609238Y-97641044D01*
X129687619Y-97651363D01*
X129765999Y-97661682D01*
X129766000Y-97661682D01*
X129766001Y-97661682D01*
X129818253Y-97654802D01*
X129922762Y-97641044D01*
X130068841Y-97580536D01*
X130194282Y-97484282D01*
X130290536Y-97358841D01*
X130351044Y-97212762D01*
X130366473Y-97095565D01*
X130371682Y-97056001D01*
X130371682Y-97055998D01*
X130355157Y-96930478D01*
X130351044Y-96899238D01*
X130290536Y-96753159D01*
X130209078Y-96647001D01*
X135538318Y-96647001D01*
X135558955Y-96803760D01*
X135558956Y-96803762D01*
X135611443Y-96930478D01*
X135619464Y-96949841D01*
X135715718Y-97075282D01*
X135841159Y-97171536D01*
X135987238Y-97232044D01*
X136065618Y-97242363D01*
X136143999Y-97252682D01*
X136144000Y-97252682D01*
X136144001Y-97252682D01*
X136196253Y-97245802D01*
X136300762Y-97232044D01*
X136446841Y-97171536D01*
X136572282Y-97075282D01*
X136668536Y-96949841D01*
X136729044Y-96803762D01*
X136746155Y-96673794D01*
X136749682Y-96647001D01*
X136749682Y-96646998D01*
X136732800Y-96518771D01*
X136729044Y-96490238D01*
X136668536Y-96344159D01*
X136572282Y-96218718D01*
X136446841Y-96122464D01*
X136300762Y-96061956D01*
X136300760Y-96061955D01*
X136144001Y-96041318D01*
X136143999Y-96041318D01*
X135987239Y-96061955D01*
X135987237Y-96061956D01*
X135841160Y-96122463D01*
X135715718Y-96218718D01*
X135619463Y-96344160D01*
X135558956Y-96490237D01*
X135558955Y-96490239D01*
X135538318Y-96646998D01*
X135538318Y-96647001D01*
X130209078Y-96647001D01*
X130194282Y-96627718D01*
X130068841Y-96531464D01*
X130038197Y-96518771D01*
X129922762Y-96470956D01*
X129922760Y-96470955D01*
X129766001Y-96450318D01*
X129765999Y-96450318D01*
X129609237Y-96470956D01*
X129601390Y-96473059D01*
X129600583Y-96470049D01*
X129545746Y-96475933D01*
X129483274Y-96444644D01*
X129453231Y-96401365D01*
X129429536Y-96344159D01*
X129333282Y-96218718D01*
X129207841Y-96122464D01*
X129061762Y-96061956D01*
X129061760Y-96061955D01*
X128905001Y-96041318D01*
X128904999Y-96041318D01*
X128748239Y-96061955D01*
X128748237Y-96061956D01*
X128602160Y-96122463D01*
X128476718Y-96218718D01*
X128380463Y-96344160D01*
X128319956Y-96490237D01*
X128319955Y-96490239D01*
X128299318Y-96646998D01*
X128299318Y-96647001D01*
X118207682Y-96647001D01*
X118207682Y-96646998D01*
X118190800Y-96518771D01*
X118187044Y-96490238D01*
X118126536Y-96344159D01*
X118030282Y-96218718D01*
X117904841Y-96122464D01*
X117758762Y-96061956D01*
X117758760Y-96061955D01*
X117602001Y-96041318D01*
X117601999Y-96041318D01*
X117445239Y-96061955D01*
X117445237Y-96061956D01*
X117299160Y-96122463D01*
X117232986Y-96173240D01*
X117167816Y-96198433D01*
X117099371Y-96184394D01*
X117082014Y-96173240D01*
X117064721Y-96159970D01*
X117015841Y-96122464D01*
X116869762Y-96061956D01*
X116869760Y-96061955D01*
X116713001Y-96041318D01*
X116712999Y-96041318D01*
X116556239Y-96061955D01*
X116556237Y-96061956D01*
X116410160Y-96122463D01*
X116284718Y-96218718D01*
X116188463Y-96344160D01*
X116127956Y-96490237D01*
X116127955Y-96490239D01*
X116107318Y-96646998D01*
X116107318Y-96647001D01*
X107949739Y-96647001D01*
X107226309Y-95923571D01*
X107209674Y-95902928D01*
X107207069Y-95898874D01*
X107207066Y-95898871D01*
X107200071Y-95892810D01*
X107167856Y-95864896D01*
X107164624Y-95861886D01*
X107153520Y-95850782D01*
X107153512Y-95850775D01*
X107140937Y-95841362D01*
X107137507Y-95838598D01*
X107098297Y-95804623D01*
X107098295Y-95804622D01*
X107098291Y-95804619D01*
X107093907Y-95802617D01*
X107071118Y-95789096D01*
X107067255Y-95786204D01*
X107067253Y-95786203D01*
X107018640Y-95768071D01*
X107014566Y-95766383D01*
X106967381Y-95744835D01*
X106967379Y-95744834D01*
X106962606Y-95744148D01*
X106936924Y-95737593D01*
X106932409Y-95735909D01*
X106880664Y-95732207D01*
X106876267Y-95731734D01*
X106860723Y-95729500D01*
X106845018Y-95729500D01*
X106840595Y-95729342D01*
X106823007Y-95728084D01*
X106788853Y-95725641D01*
X106788849Y-95725641D01*
X106784139Y-95726666D01*
X106757781Y-95729500D01*
X104108676Y-95729500D01*
X104041637Y-95709815D01*
X104020995Y-95693181D01*
X103483547Y-95155733D01*
X103450062Y-95094410D01*
X103455046Y-95024718D01*
X103496918Y-94968785D01*
X103562382Y-94944368D01*
X103630655Y-94959220D01*
X103636506Y-94962626D01*
X103647354Y-94969343D01*
X103647358Y-94969345D01*
X103647363Y-94969348D01*
X103837544Y-95043024D01*
X104038024Y-95080500D01*
X104038026Y-95080500D01*
X104241974Y-95080500D01*
X104241976Y-95080500D01*
X104442456Y-95043024D01*
X104632637Y-94969348D01*
X104806041Y-94861981D01*
X104956764Y-94724579D01*
X105079673Y-94561821D01*
X105141598Y-94437456D01*
X105166817Y-94386812D01*
X105214319Y-94335575D01*
X105281982Y-94318153D01*
X105348323Y-94340078D01*
X105392278Y-94394389D01*
X105397592Y-94409989D01*
X105406567Y-94443485D01*
X105406570Y-94443492D01*
X105506399Y-94657578D01*
X105641894Y-94851082D01*
X105808917Y-95018105D01*
X106002421Y-95153600D01*
X106216507Y-95253429D01*
X106216516Y-95253433D01*
X106429999Y-95310633D01*
X106429999Y-94592301D01*
X106449683Y-94525262D01*
X106502487Y-94479507D01*
X106571646Y-94469563D01*
X106578380Y-94470531D01*
X106644237Y-94480000D01*
X106644238Y-94480000D01*
X106715762Y-94480000D01*
X106715763Y-94480000D01*
X106788353Y-94469563D01*
X106857512Y-94479507D01*
X106910315Y-94525262D01*
X106930000Y-94592301D01*
X106930000Y-95310633D01*
X107143483Y-95253433D01*
X107143492Y-95253429D01*
X107357578Y-95153600D01*
X107551082Y-95018105D01*
X107718105Y-94851082D01*
X107853600Y-94657578D01*
X107953429Y-94443492D01*
X107953431Y-94443489D01*
X107962406Y-94409992D01*
X107998770Y-94350331D01*
X108061616Y-94319800D01*
X108130992Y-94328094D01*
X108184871Y-94372578D01*
X108193182Y-94386811D01*
X108280327Y-94561821D01*
X108403237Y-94724581D01*
X108553958Y-94861980D01*
X108553960Y-94861982D01*
X108653141Y-94923392D01*
X108727363Y-94969348D01*
X108917544Y-95043024D01*
X109118024Y-95080500D01*
X109118026Y-95080500D01*
X109321974Y-95080500D01*
X109321976Y-95080500D01*
X109522456Y-95043024D01*
X109712637Y-94969348D01*
X109886041Y-94861981D01*
X110036764Y-94724579D01*
X110159673Y-94561821D01*
X110250582Y-94379250D01*
X110306397Y-94183083D01*
X110325215Y-93980000D01*
X110654785Y-93980000D01*
X110673602Y-94183082D01*
X110729417Y-94379247D01*
X110729422Y-94379260D01*
X110820327Y-94561821D01*
X110943237Y-94724581D01*
X111093958Y-94861980D01*
X111093960Y-94861982D01*
X111193141Y-94923392D01*
X111267363Y-94969348D01*
X111457544Y-95043024D01*
X111658024Y-95080500D01*
X111658026Y-95080500D01*
X111861974Y-95080500D01*
X111861976Y-95080500D01*
X112062456Y-95043024D01*
X112252637Y-94969348D01*
X112426041Y-94861981D01*
X112576764Y-94724579D01*
X112699673Y-94561821D01*
X112790582Y-94379250D01*
X112846397Y-94183083D01*
X112865215Y-93980000D01*
X113194785Y-93980000D01*
X113213602Y-94183082D01*
X113269417Y-94379247D01*
X113269422Y-94379260D01*
X113360327Y-94561821D01*
X113483237Y-94724581D01*
X113633958Y-94861980D01*
X113633960Y-94861982D01*
X113733141Y-94923392D01*
X113807363Y-94969348D01*
X113997544Y-95043024D01*
X114198024Y-95080500D01*
X114198026Y-95080500D01*
X114401974Y-95080500D01*
X114401976Y-95080500D01*
X114602456Y-95043024D01*
X114792637Y-94969348D01*
X114966041Y-94861981D01*
X115116764Y-94724579D01*
X115239673Y-94561821D01*
X115330582Y-94379250D01*
X115386397Y-94183083D01*
X115405215Y-93980000D01*
X115734785Y-93980000D01*
X115753602Y-94183082D01*
X115809417Y-94379247D01*
X115809422Y-94379260D01*
X115900327Y-94561821D01*
X116023237Y-94724581D01*
X116173958Y-94861980D01*
X116173960Y-94861982D01*
X116273141Y-94923392D01*
X116347363Y-94969348D01*
X116537544Y-95043024D01*
X116738024Y-95080500D01*
X116738026Y-95080500D01*
X116941974Y-95080500D01*
X116941976Y-95080500D01*
X117142456Y-95043024D01*
X117332637Y-94969348D01*
X117506041Y-94861981D01*
X117656764Y-94724579D01*
X117779673Y-94561821D01*
X117870582Y-94379250D01*
X117926397Y-94183083D01*
X117945215Y-93980000D01*
X118274785Y-93980000D01*
X118293602Y-94183082D01*
X118349417Y-94379247D01*
X118349422Y-94379260D01*
X118440327Y-94561821D01*
X118563237Y-94724581D01*
X118713958Y-94861980D01*
X118713960Y-94861982D01*
X118813141Y-94923392D01*
X118887363Y-94969348D01*
X119077544Y-95043024D01*
X119278024Y-95080500D01*
X119278026Y-95080500D01*
X119481974Y-95080500D01*
X119481976Y-95080500D01*
X119682456Y-95043024D01*
X119872637Y-94969348D01*
X120046041Y-94861981D01*
X120196764Y-94724579D01*
X120319673Y-94561821D01*
X120410582Y-94379250D01*
X120466397Y-94183083D01*
X120485215Y-93980000D01*
X120814785Y-93980000D01*
X120833602Y-94183082D01*
X120889417Y-94379247D01*
X120889422Y-94379260D01*
X120980327Y-94561821D01*
X121103237Y-94724581D01*
X121253958Y-94861980D01*
X121253960Y-94861982D01*
X121353141Y-94923392D01*
X121427363Y-94969348D01*
X121617544Y-95043024D01*
X121818024Y-95080500D01*
X121818026Y-95080500D01*
X122021974Y-95080500D01*
X122021976Y-95080500D01*
X122222456Y-95043024D01*
X122412637Y-94969348D01*
X122586041Y-94861981D01*
X122736764Y-94724579D01*
X122859673Y-94561821D01*
X122950582Y-94379250D01*
X123006397Y-94183083D01*
X123025215Y-93980000D01*
X123354785Y-93980000D01*
X123373602Y-94183082D01*
X123429417Y-94379247D01*
X123429422Y-94379260D01*
X123520327Y-94561821D01*
X123643237Y-94724581D01*
X123793958Y-94861980D01*
X123793960Y-94861982D01*
X123893141Y-94923392D01*
X123967363Y-94969348D01*
X124157544Y-95043024D01*
X124358024Y-95080500D01*
X124358026Y-95080500D01*
X124561974Y-95080500D01*
X124561976Y-95080500D01*
X124762456Y-95043024D01*
X124952637Y-94969348D01*
X125126041Y-94861981D01*
X125276764Y-94724579D01*
X125399673Y-94561821D01*
X125490582Y-94379250D01*
X125546397Y-94183083D01*
X125565215Y-93980000D01*
X125894785Y-93980000D01*
X125913602Y-94183082D01*
X125969417Y-94379247D01*
X125969422Y-94379260D01*
X126060327Y-94561821D01*
X126183237Y-94724581D01*
X126333958Y-94861980D01*
X126333960Y-94861982D01*
X126433141Y-94923392D01*
X126507363Y-94969348D01*
X126697544Y-95043024D01*
X126898024Y-95080500D01*
X126898026Y-95080500D01*
X127101974Y-95080500D01*
X127101976Y-95080500D01*
X127302456Y-95043024D01*
X127492637Y-94969348D01*
X127666041Y-94861981D01*
X127816764Y-94724579D01*
X127939673Y-94561821D01*
X128030582Y-94379250D01*
X128086397Y-94183083D01*
X128105215Y-93980000D01*
X128434785Y-93980000D01*
X128453602Y-94183082D01*
X128509417Y-94379247D01*
X128509422Y-94379260D01*
X128600327Y-94561821D01*
X128723237Y-94724581D01*
X128873958Y-94861980D01*
X128873960Y-94861982D01*
X128973141Y-94923392D01*
X129047363Y-94969348D01*
X129237544Y-95043024D01*
X129438024Y-95080500D01*
X129438026Y-95080500D01*
X129641974Y-95080500D01*
X129641976Y-95080500D01*
X129842456Y-95043024D01*
X130032637Y-94969348D01*
X130206041Y-94861981D01*
X130356764Y-94724579D01*
X130479673Y-94561821D01*
X130570582Y-94379250D01*
X130626397Y-94183083D01*
X130645215Y-93980000D01*
X130974785Y-93980000D01*
X130993602Y-94183082D01*
X131049417Y-94379247D01*
X131049422Y-94379260D01*
X131140327Y-94561821D01*
X131263237Y-94724581D01*
X131413958Y-94861980D01*
X131413960Y-94861982D01*
X131513141Y-94923392D01*
X131587363Y-94969348D01*
X131777544Y-95043024D01*
X131978024Y-95080500D01*
X131978026Y-95080500D01*
X132181974Y-95080500D01*
X132181976Y-95080500D01*
X132382456Y-95043024D01*
X132572637Y-94969348D01*
X132746041Y-94861981D01*
X132896764Y-94724579D01*
X133019673Y-94561821D01*
X133110582Y-94379250D01*
X133166397Y-94183083D01*
X133185215Y-93980000D01*
X133514785Y-93980000D01*
X133533602Y-94183082D01*
X133589417Y-94379247D01*
X133589422Y-94379260D01*
X133680327Y-94561821D01*
X133803237Y-94724581D01*
X133953958Y-94861980D01*
X133953960Y-94861982D01*
X134053141Y-94923392D01*
X134127363Y-94969348D01*
X134317544Y-95043024D01*
X134518024Y-95080500D01*
X134518026Y-95080500D01*
X134721974Y-95080500D01*
X134721976Y-95080500D01*
X134922456Y-95043024D01*
X135112637Y-94969348D01*
X135286041Y-94861981D01*
X135436764Y-94724579D01*
X135559673Y-94561821D01*
X135650582Y-94379250D01*
X135706397Y-94183083D01*
X135725215Y-93980000D01*
X136054785Y-93980000D01*
X136073602Y-94183082D01*
X136129417Y-94379247D01*
X136129422Y-94379260D01*
X136220327Y-94561821D01*
X136343237Y-94724581D01*
X136493958Y-94861980D01*
X136493960Y-94861982D01*
X136593141Y-94923392D01*
X136667363Y-94969348D01*
X136857544Y-95043024D01*
X137058024Y-95080500D01*
X137058026Y-95080500D01*
X137261974Y-95080500D01*
X137261976Y-95080500D01*
X137462456Y-95043024D01*
X137652637Y-94969348D01*
X137826041Y-94861981D01*
X137976764Y-94724579D01*
X138099673Y-94561821D01*
X138190582Y-94379250D01*
X138246397Y-94183083D01*
X138265215Y-93980000D01*
X138594785Y-93980000D01*
X138613602Y-94183082D01*
X138669417Y-94379247D01*
X138669422Y-94379260D01*
X138760327Y-94561821D01*
X138883237Y-94724581D01*
X139033958Y-94861980D01*
X139033960Y-94861982D01*
X139133141Y-94923392D01*
X139207363Y-94969348D01*
X139397544Y-95043024D01*
X139598024Y-95080500D01*
X139598026Y-95080500D01*
X139801974Y-95080500D01*
X139801976Y-95080500D01*
X140002456Y-95043024D01*
X140192637Y-94969348D01*
X140366041Y-94861981D01*
X140516764Y-94724579D01*
X140639673Y-94561821D01*
X140730582Y-94379250D01*
X140786397Y-94183083D01*
X140805215Y-93980000D01*
X141134785Y-93980000D01*
X141153602Y-94183082D01*
X141209417Y-94379247D01*
X141209422Y-94379260D01*
X141300327Y-94561821D01*
X141423237Y-94724581D01*
X141573958Y-94861980D01*
X141573960Y-94861982D01*
X141673141Y-94923392D01*
X141747363Y-94969348D01*
X141937544Y-95043024D01*
X142138024Y-95080500D01*
X142138026Y-95080500D01*
X142341974Y-95080500D01*
X142341976Y-95080500D01*
X142542456Y-95043024D01*
X142732637Y-94969348D01*
X142906041Y-94861981D01*
X143056764Y-94724579D01*
X143179673Y-94561821D01*
X143270582Y-94379250D01*
X143326397Y-94183083D01*
X143345215Y-93980000D01*
X143674785Y-93980000D01*
X143693602Y-94183082D01*
X143749417Y-94379247D01*
X143749422Y-94379260D01*
X143840327Y-94561821D01*
X143963237Y-94724581D01*
X144113958Y-94861980D01*
X144113960Y-94861982D01*
X144213141Y-94923392D01*
X144287363Y-94969348D01*
X144477544Y-95043024D01*
X144678024Y-95080500D01*
X144678026Y-95080500D01*
X144881974Y-95080500D01*
X144881976Y-95080500D01*
X145082456Y-95043024D01*
X145272637Y-94969348D01*
X145446041Y-94861981D01*
X145596764Y-94724579D01*
X145719673Y-94561821D01*
X145810582Y-94379250D01*
X145866397Y-94183083D01*
X145885215Y-93980000D01*
X146214785Y-93980000D01*
X146233602Y-94183082D01*
X146289417Y-94379247D01*
X146289422Y-94379260D01*
X146380327Y-94561821D01*
X146503237Y-94724581D01*
X146653958Y-94861980D01*
X146653960Y-94861982D01*
X146753141Y-94923392D01*
X146827363Y-94969348D01*
X147017544Y-95043024D01*
X147218024Y-95080500D01*
X147218026Y-95080500D01*
X147421974Y-95080500D01*
X147421976Y-95080500D01*
X147622456Y-95043024D01*
X147812637Y-94969348D01*
X147986041Y-94861981D01*
X148136764Y-94724579D01*
X148259673Y-94561821D01*
X148350582Y-94379250D01*
X148406397Y-94183083D01*
X148425215Y-93980000D01*
X148754785Y-93980000D01*
X148773602Y-94183082D01*
X148829417Y-94379247D01*
X148829422Y-94379260D01*
X148920327Y-94561821D01*
X149043237Y-94724581D01*
X149193958Y-94861980D01*
X149193960Y-94861982D01*
X149293141Y-94923392D01*
X149367363Y-94969348D01*
X149557544Y-95043024D01*
X149758024Y-95080500D01*
X149758026Y-95080500D01*
X149961974Y-95080500D01*
X149961976Y-95080500D01*
X150162456Y-95043024D01*
X150352637Y-94969348D01*
X150526041Y-94861981D01*
X150676764Y-94724579D01*
X150799673Y-94561821D01*
X150890582Y-94379250D01*
X150946397Y-94183083D01*
X150965215Y-93980000D01*
X150946397Y-93776917D01*
X150890582Y-93580750D01*
X150875274Y-93550008D01*
X150840415Y-93480000D01*
X150799673Y-93398179D01*
X150676764Y-93235421D01*
X150676762Y-93235418D01*
X150526041Y-93098019D01*
X150526039Y-93098017D01*
X150352642Y-92990655D01*
X150352635Y-92990651D01*
X150226769Y-92941891D01*
X150162456Y-92916976D01*
X149961976Y-92879500D01*
X149758024Y-92879500D01*
X149557544Y-92916976D01*
X149557541Y-92916976D01*
X149557541Y-92916977D01*
X149367364Y-92990651D01*
X149367357Y-92990655D01*
X149193960Y-93098017D01*
X149193958Y-93098019D01*
X149043237Y-93235418D01*
X148920327Y-93398178D01*
X148829422Y-93580739D01*
X148829417Y-93580752D01*
X148773602Y-93776917D01*
X148754785Y-93979999D01*
X148754785Y-93980000D01*
X148425215Y-93980000D01*
X148406397Y-93776917D01*
X148350582Y-93580750D01*
X148335274Y-93550008D01*
X148300415Y-93480000D01*
X148259673Y-93398179D01*
X148136764Y-93235421D01*
X148136762Y-93235418D01*
X147986041Y-93098019D01*
X147986039Y-93098017D01*
X147812642Y-92990655D01*
X147812635Y-92990651D01*
X147686769Y-92941891D01*
X147622456Y-92916976D01*
X147421976Y-92879500D01*
X147218024Y-92879500D01*
X147017544Y-92916976D01*
X147017541Y-92916976D01*
X147017541Y-92916977D01*
X146827364Y-92990651D01*
X146827357Y-92990655D01*
X146653960Y-93098017D01*
X146653958Y-93098019D01*
X146503237Y-93235418D01*
X146380327Y-93398178D01*
X146289422Y-93580739D01*
X146289417Y-93580752D01*
X146233602Y-93776917D01*
X146214785Y-93979999D01*
X146214785Y-93980000D01*
X145885215Y-93980000D01*
X145866397Y-93776917D01*
X145810582Y-93580750D01*
X145795274Y-93550008D01*
X145760415Y-93480000D01*
X145719673Y-93398179D01*
X145596764Y-93235421D01*
X145596762Y-93235418D01*
X145446041Y-93098019D01*
X145446039Y-93098017D01*
X145272642Y-92990655D01*
X145272635Y-92990651D01*
X145146769Y-92941891D01*
X145082456Y-92916976D01*
X144881976Y-92879500D01*
X144678024Y-92879500D01*
X144477544Y-92916976D01*
X144477541Y-92916976D01*
X144477541Y-92916977D01*
X144287364Y-92990651D01*
X144287357Y-92990655D01*
X144113960Y-93098017D01*
X144113958Y-93098019D01*
X143963237Y-93235418D01*
X143840327Y-93398178D01*
X143749422Y-93580739D01*
X143749417Y-93580752D01*
X143693602Y-93776917D01*
X143674785Y-93979999D01*
X143674785Y-93980000D01*
X143345215Y-93980000D01*
X143326397Y-93776917D01*
X143270582Y-93580750D01*
X143255274Y-93550008D01*
X143220415Y-93480000D01*
X143179673Y-93398179D01*
X143056764Y-93235421D01*
X143056762Y-93235418D01*
X142906041Y-93098019D01*
X142906039Y-93098017D01*
X142732642Y-92990655D01*
X142732635Y-92990651D01*
X142606769Y-92941891D01*
X142542456Y-92916976D01*
X142341976Y-92879500D01*
X142138024Y-92879500D01*
X141937544Y-92916976D01*
X141937541Y-92916976D01*
X141937541Y-92916977D01*
X141747364Y-92990651D01*
X141747357Y-92990655D01*
X141573960Y-93098017D01*
X141573958Y-93098019D01*
X141423237Y-93235418D01*
X141300327Y-93398178D01*
X141209422Y-93580739D01*
X141209417Y-93580752D01*
X141153602Y-93776917D01*
X141134785Y-93979999D01*
X141134785Y-93980000D01*
X140805215Y-93980000D01*
X140786397Y-93776917D01*
X140730582Y-93580750D01*
X140715274Y-93550008D01*
X140680415Y-93480000D01*
X140639673Y-93398179D01*
X140516764Y-93235421D01*
X140516762Y-93235418D01*
X140366041Y-93098019D01*
X140366039Y-93098017D01*
X140192642Y-92990655D01*
X140192635Y-92990651D01*
X140066769Y-92941891D01*
X140002456Y-92916976D01*
X139801976Y-92879500D01*
X139598024Y-92879500D01*
X139397544Y-92916976D01*
X139397541Y-92916976D01*
X139397541Y-92916977D01*
X139207364Y-92990651D01*
X139207357Y-92990655D01*
X139033960Y-93098017D01*
X139033958Y-93098019D01*
X138883237Y-93235418D01*
X138760327Y-93398178D01*
X138669422Y-93580739D01*
X138669417Y-93580752D01*
X138613602Y-93776917D01*
X138594785Y-93979999D01*
X138594785Y-93980000D01*
X138265215Y-93980000D01*
X138246397Y-93776917D01*
X138190582Y-93580750D01*
X138175274Y-93550008D01*
X138140415Y-93480000D01*
X138099673Y-93398179D01*
X137976764Y-93235421D01*
X137976762Y-93235418D01*
X137826041Y-93098019D01*
X137826039Y-93098017D01*
X137652642Y-92990655D01*
X137652635Y-92990651D01*
X137526769Y-92941891D01*
X137462456Y-92916976D01*
X137261976Y-92879500D01*
X137058024Y-92879500D01*
X136857544Y-92916976D01*
X136857541Y-92916976D01*
X136857541Y-92916977D01*
X136667364Y-92990651D01*
X136667357Y-92990655D01*
X136493960Y-93098017D01*
X136493958Y-93098019D01*
X136343237Y-93235418D01*
X136220327Y-93398178D01*
X136129422Y-93580739D01*
X136129417Y-93580752D01*
X136073602Y-93776917D01*
X136054785Y-93979999D01*
X136054785Y-93980000D01*
X135725215Y-93980000D01*
X135706397Y-93776917D01*
X135650582Y-93580750D01*
X135635274Y-93550008D01*
X135600415Y-93480000D01*
X135559673Y-93398179D01*
X135436764Y-93235421D01*
X135436762Y-93235418D01*
X135286041Y-93098019D01*
X135286039Y-93098017D01*
X135112642Y-92990655D01*
X135112635Y-92990651D01*
X134986769Y-92941891D01*
X134922456Y-92916976D01*
X134721976Y-92879500D01*
X134518024Y-92879500D01*
X134317544Y-92916976D01*
X134317541Y-92916976D01*
X134317541Y-92916977D01*
X134127364Y-92990651D01*
X134127357Y-92990655D01*
X133953960Y-93098017D01*
X133953958Y-93098019D01*
X133803237Y-93235418D01*
X133680327Y-93398178D01*
X133589422Y-93580739D01*
X133589417Y-93580752D01*
X133533602Y-93776917D01*
X133514785Y-93979999D01*
X133514785Y-93980000D01*
X133185215Y-93980000D01*
X133166397Y-93776917D01*
X133110582Y-93580750D01*
X133095274Y-93550008D01*
X133060415Y-93480000D01*
X133019673Y-93398179D01*
X132896764Y-93235421D01*
X132896762Y-93235418D01*
X132746041Y-93098019D01*
X132746039Y-93098017D01*
X132572642Y-92990655D01*
X132572635Y-92990651D01*
X132446769Y-92941891D01*
X132382456Y-92916976D01*
X132181976Y-92879500D01*
X131978024Y-92879500D01*
X131777544Y-92916976D01*
X131777541Y-92916976D01*
X131777541Y-92916977D01*
X131587364Y-92990651D01*
X131587357Y-92990655D01*
X131413960Y-93098017D01*
X131413958Y-93098019D01*
X131263237Y-93235418D01*
X131140327Y-93398178D01*
X131049422Y-93580739D01*
X131049417Y-93580752D01*
X130993602Y-93776917D01*
X130974785Y-93979999D01*
X130974785Y-93980000D01*
X130645215Y-93980000D01*
X130626397Y-93776917D01*
X130570582Y-93580750D01*
X130555274Y-93550008D01*
X130520415Y-93480000D01*
X130479673Y-93398179D01*
X130356764Y-93235421D01*
X130356762Y-93235418D01*
X130206041Y-93098019D01*
X130206039Y-93098017D01*
X130032642Y-92990655D01*
X130032635Y-92990651D01*
X129906769Y-92941891D01*
X129842456Y-92916976D01*
X129641976Y-92879500D01*
X129438024Y-92879500D01*
X129237544Y-92916976D01*
X129237541Y-92916976D01*
X129237541Y-92916977D01*
X129047364Y-92990651D01*
X129047357Y-92990655D01*
X128873960Y-93098017D01*
X128873958Y-93098019D01*
X128723237Y-93235418D01*
X128600327Y-93398178D01*
X128509422Y-93580739D01*
X128509417Y-93580752D01*
X128453602Y-93776917D01*
X128434785Y-93979999D01*
X128434785Y-93980000D01*
X128105215Y-93980000D01*
X128086397Y-93776917D01*
X128030582Y-93580750D01*
X128015274Y-93550008D01*
X127980415Y-93480000D01*
X127939673Y-93398179D01*
X127816764Y-93235421D01*
X127816762Y-93235418D01*
X127666041Y-93098019D01*
X127666039Y-93098017D01*
X127492642Y-92990655D01*
X127492635Y-92990651D01*
X127366769Y-92941891D01*
X127302456Y-92916976D01*
X127101976Y-92879500D01*
X126898024Y-92879500D01*
X126697544Y-92916976D01*
X126697541Y-92916976D01*
X126697541Y-92916977D01*
X126507364Y-92990651D01*
X126507357Y-92990655D01*
X126333960Y-93098017D01*
X126333958Y-93098019D01*
X126183237Y-93235418D01*
X126060327Y-93398178D01*
X125969422Y-93580739D01*
X125969417Y-93580752D01*
X125913602Y-93776917D01*
X125894785Y-93979999D01*
X125894785Y-93980000D01*
X125565215Y-93980000D01*
X125546397Y-93776917D01*
X125490582Y-93580750D01*
X125475274Y-93550008D01*
X125440415Y-93480000D01*
X125399673Y-93398179D01*
X125276764Y-93235421D01*
X125276762Y-93235418D01*
X125126041Y-93098019D01*
X125126039Y-93098017D01*
X124952642Y-92990655D01*
X124952635Y-92990651D01*
X124826769Y-92941891D01*
X124762456Y-92916976D01*
X124561976Y-92879500D01*
X124358024Y-92879500D01*
X124157544Y-92916976D01*
X124157541Y-92916976D01*
X124157541Y-92916977D01*
X123967364Y-92990651D01*
X123967357Y-92990655D01*
X123793960Y-93098017D01*
X123793958Y-93098019D01*
X123643237Y-93235418D01*
X123520327Y-93398178D01*
X123429422Y-93580739D01*
X123429417Y-93580752D01*
X123373602Y-93776917D01*
X123354785Y-93979999D01*
X123354785Y-93980000D01*
X123025215Y-93980000D01*
X123006397Y-93776917D01*
X122950582Y-93580750D01*
X122935274Y-93550008D01*
X122900415Y-93480000D01*
X122859673Y-93398179D01*
X122736764Y-93235421D01*
X122736762Y-93235418D01*
X122586041Y-93098019D01*
X122586039Y-93098017D01*
X122412642Y-92990655D01*
X122412635Y-92990651D01*
X122286769Y-92941891D01*
X122222456Y-92916976D01*
X122021976Y-92879500D01*
X121818024Y-92879500D01*
X121617544Y-92916976D01*
X121617541Y-92916976D01*
X121617541Y-92916977D01*
X121427364Y-92990651D01*
X121427357Y-92990655D01*
X121253960Y-93098017D01*
X121253958Y-93098019D01*
X121103237Y-93235418D01*
X120980327Y-93398178D01*
X120889422Y-93580739D01*
X120889417Y-93580752D01*
X120833602Y-93776917D01*
X120814785Y-93979999D01*
X120814785Y-93980000D01*
X120485215Y-93980000D01*
X120466397Y-93776917D01*
X120410582Y-93580750D01*
X120395274Y-93550008D01*
X120360415Y-93480000D01*
X120319673Y-93398179D01*
X120196764Y-93235421D01*
X120196762Y-93235418D01*
X120046041Y-93098019D01*
X120046039Y-93098017D01*
X119872642Y-92990655D01*
X119872635Y-92990651D01*
X119746769Y-92941891D01*
X119682456Y-92916976D01*
X119481976Y-92879500D01*
X119278024Y-92879500D01*
X119077544Y-92916976D01*
X119077541Y-92916976D01*
X119077541Y-92916977D01*
X118887364Y-92990651D01*
X118887357Y-92990655D01*
X118713960Y-93098017D01*
X118713958Y-93098019D01*
X118563237Y-93235418D01*
X118440327Y-93398178D01*
X118349422Y-93580739D01*
X118349417Y-93580752D01*
X118293602Y-93776917D01*
X118274785Y-93979999D01*
X118274785Y-93980000D01*
X117945215Y-93980000D01*
X117926397Y-93776917D01*
X117870582Y-93580750D01*
X117855274Y-93550008D01*
X117820415Y-93480000D01*
X117779673Y-93398179D01*
X117656764Y-93235421D01*
X117656762Y-93235418D01*
X117506041Y-93098019D01*
X117506039Y-93098017D01*
X117332642Y-92990655D01*
X117332635Y-92990651D01*
X117206769Y-92941891D01*
X117142456Y-92916976D01*
X116941976Y-92879500D01*
X116738024Y-92879500D01*
X116537544Y-92916976D01*
X116537541Y-92916976D01*
X116537541Y-92916977D01*
X116347364Y-92990651D01*
X116347357Y-92990655D01*
X116173960Y-93098017D01*
X116173958Y-93098019D01*
X116023237Y-93235418D01*
X115900327Y-93398178D01*
X115809422Y-93580739D01*
X115809417Y-93580752D01*
X115753602Y-93776917D01*
X115734785Y-93979999D01*
X115734785Y-93980000D01*
X115405215Y-93980000D01*
X115386397Y-93776917D01*
X115330582Y-93580750D01*
X115315274Y-93550008D01*
X115280415Y-93480000D01*
X115239673Y-93398179D01*
X115116764Y-93235421D01*
X115116762Y-93235418D01*
X114966041Y-93098019D01*
X114966039Y-93098017D01*
X114792642Y-92990655D01*
X114792635Y-92990651D01*
X114666769Y-92941891D01*
X114602456Y-92916976D01*
X114401976Y-92879500D01*
X114198024Y-92879500D01*
X113997544Y-92916976D01*
X113997541Y-92916976D01*
X113997541Y-92916977D01*
X113807364Y-92990651D01*
X113807357Y-92990655D01*
X113633960Y-93098017D01*
X113633958Y-93098019D01*
X113483237Y-93235418D01*
X113360327Y-93398178D01*
X113269422Y-93580739D01*
X113269417Y-93580752D01*
X113213602Y-93776917D01*
X113194785Y-93979999D01*
X113194785Y-93980000D01*
X112865215Y-93980000D01*
X112846397Y-93776917D01*
X112790582Y-93580750D01*
X112775274Y-93550008D01*
X112740415Y-93480000D01*
X112699673Y-93398179D01*
X112576764Y-93235421D01*
X112576762Y-93235418D01*
X112426041Y-93098019D01*
X112426039Y-93098017D01*
X112252642Y-92990655D01*
X112252635Y-92990651D01*
X112126769Y-92941891D01*
X112062456Y-92916976D01*
X111861976Y-92879500D01*
X111658024Y-92879500D01*
X111457544Y-92916976D01*
X111457541Y-92916976D01*
X111457541Y-92916977D01*
X111267364Y-92990651D01*
X111267357Y-92990655D01*
X111093960Y-93098017D01*
X111093958Y-93098019D01*
X110943237Y-93235418D01*
X110820327Y-93398178D01*
X110729422Y-93580739D01*
X110729417Y-93580752D01*
X110673602Y-93776917D01*
X110654785Y-93979999D01*
X110654785Y-93980000D01*
X110325215Y-93980000D01*
X110306397Y-93776917D01*
X110250582Y-93580750D01*
X110235274Y-93550008D01*
X110200415Y-93480000D01*
X110159673Y-93398179D01*
X110036764Y-93235421D01*
X110036762Y-93235418D01*
X109886041Y-93098019D01*
X109886039Y-93098017D01*
X109712642Y-92990655D01*
X109712635Y-92990651D01*
X109586769Y-92941891D01*
X109522456Y-92916976D01*
X109321976Y-92879500D01*
X109118024Y-92879500D01*
X108917544Y-92916976D01*
X108917541Y-92916976D01*
X108917541Y-92916977D01*
X108727364Y-92990651D01*
X108727357Y-92990655D01*
X108553960Y-93098017D01*
X108553958Y-93098019D01*
X108403237Y-93235418D01*
X108280327Y-93398178D01*
X108193182Y-93573188D01*
X108145679Y-93624425D01*
X108078016Y-93641846D01*
X108011676Y-93619920D01*
X107967721Y-93565609D01*
X107962407Y-93550008D01*
X107953434Y-93516518D01*
X107953429Y-93516507D01*
X107853600Y-93302422D01*
X107853599Y-93302420D01*
X107718113Y-93108926D01*
X107718108Y-93108920D01*
X107551082Y-92941894D01*
X107357578Y-92806399D01*
X107143492Y-92706570D01*
X107143486Y-92706567D01*
X106930000Y-92649364D01*
X106930000Y-93367698D01*
X106910315Y-93434737D01*
X106857511Y-93480492D01*
X106788355Y-93490436D01*
X106715766Y-93480000D01*
X106715763Y-93480000D01*
X106644237Y-93480000D01*
X106644233Y-93480000D01*
X106571644Y-93490436D01*
X106502486Y-93480492D01*
X106449683Y-93434736D01*
X106429999Y-93367698D01*
X106429999Y-92649364D01*
X106216513Y-92706567D01*
X106216507Y-92706570D01*
X106002422Y-92806399D01*
X106002420Y-92806400D01*
X105808926Y-92941886D01*
X105808920Y-92941891D01*
X105641891Y-93108920D01*
X105641886Y-93108926D01*
X105506400Y-93302420D01*
X105506399Y-93302422D01*
X105406570Y-93516507D01*
X105406568Y-93516511D01*
X105397592Y-93550011D01*
X105361226Y-93609671D01*
X105298379Y-93640199D01*
X105229003Y-93631904D01*
X105175126Y-93587418D01*
X105166817Y-93573188D01*
X105120415Y-93480000D01*
X105079673Y-93398179D01*
X104956764Y-93235421D01*
X104956762Y-93235418D01*
X104806041Y-93098019D01*
X104806039Y-93098017D01*
X104632642Y-92990655D01*
X104632635Y-92990651D01*
X104506769Y-92941891D01*
X104442456Y-92916976D01*
X104241976Y-92879500D01*
X104038024Y-92879500D01*
X103837544Y-92916976D01*
X103837541Y-92916976D01*
X103837541Y-92916977D01*
X103647364Y-92990651D01*
X103647357Y-92990655D01*
X103473960Y-93098017D01*
X103473958Y-93098019D01*
X103323237Y-93235418D01*
X103200327Y-93398178D01*
X103109422Y-93580739D01*
X103109417Y-93580752D01*
X103053602Y-93776917D01*
X103034785Y-93979999D01*
X103034785Y-93980000D01*
X103053602Y-94183082D01*
X103109417Y-94379247D01*
X103109424Y-94379265D01*
X103169638Y-94500191D01*
X103181899Y-94568976D01*
X103155026Y-94633471D01*
X103097550Y-94673198D01*
X103027719Y-94675545D01*
X102970957Y-94643143D01*
X102736819Y-94409005D01*
X102703334Y-94347682D01*
X102700500Y-94321324D01*
X102700500Y-93770156D01*
X102700500Y-93105326D01*
X102685966Y-93032260D01*
X102630601Y-92949399D01*
X102547740Y-92894034D01*
X102547739Y-92894033D01*
X102547735Y-92894032D01*
X102474677Y-92879500D01*
X102474674Y-92879500D01*
X100725326Y-92879500D01*
X100725323Y-92879500D01*
X100652264Y-92894032D01*
X100652260Y-92894033D01*
X100569399Y-92949399D01*
X100514033Y-93032260D01*
X100514032Y-93032264D01*
X100499500Y-93105321D01*
X100499500Y-94321323D01*
X100479815Y-94388362D01*
X100463181Y-94409004D01*
X99522181Y-95350004D01*
X99460858Y-95383489D01*
X99391166Y-95378505D01*
X99335233Y-95336633D01*
X99310816Y-95271169D01*
X99310500Y-95262323D01*
X99310500Y-91814500D01*
X99330185Y-91747461D01*
X99382989Y-91701706D01*
X99434500Y-91690500D01*
X152025500Y-91690500D01*
X152092539Y-91710185D01*
G37*
%TD.AperFunction*%
%TD*%
M02*
