%TF.GenerationSoftware,KiCad,Pcbnew,7.0.7*%
%TF.CreationDate,2023-11-13T21:49:10+01:00*%
%TF.ProjectId,STM32G474_Black-Pill_v3.0,53544d33-3247-4343-9734-5f426c61636b,A*%
%TF.SameCoordinates,Original*%
%TF.FileFunction,Copper,L4,Bot*%
%TF.FilePolarity,Positive*%
%FSLAX46Y46*%
G04 Gerber Fmt 4.6, Leading zero omitted, Abs format (unit mm)*
G04 Created by KiCad (PCBNEW 7.0.7) date 2023-11-13 21:49:10*
%MOMM*%
%LPD*%
G01*
G04 APERTURE LIST*
G04 Aperture macros list*
%AMRoundRect*
0 Rectangle with rounded corners*
0 $1 Rounding radius*
0 $2 $3 $4 $5 $6 $7 $8 $9 X,Y pos of 4 corners*
0 Add a 4 corners polygon primitive as box body*
4,1,4,$2,$3,$4,$5,$6,$7,$8,$9,$2,$3,0*
0 Add four circle primitives for the rounded corners*
1,1,$1+$1,$2,$3*
1,1,$1+$1,$4,$5*
1,1,$1+$1,$6,$7*
1,1,$1+$1,$8,$9*
0 Add four rect primitives between the rounded corners*
20,1,$1+$1,$2,$3,$4,$5,0*
20,1,$1+$1,$4,$5,$6,$7,0*
20,1,$1+$1,$6,$7,$8,$9,0*
20,1,$1+$1,$8,$9,$2,$3,0*%
%AMFreePoly0*
4,1,19,0.550000,-0.750000,0.000000,-0.750000,0.000000,-0.744911,-0.071157,-0.744911,-0.207708,-0.704816,-0.327430,-0.627875,-0.420627,-0.520320,-0.479746,-0.390866,-0.500000,-0.250000,-0.500000,0.250000,-0.479746,0.390866,-0.420627,0.520320,-0.327430,0.627875,-0.207708,0.704816,-0.071157,0.744911,0.000000,0.744911,0.000000,0.750000,0.550000,0.750000,0.550000,-0.750000,0.550000,-0.750000,
$1*%
%AMFreePoly1*
4,1,19,0.000000,0.744911,0.071157,0.744911,0.207708,0.704816,0.327430,0.627875,0.420627,0.520320,0.479746,0.390866,0.500000,0.250000,0.500000,-0.250000,0.479746,-0.390866,0.420627,-0.520320,0.327430,-0.627875,0.207708,-0.704816,0.071157,-0.744911,0.000000,-0.744911,0.000000,-0.750000,-0.550000,-0.750000,-0.550000,0.750000,0.000000,0.750000,0.000000,0.744911,0.000000,0.744911,
$1*%
%AMFreePoly2*
4,1,19,0.500000,-0.750000,0.000000,-0.750000,0.000000,-0.744911,-0.071157,-0.744911,-0.207708,-0.704816,-0.327430,-0.627875,-0.420627,-0.520320,-0.479746,-0.390866,-0.500000,-0.250000,-0.500000,0.250000,-0.479746,0.390866,-0.420627,0.520320,-0.327430,0.627875,-0.207708,0.704816,-0.071157,0.744911,0.000000,0.744911,0.000000,0.750000,0.500000,0.750000,0.500000,-0.750000,0.500000,-0.750000,
$1*%
%AMFreePoly3*
4,1,19,0.000000,0.744911,0.071157,0.744911,0.207708,0.704816,0.327430,0.627875,0.420627,0.520320,0.479746,0.390866,0.500000,0.250000,0.500000,-0.250000,0.479746,-0.390866,0.420627,-0.520320,0.327430,-0.627875,0.207708,-0.704816,0.071157,-0.744911,0.000000,-0.744911,0.000000,-0.750000,-0.500000,-0.750000,-0.500000,0.750000,0.000000,0.750000,0.000000,0.744911,0.000000,0.744911,
$1*%
G04 Aperture macros list end*
%ADD10C,0.100000*%
%TA.AperFunction,NonConductor*%
%ADD11C,0.100000*%
%TD*%
%TA.AperFunction,ComponentPad*%
%ADD12R,1.700000X1.700000*%
%TD*%
%TA.AperFunction,ComponentPad*%
%ADD13O,1.700000X1.700000*%
%TD*%
%TA.AperFunction,ComponentPad*%
%ADD14O,2.100000X1.000000*%
%TD*%
%TA.AperFunction,ComponentPad*%
%ADD15O,1.800000X1.000000*%
%TD*%
%TA.AperFunction,SMDPad,CuDef*%
%ADD16RoundRect,0.150000X0.150000X-0.650000X0.150000X0.650000X-0.150000X0.650000X-0.150000X-0.650000X0*%
%TD*%
%TA.AperFunction,SMDPad,CuDef*%
%ADD17RoundRect,0.135000X-0.135000X-0.185000X0.135000X-0.185000X0.135000X0.185000X-0.135000X0.185000X0*%
%TD*%
%TA.AperFunction,SMDPad,CuDef*%
%ADD18RoundRect,0.140000X-0.170000X0.140000X-0.170000X-0.140000X0.170000X-0.140000X0.170000X0.140000X0*%
%TD*%
%TA.AperFunction,SMDPad,CuDef*%
%ADD19FreePoly0,270.000000*%
%TD*%
%TA.AperFunction,SMDPad,CuDef*%
%ADD20R,1.500000X1.000000*%
%TD*%
%TA.AperFunction,SMDPad,CuDef*%
%ADD21FreePoly1,270.000000*%
%TD*%
%TA.AperFunction,SMDPad,CuDef*%
%ADD22RoundRect,0.135000X0.135000X0.185000X-0.135000X0.185000X-0.135000X-0.185000X0.135000X-0.185000X0*%
%TD*%
%TA.AperFunction,SMDPad,CuDef*%
%ADD23FreePoly2,90.000000*%
%TD*%
%TA.AperFunction,SMDPad,CuDef*%
%ADD24FreePoly3,90.000000*%
%TD*%
%TA.AperFunction,ViaPad*%
%ADD25C,0.500000*%
%TD*%
%TA.AperFunction,Conductor*%
%ADD26C,0.500000*%
%TD*%
%TA.AperFunction,Conductor*%
%ADD27C,0.200000*%
%TD*%
G04 APERTURE END LIST*
D10*
D11*
X150778323Y-97428572D02*
X150797371Y-97485715D01*
X150797371Y-97485715D02*
X150816419Y-97504762D01*
X150816419Y-97504762D02*
X150854514Y-97523810D01*
X150854514Y-97523810D02*
X150911657Y-97523810D01*
X150911657Y-97523810D02*
X150949752Y-97504762D01*
X150949752Y-97504762D02*
X150968800Y-97485715D01*
X150968800Y-97485715D02*
X150987847Y-97447620D01*
X150987847Y-97447620D02*
X150987847Y-97295239D01*
X150987847Y-97295239D02*
X150587847Y-97295239D01*
X150587847Y-97295239D02*
X150587847Y-97428572D01*
X150587847Y-97428572D02*
X150606895Y-97466667D01*
X150606895Y-97466667D02*
X150625942Y-97485715D01*
X150625942Y-97485715D02*
X150664038Y-97504762D01*
X150664038Y-97504762D02*
X150702133Y-97504762D01*
X150702133Y-97504762D02*
X150740228Y-97485715D01*
X150740228Y-97485715D02*
X150759276Y-97466667D01*
X150759276Y-97466667D02*
X150778323Y-97428572D01*
X150778323Y-97428572D02*
X150778323Y-97295239D01*
X150987847Y-97752381D02*
X150968800Y-97714286D01*
X150968800Y-97714286D02*
X150930704Y-97695239D01*
X150930704Y-97695239D02*
X150587847Y-97695239D01*
X150987847Y-98076191D02*
X150778323Y-98076191D01*
X150778323Y-98076191D02*
X150740228Y-98057144D01*
X150740228Y-98057144D02*
X150721180Y-98019048D01*
X150721180Y-98019048D02*
X150721180Y-97942858D01*
X150721180Y-97942858D02*
X150740228Y-97904763D01*
X150968800Y-98076191D02*
X150987847Y-98038096D01*
X150987847Y-98038096D02*
X150987847Y-97942858D01*
X150987847Y-97942858D02*
X150968800Y-97904763D01*
X150968800Y-97904763D02*
X150930704Y-97885715D01*
X150930704Y-97885715D02*
X150892609Y-97885715D01*
X150892609Y-97885715D02*
X150854514Y-97904763D01*
X150854514Y-97904763D02*
X150835466Y-97942858D01*
X150835466Y-97942858D02*
X150835466Y-98038096D01*
X150835466Y-98038096D02*
X150816419Y-98076191D01*
X150968800Y-98438096D02*
X150987847Y-98400001D01*
X150987847Y-98400001D02*
X150987847Y-98323810D01*
X150987847Y-98323810D02*
X150968800Y-98285715D01*
X150968800Y-98285715D02*
X150949752Y-98266668D01*
X150949752Y-98266668D02*
X150911657Y-98247620D01*
X150911657Y-98247620D02*
X150797371Y-98247620D01*
X150797371Y-98247620D02*
X150759276Y-98266668D01*
X150759276Y-98266668D02*
X150740228Y-98285715D01*
X150740228Y-98285715D02*
X150721180Y-98323810D01*
X150721180Y-98323810D02*
X150721180Y-98400001D01*
X150721180Y-98400001D02*
X150740228Y-98438096D01*
X150987847Y-98609525D02*
X150587847Y-98609525D01*
X150835466Y-98647620D02*
X150987847Y-98761906D01*
X150721180Y-98761906D02*
X150873561Y-98609525D01*
X150987847Y-99238097D02*
X150587847Y-99238097D01*
X150587847Y-99238097D02*
X150587847Y-99390478D01*
X150587847Y-99390478D02*
X150606895Y-99428573D01*
X150606895Y-99428573D02*
X150625942Y-99447620D01*
X150625942Y-99447620D02*
X150664038Y-99466668D01*
X150664038Y-99466668D02*
X150721180Y-99466668D01*
X150721180Y-99466668D02*
X150759276Y-99447620D01*
X150759276Y-99447620D02*
X150778323Y-99428573D01*
X150778323Y-99428573D02*
X150797371Y-99390478D01*
X150797371Y-99390478D02*
X150797371Y-99238097D01*
X150987847Y-99638097D02*
X150721180Y-99638097D01*
X150587847Y-99638097D02*
X150606895Y-99619049D01*
X150606895Y-99619049D02*
X150625942Y-99638097D01*
X150625942Y-99638097D02*
X150606895Y-99657144D01*
X150606895Y-99657144D02*
X150587847Y-99638097D01*
X150587847Y-99638097D02*
X150625942Y-99638097D01*
X150987847Y-99885715D02*
X150968800Y-99847620D01*
X150968800Y-99847620D02*
X150930704Y-99828573D01*
X150930704Y-99828573D02*
X150587847Y-99828573D01*
X150987847Y-100095239D02*
X150968800Y-100057144D01*
X150968800Y-100057144D02*
X150930704Y-100038097D01*
X150930704Y-100038097D02*
X150587847Y-100038097D01*
X150721180Y-100514287D02*
X150987847Y-100609525D01*
X150987847Y-100609525D02*
X150721180Y-100704764D01*
X150587847Y-100819049D02*
X150587847Y-101066668D01*
X150587847Y-101066668D02*
X150740228Y-100933335D01*
X150740228Y-100933335D02*
X150740228Y-100990478D01*
X150740228Y-100990478D02*
X150759276Y-101028573D01*
X150759276Y-101028573D02*
X150778323Y-101047621D01*
X150778323Y-101047621D02*
X150816419Y-101066668D01*
X150816419Y-101066668D02*
X150911657Y-101066668D01*
X150911657Y-101066668D02*
X150949752Y-101047621D01*
X150949752Y-101047621D02*
X150968800Y-101028573D01*
X150968800Y-101028573D02*
X150987847Y-100990478D01*
X150987847Y-100990478D02*
X150987847Y-100876192D01*
X150987847Y-100876192D02*
X150968800Y-100838097D01*
X150968800Y-100838097D02*
X150949752Y-100819049D01*
X150949752Y-101238097D02*
X150968800Y-101257144D01*
X150968800Y-101257144D02*
X150987847Y-101238097D01*
X150987847Y-101238097D02*
X150968800Y-101219049D01*
X150968800Y-101219049D02*
X150949752Y-101238097D01*
X150949752Y-101238097D02*
X150987847Y-101238097D01*
X150587847Y-101504763D02*
X150587847Y-101542858D01*
X150587847Y-101542858D02*
X150606895Y-101580954D01*
X150606895Y-101580954D02*
X150625942Y-101600001D01*
X150625942Y-101600001D02*
X150664038Y-101619049D01*
X150664038Y-101619049D02*
X150740228Y-101638096D01*
X150740228Y-101638096D02*
X150835466Y-101638096D01*
X150835466Y-101638096D02*
X150911657Y-101619049D01*
X150911657Y-101619049D02*
X150949752Y-101600001D01*
X150949752Y-101600001D02*
X150968800Y-101580954D01*
X150968800Y-101580954D02*
X150987847Y-101542858D01*
X150987847Y-101542858D02*
X150987847Y-101504763D01*
X150987847Y-101504763D02*
X150968800Y-101466668D01*
X150968800Y-101466668D02*
X150949752Y-101447620D01*
X150949752Y-101447620D02*
X150911657Y-101428573D01*
X150911657Y-101428573D02*
X150835466Y-101409525D01*
X150835466Y-101409525D02*
X150740228Y-101409525D01*
X150740228Y-101409525D02*
X150664038Y-101428573D01*
X150664038Y-101428573D02*
X150625942Y-101447620D01*
X150625942Y-101447620D02*
X150606895Y-101466668D01*
X150606895Y-101466668D02*
X150587847Y-101504763D01*
X151140228Y-102228572D02*
X151121180Y-102209525D01*
X151121180Y-102209525D02*
X151064038Y-102171429D01*
X151064038Y-102171429D02*
X151025942Y-102152382D01*
X151025942Y-102152382D02*
X150968800Y-102133334D01*
X150968800Y-102133334D02*
X150873561Y-102114287D01*
X150873561Y-102114287D02*
X150797371Y-102114287D01*
X150797371Y-102114287D02*
X150702133Y-102133334D01*
X150702133Y-102133334D02*
X150644990Y-102152382D01*
X150644990Y-102152382D02*
X150606895Y-102171429D01*
X150606895Y-102171429D02*
X150549752Y-102209525D01*
X150549752Y-102209525D02*
X150530704Y-102228572D01*
X150968800Y-102361906D02*
X150987847Y-102419049D01*
X150987847Y-102419049D02*
X150987847Y-102514287D01*
X150987847Y-102514287D02*
X150968800Y-102552382D01*
X150968800Y-102552382D02*
X150949752Y-102571430D01*
X150949752Y-102571430D02*
X150911657Y-102590477D01*
X150911657Y-102590477D02*
X150873561Y-102590477D01*
X150873561Y-102590477D02*
X150835466Y-102571430D01*
X150835466Y-102571430D02*
X150816419Y-102552382D01*
X150816419Y-102552382D02*
X150797371Y-102514287D01*
X150797371Y-102514287D02*
X150778323Y-102438096D01*
X150778323Y-102438096D02*
X150759276Y-102400001D01*
X150759276Y-102400001D02*
X150740228Y-102380954D01*
X150740228Y-102380954D02*
X150702133Y-102361906D01*
X150702133Y-102361906D02*
X150664038Y-102361906D01*
X150664038Y-102361906D02*
X150625942Y-102380954D01*
X150625942Y-102380954D02*
X150606895Y-102400001D01*
X150606895Y-102400001D02*
X150587847Y-102438096D01*
X150587847Y-102438096D02*
X150587847Y-102533335D01*
X150587847Y-102533335D02*
X150606895Y-102590477D01*
X150587847Y-102704763D02*
X150587847Y-102933334D01*
X150987847Y-102819048D02*
X150587847Y-102819048D01*
X150987847Y-103066668D02*
X150587847Y-103066668D01*
X150587847Y-103066668D02*
X150873561Y-103200001D01*
X150873561Y-103200001D02*
X150587847Y-103333334D01*
X150587847Y-103333334D02*
X150987847Y-103333334D01*
X150587847Y-103485715D02*
X150587847Y-103733334D01*
X150587847Y-103733334D02*
X150740228Y-103600001D01*
X150740228Y-103600001D02*
X150740228Y-103657144D01*
X150740228Y-103657144D02*
X150759276Y-103695239D01*
X150759276Y-103695239D02*
X150778323Y-103714287D01*
X150778323Y-103714287D02*
X150816419Y-103733334D01*
X150816419Y-103733334D02*
X150911657Y-103733334D01*
X150911657Y-103733334D02*
X150949752Y-103714287D01*
X150949752Y-103714287D02*
X150968800Y-103695239D01*
X150968800Y-103695239D02*
X150987847Y-103657144D01*
X150987847Y-103657144D02*
X150987847Y-103542858D01*
X150987847Y-103542858D02*
X150968800Y-103504763D01*
X150968800Y-103504763D02*
X150949752Y-103485715D01*
X150625942Y-103885715D02*
X150606895Y-103904763D01*
X150606895Y-103904763D02*
X150587847Y-103942858D01*
X150587847Y-103942858D02*
X150587847Y-104038096D01*
X150587847Y-104038096D02*
X150606895Y-104076191D01*
X150606895Y-104076191D02*
X150625942Y-104095239D01*
X150625942Y-104095239D02*
X150664038Y-104114286D01*
X150664038Y-104114286D02*
X150702133Y-104114286D01*
X150702133Y-104114286D02*
X150759276Y-104095239D01*
X150759276Y-104095239D02*
X150987847Y-103866667D01*
X150987847Y-103866667D02*
X150987847Y-104114286D01*
X150606895Y-104495238D02*
X150587847Y-104457143D01*
X150587847Y-104457143D02*
X150587847Y-104400000D01*
X150587847Y-104400000D02*
X150606895Y-104342857D01*
X150606895Y-104342857D02*
X150644990Y-104304762D01*
X150644990Y-104304762D02*
X150683085Y-104285715D01*
X150683085Y-104285715D02*
X150759276Y-104266667D01*
X150759276Y-104266667D02*
X150816419Y-104266667D01*
X150816419Y-104266667D02*
X150892609Y-104285715D01*
X150892609Y-104285715D02*
X150930704Y-104304762D01*
X150930704Y-104304762D02*
X150968800Y-104342857D01*
X150968800Y-104342857D02*
X150987847Y-104400000D01*
X150987847Y-104400000D02*
X150987847Y-104438096D01*
X150987847Y-104438096D02*
X150968800Y-104495238D01*
X150968800Y-104495238D02*
X150949752Y-104514286D01*
X150949752Y-104514286D02*
X150816419Y-104514286D01*
X150816419Y-104514286D02*
X150816419Y-104438096D01*
X150721180Y-104857143D02*
X150987847Y-104857143D01*
X150568800Y-104761905D02*
X150854514Y-104666667D01*
X150854514Y-104666667D02*
X150854514Y-104914286D01*
X150587847Y-105028571D02*
X150587847Y-105295238D01*
X150587847Y-105295238D02*
X150987847Y-105123809D01*
X150721180Y-105619047D02*
X150987847Y-105619047D01*
X150568800Y-105523809D02*
X150854514Y-105428571D01*
X150854514Y-105428571D02*
X150854514Y-105676190D01*
X151140228Y-105790475D02*
X151121180Y-105809523D01*
X151121180Y-105809523D02*
X151064038Y-105847618D01*
X151064038Y-105847618D02*
X151025942Y-105866666D01*
X151025942Y-105866666D02*
X150968800Y-105885713D01*
X150968800Y-105885713D02*
X150873561Y-105904761D01*
X150873561Y-105904761D02*
X150797371Y-105904761D01*
X150797371Y-105904761D02*
X150702133Y-105885713D01*
X150702133Y-105885713D02*
X150644990Y-105866666D01*
X150644990Y-105866666D02*
X150606895Y-105847618D01*
X150606895Y-105847618D02*
X150549752Y-105809523D01*
X150549752Y-105809523D02*
X150530704Y-105790475D01*
X151631847Y-100980952D02*
X151441371Y-100847619D01*
X151631847Y-100752381D02*
X151231847Y-100752381D01*
X151231847Y-100752381D02*
X151231847Y-100904762D01*
X151231847Y-100904762D02*
X151250895Y-100942857D01*
X151250895Y-100942857D02*
X151269942Y-100961904D01*
X151269942Y-100961904D02*
X151308038Y-100980952D01*
X151308038Y-100980952D02*
X151365180Y-100980952D01*
X151365180Y-100980952D02*
X151403276Y-100961904D01*
X151403276Y-100961904D02*
X151422323Y-100942857D01*
X151422323Y-100942857D02*
X151441371Y-100904762D01*
X151441371Y-100904762D02*
X151441371Y-100752381D01*
X151612800Y-101304762D02*
X151631847Y-101266666D01*
X151631847Y-101266666D02*
X151631847Y-101190476D01*
X151631847Y-101190476D02*
X151612800Y-101152381D01*
X151612800Y-101152381D02*
X151574704Y-101133333D01*
X151574704Y-101133333D02*
X151422323Y-101133333D01*
X151422323Y-101133333D02*
X151384228Y-101152381D01*
X151384228Y-101152381D02*
X151365180Y-101190476D01*
X151365180Y-101190476D02*
X151365180Y-101266666D01*
X151365180Y-101266666D02*
X151384228Y-101304762D01*
X151384228Y-101304762D02*
X151422323Y-101323809D01*
X151422323Y-101323809D02*
X151460419Y-101323809D01*
X151460419Y-101323809D02*
X151498514Y-101133333D01*
X151365180Y-101457142D02*
X151631847Y-101552380D01*
X151631847Y-101552380D02*
X151365180Y-101647619D01*
X151593752Y-101800000D02*
X151612800Y-101819047D01*
X151612800Y-101819047D02*
X151631847Y-101800000D01*
X151631847Y-101800000D02*
X151612800Y-101780952D01*
X151612800Y-101780952D02*
X151593752Y-101800000D01*
X151593752Y-101800000D02*
X151631847Y-101800000D01*
X151384228Y-101800000D02*
X151403276Y-101819047D01*
X151403276Y-101819047D02*
X151422323Y-101800000D01*
X151422323Y-101800000D02*
X151403276Y-101780952D01*
X151403276Y-101780952D02*
X151384228Y-101800000D01*
X151384228Y-101800000D02*
X151422323Y-101800000D01*
X151517561Y-102276190D02*
X151517561Y-102466666D01*
X151631847Y-102238095D02*
X151231847Y-102371428D01*
X151231847Y-102371428D02*
X151631847Y-102504761D01*
%TA.AperFunction,EtchedComponent*%
%TO.C,JP101*%
G36*
X143302000Y-97898000D02*
G01*
X142702000Y-97898000D01*
X142702000Y-97398000D01*
X143302000Y-97398000D01*
X143302000Y-97898000D01*
G37*
%TD.AperFunction*%
%TA.AperFunction,EtchedComponent*%
%TO.C,JP102*%
G36*
X143302000Y-104502000D02*
G01*
X142702000Y-104502000D01*
X142702000Y-104002000D01*
X143302000Y-104002000D01*
X143302000Y-104502000D01*
G37*
%TD.AperFunction*%
%TA.AperFunction,EtchedComponent*%
%TO.C,JP103*%
G36*
X140635000Y-102104000D02*
G01*
X140035000Y-102104000D01*
X140035000Y-101604000D01*
X140635000Y-101604000D01*
X140635000Y-102104000D01*
G37*
%TD.AperFunction*%
%TD*%
D12*
%TO.P,J104,1,Pin_1*%
%TO.N,+3.3V*%
X148285000Y-97800000D03*
D13*
%TO.P,J104,2,Pin_2*%
%TO.N,/SWDIO*%
X148285000Y-100340000D03*
%TO.P,J104,3,Pin_3*%
%TO.N,/SWCLK*%
X148285000Y-102880000D03*
%TO.P,J104,4,Pin_4*%
%TO.N,GND*%
X148285000Y-105420000D03*
%TD*%
D14*
%TO.P,J101,S1,SHIELD*%
%TO.N,GND*%
X105840000Y-97280000D03*
D15*
X101660000Y-97280000D03*
D14*
X105840000Y-105920000D03*
D15*
X101660000Y-105920000D03*
%TD*%
D16*
%TO.P,U101,1,~{CS}*%
%TO.N,/PA4*%
X116205000Y-105200000D03*
%TO.P,U101,2,DO(IO1)*%
%TO.N,/PB4*%
X114935000Y-105200000D03*
%TO.P,U101,3,IO2*%
%TO.N,+3.3V*%
X113665000Y-105200000D03*
%TO.P,U101,4,GND*%
%TO.N,GND*%
X112395000Y-105200000D03*
%TO.P,U101,5,DI(IO0)*%
%TO.N,/PA7*%
X112395000Y-98000000D03*
%TO.P,U101,6,CLK*%
%TO.N,/PA5*%
X113665000Y-98000000D03*
%TO.P,U101,7,IO3*%
%TO.N,+3.3V*%
X114935000Y-98000000D03*
%TO.P,U101,8,VCC*%
X116205000Y-98000000D03*
%TD*%
D17*
%TO.P,R105,1*%
%TO.N,Net-(J101-D+-PadA6)*%
X105916000Y-102108000D03*
%TO.P,R105,2*%
%TO.N,/PA12*%
X106936000Y-102108000D03*
%TD*%
%TO.P,R104,1*%
%TO.N,Net-(J101-D--PadA7)*%
X105916000Y-101092000D03*
%TO.P,R104,2*%
%TO.N,/PA11*%
X106936000Y-101092000D03*
%TD*%
D18*
%TO.P,C101,1*%
%TO.N,+3.3V*%
X110871000Y-104295000D03*
%TO.P,C101,2*%
%TO.N,GND*%
X110871000Y-105255000D03*
%TD*%
D12*
%TO.P,J102,1,Pin_1*%
%TO.N,/PB12*%
X101600000Y-109220000D03*
D13*
%TO.P,J102,2,Pin_2*%
%TO.N,/PB13*%
X104140000Y-109220000D03*
%TO.P,J102,3,Pin_3*%
%TO.N,/PB14*%
X106680000Y-109220000D03*
%TO.P,J102,4,Pin_4*%
%TO.N,/PB15*%
X109220000Y-109220000D03*
%TO.P,J102,5,Pin_5*%
%TO.N,/PA8*%
X111760000Y-109220000D03*
%TO.P,J102,6,Pin_6*%
%TO.N,/PA9*%
X114300000Y-109220000D03*
%TO.P,J102,7,Pin_7*%
%TO.N,/PA10*%
X116840000Y-109220000D03*
%TO.P,J102,8,Pin_8*%
%TO.N,/PA11*%
X119380000Y-109220000D03*
%TO.P,J102,9,Pin_9*%
%TO.N,/PA12*%
X121920000Y-109220000D03*
%TO.P,J102,10,Pin_10*%
%TO.N,/PA15*%
X124460000Y-109220000D03*
%TO.P,J102,11,Pin_11*%
%TO.N,/PB3*%
X127000000Y-109220000D03*
%TO.P,J102,12,Pin_12*%
%TO.N,/PB4*%
X129540000Y-109220000D03*
%TO.P,J102,13,Pin_13*%
%TO.N,/PB5*%
X132080000Y-109220000D03*
%TO.P,J102,14,Pin_14*%
%TO.N,/PB6*%
X134620000Y-109220000D03*
%TO.P,J102,15,Pin_15*%
%TO.N,/PB7*%
X137160000Y-109220000D03*
%TO.P,J102,16,Pin_16*%
%TO.N,/PB11*%
X139700000Y-109220000D03*
%TO.P,J102,17,Pin_17*%
%TO.N,/PB9*%
X142240000Y-109220000D03*
%TO.P,J102,18,Pin_18*%
%TO.N,+5V*%
X144780000Y-109220000D03*
%TO.P,J102,19,Pin_19*%
%TO.N,GND*%
X147320000Y-109220000D03*
%TO.P,J102,20,Pin_20*%
%TO.N,+3.3V*%
X149860000Y-109220000D03*
%TD*%
D19*
%TO.P,JP101,1,A*%
%TO.N,/PC4*%
X143002000Y-96998000D03*
D20*
%TO.P,JP101,2,C*%
%TO.N,/Pin17*%
X143002000Y-98298000D03*
D21*
%TO.P,JP101,3,B*%
%TO.N,/PC10*%
X143002000Y-99598000D03*
%TD*%
D22*
%TO.P,R102,1*%
%TO.N,Net-(J101-CC2)*%
X104142000Y-103124000D03*
%TO.P,R102,2*%
%TO.N,GND*%
X103122000Y-103124000D03*
%TD*%
D19*
%TO.P,JP102,1,A*%
%TO.N,/PC6*%
X143002000Y-103602000D03*
D20*
%TO.P,JP102,2,C*%
%TO.N,/Pin18*%
X143002000Y-104902000D03*
D21*
%TO.P,JP102,3,B*%
%TO.N,/PC11*%
X143002000Y-106202000D03*
%TD*%
D12*
%TO.P,J103,1,Pin_1*%
%TO.N,+5V*%
X101600000Y-93980000D03*
D13*
%TO.P,J103,2,Pin_2*%
%TO.N,GND*%
X104140000Y-93980000D03*
%TO.P,J103,3,Pin_3*%
%TO.N,+3.3V*%
X106680000Y-93980000D03*
%TO.P,J103,4,Pin_4*%
%TO.N,/PB10*%
X109220000Y-93980000D03*
%TO.P,J103,5,Pin_5*%
%TO.N,/PB2*%
X111760000Y-93980000D03*
%TO.P,J103,6,Pin_6*%
%TO.N,/PB1*%
X114300000Y-93980000D03*
%TO.P,J103,7,Pin_7*%
%TO.N,/PB0*%
X116840000Y-93980000D03*
%TO.P,J103,8,Pin_8*%
%TO.N,/PA7*%
X119380000Y-93980000D03*
%TO.P,J103,9,Pin_9*%
%TO.N,/PA6*%
X121920000Y-93980000D03*
%TO.P,J103,10,Pin_10*%
%TO.N,/PA5*%
X124460000Y-93980000D03*
%TO.P,J103,11,Pin_11*%
%TO.N,/PA4*%
X127000000Y-93980000D03*
%TO.P,J103,12,Pin_12*%
%TO.N,/PA3*%
X129540000Y-93980000D03*
%TO.P,J103,13,Pin_13*%
%TO.N,/PA2*%
X132080000Y-93980000D03*
%TO.P,J103,14,Pin_14*%
%TO.N,/PA1*%
X134620000Y-93980000D03*
%TO.P,J103,15,Pin_15*%
%TO.N,/PA0*%
X137160000Y-93980000D03*
%TO.P,J103,16,Pin_16*%
%TO.N,NRST*%
X139700000Y-93980000D03*
%TO.P,J103,17,Pin_17*%
%TO.N,/Pin17*%
X142240000Y-93980000D03*
%TO.P,J103,18,Pin_18*%
%TO.N,/Pin18*%
X144780000Y-93980000D03*
%TO.P,J103,19,Pin_19*%
%TO.N,/PC13*%
X147320000Y-93980000D03*
%TO.P,J103,20,Pin_20*%
%TO.N,VB*%
X149860000Y-93980000D03*
%TD*%
D22*
%TO.P,R101,1*%
%TO.N,Net-(J101-CC1)*%
X104142000Y-100076000D03*
%TO.P,R101,2*%
%TO.N,GND*%
X103122000Y-100076000D03*
%TD*%
D23*
%TO.P,JP103,1,A*%
%TO.N,/+3.3V_{MCU}*%
X140335000Y-102504000D03*
D24*
%TO.P,JP103,2,B*%
%TO.N,+3.3V*%
X140335000Y-101204000D03*
%TD*%
D25*
%TO.N,+3.3V*%
X113919000Y-101346000D03*
X110998000Y-103632000D03*
X138811000Y-101346000D03*
X115316000Y-96774000D03*
X108524000Y-95316000D03*
X117153000Y-105342000D03*
X118745000Y-102362000D03*
%TO.N,GND*%
X114681000Y-101854000D03*
X132207000Y-97663000D03*
X110109000Y-102489000D03*
X133350000Y-104013000D03*
X125730000Y-104140000D03*
X133413500Y-101790500D03*
X141704000Y-100556000D03*
X110998000Y-97536000D03*
X120396000Y-99314000D03*
X124460000Y-102870000D03*
X123190000Y-101600000D03*
X117983000Y-100838000D03*
X125730000Y-100330000D03*
X123190000Y-107823000D03*
X124460000Y-100330000D03*
X141351000Y-106426000D03*
X125730000Y-99060000D03*
X145542000Y-102235000D03*
X133731000Y-106235500D03*
X117602000Y-96647000D03*
X136144000Y-96647000D03*
X127000000Y-102743000D03*
X125730000Y-102743000D03*
X125730000Y-101600000D03*
X129766000Y-97056000D03*
X132235000Y-98580000D03*
X124460000Y-101600000D03*
X131380139Y-101679033D03*
X110109000Y-103632000D03*
X127000000Y-101600000D03*
X127000000Y-100330000D03*
X110109000Y-97282000D03*
X128270000Y-101600000D03*
X116713000Y-96647000D03*
%TO.N,NRST*%
X128905000Y-96647000D03*
X114300000Y-100008000D03*
%TO.N,VBAT*%
X130556000Y-101473000D03*
X139855000Y-99596000D03*
%TO.N,+5V*%
X109474000Y-98879076D03*
%TO.N,/PC13*%
X131122378Y-100838000D03*
X137922000Y-100838000D03*
%TO.N,Net-(J101-CC1)*%
X104902000Y-100076000D03*
%TO.N,Net-(J101-D+-PadA6)*%
X104902000Y-102108000D03*
%TO.N,Net-(J101-D--PadA7)*%
X104902000Y-101092000D03*
%TO.N,Net-(J101-CC2)*%
X104902000Y-103124000D03*
%TO.N,/PB11*%
X117729000Y-103759000D03*
%TO.N,/PC6*%
X121920000Y-104349339D03*
%TO.N,/PC4*%
X123311884Y-97414116D03*
%TO.N,/SWDIO*%
X125256311Y-107026689D03*
%TO.N,/SWCLK*%
X125857000Y-106426000D03*
%TO.N,/PC10*%
X127635000Y-106172000D03*
X138176000Y-104140000D03*
X138176000Y-106172000D03*
%TO.N,/PC11*%
X127319503Y-106960744D03*
%TO.N,/PB8*%
X131318000Y-105791000D03*
X114300000Y-103192000D03*
%TO.N,/+3.3V_{MCU}*%
X131545386Y-103478386D03*
X119606000Y-101600000D03*
X124460000Y-107569000D03*
X137160000Y-102489000D03*
%TD*%
D26*
%TO.N,+3.3V*%
X110998000Y-104168000D02*
X110871000Y-104295000D01*
X110899000Y-104267000D02*
X111679472Y-104267000D01*
X140193000Y-101346000D02*
X140335000Y-101204000D01*
X111996472Y-103950000D02*
X112920528Y-103950000D01*
X112920528Y-103950000D02*
X113665000Y-104694472D01*
X110871000Y-104295000D02*
X110899000Y-104267000D01*
X111679472Y-104267000D02*
X111996472Y-103950000D01*
X138811000Y-101346000D02*
X140193000Y-101346000D01*
X110998000Y-103632000D02*
X110998000Y-104168000D01*
X113665000Y-104694472D02*
X113665000Y-105073000D01*
%TO.N,GND*%
X110871000Y-105255000D02*
X112340000Y-105255000D01*
X112340000Y-105128000D02*
X112395000Y-105073000D01*
D27*
%TO.N,NRST*%
X129667000Y-95885000D02*
X137795000Y-95885000D01*
X137795000Y-95885000D02*
X139700000Y-93980000D01*
X115107716Y-95930000D02*
X114890000Y-95930000D01*
X114300000Y-96520000D02*
X114300000Y-100008000D01*
X128188000Y-95930000D02*
X116032284Y-95930000D01*
X115114716Y-95923000D02*
X115107716Y-95930000D01*
X114890000Y-95930000D02*
X114300000Y-96520000D01*
X128905000Y-96647000D02*
X129667000Y-95885000D01*
X116032284Y-95930000D02*
X116025282Y-95923000D01*
X116025282Y-95923000D02*
X115114716Y-95923000D01*
X128905000Y-96647000D02*
X128188000Y-95930000D01*
D26*
%TO.N,VBAT*%
X139855000Y-99596000D02*
X139463000Y-99988000D01*
X130272378Y-101189378D02*
X130556000Y-101473000D01*
X130272378Y-100485918D02*
X130272378Y-101189378D01*
X130770296Y-99988000D02*
X130272378Y-100485918D01*
X139463000Y-99988000D02*
X130770296Y-99988000D01*
D27*
%TO.N,/PC13*%
X137922000Y-100838000D02*
X131122378Y-100838000D01*
%TO.N,Net-(J101-CC1)*%
X104902000Y-100076000D02*
X104142000Y-100076000D01*
%TO.N,Net-(J101-D+-PadA6)*%
X105916000Y-102108000D02*
X104902000Y-102108000D01*
%TO.N,Net-(J101-D--PadA7)*%
X105916000Y-101092000D02*
X104902000Y-101092000D01*
%TO.N,Net-(J101-CC2)*%
X104902000Y-103124000D02*
X104142000Y-103124000D01*
%TO.N,/PB4*%
X123190000Y-109576346D02*
X123983654Y-110370000D01*
X120904000Y-106553000D02*
X123190000Y-108839000D01*
X123983654Y-110370000D02*
X128390000Y-110370000D01*
X123190000Y-108839000D02*
X123190000Y-109576346D01*
X114935000Y-105073000D02*
X114935000Y-106172000D01*
X128390000Y-110370000D02*
X129540000Y-109220000D01*
X115316000Y-106553000D02*
X120904000Y-106553000D01*
X114935000Y-106172000D02*
X115316000Y-106553000D01*
%TO.N,/PC6*%
X121920000Y-104349339D02*
X122472661Y-104902000D01*
X122472661Y-104902000D02*
X140716000Y-104902000D01*
X140716000Y-104902000D02*
X142016000Y-103602000D01*
X142016000Y-103602000D02*
X143002000Y-103602000D01*
%TO.N,/PA4*%
X111746975Y-97168025D02*
X111768654Y-97189704D01*
X111746975Y-95840339D02*
X111746975Y-97168025D01*
X111768654Y-101735654D02*
X114046000Y-104013000D01*
X112910000Y-94677314D02*
X111746975Y-95840339D01*
X125850000Y-92830000D02*
X113823654Y-92830000D01*
X114046000Y-104013000D02*
X115951000Y-104013000D01*
X127000000Y-93980000D02*
X125850000Y-92830000D01*
X113823654Y-92830000D02*
X112910000Y-93743654D01*
X116205000Y-104267000D02*
X116205000Y-105200000D01*
X115951000Y-104013000D02*
X116205000Y-104267000D01*
X112910000Y-93743654D02*
X112910000Y-94677314D01*
X111768654Y-97189704D02*
X111768654Y-101735654D01*
%TO.N,/PA5*%
X114274000Y-95530000D02*
X114942031Y-95530000D01*
X113665000Y-98127000D02*
X113665000Y-96139000D01*
X122910000Y-95530000D02*
X124460000Y-93980000D01*
X114942031Y-95530000D02*
X114949031Y-95523000D01*
X116197969Y-95530000D02*
X122910000Y-95530000D01*
X116190968Y-95523000D02*
X116197969Y-95530000D01*
X114949031Y-95523000D02*
X116190968Y-95523000D01*
X113665000Y-96139000D02*
X114274000Y-95530000D01*
%TO.N,/PA7*%
X112395000Y-95758000D02*
X112395000Y-98127000D01*
X114776346Y-95130000D02*
X113023000Y-95130000D01*
X114783346Y-95123000D02*
X114776346Y-95130000D01*
X118230000Y-95130000D02*
X116363654Y-95130000D01*
X116363654Y-95130000D02*
X116356654Y-95123000D01*
X113023000Y-95130000D02*
X112395000Y-95758000D01*
X116356654Y-95123000D02*
X114783346Y-95123000D01*
X119380000Y-93980000D02*
X118230000Y-95130000D01*
%TO.N,/PC4*%
X140238000Y-96998000D02*
X143002000Y-96998000D01*
X123311884Y-97414116D02*
X126497116Y-97414116D01*
X137922000Y-99314000D02*
X140238000Y-96998000D01*
X126497116Y-97414116D02*
X128397000Y-99314000D01*
X128397000Y-99314000D02*
X137922000Y-99314000D01*
%TO.N,/SWDIO*%
X125256311Y-107026689D02*
X126299622Y-108070000D01*
X126299622Y-108070000D02*
X148470000Y-108070000D01*
X148470000Y-108070000D02*
X149860000Y-106680000D01*
X149860000Y-101915000D02*
X148285000Y-100340000D01*
X149860000Y-106680000D02*
X149860000Y-101915000D01*
%TO.N,/SWCLK*%
X125857000Y-106488191D02*
X127038809Y-107670000D01*
X127038809Y-107670000D02*
X148304314Y-107670000D01*
X148304314Y-107670000D02*
X149460000Y-106514314D01*
X149460000Y-106514314D02*
X149460000Y-104055000D01*
X125857000Y-106426000D02*
X125857000Y-106488191D01*
X149460000Y-104055000D02*
X148285000Y-102880000D01*
%TO.N,/PA11*%
X106936000Y-101092000D02*
X107425000Y-101092000D01*
X107552000Y-101652315D02*
X108966000Y-103066315D01*
X112409031Y-107677000D02*
X113650968Y-107677000D01*
X112402031Y-107670000D02*
X112409031Y-107677000D01*
X113650968Y-107677000D02*
X113657969Y-107670000D01*
X108966000Y-106495314D02*
X110140686Y-107670000D01*
X107552000Y-101219000D02*
X107552000Y-101652315D01*
X110140686Y-107670000D02*
X112402031Y-107670000D01*
X107425000Y-101092000D02*
X107552000Y-101219000D01*
X117829999Y-107670000D02*
X119380000Y-109220000D01*
X113657969Y-107670000D02*
X117829999Y-107670000D01*
X108966000Y-103066315D02*
X108966000Y-106495314D01*
%TO.N,/PA12*%
X106936000Y-102108000D02*
X107442000Y-102108000D01*
X108566000Y-106660999D02*
X109975000Y-108070000D01*
X107442000Y-102108000D02*
X108566000Y-103232000D01*
X113816654Y-108077000D02*
X113823654Y-108070000D01*
X118230000Y-109696346D02*
X118903654Y-110370000D01*
X109975000Y-108070000D02*
X112236346Y-108070000D01*
X114776346Y-108070000D02*
X114783346Y-108077000D01*
X108566000Y-103232000D02*
X108566000Y-106660999D01*
X114783346Y-108077000D02*
X116356654Y-108077000D01*
X117664314Y-108070000D02*
X118230000Y-108635686D01*
X112243346Y-108077000D02*
X113816654Y-108077000D01*
X118230000Y-108635686D02*
X118230000Y-109696346D01*
X118903654Y-110370000D02*
X120770000Y-110370000D01*
X120770000Y-110370000D02*
X121920000Y-109220000D01*
X113823654Y-108070000D02*
X114776346Y-108070000D01*
X116363654Y-108070000D02*
X117664314Y-108070000D01*
X112236346Y-108070000D02*
X112243346Y-108077000D01*
X116356654Y-108077000D02*
X116363654Y-108070000D01*
%TO.N,/Pin18*%
X143002000Y-104902000D02*
X143952000Y-104902000D01*
X143952000Y-104902000D02*
X144780000Y-104074000D01*
X144780000Y-104074000D02*
X144780000Y-93980000D01*
%TO.N,/Pin17*%
X142240000Y-93980000D02*
X144380000Y-96120000D01*
X144380000Y-97870000D02*
X143952000Y-98298000D01*
X144380000Y-96120000D02*
X144380000Y-97870000D01*
X143952000Y-98298000D02*
X143002000Y-98298000D01*
%TO.N,/PC10*%
X137539500Y-105535500D02*
X133250550Y-105535500D01*
X133250550Y-105535500D02*
X132295050Y-106491000D01*
X143002000Y-101981000D02*
X143002000Y-99598000D01*
X138176000Y-106172000D02*
X137539500Y-105535500D01*
X127954000Y-106491000D02*
X127635000Y-106172000D01*
X132295050Y-106491000D02*
X127954000Y-106491000D01*
X138176000Y-104140000D02*
X140843000Y-104140000D01*
X140843000Y-104140000D02*
X143002000Y-101981000D01*
%TO.N,/PC11*%
X127319503Y-106960744D02*
X127628759Y-107270000D01*
X127628759Y-107270000D02*
X142539000Y-107270000D01*
X143002000Y-106807000D02*
X143002000Y-106202000D01*
X142539000Y-107270000D02*
X143002000Y-106807000D01*
%TO.N,/PB8*%
X116146000Y-103192000D02*
X114300000Y-103192000D01*
X130999000Y-105472000D02*
X118426000Y-105472000D01*
X131318000Y-105791000D02*
X130999000Y-105472000D01*
X118426000Y-105472000D02*
X116146000Y-103192000D01*
D26*
%TO.N,/+3.3V_{MCU}*%
X137175000Y-102504000D02*
X140335000Y-102504000D01*
X137160000Y-102489000D02*
X137175000Y-102504000D01*
%TD*%
%TA.AperFunction,Conductor*%
%TO.N,GND*%
G36*
X152092539Y-91710185D02*
G01*
X152138294Y-91762989D01*
X152149500Y-91814500D01*
X152149500Y-96904289D01*
X152129815Y-96971328D01*
X152077011Y-97017083D01*
X152007853Y-97027027D01*
X151944297Y-96998002D01*
X151937819Y-96991970D01*
X151936468Y-96990619D01*
X150226083Y-96990619D01*
X150226083Y-101486038D01*
X150206398Y-101553077D01*
X150153594Y-101598832D01*
X150084436Y-101608776D01*
X150020880Y-101579751D01*
X150014402Y-101573719D01*
X149333577Y-100892894D01*
X149300092Y-100831571D01*
X149305076Y-100761879D01*
X149310252Y-100749951D01*
X149315582Y-100739250D01*
X149371397Y-100543083D01*
X149390215Y-100340000D01*
X149386284Y-100297582D01*
X149371397Y-100136917D01*
X149361223Y-100101161D01*
X149315582Y-99940750D01*
X149304870Y-99919238D01*
X149248558Y-99806147D01*
X149224673Y-99758179D01*
X149153930Y-99664500D01*
X149101762Y-99595418D01*
X148951041Y-99458019D01*
X148951039Y-99458017D01*
X148777642Y-99350655D01*
X148777635Y-99350651D01*
X148666563Y-99307622D01*
X148587456Y-99276976D01*
X148386976Y-99239500D01*
X148183024Y-99239500D01*
X147982544Y-99276976D01*
X147982541Y-99276976D01*
X147982541Y-99276977D01*
X147792364Y-99350651D01*
X147792357Y-99350655D01*
X147618960Y-99458017D01*
X147618958Y-99458019D01*
X147468237Y-99595418D01*
X147345327Y-99758178D01*
X147254422Y-99940739D01*
X147254417Y-99940752D01*
X147198602Y-100136917D01*
X147179785Y-100339999D01*
X147179785Y-100340000D01*
X147198602Y-100543082D01*
X147254417Y-100739247D01*
X147254421Y-100739257D01*
X147345327Y-100921821D01*
X147468237Y-101084581D01*
X147618958Y-101221980D01*
X147618960Y-101221982D01*
X147662212Y-101248762D01*
X147792363Y-101329348D01*
X147982544Y-101403024D01*
X148183024Y-101440500D01*
X148183026Y-101440500D01*
X148386974Y-101440500D01*
X148386976Y-101440500D01*
X148587456Y-101403024D01*
X148703037Y-101358247D01*
X148772658Y-101352385D01*
X148834399Y-101385094D01*
X148835511Y-101386193D01*
X149473181Y-102023863D01*
X149506666Y-102085186D01*
X149509500Y-102111544D01*
X149509500Y-102342973D01*
X149489815Y-102410012D01*
X149437011Y-102455767D01*
X149367853Y-102465711D01*
X149304297Y-102436686D01*
X149274500Y-102398245D01*
X149241632Y-102332237D01*
X149224673Y-102298179D01*
X149107568Y-102143107D01*
X149101762Y-102135418D01*
X148951041Y-101998019D01*
X148951039Y-101998017D01*
X148777642Y-101890655D01*
X148777635Y-101890651D01*
X148640339Y-101837463D01*
X148587456Y-101816976D01*
X148386976Y-101779500D01*
X148183024Y-101779500D01*
X147982544Y-101816976D01*
X147982541Y-101816976D01*
X147982541Y-101816977D01*
X147792364Y-101890651D01*
X147792357Y-101890655D01*
X147618960Y-101998017D01*
X147618958Y-101998019D01*
X147468237Y-102135418D01*
X147345327Y-102298178D01*
X147254422Y-102480739D01*
X147254417Y-102480752D01*
X147198602Y-102676917D01*
X147179785Y-102879999D01*
X147179785Y-102880000D01*
X147198602Y-103083082D01*
X147254417Y-103279247D01*
X147254422Y-103279260D01*
X147345327Y-103461821D01*
X147468237Y-103624581D01*
X147618958Y-103761980D01*
X147618960Y-103761982D01*
X147675988Y-103797292D01*
X147792363Y-103869348D01*
X147873283Y-103900696D01*
X147928685Y-103943269D01*
X147952276Y-104009035D01*
X147936565Y-104077116D01*
X147886542Y-104125895D01*
X147860586Y-104136097D01*
X147821519Y-104146565D01*
X147821507Y-104146570D01*
X147607422Y-104246399D01*
X147607420Y-104246400D01*
X147413926Y-104381886D01*
X147413920Y-104381891D01*
X147246891Y-104548920D01*
X147246886Y-104548926D01*
X147111400Y-104742420D01*
X147111399Y-104742422D01*
X147011570Y-104956507D01*
X147011567Y-104956513D01*
X146954364Y-105169999D01*
X146954364Y-105170000D01*
X147671653Y-105170000D01*
X147738692Y-105189685D01*
X147784447Y-105242489D01*
X147794391Y-105311647D01*
X147790631Y-105328933D01*
X147785000Y-105348111D01*
X147785000Y-105491888D01*
X147790631Y-105511067D01*
X147790630Y-105580936D01*
X147752855Y-105639714D01*
X147689299Y-105668738D01*
X147671653Y-105670000D01*
X146954364Y-105670000D01*
X147011567Y-105883486D01*
X147011570Y-105883492D01*
X147111399Y-106097578D01*
X147246894Y-106291082D01*
X147413917Y-106458105D01*
X147607421Y-106593600D01*
X147821507Y-106693429D01*
X147821516Y-106693433D01*
X148035000Y-106750634D01*
X148035000Y-106032301D01*
X148054685Y-105965262D01*
X148107489Y-105919507D01*
X148176647Y-105909563D01*
X148249237Y-105920000D01*
X148249238Y-105920000D01*
X148320762Y-105920000D01*
X148320763Y-105920000D01*
X148393353Y-105909563D01*
X148462512Y-105919507D01*
X148515315Y-105965262D01*
X148535000Y-106032301D01*
X148535000Y-106752425D01*
X148573229Y-106804781D01*
X148577384Y-106874527D01*
X148544221Y-106934410D01*
X148195451Y-107283181D01*
X148134128Y-107316666D01*
X148107770Y-107319500D01*
X143284543Y-107319500D01*
X143217504Y-107299815D01*
X143171749Y-107247011D01*
X143161805Y-107177853D01*
X143190830Y-107114297D01*
X143196862Y-107107819D01*
X143215042Y-107089639D01*
X143234905Y-107073509D01*
X143242669Y-107068437D01*
X143262864Y-107042488D01*
X143267942Y-107036737D01*
X143270375Y-107034306D01*
X143276219Y-107026120D01*
X143283039Y-107016569D01*
X143301276Y-106993137D01*
X143357985Y-106952323D01*
X143381485Y-106946559D01*
X143430657Y-106939489D01*
X143430656Y-106939489D01*
X143430664Y-106939488D01*
X143500416Y-106919007D01*
X143570814Y-106886857D01*
X143631189Y-106859285D01*
X143631193Y-106859282D01*
X143631201Y-106859279D01*
X143692355Y-106819978D01*
X143692363Y-106819971D01*
X143692366Y-106819969D01*
X143792051Y-106733592D01*
X143801016Y-106725824D01*
X143802637Y-106723954D01*
X143829086Y-106693429D01*
X143848624Y-106670881D01*
X143926356Y-106549927D01*
X143956555Y-106483800D01*
X143997062Y-106345845D01*
X143997328Y-106344000D01*
X143999518Y-106328762D01*
X144007408Y-106273889D01*
X144007408Y-105652000D01*
X144007408Y-105651999D01*
X144007408Y-105651997D01*
X143987356Y-105551192D01*
X143987356Y-105502808D01*
X144002500Y-105426676D01*
X144002500Y-105347091D01*
X144022185Y-105280052D01*
X144067478Y-105238039D01*
X144112444Y-105213704D01*
X144158484Y-105191198D01*
X144158485Y-105191196D01*
X144164453Y-105186935D01*
X144170254Y-105182419D01*
X144170258Y-105182418D01*
X144204957Y-105144724D01*
X144993043Y-104356636D01*
X145012894Y-104340516D01*
X145020669Y-104335437D01*
X145040864Y-104309488D01*
X145045942Y-104303737D01*
X145048375Y-104301306D01*
X145061038Y-104283569D01*
X145092517Y-104243126D01*
X145092519Y-104243119D01*
X145096017Y-104236655D01*
X145099235Y-104230072D01*
X145099240Y-104230066D01*
X145108325Y-104199548D01*
X145113861Y-104180955D01*
X145125667Y-104146565D01*
X145130500Y-104132488D01*
X145130500Y-104132479D01*
X145131706Y-104125258D01*
X145132617Y-104117951D01*
X145130500Y-104066758D01*
X145130500Y-98674678D01*
X147184500Y-98674678D01*
X147199032Y-98747735D01*
X147199033Y-98747739D01*
X147199034Y-98747740D01*
X147254399Y-98830601D01*
X147326945Y-98879074D01*
X147337260Y-98885966D01*
X147337264Y-98885967D01*
X147410321Y-98900499D01*
X147410324Y-98900500D01*
X147410326Y-98900500D01*
X149159676Y-98900500D01*
X149159677Y-98900499D01*
X149232740Y-98885966D01*
X149315601Y-98830601D01*
X149370966Y-98747740D01*
X149385500Y-98674674D01*
X149385500Y-96925326D01*
X149370966Y-96852260D01*
X149315601Y-96769399D01*
X149235982Y-96716200D01*
X149232739Y-96714033D01*
X149232735Y-96714032D01*
X149159677Y-96699500D01*
X149159674Y-96699500D01*
X147410326Y-96699500D01*
X147410323Y-96699500D01*
X147337264Y-96714032D01*
X147337260Y-96714033D01*
X147254399Y-96769399D01*
X147199033Y-96852260D01*
X147199032Y-96852264D01*
X147184500Y-96925321D01*
X147184500Y-98674678D01*
X145130500Y-98674678D01*
X145130500Y-95109353D01*
X145150185Y-95042314D01*
X145202989Y-94996559D01*
X145209699Y-94993729D01*
X145272637Y-94969348D01*
X145446041Y-94861981D01*
X145596764Y-94724579D01*
X145719673Y-94561821D01*
X145810582Y-94379250D01*
X145866397Y-94183083D01*
X145885215Y-93980000D01*
X146214785Y-93980000D01*
X146233602Y-94183082D01*
X146289417Y-94379247D01*
X146289422Y-94379260D01*
X146380327Y-94561821D01*
X146503237Y-94724581D01*
X146653958Y-94861980D01*
X146653960Y-94861982D01*
X146753141Y-94923392D01*
X146827363Y-94969348D01*
X147017544Y-95043024D01*
X147218024Y-95080500D01*
X147218026Y-95080500D01*
X147421974Y-95080500D01*
X147421976Y-95080500D01*
X147622456Y-95043024D01*
X147812637Y-94969348D01*
X147986041Y-94861981D01*
X148136764Y-94724579D01*
X148259673Y-94561821D01*
X148350582Y-94379250D01*
X148406397Y-94183083D01*
X148425215Y-93980000D01*
X148754785Y-93980000D01*
X148773602Y-94183082D01*
X148829417Y-94379247D01*
X148829422Y-94379260D01*
X148920327Y-94561821D01*
X149043237Y-94724581D01*
X149193958Y-94861980D01*
X149193960Y-94861982D01*
X149293141Y-94923392D01*
X149367363Y-94969348D01*
X149557544Y-95043024D01*
X149758024Y-95080500D01*
X149758026Y-95080500D01*
X149961974Y-95080500D01*
X149961976Y-95080500D01*
X150162456Y-95043024D01*
X150352637Y-94969348D01*
X150526041Y-94861981D01*
X150676764Y-94724579D01*
X150799673Y-94561821D01*
X150890582Y-94379250D01*
X150946397Y-94183083D01*
X150965215Y-93980000D01*
X150946397Y-93776917D01*
X150890582Y-93580750D01*
X150879313Y-93558119D01*
X150840415Y-93480000D01*
X150799673Y-93398179D01*
X150676764Y-93235421D01*
X150676762Y-93235418D01*
X150526041Y-93098019D01*
X150526039Y-93098017D01*
X150352642Y-92990655D01*
X150352635Y-92990651D01*
X150226769Y-92941891D01*
X150162456Y-92916976D01*
X149961976Y-92879500D01*
X149758024Y-92879500D01*
X149557544Y-92916976D01*
X149557541Y-92916976D01*
X149557541Y-92916977D01*
X149367364Y-92990651D01*
X149367357Y-92990655D01*
X149193960Y-93098017D01*
X149193958Y-93098019D01*
X149043237Y-93235418D01*
X148920327Y-93398178D01*
X148829422Y-93580739D01*
X148829417Y-93580752D01*
X148773602Y-93776917D01*
X148754785Y-93979999D01*
X148754785Y-93980000D01*
X148425215Y-93980000D01*
X148406397Y-93776917D01*
X148350582Y-93580750D01*
X148339313Y-93558119D01*
X148300415Y-93480000D01*
X148259673Y-93398179D01*
X148136764Y-93235421D01*
X148136762Y-93235418D01*
X147986041Y-93098019D01*
X147986039Y-93098017D01*
X147812642Y-92990655D01*
X147812635Y-92990651D01*
X147686769Y-92941891D01*
X147622456Y-92916976D01*
X147421976Y-92879500D01*
X147218024Y-92879500D01*
X147017544Y-92916976D01*
X147017541Y-92916976D01*
X147017541Y-92916977D01*
X146827364Y-92990651D01*
X146827357Y-92990655D01*
X146653960Y-93098017D01*
X146653958Y-93098019D01*
X146503237Y-93235418D01*
X146380327Y-93398178D01*
X146289422Y-93580739D01*
X146289417Y-93580752D01*
X146233602Y-93776917D01*
X146214785Y-93979999D01*
X146214785Y-93980000D01*
X145885215Y-93980000D01*
X145866397Y-93776917D01*
X145810582Y-93580750D01*
X145799313Y-93558119D01*
X145760415Y-93480000D01*
X145719673Y-93398179D01*
X145596764Y-93235421D01*
X145596762Y-93235418D01*
X145446041Y-93098019D01*
X145446039Y-93098017D01*
X145272642Y-92990655D01*
X145272635Y-92990651D01*
X145146769Y-92941891D01*
X145082456Y-92916976D01*
X144881976Y-92879500D01*
X144678024Y-92879500D01*
X144477544Y-92916976D01*
X144477541Y-92916976D01*
X144477541Y-92916977D01*
X144287364Y-92990651D01*
X144287357Y-92990655D01*
X144113960Y-93098017D01*
X144113958Y-93098019D01*
X143963237Y-93235418D01*
X143840327Y-93398178D01*
X143749422Y-93580739D01*
X143749417Y-93580752D01*
X143693602Y-93776917D01*
X143674785Y-93979999D01*
X143674785Y-93980000D01*
X143693602Y-94183082D01*
X143749417Y-94379247D01*
X143749422Y-94379260D01*
X143840327Y-94561821D01*
X143963237Y-94724581D01*
X144113958Y-94861980D01*
X144113960Y-94861982D01*
X144213141Y-94923392D01*
X144287363Y-94969348D01*
X144287368Y-94969349D01*
X144287370Y-94969351D01*
X144300138Y-94974297D01*
X144350292Y-94993726D01*
X144405694Y-95036298D01*
X144429286Y-95102064D01*
X144429500Y-95109353D01*
X144429500Y-95374455D01*
X144409815Y-95441494D01*
X144357011Y-95487249D01*
X144287853Y-95497193D01*
X144224297Y-95468168D01*
X144217819Y-95462136D01*
X143288577Y-94532894D01*
X143255092Y-94471571D01*
X143260076Y-94401879D01*
X143265258Y-94389941D01*
X143270582Y-94379250D01*
X143326397Y-94183083D01*
X143345215Y-93980000D01*
X143326397Y-93776917D01*
X143270582Y-93580750D01*
X143259313Y-93558119D01*
X143220415Y-93480000D01*
X143179673Y-93398179D01*
X143056764Y-93235421D01*
X143056762Y-93235418D01*
X142906041Y-93098019D01*
X142906039Y-93098017D01*
X142732642Y-92990655D01*
X142732635Y-92990651D01*
X142606769Y-92941891D01*
X142542456Y-92916976D01*
X142341976Y-92879500D01*
X142138024Y-92879500D01*
X141937544Y-92916976D01*
X141937541Y-92916976D01*
X141937541Y-92916977D01*
X141747364Y-92990651D01*
X141747357Y-92990655D01*
X141573960Y-93098017D01*
X141573958Y-93098019D01*
X141423237Y-93235418D01*
X141300327Y-93398178D01*
X141209422Y-93580739D01*
X141209417Y-93580752D01*
X141153602Y-93776917D01*
X141134785Y-93979999D01*
X141134785Y-93980000D01*
X141153602Y-94183082D01*
X141209417Y-94379247D01*
X141209422Y-94379260D01*
X141300327Y-94561821D01*
X141423237Y-94724581D01*
X141573958Y-94861980D01*
X141573960Y-94861982D01*
X141673141Y-94923392D01*
X141747363Y-94969348D01*
X141937544Y-95043024D01*
X142138024Y-95080500D01*
X142138026Y-95080500D01*
X142341974Y-95080500D01*
X142341976Y-95080500D01*
X142542456Y-95043024D01*
X142658037Y-94998247D01*
X142727658Y-94992385D01*
X142789399Y-95025094D01*
X142790511Y-95026193D01*
X143993181Y-96228863D01*
X144026666Y-96290186D01*
X144029500Y-96316544D01*
X144029500Y-96405403D01*
X144009815Y-96472442D01*
X143957011Y-96518197D01*
X143887853Y-96528141D01*
X143824297Y-96499116D01*
X143811787Y-96486606D01*
X143801016Y-96474176D01*
X143692366Y-96380030D01*
X143692357Y-96380024D01*
X143692355Y-96380022D01*
X143655441Y-96356299D01*
X143631205Y-96340723D01*
X143631189Y-96340714D01*
X143500422Y-96280995D01*
X143500417Y-96280993D01*
X143500416Y-96280993D01*
X143446569Y-96265182D01*
X143430665Y-96260512D01*
X143430659Y-96260510D01*
X143302708Y-96242114D01*
X143288349Y-96240050D01*
X143215652Y-96240050D01*
X143215648Y-96240050D01*
X143206748Y-96241330D01*
X143189103Y-96242592D01*
X142814897Y-96242592D01*
X142797252Y-96241330D01*
X142788351Y-96240050D01*
X142788348Y-96240050D01*
X142715651Y-96240050D01*
X142573340Y-96260510D01*
X142573334Y-96260512D01*
X142503577Y-96280995D01*
X142372810Y-96340714D01*
X142372794Y-96340723D01*
X142311649Y-96380019D01*
X142311633Y-96380030D01*
X142202981Y-96474177D01*
X142202980Y-96474178D01*
X142155379Y-96529114D01*
X142155372Y-96529125D01*
X142115903Y-96590540D01*
X142063099Y-96636294D01*
X142011588Y-96647500D01*
X140287211Y-96647500D01*
X140261765Y-96644861D01*
X140252685Y-96642957D01*
X140252684Y-96642957D01*
X140252682Y-96642957D01*
X140220061Y-96647023D01*
X140212385Y-96647500D01*
X140208958Y-96647500D01*
X140187456Y-96651088D01*
X140136606Y-96657427D01*
X140129560Y-96659524D01*
X140122618Y-96661908D01*
X140077546Y-96686300D01*
X140031514Y-96708803D01*
X140025529Y-96713075D01*
X140019746Y-96717577D01*
X139985031Y-96755287D01*
X137813137Y-98927181D01*
X137751814Y-98960666D01*
X137725456Y-98963500D01*
X128593543Y-98963500D01*
X128526504Y-98943815D01*
X128505862Y-98927181D01*
X126779753Y-97201071D01*
X126763627Y-97181214D01*
X126758553Y-97173447D01*
X126732603Y-97153249D01*
X126726857Y-97148175D01*
X126724423Y-97145741D01*
X126724422Y-97145740D01*
X126724421Y-97145739D01*
X126717964Y-97141129D01*
X126706677Y-97133071D01*
X126666242Y-97101599D01*
X126666238Y-97101597D01*
X126659764Y-97098093D01*
X126653185Y-97094876D01*
X126604070Y-97080254D01*
X126555602Y-97063614D01*
X126548385Y-97062410D01*
X126541069Y-97061498D01*
X126491841Y-97063535D01*
X126489885Y-97063616D01*
X123861000Y-97063616D01*
X123793961Y-97043931D01*
X123762626Y-97015105D01*
X123740166Y-96985834D01*
X123614725Y-96889580D01*
X123524636Y-96852264D01*
X123468646Y-96829072D01*
X123468644Y-96829071D01*
X123311885Y-96808434D01*
X123311883Y-96808434D01*
X123155123Y-96829071D01*
X123155121Y-96829072D01*
X123009044Y-96889579D01*
X122883602Y-96985834D01*
X122787347Y-97111276D01*
X122726840Y-97257353D01*
X122726839Y-97257355D01*
X122706202Y-97414114D01*
X122706202Y-97414117D01*
X122726839Y-97570876D01*
X122726840Y-97570878D01*
X122754212Y-97636961D01*
X122787348Y-97716957D01*
X122883602Y-97842398D01*
X123009043Y-97938652D01*
X123155122Y-97999160D01*
X123233502Y-98009478D01*
X123311883Y-98019798D01*
X123311884Y-98019798D01*
X123311885Y-98019798D01*
X123364138Y-98012918D01*
X123468646Y-97999160D01*
X123614725Y-97938652D01*
X123740166Y-97842398D01*
X123762625Y-97813127D01*
X123819052Y-97771927D01*
X123861000Y-97764616D01*
X126300572Y-97764616D01*
X126367611Y-97784301D01*
X126388253Y-97800935D01*
X128114362Y-99527044D01*
X128130489Y-99546902D01*
X128135563Y-99554669D01*
X128135565Y-99554671D01*
X128136309Y-99555250D01*
X128159017Y-99572924D01*
X128161505Y-99574860D01*
X128167268Y-99579950D01*
X128169694Y-99582376D01*
X128187441Y-99595047D01*
X128227874Y-99626517D01*
X128227875Y-99626517D01*
X128227876Y-99626518D01*
X128234318Y-99630004D01*
X128240931Y-99633238D01*
X128240934Y-99633240D01*
X128252201Y-99636594D01*
X128290045Y-99647862D01*
X128336758Y-99663898D01*
X128338512Y-99664500D01*
X128338518Y-99664500D01*
X128345768Y-99665710D01*
X128353046Y-99666617D01*
X128404242Y-99664500D01*
X130086619Y-99664500D01*
X130153658Y-99684185D01*
X130199413Y-99736989D01*
X130209357Y-99806147D01*
X130180332Y-99869703D01*
X130174300Y-99876181D01*
X129965946Y-100084534D01*
X129945316Y-100101161D01*
X129941254Y-100103772D01*
X129941245Y-100103779D01*
X129907283Y-100142973D01*
X129904270Y-100146209D01*
X129893159Y-100157320D01*
X129883732Y-100169914D01*
X129880965Y-100173346D01*
X129869831Y-100186197D01*
X129847001Y-100212544D01*
X129846995Y-100212554D01*
X129844993Y-100216938D01*
X129831478Y-100239717D01*
X129828584Y-100243582D01*
X129828578Y-100243593D01*
X129810456Y-100292182D01*
X129808763Y-100296271D01*
X129787213Y-100343461D01*
X129787211Y-100343468D01*
X129786524Y-100348245D01*
X129779976Y-100373904D01*
X129778288Y-100378431D01*
X129778287Y-100378435D01*
X129774585Y-100430178D01*
X129774112Y-100434574D01*
X129771878Y-100450117D01*
X129771878Y-100465822D01*
X129771720Y-100470247D01*
X129768019Y-100521987D01*
X129768019Y-100521991D01*
X129769044Y-100526703D01*
X129771878Y-100553061D01*
X129771878Y-101122236D01*
X129769045Y-101148584D01*
X129768019Y-101153305D01*
X129768019Y-101153307D01*
X129768019Y-101153308D01*
X129771720Y-101205047D01*
X129771878Y-101209472D01*
X129771878Y-101225177D01*
X129774112Y-101240721D01*
X129774585Y-101245118D01*
X129778287Y-101296863D01*
X129779971Y-101301378D01*
X129786526Y-101327060D01*
X129787212Y-101331833D01*
X129787213Y-101331835D01*
X129808761Y-101379020D01*
X129810449Y-101383094D01*
X129828581Y-101431707D01*
X129831474Y-101435572D01*
X129844995Y-101458361D01*
X129846997Y-101462745D01*
X129847000Y-101462749D01*
X129847001Y-101462751D01*
X129880976Y-101501961D01*
X129883736Y-101505386D01*
X129893157Y-101517971D01*
X129904277Y-101529091D01*
X129907274Y-101532310D01*
X129936005Y-101565468D01*
X129942983Y-101573521D01*
X129969044Y-101622627D01*
X129970955Y-101629759D01*
X129970955Y-101629761D01*
X129970956Y-101629762D01*
X129998700Y-101696742D01*
X130030386Y-101773240D01*
X130031464Y-101775841D01*
X130127718Y-101901282D01*
X130253159Y-101997536D01*
X130399238Y-102058044D01*
X130477619Y-102068363D01*
X130555999Y-102078682D01*
X130556000Y-102078682D01*
X130556001Y-102078682D01*
X130608254Y-102071802D01*
X130712762Y-102058044D01*
X130858841Y-101997536D01*
X130984282Y-101901282D01*
X131080536Y-101775841D01*
X131141044Y-101629762D01*
X131153884Y-101532231D01*
X131182149Y-101468337D01*
X131240473Y-101429865D01*
X131260622Y-101425481D01*
X131279140Y-101423044D01*
X131425219Y-101362536D01*
X131550660Y-101266282D01*
X131573119Y-101237011D01*
X131629546Y-101195811D01*
X131671494Y-101188500D01*
X137372884Y-101188500D01*
X137439923Y-101208185D01*
X137471257Y-101237010D01*
X137493718Y-101266282D01*
X137619159Y-101362536D01*
X137765238Y-101423044D01*
X137831056Y-101431709D01*
X137921999Y-101443682D01*
X137922000Y-101443682D01*
X137922001Y-101443682D01*
X138012944Y-101431709D01*
X138078762Y-101423044D01*
X138078762Y-101423043D01*
X138086820Y-101421983D01*
X138087073Y-101423905D01*
X138146332Y-101425313D01*
X138204197Y-101464471D01*
X138223144Y-101495974D01*
X138278560Y-101629759D01*
X138286464Y-101648841D01*
X138382718Y-101774282D01*
X138391637Y-101781126D01*
X138432838Y-101837552D01*
X138436993Y-101907298D01*
X138402781Y-101968218D01*
X138341063Y-102000971D01*
X138316149Y-102003500D01*
X137555806Y-102003500D01*
X137488767Y-101983815D01*
X137480319Y-101977875D01*
X137462842Y-101964464D01*
X137316762Y-101903956D01*
X137316760Y-101903955D01*
X137160001Y-101883318D01*
X137159999Y-101883318D01*
X137003239Y-101903955D01*
X137003237Y-101903956D01*
X136857160Y-101964463D01*
X136731718Y-102060718D01*
X136635463Y-102186160D01*
X136574956Y-102332237D01*
X136574955Y-102332239D01*
X136554318Y-102488998D01*
X136554318Y-102489001D01*
X136574955Y-102645760D01*
X136574956Y-102645762D01*
X136635464Y-102791841D01*
X136731718Y-102917282D01*
X136857159Y-103013536D01*
X137003238Y-103074044D01*
X137081618Y-103084363D01*
X137159999Y-103094682D01*
X137160000Y-103094682D01*
X137160001Y-103094682D01*
X137212253Y-103087802D01*
X137316762Y-103074044D01*
X137461868Y-103013938D01*
X137509321Y-103004500D01*
X139462818Y-103004500D01*
X139529857Y-103024185D01*
X139544012Y-103034780D01*
X139644645Y-103121978D01*
X139689157Y-103150584D01*
X139705794Y-103161276D01*
X139705810Y-103161285D01*
X139836577Y-103221004D01*
X139836584Y-103221007D01*
X139906336Y-103241488D01*
X139906337Y-103241488D01*
X139906340Y-103241489D01*
X139948775Y-103247589D01*
X140048651Y-103261950D01*
X140048652Y-103261950D01*
X140121345Y-103261950D01*
X140121348Y-103261950D01*
X140127920Y-103261005D01*
X140130252Y-103260670D01*
X140147897Y-103259408D01*
X140522103Y-103259408D01*
X140539748Y-103260670D01*
X140542613Y-103261081D01*
X140548652Y-103261950D01*
X140548655Y-103261950D01*
X140621348Y-103261950D01*
X140621349Y-103261950D01*
X140735583Y-103245525D01*
X140763659Y-103241489D01*
X140763660Y-103241488D01*
X140763664Y-103241488D01*
X140833416Y-103221007D01*
X140908128Y-103186887D01*
X140964189Y-103161285D01*
X140964194Y-103161282D01*
X140964201Y-103161279D01*
X141006517Y-103134083D01*
X141073553Y-103114400D01*
X141140593Y-103134084D01*
X141186349Y-103186887D01*
X141196293Y-103256045D01*
X141167269Y-103319601D01*
X141161236Y-103326081D01*
X140734137Y-103753181D01*
X140672814Y-103786666D01*
X140646456Y-103789500D01*
X138725116Y-103789500D01*
X138658077Y-103769815D01*
X138626742Y-103740989D01*
X138604282Y-103711718D01*
X138478841Y-103615464D01*
X138446908Y-103602237D01*
X138332762Y-103554956D01*
X138332760Y-103554955D01*
X138176001Y-103534318D01*
X138175999Y-103534318D01*
X138019239Y-103554955D01*
X138019237Y-103554956D01*
X137873160Y-103615463D01*
X137747718Y-103711718D01*
X137651463Y-103837160D01*
X137590956Y-103983237D01*
X137590955Y-103983239D01*
X137570318Y-104139998D01*
X137570318Y-104140001D01*
X137590955Y-104296760D01*
X137590956Y-104296762D01*
X137625454Y-104380047D01*
X137632923Y-104449517D01*
X137601648Y-104511996D01*
X137541559Y-104547648D01*
X137510893Y-104551500D01*
X122669204Y-104551500D01*
X122602165Y-104531815D01*
X122581523Y-104515181D01*
X122556124Y-104489782D01*
X122522639Y-104428459D01*
X122520866Y-104385914D01*
X122521397Y-104381886D01*
X122525682Y-104349339D01*
X122519358Y-104301306D01*
X122505044Y-104192578D01*
X122505044Y-104192577D01*
X122444536Y-104046498D01*
X122348282Y-103921057D01*
X122222841Y-103824803D01*
X122198532Y-103814734D01*
X122076762Y-103764295D01*
X122076760Y-103764294D01*
X121920001Y-103743657D01*
X121919999Y-103743657D01*
X121763239Y-103764294D01*
X121763237Y-103764295D01*
X121617160Y-103824802D01*
X121491718Y-103921057D01*
X121395463Y-104046499D01*
X121334956Y-104192576D01*
X121334955Y-104192578D01*
X121314318Y-104349337D01*
X121314318Y-104349340D01*
X121334955Y-104506099D01*
X121334956Y-104506101D01*
X121387745Y-104633546D01*
X121395464Y-104652180D01*
X121491718Y-104777621D01*
X121617159Y-104873875D01*
X121617160Y-104873875D01*
X121617161Y-104873876D01*
X121639041Y-104882939D01*
X121693445Y-104926780D01*
X121715510Y-104993074D01*
X121698231Y-105060773D01*
X121647094Y-105108384D01*
X121591589Y-105121500D01*
X118622544Y-105121500D01*
X118555505Y-105101815D01*
X118534863Y-105085181D01*
X117951906Y-104502224D01*
X117918421Y-104440901D01*
X117923405Y-104371209D01*
X117965277Y-104315276D01*
X117992130Y-104299984D01*
X118031841Y-104283536D01*
X118157282Y-104187282D01*
X118253536Y-104061841D01*
X118314044Y-103915762D01*
X118333985Y-103764294D01*
X118334682Y-103759001D01*
X118334682Y-103758998D01*
X118316985Y-103624579D01*
X118314044Y-103602238D01*
X118262743Y-103478387D01*
X130939704Y-103478387D01*
X130960341Y-103635146D01*
X130960342Y-103635148D01*
X131019717Y-103778493D01*
X131020850Y-103781227D01*
X131117104Y-103906668D01*
X131242545Y-104002922D01*
X131388624Y-104063430D01*
X131413903Y-104066758D01*
X131545385Y-104084068D01*
X131545386Y-104084068D01*
X131545387Y-104084068D01*
X131598192Y-104077116D01*
X131702148Y-104063430D01*
X131848227Y-104002922D01*
X131973668Y-103906668D01*
X132069922Y-103781227D01*
X132130430Y-103635148D01*
X132144981Y-103524623D01*
X132151068Y-103478387D01*
X132151068Y-103478384D01*
X132130430Y-103321625D01*
X132130430Y-103321624D01*
X132069922Y-103175545D01*
X131973668Y-103050104D01*
X131848227Y-102953850D01*
X131841187Y-102950934D01*
X131702148Y-102893342D01*
X131702146Y-102893341D01*
X131545387Y-102872704D01*
X131545385Y-102872704D01*
X131388625Y-102893341D01*
X131388623Y-102893342D01*
X131242546Y-102953849D01*
X131117104Y-103050104D01*
X131020849Y-103175546D01*
X130960342Y-103321623D01*
X130960341Y-103321625D01*
X130939704Y-103478384D01*
X130939704Y-103478387D01*
X118262743Y-103478387D01*
X118253536Y-103456159D01*
X118157282Y-103330718D01*
X118031841Y-103234464D01*
X117885762Y-103173956D01*
X117885760Y-103173955D01*
X117729001Y-103153318D01*
X117728999Y-103153318D01*
X117572239Y-103173955D01*
X117572237Y-103173956D01*
X117426160Y-103234463D01*
X117300718Y-103330718D01*
X117204463Y-103456160D01*
X117188017Y-103495865D01*
X117144175Y-103550269D01*
X117077881Y-103572333D01*
X117010182Y-103555053D01*
X116985775Y-103536093D01*
X116428637Y-102978955D01*
X116412511Y-102959098D01*
X116407437Y-102951331D01*
X116381487Y-102931133D01*
X116375741Y-102926059D01*
X116373307Y-102923625D01*
X116373306Y-102923624D01*
X116373305Y-102923623D01*
X116366848Y-102919013D01*
X116355561Y-102910955D01*
X116315126Y-102879483D01*
X116315122Y-102879481D01*
X116308648Y-102875977D01*
X116302069Y-102872760D01*
X116252954Y-102858138D01*
X116204486Y-102841498D01*
X116197269Y-102840294D01*
X116189953Y-102839382D01*
X116140725Y-102841419D01*
X116138769Y-102841500D01*
X114849116Y-102841500D01*
X114782077Y-102821815D01*
X114750742Y-102792989D01*
X114728282Y-102763718D01*
X114602841Y-102667464D01*
X114539890Y-102641389D01*
X114456762Y-102606956D01*
X114456760Y-102606955D01*
X114300001Y-102586318D01*
X114299999Y-102586318D01*
X114143239Y-102606955D01*
X114143237Y-102606956D01*
X113997160Y-102667463D01*
X113871718Y-102763718D01*
X113775463Y-102889160D01*
X113741736Y-102970585D01*
X113697895Y-103024988D01*
X113631600Y-103047053D01*
X113563901Y-103029774D01*
X113539494Y-103010813D01*
X112890682Y-102362001D01*
X118139318Y-102362001D01*
X118159955Y-102518760D01*
X118159956Y-102518762D01*
X118208066Y-102634911D01*
X118220464Y-102664841D01*
X118316718Y-102790282D01*
X118442159Y-102886536D01*
X118588238Y-102947044D01*
X118639935Y-102953850D01*
X118744999Y-102967682D01*
X118745000Y-102967682D01*
X118745001Y-102967682D01*
X118797254Y-102960802D01*
X118901762Y-102947044D01*
X119047841Y-102886536D01*
X119173282Y-102790282D01*
X119269536Y-102664841D01*
X119330044Y-102518762D01*
X119350682Y-102362000D01*
X119346328Y-102328935D01*
X119357095Y-102259900D01*
X119403474Y-102207644D01*
X119470743Y-102188759D01*
X119485439Y-102189809D01*
X119606000Y-102205682D01*
X119606001Y-102205682D01*
X119658254Y-102198802D01*
X119762762Y-102185044D01*
X119908841Y-102124536D01*
X120034282Y-102028282D01*
X120130536Y-101902841D01*
X120191044Y-101756762D01*
X120211034Y-101604924D01*
X120211682Y-101600001D01*
X120211682Y-101599998D01*
X120191044Y-101443239D01*
X120191044Y-101443238D01*
X120130536Y-101297159D01*
X120034282Y-101171718D01*
X119908841Y-101075464D01*
X119871867Y-101060149D01*
X119762762Y-101014956D01*
X119762760Y-101014955D01*
X119606001Y-100994318D01*
X119605999Y-100994318D01*
X119449239Y-101014955D01*
X119449237Y-101014956D01*
X119303160Y-101075463D01*
X119177718Y-101171718D01*
X119081463Y-101297160D01*
X119020956Y-101443237D01*
X119020955Y-101443239D01*
X119000318Y-101599998D01*
X119000318Y-101600004D01*
X119004670Y-101633066D01*
X118993903Y-101702101D01*
X118947522Y-101754356D01*
X118880253Y-101773240D01*
X118865546Y-101772188D01*
X118745001Y-101756318D01*
X118744999Y-101756318D01*
X118588239Y-101776955D01*
X118588237Y-101776956D01*
X118442160Y-101837463D01*
X118316718Y-101933718D01*
X118220463Y-102059160D01*
X118159956Y-102205237D01*
X118159955Y-102205239D01*
X118139318Y-102361998D01*
X118139318Y-102362001D01*
X112890682Y-102362001D01*
X112155473Y-101626791D01*
X112121988Y-101565468D01*
X112119154Y-101539110D01*
X112119154Y-99174499D01*
X112138839Y-99107460D01*
X112191643Y-99061705D01*
X112243149Y-99050499D01*
X112576518Y-99050499D01*
X112670304Y-99035646D01*
X112783342Y-98978050D01*
X112873050Y-98888342D01*
X112919516Y-98797145D01*
X112967490Y-98746352D01*
X113035311Y-98729557D01*
X113101445Y-98752094D01*
X113140482Y-98797145D01*
X113185740Y-98885967D01*
X113186951Y-98888343D01*
X113186954Y-98888347D01*
X113276652Y-98978045D01*
X113276654Y-98978046D01*
X113276658Y-98978050D01*
X113389152Y-99035369D01*
X113389698Y-99035647D01*
X113483475Y-99050499D01*
X113483481Y-99050500D01*
X113825499Y-99050499D01*
X113892538Y-99070183D01*
X113938293Y-99122987D01*
X113949499Y-99174499D01*
X113949500Y-99458883D01*
X113929816Y-99525922D01*
X113900987Y-99557258D01*
X113871721Y-99579714D01*
X113775463Y-99705160D01*
X113714956Y-99851237D01*
X113714955Y-99851239D01*
X113694318Y-100007998D01*
X113694318Y-100008001D01*
X113714955Y-100164760D01*
X113714956Y-100164762D01*
X113768597Y-100294264D01*
X113775464Y-100310841D01*
X113871718Y-100436282D01*
X113974554Y-100515191D01*
X113979343Y-100518865D01*
X114020546Y-100575293D01*
X114024701Y-100645039D01*
X113990489Y-100705959D01*
X113928772Y-100738712D01*
X113920043Y-100740180D01*
X113762238Y-100760956D01*
X113762237Y-100760956D01*
X113616160Y-100821463D01*
X113490718Y-100917718D01*
X113394463Y-101043160D01*
X113333956Y-101189237D01*
X113333955Y-101189239D01*
X113313318Y-101345998D01*
X113313318Y-101346001D01*
X113333955Y-101502760D01*
X113333956Y-101502762D01*
X113385330Y-101626791D01*
X113394464Y-101648841D01*
X113490718Y-101774282D01*
X113616159Y-101870536D01*
X113762238Y-101931044D01*
X113840618Y-101941363D01*
X113918999Y-101951682D01*
X113919000Y-101951682D01*
X113919001Y-101951682D01*
X113991494Y-101942138D01*
X114075762Y-101931044D01*
X114221841Y-101870536D01*
X114347282Y-101774282D01*
X114443536Y-101648841D01*
X114504044Y-101502762D01*
X114523070Y-101358248D01*
X114524682Y-101346001D01*
X114524682Y-101345998D01*
X114508355Y-101221981D01*
X114504044Y-101189238D01*
X114443536Y-101043159D01*
X114347282Y-100917718D01*
X114347280Y-100917717D01*
X114347280Y-100917716D01*
X114239656Y-100835134D01*
X114198453Y-100778706D01*
X114194298Y-100708960D01*
X114228510Y-100648040D01*
X114290228Y-100615287D01*
X114298957Y-100613819D01*
X114299998Y-100613681D01*
X114300000Y-100613682D01*
X114456762Y-100593044D01*
X114602841Y-100532536D01*
X114728282Y-100436282D01*
X114824536Y-100310841D01*
X114885044Y-100164762D01*
X114898802Y-100060253D01*
X114905682Y-100008001D01*
X114905682Y-100007998D01*
X114885044Y-99851239D01*
X114885044Y-99851238D01*
X114824536Y-99705159D01*
X114728282Y-99579718D01*
X114728279Y-99579716D01*
X114728278Y-99579714D01*
X114699013Y-99557258D01*
X114657811Y-99500830D01*
X114650500Y-99458883D01*
X114650500Y-99439500D01*
X114670185Y-99372461D01*
X114722989Y-99326706D01*
X114774500Y-99315500D01*
X116716000Y-99315500D01*
X116770313Y-99309661D01*
X116791049Y-99305150D01*
X116821817Y-99298457D01*
X116821817Y-99298456D01*
X116821824Y-99298455D01*
X116848198Y-99291219D01*
X116924852Y-99247569D01*
X116934818Y-99241894D01*
X116934821Y-99241891D01*
X116934828Y-99241888D01*
X116987632Y-99196133D01*
X117019257Y-99163359D01*
X117065465Y-99075024D01*
X117066511Y-99071464D01*
X117082399Y-99017354D01*
X117085150Y-99007985D01*
X117095500Y-98936000D01*
X117095500Y-97376682D01*
X117089661Y-97322369D01*
X117086570Y-97308160D01*
X117078457Y-97270865D01*
X117078456Y-97270864D01*
X117078455Y-97270858D01*
X117071219Y-97244484D01*
X117071216Y-97244478D01*
X117021894Y-97157863D01*
X117021888Y-97157854D01*
X116976136Y-97105053D01*
X116972555Y-97101598D01*
X116943360Y-97073426D01*
X116943359Y-97073425D01*
X116886976Y-97043931D01*
X116855025Y-97027217D01*
X116855026Y-97027217D01*
X116839683Y-97022712D01*
X116839673Y-97022705D01*
X116794846Y-97009546D01*
X116781160Y-97005527D01*
X116777542Y-97003202D01*
X116767749Y-97001132D01*
X116765366Y-97001651D01*
X116758029Y-97000906D01*
X116754727Y-97000471D01*
X116754429Y-97000431D01*
X116754427Y-97000431D01*
X116751808Y-97000086D01*
X116751807Y-97000086D01*
X116700965Y-96993388D01*
X116700904Y-96993385D01*
X116639119Y-96985250D01*
X116607855Y-96976873D01*
X116588350Y-96968794D01*
X116554094Y-96954604D01*
X116526059Y-96938419D01*
X116479892Y-96902993D01*
X116457005Y-96880106D01*
X116421579Y-96833939D01*
X116405395Y-96805907D01*
X116383123Y-96752138D01*
X116374748Y-96720878D01*
X116374314Y-96717582D01*
X116362581Y-96628459D01*
X116363763Y-96620881D01*
X116358792Y-96598028D01*
X116357905Y-96592940D01*
X116356787Y-96584447D01*
X116352856Y-96570743D01*
X116352233Y-96567880D01*
X116345773Y-96538180D01*
X116338537Y-96511802D01*
X116338535Y-96511798D01*
X116312376Y-96465860D01*
X116296308Y-96397863D01*
X116319552Y-96331973D01*
X116374730Y-96289110D01*
X116420130Y-96280500D01*
X127991456Y-96280500D01*
X128058495Y-96300185D01*
X128079137Y-96316819D01*
X128268875Y-96506557D01*
X128302360Y-96567880D01*
X128304133Y-96610422D01*
X128299318Y-96646998D01*
X128299318Y-96647001D01*
X128319955Y-96803760D01*
X128319956Y-96803762D01*
X128373382Y-96932745D01*
X128380464Y-96949841D01*
X128476718Y-97075282D01*
X128602159Y-97171536D01*
X128748238Y-97232044D01*
X128826619Y-97242363D01*
X128904999Y-97252682D01*
X128905000Y-97252682D01*
X128905001Y-97252682D01*
X128967316Y-97244478D01*
X129061762Y-97232044D01*
X129207841Y-97171536D01*
X129333282Y-97075282D01*
X129429536Y-96949841D01*
X129490044Y-96803762D01*
X129510144Y-96651088D01*
X129510682Y-96647001D01*
X129510682Y-96647000D01*
X129507243Y-96620881D01*
X129505866Y-96610422D01*
X129516631Y-96541387D01*
X129541118Y-96506561D01*
X129775863Y-96271816D01*
X129837185Y-96238334D01*
X129863543Y-96235500D01*
X137745789Y-96235500D01*
X137771234Y-96238138D01*
X137780315Y-96240043D01*
X137796005Y-96238087D01*
X137812939Y-96235977D01*
X137820615Y-96235500D01*
X137824035Y-96235500D01*
X137824040Y-96235500D01*
X137827608Y-96234904D01*
X137845539Y-96231913D01*
X137872958Y-96228494D01*
X137896393Y-96225573D01*
X137896402Y-96225568D01*
X137903451Y-96223470D01*
X137910377Y-96221092D01*
X137910381Y-96221092D01*
X137955444Y-96196704D01*
X138001484Y-96174198D01*
X138001487Y-96174194D01*
X138007453Y-96169935D01*
X138013254Y-96165419D01*
X138013258Y-96165418D01*
X138047957Y-96127724D01*
X139149489Y-95026191D01*
X139210810Y-94992708D01*
X139280502Y-94997692D01*
X139281962Y-94998248D01*
X139380182Y-95036298D01*
X139397544Y-95043024D01*
X139598024Y-95080500D01*
X139598026Y-95080500D01*
X139801974Y-95080500D01*
X139801976Y-95080500D01*
X140002456Y-95043024D01*
X140192637Y-94969348D01*
X140366041Y-94861981D01*
X140516764Y-94724579D01*
X140639673Y-94561821D01*
X140730582Y-94379250D01*
X140786397Y-94183083D01*
X140805215Y-93980000D01*
X140786397Y-93776917D01*
X140730582Y-93580750D01*
X140719313Y-93558119D01*
X140680415Y-93480000D01*
X140639673Y-93398179D01*
X140516764Y-93235421D01*
X140516762Y-93235418D01*
X140366041Y-93098019D01*
X140366039Y-93098017D01*
X140192642Y-92990655D01*
X140192635Y-92990651D01*
X140066769Y-92941891D01*
X140002456Y-92916976D01*
X139801976Y-92879500D01*
X139598024Y-92879500D01*
X139397544Y-92916976D01*
X139397541Y-92916976D01*
X139397541Y-92916977D01*
X139207364Y-92990651D01*
X139207357Y-92990655D01*
X139033960Y-93098017D01*
X139033958Y-93098019D01*
X138883237Y-93235418D01*
X138760327Y-93398178D01*
X138669422Y-93580739D01*
X138669417Y-93580752D01*
X138613602Y-93776917D01*
X138594785Y-93979999D01*
X138594785Y-93980000D01*
X138613602Y-94183082D01*
X138669418Y-94379253D01*
X138674741Y-94389941D01*
X138687002Y-94458726D01*
X138660129Y-94523221D01*
X138651422Y-94532894D01*
X137686137Y-95498181D01*
X137624814Y-95531666D01*
X137598456Y-95534500D01*
X129716211Y-95534500D01*
X129690765Y-95531861D01*
X129689835Y-95531666D01*
X129681685Y-95529957D01*
X129681684Y-95529957D01*
X129681682Y-95529957D01*
X129649061Y-95534023D01*
X129641385Y-95534500D01*
X129637960Y-95534500D01*
X129616457Y-95538087D01*
X129565608Y-95544426D01*
X129558566Y-95546522D01*
X129551620Y-95548907D01*
X129506550Y-95573297D01*
X129460513Y-95595803D01*
X129454538Y-95600069D01*
X129448746Y-95604577D01*
X129414032Y-95642286D01*
X129045442Y-96010875D01*
X128984119Y-96044360D01*
X128941576Y-96046133D01*
X128905002Y-96041318D01*
X128904998Y-96041318D01*
X128868422Y-96046133D01*
X128799387Y-96035367D01*
X128764557Y-96010875D01*
X128470637Y-95716955D01*
X128454511Y-95697098D01*
X128449437Y-95689331D01*
X128423487Y-95669133D01*
X128417741Y-95664059D01*
X128415307Y-95661625D01*
X128415306Y-95661624D01*
X128415305Y-95661623D01*
X128408848Y-95657013D01*
X128397561Y-95648955D01*
X128357126Y-95617483D01*
X128357122Y-95617481D01*
X128350648Y-95613977D01*
X128344069Y-95610760D01*
X128294954Y-95596138D01*
X128246486Y-95579498D01*
X128239269Y-95578294D01*
X128231953Y-95577382D01*
X128182725Y-95579419D01*
X128180769Y-95579500D01*
X123655544Y-95579500D01*
X123588505Y-95559815D01*
X123542750Y-95507011D01*
X123532806Y-95437853D01*
X123561831Y-95374297D01*
X123567863Y-95367819D01*
X123800564Y-95135117D01*
X123909489Y-95026191D01*
X123970810Y-94992708D01*
X124040501Y-94997692D01*
X124041962Y-94998248D01*
X124140182Y-95036298D01*
X124157544Y-95043024D01*
X124358024Y-95080500D01*
X124358026Y-95080500D01*
X124561974Y-95080500D01*
X124561976Y-95080500D01*
X124762456Y-95043024D01*
X124952637Y-94969348D01*
X125126041Y-94861981D01*
X125276764Y-94724579D01*
X125399673Y-94561821D01*
X125490582Y-94379250D01*
X125546397Y-94183083D01*
X125565215Y-93980000D01*
X125546397Y-93776917D01*
X125490582Y-93580750D01*
X125479313Y-93558119D01*
X125440415Y-93480000D01*
X125399673Y-93398179D01*
X125385360Y-93379226D01*
X125360669Y-93313866D01*
X125375234Y-93245531D01*
X125424431Y-93195919D01*
X125484315Y-93180500D01*
X125653456Y-93180500D01*
X125720495Y-93200185D01*
X125741137Y-93216819D01*
X125951422Y-93427104D01*
X125984907Y-93488427D01*
X125979923Y-93558119D01*
X125974745Y-93570049D01*
X125969419Y-93580745D01*
X125969419Y-93580746D01*
X125913602Y-93776917D01*
X125894785Y-93979999D01*
X125894785Y-93980000D01*
X125913602Y-94183082D01*
X125969417Y-94379247D01*
X125969422Y-94379260D01*
X126060327Y-94561821D01*
X126183237Y-94724581D01*
X126333958Y-94861980D01*
X126333960Y-94861982D01*
X126433141Y-94923392D01*
X126507363Y-94969348D01*
X126697544Y-95043024D01*
X126898024Y-95080500D01*
X126898026Y-95080500D01*
X127101974Y-95080500D01*
X127101976Y-95080500D01*
X127302456Y-95043024D01*
X127492637Y-94969348D01*
X127666041Y-94861981D01*
X127816764Y-94724579D01*
X127939673Y-94561821D01*
X128030582Y-94379250D01*
X128086397Y-94183083D01*
X128105215Y-93980000D01*
X128434785Y-93980000D01*
X128453602Y-94183082D01*
X128509417Y-94379247D01*
X128509422Y-94379260D01*
X128600327Y-94561821D01*
X128723237Y-94724581D01*
X128873958Y-94861980D01*
X128873960Y-94861982D01*
X128973141Y-94923392D01*
X129047363Y-94969348D01*
X129237544Y-95043024D01*
X129438024Y-95080500D01*
X129438026Y-95080500D01*
X129641974Y-95080500D01*
X129641976Y-95080500D01*
X129842456Y-95043024D01*
X130032637Y-94969348D01*
X130206041Y-94861981D01*
X130356764Y-94724579D01*
X130479673Y-94561821D01*
X130570582Y-94379250D01*
X130626397Y-94183083D01*
X130645215Y-93980000D01*
X130974785Y-93980000D01*
X130993602Y-94183082D01*
X131049417Y-94379247D01*
X131049422Y-94379260D01*
X131140327Y-94561821D01*
X131263237Y-94724581D01*
X131413958Y-94861980D01*
X131413960Y-94861982D01*
X131513141Y-94923392D01*
X131587363Y-94969348D01*
X131777544Y-95043024D01*
X131978024Y-95080500D01*
X131978026Y-95080500D01*
X132181974Y-95080500D01*
X132181976Y-95080500D01*
X132382456Y-95043024D01*
X132572637Y-94969348D01*
X132746041Y-94861981D01*
X132896764Y-94724579D01*
X133019673Y-94561821D01*
X133110582Y-94379250D01*
X133166397Y-94183083D01*
X133185215Y-93980000D01*
X133514785Y-93980000D01*
X133533602Y-94183082D01*
X133589417Y-94379247D01*
X133589422Y-94379260D01*
X133680327Y-94561821D01*
X133803237Y-94724581D01*
X133953958Y-94861980D01*
X133953960Y-94861982D01*
X134053141Y-94923392D01*
X134127363Y-94969348D01*
X134317544Y-95043024D01*
X134518024Y-95080500D01*
X134518026Y-95080500D01*
X134721974Y-95080500D01*
X134721976Y-95080500D01*
X134922456Y-95043024D01*
X135112637Y-94969348D01*
X135286041Y-94861981D01*
X135436764Y-94724579D01*
X135559673Y-94561821D01*
X135650582Y-94379250D01*
X135706397Y-94183083D01*
X135725215Y-93980000D01*
X136054785Y-93980000D01*
X136073602Y-94183082D01*
X136129417Y-94379247D01*
X136129422Y-94379260D01*
X136220327Y-94561821D01*
X136343237Y-94724581D01*
X136493958Y-94861980D01*
X136493960Y-94861982D01*
X136593141Y-94923392D01*
X136667363Y-94969348D01*
X136857544Y-95043024D01*
X137058024Y-95080500D01*
X137058026Y-95080500D01*
X137261974Y-95080500D01*
X137261976Y-95080500D01*
X137462456Y-95043024D01*
X137652637Y-94969348D01*
X137826041Y-94861981D01*
X137976764Y-94724579D01*
X138099673Y-94561821D01*
X138190582Y-94379250D01*
X138246397Y-94183083D01*
X138265215Y-93980000D01*
X138246397Y-93776917D01*
X138190582Y-93580750D01*
X138179313Y-93558119D01*
X138140415Y-93480000D01*
X138099673Y-93398179D01*
X137976764Y-93235421D01*
X137976762Y-93235418D01*
X137826041Y-93098019D01*
X137826039Y-93098017D01*
X137652642Y-92990655D01*
X137652635Y-92990651D01*
X137526769Y-92941891D01*
X137462456Y-92916976D01*
X137261976Y-92879500D01*
X137058024Y-92879500D01*
X136857544Y-92916976D01*
X136857541Y-92916976D01*
X136857541Y-92916977D01*
X136667364Y-92990651D01*
X136667357Y-92990655D01*
X136493960Y-93098017D01*
X136493958Y-93098019D01*
X136343237Y-93235418D01*
X136220327Y-93398178D01*
X136129422Y-93580739D01*
X136129417Y-93580752D01*
X136073602Y-93776917D01*
X136054785Y-93979999D01*
X136054785Y-93980000D01*
X135725215Y-93980000D01*
X135706397Y-93776917D01*
X135650582Y-93580750D01*
X135639313Y-93558119D01*
X135600415Y-93480000D01*
X135559673Y-93398179D01*
X135436764Y-93235421D01*
X135436762Y-93235418D01*
X135286041Y-93098019D01*
X135286039Y-93098017D01*
X135112642Y-92990655D01*
X135112635Y-92990651D01*
X134986769Y-92941891D01*
X134922456Y-92916976D01*
X134721976Y-92879500D01*
X134518024Y-92879500D01*
X134317544Y-92916976D01*
X134317541Y-92916976D01*
X134317541Y-92916977D01*
X134127364Y-92990651D01*
X134127357Y-92990655D01*
X133953960Y-93098017D01*
X133953958Y-93098019D01*
X133803237Y-93235418D01*
X133680327Y-93398178D01*
X133589422Y-93580739D01*
X133589417Y-93580752D01*
X133533602Y-93776917D01*
X133514785Y-93979999D01*
X133514785Y-93980000D01*
X133185215Y-93980000D01*
X133166397Y-93776917D01*
X133110582Y-93580750D01*
X133099313Y-93558119D01*
X133060415Y-93480000D01*
X133019673Y-93398179D01*
X132896764Y-93235421D01*
X132896762Y-93235418D01*
X132746041Y-93098019D01*
X132746039Y-93098017D01*
X132572642Y-92990655D01*
X132572635Y-92990651D01*
X132446769Y-92941891D01*
X132382456Y-92916976D01*
X132181976Y-92879500D01*
X131978024Y-92879500D01*
X131777544Y-92916976D01*
X131777541Y-92916976D01*
X131777541Y-92916977D01*
X131587364Y-92990651D01*
X131587357Y-92990655D01*
X131413960Y-93098017D01*
X131413958Y-93098019D01*
X131263237Y-93235418D01*
X131140327Y-93398178D01*
X131049422Y-93580739D01*
X131049417Y-93580752D01*
X130993602Y-93776917D01*
X130974785Y-93979999D01*
X130974785Y-93980000D01*
X130645215Y-93980000D01*
X130626397Y-93776917D01*
X130570582Y-93580750D01*
X130559313Y-93558119D01*
X130520415Y-93480000D01*
X130479673Y-93398179D01*
X130356764Y-93235421D01*
X130356762Y-93235418D01*
X130206041Y-93098019D01*
X130206039Y-93098017D01*
X130032642Y-92990655D01*
X130032635Y-92990651D01*
X129906769Y-92941891D01*
X129842456Y-92916976D01*
X129641976Y-92879500D01*
X129438024Y-92879500D01*
X129237544Y-92916976D01*
X129237541Y-92916976D01*
X129237541Y-92916977D01*
X129047364Y-92990651D01*
X129047357Y-92990655D01*
X128873960Y-93098017D01*
X128873958Y-93098019D01*
X128723237Y-93235418D01*
X128600327Y-93398178D01*
X128509422Y-93580739D01*
X128509417Y-93580752D01*
X128453602Y-93776917D01*
X128434785Y-93979999D01*
X128434785Y-93980000D01*
X128105215Y-93980000D01*
X128086397Y-93776917D01*
X128030582Y-93580750D01*
X128019313Y-93558119D01*
X127980415Y-93480000D01*
X127939673Y-93398179D01*
X127816764Y-93235421D01*
X127816762Y-93235418D01*
X127666041Y-93098019D01*
X127666039Y-93098017D01*
X127492642Y-92990655D01*
X127492635Y-92990651D01*
X127366769Y-92941891D01*
X127302456Y-92916976D01*
X127101976Y-92879500D01*
X126898024Y-92879500D01*
X126697544Y-92916976D01*
X126697541Y-92916976D01*
X126697541Y-92916977D01*
X126581963Y-92961752D01*
X126512339Y-92967614D01*
X126450599Y-92934904D01*
X126449488Y-92933806D01*
X126132637Y-92616955D01*
X126116511Y-92597098D01*
X126111437Y-92589331D01*
X126085487Y-92569133D01*
X126079741Y-92564059D01*
X126077307Y-92561625D01*
X126077306Y-92561624D01*
X126077305Y-92561623D01*
X126070848Y-92557013D01*
X126059561Y-92548955D01*
X126019126Y-92517483D01*
X126019122Y-92517481D01*
X126012648Y-92513977D01*
X126006069Y-92510760D01*
X125956954Y-92496138D01*
X125908486Y-92479498D01*
X125901269Y-92478294D01*
X125893953Y-92477382D01*
X125844725Y-92479419D01*
X125842769Y-92479500D01*
X113872865Y-92479500D01*
X113847419Y-92476861D01*
X113838339Y-92474957D01*
X113838338Y-92474957D01*
X113838336Y-92474957D01*
X113805715Y-92479023D01*
X113798039Y-92479500D01*
X113794614Y-92479500D01*
X113773111Y-92483087D01*
X113722262Y-92489426D01*
X113715224Y-92491521D01*
X113708276Y-92493906D01*
X113663209Y-92518295D01*
X113617166Y-92540803D01*
X113611220Y-92545048D01*
X113605396Y-92549581D01*
X113570696Y-92587275D01*
X112826300Y-93331670D01*
X112764977Y-93365155D01*
X112695285Y-93360171D01*
X112639665Y-93318715D01*
X112576765Y-93235422D01*
X112576763Y-93235419D01*
X112426041Y-93098019D01*
X112426039Y-93098017D01*
X112252642Y-92990655D01*
X112252635Y-92990651D01*
X112126769Y-92941891D01*
X112062456Y-92916976D01*
X111861976Y-92879500D01*
X111658024Y-92879500D01*
X111457544Y-92916976D01*
X111457541Y-92916976D01*
X111457541Y-92916977D01*
X111267364Y-92990651D01*
X111267357Y-92990655D01*
X111093960Y-93098017D01*
X111093958Y-93098019D01*
X110943237Y-93235418D01*
X110820327Y-93398178D01*
X110729422Y-93580739D01*
X110729417Y-93580752D01*
X110673602Y-93776917D01*
X110654785Y-93979999D01*
X110654785Y-93980000D01*
X110673602Y-94183082D01*
X110729417Y-94379247D01*
X110729422Y-94379260D01*
X110820327Y-94561821D01*
X110943237Y-94724581D01*
X111093958Y-94861980D01*
X111093960Y-94861982D01*
X111193141Y-94923392D01*
X111267363Y-94969348D01*
X111457544Y-95043024D01*
X111658024Y-95080500D01*
X111658026Y-95080500D01*
X111711769Y-95080500D01*
X111778808Y-95100185D01*
X111824563Y-95152989D01*
X111834507Y-95222147D01*
X111805482Y-95285703D01*
X111799450Y-95292181D01*
X111533930Y-95557700D01*
X111514081Y-95573821D01*
X111506306Y-95578901D01*
X111486118Y-95604837D01*
X111481042Y-95610587D01*
X111478609Y-95613020D01*
X111478598Y-95613033D01*
X111465929Y-95630777D01*
X111434458Y-95671211D01*
X111430950Y-95677692D01*
X111427735Y-95684271D01*
X111413113Y-95733384D01*
X111396473Y-95781855D01*
X111395269Y-95789072D01*
X111394357Y-95796385D01*
X111396475Y-95847569D01*
X111396475Y-97118813D01*
X111393836Y-97144257D01*
X111391932Y-97153336D01*
X111391932Y-97153342D01*
X111395998Y-97185962D01*
X111396475Y-97193639D01*
X111396475Y-97197065D01*
X111398866Y-97211398D01*
X111400062Y-97218566D01*
X111406402Y-97269418D01*
X111408496Y-97276453D01*
X111411434Y-97285010D01*
X111418154Y-97325277D01*
X111418154Y-101686442D01*
X111415515Y-101711886D01*
X111413611Y-101720965D01*
X111413611Y-101720971D01*
X111417677Y-101753591D01*
X111418154Y-101761268D01*
X111418154Y-101764694D01*
X111419754Y-101774282D01*
X111421741Y-101786195D01*
X111428081Y-101837047D01*
X111430174Y-101844080D01*
X111432562Y-101851035D01*
X111456949Y-101896098D01*
X111479455Y-101942137D01*
X111483719Y-101948109D01*
X111488234Y-101953910D01*
X111525929Y-101988612D01*
X112775137Y-103237819D01*
X112808622Y-103299142D01*
X112803638Y-103368834D01*
X112761766Y-103424767D01*
X112696302Y-103449184D01*
X112687456Y-103449500D01*
X112063615Y-103449500D01*
X112037257Y-103446666D01*
X112032546Y-103445641D01*
X112032542Y-103445641D01*
X111994024Y-103448396D01*
X111980800Y-103449342D01*
X111976378Y-103449500D01*
X111960671Y-103449500D01*
X111945128Y-103451734D01*
X111940732Y-103452207D01*
X111888989Y-103455909D01*
X111888985Y-103455910D01*
X111884458Y-103457598D01*
X111858799Y-103464146D01*
X111854022Y-103464833D01*
X111854015Y-103464835D01*
X111806825Y-103486385D01*
X111802736Y-103488078D01*
X111754147Y-103506200D01*
X111746360Y-103510453D01*
X111744595Y-103507220D01*
X111695143Y-103525434D01*
X111626932Y-103510302D01*
X111577730Y-103460693D01*
X111572245Y-103449168D01*
X111570784Y-103445641D01*
X111522536Y-103329159D01*
X111426282Y-103203718D01*
X111300841Y-103107464D01*
X111289255Y-103102665D01*
X111154762Y-103046956D01*
X111154760Y-103046955D01*
X110998001Y-103026318D01*
X110997999Y-103026318D01*
X110841239Y-103046955D01*
X110841237Y-103046956D01*
X110695160Y-103107463D01*
X110569718Y-103203718D01*
X110473463Y-103329160D01*
X110412956Y-103475237D01*
X110412955Y-103475239D01*
X110392318Y-103631998D01*
X110392318Y-103632001D01*
X110412955Y-103788760D01*
X110415060Y-103796613D01*
X110412525Y-103797292D01*
X110418600Y-103853843D01*
X110387318Y-103916319D01*
X110384262Y-103919486D01*
X110381144Y-103922603D01*
X110381143Y-103922606D01*
X110381141Y-103922608D01*
X110381141Y-103922609D01*
X110373888Y-103936844D01*
X110324981Y-104032827D01*
X110324981Y-104032828D01*
X110310500Y-104124264D01*
X110310500Y-104465733D01*
X110319030Y-104519587D01*
X110318847Y-104521000D01*
X109982000Y-104521000D01*
X109982000Y-106172000D01*
X111633000Y-106172000D01*
X111633000Y-106073311D01*
X111643715Y-106110193D01*
X111643717Y-106110196D01*
X111727314Y-106251552D01*
X111727321Y-106251561D01*
X111843438Y-106367678D01*
X111843447Y-106367685D01*
X111984801Y-106451281D01*
X112142514Y-106497100D01*
X112142511Y-106497100D01*
X112144998Y-106497295D01*
X112145000Y-106497295D01*
X112145000Y-105450000D01*
X111721000Y-105450000D01*
X111702319Y-105468681D01*
X111640996Y-105502166D01*
X111633000Y-105503025D01*
X111633000Y-104953928D01*
X111635004Y-104952834D01*
X111661362Y-104950000D01*
X112521000Y-104950000D01*
X112588039Y-104969685D01*
X112633794Y-105022489D01*
X112645000Y-105074000D01*
X112645000Y-106497295D01*
X112645001Y-106497295D01*
X112647486Y-106497100D01*
X112805198Y-106451281D01*
X112946552Y-106367685D01*
X112946561Y-106367678D01*
X113062678Y-106251561D01*
X113062685Y-106251552D01*
X113088140Y-106208509D01*
X113139208Y-106160825D01*
X113207949Y-106148319D01*
X113268147Y-106173152D01*
X113268759Y-106172311D01*
X113272242Y-106174841D01*
X113272539Y-106174964D01*
X113273085Y-106175454D01*
X113276653Y-106178045D01*
X113276658Y-106178050D01*
X113379453Y-106230427D01*
X113389698Y-106235647D01*
X113483475Y-106250499D01*
X113483481Y-106250500D01*
X113846518Y-106250499D01*
X113940304Y-106235646D01*
X114053342Y-106178050D01*
X114143050Y-106088342D01*
X114189516Y-105997145D01*
X114237490Y-105946352D01*
X114305311Y-105929557D01*
X114371445Y-105952094D01*
X114410482Y-105997145D01*
X114456950Y-106088342D01*
X114546658Y-106178050D01*
X114546659Y-106178050D01*
X114553559Y-106184950D01*
X114551660Y-106186849D01*
X114585268Y-106230427D01*
X114592767Y-106260079D01*
X114594427Y-106273393D01*
X114596520Y-106280426D01*
X114598908Y-106287381D01*
X114623295Y-106332444D01*
X114645801Y-106378483D01*
X114650065Y-106384455D01*
X114654580Y-106390256D01*
X114692275Y-106424958D01*
X115033362Y-106766044D01*
X115049486Y-106785899D01*
X115054563Y-106793669D01*
X115054565Y-106793671D01*
X115080505Y-106813860D01*
X115086268Y-106818950D01*
X115088693Y-106821375D01*
X115088695Y-106821377D01*
X115091386Y-106823298D01*
X115106437Y-106834044D01*
X115146874Y-106865517D01*
X115146878Y-106865518D01*
X115153314Y-106869000D01*
X115153339Y-106869013D01*
X115153371Y-106869030D01*
X115159930Y-106872237D01*
X115159933Y-106872239D01*
X115209037Y-106886858D01*
X115257512Y-106903500D01*
X115257514Y-106903500D01*
X115264754Y-106904708D01*
X115272046Y-106905617D01*
X115323231Y-106903500D01*
X120707456Y-106903500D01*
X120774495Y-106923185D01*
X120795137Y-106939819D01*
X121783780Y-107928462D01*
X121817265Y-107989785D01*
X121812281Y-108059477D01*
X121770409Y-108115410D01*
X121718885Y-108138031D01*
X121617545Y-108156975D01*
X121427364Y-108230651D01*
X121427357Y-108230655D01*
X121253960Y-108338017D01*
X121253958Y-108338019D01*
X121103237Y-108475418D01*
X120980327Y-108638178D01*
X120889422Y-108820739D01*
X120889417Y-108820752D01*
X120833602Y-109016917D01*
X120814785Y-109219999D01*
X120814785Y-109220000D01*
X120833602Y-109423082D01*
X120889419Y-109619253D01*
X120894744Y-109629948D01*
X120907002Y-109698734D01*
X120880125Y-109763227D01*
X120871422Y-109772895D01*
X120661137Y-109983181D01*
X120599814Y-110016666D01*
X120573456Y-110019500D01*
X120404315Y-110019500D01*
X120337276Y-109999815D01*
X120291521Y-109947011D01*
X120281577Y-109877853D01*
X120305361Y-109820773D01*
X120312192Y-109811727D01*
X120319673Y-109801821D01*
X120410582Y-109619250D01*
X120466397Y-109423083D01*
X120485215Y-109220000D01*
X120466397Y-109016917D01*
X120410582Y-108820750D01*
X120395274Y-108790008D01*
X120339029Y-108677052D01*
X120319673Y-108638179D01*
X120196764Y-108475421D01*
X120196762Y-108475418D01*
X120046041Y-108338019D01*
X120046039Y-108338017D01*
X119872642Y-108230655D01*
X119872635Y-108230651D01*
X119728734Y-108174904D01*
X119682456Y-108156976D01*
X119481976Y-108119500D01*
X119278024Y-108119500D01*
X119126739Y-108147779D01*
X119077538Y-108156977D01*
X118961961Y-108201752D01*
X118892338Y-108207614D01*
X118830598Y-108174904D01*
X118829487Y-108173806D01*
X118112638Y-107456958D01*
X118096512Y-107437101D01*
X118091436Y-107429331D01*
X118091435Y-107429330D01*
X118091434Y-107429329D01*
X118065491Y-107409137D01*
X118059727Y-107404046D01*
X118057307Y-107401626D01*
X118039568Y-107388961D01*
X117999122Y-107357481D01*
X117992657Y-107353982D01*
X117986068Y-107350760D01*
X117936953Y-107336138D01*
X117888485Y-107319498D01*
X117881268Y-107318294D01*
X117873952Y-107317382D01*
X117824724Y-107319419D01*
X117822768Y-107319500D01*
X113707192Y-107319500D01*
X113681738Y-107316859D01*
X113672679Y-107314959D01*
X113640048Y-107319024D01*
X113632376Y-107319500D01*
X113628929Y-107319500D01*
X113607428Y-107323087D01*
X113583852Y-107326024D01*
X113576190Y-107326500D01*
X112501602Y-107326500D01*
X112461336Y-107319780D01*
X112460519Y-107319499D01*
X112453299Y-107318294D01*
X112445984Y-107317382D01*
X112396756Y-107319419D01*
X112394800Y-107319500D01*
X110337230Y-107319500D01*
X110270191Y-107299815D01*
X110249549Y-107283181D01*
X109352819Y-106386451D01*
X109319334Y-106325128D01*
X109316500Y-106298770D01*
X109316500Y-103115526D01*
X109319139Y-103090079D01*
X109319430Y-103088692D01*
X109321043Y-103081000D01*
X109317192Y-103050104D01*
X109316977Y-103048376D01*
X109316500Y-103040700D01*
X109316500Y-103037275D01*
X109312912Y-103015773D01*
X109311507Y-103004500D01*
X109306573Y-102964922D01*
X109306571Y-102964918D01*
X109304502Y-102957968D01*
X109304470Y-102957874D01*
X109304444Y-102957787D01*
X109302091Y-102950932D01*
X109277704Y-102905870D01*
X109255199Y-102859833D01*
X109250919Y-102853839D01*
X109246419Y-102848058D01*
X109208724Y-102813356D01*
X107938819Y-101543451D01*
X107905334Y-101482128D01*
X107902500Y-101455770D01*
X107902500Y-101268208D01*
X107905139Y-101242760D01*
X107907042Y-101233684D01*
X107904023Y-101209472D01*
X107902975Y-101201067D01*
X107902499Y-101193392D01*
X107902500Y-101189960D01*
X107898910Y-101168449D01*
X107892573Y-101117607D01*
X107892572Y-101117604D01*
X107890518Y-101110704D01*
X107890475Y-101110579D01*
X107890437Y-101110453D01*
X107888092Y-101103618D01*
X107863704Y-101058555D01*
X107841199Y-101012518D01*
X107836919Y-101006524D01*
X107832419Y-101000743D01*
X107794724Y-100966041D01*
X107746398Y-100917716D01*
X107707632Y-100878950D01*
X107691511Y-100859098D01*
X107686437Y-100851331D01*
X107660487Y-100831133D01*
X107654741Y-100826059D01*
X107652307Y-100823625D01*
X107652306Y-100823624D01*
X107652305Y-100823623D01*
X107639736Y-100814650D01*
X107634561Y-100810955D01*
X107594126Y-100779483D01*
X107594122Y-100779481D01*
X107587648Y-100775977D01*
X107581069Y-100772760D01*
X107531954Y-100758138D01*
X107483485Y-100741498D01*
X107476435Y-100740322D01*
X107413550Y-100709871D01*
X107396520Y-100687206D01*
X107395046Y-100688259D01*
X107389075Y-100679896D01*
X107298102Y-100588923D01*
X107298099Y-100588921D01*
X107182521Y-100532419D01*
X107182519Y-100532418D01*
X107182518Y-100532418D01*
X107107582Y-100521500D01*
X106764418Y-100521500D01*
X106689482Y-100532418D01*
X106689480Y-100532418D01*
X106689478Y-100532419D01*
X106573900Y-100588921D01*
X106573897Y-100588923D01*
X106513681Y-100649140D01*
X106452358Y-100682625D01*
X106382666Y-100677641D01*
X106338319Y-100649140D01*
X106278102Y-100588923D01*
X106278099Y-100588921D01*
X106162521Y-100532419D01*
X106162519Y-100532418D01*
X106162518Y-100532418D01*
X106087582Y-100521500D01*
X105744418Y-100521500D01*
X105690892Y-100529298D01*
X105669480Y-100532418D01*
X105566181Y-100582918D01*
X105497307Y-100594676D01*
X105433011Y-100567333D01*
X105393704Y-100509568D01*
X105391866Y-100439723D01*
X105413345Y-100396031D01*
X105426536Y-100378841D01*
X105487044Y-100232762D01*
X105505318Y-100093960D01*
X105507682Y-100076001D01*
X105507682Y-100075998D01*
X105487044Y-99919239D01*
X105487044Y-99919238D01*
X105426536Y-99773159D01*
X105426535Y-99773158D01*
X105426535Y-99773157D01*
X105389224Y-99724533D01*
X105364029Y-99659364D01*
X105378067Y-99590919D01*
X105426881Y-99540929D01*
X105474191Y-99525773D01*
X105518505Y-99520954D01*
X105688662Y-99463622D01*
X105842517Y-99371050D01*
X105972875Y-99247569D01*
X106073640Y-99098951D01*
X106140101Y-98932147D01*
X106148801Y-98879077D01*
X108868318Y-98879077D01*
X108888955Y-99035836D01*
X108888956Y-99035838D01*
X108943582Y-99167718D01*
X108949464Y-99181917D01*
X109045718Y-99307358D01*
X109171159Y-99403612D01*
X109317238Y-99464120D01*
X109364317Y-99470318D01*
X109473999Y-99484758D01*
X109474000Y-99484758D01*
X109474001Y-99484758D01*
X109526253Y-99477878D01*
X109630762Y-99464120D01*
X109776841Y-99403612D01*
X109902282Y-99307358D01*
X109998536Y-99181917D01*
X110059044Y-99035838D01*
X110073899Y-98923000D01*
X110079682Y-98879077D01*
X110079682Y-98879074D01*
X110061779Y-98743091D01*
X110059044Y-98722314D01*
X109998536Y-98576235D01*
X109902282Y-98450794D01*
X109776841Y-98354540D01*
X109695996Y-98321053D01*
X109630762Y-98294032D01*
X109630760Y-98294031D01*
X109474001Y-98273394D01*
X109473999Y-98273394D01*
X109317239Y-98294031D01*
X109317237Y-98294032D01*
X109171160Y-98354539D01*
X109045718Y-98450794D01*
X108949463Y-98576236D01*
X108888956Y-98722313D01*
X108888955Y-98722315D01*
X108868318Y-98879074D01*
X108868318Y-98879077D01*
X106148801Y-98879077D01*
X106169150Y-98754955D01*
X106159429Y-98575661D01*
X106159428Y-98575656D01*
X106120979Y-98437173D01*
X106122011Y-98367311D01*
X106160650Y-98309097D01*
X106224627Y-98281015D01*
X106240459Y-98280000D01*
X106440713Y-98280000D01*
X106592338Y-98264581D01*
X106786381Y-98203700D01*
X106786391Y-98203695D01*
X106964215Y-98104994D01*
X106964216Y-98104994D01*
X107118530Y-97972521D01*
X107118531Y-97972520D01*
X107243018Y-97811695D01*
X107332588Y-97629093D01*
X107358246Y-97530000D01*
X106794979Y-97530000D01*
X106727940Y-97510315D01*
X106682185Y-97457511D01*
X106672241Y-97388353D01*
X106675713Y-97372066D01*
X106693894Y-97308162D01*
X106693895Y-97308160D01*
X106689187Y-97257353D01*
X106683546Y-97196479D01*
X106683544Y-97196475D01*
X106681115Y-97187937D01*
X106681701Y-97118070D01*
X106719966Y-97059610D01*
X106783763Y-97031119D01*
X106800381Y-97030000D01*
X107363366Y-97030000D01*
X107363068Y-97028053D01*
X107363066Y-97028047D01*
X107292437Y-96837342D01*
X107292434Y-96837335D01*
X107184850Y-96664732D01*
X107044735Y-96517331D01*
X107044733Y-96517330D01*
X106877804Y-96401143D01*
X106690907Y-96320940D01*
X106491690Y-96280000D01*
X106090000Y-96280000D01*
X106090000Y-96856000D01*
X106070315Y-96923039D01*
X106017511Y-96968794D01*
X105966000Y-96980000D01*
X105714000Y-96980000D01*
X105646961Y-96960315D01*
X105601206Y-96907511D01*
X105590000Y-96856000D01*
X105590000Y-96280000D01*
X105239287Y-96280000D01*
X105087661Y-96295418D01*
X104893618Y-96356299D01*
X104893608Y-96356304D01*
X104715784Y-96455005D01*
X104715783Y-96455005D01*
X104561469Y-96587478D01*
X104561468Y-96587479D01*
X104436981Y-96748304D01*
X104347411Y-96930906D01*
X104321754Y-97030000D01*
X104885021Y-97030000D01*
X104952060Y-97049685D01*
X104997815Y-97102489D01*
X105007759Y-97171647D01*
X105004287Y-97187934D01*
X104986105Y-97251837D01*
X104986104Y-97251837D01*
X104996453Y-97363517D01*
X104998885Y-97372063D01*
X104998299Y-97441930D01*
X104960034Y-97500390D01*
X104896237Y-97528881D01*
X104879619Y-97530000D01*
X104316634Y-97530000D01*
X104316931Y-97531946D01*
X104316933Y-97531952D01*
X104387562Y-97722657D01*
X104387565Y-97722664D01*
X104495149Y-97895267D01*
X104635264Y-98042668D01*
X104635268Y-98042671D01*
X104643322Y-98048277D01*
X104687100Y-98102731D01*
X104694488Y-98172209D01*
X104675118Y-98219637D01*
X104606358Y-98321051D01*
X104606357Y-98321053D01*
X104539900Y-98487847D01*
X104539899Y-98487852D01*
X104539899Y-98487853D01*
X104515725Y-98635313D01*
X104510850Y-98665048D01*
X104520571Y-98844338D01*
X104520571Y-98844343D01*
X104568605Y-99017348D01*
X104568608Y-99017354D01*
X104652714Y-99175993D01*
X104764521Y-99307622D01*
X104792919Y-99371460D01*
X104782295Y-99440518D01*
X104736022Y-99492869D01*
X104717466Y-99502459D01*
X104599154Y-99551465D01*
X104592599Y-99555250D01*
X104524698Y-99571716D01*
X104476149Y-99559258D01*
X104388519Y-99516418D01*
X104376028Y-99514598D01*
X104313582Y-99505500D01*
X103970418Y-99505500D01*
X103895482Y-99516418D01*
X103895481Y-99516418D01*
X103895476Y-99516419D01*
X103886280Y-99519261D01*
X103885694Y-99517367D01*
X103828873Y-99527065D01*
X103764578Y-99499717D01*
X103755613Y-99491587D01*
X103649294Y-99385268D01*
X103649285Y-99385261D01*
X103511191Y-99303593D01*
X103511188Y-99303591D01*
X103372001Y-99263153D01*
X103372000Y-99263154D01*
X103372000Y-100888843D01*
X103511194Y-100848404D01*
X103649285Y-100766738D01*
X103649290Y-100766734D01*
X103755612Y-100660412D01*
X103816935Y-100626927D01*
X103886627Y-100631911D01*
X103894372Y-100635239D01*
X103895475Y-100635580D01*
X103895479Y-100635580D01*
X103895482Y-100635582D01*
X103970418Y-100646500D01*
X103970423Y-100646500D01*
X104250976Y-100646500D01*
X104318015Y-100666185D01*
X104363770Y-100718989D01*
X104373714Y-100788147D01*
X104365537Y-100817952D01*
X104316957Y-100935234D01*
X104316955Y-100935239D01*
X104296318Y-101091998D01*
X104296318Y-101092001D01*
X104316955Y-101248760D01*
X104316956Y-101248762D01*
X104377464Y-101394842D01*
X104476965Y-101524514D01*
X104502159Y-101589683D01*
X104488121Y-101658128D01*
X104476965Y-101675486D01*
X104377464Y-101805157D01*
X104316956Y-101951237D01*
X104316955Y-101951239D01*
X104296318Y-102107998D01*
X104296318Y-102108001D01*
X104316955Y-102264760D01*
X104316957Y-102264765D01*
X104365537Y-102382048D01*
X104373006Y-102451517D01*
X104341731Y-102513996D01*
X104281642Y-102549648D01*
X104250976Y-102553500D01*
X103970418Y-102553500D01*
X103895482Y-102564418D01*
X103895481Y-102564418D01*
X103895476Y-102564419D01*
X103886280Y-102567261D01*
X103885694Y-102565367D01*
X103828873Y-102575065D01*
X103764578Y-102547717D01*
X103755613Y-102539587D01*
X103649294Y-102433268D01*
X103649285Y-102433261D01*
X103511191Y-102351593D01*
X103511188Y-102351591D01*
X103372001Y-102311153D01*
X103372000Y-102311154D01*
X103372000Y-103936843D01*
X103511194Y-103896404D01*
X103649285Y-103814738D01*
X103649290Y-103814734D01*
X103755612Y-103708412D01*
X103816935Y-103674927D01*
X103886627Y-103679911D01*
X103894372Y-103683239D01*
X103895475Y-103683580D01*
X103895479Y-103683580D01*
X103895482Y-103683582D01*
X103970418Y-103694500D01*
X103970423Y-103694500D01*
X104313577Y-103694500D01*
X104313582Y-103694500D01*
X104388518Y-103683582D01*
X104476150Y-103640740D01*
X104545022Y-103628981D01*
X104592616Y-103644757D01*
X104599154Y-103648532D01*
X104599159Y-103648536D01*
X104720906Y-103698965D01*
X104775309Y-103742806D01*
X104797374Y-103809100D01*
X104780095Y-103876799D01*
X104758728Y-103903549D01*
X104707124Y-103952431D01*
X104707123Y-103952431D01*
X104606358Y-104101051D01*
X104606357Y-104101053D01*
X104539900Y-104267847D01*
X104539899Y-104267852D01*
X104539899Y-104267853D01*
X104511212Y-104442841D01*
X104510850Y-104445048D01*
X104520571Y-104624338D01*
X104520571Y-104624343D01*
X104568605Y-104797348D01*
X104568608Y-104797354D01*
X104652714Y-104955993D01*
X104667738Y-104973680D01*
X104696137Y-105037518D01*
X104685513Y-105106575D01*
X104654001Y-105148043D01*
X104561470Y-105227478D01*
X104561468Y-105227479D01*
X104436981Y-105388304D01*
X104347411Y-105570906D01*
X104321754Y-105670000D01*
X104885021Y-105670000D01*
X104952060Y-105689685D01*
X104997815Y-105742489D01*
X105007759Y-105811647D01*
X105004287Y-105827934D01*
X104986105Y-105891837D01*
X104986104Y-105891837D01*
X104996453Y-106003517D01*
X104998885Y-106012063D01*
X104998299Y-106081930D01*
X104960034Y-106140390D01*
X104896237Y-106168881D01*
X104879619Y-106170000D01*
X104316634Y-106170000D01*
X104316931Y-106171946D01*
X104316933Y-106171952D01*
X104387562Y-106362657D01*
X104387565Y-106362664D01*
X104495149Y-106535267D01*
X104635264Y-106682668D01*
X104635266Y-106682669D01*
X104802195Y-106798856D01*
X104989092Y-106879059D01*
X105188310Y-106920000D01*
X105590000Y-106920000D01*
X105590000Y-106344000D01*
X105609685Y-106276961D01*
X105662489Y-106231206D01*
X105714000Y-106220000D01*
X105966000Y-106220000D01*
X106033039Y-106239685D01*
X106078794Y-106292489D01*
X106090000Y-106344000D01*
X106090000Y-106920000D01*
X106440713Y-106920000D01*
X106592338Y-106904581D01*
X106786381Y-106843700D01*
X106786391Y-106843695D01*
X106964215Y-106744994D01*
X106964216Y-106744994D01*
X107118530Y-106612521D01*
X107118531Y-106612520D01*
X107243018Y-106451695D01*
X107332588Y-106269093D01*
X107358246Y-106170000D01*
X106794979Y-106170000D01*
X106727940Y-106150315D01*
X106682185Y-106097511D01*
X106672241Y-106028353D01*
X106675713Y-106012066D01*
X106689346Y-105964147D01*
X106693895Y-105948160D01*
X106683546Y-105836479D01*
X106683544Y-105836475D01*
X106681115Y-105827937D01*
X106681701Y-105758070D01*
X106719966Y-105699610D01*
X106783763Y-105671119D01*
X106800381Y-105670000D01*
X107363366Y-105670000D01*
X107363068Y-105668053D01*
X107363066Y-105668047D01*
X107292437Y-105477342D01*
X107292434Y-105477335D01*
X107184850Y-105304732D01*
X107044735Y-105157331D01*
X107044733Y-105157330D01*
X106877804Y-105041143D01*
X106690907Y-104960940D01*
X106491690Y-104920000D01*
X106240172Y-104920000D01*
X106173133Y-104900315D01*
X106127378Y-104847511D01*
X106117434Y-104778353D01*
X106124979Y-104750104D01*
X106140099Y-104712153D01*
X106140099Y-104712151D01*
X106140101Y-104712147D01*
X106169150Y-104534955D01*
X106159429Y-104355661D01*
X106159428Y-104355656D01*
X106111394Y-104182651D01*
X106111391Y-104182645D01*
X106027285Y-104024006D01*
X105911044Y-103887157D01*
X105845274Y-103837160D01*
X105768099Y-103778493D01*
X105605138Y-103703099D01*
X105605134Y-103703097D01*
X105461399Y-103671460D01*
X105400158Y-103637824D01*
X105366824Y-103576419D01*
X105371980Y-103506740D01*
X105389676Y-103474877D01*
X105426536Y-103426841D01*
X105487044Y-103280762D01*
X105506354Y-103134085D01*
X105507682Y-103124001D01*
X105507682Y-103123998D01*
X105489253Y-102984019D01*
X105487044Y-102967238D01*
X105426536Y-102821159D01*
X105426535Y-102821158D01*
X105426535Y-102821157D01*
X105413346Y-102803969D01*
X105388151Y-102738800D01*
X105402189Y-102670355D01*
X105451003Y-102620365D01*
X105519094Y-102604701D01*
X105566181Y-102617082D01*
X105663871Y-102664839D01*
X105669482Y-102667582D01*
X105744418Y-102678500D01*
X105744423Y-102678500D01*
X106087577Y-102678500D01*
X106087582Y-102678500D01*
X106162518Y-102667582D01*
X106229347Y-102634911D01*
X106278099Y-102611078D01*
X106278102Y-102611076D01*
X106338319Y-102550860D01*
X106399642Y-102517375D01*
X106469334Y-102522359D01*
X106513681Y-102550860D01*
X106573897Y-102611076D01*
X106573900Y-102611078D01*
X106683871Y-102664839D01*
X106689482Y-102667582D01*
X106764418Y-102678500D01*
X106764423Y-102678500D01*
X107107577Y-102678500D01*
X107107582Y-102678500D01*
X107182518Y-102667582D01*
X107298102Y-102611076D01*
X107298107Y-102611070D01*
X107300885Y-102609088D01*
X107305336Y-102607540D01*
X107307334Y-102606564D01*
X107307451Y-102606805D01*
X107366881Y-102586145D01*
X107434803Y-102602524D01*
X107460632Y-102622315D01*
X108179180Y-103340862D01*
X108212665Y-103402185D01*
X108215499Y-103428543D01*
X108215500Y-106611787D01*
X108212861Y-106637231D01*
X108210957Y-106646310D01*
X108210957Y-106646316D01*
X108215023Y-106678936D01*
X108215500Y-106686613D01*
X108215500Y-106690039D01*
X108216584Y-106696536D01*
X108219087Y-106711540D01*
X108225427Y-106762392D01*
X108227520Y-106769425D01*
X108229908Y-106776380D01*
X108254295Y-106821443D01*
X108276801Y-106867482D01*
X108281065Y-106873454D01*
X108285580Y-106879255D01*
X108323275Y-106913957D01*
X109317138Y-107907819D01*
X109350623Y-107969142D01*
X109345639Y-108038833D01*
X109303767Y-108094767D01*
X109238303Y-108119184D01*
X109229457Y-108119500D01*
X109118024Y-108119500D01*
X108917544Y-108156976D01*
X108917541Y-108156976D01*
X108917541Y-108156977D01*
X108727364Y-108230651D01*
X108727357Y-108230655D01*
X108553960Y-108338017D01*
X108553958Y-108338019D01*
X108403237Y-108475418D01*
X108280327Y-108638178D01*
X108189422Y-108820739D01*
X108189417Y-108820752D01*
X108133602Y-109016917D01*
X108114785Y-109219999D01*
X108114785Y-109220000D01*
X108133602Y-109423082D01*
X108189417Y-109619247D01*
X108189422Y-109619260D01*
X108280327Y-109801821D01*
X108403237Y-109964581D01*
X108553958Y-110101980D01*
X108553960Y-110101982D01*
X108653141Y-110163392D01*
X108727363Y-110209348D01*
X108917544Y-110283024D01*
X109118024Y-110320500D01*
X109118026Y-110320500D01*
X109321974Y-110320500D01*
X109321976Y-110320500D01*
X109522456Y-110283024D01*
X109712637Y-110209348D01*
X109886041Y-110101981D01*
X110036764Y-109964579D01*
X110159673Y-109801821D01*
X110250582Y-109619250D01*
X110306397Y-109423083D01*
X110325215Y-109220000D01*
X110306397Y-109016917D01*
X110250582Y-108820750D01*
X110235274Y-108790008D01*
X110179029Y-108677052D01*
X110159673Y-108638179D01*
X110145360Y-108619226D01*
X110120669Y-108553866D01*
X110135234Y-108485531D01*
X110184431Y-108435919D01*
X110244315Y-108420500D01*
X110735685Y-108420500D01*
X110802724Y-108440185D01*
X110848479Y-108492989D01*
X110858423Y-108562147D01*
X110834639Y-108619227D01*
X110820327Y-108638178D01*
X110729422Y-108820739D01*
X110729417Y-108820752D01*
X110673602Y-109016917D01*
X110654785Y-109219999D01*
X110654785Y-109220000D01*
X110673602Y-109423082D01*
X110729417Y-109619247D01*
X110729422Y-109619260D01*
X110820327Y-109801821D01*
X110943237Y-109964581D01*
X111093958Y-110101980D01*
X111093960Y-110101982D01*
X111193141Y-110163392D01*
X111267363Y-110209348D01*
X111457544Y-110283024D01*
X111658024Y-110320500D01*
X111658026Y-110320500D01*
X111861974Y-110320500D01*
X111861976Y-110320500D01*
X112062456Y-110283024D01*
X112252637Y-110209348D01*
X112426041Y-110101981D01*
X112576764Y-109964579D01*
X112699673Y-109801821D01*
X112790582Y-109619250D01*
X112846397Y-109423083D01*
X112865215Y-109220000D01*
X112846397Y-109016917D01*
X112790582Y-108820750D01*
X112775274Y-108790008D01*
X112699672Y-108638177D01*
X112690648Y-108626228D01*
X112665955Y-108560867D01*
X112680519Y-108492532D01*
X112729716Y-108442919D01*
X112789601Y-108427500D01*
X113270399Y-108427500D01*
X113337438Y-108447185D01*
X113383193Y-108499989D01*
X113393137Y-108569147D01*
X113369352Y-108626228D01*
X113360327Y-108638177D01*
X113269422Y-108820739D01*
X113269417Y-108820752D01*
X113213602Y-109016917D01*
X113194785Y-109219999D01*
X113194785Y-109220000D01*
X113213602Y-109423082D01*
X113269417Y-109619247D01*
X113269422Y-109619260D01*
X113360327Y-109801821D01*
X113483237Y-109964581D01*
X113633958Y-110101980D01*
X113633960Y-110101982D01*
X113733141Y-110163392D01*
X113807363Y-110209348D01*
X113997544Y-110283024D01*
X114198024Y-110320500D01*
X114198026Y-110320500D01*
X114401974Y-110320500D01*
X114401976Y-110320500D01*
X114602456Y-110283024D01*
X114792637Y-110209348D01*
X114966041Y-110101981D01*
X115116764Y-109964579D01*
X115239673Y-109801821D01*
X115330582Y-109619250D01*
X115386397Y-109423083D01*
X115405215Y-109220000D01*
X115386397Y-109016917D01*
X115330582Y-108820750D01*
X115315274Y-108790008D01*
X115239672Y-108638177D01*
X115230648Y-108626228D01*
X115205955Y-108560867D01*
X115220519Y-108492532D01*
X115269716Y-108442919D01*
X115329601Y-108427500D01*
X115810399Y-108427500D01*
X115877438Y-108447185D01*
X115923193Y-108499989D01*
X115933137Y-108569147D01*
X115909352Y-108626228D01*
X115900327Y-108638177D01*
X115809422Y-108820739D01*
X115809417Y-108820752D01*
X115753602Y-109016917D01*
X115734785Y-109219999D01*
X115734785Y-109220000D01*
X115753602Y-109423082D01*
X115809417Y-109619247D01*
X115809422Y-109619260D01*
X115900327Y-109801821D01*
X116023237Y-109964581D01*
X116173958Y-110101980D01*
X116173960Y-110101982D01*
X116273141Y-110163392D01*
X116347363Y-110209348D01*
X116537544Y-110283024D01*
X116738024Y-110320500D01*
X116738026Y-110320500D01*
X116941974Y-110320500D01*
X116941976Y-110320500D01*
X117142456Y-110283024D01*
X117332637Y-110209348D01*
X117506041Y-110101981D01*
X117656764Y-109964579D01*
X117725831Y-109873118D01*
X117781940Y-109831483D01*
X117851652Y-109826792D01*
X117912834Y-109860534D01*
X117936183Y-109893382D01*
X117940802Y-109902830D01*
X117940803Y-109902831D01*
X117940804Y-109902833D01*
X117945065Y-109908801D01*
X117949580Y-109914602D01*
X117987275Y-109949304D01*
X118621016Y-110583044D01*
X118637143Y-110602902D01*
X118642217Y-110610669D01*
X118642219Y-110610671D01*
X118644857Y-110612724D01*
X118668157Y-110630859D01*
X118668159Y-110630860D01*
X118673922Y-110635950D01*
X118676348Y-110638376D01*
X118694095Y-110651047D01*
X118734528Y-110682517D01*
X118734529Y-110682517D01*
X118734530Y-110682518D01*
X118740986Y-110686012D01*
X118747584Y-110689238D01*
X118747586Y-110689238D01*
X118747588Y-110689240D01*
X118783486Y-110699927D01*
X118796696Y-110703860D01*
X118803198Y-110706092D01*
X118845166Y-110720500D01*
X118845169Y-110720500D01*
X118852408Y-110721708D01*
X118859701Y-110722617D01*
X118910896Y-110720500D01*
X120720789Y-110720500D01*
X120746234Y-110723138D01*
X120755315Y-110725043D01*
X120771005Y-110723087D01*
X120787939Y-110720977D01*
X120795615Y-110720500D01*
X120799035Y-110720500D01*
X120799040Y-110720500D01*
X120802608Y-110719904D01*
X120820539Y-110716913D01*
X120847958Y-110713494D01*
X120871393Y-110710573D01*
X120871402Y-110710568D01*
X120878451Y-110708470D01*
X120885377Y-110706092D01*
X120885381Y-110706092D01*
X120930444Y-110681704D01*
X120976484Y-110659198D01*
X120976487Y-110659194D01*
X120982453Y-110654935D01*
X120988254Y-110650419D01*
X120988258Y-110650418D01*
X121022957Y-110612724D01*
X121369489Y-110266191D01*
X121430810Y-110232708D01*
X121500501Y-110237692D01*
X121501962Y-110238248D01*
X121617536Y-110283021D01*
X121617544Y-110283024D01*
X121818024Y-110320500D01*
X121818026Y-110320500D01*
X122021974Y-110320500D01*
X122021976Y-110320500D01*
X122222456Y-110283024D01*
X122412637Y-110209348D01*
X122586041Y-110101981D01*
X122736764Y-109964579D01*
X122799667Y-109881281D01*
X122855773Y-109839648D01*
X122925485Y-109834955D01*
X122986300Y-109868329D01*
X123701016Y-110583044D01*
X123717140Y-110602899D01*
X123722217Y-110610669D01*
X123748159Y-110630860D01*
X123753914Y-110635942D01*
X123756347Y-110638375D01*
X123774088Y-110651041D01*
X123814528Y-110682517D01*
X123814530Y-110682517D01*
X123820902Y-110685966D01*
X123820959Y-110685994D01*
X123821032Y-110686033D01*
X123827583Y-110689235D01*
X123827588Y-110689239D01*
X123876687Y-110703856D01*
X123925166Y-110720500D01*
X123925174Y-110720500D01*
X123932359Y-110721699D01*
X123932392Y-110721704D01*
X123932446Y-110721713D01*
X123939700Y-110722617D01*
X123990885Y-110720500D01*
X128340789Y-110720500D01*
X128366234Y-110723138D01*
X128375315Y-110725043D01*
X128391005Y-110723087D01*
X128407939Y-110720977D01*
X128415615Y-110720500D01*
X128419035Y-110720500D01*
X128419040Y-110720500D01*
X128422608Y-110719904D01*
X128440539Y-110716913D01*
X128467958Y-110713494D01*
X128491393Y-110710573D01*
X128491402Y-110710568D01*
X128498451Y-110708470D01*
X128505377Y-110706092D01*
X128505381Y-110706092D01*
X128550444Y-110681704D01*
X128596484Y-110659198D01*
X128596487Y-110659194D01*
X128602453Y-110654935D01*
X128608254Y-110650419D01*
X128608258Y-110650418D01*
X128642957Y-110612724D01*
X128989489Y-110266191D01*
X129050810Y-110232708D01*
X129120501Y-110237692D01*
X129121962Y-110238248D01*
X129237536Y-110283021D01*
X129237544Y-110283024D01*
X129438024Y-110320500D01*
X129438026Y-110320500D01*
X129641974Y-110320500D01*
X129641976Y-110320500D01*
X129842456Y-110283024D01*
X130032637Y-110209348D01*
X130206041Y-110101981D01*
X130356764Y-109964579D01*
X130479673Y-109801821D01*
X130570582Y-109619250D01*
X130626397Y-109423083D01*
X130645215Y-109220000D01*
X130626397Y-109016917D01*
X130570582Y-108820750D01*
X130555274Y-108790008D01*
X130499029Y-108677052D01*
X130479673Y-108638179D01*
X130465360Y-108619226D01*
X130440669Y-108553866D01*
X130455234Y-108485531D01*
X130504431Y-108435919D01*
X130564315Y-108420500D01*
X131055685Y-108420500D01*
X131122724Y-108440185D01*
X131168479Y-108492989D01*
X131178423Y-108562147D01*
X131154639Y-108619227D01*
X131140327Y-108638178D01*
X131049422Y-108820739D01*
X131049417Y-108820752D01*
X130993602Y-109016917D01*
X130974785Y-109219999D01*
X130974785Y-109220000D01*
X130993602Y-109423082D01*
X131049417Y-109619247D01*
X131049422Y-109619260D01*
X131140327Y-109801821D01*
X131263237Y-109964581D01*
X131413958Y-110101980D01*
X131413960Y-110101982D01*
X131513141Y-110163392D01*
X131587363Y-110209348D01*
X131777544Y-110283024D01*
X131978024Y-110320500D01*
X131978026Y-110320500D01*
X132181974Y-110320500D01*
X132181976Y-110320500D01*
X132382456Y-110283024D01*
X132572637Y-110209348D01*
X132746041Y-110101981D01*
X132896764Y-109964579D01*
X133019673Y-109801821D01*
X133110582Y-109619250D01*
X133166397Y-109423083D01*
X133185215Y-109220000D01*
X133166397Y-109016917D01*
X133110582Y-108820750D01*
X133095274Y-108790008D01*
X133039029Y-108677052D01*
X133019673Y-108638179D01*
X133005360Y-108619226D01*
X132980669Y-108553866D01*
X132995234Y-108485531D01*
X133044431Y-108435919D01*
X133104315Y-108420500D01*
X133595685Y-108420500D01*
X133662724Y-108440185D01*
X133708479Y-108492989D01*
X133718423Y-108562147D01*
X133694639Y-108619227D01*
X133680327Y-108638178D01*
X133589422Y-108820739D01*
X133589417Y-108820752D01*
X133533602Y-109016917D01*
X133514785Y-109219999D01*
X133514785Y-109220000D01*
X133533602Y-109423082D01*
X133589417Y-109619247D01*
X133589422Y-109619260D01*
X133680327Y-109801821D01*
X133803237Y-109964581D01*
X133953958Y-110101980D01*
X133953960Y-110101982D01*
X134053141Y-110163392D01*
X134127363Y-110209348D01*
X134317544Y-110283024D01*
X134518024Y-110320500D01*
X134518026Y-110320500D01*
X134721974Y-110320500D01*
X134721976Y-110320500D01*
X134922456Y-110283024D01*
X135112637Y-110209348D01*
X135286041Y-110101981D01*
X135436764Y-109964579D01*
X135559673Y-109801821D01*
X135650582Y-109619250D01*
X135706397Y-109423083D01*
X135725215Y-109220000D01*
X135706397Y-109016917D01*
X135650582Y-108820750D01*
X135635274Y-108790008D01*
X135579029Y-108677052D01*
X135559673Y-108638179D01*
X135545360Y-108619226D01*
X135520669Y-108553866D01*
X135535234Y-108485531D01*
X135584431Y-108435919D01*
X135644315Y-108420500D01*
X136135685Y-108420500D01*
X136202724Y-108440185D01*
X136248479Y-108492989D01*
X136258423Y-108562147D01*
X136234639Y-108619227D01*
X136220327Y-108638178D01*
X136129422Y-108820739D01*
X136129417Y-108820752D01*
X136073602Y-109016917D01*
X136054785Y-109219999D01*
X136054785Y-109220000D01*
X136073602Y-109423082D01*
X136129417Y-109619247D01*
X136129422Y-109619260D01*
X136220327Y-109801821D01*
X136343237Y-109964581D01*
X136493958Y-110101980D01*
X136493960Y-110101982D01*
X136593141Y-110163392D01*
X136667363Y-110209348D01*
X136857544Y-110283024D01*
X137058024Y-110320500D01*
X137058026Y-110320500D01*
X137261974Y-110320500D01*
X137261976Y-110320500D01*
X137462456Y-110283024D01*
X137652637Y-110209348D01*
X137826041Y-110101981D01*
X137976764Y-109964579D01*
X138099673Y-109801821D01*
X138190582Y-109619250D01*
X138246397Y-109423083D01*
X138265215Y-109220000D01*
X138246397Y-109016917D01*
X138190582Y-108820750D01*
X138175274Y-108790008D01*
X138119029Y-108677052D01*
X138099673Y-108638179D01*
X138085360Y-108619226D01*
X138060669Y-108553866D01*
X138075234Y-108485531D01*
X138124431Y-108435919D01*
X138184315Y-108420500D01*
X138675685Y-108420500D01*
X138742724Y-108440185D01*
X138788479Y-108492989D01*
X138798423Y-108562147D01*
X138774639Y-108619227D01*
X138760327Y-108638178D01*
X138669422Y-108820739D01*
X138669417Y-108820752D01*
X138613602Y-109016917D01*
X138594785Y-109219999D01*
X138594785Y-109220000D01*
X138613602Y-109423082D01*
X138669417Y-109619247D01*
X138669422Y-109619260D01*
X138760327Y-109801821D01*
X138883237Y-109964581D01*
X139033958Y-110101980D01*
X139033960Y-110101982D01*
X139133141Y-110163392D01*
X139207363Y-110209348D01*
X139397544Y-110283024D01*
X139598024Y-110320500D01*
X139598026Y-110320500D01*
X139801974Y-110320500D01*
X139801976Y-110320500D01*
X140002456Y-110283024D01*
X140192637Y-110209348D01*
X140366041Y-110101981D01*
X140516764Y-109964579D01*
X140639673Y-109801821D01*
X140730582Y-109619250D01*
X140786397Y-109423083D01*
X140805215Y-109220000D01*
X140786397Y-109016917D01*
X140730582Y-108820750D01*
X140715274Y-108790008D01*
X140659029Y-108677052D01*
X140639673Y-108638179D01*
X140625360Y-108619226D01*
X140600669Y-108553866D01*
X140615234Y-108485531D01*
X140664431Y-108435919D01*
X140724315Y-108420500D01*
X141215685Y-108420500D01*
X141282724Y-108440185D01*
X141328479Y-108492989D01*
X141338423Y-108562147D01*
X141314639Y-108619227D01*
X141300327Y-108638178D01*
X141209422Y-108820739D01*
X141209417Y-108820752D01*
X141153602Y-109016917D01*
X141134785Y-109219999D01*
X141134785Y-109220000D01*
X141153602Y-109423082D01*
X141209417Y-109619247D01*
X141209422Y-109619260D01*
X141300327Y-109801821D01*
X141423237Y-109964581D01*
X141573958Y-110101980D01*
X141573960Y-110101982D01*
X141673141Y-110163392D01*
X141747363Y-110209348D01*
X141937544Y-110283024D01*
X142138024Y-110320500D01*
X142138026Y-110320500D01*
X142341974Y-110320500D01*
X142341976Y-110320500D01*
X142542456Y-110283024D01*
X142732637Y-110209348D01*
X142906041Y-110101981D01*
X143056764Y-109964579D01*
X143179673Y-109801821D01*
X143270582Y-109619250D01*
X143326397Y-109423083D01*
X143345215Y-109220000D01*
X143326397Y-109016917D01*
X143270582Y-108820750D01*
X143255274Y-108790008D01*
X143199029Y-108677052D01*
X143179673Y-108638179D01*
X143165360Y-108619226D01*
X143140669Y-108553866D01*
X143155234Y-108485531D01*
X143204431Y-108435919D01*
X143264315Y-108420500D01*
X143755685Y-108420500D01*
X143822724Y-108440185D01*
X143868479Y-108492989D01*
X143878423Y-108562147D01*
X143854639Y-108619227D01*
X143840327Y-108638178D01*
X143749422Y-108820739D01*
X143749417Y-108820752D01*
X143693602Y-109016917D01*
X143674785Y-109219999D01*
X143674785Y-109220000D01*
X143693602Y-109423082D01*
X143749417Y-109619247D01*
X143749422Y-109619260D01*
X143840327Y-109801821D01*
X143963237Y-109964581D01*
X144113958Y-110101980D01*
X144113960Y-110101982D01*
X144213141Y-110163392D01*
X144287363Y-110209348D01*
X144477544Y-110283024D01*
X144678024Y-110320500D01*
X144678026Y-110320500D01*
X144881974Y-110320500D01*
X144881976Y-110320500D01*
X145082456Y-110283024D01*
X145272637Y-110209348D01*
X145446041Y-110101981D01*
X145596764Y-109964579D01*
X145719673Y-109801821D01*
X145790294Y-109659995D01*
X145806817Y-109626812D01*
X145854319Y-109575575D01*
X145921982Y-109558153D01*
X145988323Y-109580078D01*
X146032278Y-109634389D01*
X146037592Y-109649989D01*
X146046567Y-109683485D01*
X146046570Y-109683492D01*
X146146399Y-109897578D01*
X146281894Y-110091082D01*
X146448917Y-110258105D01*
X146642421Y-110393600D01*
X146856507Y-110493429D01*
X146856516Y-110493433D01*
X147070000Y-110550634D01*
X147070000Y-109832301D01*
X147089685Y-109765262D01*
X147142489Y-109719507D01*
X147211647Y-109709563D01*
X147284237Y-109720000D01*
X147284238Y-109720000D01*
X147355762Y-109720000D01*
X147355763Y-109720000D01*
X147428353Y-109709563D01*
X147497512Y-109719507D01*
X147550315Y-109765262D01*
X147570000Y-109832301D01*
X147570000Y-110550633D01*
X147783483Y-110493433D01*
X147783492Y-110493429D01*
X147997578Y-110393600D01*
X148191082Y-110258105D01*
X148358105Y-110091082D01*
X148493600Y-109897578D01*
X148593429Y-109683492D01*
X148593431Y-109683489D01*
X148602406Y-109649992D01*
X148638770Y-109590331D01*
X148701616Y-109559800D01*
X148770992Y-109568094D01*
X148824871Y-109612578D01*
X148833182Y-109626811D01*
X148920327Y-109801821D01*
X149043237Y-109964581D01*
X149193958Y-110101980D01*
X149193960Y-110101982D01*
X149293141Y-110163392D01*
X149367363Y-110209348D01*
X149557544Y-110283024D01*
X149758024Y-110320500D01*
X149758026Y-110320500D01*
X149961974Y-110320500D01*
X149961976Y-110320500D01*
X150162456Y-110283024D01*
X150352637Y-110209348D01*
X150526041Y-110101981D01*
X150676764Y-109964579D01*
X150799673Y-109801821D01*
X150890582Y-109619250D01*
X150946397Y-109423083D01*
X150965215Y-109220000D01*
X150946397Y-109016917D01*
X150890582Y-108820750D01*
X150875274Y-108790008D01*
X150819029Y-108677052D01*
X150799673Y-108638179D01*
X150676764Y-108475421D01*
X150676762Y-108475418D01*
X150526041Y-108338019D01*
X150526039Y-108338017D01*
X150352642Y-108230655D01*
X150352635Y-108230651D01*
X150208734Y-108174904D01*
X150162456Y-108156976D01*
X149961976Y-108119500D01*
X149758024Y-108119500D01*
X149557544Y-108156976D01*
X149557541Y-108156976D01*
X149557541Y-108156977D01*
X149367364Y-108230651D01*
X149367357Y-108230655D01*
X149193960Y-108338017D01*
X149193958Y-108338019D01*
X149043237Y-108475418D01*
X148920327Y-108638178D01*
X148833182Y-108813188D01*
X148785679Y-108864425D01*
X148718016Y-108881846D01*
X148651676Y-108859920D01*
X148607721Y-108805609D01*
X148602407Y-108790008D01*
X148593434Y-108756518D01*
X148593429Y-108756507D01*
X148509721Y-108576993D01*
X148499229Y-108507915D01*
X148527749Y-108444131D01*
X148576368Y-108411035D01*
X148576341Y-108410984D01*
X148576845Y-108410711D01*
X148581852Y-108407303D01*
X148585377Y-108406092D01*
X148585381Y-108406092D01*
X148630444Y-108381704D01*
X148676484Y-108359198D01*
X148676487Y-108359194D01*
X148682453Y-108354935D01*
X148688254Y-108350419D01*
X148688258Y-108350418D01*
X148722957Y-108312724D01*
X150073043Y-106962636D01*
X150092894Y-106946516D01*
X150100669Y-106941437D01*
X150120864Y-106915488D01*
X150125942Y-106909737D01*
X150128375Y-106907306D01*
X150141038Y-106889569D01*
X150144791Y-106884748D01*
X150149066Y-106879255D01*
X150172517Y-106849126D01*
X150172519Y-106849119D01*
X150176017Y-106842655D01*
X150179235Y-106836072D01*
X150179240Y-106836066D01*
X150193861Y-106786954D01*
X150196181Y-106780198D01*
X150199879Y-106769425D01*
X150210500Y-106738488D01*
X150210500Y-106738479D01*
X150211706Y-106731258D01*
X150212617Y-106723951D01*
X150210500Y-106672758D01*
X150210500Y-106330241D01*
X150230185Y-106263202D01*
X150282989Y-106217447D01*
X150334500Y-106206241D01*
X151936468Y-106206241D01*
X151937819Y-106204890D01*
X151999142Y-106171405D01*
X152068834Y-106176389D01*
X152124767Y-106218261D01*
X152149184Y-106283725D01*
X152149500Y-106292571D01*
X152149500Y-111385500D01*
X152129815Y-111452539D01*
X152077011Y-111498294D01*
X152025500Y-111509500D01*
X99434500Y-111509500D01*
X99367461Y-111489815D01*
X99321706Y-111437011D01*
X99310500Y-111385500D01*
X99310500Y-110094678D01*
X100499500Y-110094678D01*
X100514032Y-110167735D01*
X100514033Y-110167739D01*
X100514034Y-110167740D01*
X100569399Y-110250601D01*
X100652259Y-110305965D01*
X100652260Y-110305966D01*
X100652264Y-110305967D01*
X100725321Y-110320499D01*
X100725324Y-110320500D01*
X100725326Y-110320500D01*
X102474676Y-110320500D01*
X102474677Y-110320499D01*
X102547740Y-110305966D01*
X102630601Y-110250601D01*
X102685966Y-110167740D01*
X102700500Y-110094674D01*
X102700500Y-109220000D01*
X103034785Y-109220000D01*
X103053602Y-109423082D01*
X103109417Y-109619247D01*
X103109422Y-109619260D01*
X103200327Y-109801821D01*
X103323237Y-109964581D01*
X103473958Y-110101980D01*
X103473960Y-110101982D01*
X103573141Y-110163392D01*
X103647363Y-110209348D01*
X103837544Y-110283024D01*
X104038024Y-110320500D01*
X104038026Y-110320500D01*
X104241974Y-110320500D01*
X104241976Y-110320500D01*
X104442456Y-110283024D01*
X104632637Y-110209348D01*
X104806041Y-110101981D01*
X104956764Y-109964579D01*
X105079673Y-109801821D01*
X105170582Y-109619250D01*
X105226397Y-109423083D01*
X105245215Y-109220000D01*
X105574785Y-109220000D01*
X105593602Y-109423082D01*
X105649417Y-109619247D01*
X105649422Y-109619260D01*
X105740327Y-109801821D01*
X105863237Y-109964581D01*
X106013958Y-110101980D01*
X106013960Y-110101982D01*
X106113141Y-110163392D01*
X106187363Y-110209348D01*
X106377544Y-110283024D01*
X106578024Y-110320500D01*
X106578026Y-110320500D01*
X106781974Y-110320500D01*
X106781976Y-110320500D01*
X106982456Y-110283024D01*
X107172637Y-110209348D01*
X107346041Y-110101981D01*
X107496764Y-109964579D01*
X107619673Y-109801821D01*
X107710582Y-109619250D01*
X107766397Y-109423083D01*
X107785215Y-109220000D01*
X107766397Y-109016917D01*
X107710582Y-108820750D01*
X107695274Y-108790008D01*
X107639029Y-108677052D01*
X107619673Y-108638179D01*
X107496764Y-108475421D01*
X107496762Y-108475418D01*
X107346041Y-108338019D01*
X107346039Y-108338017D01*
X107172642Y-108230655D01*
X107172635Y-108230651D01*
X107028734Y-108174904D01*
X106982456Y-108156976D01*
X106781976Y-108119500D01*
X106578024Y-108119500D01*
X106377544Y-108156976D01*
X106377541Y-108156976D01*
X106377541Y-108156977D01*
X106187364Y-108230651D01*
X106187357Y-108230655D01*
X106013960Y-108338017D01*
X106013958Y-108338019D01*
X105863237Y-108475418D01*
X105740327Y-108638178D01*
X105649422Y-108820739D01*
X105649417Y-108820752D01*
X105593602Y-109016917D01*
X105574785Y-109219999D01*
X105574785Y-109220000D01*
X105245215Y-109220000D01*
X105226397Y-109016917D01*
X105170582Y-108820750D01*
X105155274Y-108790008D01*
X105099029Y-108677052D01*
X105079673Y-108638179D01*
X104956764Y-108475421D01*
X104956762Y-108475418D01*
X104806041Y-108338019D01*
X104806039Y-108338017D01*
X104632642Y-108230655D01*
X104632635Y-108230651D01*
X104488734Y-108174904D01*
X104442456Y-108156976D01*
X104241976Y-108119500D01*
X104038024Y-108119500D01*
X103837544Y-108156976D01*
X103837541Y-108156976D01*
X103837541Y-108156977D01*
X103647364Y-108230651D01*
X103647357Y-108230655D01*
X103473960Y-108338017D01*
X103473958Y-108338019D01*
X103323237Y-108475418D01*
X103200327Y-108638178D01*
X103109422Y-108820739D01*
X103109417Y-108820752D01*
X103053602Y-109016917D01*
X103034785Y-109219999D01*
X103034785Y-109220000D01*
X102700500Y-109220000D01*
X102700500Y-108345326D01*
X102700500Y-108345323D01*
X102700499Y-108345321D01*
X102685967Y-108272264D01*
X102685966Y-108272260D01*
X102658427Y-108231045D01*
X102630601Y-108189399D01*
X102547740Y-108134034D01*
X102547739Y-108134033D01*
X102547735Y-108134032D01*
X102474677Y-108119500D01*
X102474674Y-108119500D01*
X100725326Y-108119500D01*
X100725323Y-108119500D01*
X100652264Y-108134032D01*
X100652260Y-108134033D01*
X100569399Y-108189399D01*
X100514033Y-108272260D01*
X100514032Y-108272264D01*
X100499500Y-108345321D01*
X100499500Y-110094678D01*
X99310500Y-110094678D01*
X99310500Y-106170000D01*
X100286634Y-106170000D01*
X100286931Y-106171946D01*
X100286933Y-106171952D01*
X100357562Y-106362657D01*
X100357565Y-106362664D01*
X100465149Y-106535267D01*
X100605264Y-106682668D01*
X100605266Y-106682669D01*
X100772195Y-106798856D01*
X100959092Y-106879059D01*
X101158310Y-106920000D01*
X101410000Y-106920000D01*
X101410000Y-106344000D01*
X101429685Y-106276961D01*
X101482489Y-106231206D01*
X101534000Y-106220000D01*
X101786000Y-106220000D01*
X101853039Y-106239685D01*
X101898794Y-106292489D01*
X101910000Y-106344000D01*
X101910000Y-106920000D01*
X102110713Y-106920000D01*
X102262338Y-106904581D01*
X102456381Y-106843700D01*
X102456391Y-106843695D01*
X102634215Y-106744994D01*
X102634216Y-106744994D01*
X102788530Y-106612521D01*
X102788531Y-106612520D01*
X102913018Y-106451695D01*
X103002588Y-106269093D01*
X103028246Y-106170000D01*
X102464979Y-106170000D01*
X102397940Y-106150315D01*
X102352185Y-106097511D01*
X102342241Y-106028353D01*
X102345713Y-106012066D01*
X102359346Y-105964147D01*
X102363895Y-105948160D01*
X102353546Y-105836479D01*
X102353544Y-105836475D01*
X102351115Y-105827937D01*
X102351701Y-105758070D01*
X102389966Y-105699610D01*
X102453763Y-105671119D01*
X102470381Y-105670000D01*
X103033366Y-105670000D01*
X103033068Y-105668053D01*
X103033066Y-105668047D01*
X102962437Y-105477342D01*
X102962434Y-105477335D01*
X102854850Y-105304732D01*
X102714735Y-105157331D01*
X102714733Y-105157330D01*
X102547804Y-105041143D01*
X102360907Y-104960940D01*
X102161690Y-104920000D01*
X101910000Y-104920000D01*
X101910000Y-105496000D01*
X101890315Y-105563039D01*
X101837511Y-105608794D01*
X101786000Y-105620000D01*
X101534000Y-105620000D01*
X101466961Y-105600315D01*
X101421206Y-105547511D01*
X101410000Y-105496000D01*
X101410000Y-104920000D01*
X101209287Y-104920000D01*
X101057661Y-104935418D01*
X100863618Y-104996299D01*
X100863608Y-104996304D01*
X100685784Y-105095005D01*
X100685783Y-105095005D01*
X100531469Y-105227478D01*
X100531468Y-105227479D01*
X100406981Y-105388304D01*
X100317411Y-105570906D01*
X100291754Y-105670000D01*
X100855021Y-105670000D01*
X100922060Y-105689685D01*
X100967815Y-105742489D01*
X100977759Y-105811647D01*
X100974287Y-105827934D01*
X100956105Y-105891837D01*
X100956104Y-105891837D01*
X100966453Y-106003517D01*
X100968885Y-106012063D01*
X100968299Y-106081930D01*
X100930034Y-106140390D01*
X100866237Y-106168881D01*
X100849619Y-106170000D01*
X100286634Y-106170000D01*
X99310500Y-106170000D01*
X99310500Y-103374000D01*
X102352069Y-103374000D01*
X102354832Y-103409122D01*
X102354833Y-103409128D01*
X102399592Y-103563188D01*
X102399593Y-103563191D01*
X102481261Y-103701285D01*
X102481268Y-103701294D01*
X102594705Y-103814731D01*
X102594714Y-103814738D01*
X102732805Y-103896404D01*
X102872000Y-103936844D01*
X102872000Y-103374000D01*
X102352069Y-103374000D01*
X99310500Y-103374000D01*
X99310500Y-102874000D01*
X102352069Y-102874000D01*
X102872000Y-102874000D01*
X102872000Y-102311154D01*
X102871998Y-102311153D01*
X102732811Y-102351591D01*
X102732808Y-102351593D01*
X102594714Y-102433261D01*
X102594705Y-102433268D01*
X102481268Y-102546705D01*
X102481261Y-102546714D01*
X102399593Y-102684808D01*
X102399592Y-102684811D01*
X102354833Y-102838871D01*
X102354832Y-102838877D01*
X102352069Y-102874000D01*
X99310500Y-102874000D01*
X99310500Y-100326000D01*
X102352069Y-100326000D01*
X102354832Y-100361122D01*
X102354833Y-100361128D01*
X102399592Y-100515188D01*
X102399593Y-100515191D01*
X102481261Y-100653285D01*
X102481268Y-100653294D01*
X102594705Y-100766731D01*
X102594714Y-100766738D01*
X102732805Y-100848404D01*
X102872000Y-100888844D01*
X102872000Y-100326000D01*
X102352069Y-100326000D01*
X99310500Y-100326000D01*
X99310500Y-99826000D01*
X102352069Y-99826000D01*
X102872000Y-99826000D01*
X102872000Y-99263154D01*
X102871998Y-99263153D01*
X102732811Y-99303591D01*
X102732808Y-99303593D01*
X102594714Y-99385261D01*
X102594705Y-99385268D01*
X102481268Y-99498705D01*
X102481261Y-99498714D01*
X102399593Y-99636808D01*
X102399592Y-99636811D01*
X102354833Y-99790871D01*
X102354832Y-99790877D01*
X102352069Y-99826000D01*
X99310500Y-99826000D01*
X99310500Y-97530000D01*
X100286634Y-97530000D01*
X100286931Y-97531946D01*
X100286933Y-97531952D01*
X100357562Y-97722657D01*
X100357565Y-97722664D01*
X100465149Y-97895267D01*
X100605264Y-98042668D01*
X100605266Y-98042669D01*
X100772195Y-98158856D01*
X100959092Y-98239059D01*
X101158310Y-98280000D01*
X101410000Y-98280000D01*
X101410000Y-97704000D01*
X101429685Y-97636961D01*
X101482489Y-97591206D01*
X101534000Y-97580000D01*
X101786000Y-97580000D01*
X101853039Y-97599685D01*
X101898794Y-97652489D01*
X101910000Y-97704000D01*
X101910000Y-98280000D01*
X102110713Y-98280000D01*
X102262338Y-98264581D01*
X102456381Y-98203700D01*
X102456391Y-98203695D01*
X102634215Y-98104994D01*
X102634216Y-98104994D01*
X102788530Y-97972521D01*
X102788531Y-97972520D01*
X102913018Y-97811695D01*
X103002588Y-97629093D01*
X103028246Y-97530000D01*
X102464979Y-97530000D01*
X102397940Y-97510315D01*
X102352185Y-97457511D01*
X102342241Y-97388353D01*
X102345713Y-97372066D01*
X102363894Y-97308162D01*
X102363895Y-97308160D01*
X102359187Y-97257353D01*
X102353546Y-97196479D01*
X102353544Y-97196475D01*
X102351115Y-97187937D01*
X102351701Y-97118070D01*
X102389966Y-97059610D01*
X102453763Y-97031119D01*
X102470381Y-97030000D01*
X103033366Y-97030000D01*
X103033068Y-97028053D01*
X103033066Y-97028047D01*
X102962437Y-96837342D01*
X102962434Y-96837335D01*
X102854850Y-96664732D01*
X102714735Y-96517331D01*
X102714733Y-96517330D01*
X102547804Y-96401143D01*
X102360907Y-96320940D01*
X102161690Y-96280000D01*
X101910000Y-96280000D01*
X101910000Y-96856000D01*
X101890315Y-96923039D01*
X101837511Y-96968794D01*
X101786000Y-96980000D01*
X101534000Y-96980000D01*
X101466961Y-96960315D01*
X101421206Y-96907511D01*
X101410000Y-96856000D01*
X101410000Y-96280000D01*
X101209287Y-96280000D01*
X101057661Y-96295418D01*
X100863618Y-96356299D01*
X100863608Y-96356304D01*
X100685784Y-96455005D01*
X100685783Y-96455005D01*
X100531469Y-96587478D01*
X100531468Y-96587479D01*
X100406981Y-96748304D01*
X100317411Y-96930906D01*
X100291754Y-97030000D01*
X100855021Y-97030000D01*
X100922060Y-97049685D01*
X100967815Y-97102489D01*
X100977759Y-97171647D01*
X100974287Y-97187934D01*
X100956105Y-97251837D01*
X100956104Y-97251837D01*
X100966453Y-97363517D01*
X100968885Y-97372063D01*
X100968299Y-97441930D01*
X100930034Y-97500390D01*
X100866237Y-97528881D01*
X100849619Y-97530000D01*
X100286634Y-97530000D01*
X99310500Y-97530000D01*
X99310500Y-95316001D01*
X107918318Y-95316001D01*
X107938955Y-95472760D01*
X107938956Y-95472762D01*
X107993555Y-95604577D01*
X107999464Y-95618841D01*
X108095718Y-95744282D01*
X108221159Y-95840536D01*
X108367238Y-95901044D01*
X108409000Y-95906542D01*
X108523999Y-95921682D01*
X108524000Y-95921682D01*
X108524001Y-95921682D01*
X108576253Y-95914802D01*
X108680762Y-95901044D01*
X108826841Y-95840536D01*
X108952282Y-95744282D01*
X109048536Y-95618841D01*
X109109044Y-95472762D01*
X109129682Y-95316000D01*
X109128976Y-95310634D01*
X109117134Y-95220685D01*
X109127900Y-95151650D01*
X109174280Y-95099394D01*
X109240073Y-95080500D01*
X109321974Y-95080500D01*
X109321976Y-95080500D01*
X109522456Y-95043024D01*
X109712637Y-94969348D01*
X109886041Y-94861981D01*
X110036764Y-94724579D01*
X110159673Y-94561821D01*
X110250582Y-94379250D01*
X110306397Y-94183083D01*
X110325215Y-93980000D01*
X110306397Y-93776917D01*
X110250582Y-93580750D01*
X110239313Y-93558119D01*
X110200415Y-93480000D01*
X110159673Y-93398179D01*
X110036764Y-93235421D01*
X110036762Y-93235418D01*
X109886041Y-93098019D01*
X109886039Y-93098017D01*
X109712642Y-92990655D01*
X109712635Y-92990651D01*
X109586769Y-92941891D01*
X109522456Y-92916976D01*
X109321976Y-92879500D01*
X109118024Y-92879500D01*
X108917544Y-92916976D01*
X108917541Y-92916976D01*
X108917541Y-92916977D01*
X108727364Y-92990651D01*
X108727357Y-92990655D01*
X108553960Y-93098017D01*
X108553958Y-93098019D01*
X108403237Y-93235418D01*
X108280327Y-93398178D01*
X108189422Y-93580739D01*
X108189417Y-93580752D01*
X108133602Y-93776917D01*
X108114785Y-93979999D01*
X108114785Y-93980000D01*
X108133602Y-94183082D01*
X108189417Y-94379247D01*
X108189422Y-94379260D01*
X108280328Y-94561824D01*
X108301713Y-94590142D01*
X108326405Y-94655503D01*
X108311840Y-94723838D01*
X108262642Y-94773450D01*
X108250214Y-94779428D01*
X108221161Y-94791462D01*
X108095718Y-94887718D01*
X107999463Y-95013160D01*
X107938956Y-95159237D01*
X107938955Y-95159239D01*
X107918318Y-95315998D01*
X107918318Y-95316001D01*
X99310500Y-95316001D01*
X99310500Y-94854678D01*
X100499500Y-94854678D01*
X100514032Y-94927735D01*
X100514033Y-94927739D01*
X100514034Y-94927740D01*
X100569399Y-95010601D01*
X100652260Y-95065966D01*
X100652264Y-95065967D01*
X100725321Y-95080499D01*
X100725324Y-95080500D01*
X100725326Y-95080500D01*
X102474676Y-95080500D01*
X102474677Y-95080499D01*
X102547740Y-95065966D01*
X102630601Y-95010601D01*
X102685966Y-94927740D01*
X102700500Y-94854674D01*
X102700500Y-94646681D01*
X102720185Y-94579642D01*
X102772989Y-94533887D01*
X102842147Y-94523943D01*
X102905703Y-94552968D01*
X102936882Y-94594277D01*
X102966398Y-94657575D01*
X102966399Y-94657577D01*
X103101894Y-94851082D01*
X103268917Y-95018105D01*
X103462421Y-95153600D01*
X103676507Y-95253429D01*
X103676516Y-95253433D01*
X103890000Y-95310634D01*
X103890000Y-94592301D01*
X103909685Y-94525262D01*
X103962489Y-94479507D01*
X104031647Y-94469563D01*
X104104237Y-94480000D01*
X104104238Y-94480000D01*
X104175762Y-94480000D01*
X104175763Y-94480000D01*
X104248353Y-94469563D01*
X104317512Y-94479507D01*
X104370315Y-94525262D01*
X104390000Y-94592301D01*
X104390000Y-95310633D01*
X104603483Y-95253433D01*
X104603492Y-95253429D01*
X104817578Y-95153600D01*
X105011082Y-95018105D01*
X105178105Y-94851082D01*
X105313600Y-94657578D01*
X105413429Y-94443492D01*
X105413431Y-94443489D01*
X105422406Y-94409992D01*
X105458770Y-94350331D01*
X105521616Y-94319800D01*
X105590992Y-94328094D01*
X105644871Y-94372578D01*
X105653182Y-94386811D01*
X105740327Y-94561821D01*
X105863237Y-94724581D01*
X106013958Y-94861980D01*
X106013960Y-94861982D01*
X106113141Y-94923392D01*
X106187363Y-94969348D01*
X106377544Y-95043024D01*
X106578024Y-95080500D01*
X106578026Y-95080500D01*
X106781974Y-95080500D01*
X106781976Y-95080500D01*
X106982456Y-95043024D01*
X107172637Y-94969348D01*
X107346041Y-94861981D01*
X107496764Y-94724579D01*
X107619673Y-94561821D01*
X107710582Y-94379250D01*
X107766397Y-94183083D01*
X107785215Y-93980000D01*
X107766397Y-93776917D01*
X107710582Y-93580750D01*
X107699313Y-93558119D01*
X107660415Y-93480000D01*
X107619673Y-93398179D01*
X107496764Y-93235421D01*
X107496762Y-93235418D01*
X107346041Y-93098019D01*
X107346039Y-93098017D01*
X107172642Y-92990655D01*
X107172635Y-92990651D01*
X107046769Y-92941891D01*
X106982456Y-92916976D01*
X106781976Y-92879500D01*
X106578024Y-92879500D01*
X106377544Y-92916976D01*
X106377541Y-92916976D01*
X106377541Y-92916977D01*
X106187364Y-92990651D01*
X106187357Y-92990655D01*
X106013960Y-93098017D01*
X106013958Y-93098019D01*
X105863237Y-93235418D01*
X105740327Y-93398178D01*
X105653182Y-93573188D01*
X105605679Y-93624425D01*
X105538016Y-93641846D01*
X105471676Y-93619920D01*
X105427721Y-93565609D01*
X105422407Y-93550008D01*
X105413434Y-93516518D01*
X105413429Y-93516507D01*
X105313600Y-93302422D01*
X105313599Y-93302420D01*
X105178113Y-93108926D01*
X105178108Y-93108920D01*
X105011082Y-92941894D01*
X104817578Y-92806399D01*
X104603492Y-92706570D01*
X104603486Y-92706567D01*
X104390000Y-92649364D01*
X104390000Y-93367698D01*
X104370315Y-93434737D01*
X104317511Y-93480492D01*
X104248355Y-93490436D01*
X104175766Y-93480000D01*
X104175763Y-93480000D01*
X104104237Y-93480000D01*
X104104233Y-93480000D01*
X104031645Y-93490436D01*
X103962487Y-93480492D01*
X103909684Y-93434736D01*
X103890000Y-93367698D01*
X103890000Y-92649364D01*
X103889999Y-92649364D01*
X103676513Y-92706567D01*
X103676507Y-92706570D01*
X103462422Y-92806399D01*
X103462420Y-92806400D01*
X103268926Y-92941886D01*
X103268920Y-92941891D01*
X103101891Y-93108920D01*
X103101886Y-93108926D01*
X102966400Y-93302420D01*
X102966399Y-93302422D01*
X102936882Y-93365723D01*
X102890710Y-93418162D01*
X102823516Y-93437314D01*
X102756635Y-93417098D01*
X102711300Y-93363933D01*
X102700500Y-93313318D01*
X102700500Y-93105323D01*
X102700499Y-93105321D01*
X102685967Y-93032264D01*
X102685966Y-93032260D01*
X102658427Y-92991045D01*
X102630601Y-92949399D01*
X102547740Y-92894034D01*
X102547739Y-92894033D01*
X102547735Y-92894032D01*
X102474677Y-92879500D01*
X102474674Y-92879500D01*
X100725326Y-92879500D01*
X100725323Y-92879500D01*
X100652264Y-92894032D01*
X100652260Y-92894033D01*
X100569399Y-92949399D01*
X100514033Y-93032260D01*
X100514032Y-93032264D01*
X100499500Y-93105321D01*
X100499500Y-94854678D01*
X99310500Y-94854678D01*
X99310500Y-91814500D01*
X99330185Y-91747461D01*
X99382989Y-91701706D01*
X99434500Y-91690500D01*
X152025500Y-91690500D01*
X152092539Y-91710185D01*
G37*
%TD.AperFunction*%
%TA.AperFunction,Conductor*%
G36*
X117909014Y-105456142D02*
G01*
X117933422Y-105475103D01*
X118143360Y-105685041D01*
X118159484Y-105704896D01*
X118164563Y-105712669D01*
X118190509Y-105732863D01*
X118196272Y-105737953D01*
X118198694Y-105740375D01*
X118198695Y-105740376D01*
X118216429Y-105753037D01*
X118256875Y-105784518D01*
X118263295Y-105787992D01*
X118263344Y-105788016D01*
X118263390Y-105788041D01*
X118269932Y-105791239D01*
X118269933Y-105791239D01*
X118269934Y-105791240D01*
X118284078Y-105795451D01*
X118319045Y-105805862D01*
X118367509Y-105822499D01*
X118367512Y-105822500D01*
X118367515Y-105822500D01*
X118374625Y-105823687D01*
X118374731Y-105823700D01*
X118374855Y-105823720D01*
X118382046Y-105824617D01*
X118433231Y-105822500D01*
X125311721Y-105822500D01*
X125378760Y-105842185D01*
X125424515Y-105894989D01*
X125434459Y-105964147D01*
X125410098Y-106021983D01*
X125352144Y-106097511D01*
X125332463Y-106123160D01*
X125271956Y-106269238D01*
X125264317Y-106327255D01*
X125236049Y-106391151D01*
X125177724Y-106429621D01*
X125157566Y-106434006D01*
X125099549Y-106441645D01*
X124953471Y-106502152D01*
X124828029Y-106598407D01*
X124731774Y-106723849D01*
X124671265Y-106869930D01*
X124669163Y-106877778D01*
X124666884Y-106877167D01*
X124643495Y-106930030D01*
X124585168Y-106968497D01*
X124532643Y-106972881D01*
X124460001Y-106963318D01*
X124459999Y-106963318D01*
X124303239Y-106983955D01*
X124303237Y-106983956D01*
X124157160Y-107044463D01*
X124031718Y-107140718D01*
X123935463Y-107266160D01*
X123874956Y-107412237D01*
X123874955Y-107412239D01*
X123854318Y-107568998D01*
X123854318Y-107569001D01*
X123874955Y-107725760D01*
X123874956Y-107725762D01*
X123935464Y-107871841D01*
X124031718Y-107997282D01*
X124037196Y-108001485D01*
X124078399Y-108057912D01*
X124082554Y-108127658D01*
X124048342Y-108188579D01*
X124006506Y-108215487D01*
X123967367Y-108230650D01*
X123967357Y-108230655D01*
X123793960Y-108338017D01*
X123793958Y-108338019D01*
X123643236Y-108475419D01*
X123643236Y-108475420D01*
X123590940Y-108544670D01*
X123534831Y-108586305D01*
X123465119Y-108590996D01*
X123404306Y-108557623D01*
X121186637Y-106339955D01*
X121170511Y-106320098D01*
X121165437Y-106312331D01*
X121139487Y-106292133D01*
X121133741Y-106287059D01*
X121131307Y-106284625D01*
X121131306Y-106284624D01*
X121131305Y-106284623D01*
X121124848Y-106280013D01*
X121113561Y-106271955D01*
X121073126Y-106240483D01*
X121073122Y-106240481D01*
X121066648Y-106236977D01*
X121060069Y-106233760D01*
X121010954Y-106219138D01*
X120962486Y-106202498D01*
X120955269Y-106201294D01*
X120947953Y-106200382D01*
X120898725Y-106202419D01*
X120896769Y-106202500D01*
X116827233Y-106202500D01*
X116760194Y-106182815D01*
X116714439Y-106130011D01*
X116704495Y-106060853D01*
X116716749Y-106022205D01*
X116740644Y-105975307D01*
X116740646Y-105975304D01*
X116740646Y-105975297D01*
X116743333Y-105967034D01*
X116782771Y-105909358D01*
X116847129Y-105882160D01*
X116908714Y-105890790D01*
X116996238Y-105927044D01*
X117074618Y-105937363D01*
X117152999Y-105947682D01*
X117153000Y-105947682D01*
X117153001Y-105947682D01*
X117205253Y-105940802D01*
X117309762Y-105927044D01*
X117455841Y-105866536D01*
X117581282Y-105770282D01*
X117677536Y-105644841D01*
X117731180Y-105515330D01*
X117775021Y-105460928D01*
X117841315Y-105438863D01*
X117909014Y-105456142D01*
G37*
%TD.AperFunction*%
%TA.AperFunction,Conductor*%
G36*
X137409995Y-105905685D02*
G01*
X137430632Y-105922314D01*
X137539876Y-106031557D01*
X137573360Y-106092878D01*
X137575133Y-106135421D01*
X137570318Y-106171997D01*
X137570318Y-106172001D01*
X137590955Y-106328760D01*
X137590956Y-106328762D01*
X137641876Y-106451695D01*
X137651464Y-106474841D01*
X137747718Y-106600282D01*
X137873159Y-106696536D01*
X137873160Y-106696536D01*
X137873926Y-106697124D01*
X137915128Y-106753552D01*
X137919283Y-106823298D01*
X137885071Y-106884219D01*
X137823353Y-106916971D01*
X137798439Y-106919500D01*
X132661593Y-106919500D01*
X132594554Y-106899815D01*
X132548799Y-106847011D01*
X132538855Y-106777853D01*
X132567880Y-106714297D01*
X132573912Y-106707819D01*
X133359413Y-105922319D01*
X133420736Y-105888834D01*
X133447094Y-105886000D01*
X137342956Y-105886000D01*
X137409995Y-105905685D01*
G37*
%TD.AperFunction*%
%TA.AperFunction,Conductor*%
G36*
X141920834Y-104295361D02*
G01*
X141976767Y-104337233D01*
X142001184Y-104402697D01*
X142001500Y-104411542D01*
X142001500Y-105426674D01*
X142003925Y-105438863D01*
X142016644Y-105502810D01*
X142016643Y-105551191D01*
X141996592Y-105651995D01*
X141996592Y-106273888D01*
X142006936Y-106345840D01*
X142006939Y-106345850D01*
X142018275Y-106384455D01*
X142047445Y-106483800D01*
X142069667Y-106532460D01*
X142077644Y-106549927D01*
X142077646Y-106549932D01*
X142123575Y-106621398D01*
X142147036Y-106657904D01*
X142155372Y-106670874D01*
X142155379Y-106670885D01*
X142192997Y-106714299D01*
X142222021Y-106777855D01*
X142212077Y-106847013D01*
X142166321Y-106899816D01*
X142099283Y-106919500D01*
X138553561Y-106919500D01*
X138486522Y-106899815D01*
X138440767Y-106847011D01*
X138430823Y-106777853D01*
X138459848Y-106714297D01*
X138478074Y-106697124D01*
X138478839Y-106696536D01*
X138478841Y-106696536D01*
X138604282Y-106600282D01*
X138700536Y-106474841D01*
X138761044Y-106328762D01*
X138777945Y-106200383D01*
X138781682Y-106172001D01*
X138781682Y-106171998D01*
X138761961Y-106022205D01*
X138761044Y-106015238D01*
X138700536Y-105869159D01*
X138604282Y-105743718D01*
X138478841Y-105647464D01*
X138472501Y-105644838D01*
X138332762Y-105586956D01*
X138332760Y-105586955D01*
X138176002Y-105566318D01*
X138175998Y-105566318D01*
X138139422Y-105571133D01*
X138070387Y-105560367D01*
X138035557Y-105535875D01*
X137963863Y-105464181D01*
X137930378Y-105402858D01*
X137935362Y-105333166D01*
X137977234Y-105277233D01*
X138042698Y-105252816D01*
X138051544Y-105252500D01*
X140666789Y-105252500D01*
X140692234Y-105255138D01*
X140701315Y-105257043D01*
X140717046Y-105255082D01*
X140733939Y-105252977D01*
X140741615Y-105252500D01*
X140745035Y-105252500D01*
X140745040Y-105252500D01*
X140748608Y-105251904D01*
X140766539Y-105248913D01*
X140793958Y-105245494D01*
X140817393Y-105242573D01*
X140817402Y-105242568D01*
X140824451Y-105240470D01*
X140831377Y-105238092D01*
X140831381Y-105238092D01*
X140876444Y-105213704D01*
X140922484Y-105191198D01*
X140922487Y-105191194D01*
X140928453Y-105186935D01*
X140934254Y-105182419D01*
X140934258Y-105182418D01*
X140968957Y-105144724D01*
X141789820Y-104323861D01*
X141851142Y-104290377D01*
X141920834Y-104295361D01*
G37*
%TD.AperFunction*%
%TA.AperFunction,Conductor*%
G36*
X141939631Y-97368185D02*
G01*
X141985386Y-97420989D01*
X141996592Y-97472500D01*
X141996592Y-97548004D01*
X142016643Y-97648809D01*
X142016644Y-97697190D01*
X142001778Y-97771927D01*
X142001500Y-97773326D01*
X142001500Y-98822674D01*
X142003077Y-98830600D01*
X142016644Y-98898810D01*
X142016643Y-98947191D01*
X141996592Y-99047995D01*
X141996592Y-99669888D01*
X142006936Y-99741840D01*
X142006939Y-99741850D01*
X142017989Y-99779482D01*
X142046382Y-99876181D01*
X142047445Y-99879799D01*
X142077644Y-99945927D01*
X142077646Y-99945932D01*
X142155372Y-100066874D01*
X142155379Y-100066885D01*
X142202980Y-100121821D01*
X142202981Y-100121822D01*
X142311633Y-100215969D01*
X142311640Y-100215974D01*
X142311645Y-100215978D01*
X142348584Y-100239717D01*
X142372794Y-100255276D01*
X142372810Y-100255285D01*
X142503578Y-100315005D01*
X142503582Y-100315006D01*
X142503584Y-100315007D01*
X142562435Y-100332287D01*
X142621213Y-100370061D01*
X142650238Y-100433617D01*
X142651500Y-100451264D01*
X142651500Y-101784455D01*
X142631815Y-101851494D01*
X142615181Y-101872136D01*
X141398625Y-103088692D01*
X141337302Y-103122177D01*
X141267610Y-103117193D01*
X141211677Y-103075321D01*
X141187260Y-103009857D01*
X141202112Y-102941584D01*
X141206619Y-102933987D01*
X141259356Y-102851927D01*
X141289555Y-102785800D01*
X141330062Y-102647845D01*
X141330362Y-102645762D01*
X141334485Y-102617082D01*
X141340408Y-102575889D01*
X141340408Y-102004000D01*
X141340408Y-102003999D01*
X141340408Y-102003997D01*
X141320967Y-101906264D01*
X141320966Y-101906263D01*
X141320966Y-101906260D01*
X141320964Y-101906257D01*
X141318975Y-101901455D01*
X141311505Y-101831985D01*
X141318978Y-101806536D01*
X141320962Y-101801745D01*
X141320966Y-101801740D01*
X141324059Y-101786194D01*
X141340407Y-101704004D01*
X141340408Y-101704002D01*
X141340408Y-101132112D01*
X141340408Y-101132111D01*
X141330062Y-101060155D01*
X141289555Y-100922200D01*
X141259356Y-100856073D01*
X141259354Y-100856070D01*
X141259353Y-100856067D01*
X141210134Y-100779482D01*
X141181624Y-100735119D01*
X141181620Y-100735114D01*
X141134019Y-100680178D01*
X141134018Y-100680177D01*
X141025366Y-100586030D01*
X141025357Y-100586024D01*
X141025355Y-100586022D01*
X140996274Y-100567333D01*
X140964205Y-100546723D01*
X140964189Y-100546714D01*
X140833422Y-100486995D01*
X140833417Y-100486993D01*
X140833416Y-100486993D01*
X140786322Y-100473165D01*
X140763665Y-100466512D01*
X140763659Y-100466510D01*
X140635708Y-100448114D01*
X140621349Y-100446050D01*
X140548652Y-100446050D01*
X140548648Y-100446050D01*
X140539748Y-100447330D01*
X140522103Y-100448592D01*
X140147897Y-100448592D01*
X140130252Y-100447330D01*
X140121351Y-100446050D01*
X140121348Y-100446050D01*
X140048651Y-100446050D01*
X140048647Y-100446050D01*
X140025125Y-100449432D01*
X139955967Y-100439488D01*
X139903164Y-100393732D01*
X139883480Y-100326692D01*
X139903166Y-100259653D01*
X139919794Y-100239018D01*
X139942852Y-100215960D01*
X140004173Y-100182477D01*
X140010580Y-100181360D01*
X140011754Y-100181044D01*
X140011762Y-100181044D01*
X140157841Y-100120536D01*
X140283282Y-100024282D01*
X140379536Y-99898841D01*
X140440044Y-99752762D01*
X140460682Y-99596000D01*
X140460605Y-99595418D01*
X140446037Y-99484758D01*
X140440044Y-99439238D01*
X140379536Y-99293159D01*
X140283282Y-99167718D01*
X140157841Y-99071464D01*
X140154748Y-99070183D01*
X140011762Y-99010956D01*
X140011760Y-99010955D01*
X139855001Y-98990318D01*
X139854999Y-98990318D01*
X139698239Y-99010955D01*
X139698237Y-99010956D01*
X139552160Y-99071463D01*
X139426718Y-99167718D01*
X139330463Y-99293160D01*
X139281672Y-99410953D01*
X139237831Y-99465356D01*
X139171537Y-99487421D01*
X139167111Y-99487500D01*
X138543544Y-99487500D01*
X138476505Y-99467815D01*
X138430750Y-99415011D01*
X138420806Y-99345853D01*
X138449831Y-99282297D01*
X138455863Y-99275819D01*
X140346863Y-97384819D01*
X140408186Y-97351334D01*
X140434544Y-97348500D01*
X141872592Y-97348500D01*
X141939631Y-97368185D01*
G37*
%TD.AperFunction*%
%TD*%
%TA.AperFunction,Conductor*%
%TO.N,GND*%
G36*
X110324981Y-104557170D02*
G01*
X110324981Y-104557171D01*
X110324982Y-104557174D01*
X110324983Y-104557175D01*
X110370354Y-104646221D01*
X110381142Y-104667392D01*
X110381145Y-104667396D01*
X110468603Y-104754854D01*
X110468605Y-104754855D01*
X110468609Y-104754859D01*
X110578825Y-104811017D01*
X110578826Y-104811017D01*
X110578828Y-104811018D01*
X110613947Y-104816579D01*
X110670265Y-104825500D01*
X111071734Y-104825499D01*
X111071739Y-104825499D01*
X111071739Y-104825498D01*
X111117454Y-104818257D01*
X111163170Y-104811018D01*
X111163172Y-104811017D01*
X111163175Y-104811017D01*
X111197701Y-104793424D01*
X111222058Y-104781015D01*
X111278352Y-104767500D01*
X111612329Y-104767500D01*
X111633000Y-104769722D01*
X111633000Y-106172000D01*
X109982000Y-106172000D01*
X109982000Y-104521000D01*
X110319253Y-104521000D01*
X110324981Y-104557170D01*
G37*
%TD.AperFunction*%
%TD*%
%TA.AperFunction,Conductor*%
%TO.N,+3.3V*%
G36*
X116050357Y-96539685D02*
G01*
X116096112Y-96592489D01*
X116106218Y-96638947D01*
X116106257Y-96638942D01*
X116106317Y-96639400D01*
X116107318Y-96644000D01*
X116107318Y-96647001D01*
X116127955Y-96803760D01*
X116127956Y-96803762D01*
X116188464Y-96949841D01*
X116284718Y-97075282D01*
X116410159Y-97171536D01*
X116556238Y-97232044D01*
X116634619Y-97242363D01*
X116712999Y-97252682D01*
X116716000Y-97252682D01*
X116718439Y-97253398D01*
X116721058Y-97253743D01*
X116721004Y-97254151D01*
X116783039Y-97272367D01*
X116828794Y-97325171D01*
X116840000Y-97376682D01*
X116840000Y-98936000D01*
X116820315Y-99003039D01*
X116767511Y-99048794D01*
X116716000Y-99060000D01*
X114774500Y-99060000D01*
X114707461Y-99040315D01*
X114661706Y-98987511D01*
X114650500Y-98936000D01*
X114650500Y-98681518D01*
X114650500Y-96716539D01*
X114670184Y-96649504D01*
X114686809Y-96628871D01*
X114759364Y-96556316D01*
X114820686Y-96522834D01*
X114847043Y-96520000D01*
X115983318Y-96520000D01*
X116050357Y-96539685D01*
G37*
%TD.AperFunction*%
%TD*%
M02*
