%TF.GenerationSoftware,KiCad,Pcbnew,7.0.7*%
%TF.CreationDate,2023-11-13T21:49:10+01:00*%
%TF.ProjectId,STM32G474_Black-Pill_v3.0,53544d33-3247-4343-9734-5f426c61636b,A*%
%TF.SameCoordinates,Original*%
%TF.FileFunction,Copper,L1,Top*%
%TF.FilePolarity,Positive*%
%FSLAX46Y46*%
G04 Gerber Fmt 4.6, Leading zero omitted, Abs format (unit mm)*
G04 Created by KiCad (PCBNEW 7.0.7) date 2023-11-13 21:49:10*
%MOMM*%
%LPD*%
G01*
G04 APERTURE LIST*
G04 Aperture macros list*
%AMRoundRect*
0 Rectangle with rounded corners*
0 $1 Rounding radius*
0 $2 $3 $4 $5 $6 $7 $8 $9 X,Y pos of 4 corners*
0 Add a 4 corners polygon primitive as box body*
4,1,4,$2,$3,$4,$5,$6,$7,$8,$9,$2,$3,0*
0 Add four circle primitives for the rounded corners*
1,1,$1+$1,$2,$3*
1,1,$1+$1,$4,$5*
1,1,$1+$1,$6,$7*
1,1,$1+$1,$8,$9*
0 Add four rect primitives between the rounded corners*
20,1,$1+$1,$2,$3,$4,$5,0*
20,1,$1+$1,$4,$5,$6,$7,0*
20,1,$1+$1,$6,$7,$8,$9,0*
20,1,$1+$1,$8,$9,$2,$3,0*%
%AMRotRect*
0 Rectangle, with rotation*
0 The origin of the aperture is its center*
0 $1 length*
0 $2 width*
0 $3 Rotation angle, in degrees counterclockwise*
0 Add horizontal line*
21,1,$1,$2,0,0,$3*%
G04 Aperture macros list end*
%TA.AperFunction,SMDPad,CuDef*%
%ADD10RoundRect,0.135000X-0.135000X-0.185000X0.135000X-0.185000X0.135000X0.185000X-0.135000X0.185000X0*%
%TD*%
%TA.AperFunction,SMDPad,CuDef*%
%ADD11RoundRect,0.140000X0.170000X-0.140000X0.170000X0.140000X-0.170000X0.140000X-0.170000X-0.140000X0*%
%TD*%
%TA.AperFunction,SMDPad,CuDef*%
%ADD12RoundRect,0.218750X-0.218750X-0.256250X0.218750X-0.256250X0.218750X0.256250X-0.218750X0.256250X0*%
%TD*%
%TA.AperFunction,SMDPad,CuDef*%
%ADD13RoundRect,0.140000X-0.170000X0.140000X-0.170000X-0.140000X0.170000X-0.140000X0.170000X0.140000X0*%
%TD*%
%TA.AperFunction,SMDPad,CuDef*%
%ADD14RoundRect,0.135000X0.185000X-0.135000X0.185000X0.135000X-0.185000X0.135000X-0.185000X-0.135000X0*%
%TD*%
%TA.AperFunction,SMDPad,CuDef*%
%ADD15RoundRect,0.102000X0.323000X-0.373000X0.323000X0.373000X-0.323000X0.373000X-0.323000X-0.373000X0*%
%TD*%
%TA.AperFunction,SMDPad,CuDef*%
%ADD16RoundRect,0.140000X-0.140000X-0.170000X0.140000X-0.170000X0.140000X0.170000X-0.140000X0.170000X0*%
%TD*%
%TA.AperFunction,SMDPad,CuDef*%
%ADD17RoundRect,0.135000X-0.185000X0.135000X-0.185000X-0.135000X0.185000X-0.135000X0.185000X0.135000X0*%
%TD*%
%TA.AperFunction,SMDPad,CuDef*%
%ADD18RoundRect,0.150000X0.150000X-0.512500X0.150000X0.512500X-0.150000X0.512500X-0.150000X-0.512500X0*%
%TD*%
%TA.AperFunction,SMDPad,CuDef*%
%ADD19RoundRect,0.140000X0.021213X-0.219203X0.219203X-0.021213X-0.021213X0.219203X-0.219203X0.021213X0*%
%TD*%
%TA.AperFunction,SMDPad,CuDef*%
%ADD20RoundRect,0.150000X0.587500X0.150000X-0.587500X0.150000X-0.587500X-0.150000X0.587500X-0.150000X0*%
%TD*%
%TA.AperFunction,SMDPad,CuDef*%
%ADD21RoundRect,0.135000X0.135000X0.185000X-0.135000X0.185000X-0.135000X-0.185000X0.135000X-0.185000X0*%
%TD*%
%TA.AperFunction,SMDPad,CuDef*%
%ADD22R,1.050000X0.650000*%
%TD*%
%TA.AperFunction,SMDPad,CuDef*%
%ADD23RoundRect,0.062500X0.220971X0.309359X-0.309359X-0.220971X-0.220971X-0.309359X0.309359X0.220971X0*%
%TD*%
%TA.AperFunction,SMDPad,CuDef*%
%ADD24RoundRect,0.062500X-0.220971X0.309359X-0.309359X0.220971X0.220971X-0.309359X0.309359X-0.220971X0*%
%TD*%
%TA.AperFunction,SMDPad,CuDef*%
%ADD25RotRect,5.600000X5.600000X225.000000*%
%TD*%
%TA.AperFunction,SMDPad,CuDef*%
%ADD26R,1.800000X1.000000*%
%TD*%
%TA.AperFunction,SMDPad,CuDef*%
%ADD27RoundRect,0.140000X0.140000X0.170000X-0.140000X0.170000X-0.140000X-0.170000X0.140000X-0.170000X0*%
%TD*%
%TA.AperFunction,ComponentPad*%
%ADD28R,1.700000X1.700000*%
%TD*%
%TA.AperFunction,ComponentPad*%
%ADD29O,1.700000X1.700000*%
%TD*%
%TA.AperFunction,SMDPad,CuDef*%
%ADD30RoundRect,0.140000X-0.021213X0.219203X-0.219203X0.021213X0.021213X-0.219203X0.219203X-0.021213X0*%
%TD*%
%TA.AperFunction,SMDPad,CuDef*%
%ADD31R,1.150000X0.600000*%
%TD*%
%TA.AperFunction,SMDPad,CuDef*%
%ADD32R,1.150000X0.300000*%
%TD*%
%TA.AperFunction,ComponentPad*%
%ADD33O,2.100000X1.000000*%
%TD*%
%TA.AperFunction,ComponentPad*%
%ADD34O,1.800000X1.000000*%
%TD*%
%TA.AperFunction,ViaPad*%
%ADD35C,0.500000*%
%TD*%
%TA.AperFunction,Conductor*%
%ADD36C,0.500000*%
%TD*%
%TA.AperFunction,Conductor*%
%ADD37C,0.250000*%
%TD*%
%TA.AperFunction,Conductor*%
%ADD38C,0.200000*%
%TD*%
%TA.AperFunction,Conductor*%
%ADD39C,0.400000*%
%TD*%
G04 APERTURE END LIST*
D10*
%TO.P,R106,1*%
%TO.N,Net-(U102-PF1)*%
X130808000Y-96647000D03*
%TO.P,R106,2*%
%TO.N,Net-(C103-Pad2)*%
X131828000Y-96647000D03*
%TD*%
D11*
%TO.P,C105,1*%
%TO.N,GND*%
X132969000Y-103604000D03*
%TO.P,C105,2*%
%TO.N,/PC14*%
X132969000Y-102644000D03*
%TD*%
D12*
%TO.P,L101,1,1*%
%TO.N,+3.3V*%
X110718500Y-96139000D03*
%TO.P,L101,2,2*%
%TO.N,VREF*%
X112293500Y-96139000D03*
%TD*%
D13*
%TO.P,C120,1*%
%TO.N,GND*%
X119761000Y-96548000D03*
%TO.P,C120,2*%
%TO.N,VREF*%
X119761000Y-97508000D03*
%TD*%
D12*
%TO.P,D103,1,K*%
%TO.N,/PC13*%
X142722500Y-96774000D03*
%TO.P,D103,2,A*%
%TO.N,Net-(D103-A)*%
X144297500Y-96774000D03*
%TD*%
D14*
%TO.P,R109,1*%
%TO.N,+3.3V*%
X145796000Y-97538000D03*
%TO.P,R109,2*%
%TO.N,Net-(D103-A)*%
X145796000Y-96518000D03*
%TD*%
D13*
%TO.P,C118,1*%
%TO.N,GND*%
X118618000Y-96548000D03*
%TO.P,C118,2*%
%TO.N,VREF*%
X118618000Y-97508000D03*
%TD*%
D12*
%TO.P,D101,1,K*%
%TO.N,GND*%
X142722500Y-106426000D03*
%TO.P,D101,2,A*%
%TO.N,Net-(D101-A)*%
X144297500Y-106426000D03*
%TD*%
D15*
%TO.P,Y101,1,1*%
%TO.N,Net-(U102-PF0)*%
X135449000Y-98769000D03*
%TO.P,Y101,2,2*%
%TO.N,GND*%
X135449000Y-97319000D03*
%TO.P,Y101,3,3*%
%TO.N,Net-(C103-Pad2)*%
X134299000Y-97319000D03*
%TO.P,Y101,4,4*%
%TO.N,GND*%
X134299000Y-98769000D03*
%TD*%
D16*
%TO.P,C115,1*%
%TO.N,+3.3V*%
X108486000Y-97155000D03*
%TO.P,C115,2*%
%TO.N,GND*%
X109446000Y-97155000D03*
%TD*%
D17*
%TO.P,R107,1*%
%TO.N,+3.3V*%
X145796000Y-105662000D03*
%TO.P,R107,2*%
%TO.N,Net-(D101-A)*%
X145796000Y-106682000D03*
%TD*%
D18*
%TO.P,U103,1,IN*%
%TO.N,+5V*%
X108524000Y-100959500D03*
%TO.P,U103,2,GND*%
%TO.N,GND*%
X109474000Y-100959500D03*
%TO.P,U103,3,EN*%
%TO.N,+5V*%
X110424000Y-100959500D03*
%TO.P,U103,4,NC*%
%TO.N,unconnected-(U103-NC-Pad4)*%
X110424000Y-98684500D03*
%TO.P,U103,5,OUT*%
%TO.N,+3.3V*%
X108524000Y-98684500D03*
%TD*%
D19*
%TO.P,C109,1*%
%TO.N,/+3.3V_{MCU}*%
X130978589Y-102955411D03*
%TO.P,C109,2*%
%TO.N,GND*%
X131657411Y-102276589D03*
%TD*%
D20*
%TO.P,D102,1*%
%TO.N,VB*%
X144193500Y-100518000D03*
%TO.P,D102,2*%
%TO.N,+3.3V*%
X144193500Y-98618000D03*
%TO.P,D102,3*%
%TO.N,VBAT*%
X142318500Y-99568000D03*
%TD*%
D21*
%TO.P,R103,1*%
%TO.N,+3.3V*%
X113286000Y-101346000D03*
%TO.P,R103,2*%
%TO.N,NRST*%
X112266000Y-101346000D03*
%TD*%
D22*
%TO.P,SW103,1,1*%
%TO.N,GND*%
X140165000Y-102557000D03*
X144315000Y-102557000D03*
%TO.P,SW103,2,2*%
%TO.N,/PA0*%
X140165000Y-104707000D03*
X144315000Y-104707000D03*
%TD*%
D13*
%TO.P,C102,1*%
%TO.N,GND*%
X132842000Y-98580000D03*
%TO.P,C102,2*%
%TO.N,Net-(U102-PF0)*%
X132842000Y-99540000D03*
%TD*%
D22*
%TO.P,SW101,1,1*%
%TO.N,GND*%
X112225000Y-97858000D03*
X116375000Y-97858000D03*
%TO.P,SW101,2,2*%
%TO.N,NRST*%
X112225000Y-100008000D03*
X116375000Y-100008000D03*
%TD*%
D11*
%TO.P,C119,1*%
%TO.N,GND*%
X119761000Y-99540000D03*
%TO.P,C119,2*%
%TO.N,VREF*%
X119761000Y-98580000D03*
%TD*%
D22*
%TO.P,SW102,1,1*%
%TO.N,/PB8*%
X112225000Y-103192000D03*
X116375000Y-103192000D03*
%TO.P,SW102,2,2*%
%TO.N,+3.3V*%
X112225000Y-105342000D03*
X116375000Y-105342000D03*
%TD*%
D16*
%TO.P,C113,1*%
%TO.N,+5V*%
X108486000Y-103632000D03*
%TO.P,C113,2*%
%TO.N,GND*%
X109446000Y-103632000D03*
%TD*%
%TO.P,C116,1*%
%TO.N,+3.3V*%
X108486000Y-96139000D03*
%TO.P,C116,2*%
%TO.N,GND*%
X109446000Y-96139000D03*
%TD*%
D23*
%TO.P,U102,1,VBAT*%
%TO.N,VBAT*%
X130105223Y-101113864D03*
%TO.P,U102,2,PC13*%
%TO.N,/PC13*%
X129751670Y-100760311D03*
%TO.P,U102,3,PC14*%
%TO.N,/PC14*%
X129398116Y-100406757D03*
%TO.P,U102,4,PC15*%
%TO.N,/PC15*%
X129044563Y-100053204D03*
%TO.P,U102,5,PF0*%
%TO.N,Net-(U102-PF0)*%
X128691010Y-99699651D03*
%TO.P,U102,6,PF1*%
%TO.N,Net-(U102-PF1)*%
X128337456Y-99346097D03*
%TO.P,U102,7,PG10*%
%TO.N,NRST*%
X127983903Y-98992544D03*
%TO.P,U102,8,PA0*%
%TO.N,/PA0*%
X127630349Y-98638990D03*
%TO.P,U102,9,PA1*%
%TO.N,/PA1*%
X127276796Y-98285437D03*
%TO.P,U102,10,PA2*%
%TO.N,/PA2*%
X126923243Y-97931884D03*
%TO.P,U102,11,PA3*%
%TO.N,/PA3*%
X126569689Y-97578330D03*
%TO.P,U102,12,PA4*%
%TO.N,/PA4*%
X126216136Y-97224777D03*
D24*
%TO.P,U102,13,PA5*%
%TO.N,/PA5*%
X125243864Y-97224777D03*
%TO.P,U102,14,PA6*%
%TO.N,/PA6*%
X124890311Y-97578330D03*
%TO.P,U102,15,PA7*%
%TO.N,/PA7*%
X124536757Y-97931884D03*
%TO.P,U102,16,PC4*%
%TO.N,/PC4*%
X124183204Y-98285437D03*
%TO.P,U102,17,PB0*%
%TO.N,/PB0*%
X123829651Y-98638990D03*
%TO.P,U102,18,PB1*%
%TO.N,/PB1*%
X123476097Y-98992544D03*
%TO.P,U102,19,PB2*%
%TO.N,/PB2*%
X123122544Y-99346097D03*
%TO.P,U102,20,VREF+*%
%TO.N,VREF*%
X122768990Y-99699651D03*
%TO.P,U102,21,VDDA*%
X122415437Y-100053204D03*
%TO.P,U102,22,PB10*%
%TO.N,/PB10*%
X122061884Y-100406757D03*
%TO.P,U102,23,VDD*%
%TO.N,/+3.3V_{MCU}*%
X121708330Y-100760311D03*
%TO.P,U102,24,PB11*%
%TO.N,/PB11*%
X121354777Y-101113864D03*
D23*
%TO.P,U102,25,PB12*%
%TO.N,/PB12*%
X121354777Y-102086136D03*
%TO.P,U102,26,PB13*%
%TO.N,/PB13*%
X121708330Y-102439689D03*
%TO.P,U102,27,PB14*%
%TO.N,/PB14*%
X122061884Y-102793243D03*
%TO.P,U102,28,PB15*%
%TO.N,/PB15*%
X122415437Y-103146796D03*
%TO.P,U102,29,PC6*%
%TO.N,/PC6*%
X122768990Y-103500349D03*
%TO.P,U102,30,PA8*%
%TO.N,/PA8*%
X123122544Y-103853903D03*
%TO.P,U102,31,PA9*%
%TO.N,/PA9*%
X123476097Y-104207456D03*
%TO.P,U102,32,PA10*%
%TO.N,/PA10*%
X123829651Y-104561010D03*
%TO.P,U102,33,PA11*%
%TO.N,/PA11*%
X124183204Y-104914563D03*
%TO.P,U102,34,PA12*%
%TO.N,/PA12*%
X124536757Y-105268116D03*
%TO.P,U102,35,VDD*%
%TO.N,/+3.3V_{MCU}*%
X124890311Y-105621670D03*
%TO.P,U102,36,PA13*%
%TO.N,/SWDIO*%
X125243864Y-105975223D03*
D24*
%TO.P,U102,37,PA14*%
%TO.N,/SWCLK*%
X126216136Y-105975223D03*
%TO.P,U102,38,PA15*%
%TO.N,/PA15*%
X126569689Y-105621670D03*
%TO.P,U102,39,PC10*%
%TO.N,/PC10*%
X126923243Y-105268116D03*
%TO.P,U102,40,PC11*%
%TO.N,/PC11*%
X127276796Y-104914563D03*
%TO.P,U102,41,PB3*%
%TO.N,/PB3*%
X127630349Y-104561010D03*
%TO.P,U102,42,PB4*%
%TO.N,/PB4*%
X127983903Y-104207456D03*
%TO.P,U102,43,PB5*%
%TO.N,/PB5*%
X128337456Y-103853903D03*
%TO.P,U102,44,PB6*%
%TO.N,/PB6*%
X128691010Y-103500349D03*
%TO.P,U102,45,PB7*%
%TO.N,/PB7*%
X129044563Y-103146796D03*
%TO.P,U102,46,PB8*%
%TO.N,/PB8*%
X129398116Y-102793243D03*
%TO.P,U102,47,PB9*%
%TO.N,/PB9*%
X129751670Y-102439689D03*
%TO.P,U102,48,VDD*%
%TO.N,/+3.3V_{MCU}*%
X130105223Y-102086136D03*
D25*
%TO.P,U102,49,VSS*%
%TO.N,GND*%
X125730000Y-101600000D03*
%TD*%
D26*
%TO.P,Y102,1,1*%
%TO.N,/PC15*%
X134874000Y-100858000D03*
%TO.P,Y102,2,2*%
%TO.N,/PC14*%
X134874000Y-103358000D03*
%TD*%
D16*
%TO.P,C104,1*%
%TO.N,NRST*%
X128806000Y-97790000D03*
%TO.P,C104,2*%
%TO.N,GND*%
X129766000Y-97790000D03*
%TD*%
D27*
%TO.P,C110,1*%
%TO.N,/+3.3V_{MCU}*%
X119606000Y-100838000D03*
%TO.P,C110,2*%
%TO.N,GND*%
X118646000Y-100838000D03*
%TD*%
D11*
%TO.P,C117,1*%
%TO.N,GND*%
X118618000Y-99540000D03*
%TO.P,C117,2*%
%TO.N,VREF*%
X118618000Y-98580000D03*
%TD*%
D13*
%TO.P,C107,1*%
%TO.N,/+3.3V_{MCU}*%
X132969000Y-105438000D03*
%TO.P,C107,2*%
%TO.N,GND*%
X132969000Y-106398000D03*
%TD*%
D11*
%TO.P,C103,1*%
%TO.N,GND*%
X132842000Y-97508000D03*
%TO.P,C103,2*%
%TO.N,Net-(C103-Pad2)*%
X132842000Y-96548000D03*
%TD*%
D21*
%TO.P,R108,1*%
%TO.N,/PB8*%
X116334000Y-101854000D03*
%TO.P,R108,2*%
%TO.N,GND*%
X115314000Y-101854000D03*
%TD*%
D16*
%TO.P,C114,1*%
%TO.N,+5V*%
X108486000Y-102538000D03*
%TO.P,C114,2*%
%TO.N,GND*%
X109446000Y-102538000D03*
%TD*%
D28*
%TO.P,J104,1,Pin_1*%
%TO.N,+3.3V*%
X148285000Y-97800000D03*
D29*
%TO.P,J104,2,Pin_2*%
%TO.N,/SWDIO*%
X148285000Y-100340000D03*
%TO.P,J104,3,Pin_3*%
%TO.N,/SWCLK*%
X148285000Y-102880000D03*
%TO.P,J104,4,Pin_4*%
%TO.N,GND*%
X148285000Y-105420000D03*
%TD*%
D13*
%TO.P,C112,1*%
%TO.N,VBAT*%
X140716000Y-99596000D03*
%TO.P,C112,2*%
%TO.N,GND*%
X140716000Y-100556000D03*
%TD*%
D30*
%TO.P,C108,1*%
%TO.N,/+3.3V_{MCU}*%
X124164411Y-106594589D03*
%TO.P,C108,2*%
%TO.N,GND*%
X123485589Y-107273411D03*
%TD*%
D31*
%TO.P,J101,A1,GND*%
%TO.N,GND*%
X106415000Y-98400000D03*
%TO.P,J101,A4,VBUS*%
%TO.N,+5V*%
X106415000Y-99200000D03*
D32*
%TO.P,J101,A5,CC1*%
%TO.N,Net-(J101-CC1)*%
X106415000Y-100350000D03*
%TO.P,J101,A6,D+*%
%TO.N,Net-(J101-D+-PadA6)*%
X106415000Y-101350000D03*
%TO.P,J101,A7,D-*%
%TO.N,Net-(J101-D--PadA7)*%
X106415000Y-101850000D03*
%TO.P,J101,A8,SBU1*%
%TO.N,unconnected-(J101-SBU1-PadA8)*%
X106415000Y-102850000D03*
D31*
%TO.P,J101,A9,VBUS*%
%TO.N,+5V*%
X106415000Y-104000000D03*
%TO.P,J101,A12,GND*%
%TO.N,GND*%
X106415000Y-104800000D03*
%TO.P,J101,B1,GND*%
X106415000Y-104800000D03*
%TO.P,J101,B4,VBUS*%
%TO.N,+5V*%
X106415000Y-104000000D03*
D32*
%TO.P,J101,B5,CC2*%
%TO.N,Net-(J101-CC2)*%
X106415000Y-103350000D03*
%TO.P,J101,B6,D+*%
%TO.N,Net-(J101-D+-PadA6)*%
X106415000Y-102350000D03*
%TO.P,J101,B7,D-*%
%TO.N,Net-(J101-D--PadA7)*%
X106415000Y-100850000D03*
%TO.P,J101,B8,SBU2*%
%TO.N,unconnected-(J101-SBU2-PadB8)*%
X106415000Y-99850000D03*
D31*
%TO.P,J101,B9,VBUS*%
%TO.N,+5V*%
X106415000Y-99200000D03*
%TO.P,J101,B12,GND*%
%TO.N,GND*%
X106415000Y-98400000D03*
D33*
%TO.P,J101,S1,SHIELD*%
X105840000Y-97280000D03*
D34*
X101660000Y-97280000D03*
D33*
X105840000Y-105920000D03*
D34*
X101660000Y-105920000D03*
%TD*%
D11*
%TO.P,C106,1*%
%TO.N,GND*%
X132969000Y-101572000D03*
%TO.P,C106,2*%
%TO.N,/PC15*%
X132969000Y-100612000D03*
%TD*%
D28*
%TO.P,J102,1,Pin_1*%
%TO.N,/PB12*%
X101600000Y-109220000D03*
D29*
%TO.P,J102,2,Pin_2*%
%TO.N,/PB13*%
X104140000Y-109220000D03*
%TO.P,J102,3,Pin_3*%
%TO.N,/PB14*%
X106680000Y-109220000D03*
%TO.P,J102,4,Pin_4*%
%TO.N,/PB15*%
X109220000Y-109220000D03*
%TO.P,J102,5,Pin_5*%
%TO.N,/PA8*%
X111760000Y-109220000D03*
%TO.P,J102,6,Pin_6*%
%TO.N,/PA9*%
X114300000Y-109220000D03*
%TO.P,J102,7,Pin_7*%
%TO.N,/PA10*%
X116840000Y-109220000D03*
%TO.P,J102,8,Pin_8*%
%TO.N,/PA11*%
X119380000Y-109220000D03*
%TO.P,J102,9,Pin_9*%
%TO.N,/PA12*%
X121920000Y-109220000D03*
%TO.P,J102,10,Pin_10*%
%TO.N,/PA15*%
X124460000Y-109220000D03*
%TO.P,J102,11,Pin_11*%
%TO.N,/PB3*%
X127000000Y-109220000D03*
%TO.P,J102,12,Pin_12*%
%TO.N,/PB4*%
X129540000Y-109220000D03*
%TO.P,J102,13,Pin_13*%
%TO.N,/PB5*%
X132080000Y-109220000D03*
%TO.P,J102,14,Pin_14*%
%TO.N,/PB6*%
X134620000Y-109220000D03*
%TO.P,J102,15,Pin_15*%
%TO.N,/PB7*%
X137160000Y-109220000D03*
%TO.P,J102,16,Pin_16*%
%TO.N,/PB11*%
X139700000Y-109220000D03*
%TO.P,J102,17,Pin_17*%
%TO.N,/PB9*%
X142240000Y-109220000D03*
%TO.P,J102,18,Pin_18*%
%TO.N,+5V*%
X144780000Y-109220000D03*
%TO.P,J102,19,Pin_19*%
%TO.N,GND*%
X147320000Y-109220000D03*
%TO.P,J102,20,Pin_20*%
%TO.N,+3.3V*%
X149860000Y-109220000D03*
%TD*%
D28*
%TO.P,J103,1,Pin_1*%
%TO.N,+5V*%
X101600000Y-93980000D03*
D29*
%TO.P,J103,2,Pin_2*%
%TO.N,GND*%
X104140000Y-93980000D03*
%TO.P,J103,3,Pin_3*%
%TO.N,+3.3V*%
X106680000Y-93980000D03*
%TO.P,J103,4,Pin_4*%
%TO.N,/PB10*%
X109220000Y-93980000D03*
%TO.P,J103,5,Pin_5*%
%TO.N,/PB2*%
X111760000Y-93980000D03*
%TO.P,J103,6,Pin_6*%
%TO.N,/PB1*%
X114300000Y-93980000D03*
%TO.P,J103,7,Pin_7*%
%TO.N,/PB0*%
X116840000Y-93980000D03*
%TO.P,J103,8,Pin_8*%
%TO.N,/PA7*%
X119380000Y-93980000D03*
%TO.P,J103,9,Pin_9*%
%TO.N,/PA6*%
X121920000Y-93980000D03*
%TO.P,J103,10,Pin_10*%
%TO.N,/PA5*%
X124460000Y-93980000D03*
%TO.P,J103,11,Pin_11*%
%TO.N,/PA4*%
X127000000Y-93980000D03*
%TO.P,J103,12,Pin_12*%
%TO.N,/PA3*%
X129540000Y-93980000D03*
%TO.P,J103,13,Pin_13*%
%TO.N,/PA2*%
X132080000Y-93980000D03*
%TO.P,J103,14,Pin_14*%
%TO.N,/PA1*%
X134620000Y-93980000D03*
%TO.P,J103,15,Pin_15*%
%TO.N,/PA0*%
X137160000Y-93980000D03*
%TO.P,J103,16,Pin_16*%
%TO.N,NRST*%
X139700000Y-93980000D03*
%TO.P,J103,17,Pin_17*%
%TO.N,/Pin17*%
X142240000Y-93980000D03*
%TO.P,J103,18,Pin_18*%
%TO.N,/Pin18*%
X144780000Y-93980000D03*
%TO.P,J103,19,Pin_19*%
%TO.N,/PC13*%
X147320000Y-93980000D03*
%TO.P,J103,20,Pin_20*%
%TO.N,VB*%
X149860000Y-93980000D03*
%TD*%
D35*
%TO.N,+3.3V*%
X113919000Y-101346000D03*
X110998000Y-103632000D03*
X138811000Y-101346000D03*
X115316000Y-96774000D03*
X108524000Y-95316000D03*
X117153000Y-105342000D03*
X118745000Y-102362000D03*
%TO.N,GND*%
X114681000Y-101854000D03*
X132207000Y-97663000D03*
X110109000Y-102489000D03*
X133350000Y-104013000D03*
X125730000Y-104140000D03*
X133413500Y-101790500D03*
X141704000Y-100556000D03*
X110998000Y-97536000D03*
X120396000Y-99314000D03*
X124460000Y-102870000D03*
X123190000Y-101600000D03*
X117983000Y-100838000D03*
X125730000Y-100330000D03*
X123190000Y-107823000D03*
X124460000Y-100330000D03*
X141351000Y-106426000D03*
X125730000Y-99060000D03*
X145542000Y-102235000D03*
X133731000Y-106235500D03*
X117602000Y-96647000D03*
X136144000Y-96647000D03*
X127000000Y-102743000D03*
X125730000Y-102743000D03*
X125730000Y-101600000D03*
X129766000Y-97056000D03*
X132235000Y-98580000D03*
X124460000Y-101600000D03*
X131380139Y-101679033D03*
X110109000Y-103632000D03*
X127000000Y-101600000D03*
X127000000Y-100330000D03*
X110109000Y-97282000D03*
X128270000Y-101600000D03*
X116713000Y-96647000D03*
%TO.N,NRST*%
X128905000Y-96647000D03*
X114300000Y-100008000D03*
%TO.N,VBAT*%
X130556000Y-101473000D03*
X139855000Y-99596000D03*
%TO.N,+5V*%
X109474000Y-98879076D03*
%TO.N,/PC13*%
X131122378Y-100838000D03*
X137922000Y-100838000D03*
%TO.N,Net-(J101-CC1)*%
X104902000Y-100076000D03*
%TO.N,Net-(J101-D+-PadA6)*%
X104902000Y-102108000D03*
%TO.N,Net-(J101-D--PadA7)*%
X104902000Y-101092000D03*
%TO.N,Net-(J101-CC2)*%
X104902000Y-103124000D03*
%TO.N,/PB11*%
X117729000Y-103759000D03*
%TO.N,/PC6*%
X121920000Y-104349339D03*
%TO.N,/PC4*%
X123311884Y-97414116D03*
%TO.N,/SWDIO*%
X125256311Y-107026689D03*
%TO.N,/SWCLK*%
X125857000Y-106426000D03*
%TO.N,/PC10*%
X127635000Y-106172000D03*
X138176000Y-104140000D03*
X138176000Y-106172000D03*
%TO.N,/PC11*%
X127319503Y-106960744D03*
%TO.N,/PB8*%
X131318000Y-105791000D03*
X114300000Y-103192000D03*
%TO.N,/+3.3V_{MCU}*%
X131545386Y-103478386D03*
X119606000Y-101600000D03*
X124460000Y-107569000D03*
X137160000Y-102489000D03*
%TD*%
D36*
%TO.N,+3.3V*%
X107188000Y-94137239D02*
X106837239Y-94137239D01*
X117153000Y-105342000D02*
X116375000Y-105342000D01*
X116375000Y-105342000D02*
X112225000Y-105342000D01*
X109778182Y-95316000D02*
X110601182Y-96139000D01*
X108524000Y-98684500D02*
X108524000Y-95316000D01*
X113919000Y-101346000D02*
X113286000Y-101346000D01*
X106837239Y-94137239D02*
X106680000Y-93980000D01*
X108524000Y-95316000D02*
X109778182Y-95316000D01*
X110601182Y-96139000D02*
X110718500Y-96139000D01*
%TO.N,GND*%
X132969000Y-103632000D02*
X133350000Y-104013000D01*
X133195000Y-101572000D02*
X132969000Y-101572000D01*
X140165000Y-102557000D02*
X144315000Y-102557000D01*
X141704000Y-100556000D02*
X140716000Y-100556000D01*
X141351000Y-106426000D02*
X142722500Y-106426000D01*
X132207000Y-97663000D02*
X132362000Y-97508000D01*
D37*
X134110000Y-98580000D02*
X134299000Y-98769000D01*
D36*
X145220000Y-102557000D02*
X144315000Y-102557000D01*
X132362000Y-97508000D02*
X132842000Y-97508000D01*
X131657411Y-101956305D02*
X131657411Y-102276589D01*
X110109000Y-103632000D02*
X109446000Y-103632000D01*
X109446000Y-96139000D02*
X109446000Y-97155000D01*
X116375000Y-97858000D02*
X116375000Y-96985000D01*
X119761000Y-99540000D02*
X120170000Y-99540000D01*
X110109000Y-102489000D02*
X109495000Y-102489000D01*
X114681000Y-101854000D02*
X115314000Y-101854000D01*
X117701000Y-96548000D02*
X119761000Y-96548000D01*
X116375000Y-96985000D02*
X116713000Y-96647000D01*
X133568500Y-106398000D02*
X132969000Y-106398000D01*
D37*
X134299000Y-98619000D02*
X135449000Y-97469000D01*
D36*
X110998000Y-97536000D02*
X111320000Y-97858000D01*
X133413500Y-101790500D02*
X133195000Y-101572000D01*
X120170000Y-99540000D02*
X120396000Y-99314000D01*
X133731000Y-106235500D02*
X133568500Y-106398000D01*
X116575000Y-97858000D02*
X116375000Y-97858000D01*
X135472000Y-97319000D02*
X135449000Y-97319000D01*
X109474000Y-102510000D02*
X109446000Y-102538000D01*
D37*
X134299000Y-98769000D02*
X134299000Y-98619000D01*
X135449000Y-97469000D02*
X135449000Y-97319000D01*
D36*
X132235000Y-98580000D02*
X132842000Y-98580000D01*
X110109000Y-97282000D02*
X109573000Y-97282000D01*
X117602000Y-96647000D02*
X117701000Y-96548000D01*
X118618000Y-99540000D02*
X119761000Y-99540000D01*
X109495000Y-102489000D02*
X109446000Y-102538000D01*
X136144000Y-96647000D02*
X135472000Y-97319000D01*
X109474000Y-100959500D02*
X109474000Y-102510000D01*
X129766000Y-97056000D02*
X129766000Y-97790000D01*
X145542000Y-102235000D02*
X145220000Y-102557000D01*
X131380139Y-101679033D02*
X131657411Y-101956305D01*
X109573000Y-97282000D02*
X109446000Y-97155000D01*
X123190000Y-107823000D02*
X123485589Y-107527411D01*
X117983000Y-100838000D02*
X118618000Y-100838000D01*
X123485589Y-107527411D02*
X123485589Y-107273411D01*
X132969000Y-103604000D02*
X132969000Y-103632000D01*
X111320000Y-97858000D02*
X112225000Y-97858000D01*
D37*
%TO.N,Net-(U102-PF0)*%
X132871000Y-99569000D02*
X134798869Y-99569000D01*
X128691010Y-99699651D02*
X129515661Y-98875000D01*
X134798869Y-99569000D02*
X135449000Y-98918869D01*
X129515661Y-98875000D02*
X131504695Y-98875000D01*
X132842000Y-99540000D02*
X132871000Y-99569000D01*
X132169695Y-99540000D02*
X132842000Y-99540000D01*
X135449000Y-98918869D02*
X135449000Y-98769000D01*
X131504695Y-98875000D02*
X132169695Y-99540000D01*
%TO.N,Net-(C103-Pad2)*%
X131828000Y-96647000D02*
X132743000Y-96647000D01*
X132842000Y-96548000D02*
X133528000Y-96548000D01*
X132743000Y-96647000D02*
X132842000Y-96548000D01*
X133528000Y-96548000D02*
X134299000Y-97319000D01*
D38*
%TO.N,NRST*%
X112266000Y-101600000D02*
X112225000Y-101559000D01*
X112225000Y-100008000D02*
X114300000Y-100008000D01*
X128905000Y-96647000D02*
X128905000Y-97691000D01*
X112225000Y-101305000D02*
X112225000Y-100008000D01*
X128905000Y-97691000D02*
X128806000Y-97790000D01*
X114300000Y-100008000D02*
X116375000Y-100008000D01*
X128806000Y-98170447D02*
X128806000Y-97790000D01*
X127983903Y-98992544D02*
X128806000Y-98170447D01*
D37*
%TO.N,/PC14*%
X131131683Y-99822000D02*
X129982873Y-99822000D01*
X132334000Y-102009000D02*
X132334000Y-101024317D01*
X133711000Y-103358000D02*
X134874000Y-103358000D01*
X129982873Y-99822000D02*
X129398116Y-100406757D01*
X132334000Y-101024317D02*
X131131683Y-99822000D01*
X132969000Y-102644000D02*
X132334000Y-102009000D01*
X132969000Y-102644000D02*
X132997000Y-102644000D01*
X132997000Y-102644000D02*
X133711000Y-103358000D01*
%TO.N,/PC15*%
X134628000Y-100612000D02*
X134874000Y-100858000D01*
X129044563Y-100053204D02*
X129772767Y-99325000D01*
X132842000Y-100612000D02*
X134628000Y-100612000D01*
X132605299Y-100612000D02*
X132969000Y-100612000D01*
X129772767Y-99325000D02*
X131318299Y-99325000D01*
X131318299Y-99325000D02*
X132605299Y-100612000D01*
D38*
%TO.N,VBAT*%
X130105223Y-101113864D02*
X130196864Y-101113864D01*
D36*
X140744000Y-99568000D02*
X140716000Y-99596000D01*
X139855000Y-99596000D02*
X140716000Y-99596000D01*
D38*
X130196864Y-101113864D02*
X130556000Y-101473000D01*
D36*
X142318500Y-99568000D02*
X140744000Y-99568000D01*
%TO.N,+5V*%
X107390000Y-99200000D02*
X107840000Y-99650000D01*
X107840000Y-103632000D02*
X107472000Y-104000000D01*
X108524000Y-100010000D02*
X108524000Y-100959500D01*
X106415000Y-99200000D02*
X107390000Y-99200000D01*
X107840000Y-103632000D02*
X108486000Y-103632000D01*
X108486000Y-100997500D02*
X108524000Y-100959500D01*
X110236000Y-99822000D02*
X109474000Y-99822000D01*
X109474000Y-99822000D02*
X109474000Y-98879076D01*
X109474000Y-99822000D02*
X108712000Y-99822000D01*
X108712000Y-99822000D02*
X108524000Y-100010000D01*
X108524000Y-103594000D02*
X108486000Y-103632000D01*
X107472000Y-104000000D02*
X106415000Y-104000000D01*
X107840000Y-99650000D02*
X107840000Y-103632000D01*
X110424000Y-100959500D02*
X110424000Y-100010000D01*
X110424000Y-100010000D02*
X110236000Y-99822000D01*
X108486000Y-103632000D02*
X108486000Y-100997500D01*
D37*
%TO.N,VREF*%
X122768990Y-99699651D02*
X120577339Y-97508000D01*
D39*
X118618000Y-98580000D02*
X119761000Y-98580000D01*
D37*
X122415437Y-100053204D02*
X120942233Y-98580000D01*
D39*
X112293500Y-96139000D02*
X113157000Y-96139000D01*
X118618000Y-97508000D02*
X119761000Y-97508000D01*
D37*
X120942233Y-98580000D02*
X119761000Y-98580000D01*
D39*
X118618000Y-97508000D02*
X117884000Y-97508000D01*
X118615000Y-98583000D02*
X118618000Y-98580000D01*
X117729000Y-98583000D02*
X118615000Y-98583000D01*
X115601000Y-98583000D02*
X117729000Y-98583000D01*
D37*
X120577339Y-97508000D02*
X119761000Y-97508000D01*
D39*
X113157000Y-96139000D02*
X115601000Y-98583000D01*
X117729000Y-97663000D02*
X117729000Y-98583000D01*
X117884000Y-97508000D02*
X117729000Y-97663000D01*
D38*
%TO.N,Net-(D101-A)*%
X145796000Y-106682000D02*
X144553500Y-106682000D01*
X144553500Y-106682000D02*
X144297500Y-106426000D01*
D39*
%TO.N,VB*%
X147671000Y-99090000D02*
X149295000Y-99090000D01*
X149295000Y-99090000D02*
X149860000Y-98525000D01*
X146243000Y-100518000D02*
X147671000Y-99090000D01*
X144193500Y-100518000D02*
X146243000Y-100518000D01*
X149860000Y-98525000D02*
X149860000Y-93980000D01*
D38*
%TO.N,/PC13*%
X131122378Y-100838000D02*
X130726384Y-100442006D01*
X130726384Y-100442006D02*
X130069975Y-100442006D01*
X137922000Y-100838000D02*
X137922000Y-97536000D01*
X137922000Y-97536000D02*
X138684000Y-96774000D01*
X138684000Y-96774000D02*
X142722500Y-96774000D01*
X145301000Y-95999000D02*
X143497500Y-95999000D01*
X143497500Y-95999000D02*
X142722500Y-96774000D01*
X147320000Y-93980000D02*
X145301000Y-95999000D01*
X130069975Y-100442006D02*
X129751670Y-100760311D01*
%TO.N,Net-(D103-A)*%
X144553500Y-96518000D02*
X144297500Y-96774000D01*
X145796000Y-96518000D02*
X144553500Y-96518000D01*
%TO.N,Net-(J101-CC1)*%
X105176000Y-100350000D02*
X106415000Y-100350000D01*
X104902000Y-100076000D02*
X105176000Y-100350000D01*
%TO.N,Net-(J101-D+-PadA6)*%
X107240000Y-101350000D02*
X107290000Y-101400000D01*
X107290000Y-101400000D02*
X107290000Y-102300000D01*
X106415000Y-101350000D02*
X107240000Y-101350000D01*
X104902000Y-102108000D02*
X105282315Y-102108000D01*
X107290000Y-102300000D02*
X107240000Y-102350000D01*
X107240000Y-102350000D02*
X106415000Y-102350000D01*
X105282315Y-102108000D02*
X105524315Y-102350000D01*
X105524315Y-102350000D02*
X106415000Y-102350000D01*
%TO.N,Net-(J101-D--PadA7)*%
X105590000Y-101850000D02*
X105540000Y-101800000D01*
X105540000Y-101800000D02*
X105540000Y-100900000D01*
X105540000Y-100900000D02*
X105590000Y-100850000D01*
X104902000Y-101092000D02*
X105540000Y-101092000D01*
X106415000Y-101850000D02*
X105590000Y-101850000D01*
X105590000Y-100850000D02*
X106415000Y-100850000D01*
%TO.N,Net-(J101-CC2)*%
X104902000Y-103124000D02*
X105128000Y-103350000D01*
X105128000Y-103350000D02*
X106415000Y-103350000D01*
%TO.N,/PB0*%
X120472314Y-95130000D02*
X117990000Y-95130000D01*
X117990000Y-95130000D02*
X116840000Y-93980000D01*
X123829651Y-98638990D02*
X123304777Y-98114116D01*
X123021934Y-98114116D02*
X121793000Y-96885182D01*
X121793000Y-96885182D02*
X121793000Y-96450686D01*
X121793000Y-96450686D02*
X120472314Y-95130000D01*
X123304777Y-98114116D02*
X123021934Y-98114116D01*
%TO.N,/PB1*%
X123476097Y-98992544D02*
X123035553Y-98552000D01*
X123035553Y-98552000D02*
X122894132Y-98552000D01*
X122894132Y-98552000D02*
X121393000Y-97050867D01*
X121393000Y-97050867D02*
X121393000Y-96682060D01*
X120240940Y-95530000D02*
X115850000Y-95530000D01*
X121393000Y-96682060D02*
X120240940Y-95530000D01*
X115850000Y-95530000D02*
X114300000Y-93980000D01*
%TO.N,/PB2*%
X123122544Y-99346097D02*
X120993000Y-97216552D01*
X113710000Y-95930000D02*
X111760000Y-93980000D01*
X120075254Y-95930000D02*
X113710000Y-95930000D01*
X120993000Y-96847746D02*
X120075254Y-95930000D01*
X120993000Y-97216552D02*
X120993000Y-96847746D01*
%TO.N,/PB3*%
X128956000Y-107264000D02*
X127000000Y-109220000D01*
X128956000Y-105886661D02*
X128956000Y-107264000D01*
X127630349Y-104561010D02*
X128956000Y-105886661D01*
%TO.N,/PB4*%
X129540000Y-107245684D02*
X129540000Y-109220000D01*
X127983903Y-104207456D02*
X129356000Y-105579553D01*
X129356000Y-105579553D02*
X129356000Y-107061684D01*
X129356000Y-107061684D02*
X129540000Y-107245684D01*
%TO.N,/PB5*%
X129756000Y-105272447D02*
X129756000Y-106895999D01*
X128337456Y-103853903D02*
X129756000Y-105272447D01*
X129756000Y-106895999D02*
X132080000Y-109220000D01*
%TO.N,/PB6*%
X130156000Y-106730313D02*
X131248686Y-107823000D01*
X130156000Y-104965339D02*
X130156000Y-106730313D01*
X131248686Y-107823000D02*
X133731000Y-107823000D01*
X133731000Y-107823000D02*
X134620000Y-108712000D01*
X128691010Y-103500349D02*
X130156000Y-104965339D01*
X134620000Y-108712000D02*
X134620000Y-109220000D01*
%TO.N,/PB7*%
X130556000Y-106564628D02*
X131414372Y-107423000D01*
X131414372Y-107423000D02*
X135363000Y-107423000D01*
X129044563Y-103146796D02*
X130556000Y-104658233D01*
X130556000Y-104658233D02*
X130556000Y-106564628D01*
X135363000Y-107423000D02*
X137160000Y-109220000D01*
%TO.N,/PB9*%
X129751670Y-102439689D02*
X130116421Y-102804440D01*
X140043000Y-107023000D02*
X142240000Y-109220000D01*
X132018000Y-104988861D02*
X132018000Y-106618000D01*
X130116421Y-102804440D02*
X130116421Y-103087282D01*
X130116421Y-103087282D02*
X132018000Y-104988861D01*
X132423000Y-107023000D02*
X140043000Y-107023000D01*
X132018000Y-106618000D02*
X132423000Y-107023000D01*
%TO.N,/PB10*%
X118312950Y-100178000D02*
X120572262Y-100178000D01*
X110490000Y-95250000D02*
X111252000Y-95250000D01*
X109982000Y-93980000D02*
X109220000Y-93980000D01*
X117448950Y-99314000D02*
X118312950Y-100178000D01*
X111506000Y-96774000D02*
X111887000Y-97155000D01*
X111252000Y-95250000D02*
X111506000Y-95504000D01*
X111506000Y-95504000D02*
X111506000Y-96774000D01*
X120572262Y-100178000D02*
X120801262Y-99949000D01*
X121604127Y-99949000D02*
X122061884Y-100406757D01*
X112966500Y-97155000D02*
X115125500Y-99314000D01*
X111887000Y-97155000D02*
X112966500Y-97155000D01*
X109220000Y-93980000D02*
X110490000Y-95250000D01*
X120801262Y-99949000D02*
X121604127Y-99949000D01*
X115125500Y-99314000D02*
X117448950Y-99314000D01*
%TO.N,/PB11*%
X117729000Y-103759000D02*
X118709641Y-103759000D01*
X118709641Y-103759000D02*
X121354777Y-101113864D01*
%TO.N,/PB12*%
X103425843Y-107394157D02*
X101600000Y-109220000D01*
X109821000Y-104555000D02*
X106981843Y-107394157D01*
X121354777Y-102086136D02*
X118885913Y-104555000D01*
X106981843Y-107394157D02*
X103425843Y-107394157D01*
X118885913Y-104555000D02*
X109821000Y-104555000D01*
%TO.N,/PB13*%
X107147529Y-107794157D02*
X105565843Y-107794157D01*
X105565843Y-107794157D02*
X104140000Y-109220000D01*
X118078019Y-106070000D02*
X108871686Y-106070000D01*
X108871686Y-106070000D02*
X107147529Y-107794157D01*
X121708330Y-102439689D02*
X118078019Y-106070000D01*
%TO.N,/PB14*%
X109430000Y-106470000D02*
X106680000Y-109220000D01*
X122061884Y-102793243D02*
X121743580Y-103111547D01*
X118243705Y-106470000D02*
X109430000Y-106470000D01*
X121602158Y-103111547D02*
X118243705Y-106470000D01*
X121743580Y-103111547D02*
X121602158Y-103111547D01*
%TO.N,/PB15*%
X121767844Y-103511547D02*
X118409391Y-106870000D01*
X122415437Y-103146796D02*
X122050686Y-103511547D01*
X122050686Y-103511547D02*
X121767844Y-103511547D01*
X111570000Y-106870000D02*
X109220000Y-109220000D01*
X118409391Y-106870000D02*
X111570000Y-106870000D01*
%TO.N,/PC6*%
X121920000Y-104349339D02*
X122768990Y-103500349D01*
%TO.N,/PA0*%
X128398058Y-95930000D02*
X135210000Y-95930000D01*
X128087994Y-98181345D02*
X128087994Y-96240064D01*
X128087994Y-96240064D02*
X128398058Y-95930000D01*
X140165000Y-104707000D02*
X140165000Y-104224000D01*
X127630349Y-98638990D02*
X128087994Y-98181345D01*
X135210000Y-95930000D02*
X137160000Y-93980000D01*
X144315000Y-104707000D02*
X140165000Y-104707000D01*
X140165000Y-104224000D02*
X137160000Y-101219000D01*
X137160000Y-101219000D02*
X137160000Y-93980000D01*
%TO.N,/PA1*%
X127276796Y-98285437D02*
X127687994Y-97874239D01*
X133070000Y-95530000D02*
X134620000Y-93980000D01*
X127687994Y-96074378D02*
X128232372Y-95530000D01*
X127687994Y-97874239D02*
X127687994Y-96074378D01*
X128232372Y-95530000D02*
X133070000Y-95530000D01*
%TO.N,/PA2*%
X128066686Y-95130000D02*
X130930000Y-95130000D01*
X130930000Y-95130000D02*
X132080000Y-93980000D01*
X127287994Y-95908692D02*
X128066686Y-95130000D01*
X127287994Y-97567133D02*
X127287994Y-95908692D01*
X126923243Y-97931884D02*
X127287994Y-97567133D01*
%TO.N,/PA3*%
X126887994Y-95743006D02*
X128651000Y-93980000D01*
X126887994Y-97260025D02*
X126887994Y-95743006D01*
X128651000Y-93980000D02*
X129540000Y-93980000D01*
X126569689Y-97578330D02*
X126887994Y-97260025D01*
%TO.N,/PA4*%
X125984000Y-94996000D02*
X127000000Y-93980000D01*
X126216136Y-97224777D02*
X125984000Y-96992641D01*
X125984000Y-96992641D02*
X125984000Y-94996000D01*
%TO.N,/PA5*%
X124460000Y-96440913D02*
X124460000Y-93980000D01*
X125243864Y-97224777D02*
X124460000Y-96440913D01*
%TO.N,/PA6*%
X124060000Y-96120000D02*
X121920000Y-93980000D01*
X124411884Y-97099903D02*
X124411884Y-96958483D01*
X124411884Y-96958483D02*
X124060000Y-96606598D01*
X124060000Y-96606598D02*
X124060000Y-96120000D01*
X124890311Y-97578330D02*
X124411884Y-97099903D01*
%TO.N,/PA7*%
X124536757Y-97931884D02*
X124011884Y-97407011D01*
X123026718Y-96139000D02*
X122047000Y-96139000D01*
X119888000Y-93980000D02*
X119380000Y-93980000D01*
X124011884Y-97407011D02*
X124011884Y-97124166D01*
X122047000Y-96139000D02*
X119888000Y-93980000D01*
X124011884Y-97124166D02*
X123026718Y-96139000D01*
%TO.N,/PA8*%
X122711346Y-104265101D02*
X122711346Y-104689363D01*
X120130709Y-107270000D02*
X113710000Y-107270000D01*
X123122544Y-103853903D02*
X122711346Y-104265101D01*
X113710000Y-107270000D02*
X111760000Y-109220000D01*
X122711346Y-104689363D02*
X120130709Y-107270000D01*
%TO.N,/PA9*%
X123476097Y-104207456D02*
X123111346Y-104572207D01*
X123111346Y-104855049D02*
X120296395Y-107670000D01*
X120296395Y-107670000D02*
X115850000Y-107670000D01*
X115850000Y-107670000D02*
X114300000Y-109220000D01*
X123111346Y-104572207D02*
X123111346Y-104855049D01*
%TO.N,/PA10*%
X119863346Y-108077000D02*
X119856346Y-108070000D01*
X118896654Y-108077000D02*
X117983000Y-108077000D01*
X123511346Y-104879315D02*
X123511346Y-105020735D01*
X117983000Y-108077000D02*
X116840000Y-109220000D01*
X123829651Y-104561010D02*
X123511346Y-104879315D01*
X119856346Y-108070000D02*
X118903654Y-108070000D01*
X120455081Y-108077000D02*
X119863346Y-108077000D01*
X118903654Y-108070000D02*
X118896654Y-108077000D01*
X123511346Y-105020735D02*
X120455081Y-108077000D01*
%TO.N,/PA15*%
X126887994Y-105939975D02*
X126887994Y-106384956D01*
X124460000Y-108812950D02*
X124460000Y-109220000D01*
X126569689Y-105621670D02*
X126887994Y-105939975D01*
X126887994Y-106384956D02*
X124460000Y-108812950D01*
%TO.N,/PC4*%
X123311884Y-97414116D02*
X123311884Y-97414117D01*
X123311884Y-97414117D02*
X124183204Y-98285437D01*
%TO.N,/SWDIO*%
X124968000Y-106251087D02*
X125243864Y-105975223D01*
X124968000Y-106738378D02*
X124968000Y-106251087D01*
X125256311Y-107026689D02*
X124968000Y-106738378D01*
%TO.N,/SWCLK*%
X126216136Y-106066864D02*
X126216136Y-105975223D01*
X125857000Y-106426000D02*
X126216136Y-106066864D01*
%TO.N,/PA11*%
X124183204Y-104914563D02*
X119877767Y-109220000D01*
X119877767Y-109220000D02*
X119380000Y-109220000D01*
%TO.N,/PA12*%
X121920000Y-107884873D02*
X121920000Y-109220000D01*
X124536757Y-105268116D02*
X121920000Y-107884873D01*
D37*
%TO.N,Net-(U102-PF1)*%
X130808000Y-97715609D02*
X130808000Y-96647000D01*
X129258553Y-98425000D02*
X130098609Y-98425000D01*
X128337456Y-99346097D02*
X129258553Y-98425000D01*
X130098609Y-98425000D02*
X130808000Y-97715609D01*
D38*
%TO.N,/PC10*%
X127635000Y-105979873D02*
X126923243Y-105268116D01*
X138176000Y-104140000D02*
X138176000Y-106172000D01*
X127635000Y-106172000D02*
X127635000Y-105979873D01*
%TO.N,/PC11*%
X127836206Y-106960744D02*
X128335000Y-106461950D01*
X128335000Y-105831347D02*
X127736521Y-105232868D01*
X127595101Y-105232868D02*
X127276796Y-104914563D01*
X128335000Y-106461950D02*
X128335000Y-105831347D01*
X127319503Y-106960744D02*
X127836206Y-106960744D01*
X127736521Y-105232868D02*
X127595101Y-105232868D01*
%TO.N,/PB8*%
X129716421Y-103111548D02*
X129398116Y-102793243D01*
X116375000Y-101895000D02*
X116375000Y-103192000D01*
X114300000Y-103192000D02*
X116375000Y-103192000D01*
X129716421Y-103252968D02*
X129716421Y-103111548D01*
X116334000Y-101854000D02*
X116332000Y-101854000D01*
X131318000Y-104854547D02*
X129716421Y-103252968D01*
X116334000Y-101854000D02*
X116375000Y-101895000D01*
X131318000Y-105791000D02*
X131318000Y-104854547D01*
X112225000Y-103192000D02*
X114300000Y-103192000D01*
D36*
%TO.N,/+3.3V_{MCU}*%
X135851000Y-105322000D02*
X137160000Y-104013000D01*
D37*
X124164411Y-106347570D02*
X124164411Y-106594589D01*
D38*
X130109314Y-102086136D02*
X130978589Y-102955411D01*
D36*
X131545386Y-103478386D02*
X131022411Y-102955411D01*
D37*
X120513303Y-100838000D02*
X119606000Y-100838000D01*
D36*
X131545386Y-103478386D02*
X132969000Y-104902000D01*
X124406311Y-107515311D02*
X124406311Y-106836489D01*
D37*
X121322019Y-100374000D02*
X120977303Y-100374000D01*
D38*
X130105223Y-102086136D02*
X130109314Y-102086136D01*
D37*
X120977303Y-100374000D02*
X120513303Y-100838000D01*
D36*
X119606000Y-101600000D02*
X119606000Y-100838000D01*
X132969000Y-104902000D02*
X132969000Y-105438000D01*
X124406311Y-106836489D02*
X124164411Y-106594589D01*
D37*
X124890311Y-105621670D02*
X124164411Y-106347570D01*
D36*
X132969000Y-105438000D02*
X133085000Y-105322000D01*
X124460000Y-107569000D02*
X124406311Y-107515311D01*
D37*
X121708330Y-100760311D02*
X121322019Y-100374000D01*
D36*
X137160000Y-104013000D02*
X137160000Y-102489000D01*
X133085000Y-105322000D02*
X135851000Y-105322000D01*
X131022411Y-102955411D02*
X130978589Y-102955411D01*
%TD*%
%TA.AperFunction,Conductor*%
%TO.N,GND*%
G36*
X107893039Y-96031685D02*
G01*
X107938794Y-96084489D01*
X107950000Y-96136000D01*
X107950000Y-98751464D01*
X107930315Y-98818503D01*
X107877511Y-98864258D01*
X107808353Y-98874202D01*
X107744801Y-98845180D01*
X107742670Y-98843334D01*
X107732930Y-98834894D01*
X107729714Y-98831900D01*
X107718593Y-98820779D01*
X107706008Y-98811358D01*
X107702583Y-98808598D01*
X107663373Y-98774623D01*
X107663371Y-98774622D01*
X107663367Y-98774619D01*
X107658983Y-98772617D01*
X107636194Y-98759096D01*
X107632331Y-98756204D01*
X107632329Y-98756203D01*
X107583716Y-98738071D01*
X107579642Y-98736383D01*
X107532457Y-98714835D01*
X107532455Y-98714834D01*
X107527682Y-98714148D01*
X107502000Y-98707593D01*
X107497485Y-98705909D01*
X107445740Y-98702207D01*
X107441343Y-98701734D01*
X107425799Y-98699500D01*
X107410094Y-98699500D01*
X107405671Y-98699342D01*
X107388083Y-98698084D01*
X107353929Y-98695641D01*
X107353925Y-98695641D01*
X107349215Y-98696666D01*
X107322857Y-98699500D01*
X107178434Y-98699500D01*
X107111395Y-98679815D01*
X107109574Y-98678623D01*
X107087740Y-98664034D01*
X107087739Y-98664033D01*
X107087738Y-98664033D01*
X107014676Y-98649500D01*
X107014674Y-98649500D01*
X106274193Y-98649500D01*
X106207154Y-98629815D01*
X106161399Y-98577011D01*
X106154713Y-98558673D01*
X106111394Y-98402651D01*
X106111391Y-98402645D01*
X106027285Y-98244006D01*
X105911044Y-98107157D01*
X105768099Y-97998493D01*
X105605138Y-97923099D01*
X105605134Y-97923097D01*
X105429779Y-97884500D01*
X105295240Y-97884500D01*
X105295238Y-97884500D01*
X105161496Y-97899045D01*
X105161489Y-97899047D01*
X104991339Y-97956377D01*
X104991336Y-97956379D01*
X104837482Y-98048950D01*
X104707123Y-98172431D01*
X104606358Y-98321051D01*
X104606357Y-98321053D01*
X104539900Y-98487847D01*
X104539899Y-98487852D01*
X104539899Y-98487853D01*
X104513399Y-98649500D01*
X104510850Y-98665048D01*
X104520571Y-98844338D01*
X104520571Y-98844343D01*
X104568605Y-99017348D01*
X104568608Y-99017354D01*
X104652714Y-99175993D01*
X104764521Y-99307622D01*
X104792919Y-99371460D01*
X104782295Y-99440518D01*
X104736022Y-99492869D01*
X104717466Y-99502459D01*
X104599160Y-99551463D01*
X104473718Y-99647718D01*
X104377463Y-99773160D01*
X104316956Y-99919237D01*
X104316955Y-99919239D01*
X104296318Y-100075998D01*
X104296318Y-100076001D01*
X104316955Y-100232760D01*
X104316956Y-100232762D01*
X104377464Y-100378842D01*
X104476965Y-100508514D01*
X104502159Y-100573683D01*
X104488121Y-100642128D01*
X104476965Y-100659486D01*
X104377464Y-100789157D01*
X104316956Y-100935237D01*
X104316955Y-100935239D01*
X104296318Y-101091998D01*
X104296318Y-101092001D01*
X104316955Y-101248760D01*
X104316956Y-101248762D01*
X104377464Y-101394842D01*
X104476965Y-101524514D01*
X104502159Y-101589683D01*
X104488121Y-101658128D01*
X104476965Y-101675486D01*
X104377464Y-101805157D01*
X104316956Y-101951237D01*
X104316955Y-101951239D01*
X104296318Y-102107998D01*
X104296318Y-102108001D01*
X104316955Y-102264760D01*
X104316956Y-102264762D01*
X104377464Y-102410841D01*
X104473718Y-102536282D01*
X104473720Y-102536284D01*
X104476965Y-102540512D01*
X104502159Y-102605682D01*
X104488121Y-102674126D01*
X104476965Y-102691485D01*
X104377464Y-102821157D01*
X104316956Y-102967237D01*
X104316955Y-102967239D01*
X104296318Y-103123998D01*
X104296318Y-103124001D01*
X104316955Y-103280760D01*
X104316956Y-103280762D01*
X104377464Y-103426841D01*
X104473718Y-103552282D01*
X104599159Y-103648536D01*
X104720906Y-103698965D01*
X104775309Y-103742806D01*
X104797374Y-103809100D01*
X104780095Y-103876799D01*
X104758728Y-103903549D01*
X104707124Y-103952431D01*
X104707123Y-103952431D01*
X104606358Y-104101051D01*
X104606357Y-104101053D01*
X104539900Y-104267847D01*
X104539899Y-104267852D01*
X104539899Y-104267853D01*
X104512839Y-104432916D01*
X104510850Y-104445048D01*
X104520571Y-104624338D01*
X104520571Y-104624343D01*
X104568605Y-104797348D01*
X104568608Y-104797354D01*
X104652714Y-104955993D01*
X104768955Y-105092842D01*
X104768956Y-105092843D01*
X104911901Y-105201507D01*
X105074862Y-105276901D01*
X105074863Y-105276901D01*
X105074865Y-105276902D01*
X105128065Y-105288611D01*
X105250221Y-105315500D01*
X105250224Y-105315500D01*
X105384755Y-105315500D01*
X105384760Y-105315500D01*
X105518505Y-105300954D01*
X105688662Y-105243622D01*
X105842517Y-105151050D01*
X105972875Y-105027569D01*
X106073640Y-104878951D01*
X106140101Y-104712147D01*
X106149562Y-104654437D01*
X106179832Y-104591468D01*
X106239342Y-104554858D01*
X106271928Y-104550500D01*
X107014676Y-104550500D01*
X107051206Y-104543233D01*
X107087740Y-104535966D01*
X107109545Y-104521396D01*
X107176222Y-104500520D01*
X107178434Y-104500500D01*
X107404857Y-104500500D01*
X107431215Y-104503334D01*
X107435927Y-104504359D01*
X107487671Y-104500657D01*
X107492094Y-104500500D01*
X107507799Y-104500500D01*
X107523342Y-104498264D01*
X107527740Y-104497791D01*
X107579483Y-104494091D01*
X107583992Y-104492408D01*
X107609685Y-104485850D01*
X107614457Y-104485165D01*
X107661646Y-104463613D01*
X107665728Y-104461922D01*
X107694638Y-104451140D01*
X107714329Y-104443797D01*
X107714329Y-104443796D01*
X107714331Y-104443796D01*
X107718189Y-104440907D01*
X107740995Y-104427375D01*
X107745373Y-104425377D01*
X107745379Y-104425371D01*
X107752835Y-104420581D01*
X107753642Y-104421837D01*
X107808344Y-104396852D01*
X107877504Y-104406791D01*
X107930310Y-104452543D01*
X107949999Y-104519581D01*
X107949999Y-105878956D01*
X107930314Y-105945995D01*
X107913680Y-105966637D01*
X106872980Y-107007338D01*
X106811657Y-107040823D01*
X106785299Y-107043657D01*
X103475054Y-107043657D01*
X103449608Y-107041018D01*
X103448678Y-107040823D01*
X103440528Y-107039114D01*
X103440527Y-107039114D01*
X103440525Y-107039114D01*
X103407904Y-107043180D01*
X103400228Y-107043657D01*
X103396803Y-107043657D01*
X103375300Y-107047244D01*
X103324451Y-107053583D01*
X103317413Y-107055678D01*
X103310465Y-107058063D01*
X103265398Y-107082452D01*
X103219355Y-107104960D01*
X103213409Y-107109205D01*
X103207585Y-107113738D01*
X103190592Y-107132197D01*
X103176058Y-107147985D01*
X103116173Y-107183974D01*
X103084831Y-107188000D01*
X99434500Y-107188000D01*
X99367461Y-107168315D01*
X99321706Y-107115511D01*
X99310500Y-107064000D01*
X99310500Y-96136000D01*
X99330185Y-96068961D01*
X99382989Y-96023206D01*
X99434500Y-96012000D01*
X107826000Y-96012000D01*
X107893039Y-96031685D01*
G37*
%TD.AperFunction*%
%TD*%
%TA.AperFunction,Conductor*%
%TO.N,+3.3V*%
G36*
X152092539Y-91710185D02*
G01*
X152138294Y-91762989D01*
X152149500Y-91814500D01*
X152149500Y-111385500D01*
X152129815Y-111452539D01*
X152077011Y-111498294D01*
X152025500Y-111509500D01*
X99434500Y-111509500D01*
X99367461Y-111489815D01*
X99321706Y-111437011D01*
X99310500Y-111385500D01*
X99310500Y-107567500D01*
X99330185Y-107500461D01*
X99382989Y-107454706D01*
X99434500Y-107443500D01*
X102581456Y-107443500D01*
X102648495Y-107463185D01*
X102694250Y-107515989D01*
X102704194Y-107585147D01*
X102675169Y-107648703D01*
X102669137Y-107655181D01*
X102241137Y-108083181D01*
X102179814Y-108116666D01*
X102153456Y-108119500D01*
X100725323Y-108119500D01*
X100652264Y-108134032D01*
X100652260Y-108134033D01*
X100569399Y-108189399D01*
X100514033Y-108272260D01*
X100514032Y-108272264D01*
X100499500Y-108345321D01*
X100499500Y-110094678D01*
X100514032Y-110167735D01*
X100514033Y-110167739D01*
X100514034Y-110167740D01*
X100569399Y-110250601D01*
X100652259Y-110305965D01*
X100652260Y-110305966D01*
X100652264Y-110305967D01*
X100725321Y-110320499D01*
X100725324Y-110320500D01*
X100725326Y-110320500D01*
X102474676Y-110320500D01*
X102474677Y-110320499D01*
X102547740Y-110305966D01*
X102630601Y-110250601D01*
X102685966Y-110167740D01*
X102700500Y-110094674D01*
X102700500Y-108666542D01*
X102720185Y-108599504D01*
X102736819Y-108578862D01*
X103534705Y-107780976D01*
X103596028Y-107747491D01*
X103622386Y-107744657D01*
X104820299Y-107744657D01*
X104887338Y-107764342D01*
X104933093Y-107817146D01*
X104943037Y-107886304D01*
X104914012Y-107949860D01*
X104907999Y-107956318D01*
X104744817Y-108119500D01*
X104690511Y-108173806D01*
X104629188Y-108207290D01*
X104559496Y-108202306D01*
X104558037Y-108201751D01*
X104442461Y-108156977D01*
X104442456Y-108156976D01*
X104241976Y-108119500D01*
X104038024Y-108119500D01*
X103837544Y-108156976D01*
X103837541Y-108156976D01*
X103837541Y-108156977D01*
X103647364Y-108230651D01*
X103647357Y-108230655D01*
X103473960Y-108338017D01*
X103473958Y-108338019D01*
X103323237Y-108475418D01*
X103200327Y-108638178D01*
X103109422Y-108820739D01*
X103109417Y-108820752D01*
X103053602Y-109016917D01*
X103034785Y-109219999D01*
X103034785Y-109220000D01*
X103053602Y-109423082D01*
X103109417Y-109619247D01*
X103109422Y-109619260D01*
X103200327Y-109801821D01*
X103323237Y-109964581D01*
X103473958Y-110101980D01*
X103473960Y-110101982D01*
X103573141Y-110163392D01*
X103647363Y-110209348D01*
X103837544Y-110283024D01*
X104038024Y-110320500D01*
X104038026Y-110320500D01*
X104241974Y-110320500D01*
X104241976Y-110320500D01*
X104442456Y-110283024D01*
X104632637Y-110209348D01*
X104806041Y-110101981D01*
X104956764Y-109964579D01*
X105079673Y-109801821D01*
X105170582Y-109619250D01*
X105226397Y-109423083D01*
X105245215Y-109220000D01*
X105226397Y-109016917D01*
X105170582Y-108820750D01*
X105165256Y-108810054D01*
X105152996Y-108741272D01*
X105179869Y-108676777D01*
X105188566Y-108667115D01*
X105674705Y-108180976D01*
X105736029Y-108147491D01*
X105762387Y-108144657D01*
X105905986Y-108144657D01*
X105973025Y-108164342D01*
X106018780Y-108217146D01*
X106028724Y-108286304D01*
X105999699Y-108349860D01*
X105989524Y-108360294D01*
X105863237Y-108475418D01*
X105740327Y-108638178D01*
X105649422Y-108820739D01*
X105649417Y-108820752D01*
X105593602Y-109016917D01*
X105574785Y-109219999D01*
X105574785Y-109220000D01*
X105593602Y-109423082D01*
X105649417Y-109619247D01*
X105649422Y-109619260D01*
X105740327Y-109801821D01*
X105863237Y-109964581D01*
X106013958Y-110101980D01*
X106013960Y-110101982D01*
X106113141Y-110163392D01*
X106187363Y-110209348D01*
X106377544Y-110283024D01*
X106578024Y-110320500D01*
X106578026Y-110320500D01*
X106781974Y-110320500D01*
X106781976Y-110320500D01*
X106982456Y-110283024D01*
X107172637Y-110209348D01*
X107346041Y-110101981D01*
X107496764Y-109964579D01*
X107619673Y-109801821D01*
X107710582Y-109619250D01*
X107766397Y-109423083D01*
X107785215Y-109220000D01*
X107766397Y-109016917D01*
X107710582Y-108820750D01*
X107705256Y-108810054D01*
X107692996Y-108741272D01*
X107719869Y-108676777D01*
X107728566Y-108667114D01*
X109538862Y-106856819D01*
X109600186Y-106823334D01*
X109626544Y-106820500D01*
X110824456Y-106820500D01*
X110891495Y-106840185D01*
X110937250Y-106892989D01*
X110947194Y-106962147D01*
X110918169Y-107025703D01*
X110912137Y-107032181D01*
X109770511Y-108173805D01*
X109709188Y-108207290D01*
X109639496Y-108202306D01*
X109638037Y-108201751D01*
X109522461Y-108156977D01*
X109522456Y-108156976D01*
X109321976Y-108119500D01*
X109118024Y-108119500D01*
X108917544Y-108156976D01*
X108917541Y-108156976D01*
X108917541Y-108156977D01*
X108727364Y-108230651D01*
X108727357Y-108230655D01*
X108553960Y-108338017D01*
X108553958Y-108338019D01*
X108403237Y-108475418D01*
X108280327Y-108638178D01*
X108189422Y-108820739D01*
X108189417Y-108820752D01*
X108133602Y-109016917D01*
X108114785Y-109219999D01*
X108114785Y-109220000D01*
X108133602Y-109423082D01*
X108189417Y-109619247D01*
X108189422Y-109619260D01*
X108280327Y-109801821D01*
X108403237Y-109964581D01*
X108553958Y-110101980D01*
X108553960Y-110101982D01*
X108653141Y-110163392D01*
X108727363Y-110209348D01*
X108917544Y-110283024D01*
X109118024Y-110320500D01*
X109118026Y-110320500D01*
X109321974Y-110320500D01*
X109321976Y-110320500D01*
X109522456Y-110283024D01*
X109712637Y-110209348D01*
X109886041Y-110101981D01*
X110036764Y-109964579D01*
X110159673Y-109801821D01*
X110250582Y-109619250D01*
X110306397Y-109423083D01*
X110325215Y-109220000D01*
X110306397Y-109016917D01*
X110250582Y-108820750D01*
X110245257Y-108810057D01*
X110232995Y-108741274D01*
X110259867Y-108676778D01*
X110268566Y-108667113D01*
X111678861Y-107256819D01*
X111740185Y-107223334D01*
X111766543Y-107220500D01*
X112964456Y-107220500D01*
X113031495Y-107240185D01*
X113077250Y-107292989D01*
X113087194Y-107362147D01*
X113058169Y-107425703D01*
X113052137Y-107432181D01*
X112310511Y-108173805D01*
X112249188Y-108207290D01*
X112179496Y-108202306D01*
X112178037Y-108201751D01*
X112062461Y-108156977D01*
X112062456Y-108156976D01*
X111861976Y-108119500D01*
X111658024Y-108119500D01*
X111457544Y-108156976D01*
X111457541Y-108156976D01*
X111457541Y-108156977D01*
X111267364Y-108230651D01*
X111267357Y-108230655D01*
X111093960Y-108338017D01*
X111093958Y-108338019D01*
X110943237Y-108475418D01*
X110820327Y-108638178D01*
X110729422Y-108820739D01*
X110729417Y-108820752D01*
X110673602Y-109016917D01*
X110654785Y-109219999D01*
X110654785Y-109220000D01*
X110673602Y-109423082D01*
X110729417Y-109619247D01*
X110729422Y-109619260D01*
X110820327Y-109801821D01*
X110943237Y-109964581D01*
X111093958Y-110101980D01*
X111093960Y-110101982D01*
X111193141Y-110163392D01*
X111267363Y-110209348D01*
X111457544Y-110283024D01*
X111658024Y-110320500D01*
X111658026Y-110320500D01*
X111861974Y-110320500D01*
X111861976Y-110320500D01*
X112062456Y-110283024D01*
X112252637Y-110209348D01*
X112426041Y-110101981D01*
X112576764Y-109964579D01*
X112699673Y-109801821D01*
X112790582Y-109619250D01*
X112846397Y-109423083D01*
X112865215Y-109220000D01*
X112846397Y-109016917D01*
X112790582Y-108820750D01*
X112785256Y-108810054D01*
X112772996Y-108741272D01*
X112799869Y-108676777D01*
X112808566Y-108667114D01*
X113818862Y-107656819D01*
X113880186Y-107623334D01*
X113906544Y-107620500D01*
X115104456Y-107620500D01*
X115171495Y-107640185D01*
X115217250Y-107692989D01*
X115227194Y-107762147D01*
X115198169Y-107825703D01*
X115192137Y-107832181D01*
X114850511Y-108173805D01*
X114789188Y-108207290D01*
X114719496Y-108202306D01*
X114718037Y-108201751D01*
X114602461Y-108156977D01*
X114602456Y-108156976D01*
X114401976Y-108119500D01*
X114198024Y-108119500D01*
X113997544Y-108156976D01*
X113997541Y-108156976D01*
X113997541Y-108156977D01*
X113807364Y-108230651D01*
X113807357Y-108230655D01*
X113633960Y-108338017D01*
X113633958Y-108338019D01*
X113483237Y-108475418D01*
X113360327Y-108638178D01*
X113269422Y-108820739D01*
X113269417Y-108820752D01*
X113213602Y-109016917D01*
X113194785Y-109219999D01*
X113194785Y-109220000D01*
X113213602Y-109423082D01*
X113269417Y-109619247D01*
X113269422Y-109619260D01*
X113360327Y-109801821D01*
X113483237Y-109964581D01*
X113633958Y-110101980D01*
X113633960Y-110101982D01*
X113733141Y-110163392D01*
X113807363Y-110209348D01*
X113997544Y-110283024D01*
X114198024Y-110320500D01*
X114198026Y-110320500D01*
X114401974Y-110320500D01*
X114401976Y-110320500D01*
X114602456Y-110283024D01*
X114792637Y-110209348D01*
X114966041Y-110101981D01*
X115116764Y-109964579D01*
X115239673Y-109801821D01*
X115330582Y-109619250D01*
X115386397Y-109423083D01*
X115405215Y-109220000D01*
X115386397Y-109016917D01*
X115330582Y-108820750D01*
X115325256Y-108810054D01*
X115312996Y-108741272D01*
X115339869Y-108676777D01*
X115348566Y-108667114D01*
X115958862Y-108056819D01*
X116020186Y-108023334D01*
X116046544Y-108020500D01*
X116250955Y-108020500D01*
X116317994Y-108040185D01*
X116363749Y-108092989D01*
X116373693Y-108162147D01*
X116344668Y-108225703D01*
X116316232Y-108249927D01*
X116173960Y-108338017D01*
X116173958Y-108338019D01*
X116023237Y-108475418D01*
X115900327Y-108638178D01*
X115809422Y-108820739D01*
X115809417Y-108820752D01*
X115753602Y-109016917D01*
X115734785Y-109219999D01*
X115734785Y-109220000D01*
X115753602Y-109423082D01*
X115809417Y-109619247D01*
X115809422Y-109619260D01*
X115900327Y-109801821D01*
X116023237Y-109964581D01*
X116173958Y-110101980D01*
X116173960Y-110101982D01*
X116273141Y-110163392D01*
X116347363Y-110209348D01*
X116537544Y-110283024D01*
X116738024Y-110320500D01*
X116738026Y-110320500D01*
X116941974Y-110320500D01*
X116941976Y-110320500D01*
X117142456Y-110283024D01*
X117332637Y-110209348D01*
X117506041Y-110101981D01*
X117656764Y-109964579D01*
X117779673Y-109801821D01*
X117870582Y-109619250D01*
X117926397Y-109423083D01*
X117945215Y-109220000D01*
X117926397Y-109016917D01*
X117870582Y-108820750D01*
X117865256Y-108810054D01*
X117852996Y-108741272D01*
X117879869Y-108676777D01*
X117888556Y-108667125D01*
X118091864Y-108463816D01*
X118153187Y-108430334D01*
X118179544Y-108427500D01*
X118350399Y-108427500D01*
X118417438Y-108447185D01*
X118463193Y-108499989D01*
X118473137Y-108569147D01*
X118449352Y-108626228D01*
X118440327Y-108638177D01*
X118349422Y-108820739D01*
X118349417Y-108820752D01*
X118293602Y-109016917D01*
X118274785Y-109219999D01*
X118274785Y-109220000D01*
X118293602Y-109423082D01*
X118349417Y-109619247D01*
X118349422Y-109619260D01*
X118440327Y-109801821D01*
X118563237Y-109964581D01*
X118713958Y-110101980D01*
X118713960Y-110101982D01*
X118813141Y-110163392D01*
X118887363Y-110209348D01*
X119077544Y-110283024D01*
X119278024Y-110320500D01*
X119278026Y-110320500D01*
X119481974Y-110320500D01*
X119481976Y-110320500D01*
X119682456Y-110283024D01*
X119872637Y-110209348D01*
X120046041Y-110101981D01*
X120196764Y-109964579D01*
X120319673Y-109801821D01*
X120410582Y-109619250D01*
X120466397Y-109423083D01*
X120485215Y-109220000D01*
X120481107Y-109175672D01*
X120494521Y-109107104D01*
X120516894Y-109076553D01*
X120617019Y-108976428D01*
X120678340Y-108942945D01*
X120748032Y-108947929D01*
X120803965Y-108989801D01*
X120828382Y-109055265D01*
X120828169Y-109075551D01*
X120814784Y-109219997D01*
X120814785Y-109220000D01*
X120833602Y-109423082D01*
X120889417Y-109619247D01*
X120889422Y-109619260D01*
X120980327Y-109801821D01*
X121103237Y-109964581D01*
X121253958Y-110101980D01*
X121253960Y-110101982D01*
X121353141Y-110163392D01*
X121427363Y-110209348D01*
X121617544Y-110283024D01*
X121818024Y-110320500D01*
X121818026Y-110320500D01*
X122021974Y-110320500D01*
X122021976Y-110320500D01*
X122222456Y-110283024D01*
X122412637Y-110209348D01*
X122586041Y-110101981D01*
X122736764Y-109964579D01*
X122859673Y-109801821D01*
X122950582Y-109619250D01*
X123006397Y-109423083D01*
X123025215Y-109220000D01*
X123006397Y-109016917D01*
X122950582Y-108820750D01*
X122939313Y-108798119D01*
X122878892Y-108676777D01*
X122859673Y-108638179D01*
X122802423Y-108562368D01*
X122777732Y-108497008D01*
X122792297Y-108428673D01*
X122841495Y-108379060D01*
X122909704Y-108363922D01*
X122948828Y-108373080D01*
X123033238Y-108408044D01*
X123111618Y-108418362D01*
X123189999Y-108428682D01*
X123190000Y-108428682D01*
X123190001Y-108428682D01*
X123242254Y-108421802D01*
X123346762Y-108408044D01*
X123431170Y-108373080D01*
X123500637Y-108365612D01*
X123563116Y-108396887D01*
X123598769Y-108456975D01*
X123596276Y-108526801D01*
X123577576Y-108562368D01*
X123520327Y-108638179D01*
X123429422Y-108820739D01*
X123429417Y-108820752D01*
X123373602Y-109016917D01*
X123354785Y-109219999D01*
X123354785Y-109220000D01*
X123373602Y-109423082D01*
X123429417Y-109619247D01*
X123429422Y-109619260D01*
X123520327Y-109801821D01*
X123643237Y-109964581D01*
X123793958Y-110101980D01*
X123793960Y-110101982D01*
X123893141Y-110163392D01*
X123967363Y-110209348D01*
X124157544Y-110283024D01*
X124358024Y-110320500D01*
X124358026Y-110320500D01*
X124561974Y-110320500D01*
X124561976Y-110320500D01*
X124762456Y-110283024D01*
X124952637Y-110209348D01*
X125126041Y-110101981D01*
X125276764Y-109964579D01*
X125399673Y-109801821D01*
X125490582Y-109619250D01*
X125546397Y-109423083D01*
X125565215Y-109220000D01*
X125546397Y-109016917D01*
X125490582Y-108820750D01*
X125485256Y-108810054D01*
X125399671Y-108638175D01*
X125348866Y-108570898D01*
X125324174Y-108505537D01*
X125338739Y-108437202D01*
X125360136Y-108408494D01*
X126578829Y-107189801D01*
X126640150Y-107156318D01*
X126709842Y-107161302D01*
X126765775Y-107203174D01*
X126781069Y-107230032D01*
X126794965Y-107263582D01*
X126794966Y-107263584D01*
X126794967Y-107263585D01*
X126891221Y-107389026D01*
X127016662Y-107485280D01*
X127162741Y-107545788D01*
X127241122Y-107556106D01*
X127319502Y-107566426D01*
X127319503Y-107566426D01*
X127319504Y-107566426D01*
X127371756Y-107559546D01*
X127476265Y-107545788D01*
X127622344Y-107485280D01*
X127747785Y-107389026D01*
X127770241Y-107359759D01*
X127826669Y-107318555D01*
X127860222Y-107312707D01*
X127860136Y-107311667D01*
X127865239Y-107311244D01*
X127865246Y-107311244D01*
X127868814Y-107310648D01*
X127886745Y-107307657D01*
X127914164Y-107304238D01*
X127937599Y-107301317D01*
X127937608Y-107301312D01*
X127944657Y-107299214D01*
X127951583Y-107296836D01*
X127951587Y-107296836D01*
X127996650Y-107272448D01*
X128042690Y-107249942D01*
X128042693Y-107249938D01*
X128048659Y-107245679D01*
X128054460Y-107241163D01*
X128054464Y-107241162D01*
X128089163Y-107203468D01*
X128393820Y-106898810D01*
X128455141Y-106865327D01*
X128524832Y-106870311D01*
X128580766Y-106912182D01*
X128605183Y-106977647D01*
X128605499Y-106986493D01*
X128605499Y-107067456D01*
X128585814Y-107134495D01*
X128569180Y-107155137D01*
X127550511Y-108173805D01*
X127489188Y-108207290D01*
X127419496Y-108202306D01*
X127418037Y-108201751D01*
X127302461Y-108156977D01*
X127302456Y-108156976D01*
X127101976Y-108119500D01*
X126898024Y-108119500D01*
X126697544Y-108156976D01*
X126697541Y-108156976D01*
X126697541Y-108156977D01*
X126507364Y-108230651D01*
X126507357Y-108230655D01*
X126333960Y-108338017D01*
X126333958Y-108338019D01*
X126183237Y-108475418D01*
X126060327Y-108638178D01*
X125969422Y-108820739D01*
X125969417Y-108820752D01*
X125913602Y-109016917D01*
X125894785Y-109219999D01*
X125894785Y-109220000D01*
X125913602Y-109423082D01*
X125969417Y-109619247D01*
X125969422Y-109619260D01*
X126060327Y-109801821D01*
X126183237Y-109964581D01*
X126333958Y-110101980D01*
X126333960Y-110101982D01*
X126433141Y-110163392D01*
X126507363Y-110209348D01*
X126697544Y-110283024D01*
X126898024Y-110320500D01*
X126898026Y-110320500D01*
X127101974Y-110320500D01*
X127101976Y-110320500D01*
X127302456Y-110283024D01*
X127492637Y-110209348D01*
X127666041Y-110101981D01*
X127816764Y-109964579D01*
X127939673Y-109801821D01*
X128030582Y-109619250D01*
X128086397Y-109423083D01*
X128105215Y-109220000D01*
X128086397Y-109016917D01*
X128030582Y-108820750D01*
X128025256Y-108810054D01*
X128012996Y-108741272D01*
X128039869Y-108676777D01*
X128048566Y-108667114D01*
X128977822Y-107737858D01*
X129039141Y-107704376D01*
X129108832Y-107709360D01*
X129164766Y-107751232D01*
X129189183Y-107816696D01*
X129189499Y-107825542D01*
X129189499Y-108090645D01*
X129169814Y-108157684D01*
X129117010Y-108203439D01*
X129110294Y-108206271D01*
X129047371Y-108230647D01*
X129047359Y-108230653D01*
X128873960Y-108338017D01*
X128873958Y-108338019D01*
X128723237Y-108475418D01*
X128600327Y-108638178D01*
X128509422Y-108820739D01*
X128509417Y-108820752D01*
X128453602Y-109016917D01*
X128434785Y-109219999D01*
X128434785Y-109220000D01*
X128453602Y-109423082D01*
X128509417Y-109619247D01*
X128509422Y-109619260D01*
X128600327Y-109801821D01*
X128723237Y-109964581D01*
X128873958Y-110101980D01*
X128873960Y-110101982D01*
X128973141Y-110163392D01*
X129047363Y-110209348D01*
X129237544Y-110283024D01*
X129438024Y-110320500D01*
X129438026Y-110320500D01*
X129641974Y-110320500D01*
X129641976Y-110320500D01*
X129842456Y-110283024D01*
X130032637Y-110209348D01*
X130206041Y-110101981D01*
X130356764Y-109964579D01*
X130479673Y-109801821D01*
X130570582Y-109619250D01*
X130626397Y-109423083D01*
X130645215Y-109220000D01*
X130626397Y-109016917D01*
X130570582Y-108820750D01*
X130559313Y-108798119D01*
X130498892Y-108676777D01*
X130479673Y-108638179D01*
X130356764Y-108475421D01*
X130356762Y-108475418D01*
X130206041Y-108338019D01*
X130206039Y-108338017D01*
X130032640Y-108230653D01*
X130032634Y-108230650D01*
X129969705Y-108206272D01*
X129914304Y-108163699D01*
X129890713Y-108097932D01*
X129890499Y-108090674D01*
X129890499Y-107825541D01*
X129910184Y-107758504D01*
X129962988Y-107712749D01*
X130032146Y-107702805D01*
X130095702Y-107731830D01*
X130102180Y-107737862D01*
X131031423Y-108667104D01*
X131064908Y-108728427D01*
X131059924Y-108798118D01*
X131054743Y-108810054D01*
X131049420Y-108820743D01*
X131049419Y-108820746D01*
X130993602Y-109016917D01*
X130974785Y-109219999D01*
X130974785Y-109220000D01*
X130993602Y-109423082D01*
X131049417Y-109619247D01*
X131049422Y-109619260D01*
X131140327Y-109801821D01*
X131263237Y-109964581D01*
X131413958Y-110101980D01*
X131413960Y-110101982D01*
X131513141Y-110163392D01*
X131587363Y-110209348D01*
X131777544Y-110283024D01*
X131978024Y-110320500D01*
X131978026Y-110320500D01*
X132181974Y-110320500D01*
X132181976Y-110320500D01*
X132382456Y-110283024D01*
X132572637Y-110209348D01*
X132746041Y-110101981D01*
X132896764Y-109964579D01*
X133019673Y-109801821D01*
X133110582Y-109619250D01*
X133166397Y-109423083D01*
X133185215Y-109220000D01*
X133166397Y-109016917D01*
X133110582Y-108820750D01*
X133099313Y-108798119D01*
X133038892Y-108676777D01*
X133019673Y-108638179D01*
X132896764Y-108475421D01*
X132802115Y-108389137D01*
X132765833Y-108329426D01*
X132767594Y-108259579D01*
X132806837Y-108201771D01*
X132871104Y-108174356D01*
X132885653Y-108173500D01*
X133534456Y-108173500D01*
X133601495Y-108193185D01*
X133622132Y-108209814D01*
X133763295Y-108350976D01*
X133796779Y-108412297D01*
X133791795Y-108481989D01*
X133774568Y-108513382D01*
X133680327Y-108638179D01*
X133589422Y-108820739D01*
X133589417Y-108820752D01*
X133533602Y-109016917D01*
X133514785Y-109219999D01*
X133514785Y-109220000D01*
X133533602Y-109423082D01*
X133589417Y-109619247D01*
X133589422Y-109619260D01*
X133680327Y-109801821D01*
X133803237Y-109964581D01*
X133953958Y-110101980D01*
X133953960Y-110101982D01*
X134053141Y-110163392D01*
X134127363Y-110209348D01*
X134317544Y-110283024D01*
X134518024Y-110320500D01*
X134518026Y-110320500D01*
X134721974Y-110320500D01*
X134721976Y-110320500D01*
X134922456Y-110283024D01*
X135112637Y-110209348D01*
X135286041Y-110101981D01*
X135436764Y-109964579D01*
X135559673Y-109801821D01*
X135650582Y-109619250D01*
X135706397Y-109423083D01*
X135725215Y-109220000D01*
X135706397Y-109016917D01*
X135650582Y-108820750D01*
X135639313Y-108798119D01*
X135578892Y-108676777D01*
X135559673Y-108638179D01*
X135436764Y-108475421D01*
X135436762Y-108475418D01*
X135286041Y-108338019D01*
X135286039Y-108338017D01*
X135112642Y-108230655D01*
X135112639Y-108230653D01*
X135112637Y-108230652D01*
X135112636Y-108230651D01*
X135112635Y-108230651D01*
X134986769Y-108181891D01*
X134922456Y-108156976D01*
X134721976Y-108119500D01*
X134721974Y-108119500D01*
X134574544Y-108119500D01*
X134507505Y-108099815D01*
X134486863Y-108083181D01*
X134388863Y-107985181D01*
X134355378Y-107923858D01*
X134360362Y-107854166D01*
X134402234Y-107798233D01*
X134467698Y-107773816D01*
X134476544Y-107773500D01*
X135166456Y-107773500D01*
X135233495Y-107793185D01*
X135254137Y-107809819D01*
X135695600Y-108251282D01*
X136111423Y-108667104D01*
X136144908Y-108728427D01*
X136139924Y-108798118D01*
X136134743Y-108810054D01*
X136129420Y-108820743D01*
X136129419Y-108820746D01*
X136073602Y-109016917D01*
X136054785Y-109219999D01*
X136054785Y-109220000D01*
X136073602Y-109423082D01*
X136129417Y-109619247D01*
X136129422Y-109619260D01*
X136220327Y-109801821D01*
X136343237Y-109964581D01*
X136493958Y-110101980D01*
X136493960Y-110101982D01*
X136593141Y-110163392D01*
X136667363Y-110209348D01*
X136857544Y-110283024D01*
X137058024Y-110320500D01*
X137058026Y-110320500D01*
X137261974Y-110320500D01*
X137261976Y-110320500D01*
X137462456Y-110283024D01*
X137652637Y-110209348D01*
X137826041Y-110101981D01*
X137976764Y-109964579D01*
X138099673Y-109801821D01*
X138190582Y-109619250D01*
X138246397Y-109423083D01*
X138265215Y-109220000D01*
X138594785Y-109220000D01*
X138613602Y-109423082D01*
X138669417Y-109619247D01*
X138669422Y-109619260D01*
X138760327Y-109801821D01*
X138883237Y-109964581D01*
X139033958Y-110101980D01*
X139033960Y-110101982D01*
X139133141Y-110163392D01*
X139207363Y-110209348D01*
X139397544Y-110283024D01*
X139598024Y-110320500D01*
X139598026Y-110320500D01*
X139801974Y-110320500D01*
X139801976Y-110320500D01*
X140002456Y-110283024D01*
X140192637Y-110209348D01*
X140366041Y-110101981D01*
X140516764Y-109964579D01*
X140639673Y-109801821D01*
X140730582Y-109619250D01*
X140786397Y-109423083D01*
X140805215Y-109220000D01*
X140786397Y-109016917D01*
X140730582Y-108820750D01*
X140719313Y-108798119D01*
X140658892Y-108676777D01*
X140639673Y-108638179D01*
X140516764Y-108475421D01*
X140516762Y-108475418D01*
X140366041Y-108338019D01*
X140366039Y-108338017D01*
X140192642Y-108230655D01*
X140192639Y-108230653D01*
X140192637Y-108230652D01*
X140192636Y-108230651D01*
X140192635Y-108230651D01*
X140066769Y-108181891D01*
X140002456Y-108156976D01*
X139801976Y-108119500D01*
X139598024Y-108119500D01*
X139397544Y-108156976D01*
X139397541Y-108156976D01*
X139397541Y-108156977D01*
X139207364Y-108230651D01*
X139207357Y-108230655D01*
X139033960Y-108338017D01*
X139033958Y-108338019D01*
X138883237Y-108475418D01*
X138760327Y-108638178D01*
X138669422Y-108820739D01*
X138669417Y-108820752D01*
X138613602Y-109016917D01*
X138594785Y-109219999D01*
X138594785Y-109220000D01*
X138265215Y-109220000D01*
X138246397Y-109016917D01*
X138190582Y-108820750D01*
X138179313Y-108798119D01*
X138118892Y-108676777D01*
X138099673Y-108638179D01*
X137976764Y-108475421D01*
X137976762Y-108475418D01*
X137826041Y-108338019D01*
X137826039Y-108338017D01*
X137652642Y-108230655D01*
X137652639Y-108230653D01*
X137652637Y-108230652D01*
X137652636Y-108230651D01*
X137652635Y-108230651D01*
X137526769Y-108181891D01*
X137462456Y-108156976D01*
X137261976Y-108119500D01*
X137058024Y-108119500D01*
X136857544Y-108156976D01*
X136857541Y-108156976D01*
X136857541Y-108156977D01*
X136741963Y-108201752D01*
X136672339Y-108207614D01*
X136610599Y-108174904D01*
X136609488Y-108173806D01*
X136020863Y-107585181D01*
X135987378Y-107523858D01*
X135992362Y-107454166D01*
X136034234Y-107398233D01*
X136099698Y-107373816D01*
X136108544Y-107373500D01*
X139846456Y-107373500D01*
X139913495Y-107393185D01*
X139934137Y-107409819D01*
X141191422Y-108667104D01*
X141224907Y-108728427D01*
X141219923Y-108798119D01*
X141214745Y-108810049D01*
X141209419Y-108820745D01*
X141209419Y-108820746D01*
X141153602Y-109016917D01*
X141134785Y-109219999D01*
X141134785Y-109220000D01*
X141153602Y-109423082D01*
X141209417Y-109619247D01*
X141209422Y-109619260D01*
X141300327Y-109801821D01*
X141423237Y-109964581D01*
X141573958Y-110101980D01*
X141573960Y-110101982D01*
X141673141Y-110163392D01*
X141747363Y-110209348D01*
X141937544Y-110283024D01*
X142138024Y-110320500D01*
X142138026Y-110320500D01*
X142341974Y-110320500D01*
X142341976Y-110320500D01*
X142542456Y-110283024D01*
X142732637Y-110209348D01*
X142906041Y-110101981D01*
X143056764Y-109964579D01*
X143179673Y-109801821D01*
X143270582Y-109619250D01*
X143326397Y-109423083D01*
X143345215Y-109220000D01*
X143674785Y-109220000D01*
X143693602Y-109423082D01*
X143749417Y-109619247D01*
X143749422Y-109619260D01*
X143840327Y-109801821D01*
X143963237Y-109964581D01*
X144113958Y-110101980D01*
X144113960Y-110101982D01*
X144213141Y-110163392D01*
X144287363Y-110209348D01*
X144477544Y-110283024D01*
X144678024Y-110320500D01*
X144678026Y-110320500D01*
X144881974Y-110320500D01*
X144881976Y-110320500D01*
X145082456Y-110283024D01*
X145272637Y-110209348D01*
X145446041Y-110101981D01*
X145596764Y-109964579D01*
X145719673Y-109801821D01*
X145810582Y-109619250D01*
X145866397Y-109423083D01*
X145885215Y-109220000D01*
X146214785Y-109220000D01*
X146233602Y-109423082D01*
X146289417Y-109619247D01*
X146289422Y-109619260D01*
X146380327Y-109801821D01*
X146503237Y-109964581D01*
X146653958Y-110101980D01*
X146653960Y-110101982D01*
X146753141Y-110163392D01*
X146827363Y-110209348D01*
X147017544Y-110283024D01*
X147218024Y-110320500D01*
X147218026Y-110320500D01*
X147421974Y-110320500D01*
X147421976Y-110320500D01*
X147622456Y-110283024D01*
X147812637Y-110209348D01*
X147986041Y-110101981D01*
X148136764Y-109964579D01*
X148259673Y-109801821D01*
X148346816Y-109626812D01*
X148394319Y-109575575D01*
X148461982Y-109558153D01*
X148528323Y-109580078D01*
X148572278Y-109634389D01*
X148577592Y-109649989D01*
X148586567Y-109683485D01*
X148586570Y-109683492D01*
X148686399Y-109897578D01*
X148821894Y-110091082D01*
X148988917Y-110258105D01*
X149182421Y-110393600D01*
X149396507Y-110493429D01*
X149396516Y-110493433D01*
X149610000Y-110550634D01*
X149610000Y-109832301D01*
X149629685Y-109765262D01*
X149682489Y-109719507D01*
X149751647Y-109709563D01*
X149824237Y-109720000D01*
X149824238Y-109720000D01*
X149895762Y-109720000D01*
X149895763Y-109720000D01*
X149968353Y-109709563D01*
X150037512Y-109719507D01*
X150090315Y-109765262D01*
X150110000Y-109832301D01*
X150110000Y-110550633D01*
X150323483Y-110493433D01*
X150323492Y-110493429D01*
X150537578Y-110393600D01*
X150731082Y-110258105D01*
X150898105Y-110091082D01*
X151033600Y-109897578D01*
X151133429Y-109683492D01*
X151133432Y-109683486D01*
X151190636Y-109470000D01*
X150473347Y-109470000D01*
X150406308Y-109450315D01*
X150360553Y-109397511D01*
X150350609Y-109328353D01*
X150354369Y-109311067D01*
X150360000Y-109291888D01*
X150360000Y-109148111D01*
X150354369Y-109128933D01*
X150354370Y-109059064D01*
X150392145Y-109000286D01*
X150455701Y-108971262D01*
X150473347Y-108970000D01*
X151190636Y-108970000D01*
X151190635Y-108969999D01*
X151133432Y-108756513D01*
X151133429Y-108756507D01*
X151033600Y-108542422D01*
X151033599Y-108542420D01*
X150898113Y-108348926D01*
X150898108Y-108348920D01*
X150731082Y-108181894D01*
X150537578Y-108046399D01*
X150323492Y-107946570D01*
X150323486Y-107946567D01*
X150110000Y-107889364D01*
X150110000Y-108607698D01*
X150090315Y-108674737D01*
X150037511Y-108720492D01*
X149968355Y-108730436D01*
X149895766Y-108720000D01*
X149895763Y-108720000D01*
X149824237Y-108720000D01*
X149824233Y-108720000D01*
X149751645Y-108730436D01*
X149682487Y-108720492D01*
X149629684Y-108674736D01*
X149610000Y-108607698D01*
X149610000Y-107889364D01*
X149609999Y-107889364D01*
X149396513Y-107946567D01*
X149396507Y-107946570D01*
X149182422Y-108046399D01*
X149182420Y-108046400D01*
X148988926Y-108181886D01*
X148988920Y-108181891D01*
X148821891Y-108348920D01*
X148821886Y-108348926D01*
X148686400Y-108542420D01*
X148686399Y-108542422D01*
X148586570Y-108756507D01*
X148586568Y-108756511D01*
X148577592Y-108790011D01*
X148541226Y-108849671D01*
X148478379Y-108880199D01*
X148409003Y-108871904D01*
X148355126Y-108827418D01*
X148346817Y-108813188D01*
X148278892Y-108676777D01*
X148259673Y-108638179D01*
X148136764Y-108475421D01*
X148136762Y-108475418D01*
X147986041Y-108338019D01*
X147986039Y-108338017D01*
X147812642Y-108230655D01*
X147812639Y-108230653D01*
X147812637Y-108230652D01*
X147812636Y-108230651D01*
X147812635Y-108230651D01*
X147686769Y-108181891D01*
X147622456Y-108156976D01*
X147421976Y-108119500D01*
X147218024Y-108119500D01*
X147017544Y-108156976D01*
X147017541Y-108156976D01*
X147017541Y-108156977D01*
X146827364Y-108230651D01*
X146827357Y-108230655D01*
X146653960Y-108338017D01*
X146653958Y-108338019D01*
X146503237Y-108475418D01*
X146380327Y-108638178D01*
X146289422Y-108820739D01*
X146289417Y-108820752D01*
X146233602Y-109016917D01*
X146214785Y-109219999D01*
X146214785Y-109220000D01*
X145885215Y-109220000D01*
X145866397Y-109016917D01*
X145810582Y-108820750D01*
X145799313Y-108798119D01*
X145738892Y-108676777D01*
X145719673Y-108638179D01*
X145596764Y-108475421D01*
X145596762Y-108475418D01*
X145446041Y-108338019D01*
X145446039Y-108338017D01*
X145272642Y-108230655D01*
X145272639Y-108230653D01*
X145272637Y-108230652D01*
X145272636Y-108230651D01*
X145272635Y-108230651D01*
X145146769Y-108181891D01*
X145082456Y-108156976D01*
X144881976Y-108119500D01*
X144678024Y-108119500D01*
X144477544Y-108156976D01*
X144477541Y-108156976D01*
X144477541Y-108156977D01*
X144287364Y-108230651D01*
X144287357Y-108230655D01*
X144113960Y-108338017D01*
X144113958Y-108338019D01*
X143963237Y-108475418D01*
X143840327Y-108638178D01*
X143749422Y-108820739D01*
X143749417Y-108820752D01*
X143693602Y-109016917D01*
X143674785Y-109219999D01*
X143674785Y-109220000D01*
X143345215Y-109220000D01*
X143326397Y-109016917D01*
X143270582Y-108820750D01*
X143259313Y-108798119D01*
X143198892Y-108676777D01*
X143179673Y-108638179D01*
X143056764Y-108475421D01*
X143056762Y-108475418D01*
X142906041Y-108338019D01*
X142906039Y-108338017D01*
X142732642Y-108230655D01*
X142732639Y-108230653D01*
X142732637Y-108230652D01*
X142732636Y-108230651D01*
X142732635Y-108230651D01*
X142606769Y-108181891D01*
X142542456Y-108156976D01*
X142341976Y-108119500D01*
X142138024Y-108119500D01*
X141937544Y-108156976D01*
X141937541Y-108156976D01*
X141937541Y-108156977D01*
X141821963Y-108201752D01*
X141752339Y-108207614D01*
X141690599Y-108174904D01*
X141689488Y-108173806D01*
X140325637Y-106809955D01*
X140309511Y-106790098D01*
X140304437Y-106782331D01*
X140278487Y-106762133D01*
X140272741Y-106757059D01*
X140270307Y-106754625D01*
X140270306Y-106754624D01*
X140270305Y-106754623D01*
X140258421Y-106746139D01*
X140252561Y-106741955D01*
X140212126Y-106710483D01*
X140212122Y-106710481D01*
X140205648Y-106706977D01*
X140199069Y-106703760D01*
X140149954Y-106689138D01*
X140101486Y-106672498D01*
X140094269Y-106671294D01*
X140086953Y-106670382D01*
X140037725Y-106672419D01*
X140035769Y-106672500D01*
X138800314Y-106672500D01*
X138733275Y-106652815D01*
X138687520Y-106600011D01*
X138677576Y-106530853D01*
X138697865Y-106482685D01*
X138696472Y-106481881D01*
X138700534Y-106474843D01*
X138700536Y-106474841D01*
X138720766Y-106426001D01*
X140745318Y-106426001D01*
X140765955Y-106582760D01*
X140765956Y-106582762D01*
X140822550Y-106719393D01*
X140826464Y-106728841D01*
X140922718Y-106854282D01*
X141048159Y-106950536D01*
X141194238Y-107011044D01*
X141243064Y-107017472D01*
X141350999Y-107031682D01*
X141351000Y-107031682D01*
X141351001Y-107031682D01*
X141403253Y-107024802D01*
X141507762Y-107011044D01*
X141653841Y-106950536D01*
X141653845Y-106950532D01*
X141660876Y-106946474D01*
X141661882Y-106948216D01*
X141716932Y-106926931D01*
X141727257Y-106926500D01*
X142038357Y-106926500D01*
X142105396Y-106946185D01*
X142137623Y-106976189D01*
X142168525Y-107017469D01*
X142168526Y-107017470D01*
X142168528Y-107017472D01*
X142276549Y-107098335D01*
X142276552Y-107098337D01*
X142402975Y-107145490D01*
X142402978Y-107145491D01*
X142432318Y-107148645D01*
X142458855Y-107151499D01*
X142458870Y-107151500D01*
X142986130Y-107151500D01*
X142986144Y-107151499D01*
X143008023Y-107149146D01*
X143042022Y-107145491D01*
X143168450Y-107098336D01*
X143276472Y-107017472D01*
X143357336Y-106909450D01*
X143378176Y-106853576D01*
X143393818Y-106811638D01*
X143435689Y-106755704D01*
X143501153Y-106731287D01*
X143569426Y-106746139D01*
X143618832Y-106795544D01*
X143626182Y-106811638D01*
X143662662Y-106909447D01*
X143662664Y-106909450D01*
X143743528Y-107017472D01*
X143851549Y-107098335D01*
X143851552Y-107098337D01*
X143977975Y-107145490D01*
X143977978Y-107145491D01*
X144007318Y-107148645D01*
X144033855Y-107151499D01*
X144033870Y-107151500D01*
X144561130Y-107151500D01*
X144561144Y-107151499D01*
X144583023Y-107149146D01*
X144617022Y-107145491D01*
X144743450Y-107098336D01*
X144798358Y-107057231D01*
X144863821Y-107032816D01*
X144872667Y-107032500D01*
X145229959Y-107032500D01*
X145296998Y-107052185D01*
X145317640Y-107068819D01*
X145383897Y-107135076D01*
X145383900Y-107135078D01*
X145494656Y-107189222D01*
X145499482Y-107191582D01*
X145574418Y-107202500D01*
X145574423Y-107202500D01*
X146017577Y-107202500D01*
X146017582Y-107202500D01*
X146092518Y-107191582D01*
X146167067Y-107155137D01*
X146208099Y-107135078D01*
X146208102Y-107135076D01*
X146299076Y-107044102D01*
X146299078Y-107044099D01*
X146332277Y-106976189D01*
X146355582Y-106928518D01*
X146366500Y-106853582D01*
X146366500Y-106510418D01*
X146355582Y-106435482D01*
X146355580Y-106435479D01*
X146355580Y-106435475D01*
X146352739Y-106426279D01*
X146354635Y-106425692D01*
X146344932Y-106368897D01*
X146372267Y-106304596D01*
X146380412Y-106295612D01*
X146486734Y-106189290D01*
X146486738Y-106189285D01*
X146568404Y-106051194D01*
X146608844Y-105912000D01*
X144971536Y-105912000D01*
X144904497Y-105892315D01*
X144872272Y-105862313D01*
X144851472Y-105834528D01*
X144743450Y-105753664D01*
X144743447Y-105753662D01*
X144617024Y-105706509D01*
X144561144Y-105700500D01*
X144561130Y-105700500D01*
X144033870Y-105700500D01*
X144033855Y-105700500D01*
X143977975Y-105706509D01*
X143851552Y-105753662D01*
X143851549Y-105753664D01*
X143743528Y-105834528D01*
X143662664Y-105942549D01*
X143662662Y-105942552D01*
X143626182Y-106040361D01*
X143584311Y-106096295D01*
X143518846Y-106120712D01*
X143450573Y-106105860D01*
X143401168Y-106056455D01*
X143393818Y-106040361D01*
X143357337Y-105942552D01*
X143357335Y-105942549D01*
X143354035Y-105938141D01*
X143276472Y-105834528D01*
X143168450Y-105753664D01*
X143168447Y-105753662D01*
X143042024Y-105706509D01*
X142986144Y-105700500D01*
X142986130Y-105700500D01*
X142458870Y-105700500D01*
X142458855Y-105700500D01*
X142402975Y-105706509D01*
X142276552Y-105753662D01*
X142276549Y-105753664D01*
X142168525Y-105834530D01*
X142137623Y-105875811D01*
X142081689Y-105917682D01*
X142038357Y-105925500D01*
X141727257Y-105925500D01*
X141660218Y-105905815D01*
X141654900Y-105902075D01*
X141653836Y-105901461D01*
X141507765Y-105840957D01*
X141507760Y-105840955D01*
X141351001Y-105820318D01*
X141350999Y-105820318D01*
X141194239Y-105840955D01*
X141194237Y-105840956D01*
X141048160Y-105901463D01*
X140922718Y-105997718D01*
X140826463Y-106123160D01*
X140765956Y-106269237D01*
X140765955Y-106269239D01*
X140745318Y-106425998D01*
X140745318Y-106426001D01*
X138720766Y-106426001D01*
X138761044Y-106328762D01*
X138781682Y-106172000D01*
X138780705Y-106164581D01*
X138761044Y-106015239D01*
X138761044Y-106015238D01*
X138700536Y-105869159D01*
X138604282Y-105743718D01*
X138604279Y-105743716D01*
X138604278Y-105743714D01*
X138575013Y-105721258D01*
X138533811Y-105664830D01*
X138526500Y-105622883D01*
X138526500Y-105420000D01*
X147179785Y-105420000D01*
X147198602Y-105623082D01*
X147254417Y-105819247D01*
X147254421Y-105819257D01*
X147345327Y-106001821D01*
X147468237Y-106164581D01*
X147618958Y-106301980D01*
X147618960Y-106301982D01*
X147662212Y-106328762D01*
X147792363Y-106409348D01*
X147982544Y-106483024D01*
X148183024Y-106520500D01*
X148183026Y-106520500D01*
X148386974Y-106520500D01*
X148386976Y-106520500D01*
X148587456Y-106483024D01*
X148777637Y-106409348D01*
X148951041Y-106301981D01*
X149093165Y-106172418D01*
X149101762Y-106164581D01*
X149104089Y-106161500D01*
X149224673Y-106001821D01*
X149290730Y-105869160D01*
X149315579Y-105819257D01*
X149315579Y-105819254D01*
X149315582Y-105819250D01*
X149371397Y-105623083D01*
X149390215Y-105420000D01*
X149371397Y-105216917D01*
X149315582Y-105020750D01*
X149311259Y-105012069D01*
X149267462Y-104924112D01*
X149224673Y-104838179D01*
X149101764Y-104675421D01*
X149101762Y-104675418D01*
X148951041Y-104538019D01*
X148951039Y-104538017D01*
X148777642Y-104430655D01*
X148777635Y-104430651D01*
X148648292Y-104380544D01*
X148587456Y-104356976D01*
X148386976Y-104319500D01*
X148183024Y-104319500D01*
X147982544Y-104356976D01*
X147982541Y-104356976D01*
X147982541Y-104356977D01*
X147792364Y-104430651D01*
X147792357Y-104430655D01*
X147618960Y-104538017D01*
X147618958Y-104538019D01*
X147468237Y-104675418D01*
X147345327Y-104838178D01*
X147254422Y-105020739D01*
X147254417Y-105020752D01*
X147198602Y-105216917D01*
X147179785Y-105419999D01*
X147179785Y-105420000D01*
X138526500Y-105420000D01*
X138526500Y-104689115D01*
X138546185Y-104622076D01*
X138575011Y-104590742D01*
X138604282Y-104568282D01*
X138700536Y-104442841D01*
X138761044Y-104296762D01*
X138781682Y-104140000D01*
X138780450Y-104130644D01*
X138764007Y-104005742D01*
X138761044Y-103983238D01*
X138700536Y-103837159D01*
X138604282Y-103711718D01*
X138478841Y-103615464D01*
X138477093Y-103614740D01*
X138332762Y-103554956D01*
X138332760Y-103554955D01*
X138176001Y-103534318D01*
X138175999Y-103534318D01*
X138019239Y-103554955D01*
X138019237Y-103554956D01*
X137873158Y-103615464D01*
X137859984Y-103625573D01*
X137794814Y-103650765D01*
X137726370Y-103636725D01*
X137676381Y-103587910D01*
X137660500Y-103527195D01*
X137660500Y-102865257D01*
X137680185Y-102798218D01*
X137683924Y-102792900D01*
X137684532Y-102791845D01*
X137684536Y-102791841D01*
X137745044Y-102645762D01*
X137752480Y-102589277D01*
X137780746Y-102525381D01*
X137839071Y-102486910D01*
X137908935Y-102486079D01*
X137963100Y-102517782D01*
X139465377Y-104020058D01*
X139498862Y-104081381D01*
X139493878Y-104151073D01*
X139465380Y-104195417D01*
X139459402Y-104201395D01*
X139459399Y-104201398D01*
X139459399Y-104201399D01*
X139451187Y-104213689D01*
X139404033Y-104284260D01*
X139404032Y-104284264D01*
X139389500Y-104357321D01*
X139389500Y-105056678D01*
X139404032Y-105129735D01*
X139404033Y-105129739D01*
X139404034Y-105129740D01*
X139459399Y-105212601D01*
X139541211Y-105267265D01*
X139542260Y-105267966D01*
X139542264Y-105267967D01*
X139615321Y-105282499D01*
X139615324Y-105282500D01*
X139615326Y-105282500D01*
X140714676Y-105282500D01*
X140714677Y-105282499D01*
X140787740Y-105267966D01*
X140870601Y-105212601D01*
X140922649Y-105134705D01*
X140932752Y-105119585D01*
X140934756Y-105120924D01*
X140968030Y-105079640D01*
X141034325Y-105057579D01*
X141038744Y-105057500D01*
X143441256Y-105057500D01*
X143508295Y-105077185D01*
X143545846Y-105120521D01*
X143547248Y-105119585D01*
X143557351Y-105134705D01*
X143609399Y-105212601D01*
X143691211Y-105267265D01*
X143692260Y-105267966D01*
X143692264Y-105267967D01*
X143765321Y-105282499D01*
X143765324Y-105282500D01*
X144855626Y-105282500D01*
X144922665Y-105302185D01*
X144968420Y-105354989D01*
X144975068Y-105401229D01*
X144983155Y-105412000D01*
X145546000Y-105412000D01*
X145546000Y-104892068D01*
X146046000Y-104892068D01*
X146046000Y-105412000D01*
X146608844Y-105412000D01*
X146568404Y-105272805D01*
X146486738Y-105134714D01*
X146486731Y-105134705D01*
X146373294Y-105021268D01*
X146373285Y-105021261D01*
X146235191Y-104939593D01*
X146235188Y-104939592D01*
X146081130Y-104894834D01*
X146046000Y-104892068D01*
X145546000Y-104892068D01*
X145545999Y-104892068D01*
X145510869Y-104894834D01*
X145510868Y-104894834D01*
X145356811Y-104939592D01*
X145356804Y-104939595D01*
X145277620Y-104986424D01*
X145209896Y-105003607D01*
X145143634Y-104981447D01*
X145099871Y-104926980D01*
X145090500Y-104879692D01*
X145090500Y-104357323D01*
X145090499Y-104357321D01*
X145075967Y-104284264D01*
X145075966Y-104284260D01*
X145069499Y-104274582D01*
X145020601Y-104201399D01*
X144937740Y-104146034D01*
X144937739Y-104146033D01*
X144937735Y-104146032D01*
X144864677Y-104131500D01*
X144864674Y-104131500D01*
X143765326Y-104131500D01*
X143765323Y-104131500D01*
X143692264Y-104146032D01*
X143692260Y-104146033D01*
X143609398Y-104201399D01*
X143547248Y-104294415D01*
X143545243Y-104293075D01*
X143511970Y-104334360D01*
X143445675Y-104356421D01*
X143441256Y-104356500D01*
X141038744Y-104356500D01*
X140971705Y-104336815D01*
X140934153Y-104293478D01*
X140932752Y-104294415D01*
X140870601Y-104201399D01*
X140787739Y-104146033D01*
X140787735Y-104146032D01*
X140714677Y-104131500D01*
X140714674Y-104131500D01*
X140587363Y-104131500D01*
X140520324Y-104111815D01*
X140478317Y-104066534D01*
X140476707Y-104063559D01*
X140462447Y-104034391D01*
X140454198Y-104017517D01*
X140454197Y-104017516D01*
X140449926Y-104011534D01*
X140445417Y-104005741D01*
X140407712Y-103971030D01*
X139780863Y-103344181D01*
X139747378Y-103282858D01*
X139752362Y-103213166D01*
X139794234Y-103157233D01*
X139859698Y-103132816D01*
X139868544Y-103132500D01*
X140714676Y-103132500D01*
X140714677Y-103132499D01*
X140787740Y-103117966D01*
X140846960Y-103078396D01*
X140913638Y-103057520D01*
X140915850Y-103057500D01*
X143564150Y-103057500D01*
X143631189Y-103077185D01*
X143633029Y-103078390D01*
X143661989Y-103097740D01*
X143692260Y-103117966D01*
X143692264Y-103117967D01*
X143765321Y-103132499D01*
X143765324Y-103132500D01*
X143765326Y-103132500D01*
X144864676Y-103132500D01*
X144864677Y-103132499D01*
X144937740Y-103117966D01*
X144996960Y-103078396D01*
X145063638Y-103057520D01*
X145065850Y-103057500D01*
X145152857Y-103057500D01*
X145179215Y-103060334D01*
X145183927Y-103061359D01*
X145235671Y-103057657D01*
X145240094Y-103057500D01*
X145255799Y-103057500D01*
X145271342Y-103055264D01*
X145275740Y-103054791D01*
X145327483Y-103051091D01*
X145331992Y-103049408D01*
X145357685Y-103042850D01*
X145362457Y-103042165D01*
X145409646Y-103020613D01*
X145413728Y-103018922D01*
X145452952Y-103004294D01*
X145462329Y-103000797D01*
X145462329Y-103000796D01*
X145462331Y-103000796D01*
X145466189Y-102997907D01*
X145488995Y-102984375D01*
X145493373Y-102982377D01*
X145532564Y-102948416D01*
X145536014Y-102945637D01*
X145542542Y-102940750D01*
X145548593Y-102936221D01*
X145559720Y-102925092D01*
X145562925Y-102922109D01*
X145602143Y-102888128D01*
X145604751Y-102884068D01*
X145608029Y-102880000D01*
X147179785Y-102880000D01*
X147198602Y-103083082D01*
X147254417Y-103279247D01*
X147254422Y-103279260D01*
X147345327Y-103461821D01*
X147468237Y-103624581D01*
X147618958Y-103761980D01*
X147618960Y-103761982D01*
X147662212Y-103788762D01*
X147792363Y-103869348D01*
X147982544Y-103943024D01*
X148183024Y-103980500D01*
X148183026Y-103980500D01*
X148386974Y-103980500D01*
X148386976Y-103980500D01*
X148587456Y-103943024D01*
X148777637Y-103869348D01*
X148951041Y-103761981D01*
X149079122Y-103645219D01*
X149101762Y-103624581D01*
X149101764Y-103624579D01*
X149224673Y-103461821D01*
X149315582Y-103279250D01*
X149371397Y-103083083D01*
X149390215Y-102880000D01*
X149384823Y-102821815D01*
X149371397Y-102676917D01*
X149362533Y-102645765D01*
X149315582Y-102480750D01*
X149313862Y-102477296D01*
X149266807Y-102382796D01*
X149224673Y-102298179D01*
X149138452Y-102184004D01*
X149101762Y-102135418D01*
X148951041Y-101998019D01*
X148951039Y-101998017D01*
X148777642Y-101890655D01*
X148777635Y-101890651D01*
X148670316Y-101849076D01*
X148587456Y-101816976D01*
X148386976Y-101779500D01*
X148183024Y-101779500D01*
X147982544Y-101816976D01*
X147982541Y-101816976D01*
X147982541Y-101816977D01*
X147792364Y-101890651D01*
X147792357Y-101890655D01*
X147618960Y-101998017D01*
X147618958Y-101998019D01*
X147468237Y-102135418D01*
X147345327Y-102298178D01*
X147254422Y-102480739D01*
X147254417Y-102480752D01*
X147198602Y-102676917D01*
X147179785Y-102879999D01*
X147179785Y-102880000D01*
X145608029Y-102880000D01*
X145621381Y-102863431D01*
X145629852Y-102854960D01*
X145691173Y-102821477D01*
X145697580Y-102820360D01*
X145698754Y-102820044D01*
X145698762Y-102820044D01*
X145844841Y-102759536D01*
X145970282Y-102663282D01*
X146066536Y-102537841D01*
X146127044Y-102391762D01*
X146147682Y-102235000D01*
X146145692Y-102219888D01*
X146127044Y-102078239D01*
X146127044Y-102078238D01*
X146066536Y-101932159D01*
X145970282Y-101806718D01*
X145844841Y-101710464D01*
X145844546Y-101710342D01*
X145698762Y-101649956D01*
X145698760Y-101649955D01*
X145542001Y-101629318D01*
X145541999Y-101629318D01*
X145385239Y-101649955D01*
X145385237Y-101649956D01*
X145239160Y-101710463D01*
X145113716Y-101806719D01*
X145012517Y-101938606D01*
X145010101Y-101936752D01*
X144969963Y-101974976D01*
X144901348Y-101988156D01*
X144889023Y-101986343D01*
X144864674Y-101981500D01*
X143765326Y-101981500D01*
X143765323Y-101981500D01*
X143692264Y-101996032D01*
X143692260Y-101996033D01*
X143633040Y-102035603D01*
X143566362Y-102056480D01*
X143564150Y-102056500D01*
X140915850Y-102056500D01*
X140848811Y-102036815D01*
X140846960Y-102035603D01*
X140787739Y-101996033D01*
X140787735Y-101996032D01*
X140714677Y-101981500D01*
X140714674Y-101981500D01*
X139615326Y-101981500D01*
X139615323Y-101981500D01*
X139542264Y-101996032D01*
X139542260Y-101996033D01*
X139459399Y-102051399D01*
X139404033Y-102134260D01*
X139404032Y-102134264D01*
X139389500Y-102207321D01*
X139389500Y-102653456D01*
X139369815Y-102720495D01*
X139317011Y-102766250D01*
X139247853Y-102776194D01*
X139184297Y-102747169D01*
X139177819Y-102741137D01*
X138055104Y-101618422D01*
X138021619Y-101557099D01*
X138026603Y-101487407D01*
X138068475Y-101431474D01*
X138095328Y-101416181D01*
X138224841Y-101362536D01*
X138350282Y-101266282D01*
X138446536Y-101140841D01*
X138507044Y-100994762D01*
X138527682Y-100838000D01*
X138525071Y-100818171D01*
X138507044Y-100681239D01*
X138507044Y-100681238D01*
X138446536Y-100535159D01*
X138350282Y-100409718D01*
X138350279Y-100409716D01*
X138350278Y-100409714D01*
X138321013Y-100387258D01*
X138279811Y-100330830D01*
X138272500Y-100288883D01*
X138272500Y-99596001D01*
X139249318Y-99596001D01*
X139269955Y-99752760D01*
X139269956Y-99752762D01*
X139324942Y-99885511D01*
X139330464Y-99898841D01*
X139426718Y-100024282D01*
X139552159Y-100120536D01*
X139698238Y-100181044D01*
X139776618Y-100191363D01*
X139854999Y-100201682D01*
X139855000Y-100201682D01*
X139855001Y-100201682D01*
X139932105Y-100191530D01*
X140011762Y-100181044D01*
X140011762Y-100181043D01*
X140019820Y-100179983D01*
X140020006Y-100181401D01*
X140081052Y-100182850D01*
X140138918Y-100222007D01*
X140166428Y-100286233D01*
X140165780Y-100320360D01*
X140155500Y-100385265D01*
X140155500Y-100385269D01*
X140155500Y-100385270D01*
X140155500Y-100726739D01*
X140169981Y-100818170D01*
X140169981Y-100818171D01*
X140169982Y-100818174D01*
X140169983Y-100818175D01*
X140222793Y-100921821D01*
X140226142Y-100928392D01*
X140226145Y-100928396D01*
X140313603Y-101015854D01*
X140313605Y-101015855D01*
X140313609Y-101015859D01*
X140423825Y-101072017D01*
X140423826Y-101072017D01*
X140423828Y-101072018D01*
X140458947Y-101077579D01*
X140515265Y-101086500D01*
X140916734Y-101086499D01*
X140916739Y-101086499D01*
X140916739Y-101086498D01*
X141008175Y-101072017D01*
X141010971Y-101070592D01*
X141012103Y-101070016D01*
X141068399Y-101056500D01*
X141327743Y-101056500D01*
X141394782Y-101076185D01*
X141400099Y-101079924D01*
X141401157Y-101080534D01*
X141401159Y-101080536D01*
X141401160Y-101080536D01*
X141401163Y-101080538D01*
X141419859Y-101088282D01*
X141547238Y-101141044D01*
X141589615Y-101146623D01*
X141703999Y-101161682D01*
X141704000Y-101161682D01*
X141704001Y-101161682D01*
X141758576Y-101154497D01*
X141860762Y-101141044D01*
X142006841Y-101080536D01*
X142132282Y-100984282D01*
X142228536Y-100858841D01*
X142289044Y-100712762D01*
X142306062Y-100583499D01*
X142309682Y-100556001D01*
X142309682Y-100555998D01*
X142291854Y-100420585D01*
X142289044Y-100399238D01*
X142243775Y-100289951D01*
X142236307Y-100220482D01*
X142267582Y-100158003D01*
X142327671Y-100122351D01*
X142358337Y-100118499D01*
X142937517Y-100118499D01*
X142937518Y-100118499D01*
X143031304Y-100103646D01*
X143045273Y-100096528D01*
X143113938Y-100083632D01*
X143178679Y-100109907D01*
X143218937Y-100167012D01*
X143221768Y-100233039D01*
X143221880Y-100233057D01*
X143221793Y-100233605D01*
X143221931Y-100236818D01*
X143220481Y-100241888D01*
X143205500Y-100336475D01*
X143205500Y-100699517D01*
X143207598Y-100712762D01*
X143220354Y-100793304D01*
X143277950Y-100906342D01*
X143277952Y-100906344D01*
X143277954Y-100906347D01*
X143367652Y-100996045D01*
X143367654Y-100996046D01*
X143367658Y-100996050D01*
X143472516Y-101049478D01*
X143480698Y-101053647D01*
X143574475Y-101068499D01*
X143574481Y-101068500D01*
X144812518Y-101068499D01*
X144906304Y-101053646D01*
X145019342Y-100996050D01*
X145019347Y-100996045D01*
X145024671Y-100992179D01*
X145090478Y-100968702D01*
X145097552Y-100968500D01*
X146214217Y-100968500D01*
X146221155Y-100968889D01*
X146253050Y-100972483D01*
X146260034Y-100973270D01*
X146260034Y-100973269D01*
X146260035Y-100973270D01*
X146318479Y-100962211D01*
X146377287Y-100953348D01*
X146377290Y-100953346D01*
X146385447Y-100950830D01*
X146393469Y-100948023D01*
X146393472Y-100948023D01*
X146446072Y-100920222D01*
X146499642Y-100894425D01*
X146499642Y-100894424D01*
X146499644Y-100894424D01*
X146506695Y-100889616D01*
X146513538Y-100884566D01*
X146555599Y-100842504D01*
X146560455Y-100837998D01*
X146599194Y-100802055D01*
X146599196Y-100802050D01*
X146604987Y-100794790D01*
X146605643Y-100795313D01*
X146615032Y-100783070D01*
X146982687Y-100415414D01*
X147044008Y-100381931D01*
X147113699Y-100386915D01*
X147169633Y-100428786D01*
X147193837Y-100491655D01*
X147198602Y-100543082D01*
X147254417Y-100739247D01*
X147254422Y-100739260D01*
X147345327Y-100921821D01*
X147468237Y-101084581D01*
X147618958Y-101221980D01*
X147618960Y-101221982D01*
X147695771Y-101269541D01*
X147792363Y-101329348D01*
X147982544Y-101403024D01*
X148183024Y-101440500D01*
X148183026Y-101440500D01*
X148386974Y-101440500D01*
X148386976Y-101440500D01*
X148587456Y-101403024D01*
X148777637Y-101329348D01*
X148951041Y-101221981D01*
X149101764Y-101084579D01*
X149224673Y-100921821D01*
X149315582Y-100739250D01*
X149371397Y-100543083D01*
X149390215Y-100340000D01*
X149385577Y-100289952D01*
X149371397Y-100136917D01*
X149357426Y-100087815D01*
X149315582Y-99940750D01*
X149312154Y-99933866D01*
X149224671Y-99758175D01*
X149214002Y-99744047D01*
X149189311Y-99678686D01*
X149203877Y-99610351D01*
X149253075Y-99560740D01*
X149308325Y-99545409D01*
X149312032Y-99545270D01*
X149312033Y-99545269D01*
X149312035Y-99545270D01*
X149370479Y-99534211D01*
X149429287Y-99525348D01*
X149429290Y-99525346D01*
X149437447Y-99522830D01*
X149445469Y-99520023D01*
X149445472Y-99520023D01*
X149498072Y-99492222D01*
X149551642Y-99466425D01*
X149551642Y-99466424D01*
X149551644Y-99466424D01*
X149558695Y-99461616D01*
X149565538Y-99456566D01*
X149607599Y-99414504D01*
X149612214Y-99410222D01*
X149651194Y-99374055D01*
X149651196Y-99374050D01*
X149656987Y-99366790D01*
X149657643Y-99367313D01*
X149667032Y-99355070D01*
X150158205Y-98863896D01*
X150163373Y-98859277D01*
X150193970Y-98834879D01*
X150227480Y-98785728D01*
X150262793Y-98737882D01*
X150262794Y-98737879D01*
X150266787Y-98730324D01*
X150270470Y-98722676D01*
X150270470Y-98722675D01*
X150270472Y-98722673D01*
X150288007Y-98665822D01*
X150307646Y-98609699D01*
X150307646Y-98609698D01*
X150309228Y-98601336D01*
X150310500Y-98592899D01*
X150310500Y-98533441D01*
X150312725Y-98473990D01*
X150311685Y-98464758D01*
X150312513Y-98464664D01*
X150310500Y-98449361D01*
X150310500Y-95064505D01*
X150330185Y-94997466D01*
X150369221Y-94959079D01*
X150526041Y-94861981D01*
X150676764Y-94724579D01*
X150799673Y-94561821D01*
X150890582Y-94379250D01*
X150946397Y-94183083D01*
X150965215Y-93980000D01*
X150946397Y-93776917D01*
X150890582Y-93580750D01*
X150875274Y-93550008D01*
X150840415Y-93480000D01*
X150799673Y-93398179D01*
X150676764Y-93235421D01*
X150676762Y-93235418D01*
X150526041Y-93098019D01*
X150526039Y-93098017D01*
X150352642Y-92990655D01*
X150352635Y-92990651D01*
X150226769Y-92941891D01*
X150162456Y-92916976D01*
X149961976Y-92879500D01*
X149758024Y-92879500D01*
X149557544Y-92916976D01*
X149557541Y-92916976D01*
X149557541Y-92916977D01*
X149367364Y-92990651D01*
X149367357Y-92990655D01*
X149193960Y-93098017D01*
X149193958Y-93098019D01*
X149043237Y-93235418D01*
X148920327Y-93398178D01*
X148829422Y-93580739D01*
X148829417Y-93580752D01*
X148773602Y-93776917D01*
X148754785Y-93979999D01*
X148754785Y-93980000D01*
X148773602Y-94183082D01*
X148829417Y-94379247D01*
X148829422Y-94379260D01*
X148920327Y-94561821D01*
X149043237Y-94724581D01*
X149193958Y-94861980D01*
X149193960Y-94861982D01*
X149222762Y-94879815D01*
X149350777Y-94959078D01*
X149397413Y-95011105D01*
X149409500Y-95064505D01*
X149409500Y-96340141D01*
X149389815Y-96407180D01*
X149337011Y-96452935D01*
X149267853Y-96462879D01*
X149243698Y-96456714D01*
X149242372Y-96456401D01*
X149182844Y-96450000D01*
X148535000Y-96450000D01*
X148535000Y-97187698D01*
X148515315Y-97254737D01*
X148462511Y-97300492D01*
X148393355Y-97310436D01*
X148320766Y-97300000D01*
X148320763Y-97300000D01*
X148249237Y-97300000D01*
X148249233Y-97300000D01*
X148176645Y-97310436D01*
X148107487Y-97300492D01*
X148054684Y-97254736D01*
X148035000Y-97187698D01*
X148035000Y-96450000D01*
X147387155Y-96450000D01*
X147327627Y-96456401D01*
X147327620Y-96456403D01*
X147192913Y-96506645D01*
X147192906Y-96506649D01*
X147077812Y-96592809D01*
X147077809Y-96592812D01*
X146991649Y-96707906D01*
X146991645Y-96707913D01*
X146941403Y-96842620D01*
X146941401Y-96842627D01*
X146935000Y-96902155D01*
X146935000Y-97550000D01*
X147671653Y-97550000D01*
X147738692Y-97569685D01*
X147784447Y-97622489D01*
X147794391Y-97691647D01*
X147790631Y-97708933D01*
X147785000Y-97728111D01*
X147785000Y-97871889D01*
X147787498Y-97880395D01*
X147790631Y-97891067D01*
X147790630Y-97960936D01*
X147752855Y-98019714D01*
X147689299Y-98048738D01*
X147671653Y-98050000D01*
X146935000Y-98050000D01*
X146935000Y-98697844D01*
X146941401Y-98757372D01*
X146941403Y-98757379D01*
X146991645Y-98892086D01*
X146991647Y-98892089D01*
X147030071Y-98943417D01*
X147054488Y-99008881D01*
X147039636Y-99077154D01*
X147018485Y-99105409D01*
X146092716Y-100031181D01*
X146031393Y-100064666D01*
X146005035Y-100067500D01*
X145097552Y-100067500D01*
X145030513Y-100047815D01*
X145024671Y-100043821D01*
X145019346Y-100039953D01*
X145019343Y-100039951D01*
X145019342Y-100039950D01*
X144920276Y-99989473D01*
X144906301Y-99982352D01*
X144812524Y-99967500D01*
X143574482Y-99967500D01*
X143480696Y-99982354D01*
X143466724Y-99989473D01*
X143398055Y-100002367D01*
X143333315Y-99976088D01*
X143293060Y-99918981D01*
X143290232Y-99852960D01*
X143290120Y-99852943D01*
X143290207Y-99852389D01*
X143290070Y-99849175D01*
X143291519Y-99844105D01*
X143305986Y-99752762D01*
X143306500Y-99749519D01*
X143306499Y-99523015D01*
X143326183Y-99455977D01*
X143378987Y-99410222D01*
X143448146Y-99400278D01*
X143465094Y-99403939D01*
X143503513Y-99415100D01*
X143503510Y-99415100D01*
X143540356Y-99418000D01*
X143943500Y-99418000D01*
X143943500Y-98868000D01*
X144443500Y-98868000D01*
X144443500Y-99418000D01*
X144846644Y-99418000D01*
X144883489Y-99415100D01*
X144883495Y-99415099D01*
X145041193Y-99369283D01*
X145041196Y-99369282D01*
X145182552Y-99285685D01*
X145182561Y-99285678D01*
X145298678Y-99169561D01*
X145298685Y-99169552D01*
X145382281Y-99028198D01*
X145428100Y-98870486D01*
X145428295Y-98868001D01*
X145428295Y-98868000D01*
X144443500Y-98868000D01*
X143943500Y-98868000D01*
X142958704Y-98868000D01*
X142958900Y-98870493D01*
X142959034Y-98871226D01*
X142958990Y-98871639D01*
X142959397Y-98876808D01*
X142958437Y-98876883D01*
X142951712Y-98940711D01*
X142907986Y-98995207D01*
X142841739Y-99017411D01*
X142837051Y-99017500D01*
X141699482Y-99017500D01*
X141605694Y-99032354D01*
X141563243Y-99053985D01*
X141506948Y-99067500D01*
X140939119Y-99067500D01*
X140919733Y-99065974D01*
X140916735Y-99065500D01*
X140916729Y-99065500D01*
X140801951Y-99065500D01*
X140788930Y-99064099D01*
X140788918Y-99064273D01*
X140780074Y-99063640D01*
X140758698Y-99065169D01*
X140756284Y-99065342D01*
X140751863Y-99065500D01*
X140515260Y-99065500D01*
X140515260Y-99065501D01*
X140423826Y-99079982D01*
X140423824Y-99079983D01*
X140419897Y-99081984D01*
X140363601Y-99095500D01*
X140231257Y-99095500D01*
X140164218Y-99075815D01*
X140158900Y-99072075D01*
X140157836Y-99071461D01*
X140011765Y-99010957D01*
X140011760Y-99010955D01*
X139855001Y-98990318D01*
X139854999Y-98990318D01*
X139698239Y-99010955D01*
X139698237Y-99010956D01*
X139552160Y-99071463D01*
X139426718Y-99167718D01*
X139330463Y-99293160D01*
X139269956Y-99439237D01*
X139269955Y-99439239D01*
X139249318Y-99595998D01*
X139249318Y-99596001D01*
X138272500Y-99596001D01*
X138272500Y-98367998D01*
X142958704Y-98367998D01*
X142958705Y-98368000D01*
X143943500Y-98368000D01*
X144443500Y-98368000D01*
X145428295Y-98368000D01*
X145447213Y-98347535D01*
X145507174Y-98311668D01*
X145545603Y-98308297D01*
X145546000Y-98307931D01*
X145546000Y-97788000D01*
X146046000Y-97788000D01*
X146046000Y-98307930D01*
X146081122Y-98305167D01*
X146081128Y-98305166D01*
X146235188Y-98260407D01*
X146235191Y-98260406D01*
X146373285Y-98178738D01*
X146373294Y-98178731D01*
X146486731Y-98065294D01*
X146486738Y-98065285D01*
X146568404Y-97927194D01*
X146608844Y-97788000D01*
X146046000Y-97788000D01*
X145546000Y-97788000D01*
X144973703Y-97788000D01*
X144939204Y-97813748D01*
X144886313Y-97821121D01*
X144846645Y-97818000D01*
X144443500Y-97818000D01*
X144443500Y-98368000D01*
X143943500Y-98368000D01*
X143943500Y-97818000D01*
X143540356Y-97818000D01*
X143503510Y-97820899D01*
X143503504Y-97820900D01*
X143345806Y-97866716D01*
X143345803Y-97866717D01*
X143204447Y-97950314D01*
X143204438Y-97950321D01*
X143088321Y-98066438D01*
X143088314Y-98066447D01*
X143004718Y-98207801D01*
X142958899Y-98365513D01*
X142958704Y-98367998D01*
X138272500Y-98367998D01*
X138272500Y-97732543D01*
X138292185Y-97665504D01*
X138308819Y-97644862D01*
X138792862Y-97160819D01*
X138854185Y-97127334D01*
X138880543Y-97124500D01*
X141951981Y-97124500D01*
X142019020Y-97144185D01*
X142064775Y-97196989D01*
X142068163Y-97205166D01*
X142087663Y-97257449D01*
X142087664Y-97257450D01*
X142168528Y-97365472D01*
X142276549Y-97446335D01*
X142276552Y-97446337D01*
X142402975Y-97493490D01*
X142402978Y-97493491D01*
X142432318Y-97496645D01*
X142458855Y-97499499D01*
X142458870Y-97499500D01*
X142986130Y-97499500D01*
X142986144Y-97499499D01*
X143008023Y-97497146D01*
X143042022Y-97493491D01*
X143168450Y-97446336D01*
X143276472Y-97365472D01*
X143357336Y-97257450D01*
X143381841Y-97191750D01*
X143393818Y-97159638D01*
X143435689Y-97103704D01*
X143501153Y-97079287D01*
X143569426Y-97094139D01*
X143618832Y-97143544D01*
X143626182Y-97159638D01*
X143662662Y-97257447D01*
X143662664Y-97257450D01*
X143743528Y-97365472D01*
X143851549Y-97446335D01*
X143851552Y-97446337D01*
X143977975Y-97493490D01*
X143977978Y-97493491D01*
X144007318Y-97496645D01*
X144033855Y-97499499D01*
X144033870Y-97499500D01*
X144561130Y-97499500D01*
X144561144Y-97499499D01*
X144583023Y-97497146D01*
X144617022Y-97493491D01*
X144743450Y-97446336D01*
X144851472Y-97365472D01*
X144872270Y-97337687D01*
X144928202Y-97295819D01*
X144971536Y-97288000D01*
X146608844Y-97288000D01*
X146568404Y-97148805D01*
X146486738Y-97010714D01*
X146486731Y-97010705D01*
X146380412Y-96904386D01*
X146346927Y-96843063D01*
X146351911Y-96773371D01*
X146355239Y-96765628D01*
X146355580Y-96764524D01*
X146355580Y-96764521D01*
X146355582Y-96764518D01*
X146366500Y-96689582D01*
X146366500Y-96346418D01*
X146355582Y-96271482D01*
X146342327Y-96244369D01*
X146299078Y-96155900D01*
X146299076Y-96155897D01*
X146208102Y-96064923D01*
X146208099Y-96064921D01*
X146092521Y-96008419D01*
X146092519Y-96008418D01*
X146092518Y-96008418D01*
X146070638Y-96005230D01*
X146007138Y-95976086D01*
X145969474Y-95917237D01*
X145969606Y-95847368D01*
X146000834Y-95794846D01*
X146769489Y-95026191D01*
X146830810Y-94992708D01*
X146900501Y-94997692D01*
X146901962Y-94998248D01*
X147000182Y-95036298D01*
X147017544Y-95043024D01*
X147218024Y-95080500D01*
X147218026Y-95080500D01*
X147421974Y-95080500D01*
X147421976Y-95080500D01*
X147622456Y-95043024D01*
X147812637Y-94969348D01*
X147986041Y-94861981D01*
X148136764Y-94724579D01*
X148259673Y-94561821D01*
X148350582Y-94379250D01*
X148406397Y-94183083D01*
X148425215Y-93980000D01*
X148406397Y-93776917D01*
X148350582Y-93580750D01*
X148335274Y-93550008D01*
X148300415Y-93480000D01*
X148259673Y-93398179D01*
X148136764Y-93235421D01*
X148136762Y-93235418D01*
X147986041Y-93098019D01*
X147986039Y-93098017D01*
X147812642Y-92990655D01*
X147812635Y-92990651D01*
X147686769Y-92941891D01*
X147622456Y-92916976D01*
X147421976Y-92879500D01*
X147218024Y-92879500D01*
X147017544Y-92916976D01*
X147017541Y-92916976D01*
X147017541Y-92916977D01*
X146827364Y-92990651D01*
X146827357Y-92990655D01*
X146653960Y-93098017D01*
X146653958Y-93098019D01*
X146503237Y-93235418D01*
X146380327Y-93398178D01*
X146289422Y-93580739D01*
X146289417Y-93580752D01*
X146233602Y-93776917D01*
X146214785Y-93979999D01*
X146214785Y-93980000D01*
X146233602Y-94183082D01*
X146289418Y-94379253D01*
X146294741Y-94389941D01*
X146307002Y-94458726D01*
X146280129Y-94523221D01*
X146271422Y-94532894D01*
X145192137Y-95612181D01*
X145130814Y-95645666D01*
X145104456Y-95648500D01*
X143546712Y-95648500D01*
X143521266Y-95645861D01*
X143520336Y-95645666D01*
X143512186Y-95643957D01*
X143512185Y-95643957D01*
X143512183Y-95643957D01*
X143479562Y-95648023D01*
X143471886Y-95648500D01*
X143468460Y-95648500D01*
X143452332Y-95651191D01*
X143446955Y-95652088D01*
X143396106Y-95658427D01*
X143389047Y-95660528D01*
X143382122Y-95662906D01*
X143337056Y-95687294D01*
X143291016Y-95709800D01*
X143285064Y-95714049D01*
X143279242Y-95718581D01*
X143248311Y-95752181D01*
X143244542Y-95756275D01*
X143102487Y-95898331D01*
X142988637Y-96012181D01*
X142927314Y-96045666D01*
X142900956Y-96048500D01*
X142458855Y-96048500D01*
X142402975Y-96054509D01*
X142276552Y-96101662D01*
X142276549Y-96101664D01*
X142168528Y-96182528D01*
X142087664Y-96290549D01*
X142087663Y-96290550D01*
X142068163Y-96342834D01*
X142026291Y-96398767D01*
X141960827Y-96423184D01*
X141951981Y-96423500D01*
X138733211Y-96423500D01*
X138707765Y-96420861D01*
X138698685Y-96418957D01*
X138698684Y-96418957D01*
X138698682Y-96418957D01*
X138666061Y-96423023D01*
X138658385Y-96423500D01*
X138654960Y-96423500D01*
X138633457Y-96427087D01*
X138582608Y-96433426D01*
X138575566Y-96435522D01*
X138568620Y-96437907D01*
X138523550Y-96462297D01*
X138477513Y-96484803D01*
X138471538Y-96489069D01*
X138465746Y-96493577D01*
X138431032Y-96531286D01*
X137722181Y-97240136D01*
X137660858Y-97273621D01*
X137591166Y-97268637D01*
X137535233Y-97226765D01*
X137510816Y-97161301D01*
X137510500Y-97152455D01*
X137510500Y-95109353D01*
X137530185Y-95042314D01*
X137582989Y-94996559D01*
X137589699Y-94993729D01*
X137652637Y-94969348D01*
X137826041Y-94861981D01*
X137976764Y-94724579D01*
X138099673Y-94561821D01*
X138190582Y-94379250D01*
X138246397Y-94183083D01*
X138265215Y-93980000D01*
X138594785Y-93980000D01*
X138613602Y-94183082D01*
X138669417Y-94379247D01*
X138669422Y-94379260D01*
X138760327Y-94561821D01*
X138883237Y-94724581D01*
X139033958Y-94861980D01*
X139033960Y-94861982D01*
X139062762Y-94879815D01*
X139207363Y-94969348D01*
X139397544Y-95043024D01*
X139598024Y-95080500D01*
X139598026Y-95080500D01*
X139801974Y-95080500D01*
X139801976Y-95080500D01*
X140002456Y-95043024D01*
X140192637Y-94969348D01*
X140366041Y-94861981D01*
X140516764Y-94724579D01*
X140639673Y-94561821D01*
X140730582Y-94379250D01*
X140786397Y-94183083D01*
X140805215Y-93980000D01*
X141134785Y-93980000D01*
X141153602Y-94183082D01*
X141209417Y-94379247D01*
X141209422Y-94379260D01*
X141300327Y-94561821D01*
X141423237Y-94724581D01*
X141573958Y-94861980D01*
X141573960Y-94861982D01*
X141602762Y-94879815D01*
X141747363Y-94969348D01*
X141937544Y-95043024D01*
X142138024Y-95080500D01*
X142138026Y-95080500D01*
X142341974Y-95080500D01*
X142341976Y-95080500D01*
X142542456Y-95043024D01*
X142732637Y-94969348D01*
X142906041Y-94861981D01*
X143056764Y-94724579D01*
X143179673Y-94561821D01*
X143270582Y-94379250D01*
X143326397Y-94183083D01*
X143345215Y-93980000D01*
X143674785Y-93980000D01*
X143693602Y-94183082D01*
X143749417Y-94379247D01*
X143749422Y-94379260D01*
X143840327Y-94561821D01*
X143963237Y-94724581D01*
X144113958Y-94861980D01*
X144113960Y-94861982D01*
X144142762Y-94879815D01*
X144287363Y-94969348D01*
X144477544Y-95043024D01*
X144678024Y-95080500D01*
X144678026Y-95080500D01*
X144881974Y-95080500D01*
X144881976Y-95080500D01*
X145082456Y-95043024D01*
X145272637Y-94969348D01*
X145446041Y-94861981D01*
X145596764Y-94724579D01*
X145719673Y-94561821D01*
X145810582Y-94379250D01*
X145866397Y-94183083D01*
X145885215Y-93980000D01*
X145866397Y-93776917D01*
X145810582Y-93580750D01*
X145795274Y-93550008D01*
X145760415Y-93480000D01*
X145719673Y-93398179D01*
X145596764Y-93235421D01*
X145596762Y-93235418D01*
X145446041Y-93098019D01*
X145446039Y-93098017D01*
X145272642Y-92990655D01*
X145272635Y-92990651D01*
X145146769Y-92941891D01*
X145082456Y-92916976D01*
X144881976Y-92879500D01*
X144678024Y-92879500D01*
X144477544Y-92916976D01*
X144477541Y-92916976D01*
X144477541Y-92916977D01*
X144287364Y-92990651D01*
X144287357Y-92990655D01*
X144113960Y-93098017D01*
X144113958Y-93098019D01*
X143963237Y-93235418D01*
X143840327Y-93398178D01*
X143749422Y-93580739D01*
X143749417Y-93580752D01*
X143693602Y-93776917D01*
X143674785Y-93979999D01*
X143674785Y-93980000D01*
X143345215Y-93980000D01*
X143326397Y-93776917D01*
X143270582Y-93580750D01*
X143255274Y-93550008D01*
X143220415Y-93480000D01*
X143179673Y-93398179D01*
X143056764Y-93235421D01*
X143056762Y-93235418D01*
X142906041Y-93098019D01*
X142906039Y-93098017D01*
X142732642Y-92990655D01*
X142732635Y-92990651D01*
X142606769Y-92941891D01*
X142542456Y-92916976D01*
X142341976Y-92879500D01*
X142138024Y-92879500D01*
X141937544Y-92916976D01*
X141937541Y-92916976D01*
X141937541Y-92916977D01*
X141747364Y-92990651D01*
X141747357Y-92990655D01*
X141573960Y-93098017D01*
X141573958Y-93098019D01*
X141423237Y-93235418D01*
X141300327Y-93398178D01*
X141209422Y-93580739D01*
X141209417Y-93580752D01*
X141153602Y-93776917D01*
X141134785Y-93979999D01*
X141134785Y-93980000D01*
X140805215Y-93980000D01*
X140786397Y-93776917D01*
X140730582Y-93580750D01*
X140715274Y-93550008D01*
X140680415Y-93480000D01*
X140639673Y-93398179D01*
X140516764Y-93235421D01*
X140516762Y-93235418D01*
X140366041Y-93098019D01*
X140366039Y-93098017D01*
X140192642Y-92990655D01*
X140192635Y-92990651D01*
X140066769Y-92941891D01*
X140002456Y-92916976D01*
X139801976Y-92879500D01*
X139598024Y-92879500D01*
X139397544Y-92916976D01*
X139397541Y-92916976D01*
X139397541Y-92916977D01*
X139207364Y-92990651D01*
X139207357Y-92990655D01*
X139033960Y-93098017D01*
X139033958Y-93098019D01*
X138883237Y-93235418D01*
X138760327Y-93398178D01*
X138669422Y-93580739D01*
X138669417Y-93580752D01*
X138613602Y-93776917D01*
X138594785Y-93979999D01*
X138594785Y-93980000D01*
X138265215Y-93980000D01*
X138246397Y-93776917D01*
X138190582Y-93580750D01*
X138175274Y-93550008D01*
X138140415Y-93480000D01*
X138099673Y-93398179D01*
X137976764Y-93235421D01*
X137976762Y-93235418D01*
X137826041Y-93098019D01*
X137826039Y-93098017D01*
X137652642Y-92990655D01*
X137652635Y-92990651D01*
X137526769Y-92941891D01*
X137462456Y-92916976D01*
X137261976Y-92879500D01*
X137058024Y-92879500D01*
X136857544Y-92916976D01*
X136857541Y-92916976D01*
X136857541Y-92916977D01*
X136667364Y-92990651D01*
X136667357Y-92990655D01*
X136493960Y-93098017D01*
X136493958Y-93098019D01*
X136343237Y-93235418D01*
X136220327Y-93398178D01*
X136129422Y-93580739D01*
X136129417Y-93580752D01*
X136073602Y-93776917D01*
X136054785Y-93979999D01*
X136054785Y-93980000D01*
X136073602Y-94183082D01*
X136129418Y-94379253D01*
X136134741Y-94389941D01*
X136147002Y-94458726D01*
X136120129Y-94523221D01*
X136111422Y-94532894D01*
X135101137Y-95543181D01*
X135039814Y-95576666D01*
X135013456Y-95579500D01*
X133815544Y-95579500D01*
X133748505Y-95559815D01*
X133702750Y-95507011D01*
X133692806Y-95437853D01*
X133721831Y-95374297D01*
X133727863Y-95367819D01*
X133811183Y-95284499D01*
X134069489Y-95026191D01*
X134130810Y-94992708D01*
X134200501Y-94997692D01*
X134201962Y-94998248D01*
X134300182Y-95036298D01*
X134317544Y-95043024D01*
X134518024Y-95080500D01*
X134518026Y-95080500D01*
X134721974Y-95080500D01*
X134721976Y-95080500D01*
X134922456Y-95043024D01*
X135112637Y-94969348D01*
X135286041Y-94861981D01*
X135436764Y-94724579D01*
X135559673Y-94561821D01*
X135650582Y-94379250D01*
X135706397Y-94183083D01*
X135725215Y-93980000D01*
X135706397Y-93776917D01*
X135650582Y-93580750D01*
X135635274Y-93550008D01*
X135600415Y-93480000D01*
X135559673Y-93398179D01*
X135436764Y-93235421D01*
X135436762Y-93235418D01*
X135286041Y-93098019D01*
X135286039Y-93098017D01*
X135112642Y-92990655D01*
X135112635Y-92990651D01*
X134986769Y-92941891D01*
X134922456Y-92916976D01*
X134721976Y-92879500D01*
X134518024Y-92879500D01*
X134317544Y-92916976D01*
X134317541Y-92916976D01*
X134317541Y-92916977D01*
X134127364Y-92990651D01*
X134127357Y-92990655D01*
X133953960Y-93098017D01*
X133953958Y-93098019D01*
X133803237Y-93235418D01*
X133680327Y-93398178D01*
X133589422Y-93580739D01*
X133589417Y-93580752D01*
X133533602Y-93776917D01*
X133514785Y-93979999D01*
X133514785Y-93980000D01*
X133533602Y-94183082D01*
X133589418Y-94379253D01*
X133594741Y-94389941D01*
X133607002Y-94458726D01*
X133580129Y-94523221D01*
X133571422Y-94532894D01*
X132961137Y-95143181D01*
X132899814Y-95176666D01*
X132873456Y-95179500D01*
X132669045Y-95179500D01*
X132602006Y-95159815D01*
X132556251Y-95107011D01*
X132546307Y-95037853D01*
X132575332Y-94974297D01*
X132603768Y-94950073D01*
X132702331Y-94889045D01*
X132746041Y-94861981D01*
X132896764Y-94724579D01*
X133019673Y-94561821D01*
X133110582Y-94379250D01*
X133166397Y-94183083D01*
X133185215Y-93980000D01*
X133166397Y-93776917D01*
X133110582Y-93580750D01*
X133095274Y-93550008D01*
X133060415Y-93480000D01*
X133019673Y-93398179D01*
X132896764Y-93235421D01*
X132896762Y-93235418D01*
X132746041Y-93098019D01*
X132746039Y-93098017D01*
X132572642Y-92990655D01*
X132572635Y-92990651D01*
X132446769Y-92941891D01*
X132382456Y-92916976D01*
X132181976Y-92879500D01*
X131978024Y-92879500D01*
X131777544Y-92916976D01*
X131777541Y-92916976D01*
X131777541Y-92916977D01*
X131587364Y-92990651D01*
X131587357Y-92990655D01*
X131413960Y-93098017D01*
X131413958Y-93098019D01*
X131263237Y-93235418D01*
X131140327Y-93398178D01*
X131049422Y-93580739D01*
X131049417Y-93580752D01*
X130993602Y-93776917D01*
X130974785Y-93979999D01*
X130974785Y-93980000D01*
X130993602Y-94183082D01*
X131012202Y-94248452D01*
X131049417Y-94379248D01*
X131049419Y-94379253D01*
X131054744Y-94389948D01*
X131067002Y-94458734D01*
X131040125Y-94523227D01*
X131031422Y-94532895D01*
X130821137Y-94743181D01*
X130759814Y-94776666D01*
X130733456Y-94779500D01*
X130564315Y-94779500D01*
X130497276Y-94759815D01*
X130451521Y-94707011D01*
X130441577Y-94637853D01*
X130465361Y-94580773D01*
X130479673Y-94561821D01*
X130570582Y-94379250D01*
X130626397Y-94183083D01*
X130645215Y-93980000D01*
X130626397Y-93776917D01*
X130570582Y-93580750D01*
X130555274Y-93550008D01*
X130520415Y-93480000D01*
X130479673Y-93398179D01*
X130356764Y-93235421D01*
X130356762Y-93235418D01*
X130206041Y-93098019D01*
X130206039Y-93098017D01*
X130032642Y-92990655D01*
X130032635Y-92990651D01*
X129906769Y-92941891D01*
X129842456Y-92916976D01*
X129641976Y-92879500D01*
X129438024Y-92879500D01*
X129237544Y-92916976D01*
X129237541Y-92916976D01*
X129237541Y-92916977D01*
X129047364Y-92990651D01*
X129047357Y-92990655D01*
X128873960Y-93098017D01*
X128873958Y-93098019D01*
X128723237Y-93235418D01*
X128600327Y-93398178D01*
X128509418Y-93580748D01*
X128509417Y-93580750D01*
X128498547Y-93618952D01*
X128461266Y-93678045D01*
X128451334Y-93685933D01*
X128438556Y-93695056D01*
X128432742Y-93699581D01*
X128398042Y-93737275D01*
X128295578Y-93839739D01*
X128234254Y-93873223D01*
X128164563Y-93868239D01*
X128108630Y-93826367D01*
X128089190Y-93782083D01*
X128087966Y-93782432D01*
X128084473Y-93770156D01*
X128030582Y-93580750D01*
X128015274Y-93550008D01*
X127980415Y-93480000D01*
X127939673Y-93398179D01*
X127816764Y-93235421D01*
X127816762Y-93235418D01*
X127666041Y-93098019D01*
X127666039Y-93098017D01*
X127492642Y-92990655D01*
X127492635Y-92990651D01*
X127366769Y-92941891D01*
X127302456Y-92916976D01*
X127101976Y-92879500D01*
X126898024Y-92879500D01*
X126697544Y-92916976D01*
X126697541Y-92916976D01*
X126697541Y-92916977D01*
X126507364Y-92990651D01*
X126507357Y-92990655D01*
X126333960Y-93098017D01*
X126333958Y-93098019D01*
X126183237Y-93235418D01*
X126060327Y-93398178D01*
X125969422Y-93580739D01*
X125969417Y-93580752D01*
X125913602Y-93776917D01*
X125894785Y-93979999D01*
X125894785Y-93980000D01*
X125913602Y-94183082D01*
X125969418Y-94379253D01*
X125974741Y-94389941D01*
X125987002Y-94458726D01*
X125960129Y-94523221D01*
X125951422Y-94532894D01*
X125770955Y-94713361D01*
X125751106Y-94729482D01*
X125743331Y-94734562D01*
X125723143Y-94760498D01*
X125718067Y-94766248D01*
X125715634Y-94768681D01*
X125715623Y-94768694D01*
X125702954Y-94786438D01*
X125671483Y-94826872D01*
X125667975Y-94833353D01*
X125664760Y-94839932D01*
X125650138Y-94889045D01*
X125633498Y-94937516D01*
X125632294Y-94944733D01*
X125631382Y-94952046D01*
X125633500Y-95003230D01*
X125633500Y-96784014D01*
X125613815Y-96851053D01*
X125561011Y-96896808D01*
X125491853Y-96906752D01*
X125428297Y-96877727D01*
X125421819Y-96871695D01*
X125218285Y-96668162D01*
X125218279Y-96668156D01*
X125181810Y-96640171D01*
X125181803Y-96640168D01*
X125165391Y-96634194D01*
X125120123Y-96605354D01*
X124846819Y-96332050D01*
X124813334Y-96270727D01*
X124810500Y-96244369D01*
X124810500Y-95109353D01*
X124830185Y-95042314D01*
X124882989Y-94996559D01*
X124889699Y-94993729D01*
X124952637Y-94969348D01*
X125126041Y-94861981D01*
X125276764Y-94724579D01*
X125399673Y-94561821D01*
X125490582Y-94379250D01*
X125546397Y-94183083D01*
X125565215Y-93980000D01*
X125546397Y-93776917D01*
X125490582Y-93580750D01*
X125475274Y-93550008D01*
X125440415Y-93480000D01*
X125399673Y-93398179D01*
X125276764Y-93235421D01*
X125276762Y-93235418D01*
X125126041Y-93098019D01*
X125126039Y-93098017D01*
X124952642Y-92990655D01*
X124952635Y-92990651D01*
X124826769Y-92941891D01*
X124762456Y-92916976D01*
X124561976Y-92879500D01*
X124358024Y-92879500D01*
X124157544Y-92916976D01*
X124157541Y-92916976D01*
X124157541Y-92916977D01*
X123967364Y-92990651D01*
X123967357Y-92990655D01*
X123793960Y-93098017D01*
X123793958Y-93098019D01*
X123643237Y-93235418D01*
X123520327Y-93398178D01*
X123429422Y-93580739D01*
X123429417Y-93580752D01*
X123373602Y-93776917D01*
X123354785Y-93979999D01*
X123354785Y-93980000D01*
X123373602Y-94183082D01*
X123429417Y-94379247D01*
X123429422Y-94379260D01*
X123520327Y-94561821D01*
X123643237Y-94724581D01*
X123793958Y-94861980D01*
X123793960Y-94861982D01*
X123822762Y-94879815D01*
X123967363Y-94969348D01*
X124030292Y-94993726D01*
X124085694Y-95036298D01*
X124109285Y-95102065D01*
X124109499Y-95109353D01*
X124109500Y-95374456D01*
X124089816Y-95441495D01*
X124037012Y-95487250D01*
X123967853Y-95497194D01*
X123904298Y-95468169D01*
X123897819Y-95462137D01*
X122968576Y-94532894D01*
X122935091Y-94471571D01*
X122940075Y-94401879D01*
X122945251Y-94389954D01*
X122950582Y-94379250D01*
X123006397Y-94183083D01*
X123025215Y-93980000D01*
X123006397Y-93776917D01*
X122950582Y-93580750D01*
X122935274Y-93550008D01*
X122900415Y-93480000D01*
X122859673Y-93398179D01*
X122736764Y-93235421D01*
X122736762Y-93235418D01*
X122586041Y-93098019D01*
X122586039Y-93098017D01*
X122412642Y-92990655D01*
X122412635Y-92990651D01*
X122286769Y-92941891D01*
X122222456Y-92916976D01*
X122021976Y-92879500D01*
X121818024Y-92879500D01*
X121617544Y-92916976D01*
X121617541Y-92916976D01*
X121617541Y-92916977D01*
X121427364Y-92990651D01*
X121427357Y-92990655D01*
X121253960Y-93098017D01*
X121253958Y-93098019D01*
X121103237Y-93235418D01*
X120980327Y-93398178D01*
X120889422Y-93580739D01*
X120889417Y-93580752D01*
X120833602Y-93776917D01*
X120814785Y-93979999D01*
X120814785Y-93980001D01*
X120827124Y-94113168D01*
X120813709Y-94181738D01*
X120765351Y-94232170D01*
X120697405Y-94248452D01*
X120631443Y-94225414D01*
X120615972Y-94212290D01*
X120517765Y-94114083D01*
X120484280Y-94052760D01*
X120481975Y-94014959D01*
X120485215Y-93980000D01*
X120466397Y-93776917D01*
X120410582Y-93580750D01*
X120395274Y-93550008D01*
X120360415Y-93480000D01*
X120319673Y-93398179D01*
X120196764Y-93235421D01*
X120196762Y-93235418D01*
X120046041Y-93098019D01*
X120046039Y-93098017D01*
X119872642Y-92990655D01*
X119872635Y-92990651D01*
X119746769Y-92941891D01*
X119682456Y-92916976D01*
X119481976Y-92879500D01*
X119278024Y-92879500D01*
X119077544Y-92916976D01*
X119077541Y-92916976D01*
X119077541Y-92916977D01*
X118887364Y-92990651D01*
X118887357Y-92990655D01*
X118713960Y-93098017D01*
X118713958Y-93098019D01*
X118563237Y-93235418D01*
X118440327Y-93398178D01*
X118349422Y-93580739D01*
X118349417Y-93580752D01*
X118293602Y-93776917D01*
X118274785Y-93979999D01*
X118274785Y-93980000D01*
X118293602Y-94183082D01*
X118349417Y-94379247D01*
X118349422Y-94379260D01*
X118440327Y-94561821D01*
X118454639Y-94580773D01*
X118479331Y-94646134D01*
X118464766Y-94714469D01*
X118415569Y-94764081D01*
X118355685Y-94779500D01*
X118186543Y-94779500D01*
X118119504Y-94759815D01*
X118098862Y-94743181D01*
X117888576Y-94532895D01*
X117855091Y-94471572D01*
X117860075Y-94401880D01*
X117865248Y-94389961D01*
X117870582Y-94379250D01*
X117926397Y-94183083D01*
X117945215Y-93980000D01*
X117926397Y-93776917D01*
X117870582Y-93580750D01*
X117855274Y-93550008D01*
X117820415Y-93480000D01*
X117779673Y-93398179D01*
X117656764Y-93235421D01*
X117656762Y-93235418D01*
X117506041Y-93098019D01*
X117506039Y-93098017D01*
X117332642Y-92990655D01*
X117332635Y-92990651D01*
X117206769Y-92941891D01*
X117142456Y-92916976D01*
X116941976Y-92879500D01*
X116738024Y-92879500D01*
X116537544Y-92916976D01*
X116537541Y-92916976D01*
X116537541Y-92916977D01*
X116347364Y-92990651D01*
X116347357Y-92990655D01*
X116173960Y-93098017D01*
X116173958Y-93098019D01*
X116023237Y-93235418D01*
X115900327Y-93398178D01*
X115809422Y-93580739D01*
X115809417Y-93580752D01*
X115753602Y-93776917D01*
X115734785Y-93979999D01*
X115734785Y-93980000D01*
X115753602Y-94183082D01*
X115809417Y-94379247D01*
X115809422Y-94379260D01*
X115900327Y-94561821D01*
X116023237Y-94724581D01*
X116173958Y-94861980D01*
X116173960Y-94861982D01*
X116316232Y-94950073D01*
X116362868Y-95002101D01*
X116373972Y-95071083D01*
X116346019Y-95135117D01*
X116287884Y-95173873D01*
X116250955Y-95179500D01*
X116046544Y-95179500D01*
X115979505Y-95159815D01*
X115958863Y-95143181D01*
X115348576Y-94532894D01*
X115315091Y-94471571D01*
X115320075Y-94401879D01*
X115325251Y-94389954D01*
X115330582Y-94379250D01*
X115386397Y-94183083D01*
X115405215Y-93980000D01*
X115386397Y-93776917D01*
X115330582Y-93580750D01*
X115315274Y-93550008D01*
X115280415Y-93480000D01*
X115239673Y-93398179D01*
X115116764Y-93235421D01*
X115116762Y-93235418D01*
X114966041Y-93098019D01*
X114966039Y-93098017D01*
X114792642Y-92990655D01*
X114792635Y-92990651D01*
X114666769Y-92941891D01*
X114602456Y-92916976D01*
X114401976Y-92879500D01*
X114198024Y-92879500D01*
X113997544Y-92916976D01*
X113997541Y-92916976D01*
X113997541Y-92916977D01*
X113807364Y-92990651D01*
X113807357Y-92990655D01*
X113633960Y-93098017D01*
X113633958Y-93098019D01*
X113483237Y-93235418D01*
X113360327Y-93398178D01*
X113269422Y-93580739D01*
X113269417Y-93580752D01*
X113213602Y-93776917D01*
X113194785Y-93979999D01*
X113194785Y-93980000D01*
X113213602Y-94183082D01*
X113269417Y-94379247D01*
X113269422Y-94379260D01*
X113360327Y-94561821D01*
X113483237Y-94724581D01*
X113633958Y-94861980D01*
X113633960Y-94861982D01*
X113662762Y-94879815D01*
X113807363Y-94969348D01*
X113997544Y-95043024D01*
X114198024Y-95080500D01*
X114198026Y-95080500D01*
X114401974Y-95080500D01*
X114401976Y-95080500D01*
X114602456Y-95043024D01*
X114718037Y-94998247D01*
X114787658Y-94992385D01*
X114849399Y-95025094D01*
X114850511Y-95026193D01*
X115192137Y-95367819D01*
X115225622Y-95429142D01*
X115220638Y-95498834D01*
X115178766Y-95554767D01*
X115113302Y-95579184D01*
X115104456Y-95579500D01*
X113906544Y-95579500D01*
X113839505Y-95559815D01*
X113818863Y-95543181D01*
X112808576Y-94532894D01*
X112775091Y-94471571D01*
X112780075Y-94401879D01*
X112785251Y-94389954D01*
X112790582Y-94379250D01*
X112846397Y-94183083D01*
X112865215Y-93980000D01*
X112846397Y-93776917D01*
X112790582Y-93580750D01*
X112775274Y-93550008D01*
X112740415Y-93480000D01*
X112699673Y-93398179D01*
X112576764Y-93235421D01*
X112576762Y-93235418D01*
X112426041Y-93098019D01*
X112426039Y-93098017D01*
X112252642Y-92990655D01*
X112252635Y-92990651D01*
X112126769Y-92941891D01*
X112062456Y-92916976D01*
X111861976Y-92879500D01*
X111658024Y-92879500D01*
X111457544Y-92916976D01*
X111457541Y-92916976D01*
X111457541Y-92916977D01*
X111267364Y-92990651D01*
X111267357Y-92990655D01*
X111093960Y-93098017D01*
X111093958Y-93098019D01*
X110943237Y-93235418D01*
X110820327Y-93398178D01*
X110729422Y-93580739D01*
X110729417Y-93580752D01*
X110673602Y-93776917D01*
X110654785Y-93979999D01*
X110654785Y-93980000D01*
X110673602Y-94183082D01*
X110729417Y-94379247D01*
X110729422Y-94379260D01*
X110808537Y-94538144D01*
X110820327Y-94561821D01*
X110892639Y-94657578D01*
X110925259Y-94700773D01*
X110949951Y-94766134D01*
X110935386Y-94834469D01*
X110886189Y-94884082D01*
X110826305Y-94899500D01*
X110686544Y-94899500D01*
X110619505Y-94879815D01*
X110598863Y-94863181D01*
X110268576Y-94532894D01*
X110235091Y-94471571D01*
X110240075Y-94401879D01*
X110245251Y-94389954D01*
X110250582Y-94379250D01*
X110306397Y-94183083D01*
X110312778Y-94114215D01*
X110322695Y-94075844D01*
X110326473Y-94067232D01*
X110336132Y-93950656D01*
X110316999Y-93875106D01*
X110313734Y-93856107D01*
X110312217Y-93839739D01*
X110306397Y-93776917D01*
X110250582Y-93580750D01*
X110235274Y-93550008D01*
X110200415Y-93480000D01*
X110159673Y-93398179D01*
X110036764Y-93235421D01*
X110036762Y-93235418D01*
X109886041Y-93098019D01*
X109886039Y-93098017D01*
X109712642Y-92990655D01*
X109712635Y-92990651D01*
X109586769Y-92941891D01*
X109522456Y-92916976D01*
X109321976Y-92879500D01*
X109118024Y-92879500D01*
X108917544Y-92916976D01*
X108917541Y-92916976D01*
X108917541Y-92916977D01*
X108727364Y-92990651D01*
X108727357Y-92990655D01*
X108553960Y-93098017D01*
X108553958Y-93098019D01*
X108403237Y-93235418D01*
X108280327Y-93398178D01*
X108193182Y-93573188D01*
X108145679Y-93624425D01*
X108078016Y-93641846D01*
X108011676Y-93619920D01*
X107967721Y-93565609D01*
X107962407Y-93550008D01*
X107953434Y-93516518D01*
X107953429Y-93516507D01*
X107853600Y-93302422D01*
X107853599Y-93302420D01*
X107718113Y-93108926D01*
X107718108Y-93108920D01*
X107551082Y-92941894D01*
X107357578Y-92806399D01*
X107143492Y-92706570D01*
X107143486Y-92706567D01*
X106930000Y-92649364D01*
X106930000Y-93367698D01*
X106910315Y-93434737D01*
X106857511Y-93480492D01*
X106788355Y-93490436D01*
X106715766Y-93480000D01*
X106715763Y-93480000D01*
X106644237Y-93480000D01*
X106644233Y-93480000D01*
X106571644Y-93490436D01*
X106502486Y-93480492D01*
X106449683Y-93434736D01*
X106429999Y-93367698D01*
X106429999Y-92649364D01*
X106216513Y-92706567D01*
X106216507Y-92706570D01*
X106002422Y-92806399D01*
X106002420Y-92806400D01*
X105808926Y-92941886D01*
X105808920Y-92941891D01*
X105641891Y-93108920D01*
X105641886Y-93108926D01*
X105506400Y-93302420D01*
X105506399Y-93302422D01*
X105406570Y-93516507D01*
X105406568Y-93516511D01*
X105397592Y-93550011D01*
X105361226Y-93609671D01*
X105298379Y-93640199D01*
X105229003Y-93631904D01*
X105175126Y-93587418D01*
X105166817Y-93573188D01*
X105120415Y-93480000D01*
X105079673Y-93398179D01*
X104956764Y-93235421D01*
X104956762Y-93235418D01*
X104806041Y-93098019D01*
X104806039Y-93098017D01*
X104632642Y-92990655D01*
X104632635Y-92990651D01*
X104506769Y-92941891D01*
X104442456Y-92916976D01*
X104241976Y-92879500D01*
X104038024Y-92879500D01*
X103837544Y-92916976D01*
X103837541Y-92916976D01*
X103837541Y-92916977D01*
X103647364Y-92990651D01*
X103647357Y-92990655D01*
X103473960Y-93098017D01*
X103473958Y-93098019D01*
X103323237Y-93235418D01*
X103200327Y-93398178D01*
X103109422Y-93580739D01*
X103109417Y-93580752D01*
X103053602Y-93776917D01*
X103034785Y-93979999D01*
X103034785Y-93980000D01*
X103053602Y-94183082D01*
X103109417Y-94379247D01*
X103109422Y-94379260D01*
X103200327Y-94561821D01*
X103323237Y-94724581D01*
X103473958Y-94861980D01*
X103473960Y-94861982D01*
X103502762Y-94879815D01*
X103647363Y-94969348D01*
X103837544Y-95043024D01*
X104038024Y-95080500D01*
X104038026Y-95080500D01*
X104241974Y-95080500D01*
X104241976Y-95080500D01*
X104442456Y-95043024D01*
X104632637Y-94969348D01*
X104806041Y-94861981D01*
X104956764Y-94724579D01*
X105079673Y-94561821D01*
X105141598Y-94437456D01*
X105166817Y-94386812D01*
X105214319Y-94335575D01*
X105281982Y-94318153D01*
X105348323Y-94340078D01*
X105392278Y-94394389D01*
X105397592Y-94409989D01*
X105406567Y-94443485D01*
X105406570Y-94443492D01*
X105506399Y-94657578D01*
X105641894Y-94851082D01*
X105808917Y-95018105D01*
X106002421Y-95153600D01*
X106216507Y-95253429D01*
X106216516Y-95253433D01*
X106429999Y-95310633D01*
X106429999Y-94592301D01*
X106449683Y-94525262D01*
X106502487Y-94479507D01*
X106571646Y-94469563D01*
X106578380Y-94470531D01*
X106644237Y-94480000D01*
X106644238Y-94480000D01*
X106715762Y-94480000D01*
X106715763Y-94480000D01*
X106788353Y-94469563D01*
X106857512Y-94479507D01*
X106910315Y-94525262D01*
X106930000Y-94592301D01*
X106930000Y-95310633D01*
X107143483Y-95253433D01*
X107143492Y-95253429D01*
X107357578Y-95153600D01*
X107551082Y-95018105D01*
X107718105Y-94851082D01*
X107853600Y-94657578D01*
X107953429Y-94443492D01*
X107953431Y-94443489D01*
X107962406Y-94409992D01*
X107998770Y-94350331D01*
X108061616Y-94319800D01*
X108130992Y-94328094D01*
X108184871Y-94372578D01*
X108193182Y-94386811D01*
X108280327Y-94561821D01*
X108403237Y-94724581D01*
X108553958Y-94861980D01*
X108553960Y-94861982D01*
X108582762Y-94879815D01*
X108727363Y-94969348D01*
X108917544Y-95043024D01*
X109118024Y-95080500D01*
X109118026Y-95080500D01*
X109321974Y-95080500D01*
X109321976Y-95080500D01*
X109522456Y-95043024D01*
X109638037Y-94998247D01*
X109707658Y-94992385D01*
X109769399Y-95025094D01*
X109770511Y-95026193D01*
X109967494Y-95223176D01*
X110000979Y-95284499D01*
X109995995Y-95354191D01*
X109967496Y-95398536D01*
X109932114Y-95433919D01*
X109932112Y-95433921D01*
X109863912Y-95544490D01*
X109811964Y-95591214D01*
X109743001Y-95602435D01*
X109717868Y-95594723D01*
X109717454Y-95595998D01*
X109708171Y-95592981D01*
X109616735Y-95578500D01*
X109275266Y-95578500D01*
X109221413Y-95587030D01*
X109152119Y-95578074D01*
X109114335Y-95552237D01*
X109021383Y-95459285D01*
X109021374Y-95459278D01*
X108882193Y-95376967D01*
X108882190Y-95376965D01*
X108736001Y-95334493D01*
X108736000Y-95334494D01*
X108736000Y-97482000D01*
X108737681Y-97483681D01*
X108771166Y-97545004D01*
X108774000Y-97571362D01*
X108774000Y-98810500D01*
X108754315Y-98877539D01*
X108701511Y-98923294D01*
X108650000Y-98934500D01*
X108398000Y-98934500D01*
X108330961Y-98914815D01*
X108285206Y-98862011D01*
X108274000Y-98810500D01*
X108274000Y-98004999D01*
X108272319Y-98003319D01*
X108238834Y-97941996D01*
X108236000Y-97915638D01*
X108236000Y-95334494D01*
X108235998Y-95334493D01*
X108089809Y-95376965D01*
X108089806Y-95376967D01*
X107950625Y-95459278D01*
X107950616Y-95459285D01*
X107836285Y-95573616D01*
X107836278Y-95573625D01*
X107764131Y-95695621D01*
X107713062Y-95743304D01*
X107657399Y-95756500D01*
X99434500Y-95756500D01*
X99367461Y-95736815D01*
X99321706Y-95684011D01*
X99310500Y-95632500D01*
X99310500Y-94854678D01*
X100499500Y-94854678D01*
X100514032Y-94927735D01*
X100514033Y-94927739D01*
X100514034Y-94927740D01*
X100569399Y-95010601D01*
X100646275Y-95061967D01*
X100652260Y-95065966D01*
X100652264Y-95065967D01*
X100725321Y-95080499D01*
X100725324Y-95080500D01*
X100725326Y-95080500D01*
X102474676Y-95080500D01*
X102474677Y-95080499D01*
X102547740Y-95065966D01*
X102630601Y-95010601D01*
X102685966Y-94927740D01*
X102700500Y-94854674D01*
X102700500Y-93105326D01*
X102700500Y-93105323D01*
X102700499Y-93105321D01*
X102685967Y-93032264D01*
X102685966Y-93032260D01*
X102685965Y-93032260D01*
X102630601Y-92949399D01*
X102547740Y-92894034D01*
X102547739Y-92894033D01*
X102547735Y-92894032D01*
X102474677Y-92879500D01*
X102474674Y-92879500D01*
X100725326Y-92879500D01*
X100725323Y-92879500D01*
X100652264Y-92894032D01*
X100652260Y-92894033D01*
X100569399Y-92949399D01*
X100514033Y-93032260D01*
X100514032Y-93032264D01*
X100499500Y-93105321D01*
X100499500Y-94854678D01*
X99310500Y-94854678D01*
X99310500Y-91814500D01*
X99330185Y-91747461D01*
X99382989Y-91701706D01*
X99434500Y-91690500D01*
X152025500Y-91690500D01*
X152092539Y-91710185D01*
G37*
%TD.AperFunction*%
%TA.AperFunction,Conductor*%
G36*
X111143039Y-104925185D02*
G01*
X111188794Y-104977989D01*
X111200000Y-105029500D01*
X111200000Y-105092000D01*
X113249999Y-105092000D01*
X113250000Y-105029500D01*
X113269685Y-104962461D01*
X113322489Y-104916706D01*
X113374000Y-104905500D01*
X115226000Y-104905500D01*
X115293039Y-104925185D01*
X115338794Y-104977989D01*
X115350000Y-105029500D01*
X115350000Y-105092000D01*
X117400000Y-105092000D01*
X117400000Y-105029500D01*
X117419685Y-104962461D01*
X117472489Y-104916706D01*
X117524000Y-104905500D01*
X118447475Y-104905500D01*
X118514514Y-104925185D01*
X118560269Y-104977989D01*
X118570213Y-105047147D01*
X118541188Y-105110703D01*
X118535156Y-105117181D01*
X117969156Y-105683181D01*
X117907833Y-105716666D01*
X117881475Y-105719500D01*
X117524000Y-105719500D01*
X117456961Y-105699815D01*
X117411206Y-105647011D01*
X117400000Y-105595500D01*
X117400000Y-105592000D01*
X115350000Y-105592000D01*
X115350000Y-105595500D01*
X115330315Y-105662539D01*
X115277511Y-105708294D01*
X115226000Y-105719500D01*
X113374000Y-105719500D01*
X113306961Y-105699815D01*
X113261206Y-105647011D01*
X113250000Y-105595500D01*
X113250000Y-105592000D01*
X111200000Y-105592000D01*
X111200000Y-105595500D01*
X111180315Y-105662539D01*
X111127511Y-105708294D01*
X111076000Y-105719500D01*
X109451544Y-105719500D01*
X109384505Y-105699815D01*
X109338750Y-105647011D01*
X109328806Y-105577853D01*
X109357831Y-105514297D01*
X109363863Y-105507819D01*
X109929863Y-104941819D01*
X109991186Y-104908334D01*
X110017544Y-104905500D01*
X111076000Y-104905500D01*
X111143039Y-104925185D01*
G37*
%TD.AperFunction*%
%TA.AperFunction,Conductor*%
G36*
X113205703Y-97890331D02*
G01*
X113212181Y-97896363D01*
X114523230Y-99207412D01*
X114556715Y-99268735D01*
X114551731Y-99338427D01*
X114509859Y-99394360D01*
X114444395Y-99418777D01*
X114419364Y-99418032D01*
X114300001Y-99402318D01*
X114299999Y-99402318D01*
X114143239Y-99422955D01*
X114143237Y-99422956D01*
X113997160Y-99483463D01*
X113935446Y-99530818D01*
X113871718Y-99579718D01*
X113849258Y-99608988D01*
X113792832Y-99650189D01*
X113750884Y-99657500D01*
X113098744Y-99657500D01*
X113031705Y-99637815D01*
X112994153Y-99594478D01*
X112992752Y-99595415D01*
X112930601Y-99502399D01*
X112847739Y-99447033D01*
X112847735Y-99447032D01*
X112774677Y-99432500D01*
X112774674Y-99432500D01*
X111675326Y-99432500D01*
X111675323Y-99432500D01*
X111602264Y-99447032D01*
X111602260Y-99447033D01*
X111519399Y-99502399D01*
X111464033Y-99585260D01*
X111464032Y-99585264D01*
X111449500Y-99658321D01*
X111449500Y-100357678D01*
X111464032Y-100430735D01*
X111464033Y-100430739D01*
X111464034Y-100430740D01*
X111519399Y-100513601D01*
X111602259Y-100568966D01*
X111602260Y-100568966D01*
X111602264Y-100568967D01*
X111675321Y-100583499D01*
X111675324Y-100583500D01*
X111675326Y-100583500D01*
X111750500Y-100583500D01*
X111817539Y-100603185D01*
X111863294Y-100655989D01*
X111874500Y-100707500D01*
X111874500Y-100820959D01*
X111854815Y-100887998D01*
X111838181Y-100908640D01*
X111812923Y-100933897D01*
X111812921Y-100933900D01*
X111756419Y-101049478D01*
X111756418Y-101049480D01*
X111756418Y-101049482D01*
X111745500Y-101124418D01*
X111745500Y-101567582D01*
X111756418Y-101642518D01*
X111756418Y-101642519D01*
X111756419Y-101642521D01*
X111812921Y-101758099D01*
X111812923Y-101758102D01*
X111903897Y-101849076D01*
X111903900Y-101849078D01*
X112013667Y-101902739D01*
X112019482Y-101905582D01*
X112094418Y-101916500D01*
X112094424Y-101916500D01*
X112097883Y-101917004D01*
X112115387Y-101920864D01*
X112204052Y-101947260D01*
X112222046Y-101952617D01*
X112222048Y-101952616D01*
X112222049Y-101952617D01*
X112272136Y-101950545D01*
X112338923Y-101947784D01*
X112397446Y-101924948D01*
X112433557Y-101916791D01*
X112437564Y-101916500D01*
X112437582Y-101916500D01*
X112512518Y-101905582D01*
X112512521Y-101905580D01*
X112512524Y-101905580D01*
X112521721Y-101902739D01*
X112522307Y-101904637D01*
X112579095Y-101894931D01*
X112643397Y-101922262D01*
X112652386Y-101930412D01*
X112758705Y-102036731D01*
X112758714Y-102036738D01*
X112896806Y-102118405D01*
X113035999Y-102158844D01*
X113036000Y-101220000D01*
X113055685Y-101152960D01*
X113108489Y-101107206D01*
X113160000Y-101096000D01*
X114055931Y-101096000D01*
X114053167Y-101060877D01*
X114053166Y-101060871D01*
X114008407Y-100906811D01*
X114008406Y-100906808D01*
X113926738Y-100768714D01*
X113926731Y-100768705D01*
X113914567Y-100756541D01*
X113881082Y-100695218D01*
X113886066Y-100625526D01*
X113927938Y-100569593D01*
X113993402Y-100545176D01*
X114049698Y-100554298D01*
X114143238Y-100593044D01*
X114213241Y-100602260D01*
X114299999Y-100613682D01*
X114300000Y-100613682D01*
X114300001Y-100613682D01*
X114386759Y-100602260D01*
X114456762Y-100593044D01*
X114602841Y-100532536D01*
X114728282Y-100436282D01*
X114750741Y-100407011D01*
X114807168Y-100365811D01*
X114849116Y-100358500D01*
X115501256Y-100358500D01*
X115568295Y-100378185D01*
X115605846Y-100421521D01*
X115607248Y-100420585D01*
X115654735Y-100491655D01*
X115669399Y-100513601D01*
X115701665Y-100535160D01*
X115752260Y-100568966D01*
X115752264Y-100568967D01*
X115825321Y-100583499D01*
X115825324Y-100583500D01*
X115825326Y-100583500D01*
X116924676Y-100583500D01*
X116924677Y-100583499D01*
X116997740Y-100568966D01*
X117080601Y-100513601D01*
X117135966Y-100430740D01*
X117150500Y-100357674D01*
X117150500Y-99810594D01*
X117170185Y-99743555D01*
X117222989Y-99697800D01*
X117292147Y-99687856D01*
X117355703Y-99716881D01*
X117362181Y-99722913D01*
X117741673Y-100102405D01*
X117775158Y-100163728D01*
X117770174Y-100233420D01*
X117728302Y-100289353D01*
X117701445Y-100304647D01*
X117680160Y-100313463D01*
X117554718Y-100409718D01*
X117458463Y-100535160D01*
X117397956Y-100681237D01*
X117397955Y-100681239D01*
X117377318Y-100837998D01*
X117377318Y-100838001D01*
X117397955Y-100994760D01*
X117397956Y-100994762D01*
X117453229Y-101128204D01*
X117458464Y-101140841D01*
X117554718Y-101266282D01*
X117680159Y-101362536D01*
X117826238Y-101423044D01*
X117890126Y-101431455D01*
X117982999Y-101443682D01*
X117983000Y-101443682D01*
X117983001Y-101443682D01*
X118075729Y-101431474D01*
X118139762Y-101423044D01*
X118263821Y-101371656D01*
X118333289Y-101364188D01*
X118367569Y-101375734D01*
X118383825Y-101384017D01*
X118383828Y-101384018D01*
X118418947Y-101389579D01*
X118475265Y-101398500D01*
X118816734Y-101398499D01*
X118816736Y-101398499D01*
X118836749Y-101395329D01*
X118867308Y-101390489D01*
X118936600Y-101399443D01*
X118990053Y-101444439D01*
X119010693Y-101511190D01*
X119009645Y-101529146D01*
X119000318Y-101599997D01*
X119000318Y-101600001D01*
X119020955Y-101756760D01*
X119020956Y-101756762D01*
X119078187Y-101894931D01*
X119081464Y-101902841D01*
X119177718Y-102028282D01*
X119303159Y-102124536D01*
X119449238Y-102185044D01*
X119499218Y-102191623D01*
X119563113Y-102219888D01*
X119601585Y-102278212D01*
X119602418Y-102348077D01*
X119570714Y-102402243D01*
X118600778Y-103372181D01*
X118539455Y-103405666D01*
X118513097Y-103408500D01*
X118278116Y-103408500D01*
X118211077Y-103388815D01*
X118179742Y-103359989D01*
X118157282Y-103330718D01*
X118031841Y-103234464D01*
X118024948Y-103231609D01*
X117885762Y-103173956D01*
X117885760Y-103173955D01*
X117729001Y-103153318D01*
X117728999Y-103153318D01*
X117572239Y-103173955D01*
X117572237Y-103173956D01*
X117426157Y-103234464D01*
X117349986Y-103292913D01*
X117284817Y-103318107D01*
X117216372Y-103304069D01*
X117166383Y-103255254D01*
X117150500Y-103194537D01*
X117150500Y-102842323D01*
X117150499Y-102842321D01*
X117135967Y-102769264D01*
X117135966Y-102769260D01*
X117129469Y-102759536D01*
X117080601Y-102686399D01*
X117010472Y-102639541D01*
X116997739Y-102631033D01*
X116997735Y-102631032D01*
X116924677Y-102616500D01*
X116924674Y-102616500D01*
X116849500Y-102616500D01*
X116782461Y-102596815D01*
X116736706Y-102544011D01*
X116725500Y-102492500D01*
X116725500Y-102379040D01*
X116745185Y-102312001D01*
X116761815Y-102291362D01*
X116787076Y-102266102D01*
X116787076Y-102266100D01*
X116787078Y-102266099D01*
X116823487Y-102191623D01*
X116843582Y-102150518D01*
X116854500Y-102075582D01*
X116854500Y-101632418D01*
X116843582Y-101557482D01*
X116820951Y-101511190D01*
X116787078Y-101441900D01*
X116787076Y-101441897D01*
X116696102Y-101350923D01*
X116696099Y-101350921D01*
X116580521Y-101294419D01*
X116580519Y-101294418D01*
X116580518Y-101294418D01*
X116505582Y-101283500D01*
X116162418Y-101283500D01*
X116087482Y-101294418D01*
X116087480Y-101294418D01*
X116087478Y-101294419D01*
X115971900Y-101350921D01*
X115971897Y-101350923D01*
X115911681Y-101411140D01*
X115850358Y-101444625D01*
X115780666Y-101439641D01*
X115736319Y-101411140D01*
X115676102Y-101350923D01*
X115676099Y-101350921D01*
X115560521Y-101294419D01*
X115560519Y-101294418D01*
X115560518Y-101294418D01*
X115485582Y-101283500D01*
X115142418Y-101283500D01*
X115079971Y-101292598D01*
X115067481Y-101294418D01*
X115067479Y-101294419D01*
X115040554Y-101307582D01*
X114971681Y-101319340D01*
X114938642Y-101310742D01*
X114837762Y-101268956D01*
X114837760Y-101268955D01*
X114681001Y-101248318D01*
X114680999Y-101248318D01*
X114524239Y-101268955D01*
X114524237Y-101268956D01*
X114378160Y-101329463D01*
X114308809Y-101382678D01*
X114252718Y-101425718D01*
X114191012Y-101506136D01*
X114159282Y-101547487D01*
X114102854Y-101588689D01*
X114060906Y-101596000D01*
X113536000Y-101596000D01*
X113536000Y-102158843D01*
X113675194Y-102118404D01*
X113813285Y-102036738D01*
X113813290Y-102036734D01*
X113889841Y-101960183D01*
X113951164Y-101926698D01*
X114020856Y-101931682D01*
X114076790Y-101973553D01*
X114091492Y-102003813D01*
X114092846Y-102003253D01*
X114095955Y-102010760D01*
X114095956Y-102010762D01*
X114119618Y-102067887D01*
X114152656Y-102147649D01*
X114156464Y-102156841D01*
X114252718Y-102282282D01*
X114351926Y-102358407D01*
X114360343Y-102364865D01*
X114401546Y-102421293D01*
X114405701Y-102491039D01*
X114371489Y-102551959D01*
X114309772Y-102584712D01*
X114301043Y-102586180D01*
X114143238Y-102606956D01*
X114143237Y-102606956D01*
X113997160Y-102667463D01*
X113928047Y-102720495D01*
X113871718Y-102763718D01*
X113849258Y-102792988D01*
X113792832Y-102834189D01*
X113750884Y-102841500D01*
X113098744Y-102841500D01*
X113031705Y-102821815D01*
X112994153Y-102778478D01*
X112992752Y-102779415D01*
X112930601Y-102686399D01*
X112847739Y-102631033D01*
X112847735Y-102631032D01*
X112774677Y-102616500D01*
X112774674Y-102616500D01*
X111675326Y-102616500D01*
X111675323Y-102616500D01*
X111602264Y-102631032D01*
X111602260Y-102631033D01*
X111519399Y-102686399D01*
X111464033Y-102769260D01*
X111464032Y-102769264D01*
X111449500Y-102842321D01*
X111449500Y-103541678D01*
X111464032Y-103614735D01*
X111464033Y-103614739D01*
X111475567Y-103632001D01*
X111519399Y-103697601D01*
X111602259Y-103752966D01*
X111602260Y-103752966D01*
X111602264Y-103752967D01*
X111675321Y-103767499D01*
X111675324Y-103767500D01*
X111675326Y-103767500D01*
X112774676Y-103767500D01*
X112774677Y-103767499D01*
X112847740Y-103752966D01*
X112930601Y-103697601D01*
X112961895Y-103650765D01*
X112992752Y-103604585D01*
X112994756Y-103605924D01*
X113028030Y-103564640D01*
X113094325Y-103542579D01*
X113098744Y-103542500D01*
X113750884Y-103542500D01*
X113817923Y-103562185D01*
X113849257Y-103591010D01*
X113871718Y-103620282D01*
X113997159Y-103716536D01*
X114143238Y-103777044D01*
X114221619Y-103787363D01*
X114299999Y-103797682D01*
X114300000Y-103797682D01*
X114300001Y-103797682D01*
X114367754Y-103788762D01*
X114456762Y-103777044D01*
X114602841Y-103716536D01*
X114728282Y-103620282D01*
X114750741Y-103591011D01*
X114807168Y-103549811D01*
X114849116Y-103542500D01*
X115501256Y-103542500D01*
X115568295Y-103562185D01*
X115605846Y-103605521D01*
X115607248Y-103604585D01*
X115669398Y-103697600D01*
X115669399Y-103697601D01*
X115697738Y-103716536D01*
X115752260Y-103752966D01*
X115752264Y-103752967D01*
X115825321Y-103767499D01*
X115825324Y-103767500D01*
X115825326Y-103767500D01*
X116924675Y-103767500D01*
X116952424Y-103761980D01*
X116989489Y-103754607D01*
X117059080Y-103760834D01*
X117114258Y-103803696D01*
X117136620Y-103860039D01*
X117143955Y-103915760D01*
X117143957Y-103915765D01*
X117192537Y-104033048D01*
X117200006Y-104102517D01*
X117168731Y-104164996D01*
X117108642Y-104200648D01*
X117077976Y-104204500D01*
X110678066Y-104204500D01*
X110611027Y-104184815D01*
X110565272Y-104132011D01*
X110555328Y-104062853D01*
X110579691Y-104005013D01*
X110596401Y-103983237D01*
X110633536Y-103934841D01*
X110694044Y-103788762D01*
X110714682Y-103632000D01*
X110713705Y-103624581D01*
X110694044Y-103475239D01*
X110694044Y-103475238D01*
X110633536Y-103329159D01*
X110537282Y-103203718D01*
X110537280Y-103203717D01*
X110537280Y-103203716D01*
X110489865Y-103167334D01*
X110478841Y-103158874D01*
X110437639Y-103102448D01*
X110433484Y-103032702D01*
X110467696Y-102971782D01*
X110478837Y-102962128D01*
X110537282Y-102917282D01*
X110633536Y-102791841D01*
X110694044Y-102645762D01*
X110710893Y-102517782D01*
X110714682Y-102489001D01*
X110714682Y-102488998D01*
X110698339Y-102364865D01*
X110694044Y-102332238D01*
X110633536Y-102186159D01*
X110542781Y-102067884D01*
X110517588Y-102002717D01*
X110531626Y-101934273D01*
X110580440Y-101884283D01*
X110621759Y-101869926D01*
X110699304Y-101857646D01*
X110812342Y-101800050D01*
X110902050Y-101710342D01*
X110959646Y-101597304D01*
X110959646Y-101597302D01*
X110959647Y-101597301D01*
X110973285Y-101511190D01*
X110974500Y-101503519D01*
X110974499Y-100415482D01*
X110959646Y-100321696D01*
X110959645Y-100321694D01*
X110959645Y-100321692D01*
X110938015Y-100279241D01*
X110924500Y-100222947D01*
X110924500Y-100077143D01*
X110927334Y-100050785D01*
X110928359Y-100046073D01*
X110924658Y-99994329D01*
X110924500Y-99989904D01*
X110924500Y-99974201D01*
X110922264Y-99958657D01*
X110921791Y-99954254D01*
X110918091Y-99902517D01*
X110916407Y-99898002D01*
X110909850Y-99872312D01*
X110909165Y-99867543D01*
X110904493Y-99857314D01*
X110887616Y-99820359D01*
X110885932Y-99816295D01*
X110867796Y-99767669D01*
X110864905Y-99763807D01*
X110851379Y-99741010D01*
X110849377Y-99736627D01*
X110832267Y-99716881D01*
X110815411Y-99697427D01*
X110812633Y-99693980D01*
X110809898Y-99690327D01*
X110804576Y-99683217D01*
X110780161Y-99617754D01*
X110795013Y-99549481D01*
X110816161Y-99521230D01*
X110902050Y-99435342D01*
X110959646Y-99322304D01*
X110959646Y-99322302D01*
X110959647Y-99322301D01*
X110974499Y-99228524D01*
X110974500Y-99228519D01*
X110974499Y-98443384D01*
X110994183Y-98376346D01*
X111046987Y-98330591D01*
X111116146Y-98320647D01*
X111150013Y-98330592D01*
X111177540Y-98343164D01*
X111177541Y-98343164D01*
X111177543Y-98343165D01*
X111182312Y-98343850D01*
X111208002Y-98350407D01*
X111212517Y-98352091D01*
X111264258Y-98355791D01*
X111268657Y-98356264D01*
X111284201Y-98358500D01*
X111299906Y-98358500D01*
X111304328Y-98358657D01*
X111356073Y-98362359D01*
X111360784Y-98361334D01*
X111387143Y-98358500D01*
X111474150Y-98358500D01*
X111541189Y-98378185D01*
X111543040Y-98379397D01*
X111602260Y-98418966D01*
X111602264Y-98418967D01*
X111675321Y-98433499D01*
X111675324Y-98433500D01*
X111675326Y-98433500D01*
X112774676Y-98433500D01*
X112774677Y-98433499D01*
X112847740Y-98418966D01*
X112930601Y-98363601D01*
X112985966Y-98280740D01*
X113000500Y-98207674D01*
X113000500Y-97984043D01*
X113020185Y-97917005D01*
X113072989Y-97871250D01*
X113142147Y-97861306D01*
X113205703Y-97890331D01*
G37*
%TD.AperFunction*%
%TA.AperFunction,Conductor*%
G36*
X116096292Y-96300185D02*
G01*
X116142047Y-96352989D01*
X116151991Y-96422147D01*
X116143815Y-96451949D01*
X116135943Y-96470956D01*
X116127953Y-96490245D01*
X116125852Y-96498089D01*
X116123911Y-96497569D01*
X116100019Y-96551559D01*
X116093038Y-96559146D01*
X116068568Y-96583616D01*
X116047938Y-96600243D01*
X116043876Y-96602854D01*
X116043867Y-96602861D01*
X116009905Y-96642055D01*
X116006892Y-96645291D01*
X115995781Y-96656402D01*
X115986354Y-96668996D01*
X115983587Y-96672428D01*
X115980218Y-96676318D01*
X115949623Y-96711626D01*
X115949617Y-96711636D01*
X115947615Y-96716020D01*
X115934100Y-96738799D01*
X115931206Y-96742664D01*
X115931200Y-96742675D01*
X115913078Y-96791264D01*
X115911385Y-96795353D01*
X115889835Y-96842543D01*
X115889833Y-96842550D01*
X115889146Y-96847327D01*
X115882598Y-96872986D01*
X115880910Y-96877513D01*
X115880909Y-96877517D01*
X115877207Y-96929260D01*
X115876734Y-96933656D01*
X115874500Y-96949199D01*
X115874500Y-96964904D01*
X115874342Y-96969329D01*
X115870641Y-97021069D01*
X115870641Y-97021073D01*
X115871666Y-97025785D01*
X115874500Y-97052144D01*
X115874499Y-97170955D01*
X115854814Y-97237994D01*
X115802010Y-97283749D01*
X115774692Y-97292571D01*
X115752263Y-97297032D01*
X115752260Y-97297033D01*
X115669399Y-97352399D01*
X115614033Y-97435260D01*
X115614032Y-97435264D01*
X115599500Y-97508321D01*
X115599500Y-97645034D01*
X115579815Y-97712073D01*
X115527011Y-97757828D01*
X115457853Y-97767772D01*
X115394297Y-97738747D01*
X115387819Y-97732715D01*
X114147284Y-96492181D01*
X114113799Y-96430858D01*
X114118783Y-96361166D01*
X114160655Y-96305233D01*
X114226119Y-96280816D01*
X114234965Y-96280500D01*
X116029253Y-96280500D01*
X116096292Y-96300185D01*
G37*
%TD.AperFunction*%
%TD*%
M02*
