%TF.GenerationSoftware,KiCad,Pcbnew,7.0.7*%
%TF.CreationDate,2023-11-28T23:11:35+01:00*%
%TF.ProjectId,STM32G474_Black-Pill_v3.0,53544d33-3247-4343-9734-5f426c61636b,A*%
%TF.SameCoordinates,Original*%
%TF.FileFunction,Drillmap*%
%TF.FilePolarity,Positive*%
%FSLAX45Y45*%
G04 Gerber Fmt 4.5, Leading zero omitted, Abs format (unit mm)*
G04 Created by KiCad (PCBNEW 7.0.7) date 2023-11-28 23:11:35*
%MOMM*%
%LPD*%
G01*
G04 APERTURE LIST*
%ADD10C,0.100000*%
%ADD11C,0.200000*%
%ADD12C,0.020000*%
%ADD13C,0.060000*%
G04 APERTURE END LIST*
D10*
X9906000Y-9144000D02*
X15240000Y-9144000D01*
X15240000Y-11176000D01*
X9906000Y-11176000D01*
X9906000Y-9144000D01*
D11*
D12*
X9959500Y-9197500D02*
X9979500Y-9217500D01*
X9979500Y-9197500D02*
X9959500Y-9217500D01*
X9959500Y-9286400D02*
X9979500Y-9306400D01*
X9979500Y-9286400D02*
X9959500Y-9306400D01*
X10200800Y-10759600D02*
X10220800Y-10779600D01*
X10220800Y-10759600D02*
X10200800Y-10779600D01*
X10480200Y-9997600D02*
X10500200Y-10017600D01*
X10500200Y-9997600D02*
X10480200Y-10017600D01*
X10480200Y-10099200D02*
X10500200Y-10119200D01*
X10500200Y-10099200D02*
X10480200Y-10119200D01*
X10480200Y-10200800D02*
X10500200Y-10220800D01*
X10500200Y-10200800D02*
X10480200Y-10220800D01*
X10480200Y-10302400D02*
X10500200Y-10322400D01*
X10500200Y-10302400D02*
X10480200Y-10322400D01*
X10772300Y-10467500D02*
X10792300Y-10487500D01*
X10792300Y-10467500D02*
X10772300Y-10487500D01*
X10842400Y-9521600D02*
X10862400Y-9541600D01*
X10862400Y-9521600D02*
X10842400Y-9541600D01*
X10937400Y-9877908D02*
X10957400Y-9897908D01*
X10957400Y-9877908D02*
X10937400Y-9897908D01*
X11000900Y-9718200D02*
X11020900Y-9738200D01*
X11020900Y-9718200D02*
X11000900Y-9738200D01*
X11000900Y-10238900D02*
X11020900Y-10258900D01*
X11020900Y-10238900D02*
X11000900Y-10258900D01*
X11000900Y-10353200D02*
X11020900Y-10373200D01*
X11020900Y-10353200D02*
X11000900Y-10373200D01*
X11089800Y-9743600D02*
X11109800Y-9763600D01*
X11109800Y-9743600D02*
X11089800Y-9763600D01*
X11089800Y-10353200D02*
X11109800Y-10373200D01*
X11109800Y-10353200D02*
X11089800Y-10373200D01*
X11381900Y-10124600D02*
X11401900Y-10144600D01*
X11401900Y-10124600D02*
X11381900Y-10144600D01*
X11420000Y-9990800D02*
X11440000Y-10010800D01*
X11440000Y-9990800D02*
X11420000Y-10010800D01*
X11420000Y-10309200D02*
X11440000Y-10329200D01*
X11440000Y-10309200D02*
X11420000Y-10329200D01*
X11458100Y-10175400D02*
X11478100Y-10195400D01*
X11478100Y-10175400D02*
X11458100Y-10195400D01*
X11521600Y-9667400D02*
X11541600Y-9687400D01*
X11541600Y-9667400D02*
X11521600Y-9687400D01*
X11661300Y-9654700D02*
X11681300Y-9674700D01*
X11681300Y-9654700D02*
X11661300Y-9674700D01*
X11705300Y-10524200D02*
X11725300Y-10544200D01*
X11725300Y-10524200D02*
X11705300Y-10544200D01*
X11851800Y-9705500D02*
X11871800Y-9725500D01*
X11871800Y-9705500D02*
X11851800Y-9725500D01*
X11889900Y-10124600D02*
X11909900Y-10144600D01*
X11909900Y-10124600D02*
X11889900Y-10144600D01*
X11889900Y-10365900D02*
X11909900Y-10385900D01*
X11909900Y-10365900D02*
X11889900Y-10385900D01*
X11956000Y-10266000D02*
X11976000Y-10286000D01*
X11976000Y-10266000D02*
X11956000Y-10286000D01*
X12052200Y-10200800D02*
X12072200Y-10220800D01*
X12072200Y-10200800D02*
X12052200Y-10220800D01*
X12169300Y-9921400D02*
X12189300Y-9941400D01*
X12189300Y-9921400D02*
X12169300Y-9941400D01*
X12309000Y-10424934D02*
X12329000Y-10444934D01*
X12329000Y-10424934D02*
X12309000Y-10444934D01*
X12321700Y-10785000D02*
X12341700Y-10805000D01*
X12341700Y-10785000D02*
X12321700Y-10805000D01*
X12423300Y-10759600D02*
X12443300Y-10779600D01*
X12443300Y-10759600D02*
X12423300Y-10779600D01*
X12436000Y-10150000D02*
X12456000Y-10170000D01*
X12456000Y-10150000D02*
X12436000Y-10170000D01*
X12448188Y-9731412D02*
X12468188Y-9751412D01*
X12468188Y-9731412D02*
X12448188Y-9751412D01*
X12563000Y-10023000D02*
X12583000Y-10043000D01*
X12583000Y-10023000D02*
X12563000Y-10043000D01*
X12563000Y-10150000D02*
X12583000Y-10170000D01*
X12583000Y-10150000D02*
X12563000Y-10170000D01*
X12563000Y-10277000D02*
X12583000Y-10297000D01*
X12583000Y-10277000D02*
X12563000Y-10297000D01*
X12563000Y-10746900D02*
X12583000Y-10766900D01*
X12583000Y-10746900D02*
X12563000Y-10766900D01*
X12642631Y-10692669D02*
X12662631Y-10712669D01*
X12662631Y-10692669D02*
X12642631Y-10712669D01*
X12690000Y-9896000D02*
X12710000Y-9916000D01*
X12710000Y-9896000D02*
X12690000Y-9916000D01*
X12690000Y-10023000D02*
X12710000Y-10043000D01*
X12710000Y-10023000D02*
X12690000Y-10043000D01*
X12690000Y-10150000D02*
X12710000Y-10170000D01*
X12710000Y-10150000D02*
X12690000Y-10170000D01*
X12690000Y-10264300D02*
X12710000Y-10284300D01*
X12710000Y-10264300D02*
X12690000Y-10284300D01*
X12690000Y-10404000D02*
X12710000Y-10424000D01*
X12710000Y-10404000D02*
X12690000Y-10424000D01*
X12702700Y-10632600D02*
X12722700Y-10652600D01*
X12722700Y-10632600D02*
X12702700Y-10652600D01*
X12817000Y-10023000D02*
X12837000Y-10043000D01*
X12837000Y-10023000D02*
X12817000Y-10043000D01*
X12817000Y-10150000D02*
X12837000Y-10170000D01*
X12837000Y-10150000D02*
X12817000Y-10170000D01*
X12817000Y-10264300D02*
X12837000Y-10284300D01*
X12837000Y-10264300D02*
X12817000Y-10284300D01*
X12848950Y-10686074D02*
X12868950Y-10706074D01*
X12868950Y-10686074D02*
X12848950Y-10706074D01*
X12880500Y-10607200D02*
X12900500Y-10627200D01*
X12900500Y-10607200D02*
X12880500Y-10627200D01*
X12944000Y-10150000D02*
X12964000Y-10170000D01*
X12964000Y-10150000D02*
X12944000Y-10170000D01*
X13007500Y-9654700D02*
X13027500Y-9674700D01*
X13027500Y-9654700D02*
X13007500Y-9674700D01*
X13093600Y-9695600D02*
X13113600Y-9715600D01*
X13113600Y-9695600D02*
X13093600Y-9715600D01*
X13172600Y-10137300D02*
X13192600Y-10157300D01*
X13192600Y-10137300D02*
X13172600Y-10157300D01*
X13229238Y-10073800D02*
X13249238Y-10093800D01*
X13249238Y-10073800D02*
X13229238Y-10093800D01*
X13248800Y-10556400D02*
X13268800Y-10576400D01*
X13268800Y-10556400D02*
X13248800Y-10576400D01*
X13264607Y-10167496D02*
X13284607Y-10187496D01*
X13284607Y-10167496D02*
X13264607Y-10187496D01*
X13271539Y-10337839D02*
X13291539Y-10357839D01*
X13291539Y-10337839D02*
X13271539Y-10357839D01*
X13337700Y-9756300D02*
X13357700Y-9776300D01*
X13357700Y-9756300D02*
X13337700Y-9776300D01*
X13340500Y-9848000D02*
X13360500Y-9868000D01*
X13360500Y-9848000D02*
X13340500Y-9868000D01*
X13452000Y-10391300D02*
X13472000Y-10411300D01*
X13472000Y-10391300D02*
X13452000Y-10411300D01*
X13458350Y-10169050D02*
X13478350Y-10189050D01*
X13478350Y-10169050D02*
X13458350Y-10189050D01*
X13487300Y-10629800D02*
X13507300Y-10649800D01*
X13507300Y-10629800D02*
X13487300Y-10649800D01*
X13604400Y-10632600D02*
X13624400Y-10652600D01*
X13624400Y-10632600D02*
X13604400Y-10652600D01*
X13731400Y-9654700D02*
X13751400Y-9674700D01*
X13751400Y-9654700D02*
X13731400Y-9674700D01*
X13813792Y-10286000D02*
X13833792Y-10306000D01*
X13833792Y-10286000D02*
X13813792Y-10306000D01*
X13883800Y-10378600D02*
X13903800Y-10398600D01*
X13903800Y-10378600D02*
X13883800Y-10398600D01*
X13883800Y-10543700D02*
X13903800Y-10563700D01*
X13903800Y-10543700D02*
X13883800Y-10563700D01*
X13972700Y-9997600D02*
X13992700Y-10017600D01*
X13992700Y-9997600D02*
X13972700Y-10017600D01*
X14061600Y-9883300D02*
X14081600Y-9903300D01*
X14081600Y-9883300D02*
X14061600Y-9903300D01*
X14125100Y-10632600D02*
X14145100Y-10652600D01*
X14145100Y-10632600D02*
X14125100Y-10652600D01*
X14137800Y-9527700D02*
X14157800Y-9547700D01*
X14157800Y-9527700D02*
X14137800Y-9547700D01*
X14137800Y-9769000D02*
X14157800Y-9789000D01*
X14157800Y-9769000D02*
X14137800Y-9789000D01*
X14137800Y-10045600D02*
X14157800Y-10065600D01*
X14157800Y-10045600D02*
X14137800Y-10065600D01*
X14137800Y-10130600D02*
X14157800Y-10150600D01*
X14157800Y-10130600D02*
X14137800Y-10150600D01*
X14544200Y-10213500D02*
X14564200Y-10233500D01*
X14564200Y-10213500D02*
X14544200Y-10233500D01*
X14595000Y-9946800D02*
X14615000Y-9966800D01*
X14615000Y-9946800D02*
X14595000Y-9966800D01*
X15166500Y-9197500D02*
X15186500Y-9217500D01*
X15186500Y-9197500D02*
X15166500Y-9217500D01*
X15166500Y-9286400D02*
X15186500Y-9306400D01*
X15186500Y-9286400D02*
X15166500Y-9306400D01*
X15166500Y-11013600D02*
X15186500Y-11033600D01*
X15186500Y-11013600D02*
X15166500Y-11033600D01*
X15166500Y-11102500D02*
X15186500Y-11122500D01*
X15186500Y-11102500D02*
X15166500Y-11122500D01*
D13*
X10196000Y-9728000D02*
G75*
G03*
X10196000Y-9728000I-30000J0D01*
G01*
D11*
X10206000Y-9698000D02*
X10126000Y-9698000D01*
X10126000Y-9698000D02*
G75*
G03*
X10126000Y-9758000I0J-30000D01*
G01*
X10126000Y-9758000D02*
X10206000Y-9758000D01*
X10206000Y-9758000D02*
G75*
G03*
X10206000Y-9698000I0J30000D01*
G01*
D13*
X10196000Y-10592000D02*
G75*
G03*
X10196000Y-10592000I-30000J0D01*
G01*
D11*
X10206000Y-10562000D02*
X10126000Y-10562000D01*
X10126000Y-10562000D02*
G75*
G03*
X10126000Y-10622000I0J-30000D01*
G01*
X10126000Y-10622000D02*
X10206000Y-10622000D01*
X10206000Y-10622000D02*
G75*
G03*
X10206000Y-10562000I0J30000D01*
G01*
D13*
X10614000Y-9728000D02*
G75*
G03*
X10614000Y-9728000I-30000J0D01*
G01*
D11*
X10639000Y-9698000D02*
X10529000Y-9698000D01*
X10529000Y-9698000D02*
G75*
G03*
X10529000Y-9758000I0J-30000D01*
G01*
X10529000Y-9758000D02*
X10639000Y-9758000D01*
X10639000Y-9758000D02*
G75*
G03*
X10639000Y-9698000I0J30000D01*
G01*
D13*
X10614000Y-10592000D02*
G75*
G03*
X10614000Y-10592000I-30000J0D01*
G01*
D11*
X10639000Y-10562000D02*
X10529000Y-10562000D01*
X10529000Y-10562000D02*
G75*
G03*
X10529000Y-10622000I0J-30000D01*
G01*
X10529000Y-10622000D02*
X10639000Y-10622000D01*
X10639000Y-10622000D02*
G75*
G03*
X10639000Y-10562000I0J30000D01*
G01*
D10*
X10160000Y-9348000D02*
X10160000Y-9448000D01*
X10110000Y-9398000D02*
X10210000Y-9398000D01*
X10160000Y-10872000D02*
X10160000Y-10972000D01*
X10110000Y-10922000D02*
X10210000Y-10922000D01*
X10414000Y-9348000D02*
X10414000Y-9448000D01*
X10364000Y-9398000D02*
X10464000Y-9398000D01*
X10414000Y-10872000D02*
X10414000Y-10972000D01*
X10364000Y-10922000D02*
X10464000Y-10922000D01*
X10668000Y-9348000D02*
X10668000Y-9448000D01*
X10618000Y-9398000D02*
X10718000Y-9398000D01*
X10668000Y-10872000D02*
X10668000Y-10972000D01*
X10618000Y-10922000D02*
X10718000Y-10922000D01*
X10922000Y-9348000D02*
X10922000Y-9448000D01*
X10872000Y-9398000D02*
X10972000Y-9398000D01*
X10922000Y-10872000D02*
X10922000Y-10972000D01*
X10872000Y-10922000D02*
X10972000Y-10922000D01*
X11176000Y-9348000D02*
X11176000Y-9448000D01*
X11126000Y-9398000D02*
X11226000Y-9398000D01*
X11176000Y-10872000D02*
X11176000Y-10972000D01*
X11126000Y-10922000D02*
X11226000Y-10922000D01*
X11430000Y-9348000D02*
X11430000Y-9448000D01*
X11380000Y-9398000D02*
X11480000Y-9398000D01*
X11430000Y-10872000D02*
X11430000Y-10972000D01*
X11380000Y-10922000D02*
X11480000Y-10922000D01*
X11684000Y-9348000D02*
X11684000Y-9448000D01*
X11634000Y-9398000D02*
X11734000Y-9398000D01*
X11684000Y-10872000D02*
X11684000Y-10972000D01*
X11634000Y-10922000D02*
X11734000Y-10922000D01*
X11938000Y-9348000D02*
X11938000Y-9448000D01*
X11888000Y-9398000D02*
X11988000Y-9398000D01*
X11938000Y-10872000D02*
X11938000Y-10972000D01*
X11888000Y-10922000D02*
X11988000Y-10922000D01*
X12192000Y-9348000D02*
X12192000Y-9448000D01*
X12142000Y-9398000D02*
X12242000Y-9398000D01*
X12192000Y-10872000D02*
X12192000Y-10972000D01*
X12142000Y-10922000D02*
X12242000Y-10922000D01*
X12446000Y-9348000D02*
X12446000Y-9448000D01*
X12396000Y-9398000D02*
X12496000Y-9398000D01*
X12446000Y-10872000D02*
X12446000Y-10972000D01*
X12396000Y-10922000D02*
X12496000Y-10922000D01*
X12700000Y-9348000D02*
X12700000Y-9448000D01*
X12650000Y-9398000D02*
X12750000Y-9398000D01*
X12700000Y-10872000D02*
X12700000Y-10972000D01*
X12650000Y-10922000D02*
X12750000Y-10922000D01*
X12954000Y-9348000D02*
X12954000Y-9448000D01*
X12904000Y-9398000D02*
X13004000Y-9398000D01*
X12954000Y-10872000D02*
X12954000Y-10972000D01*
X12904000Y-10922000D02*
X13004000Y-10922000D01*
X13208000Y-9348000D02*
X13208000Y-9448000D01*
X13158000Y-9398000D02*
X13258000Y-9398000D01*
X13208000Y-10872000D02*
X13208000Y-10972000D01*
X13158000Y-10922000D02*
X13258000Y-10922000D01*
X13462000Y-9348000D02*
X13462000Y-9448000D01*
X13412000Y-9398000D02*
X13512000Y-9398000D01*
X13462000Y-10872000D02*
X13462000Y-10972000D01*
X13412000Y-10922000D02*
X13512000Y-10922000D01*
X13716000Y-9348000D02*
X13716000Y-9448000D01*
X13666000Y-9398000D02*
X13766000Y-9398000D01*
X13716000Y-10872000D02*
X13716000Y-10972000D01*
X13666000Y-10922000D02*
X13766000Y-10922000D01*
X13970000Y-9348000D02*
X13970000Y-9448000D01*
X13920000Y-9398000D02*
X14020000Y-9398000D01*
X13970000Y-10872000D02*
X13970000Y-10972000D01*
X13920000Y-10922000D02*
X14020000Y-10922000D01*
X14224000Y-9348000D02*
X14224000Y-9448000D01*
X14174000Y-9398000D02*
X14274000Y-9398000D01*
X14224000Y-10872000D02*
X14224000Y-10972000D01*
X14174000Y-10922000D02*
X14274000Y-10922000D01*
X14478000Y-9348000D02*
X14478000Y-9448000D01*
X14428000Y-9398000D02*
X14528000Y-9398000D01*
X14478000Y-10872000D02*
X14478000Y-10972000D01*
X14428000Y-10922000D02*
X14528000Y-10922000D01*
X14732000Y-9348000D02*
X14732000Y-9448000D01*
X14682000Y-9398000D02*
X14782000Y-9398000D01*
X14732000Y-10872000D02*
X14732000Y-10972000D01*
X14682000Y-10922000D02*
X14782000Y-10922000D01*
X14828500Y-9730000D02*
X14828500Y-9830000D01*
X14778500Y-9780000D02*
X14878500Y-9780000D01*
X14828500Y-9984000D02*
X14828500Y-10084000D01*
X14778500Y-10034000D02*
X14878500Y-10034000D01*
X14828500Y-10238000D02*
X14828500Y-10338000D01*
X14778500Y-10288000D02*
X14878500Y-10288000D01*
X14828500Y-10492000D02*
X14828500Y-10592000D01*
X14778500Y-10542000D02*
X14878500Y-10542000D01*
X14986000Y-9348000D02*
X14986000Y-9448000D01*
X14936000Y-9398000D02*
X15036000Y-9398000D01*
X14986000Y-10872000D02*
X14986000Y-10972000D01*
X14936000Y-10922000D02*
X15036000Y-10922000D01*
D11*
X10161777Y-11492484D02*
X10161777Y-11292484D01*
X10161777Y-11292484D02*
X10209396Y-11292484D01*
X10209396Y-11292484D02*
X10237967Y-11302008D01*
X10237967Y-11302008D02*
X10257015Y-11321055D01*
X10257015Y-11321055D02*
X10266539Y-11340103D01*
X10266539Y-11340103D02*
X10276063Y-11378198D01*
X10276063Y-11378198D02*
X10276063Y-11406769D01*
X10276063Y-11406769D02*
X10266539Y-11444865D01*
X10266539Y-11444865D02*
X10257015Y-11463912D01*
X10257015Y-11463912D02*
X10237967Y-11482960D01*
X10237967Y-11482960D02*
X10209396Y-11492484D01*
X10209396Y-11492484D02*
X10161777Y-11492484D01*
X10361777Y-11492484D02*
X10361777Y-11359150D01*
X10361777Y-11397246D02*
X10371301Y-11378198D01*
X10371301Y-11378198D02*
X10380824Y-11368674D01*
X10380824Y-11368674D02*
X10399872Y-11359150D01*
X10399872Y-11359150D02*
X10418920Y-11359150D01*
X10485586Y-11492484D02*
X10485586Y-11359150D01*
X10485586Y-11292484D02*
X10476063Y-11302008D01*
X10476063Y-11302008D02*
X10485586Y-11311531D01*
X10485586Y-11311531D02*
X10495110Y-11302008D01*
X10495110Y-11302008D02*
X10485586Y-11292484D01*
X10485586Y-11292484D02*
X10485586Y-11311531D01*
X10609396Y-11492484D02*
X10590348Y-11482960D01*
X10590348Y-11482960D02*
X10580824Y-11463912D01*
X10580824Y-11463912D02*
X10580824Y-11292484D01*
X10714158Y-11492484D02*
X10695110Y-11482960D01*
X10695110Y-11482960D02*
X10685586Y-11463912D01*
X10685586Y-11463912D02*
X10685586Y-11292484D01*
X10942729Y-11492484D02*
X10942729Y-11292484D01*
X10942729Y-11292484D02*
X11009396Y-11435341D01*
X11009396Y-11435341D02*
X11076063Y-11292484D01*
X11076063Y-11292484D02*
X11076063Y-11492484D01*
X11257015Y-11492484D02*
X11257015Y-11387722D01*
X11257015Y-11387722D02*
X11247491Y-11368674D01*
X11247491Y-11368674D02*
X11228443Y-11359150D01*
X11228443Y-11359150D02*
X11190348Y-11359150D01*
X11190348Y-11359150D02*
X11171301Y-11368674D01*
X11257015Y-11482960D02*
X11237967Y-11492484D01*
X11237967Y-11492484D02*
X11190348Y-11492484D01*
X11190348Y-11492484D02*
X11171301Y-11482960D01*
X11171301Y-11482960D02*
X11161777Y-11463912D01*
X11161777Y-11463912D02*
X11161777Y-11444865D01*
X11161777Y-11444865D02*
X11171301Y-11425817D01*
X11171301Y-11425817D02*
X11190348Y-11416293D01*
X11190348Y-11416293D02*
X11237967Y-11416293D01*
X11237967Y-11416293D02*
X11257015Y-11406769D01*
X11352253Y-11359150D02*
X11352253Y-11559150D01*
X11352253Y-11368674D02*
X11371301Y-11359150D01*
X11371301Y-11359150D02*
X11409396Y-11359150D01*
X11409396Y-11359150D02*
X11428443Y-11368674D01*
X11428443Y-11368674D02*
X11437967Y-11378198D01*
X11437967Y-11378198D02*
X11447491Y-11397246D01*
X11447491Y-11397246D02*
X11447491Y-11454388D01*
X11447491Y-11454388D02*
X11437967Y-11473436D01*
X11437967Y-11473436D02*
X11428443Y-11482960D01*
X11428443Y-11482960D02*
X11409396Y-11492484D01*
X11409396Y-11492484D02*
X11371301Y-11492484D01*
X11371301Y-11492484D02*
X11352253Y-11482960D01*
X11533205Y-11473436D02*
X11542729Y-11482960D01*
X11542729Y-11482960D02*
X11533205Y-11492484D01*
X11533205Y-11492484D02*
X11523682Y-11482960D01*
X11523682Y-11482960D02*
X11533205Y-11473436D01*
X11533205Y-11473436D02*
X11533205Y-11492484D01*
X11533205Y-11368674D02*
X11542729Y-11378198D01*
X11542729Y-11378198D02*
X11533205Y-11387722D01*
X11533205Y-11387722D02*
X11523682Y-11378198D01*
X11523682Y-11378198D02*
X11533205Y-11368674D01*
X11533205Y-11368674D02*
X11533205Y-11387722D01*
D12*
X9881000Y-11811000D02*
X9901000Y-11831000D01*
X9901000Y-11811000D02*
X9881000Y-11831000D01*
D11*
X10199872Y-11712484D02*
X10218920Y-11712484D01*
X10218920Y-11712484D02*
X10237967Y-11722008D01*
X10237967Y-11722008D02*
X10247491Y-11731531D01*
X10247491Y-11731531D02*
X10257015Y-11750579D01*
X10257015Y-11750579D02*
X10266539Y-11788674D01*
X10266539Y-11788674D02*
X10266539Y-11836293D01*
X10266539Y-11836293D02*
X10257015Y-11874388D01*
X10257015Y-11874388D02*
X10247491Y-11893436D01*
X10247491Y-11893436D02*
X10237967Y-11902960D01*
X10237967Y-11902960D02*
X10218920Y-11912484D01*
X10218920Y-11912484D02*
X10199872Y-11912484D01*
X10199872Y-11912484D02*
X10180824Y-11902960D01*
X10180824Y-11902960D02*
X10171301Y-11893436D01*
X10171301Y-11893436D02*
X10161777Y-11874388D01*
X10161777Y-11874388D02*
X10152253Y-11836293D01*
X10152253Y-11836293D02*
X10152253Y-11788674D01*
X10152253Y-11788674D02*
X10161777Y-11750579D01*
X10161777Y-11750579D02*
X10171301Y-11731531D01*
X10171301Y-11731531D02*
X10180824Y-11722008D01*
X10180824Y-11722008D02*
X10199872Y-11712484D01*
X10352253Y-11893436D02*
X10361777Y-11902960D01*
X10361777Y-11902960D02*
X10352253Y-11912484D01*
X10352253Y-11912484D02*
X10342729Y-11902960D01*
X10342729Y-11902960D02*
X10352253Y-11893436D01*
X10352253Y-11893436D02*
X10352253Y-11912484D01*
X10437967Y-11731531D02*
X10447491Y-11722008D01*
X10447491Y-11722008D02*
X10466539Y-11712484D01*
X10466539Y-11712484D02*
X10514158Y-11712484D01*
X10514158Y-11712484D02*
X10533205Y-11722008D01*
X10533205Y-11722008D02*
X10542729Y-11731531D01*
X10542729Y-11731531D02*
X10552253Y-11750579D01*
X10552253Y-11750579D02*
X10552253Y-11769627D01*
X10552253Y-11769627D02*
X10542729Y-11798198D01*
X10542729Y-11798198D02*
X10428444Y-11912484D01*
X10428444Y-11912484D02*
X10552253Y-11912484D01*
X10676063Y-11712484D02*
X10695110Y-11712484D01*
X10695110Y-11712484D02*
X10714158Y-11722008D01*
X10714158Y-11722008D02*
X10723682Y-11731531D01*
X10723682Y-11731531D02*
X10733205Y-11750579D01*
X10733205Y-11750579D02*
X10742729Y-11788674D01*
X10742729Y-11788674D02*
X10742729Y-11836293D01*
X10742729Y-11836293D02*
X10733205Y-11874388D01*
X10733205Y-11874388D02*
X10723682Y-11893436D01*
X10723682Y-11893436D02*
X10714158Y-11902960D01*
X10714158Y-11902960D02*
X10695110Y-11912484D01*
X10695110Y-11912484D02*
X10676063Y-11912484D01*
X10676063Y-11912484D02*
X10657015Y-11902960D01*
X10657015Y-11902960D02*
X10647491Y-11893436D01*
X10647491Y-11893436D02*
X10637967Y-11874388D01*
X10637967Y-11874388D02*
X10628444Y-11836293D01*
X10628444Y-11836293D02*
X10628444Y-11788674D01*
X10628444Y-11788674D02*
X10637967Y-11750579D01*
X10637967Y-11750579D02*
X10647491Y-11731531D01*
X10647491Y-11731531D02*
X10657015Y-11722008D01*
X10657015Y-11722008D02*
X10676063Y-11712484D01*
X10866539Y-11712484D02*
X10885586Y-11712484D01*
X10885586Y-11712484D02*
X10904634Y-11722008D01*
X10904634Y-11722008D02*
X10914158Y-11731531D01*
X10914158Y-11731531D02*
X10923682Y-11750579D01*
X10923682Y-11750579D02*
X10933205Y-11788674D01*
X10933205Y-11788674D02*
X10933205Y-11836293D01*
X10933205Y-11836293D02*
X10923682Y-11874388D01*
X10923682Y-11874388D02*
X10914158Y-11893436D01*
X10914158Y-11893436D02*
X10904634Y-11902960D01*
X10904634Y-11902960D02*
X10885586Y-11912484D01*
X10885586Y-11912484D02*
X10866539Y-11912484D01*
X10866539Y-11912484D02*
X10847491Y-11902960D01*
X10847491Y-11902960D02*
X10837967Y-11893436D01*
X10837967Y-11893436D02*
X10828444Y-11874388D01*
X10828444Y-11874388D02*
X10818920Y-11836293D01*
X10818920Y-11836293D02*
X10818920Y-11788674D01*
X10818920Y-11788674D02*
X10828444Y-11750579D01*
X10828444Y-11750579D02*
X10837967Y-11731531D01*
X10837967Y-11731531D02*
X10847491Y-11722008D01*
X10847491Y-11722008D02*
X10866539Y-11712484D01*
X11018920Y-11912484D02*
X11018920Y-11779150D01*
X11018920Y-11798198D02*
X11028444Y-11788674D01*
X11028444Y-11788674D02*
X11047491Y-11779150D01*
X11047491Y-11779150D02*
X11076063Y-11779150D01*
X11076063Y-11779150D02*
X11095110Y-11788674D01*
X11095110Y-11788674D02*
X11104634Y-11807722D01*
X11104634Y-11807722D02*
X11104634Y-11912484D01*
X11104634Y-11807722D02*
X11114158Y-11788674D01*
X11114158Y-11788674D02*
X11133205Y-11779150D01*
X11133205Y-11779150D02*
X11161777Y-11779150D01*
X11161777Y-11779150D02*
X11180825Y-11788674D01*
X11180825Y-11788674D02*
X11190348Y-11807722D01*
X11190348Y-11807722D02*
X11190348Y-11912484D01*
X11285586Y-11912484D02*
X11285586Y-11779150D01*
X11285586Y-11798198D02*
X11295110Y-11788674D01*
X11295110Y-11788674D02*
X11314158Y-11779150D01*
X11314158Y-11779150D02*
X11342729Y-11779150D01*
X11342729Y-11779150D02*
X11361777Y-11788674D01*
X11361777Y-11788674D02*
X11371301Y-11807722D01*
X11371301Y-11807722D02*
X11371301Y-11912484D01*
X11371301Y-11807722D02*
X11380824Y-11788674D01*
X11380824Y-11788674D02*
X11399872Y-11779150D01*
X11399872Y-11779150D02*
X11428443Y-11779150D01*
X11428443Y-11779150D02*
X11447491Y-11788674D01*
X11447491Y-11788674D02*
X11457015Y-11807722D01*
X11457015Y-11807722D02*
X11457015Y-11912484D01*
X11847491Y-11702960D02*
X11676063Y-11960103D01*
X12104634Y-11712484D02*
X12123682Y-11712484D01*
X12123682Y-11712484D02*
X12142729Y-11722008D01*
X12142729Y-11722008D02*
X12152253Y-11731531D01*
X12152253Y-11731531D02*
X12161777Y-11750579D01*
X12161777Y-11750579D02*
X12171301Y-11788674D01*
X12171301Y-11788674D02*
X12171301Y-11836293D01*
X12171301Y-11836293D02*
X12161777Y-11874388D01*
X12161777Y-11874388D02*
X12152253Y-11893436D01*
X12152253Y-11893436D02*
X12142729Y-11902960D01*
X12142729Y-11902960D02*
X12123682Y-11912484D01*
X12123682Y-11912484D02*
X12104634Y-11912484D01*
X12104634Y-11912484D02*
X12085586Y-11902960D01*
X12085586Y-11902960D02*
X12076063Y-11893436D01*
X12076063Y-11893436D02*
X12066539Y-11874388D01*
X12066539Y-11874388D02*
X12057015Y-11836293D01*
X12057015Y-11836293D02*
X12057015Y-11788674D01*
X12057015Y-11788674D02*
X12066539Y-11750579D01*
X12066539Y-11750579D02*
X12076063Y-11731531D01*
X12076063Y-11731531D02*
X12085586Y-11722008D01*
X12085586Y-11722008D02*
X12104634Y-11712484D01*
X12257015Y-11893436D02*
X12266539Y-11902960D01*
X12266539Y-11902960D02*
X12257015Y-11912484D01*
X12257015Y-11912484D02*
X12247491Y-11902960D01*
X12247491Y-11902960D02*
X12257015Y-11893436D01*
X12257015Y-11893436D02*
X12257015Y-11912484D01*
X12390348Y-11712484D02*
X12409396Y-11712484D01*
X12409396Y-11712484D02*
X12428444Y-11722008D01*
X12428444Y-11722008D02*
X12437967Y-11731531D01*
X12437967Y-11731531D02*
X12447491Y-11750579D01*
X12447491Y-11750579D02*
X12457015Y-11788674D01*
X12457015Y-11788674D02*
X12457015Y-11836293D01*
X12457015Y-11836293D02*
X12447491Y-11874388D01*
X12447491Y-11874388D02*
X12437967Y-11893436D01*
X12437967Y-11893436D02*
X12428444Y-11902960D01*
X12428444Y-11902960D02*
X12409396Y-11912484D01*
X12409396Y-11912484D02*
X12390348Y-11912484D01*
X12390348Y-11912484D02*
X12371301Y-11902960D01*
X12371301Y-11902960D02*
X12361777Y-11893436D01*
X12361777Y-11893436D02*
X12352253Y-11874388D01*
X12352253Y-11874388D02*
X12342729Y-11836293D01*
X12342729Y-11836293D02*
X12342729Y-11788674D01*
X12342729Y-11788674D02*
X12352253Y-11750579D01*
X12352253Y-11750579D02*
X12361777Y-11731531D01*
X12361777Y-11731531D02*
X12371301Y-11722008D01*
X12371301Y-11722008D02*
X12390348Y-11712484D01*
X12580825Y-11712484D02*
X12599872Y-11712484D01*
X12599872Y-11712484D02*
X12618920Y-11722008D01*
X12618920Y-11722008D02*
X12628444Y-11731531D01*
X12628444Y-11731531D02*
X12637967Y-11750579D01*
X12637967Y-11750579D02*
X12647491Y-11788674D01*
X12647491Y-11788674D02*
X12647491Y-11836293D01*
X12647491Y-11836293D02*
X12637967Y-11874388D01*
X12637967Y-11874388D02*
X12628444Y-11893436D01*
X12628444Y-11893436D02*
X12618920Y-11902960D01*
X12618920Y-11902960D02*
X12599872Y-11912484D01*
X12599872Y-11912484D02*
X12580825Y-11912484D01*
X12580825Y-11912484D02*
X12561777Y-11902960D01*
X12561777Y-11902960D02*
X12552253Y-11893436D01*
X12552253Y-11893436D02*
X12542729Y-11874388D01*
X12542729Y-11874388D02*
X12533206Y-11836293D01*
X12533206Y-11836293D02*
X12533206Y-11788674D01*
X12533206Y-11788674D02*
X12542729Y-11750579D01*
X12542729Y-11750579D02*
X12552253Y-11731531D01*
X12552253Y-11731531D02*
X12561777Y-11722008D01*
X12561777Y-11722008D02*
X12580825Y-11712484D01*
X12714158Y-11712484D02*
X12847491Y-11712484D01*
X12847491Y-11712484D02*
X12761777Y-11912484D01*
X12933206Y-11912484D02*
X12971301Y-11912484D01*
X12971301Y-11912484D02*
X12990348Y-11902960D01*
X12990348Y-11902960D02*
X12999872Y-11893436D01*
X12999872Y-11893436D02*
X13018920Y-11864865D01*
X13018920Y-11864865D02*
X13028444Y-11826769D01*
X13028444Y-11826769D02*
X13028444Y-11750579D01*
X13028444Y-11750579D02*
X13018920Y-11731531D01*
X13018920Y-11731531D02*
X13009396Y-11722008D01*
X13009396Y-11722008D02*
X12990348Y-11712484D01*
X12990348Y-11712484D02*
X12952253Y-11712484D01*
X12952253Y-11712484D02*
X12933206Y-11722008D01*
X12933206Y-11722008D02*
X12923682Y-11731531D01*
X12923682Y-11731531D02*
X12914158Y-11750579D01*
X12914158Y-11750579D02*
X12914158Y-11798198D01*
X12914158Y-11798198D02*
X12923682Y-11817246D01*
X12923682Y-11817246D02*
X12933206Y-11826769D01*
X12933206Y-11826769D02*
X12952253Y-11836293D01*
X12952253Y-11836293D02*
X12990348Y-11836293D01*
X12990348Y-11836293D02*
X13009396Y-11826769D01*
X13009396Y-11826769D02*
X13018920Y-11817246D01*
X13018920Y-11817246D02*
X13028444Y-11798198D01*
X13104634Y-11712484D02*
X13104634Y-11750579D01*
X13180825Y-11712484D02*
X13180825Y-11750579D01*
X13476063Y-11988674D02*
X13466539Y-11979150D01*
X13466539Y-11979150D02*
X13447491Y-11950579D01*
X13447491Y-11950579D02*
X13437968Y-11931531D01*
X13437968Y-11931531D02*
X13428444Y-11902960D01*
X13428444Y-11902960D02*
X13418920Y-11855341D01*
X13418920Y-11855341D02*
X13418920Y-11817246D01*
X13418920Y-11817246D02*
X13428444Y-11769627D01*
X13428444Y-11769627D02*
X13437968Y-11741055D01*
X13437968Y-11741055D02*
X13447491Y-11722008D01*
X13447491Y-11722008D02*
X13466539Y-11693436D01*
X13466539Y-11693436D02*
X13476063Y-11683912D01*
X13580825Y-11798198D02*
X13561777Y-11788674D01*
X13561777Y-11788674D02*
X13552253Y-11779150D01*
X13552253Y-11779150D02*
X13542729Y-11760103D01*
X13542729Y-11760103D02*
X13542729Y-11750579D01*
X13542729Y-11750579D02*
X13552253Y-11731531D01*
X13552253Y-11731531D02*
X13561777Y-11722008D01*
X13561777Y-11722008D02*
X13580825Y-11712484D01*
X13580825Y-11712484D02*
X13618920Y-11712484D01*
X13618920Y-11712484D02*
X13637968Y-11722008D01*
X13637968Y-11722008D02*
X13647491Y-11731531D01*
X13647491Y-11731531D02*
X13657015Y-11750579D01*
X13657015Y-11750579D02*
X13657015Y-11760103D01*
X13657015Y-11760103D02*
X13647491Y-11779150D01*
X13647491Y-11779150D02*
X13637968Y-11788674D01*
X13637968Y-11788674D02*
X13618920Y-11798198D01*
X13618920Y-11798198D02*
X13580825Y-11798198D01*
X13580825Y-11798198D02*
X13561777Y-11807722D01*
X13561777Y-11807722D02*
X13552253Y-11817246D01*
X13552253Y-11817246D02*
X13542729Y-11836293D01*
X13542729Y-11836293D02*
X13542729Y-11874388D01*
X13542729Y-11874388D02*
X13552253Y-11893436D01*
X13552253Y-11893436D02*
X13561777Y-11902960D01*
X13561777Y-11902960D02*
X13580825Y-11912484D01*
X13580825Y-11912484D02*
X13618920Y-11912484D01*
X13618920Y-11912484D02*
X13637968Y-11902960D01*
X13637968Y-11902960D02*
X13647491Y-11893436D01*
X13647491Y-11893436D02*
X13657015Y-11874388D01*
X13657015Y-11874388D02*
X13657015Y-11836293D01*
X13657015Y-11836293D02*
X13647491Y-11817246D01*
X13647491Y-11817246D02*
X13637968Y-11807722D01*
X13637968Y-11807722D02*
X13618920Y-11798198D01*
X13780825Y-11712484D02*
X13799872Y-11712484D01*
X13799872Y-11712484D02*
X13818920Y-11722008D01*
X13818920Y-11722008D02*
X13828444Y-11731531D01*
X13828444Y-11731531D02*
X13837968Y-11750579D01*
X13837968Y-11750579D02*
X13847491Y-11788674D01*
X13847491Y-11788674D02*
X13847491Y-11836293D01*
X13847491Y-11836293D02*
X13837968Y-11874388D01*
X13837968Y-11874388D02*
X13828444Y-11893436D01*
X13828444Y-11893436D02*
X13818920Y-11902960D01*
X13818920Y-11902960D02*
X13799872Y-11912484D01*
X13799872Y-11912484D02*
X13780825Y-11912484D01*
X13780825Y-11912484D02*
X13761777Y-11902960D01*
X13761777Y-11902960D02*
X13752253Y-11893436D01*
X13752253Y-11893436D02*
X13742729Y-11874388D01*
X13742729Y-11874388D02*
X13733206Y-11836293D01*
X13733206Y-11836293D02*
X13733206Y-11788674D01*
X13733206Y-11788674D02*
X13742729Y-11750579D01*
X13742729Y-11750579D02*
X13752253Y-11731531D01*
X13752253Y-11731531D02*
X13761777Y-11722008D01*
X13761777Y-11722008D02*
X13780825Y-11712484D01*
X14085587Y-11912484D02*
X14085587Y-11712484D01*
X14171301Y-11912484D02*
X14171301Y-11807722D01*
X14171301Y-11807722D02*
X14161777Y-11788674D01*
X14161777Y-11788674D02*
X14142730Y-11779150D01*
X14142730Y-11779150D02*
X14114158Y-11779150D01*
X14114158Y-11779150D02*
X14095110Y-11788674D01*
X14095110Y-11788674D02*
X14085587Y-11798198D01*
X14295110Y-11912484D02*
X14276063Y-11902960D01*
X14276063Y-11902960D02*
X14266539Y-11893436D01*
X14266539Y-11893436D02*
X14257015Y-11874388D01*
X14257015Y-11874388D02*
X14257015Y-11817246D01*
X14257015Y-11817246D02*
X14266539Y-11798198D01*
X14266539Y-11798198D02*
X14276063Y-11788674D01*
X14276063Y-11788674D02*
X14295110Y-11779150D01*
X14295110Y-11779150D02*
X14323682Y-11779150D01*
X14323682Y-11779150D02*
X14342730Y-11788674D01*
X14342730Y-11788674D02*
X14352253Y-11798198D01*
X14352253Y-11798198D02*
X14361777Y-11817246D01*
X14361777Y-11817246D02*
X14361777Y-11874388D01*
X14361777Y-11874388D02*
X14352253Y-11893436D01*
X14352253Y-11893436D02*
X14342730Y-11902960D01*
X14342730Y-11902960D02*
X14323682Y-11912484D01*
X14323682Y-11912484D02*
X14295110Y-11912484D01*
X14476063Y-11912484D02*
X14457015Y-11902960D01*
X14457015Y-11902960D02*
X14447491Y-11883912D01*
X14447491Y-11883912D02*
X14447491Y-11712484D01*
X14628444Y-11902960D02*
X14609396Y-11912484D01*
X14609396Y-11912484D02*
X14571301Y-11912484D01*
X14571301Y-11912484D02*
X14552253Y-11902960D01*
X14552253Y-11902960D02*
X14542730Y-11883912D01*
X14542730Y-11883912D02*
X14542730Y-11807722D01*
X14542730Y-11807722D02*
X14552253Y-11788674D01*
X14552253Y-11788674D02*
X14571301Y-11779150D01*
X14571301Y-11779150D02*
X14609396Y-11779150D01*
X14609396Y-11779150D02*
X14628444Y-11788674D01*
X14628444Y-11788674D02*
X14637968Y-11807722D01*
X14637968Y-11807722D02*
X14637968Y-11826769D01*
X14637968Y-11826769D02*
X14542730Y-11845817D01*
X14714158Y-11902960D02*
X14733206Y-11912484D01*
X14733206Y-11912484D02*
X14771301Y-11912484D01*
X14771301Y-11912484D02*
X14790349Y-11902960D01*
X14790349Y-11902960D02*
X14799872Y-11883912D01*
X14799872Y-11883912D02*
X14799872Y-11874388D01*
X14799872Y-11874388D02*
X14790349Y-11855341D01*
X14790349Y-11855341D02*
X14771301Y-11845817D01*
X14771301Y-11845817D02*
X14742730Y-11845817D01*
X14742730Y-11845817D02*
X14723682Y-11836293D01*
X14723682Y-11836293D02*
X14714158Y-11817246D01*
X14714158Y-11817246D02*
X14714158Y-11807722D01*
X14714158Y-11807722D02*
X14723682Y-11788674D01*
X14723682Y-11788674D02*
X14742730Y-11779150D01*
X14742730Y-11779150D02*
X14771301Y-11779150D01*
X14771301Y-11779150D02*
X14790349Y-11788674D01*
X14866539Y-11988674D02*
X14876063Y-11979150D01*
X14876063Y-11979150D02*
X14895111Y-11950579D01*
X14895111Y-11950579D02*
X14904634Y-11931531D01*
X14904634Y-11931531D02*
X14914158Y-11902960D01*
X14914158Y-11902960D02*
X14923682Y-11855341D01*
X14923682Y-11855341D02*
X14923682Y-11817246D01*
X14923682Y-11817246D02*
X14914158Y-11769627D01*
X14914158Y-11769627D02*
X14904634Y-11741055D01*
X14904634Y-11741055D02*
X14895111Y-11722008D01*
X14895111Y-11722008D02*
X14876063Y-11693436D01*
X14876063Y-11693436D02*
X14866539Y-11683912D01*
D13*
X9901000Y-12085000D02*
G75*
G03*
X9901000Y-12085000I-30000J0D01*
G01*
D11*
X10199872Y-11976484D02*
X10218920Y-11976484D01*
X10218920Y-11976484D02*
X10237967Y-11986008D01*
X10237967Y-11986008D02*
X10247491Y-11995531D01*
X10247491Y-11995531D02*
X10257015Y-12014579D01*
X10257015Y-12014579D02*
X10266539Y-12052674D01*
X10266539Y-12052674D02*
X10266539Y-12100293D01*
X10266539Y-12100293D02*
X10257015Y-12138388D01*
X10257015Y-12138388D02*
X10247491Y-12157436D01*
X10247491Y-12157436D02*
X10237967Y-12166960D01*
X10237967Y-12166960D02*
X10218920Y-12176484D01*
X10218920Y-12176484D02*
X10199872Y-12176484D01*
X10199872Y-12176484D02*
X10180824Y-12166960D01*
X10180824Y-12166960D02*
X10171301Y-12157436D01*
X10171301Y-12157436D02*
X10161777Y-12138388D01*
X10161777Y-12138388D02*
X10152253Y-12100293D01*
X10152253Y-12100293D02*
X10152253Y-12052674D01*
X10152253Y-12052674D02*
X10161777Y-12014579D01*
X10161777Y-12014579D02*
X10171301Y-11995531D01*
X10171301Y-11995531D02*
X10180824Y-11986008D01*
X10180824Y-11986008D02*
X10199872Y-11976484D01*
X10352253Y-12157436D02*
X10361777Y-12166960D01*
X10361777Y-12166960D02*
X10352253Y-12176484D01*
X10352253Y-12176484D02*
X10342729Y-12166960D01*
X10342729Y-12166960D02*
X10352253Y-12157436D01*
X10352253Y-12157436D02*
X10352253Y-12176484D01*
X10533205Y-11976484D02*
X10495110Y-11976484D01*
X10495110Y-11976484D02*
X10476063Y-11986008D01*
X10476063Y-11986008D02*
X10466539Y-11995531D01*
X10466539Y-11995531D02*
X10447491Y-12024103D01*
X10447491Y-12024103D02*
X10437967Y-12062198D01*
X10437967Y-12062198D02*
X10437967Y-12138388D01*
X10437967Y-12138388D02*
X10447491Y-12157436D01*
X10447491Y-12157436D02*
X10457015Y-12166960D01*
X10457015Y-12166960D02*
X10476063Y-12176484D01*
X10476063Y-12176484D02*
X10514158Y-12176484D01*
X10514158Y-12176484D02*
X10533205Y-12166960D01*
X10533205Y-12166960D02*
X10542729Y-12157436D01*
X10542729Y-12157436D02*
X10552253Y-12138388D01*
X10552253Y-12138388D02*
X10552253Y-12090769D01*
X10552253Y-12090769D02*
X10542729Y-12071722D01*
X10542729Y-12071722D02*
X10533205Y-12062198D01*
X10533205Y-12062198D02*
X10514158Y-12052674D01*
X10514158Y-12052674D02*
X10476063Y-12052674D01*
X10476063Y-12052674D02*
X10457015Y-12062198D01*
X10457015Y-12062198D02*
X10447491Y-12071722D01*
X10447491Y-12071722D02*
X10437967Y-12090769D01*
X10676063Y-11976484D02*
X10695110Y-11976484D01*
X10695110Y-11976484D02*
X10714158Y-11986008D01*
X10714158Y-11986008D02*
X10723682Y-11995531D01*
X10723682Y-11995531D02*
X10733205Y-12014579D01*
X10733205Y-12014579D02*
X10742729Y-12052674D01*
X10742729Y-12052674D02*
X10742729Y-12100293D01*
X10742729Y-12100293D02*
X10733205Y-12138388D01*
X10733205Y-12138388D02*
X10723682Y-12157436D01*
X10723682Y-12157436D02*
X10714158Y-12166960D01*
X10714158Y-12166960D02*
X10695110Y-12176484D01*
X10695110Y-12176484D02*
X10676063Y-12176484D01*
X10676063Y-12176484D02*
X10657015Y-12166960D01*
X10657015Y-12166960D02*
X10647491Y-12157436D01*
X10647491Y-12157436D02*
X10637967Y-12138388D01*
X10637967Y-12138388D02*
X10628444Y-12100293D01*
X10628444Y-12100293D02*
X10628444Y-12052674D01*
X10628444Y-12052674D02*
X10637967Y-12014579D01*
X10637967Y-12014579D02*
X10647491Y-11995531D01*
X10647491Y-11995531D02*
X10657015Y-11986008D01*
X10657015Y-11986008D02*
X10676063Y-11976484D01*
X10866539Y-11976484D02*
X10885586Y-11976484D01*
X10885586Y-11976484D02*
X10904634Y-11986008D01*
X10904634Y-11986008D02*
X10914158Y-11995531D01*
X10914158Y-11995531D02*
X10923682Y-12014579D01*
X10923682Y-12014579D02*
X10933205Y-12052674D01*
X10933205Y-12052674D02*
X10933205Y-12100293D01*
X10933205Y-12100293D02*
X10923682Y-12138388D01*
X10923682Y-12138388D02*
X10914158Y-12157436D01*
X10914158Y-12157436D02*
X10904634Y-12166960D01*
X10904634Y-12166960D02*
X10885586Y-12176484D01*
X10885586Y-12176484D02*
X10866539Y-12176484D01*
X10866539Y-12176484D02*
X10847491Y-12166960D01*
X10847491Y-12166960D02*
X10837967Y-12157436D01*
X10837967Y-12157436D02*
X10828444Y-12138388D01*
X10828444Y-12138388D02*
X10818920Y-12100293D01*
X10818920Y-12100293D02*
X10818920Y-12052674D01*
X10818920Y-12052674D02*
X10828444Y-12014579D01*
X10828444Y-12014579D02*
X10837967Y-11995531D01*
X10837967Y-11995531D02*
X10847491Y-11986008D01*
X10847491Y-11986008D02*
X10866539Y-11976484D01*
X11018920Y-12176484D02*
X11018920Y-12043150D01*
X11018920Y-12062198D02*
X11028444Y-12052674D01*
X11028444Y-12052674D02*
X11047491Y-12043150D01*
X11047491Y-12043150D02*
X11076063Y-12043150D01*
X11076063Y-12043150D02*
X11095110Y-12052674D01*
X11095110Y-12052674D02*
X11104634Y-12071722D01*
X11104634Y-12071722D02*
X11104634Y-12176484D01*
X11104634Y-12071722D02*
X11114158Y-12052674D01*
X11114158Y-12052674D02*
X11133205Y-12043150D01*
X11133205Y-12043150D02*
X11161777Y-12043150D01*
X11161777Y-12043150D02*
X11180825Y-12052674D01*
X11180825Y-12052674D02*
X11190348Y-12071722D01*
X11190348Y-12071722D02*
X11190348Y-12176484D01*
X11285586Y-12176484D02*
X11285586Y-12043150D01*
X11285586Y-12062198D02*
X11295110Y-12052674D01*
X11295110Y-12052674D02*
X11314158Y-12043150D01*
X11314158Y-12043150D02*
X11342729Y-12043150D01*
X11342729Y-12043150D02*
X11361777Y-12052674D01*
X11361777Y-12052674D02*
X11371301Y-12071722D01*
X11371301Y-12071722D02*
X11371301Y-12176484D01*
X11371301Y-12071722D02*
X11380824Y-12052674D01*
X11380824Y-12052674D02*
X11399872Y-12043150D01*
X11399872Y-12043150D02*
X11428443Y-12043150D01*
X11428443Y-12043150D02*
X11447491Y-12052674D01*
X11447491Y-12052674D02*
X11457015Y-12071722D01*
X11457015Y-12071722D02*
X11457015Y-12176484D01*
X11847491Y-11966960D02*
X11676063Y-12224103D01*
X12104634Y-11976484D02*
X12123682Y-11976484D01*
X12123682Y-11976484D02*
X12142729Y-11986008D01*
X12142729Y-11986008D02*
X12152253Y-11995531D01*
X12152253Y-11995531D02*
X12161777Y-12014579D01*
X12161777Y-12014579D02*
X12171301Y-12052674D01*
X12171301Y-12052674D02*
X12171301Y-12100293D01*
X12171301Y-12100293D02*
X12161777Y-12138388D01*
X12161777Y-12138388D02*
X12152253Y-12157436D01*
X12152253Y-12157436D02*
X12142729Y-12166960D01*
X12142729Y-12166960D02*
X12123682Y-12176484D01*
X12123682Y-12176484D02*
X12104634Y-12176484D01*
X12104634Y-12176484D02*
X12085586Y-12166960D01*
X12085586Y-12166960D02*
X12076063Y-12157436D01*
X12076063Y-12157436D02*
X12066539Y-12138388D01*
X12066539Y-12138388D02*
X12057015Y-12100293D01*
X12057015Y-12100293D02*
X12057015Y-12052674D01*
X12057015Y-12052674D02*
X12066539Y-12014579D01*
X12066539Y-12014579D02*
X12076063Y-11995531D01*
X12076063Y-11995531D02*
X12085586Y-11986008D01*
X12085586Y-11986008D02*
X12104634Y-11976484D01*
X12257015Y-12157436D02*
X12266539Y-12166960D01*
X12266539Y-12166960D02*
X12257015Y-12176484D01*
X12257015Y-12176484D02*
X12247491Y-12166960D01*
X12247491Y-12166960D02*
X12257015Y-12157436D01*
X12257015Y-12157436D02*
X12257015Y-12176484D01*
X12390348Y-11976484D02*
X12409396Y-11976484D01*
X12409396Y-11976484D02*
X12428444Y-11986008D01*
X12428444Y-11986008D02*
X12437967Y-11995531D01*
X12437967Y-11995531D02*
X12447491Y-12014579D01*
X12447491Y-12014579D02*
X12457015Y-12052674D01*
X12457015Y-12052674D02*
X12457015Y-12100293D01*
X12457015Y-12100293D02*
X12447491Y-12138388D01*
X12447491Y-12138388D02*
X12437967Y-12157436D01*
X12437967Y-12157436D02*
X12428444Y-12166960D01*
X12428444Y-12166960D02*
X12409396Y-12176484D01*
X12409396Y-12176484D02*
X12390348Y-12176484D01*
X12390348Y-12176484D02*
X12371301Y-12166960D01*
X12371301Y-12166960D02*
X12361777Y-12157436D01*
X12361777Y-12157436D02*
X12352253Y-12138388D01*
X12352253Y-12138388D02*
X12342729Y-12100293D01*
X12342729Y-12100293D02*
X12342729Y-12052674D01*
X12342729Y-12052674D02*
X12352253Y-12014579D01*
X12352253Y-12014579D02*
X12361777Y-11995531D01*
X12361777Y-11995531D02*
X12371301Y-11986008D01*
X12371301Y-11986008D02*
X12390348Y-11976484D01*
X12533206Y-11995531D02*
X12542729Y-11986008D01*
X12542729Y-11986008D02*
X12561777Y-11976484D01*
X12561777Y-11976484D02*
X12609396Y-11976484D01*
X12609396Y-11976484D02*
X12628444Y-11986008D01*
X12628444Y-11986008D02*
X12637967Y-11995531D01*
X12637967Y-11995531D02*
X12647491Y-12014579D01*
X12647491Y-12014579D02*
X12647491Y-12033627D01*
X12647491Y-12033627D02*
X12637967Y-12062198D01*
X12637967Y-12062198D02*
X12523682Y-12176484D01*
X12523682Y-12176484D02*
X12647491Y-12176484D01*
X12714158Y-11976484D02*
X12837967Y-11976484D01*
X12837967Y-11976484D02*
X12771301Y-12052674D01*
X12771301Y-12052674D02*
X12799872Y-12052674D01*
X12799872Y-12052674D02*
X12818920Y-12062198D01*
X12818920Y-12062198D02*
X12828444Y-12071722D01*
X12828444Y-12071722D02*
X12837967Y-12090769D01*
X12837967Y-12090769D02*
X12837967Y-12138388D01*
X12837967Y-12138388D02*
X12828444Y-12157436D01*
X12828444Y-12157436D02*
X12818920Y-12166960D01*
X12818920Y-12166960D02*
X12799872Y-12176484D01*
X12799872Y-12176484D02*
X12742729Y-12176484D01*
X12742729Y-12176484D02*
X12723682Y-12166960D01*
X12723682Y-12166960D02*
X12714158Y-12157436D01*
X13009396Y-11976484D02*
X12971301Y-11976484D01*
X12971301Y-11976484D02*
X12952253Y-11986008D01*
X12952253Y-11986008D02*
X12942729Y-11995531D01*
X12942729Y-11995531D02*
X12923682Y-12024103D01*
X12923682Y-12024103D02*
X12914158Y-12062198D01*
X12914158Y-12062198D02*
X12914158Y-12138388D01*
X12914158Y-12138388D02*
X12923682Y-12157436D01*
X12923682Y-12157436D02*
X12933206Y-12166960D01*
X12933206Y-12166960D02*
X12952253Y-12176484D01*
X12952253Y-12176484D02*
X12990348Y-12176484D01*
X12990348Y-12176484D02*
X13009396Y-12166960D01*
X13009396Y-12166960D02*
X13018920Y-12157436D01*
X13018920Y-12157436D02*
X13028444Y-12138388D01*
X13028444Y-12138388D02*
X13028444Y-12090769D01*
X13028444Y-12090769D02*
X13018920Y-12071722D01*
X13018920Y-12071722D02*
X13009396Y-12062198D01*
X13009396Y-12062198D02*
X12990348Y-12052674D01*
X12990348Y-12052674D02*
X12952253Y-12052674D01*
X12952253Y-12052674D02*
X12933206Y-12062198D01*
X12933206Y-12062198D02*
X12923682Y-12071722D01*
X12923682Y-12071722D02*
X12914158Y-12090769D01*
X13104634Y-11976484D02*
X13104634Y-12014579D01*
X13180825Y-11976484D02*
X13180825Y-12014579D01*
X13476063Y-12252674D02*
X13466539Y-12243150D01*
X13466539Y-12243150D02*
X13447491Y-12214579D01*
X13447491Y-12214579D02*
X13437968Y-12195531D01*
X13437968Y-12195531D02*
X13428444Y-12166960D01*
X13428444Y-12166960D02*
X13418920Y-12119341D01*
X13418920Y-12119341D02*
X13418920Y-12081246D01*
X13418920Y-12081246D02*
X13428444Y-12033627D01*
X13428444Y-12033627D02*
X13437968Y-12005055D01*
X13437968Y-12005055D02*
X13447491Y-11986008D01*
X13447491Y-11986008D02*
X13466539Y-11957436D01*
X13466539Y-11957436D02*
X13476063Y-11947912D01*
X13590348Y-11976484D02*
X13609396Y-11976484D01*
X13609396Y-11976484D02*
X13628444Y-11986008D01*
X13628444Y-11986008D02*
X13637968Y-11995531D01*
X13637968Y-11995531D02*
X13647491Y-12014579D01*
X13647491Y-12014579D02*
X13657015Y-12052674D01*
X13657015Y-12052674D02*
X13657015Y-12100293D01*
X13657015Y-12100293D02*
X13647491Y-12138388D01*
X13647491Y-12138388D02*
X13637968Y-12157436D01*
X13637968Y-12157436D02*
X13628444Y-12166960D01*
X13628444Y-12166960D02*
X13609396Y-12176484D01*
X13609396Y-12176484D02*
X13590348Y-12176484D01*
X13590348Y-12176484D02*
X13571301Y-12166960D01*
X13571301Y-12166960D02*
X13561777Y-12157436D01*
X13561777Y-12157436D02*
X13552253Y-12138388D01*
X13552253Y-12138388D02*
X13542729Y-12100293D01*
X13542729Y-12100293D02*
X13542729Y-12052674D01*
X13542729Y-12052674D02*
X13552253Y-12014579D01*
X13552253Y-12014579D02*
X13561777Y-11995531D01*
X13561777Y-11995531D02*
X13571301Y-11986008D01*
X13571301Y-11986008D02*
X13590348Y-11976484D01*
X13895110Y-12176484D02*
X13895110Y-11976484D01*
X13980825Y-12176484D02*
X13980825Y-12071722D01*
X13980825Y-12071722D02*
X13971301Y-12052674D01*
X13971301Y-12052674D02*
X13952253Y-12043150D01*
X13952253Y-12043150D02*
X13923682Y-12043150D01*
X13923682Y-12043150D02*
X13904634Y-12052674D01*
X13904634Y-12052674D02*
X13895110Y-12062198D01*
X14104634Y-12176484D02*
X14085587Y-12166960D01*
X14085587Y-12166960D02*
X14076063Y-12157436D01*
X14076063Y-12157436D02*
X14066539Y-12138388D01*
X14066539Y-12138388D02*
X14066539Y-12081246D01*
X14066539Y-12081246D02*
X14076063Y-12062198D01*
X14076063Y-12062198D02*
X14085587Y-12052674D01*
X14085587Y-12052674D02*
X14104634Y-12043150D01*
X14104634Y-12043150D02*
X14133206Y-12043150D01*
X14133206Y-12043150D02*
X14152253Y-12052674D01*
X14152253Y-12052674D02*
X14161777Y-12062198D01*
X14161777Y-12062198D02*
X14171301Y-12081246D01*
X14171301Y-12081246D02*
X14171301Y-12138388D01*
X14171301Y-12138388D02*
X14161777Y-12157436D01*
X14161777Y-12157436D02*
X14152253Y-12166960D01*
X14152253Y-12166960D02*
X14133206Y-12176484D01*
X14133206Y-12176484D02*
X14104634Y-12176484D01*
X14285587Y-12176484D02*
X14266539Y-12166960D01*
X14266539Y-12166960D02*
X14257015Y-12147912D01*
X14257015Y-12147912D02*
X14257015Y-11976484D01*
X14437968Y-12166960D02*
X14418920Y-12176484D01*
X14418920Y-12176484D02*
X14380825Y-12176484D01*
X14380825Y-12176484D02*
X14361777Y-12166960D01*
X14361777Y-12166960D02*
X14352253Y-12147912D01*
X14352253Y-12147912D02*
X14352253Y-12071722D01*
X14352253Y-12071722D02*
X14361777Y-12052674D01*
X14361777Y-12052674D02*
X14380825Y-12043150D01*
X14380825Y-12043150D02*
X14418920Y-12043150D01*
X14418920Y-12043150D02*
X14437968Y-12052674D01*
X14437968Y-12052674D02*
X14447491Y-12071722D01*
X14447491Y-12071722D02*
X14447491Y-12090769D01*
X14447491Y-12090769D02*
X14352253Y-12109817D01*
X14523682Y-12166960D02*
X14542730Y-12176484D01*
X14542730Y-12176484D02*
X14580825Y-12176484D01*
X14580825Y-12176484D02*
X14599872Y-12166960D01*
X14599872Y-12166960D02*
X14609396Y-12147912D01*
X14609396Y-12147912D02*
X14609396Y-12138388D01*
X14609396Y-12138388D02*
X14599872Y-12119341D01*
X14599872Y-12119341D02*
X14580825Y-12109817D01*
X14580825Y-12109817D02*
X14552253Y-12109817D01*
X14552253Y-12109817D02*
X14533206Y-12100293D01*
X14533206Y-12100293D02*
X14523682Y-12081246D01*
X14523682Y-12081246D02*
X14523682Y-12071722D01*
X14523682Y-12071722D02*
X14533206Y-12052674D01*
X14533206Y-12052674D02*
X14552253Y-12043150D01*
X14552253Y-12043150D02*
X14580825Y-12043150D01*
X14580825Y-12043150D02*
X14599872Y-12052674D01*
X14847492Y-12100293D02*
X14999873Y-12100293D01*
X14923682Y-12176484D02*
X14923682Y-12024103D01*
X15333206Y-12043150D02*
X15333206Y-12176484D01*
X15285587Y-11966960D02*
X15237968Y-12109817D01*
X15237968Y-12109817D02*
X15361777Y-12109817D01*
X15580825Y-12166960D02*
X15599873Y-12176484D01*
X15599873Y-12176484D02*
X15637968Y-12176484D01*
X15637968Y-12176484D02*
X15657015Y-12166960D01*
X15657015Y-12166960D02*
X15666539Y-12147912D01*
X15666539Y-12147912D02*
X15666539Y-12138388D01*
X15666539Y-12138388D02*
X15657015Y-12119341D01*
X15657015Y-12119341D02*
X15637968Y-12109817D01*
X15637968Y-12109817D02*
X15609396Y-12109817D01*
X15609396Y-12109817D02*
X15590349Y-12100293D01*
X15590349Y-12100293D02*
X15580825Y-12081246D01*
X15580825Y-12081246D02*
X15580825Y-12071722D01*
X15580825Y-12071722D02*
X15590349Y-12052674D01*
X15590349Y-12052674D02*
X15609396Y-12043150D01*
X15609396Y-12043150D02*
X15637968Y-12043150D01*
X15637968Y-12043150D02*
X15657015Y-12052674D01*
X15780825Y-12176484D02*
X15761777Y-12166960D01*
X15761777Y-12166960D02*
X15752254Y-12147912D01*
X15752254Y-12147912D02*
X15752254Y-11976484D01*
X15885587Y-12176484D02*
X15866539Y-12166960D01*
X15866539Y-12166960D02*
X15857015Y-12157436D01*
X15857015Y-12157436D02*
X15847492Y-12138388D01*
X15847492Y-12138388D02*
X15847492Y-12081246D01*
X15847492Y-12081246D02*
X15857015Y-12062198D01*
X15857015Y-12062198D02*
X15866539Y-12052674D01*
X15866539Y-12052674D02*
X15885587Y-12043150D01*
X15885587Y-12043150D02*
X15914158Y-12043150D01*
X15914158Y-12043150D02*
X15933206Y-12052674D01*
X15933206Y-12052674D02*
X15942730Y-12062198D01*
X15942730Y-12062198D02*
X15952254Y-12081246D01*
X15952254Y-12081246D02*
X15952254Y-12138388D01*
X15952254Y-12138388D02*
X15942730Y-12157436D01*
X15942730Y-12157436D02*
X15933206Y-12166960D01*
X15933206Y-12166960D02*
X15914158Y-12176484D01*
X15914158Y-12176484D02*
X15885587Y-12176484D01*
X16009396Y-12043150D02*
X16085587Y-12043150D01*
X16037968Y-11976484D02*
X16037968Y-12147912D01*
X16037968Y-12147912D02*
X16047492Y-12166960D01*
X16047492Y-12166960D02*
X16066539Y-12176484D01*
X16066539Y-12176484D02*
X16085587Y-12176484D01*
X16142730Y-12166960D02*
X16161777Y-12176484D01*
X16161777Y-12176484D02*
X16199873Y-12176484D01*
X16199873Y-12176484D02*
X16218920Y-12166960D01*
X16218920Y-12166960D02*
X16228444Y-12147912D01*
X16228444Y-12147912D02*
X16228444Y-12138388D01*
X16228444Y-12138388D02*
X16218920Y-12119341D01*
X16218920Y-12119341D02*
X16199873Y-12109817D01*
X16199873Y-12109817D02*
X16171301Y-12109817D01*
X16171301Y-12109817D02*
X16152254Y-12100293D01*
X16152254Y-12100293D02*
X16142730Y-12081246D01*
X16142730Y-12081246D02*
X16142730Y-12071722D01*
X16142730Y-12071722D02*
X16152254Y-12052674D01*
X16152254Y-12052674D02*
X16171301Y-12043150D01*
X16171301Y-12043150D02*
X16199873Y-12043150D01*
X16199873Y-12043150D02*
X16218920Y-12052674D01*
X16295111Y-12252674D02*
X16304635Y-12243150D01*
X16304635Y-12243150D02*
X16323682Y-12214579D01*
X16323682Y-12214579D02*
X16333206Y-12195531D01*
X16333206Y-12195531D02*
X16342730Y-12166960D01*
X16342730Y-12166960D02*
X16352254Y-12119341D01*
X16352254Y-12119341D02*
X16352254Y-12081246D01*
X16352254Y-12081246D02*
X16342730Y-12033627D01*
X16342730Y-12033627D02*
X16333206Y-12005055D01*
X16333206Y-12005055D02*
X16323682Y-11986008D01*
X16323682Y-11986008D02*
X16304635Y-11957436D01*
X16304635Y-11957436D02*
X16295111Y-11947912D01*
D10*
X9851000Y-12299000D02*
X9851000Y-12399000D01*
X9801000Y-12349000D02*
X9901000Y-12349000D01*
D11*
X10266539Y-12440484D02*
X10152253Y-12440484D01*
X10209396Y-12440484D02*
X10209396Y-12240484D01*
X10209396Y-12240484D02*
X10190348Y-12269055D01*
X10190348Y-12269055D02*
X10171301Y-12288103D01*
X10171301Y-12288103D02*
X10152253Y-12297627D01*
X10352253Y-12421436D02*
X10361777Y-12430960D01*
X10361777Y-12430960D02*
X10352253Y-12440484D01*
X10352253Y-12440484D02*
X10342729Y-12430960D01*
X10342729Y-12430960D02*
X10352253Y-12421436D01*
X10352253Y-12421436D02*
X10352253Y-12440484D01*
X10485586Y-12240484D02*
X10504634Y-12240484D01*
X10504634Y-12240484D02*
X10523682Y-12250008D01*
X10523682Y-12250008D02*
X10533205Y-12259531D01*
X10533205Y-12259531D02*
X10542729Y-12278579D01*
X10542729Y-12278579D02*
X10552253Y-12316674D01*
X10552253Y-12316674D02*
X10552253Y-12364293D01*
X10552253Y-12364293D02*
X10542729Y-12402388D01*
X10542729Y-12402388D02*
X10533205Y-12421436D01*
X10533205Y-12421436D02*
X10523682Y-12430960D01*
X10523682Y-12430960D02*
X10504634Y-12440484D01*
X10504634Y-12440484D02*
X10485586Y-12440484D01*
X10485586Y-12440484D02*
X10466539Y-12430960D01*
X10466539Y-12430960D02*
X10457015Y-12421436D01*
X10457015Y-12421436D02*
X10447491Y-12402388D01*
X10447491Y-12402388D02*
X10437967Y-12364293D01*
X10437967Y-12364293D02*
X10437967Y-12316674D01*
X10437967Y-12316674D02*
X10447491Y-12278579D01*
X10447491Y-12278579D02*
X10457015Y-12259531D01*
X10457015Y-12259531D02*
X10466539Y-12250008D01*
X10466539Y-12250008D02*
X10485586Y-12240484D01*
X10676063Y-12240484D02*
X10695110Y-12240484D01*
X10695110Y-12240484D02*
X10714158Y-12250008D01*
X10714158Y-12250008D02*
X10723682Y-12259531D01*
X10723682Y-12259531D02*
X10733205Y-12278579D01*
X10733205Y-12278579D02*
X10742729Y-12316674D01*
X10742729Y-12316674D02*
X10742729Y-12364293D01*
X10742729Y-12364293D02*
X10733205Y-12402388D01*
X10733205Y-12402388D02*
X10723682Y-12421436D01*
X10723682Y-12421436D02*
X10714158Y-12430960D01*
X10714158Y-12430960D02*
X10695110Y-12440484D01*
X10695110Y-12440484D02*
X10676063Y-12440484D01*
X10676063Y-12440484D02*
X10657015Y-12430960D01*
X10657015Y-12430960D02*
X10647491Y-12421436D01*
X10647491Y-12421436D02*
X10637967Y-12402388D01*
X10637967Y-12402388D02*
X10628444Y-12364293D01*
X10628444Y-12364293D02*
X10628444Y-12316674D01*
X10628444Y-12316674D02*
X10637967Y-12278579D01*
X10637967Y-12278579D02*
X10647491Y-12259531D01*
X10647491Y-12259531D02*
X10657015Y-12250008D01*
X10657015Y-12250008D02*
X10676063Y-12240484D01*
X10866539Y-12240484D02*
X10885586Y-12240484D01*
X10885586Y-12240484D02*
X10904634Y-12250008D01*
X10904634Y-12250008D02*
X10914158Y-12259531D01*
X10914158Y-12259531D02*
X10923682Y-12278579D01*
X10923682Y-12278579D02*
X10933205Y-12316674D01*
X10933205Y-12316674D02*
X10933205Y-12364293D01*
X10933205Y-12364293D02*
X10923682Y-12402388D01*
X10923682Y-12402388D02*
X10914158Y-12421436D01*
X10914158Y-12421436D02*
X10904634Y-12430960D01*
X10904634Y-12430960D02*
X10885586Y-12440484D01*
X10885586Y-12440484D02*
X10866539Y-12440484D01*
X10866539Y-12440484D02*
X10847491Y-12430960D01*
X10847491Y-12430960D02*
X10837967Y-12421436D01*
X10837967Y-12421436D02*
X10828444Y-12402388D01*
X10828444Y-12402388D02*
X10818920Y-12364293D01*
X10818920Y-12364293D02*
X10818920Y-12316674D01*
X10818920Y-12316674D02*
X10828444Y-12278579D01*
X10828444Y-12278579D02*
X10837967Y-12259531D01*
X10837967Y-12259531D02*
X10847491Y-12250008D01*
X10847491Y-12250008D02*
X10866539Y-12240484D01*
X11018920Y-12440484D02*
X11018920Y-12307150D01*
X11018920Y-12326198D02*
X11028444Y-12316674D01*
X11028444Y-12316674D02*
X11047491Y-12307150D01*
X11047491Y-12307150D02*
X11076063Y-12307150D01*
X11076063Y-12307150D02*
X11095110Y-12316674D01*
X11095110Y-12316674D02*
X11104634Y-12335722D01*
X11104634Y-12335722D02*
X11104634Y-12440484D01*
X11104634Y-12335722D02*
X11114158Y-12316674D01*
X11114158Y-12316674D02*
X11133205Y-12307150D01*
X11133205Y-12307150D02*
X11161777Y-12307150D01*
X11161777Y-12307150D02*
X11180825Y-12316674D01*
X11180825Y-12316674D02*
X11190348Y-12335722D01*
X11190348Y-12335722D02*
X11190348Y-12440484D01*
X11285586Y-12440484D02*
X11285586Y-12307150D01*
X11285586Y-12326198D02*
X11295110Y-12316674D01*
X11295110Y-12316674D02*
X11314158Y-12307150D01*
X11314158Y-12307150D02*
X11342729Y-12307150D01*
X11342729Y-12307150D02*
X11361777Y-12316674D01*
X11361777Y-12316674D02*
X11371301Y-12335722D01*
X11371301Y-12335722D02*
X11371301Y-12440484D01*
X11371301Y-12335722D02*
X11380824Y-12316674D01*
X11380824Y-12316674D02*
X11399872Y-12307150D01*
X11399872Y-12307150D02*
X11428443Y-12307150D01*
X11428443Y-12307150D02*
X11447491Y-12316674D01*
X11447491Y-12316674D02*
X11457015Y-12335722D01*
X11457015Y-12335722D02*
X11457015Y-12440484D01*
X11847491Y-12230960D02*
X11676063Y-12488103D01*
X12104634Y-12240484D02*
X12123682Y-12240484D01*
X12123682Y-12240484D02*
X12142729Y-12250008D01*
X12142729Y-12250008D02*
X12152253Y-12259531D01*
X12152253Y-12259531D02*
X12161777Y-12278579D01*
X12161777Y-12278579D02*
X12171301Y-12316674D01*
X12171301Y-12316674D02*
X12171301Y-12364293D01*
X12171301Y-12364293D02*
X12161777Y-12402388D01*
X12161777Y-12402388D02*
X12152253Y-12421436D01*
X12152253Y-12421436D02*
X12142729Y-12430960D01*
X12142729Y-12430960D02*
X12123682Y-12440484D01*
X12123682Y-12440484D02*
X12104634Y-12440484D01*
X12104634Y-12440484D02*
X12085586Y-12430960D01*
X12085586Y-12430960D02*
X12076063Y-12421436D01*
X12076063Y-12421436D02*
X12066539Y-12402388D01*
X12066539Y-12402388D02*
X12057015Y-12364293D01*
X12057015Y-12364293D02*
X12057015Y-12316674D01*
X12057015Y-12316674D02*
X12066539Y-12278579D01*
X12066539Y-12278579D02*
X12076063Y-12259531D01*
X12076063Y-12259531D02*
X12085586Y-12250008D01*
X12085586Y-12250008D02*
X12104634Y-12240484D01*
X12257015Y-12421436D02*
X12266539Y-12430960D01*
X12266539Y-12430960D02*
X12257015Y-12440484D01*
X12257015Y-12440484D02*
X12247491Y-12430960D01*
X12247491Y-12430960D02*
X12257015Y-12421436D01*
X12257015Y-12421436D02*
X12257015Y-12440484D01*
X12390348Y-12240484D02*
X12409396Y-12240484D01*
X12409396Y-12240484D02*
X12428444Y-12250008D01*
X12428444Y-12250008D02*
X12437967Y-12259531D01*
X12437967Y-12259531D02*
X12447491Y-12278579D01*
X12447491Y-12278579D02*
X12457015Y-12316674D01*
X12457015Y-12316674D02*
X12457015Y-12364293D01*
X12457015Y-12364293D02*
X12447491Y-12402388D01*
X12447491Y-12402388D02*
X12437967Y-12421436D01*
X12437967Y-12421436D02*
X12428444Y-12430960D01*
X12428444Y-12430960D02*
X12409396Y-12440484D01*
X12409396Y-12440484D02*
X12390348Y-12440484D01*
X12390348Y-12440484D02*
X12371301Y-12430960D01*
X12371301Y-12430960D02*
X12361777Y-12421436D01*
X12361777Y-12421436D02*
X12352253Y-12402388D01*
X12352253Y-12402388D02*
X12342729Y-12364293D01*
X12342729Y-12364293D02*
X12342729Y-12316674D01*
X12342729Y-12316674D02*
X12352253Y-12278579D01*
X12352253Y-12278579D02*
X12361777Y-12259531D01*
X12361777Y-12259531D02*
X12371301Y-12250008D01*
X12371301Y-12250008D02*
X12390348Y-12240484D01*
X12523682Y-12240484D02*
X12647491Y-12240484D01*
X12647491Y-12240484D02*
X12580825Y-12316674D01*
X12580825Y-12316674D02*
X12609396Y-12316674D01*
X12609396Y-12316674D02*
X12628444Y-12326198D01*
X12628444Y-12326198D02*
X12637967Y-12335722D01*
X12637967Y-12335722D02*
X12647491Y-12354769D01*
X12647491Y-12354769D02*
X12647491Y-12402388D01*
X12647491Y-12402388D02*
X12637967Y-12421436D01*
X12637967Y-12421436D02*
X12628444Y-12430960D01*
X12628444Y-12430960D02*
X12609396Y-12440484D01*
X12609396Y-12440484D02*
X12552253Y-12440484D01*
X12552253Y-12440484D02*
X12533206Y-12430960D01*
X12533206Y-12430960D02*
X12523682Y-12421436D01*
X12742729Y-12440484D02*
X12780825Y-12440484D01*
X12780825Y-12440484D02*
X12799872Y-12430960D01*
X12799872Y-12430960D02*
X12809396Y-12421436D01*
X12809396Y-12421436D02*
X12828444Y-12392865D01*
X12828444Y-12392865D02*
X12837967Y-12354769D01*
X12837967Y-12354769D02*
X12837967Y-12278579D01*
X12837967Y-12278579D02*
X12828444Y-12259531D01*
X12828444Y-12259531D02*
X12818920Y-12250008D01*
X12818920Y-12250008D02*
X12799872Y-12240484D01*
X12799872Y-12240484D02*
X12761777Y-12240484D01*
X12761777Y-12240484D02*
X12742729Y-12250008D01*
X12742729Y-12250008D02*
X12733206Y-12259531D01*
X12733206Y-12259531D02*
X12723682Y-12278579D01*
X12723682Y-12278579D02*
X12723682Y-12326198D01*
X12723682Y-12326198D02*
X12733206Y-12345246D01*
X12733206Y-12345246D02*
X12742729Y-12354769D01*
X12742729Y-12354769D02*
X12761777Y-12364293D01*
X12761777Y-12364293D02*
X12799872Y-12364293D01*
X12799872Y-12364293D02*
X12818920Y-12354769D01*
X12818920Y-12354769D02*
X12828444Y-12345246D01*
X12828444Y-12345246D02*
X12837967Y-12326198D01*
X13009396Y-12307150D02*
X13009396Y-12440484D01*
X12961777Y-12230960D02*
X12914158Y-12373817D01*
X12914158Y-12373817D02*
X13037967Y-12373817D01*
X13104634Y-12240484D02*
X13104634Y-12278579D01*
X13180825Y-12240484D02*
X13180825Y-12278579D01*
X13476063Y-12516674D02*
X13466539Y-12507150D01*
X13466539Y-12507150D02*
X13447491Y-12478579D01*
X13447491Y-12478579D02*
X13437968Y-12459531D01*
X13437968Y-12459531D02*
X13428444Y-12430960D01*
X13428444Y-12430960D02*
X13418920Y-12383341D01*
X13418920Y-12383341D02*
X13418920Y-12345246D01*
X13418920Y-12345246D02*
X13428444Y-12297627D01*
X13428444Y-12297627D02*
X13437968Y-12269055D01*
X13437968Y-12269055D02*
X13447491Y-12250008D01*
X13447491Y-12250008D02*
X13466539Y-12221436D01*
X13466539Y-12221436D02*
X13476063Y-12211912D01*
X13637968Y-12307150D02*
X13637968Y-12440484D01*
X13590348Y-12230960D02*
X13542729Y-12373817D01*
X13542729Y-12373817D02*
X13666539Y-12373817D01*
X13828444Y-12307150D02*
X13828444Y-12440484D01*
X13780825Y-12230960D02*
X13733206Y-12373817D01*
X13733206Y-12373817D02*
X13857015Y-12373817D01*
X14085587Y-12440484D02*
X14085587Y-12240484D01*
X14171301Y-12440484D02*
X14171301Y-12335722D01*
X14171301Y-12335722D02*
X14161777Y-12316674D01*
X14161777Y-12316674D02*
X14142730Y-12307150D01*
X14142730Y-12307150D02*
X14114158Y-12307150D01*
X14114158Y-12307150D02*
X14095110Y-12316674D01*
X14095110Y-12316674D02*
X14085587Y-12326198D01*
X14295110Y-12440484D02*
X14276063Y-12430960D01*
X14276063Y-12430960D02*
X14266539Y-12421436D01*
X14266539Y-12421436D02*
X14257015Y-12402388D01*
X14257015Y-12402388D02*
X14257015Y-12345246D01*
X14257015Y-12345246D02*
X14266539Y-12326198D01*
X14266539Y-12326198D02*
X14276063Y-12316674D01*
X14276063Y-12316674D02*
X14295110Y-12307150D01*
X14295110Y-12307150D02*
X14323682Y-12307150D01*
X14323682Y-12307150D02*
X14342730Y-12316674D01*
X14342730Y-12316674D02*
X14352253Y-12326198D01*
X14352253Y-12326198D02*
X14361777Y-12345246D01*
X14361777Y-12345246D02*
X14361777Y-12402388D01*
X14361777Y-12402388D02*
X14352253Y-12421436D01*
X14352253Y-12421436D02*
X14342730Y-12430960D01*
X14342730Y-12430960D02*
X14323682Y-12440484D01*
X14323682Y-12440484D02*
X14295110Y-12440484D01*
X14476063Y-12440484D02*
X14457015Y-12430960D01*
X14457015Y-12430960D02*
X14447491Y-12411912D01*
X14447491Y-12411912D02*
X14447491Y-12240484D01*
X14628444Y-12430960D02*
X14609396Y-12440484D01*
X14609396Y-12440484D02*
X14571301Y-12440484D01*
X14571301Y-12440484D02*
X14552253Y-12430960D01*
X14552253Y-12430960D02*
X14542730Y-12411912D01*
X14542730Y-12411912D02*
X14542730Y-12335722D01*
X14542730Y-12335722D02*
X14552253Y-12316674D01*
X14552253Y-12316674D02*
X14571301Y-12307150D01*
X14571301Y-12307150D02*
X14609396Y-12307150D01*
X14609396Y-12307150D02*
X14628444Y-12316674D01*
X14628444Y-12316674D02*
X14637968Y-12335722D01*
X14637968Y-12335722D02*
X14637968Y-12354769D01*
X14637968Y-12354769D02*
X14542730Y-12373817D01*
X14714158Y-12430960D02*
X14733206Y-12440484D01*
X14733206Y-12440484D02*
X14771301Y-12440484D01*
X14771301Y-12440484D02*
X14790349Y-12430960D01*
X14790349Y-12430960D02*
X14799872Y-12411912D01*
X14799872Y-12411912D02*
X14799872Y-12402388D01*
X14799872Y-12402388D02*
X14790349Y-12383341D01*
X14790349Y-12383341D02*
X14771301Y-12373817D01*
X14771301Y-12373817D02*
X14742730Y-12373817D01*
X14742730Y-12373817D02*
X14723682Y-12364293D01*
X14723682Y-12364293D02*
X14714158Y-12345246D01*
X14714158Y-12345246D02*
X14714158Y-12335722D01*
X14714158Y-12335722D02*
X14723682Y-12316674D01*
X14723682Y-12316674D02*
X14742730Y-12307150D01*
X14742730Y-12307150D02*
X14771301Y-12307150D01*
X14771301Y-12307150D02*
X14790349Y-12316674D01*
X14866539Y-12516674D02*
X14876063Y-12507150D01*
X14876063Y-12507150D02*
X14895111Y-12478579D01*
X14895111Y-12478579D02*
X14904634Y-12459531D01*
X14904634Y-12459531D02*
X14914158Y-12430960D01*
X14914158Y-12430960D02*
X14923682Y-12383341D01*
X14923682Y-12383341D02*
X14923682Y-12345246D01*
X14923682Y-12345246D02*
X14914158Y-12297627D01*
X14914158Y-12297627D02*
X14904634Y-12269055D01*
X14904634Y-12269055D02*
X14895111Y-12250008D01*
X14895111Y-12250008D02*
X14876063Y-12221436D01*
X14876063Y-12221436D02*
X14866539Y-12211912D01*
M02*
