%TF.GenerationSoftware,KiCad,Pcbnew,7.0.7*%
%TF.CreationDate,2023-11-28T23:11:37+01:00*%
%TF.ProjectId,STM32G474_Black-Pill_v3.0,53544d33-3247-4343-9734-5f426c61636b,A*%
%TF.SameCoordinates,Original*%
%TF.FileFunction,Soldermask,Bot*%
%TF.FilePolarity,Negative*%
%FSLAX46Y46*%
G04 Gerber Fmt 4.6, Leading zero omitted, Abs format (unit mm)*
G04 Created by KiCad (PCBNEW 7.0.7) date 2023-11-28 23:11:37*
%MOMM*%
%LPD*%
G01*
G04 APERTURE LIST*
G04 Aperture macros list*
%AMRoundRect*
0 Rectangle with rounded corners*
0 $1 Rounding radius*
0 $2 $3 $4 $5 $6 $7 $8 $9 X,Y pos of 4 corners*
0 Add a 4 corners polygon primitive as box body*
4,1,4,$2,$3,$4,$5,$6,$7,$8,$9,$2,$3,0*
0 Add four circle primitives for the rounded corners*
1,1,$1+$1,$2,$3*
1,1,$1+$1,$4,$5*
1,1,$1+$1,$6,$7*
1,1,$1+$1,$8,$9*
0 Add four rect primitives between the rounded corners*
20,1,$1+$1,$2,$3,$4,$5,0*
20,1,$1+$1,$4,$5,$6,$7,0*
20,1,$1+$1,$6,$7,$8,$9,0*
20,1,$1+$1,$8,$9,$2,$3,0*%
%AMFreePoly0*
4,1,19,0.550000,-0.750000,0.000000,-0.750000,0.000000,-0.744911,-0.071157,-0.744911,-0.207708,-0.704816,-0.327430,-0.627875,-0.420627,-0.520320,-0.479746,-0.390866,-0.500000,-0.250000,-0.500000,0.250000,-0.479746,0.390866,-0.420627,0.520320,-0.327430,0.627875,-0.207708,0.704816,-0.071157,0.744911,0.000000,0.744911,0.000000,0.750000,0.550000,0.750000,0.550000,-0.750000,0.550000,-0.750000,
$1*%
%AMFreePoly1*
4,1,19,0.000000,0.744911,0.071157,0.744911,0.207708,0.704816,0.327430,0.627875,0.420627,0.520320,0.479746,0.390866,0.500000,0.250000,0.500000,-0.250000,0.479746,-0.390866,0.420627,-0.520320,0.327430,-0.627875,0.207708,-0.704816,0.071157,-0.744911,0.000000,-0.744911,0.000000,-0.750000,-0.550000,-0.750000,-0.550000,0.750000,0.000000,0.750000,0.000000,0.744911,0.000000,0.744911,
$1*%
%AMFreePoly2*
4,1,19,0.500000,-0.750000,0.000000,-0.750000,0.000000,-0.744911,-0.071157,-0.744911,-0.207708,-0.704816,-0.327430,-0.627875,-0.420627,-0.520320,-0.479746,-0.390866,-0.500000,-0.250000,-0.500000,0.250000,-0.479746,0.390866,-0.420627,0.520320,-0.327430,0.627875,-0.207708,0.704816,-0.071157,0.744911,0.000000,0.744911,0.000000,0.750000,0.500000,0.750000,0.500000,-0.750000,0.500000,-0.750000,
$1*%
%AMFreePoly3*
4,1,19,0.000000,0.744911,0.071157,0.744911,0.207708,0.704816,0.327430,0.627875,0.420627,0.520320,0.479746,0.390866,0.500000,0.250000,0.500000,-0.250000,0.479746,-0.390866,0.420627,-0.520320,0.327430,-0.627875,0.207708,-0.704816,0.071157,-0.744911,0.000000,-0.744911,0.000000,-0.750000,-0.500000,-0.750000,-0.500000,0.750000,0.000000,0.750000,0.000000,0.744911,0.000000,0.744911,
$1*%
G04 Aperture macros list end*
%ADD10R,1.700000X1.700000*%
%ADD11O,1.700000X1.700000*%
%ADD12C,0.650000*%
%ADD13O,2.100000X1.000000*%
%ADD14O,1.800000X1.000000*%
%ADD15RoundRect,0.150000X0.150000X-0.650000X0.150000X0.650000X-0.150000X0.650000X-0.150000X-0.650000X0*%
%ADD16RoundRect,0.135000X-0.135000X-0.185000X0.135000X-0.185000X0.135000X0.185000X-0.135000X0.185000X0*%
%ADD17RoundRect,0.140000X-0.170000X0.140000X-0.170000X-0.140000X0.170000X-0.140000X0.170000X0.140000X0*%
%ADD18FreePoly0,270.000000*%
%ADD19R,1.500000X1.000000*%
%ADD20FreePoly1,270.000000*%
%ADD21RoundRect,0.135000X0.135000X0.185000X-0.135000X0.185000X-0.135000X-0.185000X0.135000X-0.185000X0*%
%ADD22FreePoly2,90.000000*%
%ADD23FreePoly3,90.000000*%
G04 APERTURE END LIST*
%TO.C,G\u002A\u002A\u002A*%
G36*
X101101840Y-101212175D02*
G01*
X101098790Y-101281649D01*
X101087770Y-101346847D01*
X101069201Y-101400906D01*
X101065266Y-101408896D01*
X101017842Y-101482636D01*
X100956672Y-101542843D01*
X100881206Y-101590069D01*
X100860988Y-101599966D01*
X100832654Y-101612641D01*
X100808192Y-101620467D01*
X100781796Y-101624610D01*
X100747656Y-101626239D01*
X100699965Y-101626523D01*
X100670652Y-101626457D01*
X100631434Y-101625545D01*
X100602441Y-101622619D01*
X100577863Y-101616510D01*
X100551894Y-101606049D01*
X100518724Y-101590069D01*
X100502121Y-101581403D01*
X100431976Y-101532690D01*
X100375626Y-101472863D01*
X100333513Y-101404389D01*
X100306077Y-101329736D01*
X100293758Y-101251370D01*
X100294104Y-101242877D01*
X100558484Y-101242877D01*
X100571020Y-101286690D01*
X100597816Y-101325769D01*
X100638985Y-101356406D01*
X100640293Y-101357073D01*
X100682359Y-101368605D01*
X100728580Y-101366354D01*
X100770233Y-101350698D01*
X100788373Y-101337800D01*
X100820429Y-101300697D01*
X100837512Y-101257373D01*
X100839790Y-101211718D01*
X100827430Y-101167620D01*
X100800599Y-101128970D01*
X100759463Y-101099656D01*
X100734472Y-101088393D01*
X100707051Y-101081065D01*
X100680794Y-101083461D01*
X100646797Y-101095230D01*
X100605335Y-101120126D01*
X100575753Y-101155886D01*
X100560099Y-101198040D01*
X100558484Y-101242877D01*
X100294104Y-101242877D01*
X100296997Y-101171758D01*
X100316234Y-101093367D01*
X100351910Y-101018664D01*
X100404465Y-100950116D01*
X100426580Y-100928311D01*
X100497084Y-100875990D01*
X100574966Y-100840938D01*
X100658365Y-100823614D01*
X100745422Y-100824477D01*
X100834278Y-100843987D01*
X100881472Y-100859335D01*
X101119810Y-100620996D01*
X101358148Y-100382658D01*
X100564544Y-100382658D01*
X100208760Y-100738345D01*
X99852976Y-101094031D01*
X99852976Y-101752153D01*
X100177038Y-102076637D01*
X100508578Y-102076637D01*
X100525417Y-102032545D01*
X100538109Y-102006510D01*
X100569419Y-101961763D01*
X100610360Y-101916882D01*
X100656143Y-101876904D01*
X100701979Y-101846865D01*
X100726386Y-101835051D01*
X100803563Y-101809554D01*
X100884080Y-101798616D01*
X100963030Y-101802603D01*
X101035506Y-101821884D01*
X101074526Y-101837496D01*
X101307308Y-101604714D01*
X101292386Y-101557539D01*
X101285884Y-101535025D01*
X101272184Y-101448909D01*
X101273380Y-101419748D01*
X101533321Y-101419748D01*
X101540184Y-101466682D01*
X101563246Y-101509871D01*
X101602081Y-101545573D01*
X101621234Y-101554388D01*
X101659431Y-101561929D01*
X101700863Y-101562068D01*
X101736502Y-101554225D01*
X101753950Y-101543360D01*
X101779383Y-101518461D01*
X101801548Y-101488443D01*
X101814350Y-101460634D01*
X101817851Y-101414160D01*
X101805055Y-101365498D01*
X101776746Y-101324243D01*
X101758149Y-101308144D01*
X101713087Y-101285238D01*
X101665529Y-101279969D01*
X101618902Y-101292366D01*
X101576631Y-101322459D01*
X101569899Y-101329610D01*
X101543084Y-101372811D01*
X101533321Y-101419748D01*
X101273380Y-101419748D01*
X101275594Y-101365794D01*
X101294628Y-101287457D01*
X101327799Y-101215676D01*
X101373619Y-101152228D01*
X101430600Y-101098890D01*
X101497255Y-101057441D01*
X101572096Y-101029657D01*
X101653637Y-101017317D01*
X101740388Y-101022197D01*
X101802152Y-101036513D01*
X101881193Y-101070334D01*
X101948907Y-101118551D01*
X102003938Y-101179557D01*
X102044927Y-101251746D01*
X102070516Y-101333511D01*
X102078454Y-101414160D01*
X102079348Y-101423245D01*
X102078685Y-101448865D01*
X102065138Y-101537426D01*
X102034603Y-101617148D01*
X101987711Y-101687023D01*
X101925097Y-101746040D01*
X101847392Y-101793191D01*
X101807997Y-101807703D01*
X101746176Y-101820122D01*
X101678295Y-101825046D01*
X101611158Y-101822071D01*
X101551570Y-101810791D01*
X101495453Y-101794478D01*
X101380469Y-101908938D01*
X101359713Y-101929703D01*
X101321520Y-101968875D01*
X101295236Y-101997777D01*
X101279242Y-102018399D01*
X101271920Y-102032729D01*
X101271653Y-102042757D01*
X101280098Y-102070655D01*
X101295651Y-102138710D01*
X101300740Y-102199744D01*
X101300215Y-102206536D01*
X101296074Y-102260056D01*
X101286212Y-102309472D01*
X101256330Y-102391734D01*
X101211241Y-102462051D01*
X101150785Y-102520645D01*
X101074804Y-102567737D01*
X101055184Y-102577345D01*
X101026645Y-102590149D01*
X101002102Y-102598059D01*
X100975717Y-102602250D01*
X100941651Y-102603901D01*
X100894065Y-102604190D01*
X100878810Y-102604170D01*
X100834835Y-102603491D01*
X100802840Y-102601069D01*
X100777063Y-102595865D01*
X100751742Y-102586837D01*
X100721115Y-102572945D01*
X100678023Y-102548775D01*
X100618160Y-102502173D01*
X100567593Y-102447066D01*
X100531333Y-102388328D01*
X100507898Y-102337994D01*
X100061239Y-102337994D01*
X99931483Y-102208319D01*
X100753352Y-102208319D01*
X100761530Y-102253670D01*
X100784801Y-102294977D01*
X100823295Y-102328366D01*
X100838061Y-102335702D01*
X100877382Y-102345585D01*
X100918194Y-102346004D01*
X100951642Y-102336404D01*
X100960829Y-102331049D01*
X101003298Y-102295796D01*
X101029500Y-102253496D01*
X101038404Y-102206536D01*
X101028980Y-102157303D01*
X101006315Y-102116353D01*
X100970489Y-102083016D01*
X100927135Y-102064695D01*
X100879708Y-102062769D01*
X100831663Y-102078615D01*
X100818084Y-102086741D01*
X100781759Y-102120980D01*
X100760139Y-102162797D01*
X100753352Y-102208319D01*
X99931483Y-102208319D01*
X99591619Y-101868668D01*
X99591619Y-100978051D01*
X100019913Y-100549676D01*
X100448207Y-100121302D01*
X101735632Y-100121302D01*
X102164007Y-100549595D01*
X102592381Y-100977889D01*
X102592381Y-102255649D01*
X101657140Y-103191006D01*
X101532501Y-103315661D01*
X100696852Y-103315661D01*
X100674710Y-103361641D01*
X100666923Y-103376146D01*
X100637814Y-103418452D01*
X100600390Y-103462427D01*
X100560329Y-103501754D01*
X100523309Y-103530113D01*
X100507111Y-103538994D01*
X100472237Y-103554819D01*
X100435353Y-103568671D01*
X100365818Y-103583360D01*
X100287998Y-103585245D01*
X100210740Y-103574202D01*
X100141211Y-103550671D01*
X100110889Y-103534976D01*
X100041573Y-103485485D01*
X99985696Y-103425067D01*
X99943746Y-103356165D01*
X99916210Y-103281222D01*
X99903575Y-103202681D01*
X99904354Y-103180143D01*
X100167572Y-103180143D01*
X100167658Y-103185971D01*
X100175984Y-103231035D01*
X100199413Y-103269024D01*
X100240073Y-103303561D01*
X100247937Y-103308520D01*
X100291331Y-103324002D01*
X100335524Y-103322978D01*
X100377036Y-103307307D01*
X100412387Y-103278848D01*
X100438099Y-103239461D01*
X100450691Y-103191006D01*
X100448165Y-103150856D01*
X100430082Y-103107301D01*
X100398568Y-103072032D01*
X100356793Y-103048406D01*
X100307930Y-103039785D01*
X100284885Y-103041524D01*
X100237845Y-103057492D01*
X100200709Y-103087822D01*
X100176332Y-103129657D01*
X100167572Y-103180143D01*
X99904354Y-103180143D01*
X99906328Y-103122985D01*
X99924956Y-103044578D01*
X99959945Y-102969902D01*
X100011784Y-102901401D01*
X100051482Y-102864311D01*
X100120690Y-102819132D01*
X100195758Y-102789913D01*
X100274155Y-102776276D01*
X100353350Y-102777841D01*
X100430814Y-102794229D01*
X100504015Y-102825061D01*
X100570422Y-102869958D01*
X100627506Y-102928541D01*
X100672736Y-103000430D01*
X100699158Y-103054305D01*
X101416201Y-103054305D01*
X101873613Y-102596969D01*
X102331025Y-102139632D01*
X102331025Y-101094022D01*
X101677523Y-100440732D01*
X101374340Y-100744030D01*
X101071157Y-101047327D01*
X101087491Y-101103515D01*
X101096498Y-101145288D01*
X101101804Y-101211718D01*
X101101840Y-101212175D01*
G37*
%TD*%
D10*
%TO.C,J104*%
X148285000Y-97800000D03*
D11*
X148285000Y-100340000D03*
X148285000Y-102880000D03*
X148285000Y-105420000D03*
%TD*%
D12*
%TO.C,J101*%
X105340000Y-98710000D03*
X105340000Y-104490000D03*
D13*
X105840000Y-97280000D03*
D14*
X101660000Y-97280000D03*
D13*
X105840000Y-105920000D03*
D14*
X101660000Y-105920000D03*
%TD*%
D15*
%TO.C,U101*%
X116205000Y-105200000D03*
X114935000Y-105200000D03*
X113665000Y-105200000D03*
X112395000Y-105200000D03*
X112395000Y-98000000D03*
X113665000Y-98000000D03*
X114935000Y-98000000D03*
X116205000Y-98000000D03*
%TD*%
D16*
%TO.C,R105*%
X105916000Y-102108000D03*
X106936000Y-102108000D03*
%TD*%
%TO.C,R104*%
X105916000Y-101092000D03*
X106936000Y-101092000D03*
%TD*%
D17*
%TO.C,C101*%
X110871000Y-104295000D03*
X110871000Y-105255000D03*
%TD*%
D10*
%TO.C,J102*%
X101600000Y-109220000D03*
D11*
X104140000Y-109220000D03*
X106680000Y-109220000D03*
X109220000Y-109220000D03*
X111760000Y-109220000D03*
X114300000Y-109220000D03*
X116840000Y-109220000D03*
X119380000Y-109220000D03*
X121920000Y-109220000D03*
X124460000Y-109220000D03*
X127000000Y-109220000D03*
X129540000Y-109220000D03*
X132080000Y-109220000D03*
X134620000Y-109220000D03*
X137160000Y-109220000D03*
X139700000Y-109220000D03*
X142240000Y-109220000D03*
X144780000Y-109220000D03*
X147320000Y-109220000D03*
X149860000Y-109220000D03*
%TD*%
D18*
%TO.C,JP101*%
X143002000Y-96998000D03*
D19*
X143002000Y-98298000D03*
D20*
X143002000Y-99598000D03*
%TD*%
D21*
%TO.C,R102*%
X104142000Y-103124000D03*
X103122000Y-103124000D03*
%TD*%
D18*
%TO.C,JP102*%
X143002000Y-103602000D03*
D19*
X143002000Y-104902000D03*
D20*
X143002000Y-106202000D03*
%TD*%
D10*
%TO.C,J103*%
X101600000Y-93980000D03*
D11*
X104140000Y-93980000D03*
X106680000Y-93980000D03*
X109220000Y-93980000D03*
X111760000Y-93980000D03*
X114300000Y-93980000D03*
X116840000Y-93980000D03*
X119380000Y-93980000D03*
X121920000Y-93980000D03*
X124460000Y-93980000D03*
X127000000Y-93980000D03*
X129540000Y-93980000D03*
X132080000Y-93980000D03*
X134620000Y-93980000D03*
X137160000Y-93980000D03*
X139700000Y-93980000D03*
X142240000Y-93980000D03*
X144780000Y-93980000D03*
X147320000Y-93980000D03*
X149860000Y-93980000D03*
%TD*%
D21*
%TO.C,R101*%
X104142000Y-100076000D03*
X103122000Y-100076000D03*
%TD*%
D22*
%TO.C,JP103*%
X140335000Y-102504000D03*
D23*
X140335000Y-101204000D03*
%TD*%
M02*
