%TF.GenerationSoftware,KiCad,Pcbnew,7.0.7*%
%TF.CreationDate,2023-11-28T23:11:37+01:00*%
%TF.ProjectId,STM32G474_Black-Pill_v3.0,53544d33-3247-4343-9734-5f426c61636b,A*%
%TF.SameCoordinates,Original*%
%TF.FileFunction,Copper,L2,Inr*%
%TF.FilePolarity,Positive*%
%FSLAX46Y46*%
G04 Gerber Fmt 4.6, Leading zero omitted, Abs format (unit mm)*
G04 Created by KiCad (PCBNEW 7.0.7) date 2023-11-28 23:11:37*
%MOMM*%
%LPD*%
G01*
G04 APERTURE LIST*
%TA.AperFunction,ComponentPad*%
%ADD10R,1.700000X1.700000*%
%TD*%
%TA.AperFunction,ComponentPad*%
%ADD11O,1.700000X1.700000*%
%TD*%
%TA.AperFunction,ComponentPad*%
%ADD12O,2.100000X1.000000*%
%TD*%
%TA.AperFunction,ComponentPad*%
%ADD13O,1.800000X1.000000*%
%TD*%
%TA.AperFunction,ViaPad*%
%ADD14C,0.500000*%
%TD*%
G04 APERTURE END LIST*
D10*
%TO.N,+3.3V*%
%TO.C,J104*%
X148285000Y-97800000D03*
D11*
%TO.N,/SWDIO*%
X148285000Y-100340000D03*
%TO.N,/SWCLK*%
X148285000Y-102880000D03*
%TO.N,GND*%
X148285000Y-105420000D03*
%TD*%
D12*
%TO.N,GND*%
%TO.C,J101*%
X105840000Y-97280000D03*
D13*
X101660000Y-97280000D03*
D12*
X105840000Y-105920000D03*
D13*
X101660000Y-105920000D03*
%TD*%
D10*
%TO.N,/PB12*%
%TO.C,J102*%
X101600000Y-109220000D03*
D11*
%TO.N,/PB13*%
X104140000Y-109220000D03*
%TO.N,/PB14*%
X106680000Y-109220000D03*
%TO.N,/PB15*%
X109220000Y-109220000D03*
%TO.N,/PA8*%
X111760000Y-109220000D03*
%TO.N,/PA9*%
X114300000Y-109220000D03*
%TO.N,/PA10*%
X116840000Y-109220000D03*
%TO.N,/PA11*%
X119380000Y-109220000D03*
%TO.N,/PA12*%
X121920000Y-109220000D03*
%TO.N,/PA15*%
X124460000Y-109220000D03*
%TO.N,/PB3*%
X127000000Y-109220000D03*
%TO.N,/PB4*%
X129540000Y-109220000D03*
%TO.N,/PB5*%
X132080000Y-109220000D03*
%TO.N,/PB6*%
X134620000Y-109220000D03*
%TO.N,/PB7*%
X137160000Y-109220000D03*
%TO.N,/PB11*%
X139700000Y-109220000D03*
%TO.N,/PB9*%
X142240000Y-109220000D03*
%TO.N,+5V*%
X144780000Y-109220000D03*
%TO.N,GND*%
X147320000Y-109220000D03*
%TO.N,+3.3V*%
X149860000Y-109220000D03*
%TD*%
D10*
%TO.N,+5V*%
%TO.C,J103*%
X101600000Y-93980000D03*
D11*
%TO.N,GND*%
X104140000Y-93980000D03*
%TO.N,+3.3V*%
X106680000Y-93980000D03*
%TO.N,/PB10*%
X109220000Y-93980000D03*
%TO.N,/PB2*%
X111760000Y-93980000D03*
%TO.N,/PB1*%
X114300000Y-93980000D03*
%TO.N,/PB0*%
X116840000Y-93980000D03*
%TO.N,/PA7*%
X119380000Y-93980000D03*
%TO.N,/PA6*%
X121920000Y-93980000D03*
%TO.N,/PA5*%
X124460000Y-93980000D03*
%TO.N,/PA4*%
X127000000Y-93980000D03*
%TO.N,/PA3*%
X129540000Y-93980000D03*
%TO.N,/PA2*%
X132080000Y-93980000D03*
%TO.N,/PA1*%
X134620000Y-93980000D03*
%TO.N,/PA0*%
X137160000Y-93980000D03*
%TO.N,NRST*%
X139700000Y-93980000D03*
%TO.N,/Pin17*%
X142240000Y-93980000D03*
%TO.N,/Pin18*%
X144780000Y-93980000D03*
%TO.N,/PC13*%
X147320000Y-93980000D03*
%TO.N,VB*%
X149860000Y-93980000D03*
%TD*%
D14*
%TO.N,+3.3V*%
X102108000Y-107696000D03*
X113919000Y-101346000D03*
X151765000Y-92075000D03*
X110998000Y-103632000D03*
X119660000Y-102760000D03*
X99695000Y-92075000D03*
X146050000Y-99568000D03*
X141478000Y-101406000D03*
X115316000Y-96774000D03*
X108524000Y-95316000D03*
X117153000Y-105342000D03*
X136144000Y-106426000D03*
X141478000Y-97790000D03*
X151765000Y-111125000D03*
%TO.N,GND*%
X114681000Y-101854000D03*
X133477000Y-97663000D03*
X141478000Y-95377000D03*
X110109000Y-102489000D03*
X134620000Y-104013000D03*
X127000000Y-104140000D03*
X134683500Y-101790500D03*
X99695000Y-92964000D03*
X141478000Y-100556000D03*
X107823000Y-104775000D03*
X110998000Y-97536000D03*
X125730000Y-102870000D03*
X123317000Y-107950000D03*
X124460000Y-101600000D03*
X118999000Y-101346000D03*
X127000000Y-100330000D03*
X124333000Y-107696000D03*
X125730000Y-100330000D03*
X141351000Y-106426000D03*
X127000000Y-99060000D03*
X151765000Y-92964000D03*
X145542000Y-102235000D03*
X134973000Y-106398000D03*
X118618000Y-97155000D03*
X137414000Y-96647000D03*
X128270000Y-102743000D03*
X127000000Y-102743000D03*
X127000000Y-101600000D03*
X131036000Y-97056000D03*
X133505000Y-98580000D03*
X125730000Y-101600000D03*
X132746069Y-101774964D03*
X110109000Y-103632000D03*
X128270000Y-101600000D03*
X128270000Y-100330000D03*
X121793000Y-99314000D03*
X151765000Y-110236000D03*
X110109000Y-97282000D03*
X129540000Y-101600000D03*
X116713000Y-96647000D03*
%TO.N,NRST*%
X130175000Y-96647000D03*
X114300000Y-100008000D03*
%TO.N,VBAT*%
X131826000Y-101473000D03*
X140716000Y-98933000D03*
%TO.N,+5V*%
X109474000Y-98879076D03*
%TO.N,/PC13*%
X132392378Y-100838000D03*
X139827000Y-100076000D03*
%TO.N,Net-(J101-CC1)*%
X104902000Y-100076000D03*
%TO.N,Net-(J101-D+-PadA6)*%
X104902000Y-102108000D03*
%TO.N,Net-(J101-D--PadA7)*%
X104902000Y-101092000D03*
%TO.N,Net-(J101-CC2)*%
X104902000Y-103124000D03*
%TO.N,/PB11*%
X118999000Y-103759000D03*
%TO.N,/PC6*%
X123190000Y-104349339D03*
%TO.N,/PC4*%
X124581884Y-97414116D03*
%TO.N,/SWDIO*%
X126526311Y-107026689D03*
%TO.N,/SWCLK*%
X127127000Y-106426000D03*
%TO.N,/PC10*%
X128905000Y-106172000D03*
X138938000Y-103886000D03*
X138938000Y-105537000D03*
%TO.N,/PC11*%
X128589503Y-106960744D03*
%TO.N,/PB8*%
X132588000Y-105664000D03*
X114300000Y-103192000D03*
%TO.N,/+3.3V_{MCU}*%
X132815386Y-103478386D03*
X120622000Y-102108000D03*
X125730000Y-107569000D03*
X138237918Y-102960000D03*
%TD*%
%TA.AperFunction,Conductor*%
%TO.N,GND*%
G36*
X151155748Y-91710185D02*
G01*
X151201503Y-91762989D01*
X151211447Y-91832147D01*
X151203270Y-91861952D01*
X151179957Y-91918234D01*
X151179955Y-91918239D01*
X151159318Y-92074998D01*
X151159318Y-92075001D01*
X151179955Y-92231760D01*
X151179956Y-92231762D01*
X151240464Y-92377841D01*
X151336718Y-92503282D01*
X151462159Y-92599536D01*
X151608238Y-92660044D01*
X151686618Y-92670363D01*
X151764999Y-92680682D01*
X151765000Y-92680682D01*
X151765001Y-92680682D01*
X151804190Y-92675522D01*
X151921762Y-92660044D01*
X151978050Y-92636728D01*
X152047516Y-92629260D01*
X152109995Y-92660534D01*
X152145648Y-92720623D01*
X152149500Y-92751290D01*
X152149500Y-110448709D01*
X152129815Y-110515748D01*
X152077011Y-110561503D01*
X152007853Y-110571447D01*
X151978048Y-110563270D01*
X151921765Y-110539957D01*
X151921760Y-110539955D01*
X151765001Y-110519318D01*
X151764999Y-110519318D01*
X151608239Y-110539955D01*
X151608237Y-110539956D01*
X151462160Y-110600463D01*
X151336718Y-110696718D01*
X151240463Y-110822160D01*
X151179956Y-110968237D01*
X151179955Y-110968239D01*
X151159318Y-111124998D01*
X151159318Y-111125001D01*
X151179955Y-111281760D01*
X151179957Y-111281765D01*
X151203270Y-111338048D01*
X151210739Y-111407517D01*
X151179464Y-111469996D01*
X151119374Y-111505648D01*
X151088709Y-111509500D01*
X99434500Y-111509500D01*
X99367461Y-111489815D01*
X99321706Y-111437011D01*
X99310500Y-111385500D01*
X99310500Y-106170000D01*
X100286634Y-106170000D01*
X100286931Y-106171946D01*
X100286933Y-106171952D01*
X100357562Y-106362657D01*
X100357565Y-106362664D01*
X100465149Y-106535267D01*
X100605264Y-106682668D01*
X100605266Y-106682669D01*
X100772195Y-106798856D01*
X100959092Y-106879059D01*
X101158310Y-106920000D01*
X101410000Y-106920000D01*
X101410000Y-106344000D01*
X101429685Y-106276961D01*
X101482489Y-106231206D01*
X101534000Y-106220000D01*
X101786000Y-106220000D01*
X101853039Y-106239685D01*
X101898794Y-106292489D01*
X101910000Y-106344000D01*
X101910000Y-106920000D01*
X101925880Y-106935880D01*
X101959365Y-106997203D01*
X101954381Y-107066895D01*
X101912509Y-107122828D01*
X101885653Y-107138122D01*
X101805159Y-107171464D01*
X101679718Y-107267718D01*
X101583463Y-107393160D01*
X101522956Y-107539237D01*
X101522955Y-107539239D01*
X101502318Y-107695998D01*
X101502318Y-107696001D01*
X101522955Y-107852760D01*
X101522957Y-107852765D01*
X101562424Y-107948048D01*
X101569893Y-108017517D01*
X101538617Y-108079996D01*
X101478528Y-108115648D01*
X101447863Y-108119500D01*
X100725323Y-108119500D01*
X100652264Y-108134032D01*
X100652260Y-108134033D01*
X100569399Y-108189399D01*
X100514033Y-108272260D01*
X100514032Y-108272264D01*
X100499500Y-108345321D01*
X100499500Y-110094678D01*
X100514032Y-110167735D01*
X100514033Y-110167739D01*
X100514034Y-110167740D01*
X100569399Y-110250601D01*
X100652259Y-110305965D01*
X100652260Y-110305966D01*
X100652264Y-110305967D01*
X100725321Y-110320499D01*
X100725324Y-110320500D01*
X100725326Y-110320500D01*
X102474676Y-110320500D01*
X102474677Y-110320499D01*
X102547740Y-110305966D01*
X102630601Y-110250601D01*
X102685966Y-110167740D01*
X102700500Y-110094674D01*
X102700500Y-109220000D01*
X103034785Y-109220000D01*
X103053602Y-109423082D01*
X103109417Y-109619247D01*
X103109422Y-109619260D01*
X103200327Y-109801821D01*
X103323237Y-109964581D01*
X103473958Y-110101980D01*
X103473960Y-110101982D01*
X103573141Y-110163392D01*
X103647363Y-110209348D01*
X103837544Y-110283024D01*
X104038024Y-110320500D01*
X104038026Y-110320500D01*
X104241974Y-110320500D01*
X104241976Y-110320500D01*
X104442456Y-110283024D01*
X104632637Y-110209348D01*
X104806041Y-110101981D01*
X104956764Y-109964579D01*
X105079673Y-109801821D01*
X105170582Y-109619250D01*
X105226397Y-109423083D01*
X105245215Y-109220000D01*
X105574785Y-109220000D01*
X105593602Y-109423082D01*
X105649417Y-109619247D01*
X105649422Y-109619260D01*
X105740327Y-109801821D01*
X105863237Y-109964581D01*
X106013958Y-110101980D01*
X106013960Y-110101982D01*
X106113141Y-110163392D01*
X106187363Y-110209348D01*
X106377544Y-110283024D01*
X106578024Y-110320500D01*
X106578026Y-110320500D01*
X106781974Y-110320500D01*
X106781976Y-110320500D01*
X106982456Y-110283024D01*
X107172637Y-110209348D01*
X107346041Y-110101981D01*
X107496764Y-109964579D01*
X107619673Y-109801821D01*
X107710582Y-109619250D01*
X107766397Y-109423083D01*
X107785215Y-109220000D01*
X108114785Y-109220000D01*
X108133602Y-109423082D01*
X108189417Y-109619247D01*
X108189422Y-109619260D01*
X108280327Y-109801821D01*
X108403237Y-109964581D01*
X108553958Y-110101980D01*
X108553960Y-110101982D01*
X108653141Y-110163392D01*
X108727363Y-110209348D01*
X108917544Y-110283024D01*
X109118024Y-110320500D01*
X109118026Y-110320500D01*
X109321974Y-110320500D01*
X109321976Y-110320500D01*
X109522456Y-110283024D01*
X109712637Y-110209348D01*
X109886041Y-110101981D01*
X110036764Y-109964579D01*
X110159673Y-109801821D01*
X110250582Y-109619250D01*
X110306397Y-109423083D01*
X110325215Y-109220000D01*
X110654785Y-109220000D01*
X110673602Y-109423082D01*
X110729417Y-109619247D01*
X110729422Y-109619260D01*
X110820327Y-109801821D01*
X110943237Y-109964581D01*
X111093958Y-110101980D01*
X111093960Y-110101982D01*
X111193141Y-110163392D01*
X111267363Y-110209348D01*
X111457544Y-110283024D01*
X111658024Y-110320500D01*
X111658026Y-110320500D01*
X111861974Y-110320500D01*
X111861976Y-110320500D01*
X112062456Y-110283024D01*
X112252637Y-110209348D01*
X112426041Y-110101981D01*
X112576764Y-109964579D01*
X112699673Y-109801821D01*
X112790582Y-109619250D01*
X112846397Y-109423083D01*
X112865215Y-109220000D01*
X113194785Y-109220000D01*
X113213602Y-109423082D01*
X113269417Y-109619247D01*
X113269422Y-109619260D01*
X113360327Y-109801821D01*
X113483237Y-109964581D01*
X113633958Y-110101980D01*
X113633960Y-110101982D01*
X113733141Y-110163392D01*
X113807363Y-110209348D01*
X113997544Y-110283024D01*
X114198024Y-110320500D01*
X114198026Y-110320500D01*
X114401974Y-110320500D01*
X114401976Y-110320500D01*
X114602456Y-110283024D01*
X114792637Y-110209348D01*
X114966041Y-110101981D01*
X115116764Y-109964579D01*
X115239673Y-109801821D01*
X115330582Y-109619250D01*
X115386397Y-109423083D01*
X115405215Y-109220000D01*
X115734785Y-109220000D01*
X115753602Y-109423082D01*
X115809417Y-109619247D01*
X115809422Y-109619260D01*
X115900327Y-109801821D01*
X116023237Y-109964581D01*
X116173958Y-110101980D01*
X116173960Y-110101982D01*
X116273141Y-110163392D01*
X116347363Y-110209348D01*
X116537544Y-110283024D01*
X116738024Y-110320500D01*
X116738026Y-110320500D01*
X116941974Y-110320500D01*
X116941976Y-110320500D01*
X117142456Y-110283024D01*
X117332637Y-110209348D01*
X117506041Y-110101981D01*
X117656764Y-109964579D01*
X117779673Y-109801821D01*
X117870582Y-109619250D01*
X117926397Y-109423083D01*
X117945215Y-109220000D01*
X118274785Y-109220000D01*
X118293602Y-109423082D01*
X118349417Y-109619247D01*
X118349422Y-109619260D01*
X118440327Y-109801821D01*
X118563237Y-109964581D01*
X118713958Y-110101980D01*
X118713960Y-110101982D01*
X118813141Y-110163392D01*
X118887363Y-110209348D01*
X119077544Y-110283024D01*
X119278024Y-110320500D01*
X119278026Y-110320500D01*
X119481974Y-110320500D01*
X119481976Y-110320500D01*
X119682456Y-110283024D01*
X119872637Y-110209348D01*
X120046041Y-110101981D01*
X120196764Y-109964579D01*
X120319673Y-109801821D01*
X120410582Y-109619250D01*
X120466397Y-109423083D01*
X120485215Y-109220000D01*
X120814785Y-109220000D01*
X120833602Y-109423082D01*
X120889417Y-109619247D01*
X120889422Y-109619260D01*
X120980327Y-109801821D01*
X121103237Y-109964581D01*
X121253958Y-110101980D01*
X121253960Y-110101982D01*
X121353141Y-110163392D01*
X121427363Y-110209348D01*
X121617544Y-110283024D01*
X121818024Y-110320500D01*
X121818026Y-110320500D01*
X122021974Y-110320500D01*
X122021976Y-110320500D01*
X122222456Y-110283024D01*
X122412637Y-110209348D01*
X122586041Y-110101981D01*
X122736764Y-109964579D01*
X122859673Y-109801821D01*
X122950582Y-109619250D01*
X123006397Y-109423083D01*
X123025215Y-109220000D01*
X123354785Y-109220000D01*
X123373602Y-109423082D01*
X123429417Y-109619247D01*
X123429422Y-109619260D01*
X123520327Y-109801821D01*
X123643237Y-109964581D01*
X123793958Y-110101980D01*
X123793960Y-110101982D01*
X123893141Y-110163392D01*
X123967363Y-110209348D01*
X124157544Y-110283024D01*
X124358024Y-110320500D01*
X124358026Y-110320500D01*
X124561974Y-110320500D01*
X124561976Y-110320500D01*
X124762456Y-110283024D01*
X124952637Y-110209348D01*
X125126041Y-110101981D01*
X125276764Y-109964579D01*
X125399673Y-109801821D01*
X125490582Y-109619250D01*
X125546397Y-109423083D01*
X125565215Y-109220000D01*
X125894785Y-109220000D01*
X125913602Y-109423082D01*
X125969417Y-109619247D01*
X125969422Y-109619260D01*
X126060327Y-109801821D01*
X126183237Y-109964581D01*
X126333958Y-110101980D01*
X126333960Y-110101982D01*
X126433141Y-110163392D01*
X126507363Y-110209348D01*
X126697544Y-110283024D01*
X126898024Y-110320500D01*
X126898026Y-110320500D01*
X127101974Y-110320500D01*
X127101976Y-110320500D01*
X127302456Y-110283024D01*
X127492637Y-110209348D01*
X127666041Y-110101981D01*
X127816764Y-109964579D01*
X127939673Y-109801821D01*
X128030582Y-109619250D01*
X128086397Y-109423083D01*
X128105215Y-109220000D01*
X128434785Y-109220000D01*
X128453602Y-109423082D01*
X128509417Y-109619247D01*
X128509422Y-109619260D01*
X128600327Y-109801821D01*
X128723237Y-109964581D01*
X128873958Y-110101980D01*
X128873960Y-110101982D01*
X128973141Y-110163392D01*
X129047363Y-110209348D01*
X129237544Y-110283024D01*
X129438024Y-110320500D01*
X129438026Y-110320500D01*
X129641974Y-110320500D01*
X129641976Y-110320500D01*
X129842456Y-110283024D01*
X130032637Y-110209348D01*
X130206041Y-110101981D01*
X130356764Y-109964579D01*
X130479673Y-109801821D01*
X130570582Y-109619250D01*
X130626397Y-109423083D01*
X130645215Y-109220000D01*
X130974785Y-109220000D01*
X130993602Y-109423082D01*
X131049417Y-109619247D01*
X131049422Y-109619260D01*
X131140327Y-109801821D01*
X131263237Y-109964581D01*
X131413958Y-110101980D01*
X131413960Y-110101982D01*
X131513141Y-110163392D01*
X131587363Y-110209348D01*
X131777544Y-110283024D01*
X131978024Y-110320500D01*
X131978026Y-110320500D01*
X132181974Y-110320500D01*
X132181976Y-110320500D01*
X132382456Y-110283024D01*
X132572637Y-110209348D01*
X132746041Y-110101981D01*
X132896764Y-109964579D01*
X133019673Y-109801821D01*
X133110582Y-109619250D01*
X133166397Y-109423083D01*
X133185215Y-109220000D01*
X133514785Y-109220000D01*
X133533602Y-109423082D01*
X133589417Y-109619247D01*
X133589422Y-109619260D01*
X133680327Y-109801821D01*
X133803237Y-109964581D01*
X133953958Y-110101980D01*
X133953960Y-110101982D01*
X134053141Y-110163392D01*
X134127363Y-110209348D01*
X134317544Y-110283024D01*
X134518024Y-110320500D01*
X134518026Y-110320500D01*
X134721974Y-110320500D01*
X134721976Y-110320500D01*
X134922456Y-110283024D01*
X135112637Y-110209348D01*
X135286041Y-110101981D01*
X135436764Y-109964579D01*
X135559673Y-109801821D01*
X135650582Y-109619250D01*
X135706397Y-109423083D01*
X135725215Y-109220000D01*
X136054785Y-109220000D01*
X136073602Y-109423082D01*
X136129417Y-109619247D01*
X136129422Y-109619260D01*
X136220327Y-109801821D01*
X136343237Y-109964581D01*
X136493958Y-110101980D01*
X136493960Y-110101982D01*
X136593141Y-110163392D01*
X136667363Y-110209348D01*
X136857544Y-110283024D01*
X137058024Y-110320500D01*
X137058026Y-110320500D01*
X137261974Y-110320500D01*
X137261976Y-110320500D01*
X137462456Y-110283024D01*
X137652637Y-110209348D01*
X137826041Y-110101981D01*
X137976764Y-109964579D01*
X138099673Y-109801821D01*
X138190582Y-109619250D01*
X138246397Y-109423083D01*
X138265215Y-109220000D01*
X138594785Y-109220000D01*
X138613602Y-109423082D01*
X138669417Y-109619247D01*
X138669422Y-109619260D01*
X138760327Y-109801821D01*
X138883237Y-109964581D01*
X139033958Y-110101980D01*
X139033960Y-110101982D01*
X139133141Y-110163392D01*
X139207363Y-110209348D01*
X139397544Y-110283024D01*
X139598024Y-110320500D01*
X139598026Y-110320500D01*
X139801974Y-110320500D01*
X139801976Y-110320500D01*
X140002456Y-110283024D01*
X140192637Y-110209348D01*
X140366041Y-110101981D01*
X140516764Y-109964579D01*
X140639673Y-109801821D01*
X140730582Y-109619250D01*
X140786397Y-109423083D01*
X140805215Y-109220000D01*
X141134785Y-109220000D01*
X141153602Y-109423082D01*
X141209417Y-109619247D01*
X141209422Y-109619260D01*
X141300327Y-109801821D01*
X141423237Y-109964581D01*
X141573958Y-110101980D01*
X141573960Y-110101982D01*
X141673141Y-110163392D01*
X141747363Y-110209348D01*
X141937544Y-110283024D01*
X142138024Y-110320500D01*
X142138026Y-110320500D01*
X142341974Y-110320500D01*
X142341976Y-110320500D01*
X142542456Y-110283024D01*
X142732637Y-110209348D01*
X142906041Y-110101981D01*
X143056764Y-109964579D01*
X143179673Y-109801821D01*
X143270582Y-109619250D01*
X143326397Y-109423083D01*
X143345215Y-109220000D01*
X143674785Y-109220000D01*
X143693602Y-109423082D01*
X143749417Y-109619247D01*
X143749422Y-109619260D01*
X143840327Y-109801821D01*
X143963237Y-109964581D01*
X144113958Y-110101980D01*
X144113960Y-110101982D01*
X144213141Y-110163392D01*
X144287363Y-110209348D01*
X144477544Y-110283024D01*
X144678024Y-110320500D01*
X144678026Y-110320500D01*
X144881974Y-110320500D01*
X144881976Y-110320500D01*
X145082456Y-110283024D01*
X145272637Y-110209348D01*
X145446041Y-110101981D01*
X145596764Y-109964579D01*
X145719673Y-109801821D01*
X145781598Y-109677456D01*
X145806817Y-109626812D01*
X145854319Y-109575575D01*
X145921982Y-109558153D01*
X145988323Y-109580078D01*
X146032278Y-109634389D01*
X146037592Y-109649989D01*
X146046567Y-109683485D01*
X146046570Y-109683492D01*
X146146399Y-109897578D01*
X146281894Y-110091082D01*
X146448917Y-110258105D01*
X146642421Y-110393600D01*
X146856507Y-110493429D01*
X146856516Y-110493433D01*
X147070000Y-110550634D01*
X147070000Y-109832301D01*
X147089685Y-109765262D01*
X147142489Y-109719507D01*
X147211647Y-109709563D01*
X147284237Y-109720000D01*
X147284238Y-109720000D01*
X147355762Y-109720000D01*
X147355763Y-109720000D01*
X147428353Y-109709563D01*
X147497512Y-109719507D01*
X147550315Y-109765262D01*
X147570000Y-109832301D01*
X147570000Y-110550633D01*
X147783483Y-110493433D01*
X147783492Y-110493429D01*
X147997578Y-110393600D01*
X148191082Y-110258105D01*
X148358105Y-110091082D01*
X148493600Y-109897578D01*
X148593429Y-109683492D01*
X148593431Y-109683489D01*
X148602406Y-109649992D01*
X148638770Y-109590331D01*
X148701616Y-109559800D01*
X148770992Y-109568094D01*
X148824871Y-109612578D01*
X148833182Y-109626811D01*
X148920327Y-109801821D01*
X149043237Y-109964581D01*
X149193958Y-110101980D01*
X149193960Y-110101982D01*
X149293141Y-110163392D01*
X149367363Y-110209348D01*
X149557544Y-110283024D01*
X149758024Y-110320500D01*
X149758026Y-110320500D01*
X149961974Y-110320500D01*
X149961976Y-110320500D01*
X150162456Y-110283024D01*
X150352637Y-110209348D01*
X150526041Y-110101981D01*
X150676764Y-109964579D01*
X150799673Y-109801821D01*
X150890582Y-109619250D01*
X150946397Y-109423083D01*
X150965215Y-109220000D01*
X150946397Y-109016917D01*
X150890582Y-108820750D01*
X150875274Y-108790008D01*
X150840415Y-108720000D01*
X150799673Y-108638179D01*
X150676764Y-108475421D01*
X150676762Y-108475418D01*
X150526041Y-108338019D01*
X150526039Y-108338017D01*
X150352642Y-108230655D01*
X150352635Y-108230651D01*
X150226769Y-108181891D01*
X150162456Y-108156976D01*
X149961976Y-108119500D01*
X149758024Y-108119500D01*
X149557544Y-108156976D01*
X149557541Y-108156976D01*
X149557541Y-108156977D01*
X149367364Y-108230651D01*
X149367357Y-108230655D01*
X149193960Y-108338017D01*
X149193958Y-108338019D01*
X149043237Y-108475418D01*
X148920327Y-108638178D01*
X148833182Y-108813188D01*
X148785679Y-108864425D01*
X148718016Y-108881846D01*
X148651676Y-108859920D01*
X148607721Y-108805609D01*
X148602407Y-108790008D01*
X148593434Y-108756518D01*
X148593429Y-108756507D01*
X148493600Y-108542422D01*
X148493599Y-108542420D01*
X148358113Y-108348926D01*
X148358108Y-108348920D01*
X148191082Y-108181894D01*
X147997578Y-108046399D01*
X147783492Y-107946570D01*
X147783486Y-107946567D01*
X147570000Y-107889364D01*
X147570000Y-108607698D01*
X147550315Y-108674737D01*
X147497511Y-108720492D01*
X147428355Y-108730436D01*
X147355766Y-108720000D01*
X147355763Y-108720000D01*
X147284237Y-108720000D01*
X147284233Y-108720000D01*
X147211645Y-108730436D01*
X147142487Y-108720492D01*
X147089684Y-108674736D01*
X147070000Y-108607698D01*
X147070000Y-107889364D01*
X147069999Y-107889364D01*
X146856513Y-107946567D01*
X146856507Y-107946570D01*
X146642422Y-108046399D01*
X146642420Y-108046400D01*
X146448926Y-108181886D01*
X146448920Y-108181891D01*
X146281891Y-108348920D01*
X146281886Y-108348926D01*
X146146400Y-108542420D01*
X146146399Y-108542422D01*
X146046570Y-108756507D01*
X146046568Y-108756511D01*
X146037592Y-108790011D01*
X146001226Y-108849671D01*
X145938379Y-108880199D01*
X145869003Y-108871904D01*
X145815126Y-108827418D01*
X145806817Y-108813188D01*
X145760415Y-108720000D01*
X145719673Y-108638179D01*
X145596764Y-108475421D01*
X145596762Y-108475418D01*
X145446041Y-108338019D01*
X145446039Y-108338017D01*
X145272642Y-108230655D01*
X145272635Y-108230651D01*
X145146769Y-108181891D01*
X145082456Y-108156976D01*
X144881976Y-108119500D01*
X144678024Y-108119500D01*
X144477544Y-108156976D01*
X144477541Y-108156976D01*
X144477541Y-108156977D01*
X144287364Y-108230651D01*
X144287357Y-108230655D01*
X144113960Y-108338017D01*
X144113958Y-108338019D01*
X143963237Y-108475418D01*
X143840327Y-108638178D01*
X143749422Y-108820739D01*
X143749417Y-108820752D01*
X143693602Y-109016917D01*
X143674785Y-109219999D01*
X143674785Y-109220000D01*
X143345215Y-109220000D01*
X143326397Y-109016917D01*
X143270582Y-108820750D01*
X143255274Y-108790008D01*
X143220415Y-108720000D01*
X143179673Y-108638179D01*
X143056764Y-108475421D01*
X143056762Y-108475418D01*
X142906041Y-108338019D01*
X142906039Y-108338017D01*
X142732642Y-108230655D01*
X142732635Y-108230651D01*
X142606769Y-108181891D01*
X142542456Y-108156976D01*
X142341976Y-108119500D01*
X142138024Y-108119500D01*
X141937544Y-108156976D01*
X141937541Y-108156976D01*
X141937541Y-108156977D01*
X141747364Y-108230651D01*
X141747357Y-108230655D01*
X141573960Y-108338017D01*
X141573958Y-108338019D01*
X141423237Y-108475418D01*
X141300327Y-108638178D01*
X141209422Y-108820739D01*
X141209417Y-108820752D01*
X141153602Y-109016917D01*
X141134785Y-109219999D01*
X141134785Y-109220000D01*
X140805215Y-109220000D01*
X140786397Y-109016917D01*
X140730582Y-108820750D01*
X140715274Y-108790008D01*
X140680415Y-108720000D01*
X140639673Y-108638179D01*
X140516764Y-108475421D01*
X140516762Y-108475418D01*
X140366041Y-108338019D01*
X140366039Y-108338017D01*
X140192642Y-108230655D01*
X140192635Y-108230651D01*
X140066769Y-108181891D01*
X140002456Y-108156976D01*
X139801976Y-108119500D01*
X139598024Y-108119500D01*
X139397544Y-108156976D01*
X139397541Y-108156976D01*
X139397541Y-108156977D01*
X139207364Y-108230651D01*
X139207357Y-108230655D01*
X139033960Y-108338017D01*
X139033958Y-108338019D01*
X138883237Y-108475418D01*
X138760327Y-108638178D01*
X138669422Y-108820739D01*
X138669417Y-108820752D01*
X138613602Y-109016917D01*
X138594785Y-109219999D01*
X138594785Y-109220000D01*
X138265215Y-109220000D01*
X138246397Y-109016917D01*
X138190582Y-108820750D01*
X138175274Y-108790008D01*
X138140415Y-108720000D01*
X138099673Y-108638179D01*
X137976764Y-108475421D01*
X137976762Y-108475418D01*
X137826041Y-108338019D01*
X137826039Y-108338017D01*
X137652642Y-108230655D01*
X137652635Y-108230651D01*
X137526769Y-108181891D01*
X137462456Y-108156976D01*
X137261976Y-108119500D01*
X137058024Y-108119500D01*
X136857544Y-108156976D01*
X136857541Y-108156976D01*
X136857541Y-108156977D01*
X136667364Y-108230651D01*
X136667357Y-108230655D01*
X136493960Y-108338017D01*
X136493958Y-108338019D01*
X136343237Y-108475418D01*
X136220327Y-108638178D01*
X136129422Y-108820739D01*
X136129417Y-108820752D01*
X136073602Y-109016917D01*
X136054785Y-109219999D01*
X136054785Y-109220000D01*
X135725215Y-109220000D01*
X135706397Y-109016917D01*
X135650582Y-108820750D01*
X135635274Y-108790008D01*
X135600415Y-108720000D01*
X135559673Y-108638179D01*
X135436764Y-108475421D01*
X135436762Y-108475418D01*
X135286041Y-108338019D01*
X135286039Y-108338017D01*
X135112642Y-108230655D01*
X135112635Y-108230651D01*
X134986769Y-108181891D01*
X134922456Y-108156976D01*
X134721976Y-108119500D01*
X134518024Y-108119500D01*
X134317544Y-108156976D01*
X134317541Y-108156976D01*
X134317541Y-108156977D01*
X134127364Y-108230651D01*
X134127357Y-108230655D01*
X133953960Y-108338017D01*
X133953958Y-108338019D01*
X133803237Y-108475418D01*
X133680327Y-108638178D01*
X133589422Y-108820739D01*
X133589417Y-108820752D01*
X133533602Y-109016917D01*
X133514785Y-109219999D01*
X133514785Y-109220000D01*
X133185215Y-109220000D01*
X133166397Y-109016917D01*
X133110582Y-108820750D01*
X133095274Y-108790008D01*
X133060415Y-108720000D01*
X133019673Y-108638179D01*
X132896764Y-108475421D01*
X132896762Y-108475418D01*
X132746041Y-108338019D01*
X132746039Y-108338017D01*
X132572642Y-108230655D01*
X132572635Y-108230651D01*
X132446769Y-108181891D01*
X132382456Y-108156976D01*
X132181976Y-108119500D01*
X131978024Y-108119500D01*
X131777544Y-108156976D01*
X131777541Y-108156976D01*
X131777541Y-108156977D01*
X131587364Y-108230651D01*
X131587357Y-108230655D01*
X131413960Y-108338017D01*
X131413958Y-108338019D01*
X131263237Y-108475418D01*
X131140327Y-108638178D01*
X131049422Y-108820739D01*
X131049417Y-108820752D01*
X130993602Y-109016917D01*
X130974785Y-109219999D01*
X130974785Y-109220000D01*
X130645215Y-109220000D01*
X130626397Y-109016917D01*
X130570582Y-108820750D01*
X130555274Y-108790008D01*
X130520415Y-108720000D01*
X130479673Y-108638179D01*
X130356764Y-108475421D01*
X130356762Y-108475418D01*
X130206041Y-108338019D01*
X130206039Y-108338017D01*
X130032642Y-108230655D01*
X130032635Y-108230651D01*
X129906769Y-108181891D01*
X129842456Y-108156976D01*
X129641976Y-108119500D01*
X129438024Y-108119500D01*
X129237544Y-108156976D01*
X129237541Y-108156976D01*
X129237541Y-108156977D01*
X129047364Y-108230651D01*
X129047357Y-108230655D01*
X128873960Y-108338017D01*
X128873958Y-108338019D01*
X128723237Y-108475418D01*
X128600327Y-108638178D01*
X128509422Y-108820739D01*
X128509417Y-108820752D01*
X128453602Y-109016917D01*
X128434785Y-109219999D01*
X128434785Y-109220000D01*
X128105215Y-109220000D01*
X128086397Y-109016917D01*
X128030582Y-108820750D01*
X128015274Y-108790008D01*
X127980415Y-108720000D01*
X127939673Y-108638179D01*
X127816764Y-108475421D01*
X127816762Y-108475418D01*
X127666041Y-108338019D01*
X127666039Y-108338017D01*
X127492642Y-108230655D01*
X127492635Y-108230651D01*
X127366769Y-108181891D01*
X127302456Y-108156976D01*
X127101976Y-108119500D01*
X126898024Y-108119500D01*
X126697544Y-108156976D01*
X126697541Y-108156976D01*
X126697541Y-108156977D01*
X126507364Y-108230651D01*
X126507357Y-108230655D01*
X126333960Y-108338017D01*
X126333958Y-108338019D01*
X126183237Y-108475418D01*
X126060327Y-108638178D01*
X125969422Y-108820739D01*
X125969417Y-108820752D01*
X125913602Y-109016917D01*
X125894785Y-109219999D01*
X125894785Y-109220000D01*
X125565215Y-109220000D01*
X125546397Y-109016917D01*
X125490582Y-108820750D01*
X125475274Y-108790008D01*
X125440415Y-108720000D01*
X125399673Y-108638179D01*
X125276764Y-108475421D01*
X125276762Y-108475418D01*
X125126041Y-108338019D01*
X125126039Y-108338017D01*
X124952642Y-108230655D01*
X124952635Y-108230651D01*
X124826769Y-108181891D01*
X124762456Y-108156976D01*
X124561976Y-108119500D01*
X124358024Y-108119500D01*
X124157544Y-108156976D01*
X124157541Y-108156976D01*
X124157541Y-108156977D01*
X123967364Y-108230651D01*
X123967357Y-108230655D01*
X123793960Y-108338017D01*
X123793958Y-108338019D01*
X123643237Y-108475418D01*
X123520327Y-108638178D01*
X123429422Y-108820739D01*
X123429417Y-108820752D01*
X123373602Y-109016917D01*
X123354785Y-109219999D01*
X123354785Y-109220000D01*
X123025215Y-109220000D01*
X123006397Y-109016917D01*
X122950582Y-108820750D01*
X122935274Y-108790008D01*
X122900415Y-108720000D01*
X122859673Y-108638179D01*
X122736764Y-108475421D01*
X122736762Y-108475418D01*
X122586041Y-108338019D01*
X122586039Y-108338017D01*
X122412642Y-108230655D01*
X122412635Y-108230651D01*
X122286769Y-108181891D01*
X122222456Y-108156976D01*
X122021976Y-108119500D01*
X121818024Y-108119500D01*
X121617544Y-108156976D01*
X121617541Y-108156976D01*
X121617541Y-108156977D01*
X121427364Y-108230651D01*
X121427357Y-108230655D01*
X121253960Y-108338017D01*
X121253958Y-108338019D01*
X121103237Y-108475418D01*
X120980327Y-108638178D01*
X120889422Y-108820739D01*
X120889417Y-108820752D01*
X120833602Y-109016917D01*
X120814785Y-109219999D01*
X120814785Y-109220000D01*
X120485215Y-109220000D01*
X120466397Y-109016917D01*
X120410582Y-108820750D01*
X120395274Y-108790008D01*
X120360415Y-108720000D01*
X120319673Y-108638179D01*
X120196764Y-108475421D01*
X120196762Y-108475418D01*
X120046041Y-108338019D01*
X120046039Y-108338017D01*
X119872642Y-108230655D01*
X119872635Y-108230651D01*
X119746769Y-108181891D01*
X119682456Y-108156976D01*
X119481976Y-108119500D01*
X119278024Y-108119500D01*
X119077544Y-108156976D01*
X119077541Y-108156976D01*
X119077541Y-108156977D01*
X118887364Y-108230651D01*
X118887357Y-108230655D01*
X118713960Y-108338017D01*
X118713958Y-108338019D01*
X118563237Y-108475418D01*
X118440327Y-108638178D01*
X118349422Y-108820739D01*
X118349417Y-108820752D01*
X118293602Y-109016917D01*
X118274785Y-109219999D01*
X118274785Y-109220000D01*
X117945215Y-109220000D01*
X117926397Y-109016917D01*
X117870582Y-108820750D01*
X117855274Y-108790008D01*
X117820415Y-108720000D01*
X117779673Y-108638179D01*
X117656764Y-108475421D01*
X117656762Y-108475418D01*
X117506041Y-108338019D01*
X117506039Y-108338017D01*
X117332642Y-108230655D01*
X117332635Y-108230651D01*
X117206769Y-108181891D01*
X117142456Y-108156976D01*
X116941976Y-108119500D01*
X116738024Y-108119500D01*
X116537544Y-108156976D01*
X116537541Y-108156976D01*
X116537541Y-108156977D01*
X116347364Y-108230651D01*
X116347357Y-108230655D01*
X116173960Y-108338017D01*
X116173958Y-108338019D01*
X116023237Y-108475418D01*
X115900327Y-108638178D01*
X115809422Y-108820739D01*
X115809417Y-108820752D01*
X115753602Y-109016917D01*
X115734785Y-109219999D01*
X115734785Y-109220000D01*
X115405215Y-109220000D01*
X115386397Y-109016917D01*
X115330582Y-108820750D01*
X115315274Y-108790008D01*
X115280415Y-108720000D01*
X115239673Y-108638179D01*
X115116764Y-108475421D01*
X115116762Y-108475418D01*
X114966041Y-108338019D01*
X114966039Y-108338017D01*
X114792642Y-108230655D01*
X114792635Y-108230651D01*
X114666769Y-108181891D01*
X114602456Y-108156976D01*
X114401976Y-108119500D01*
X114198024Y-108119500D01*
X113997544Y-108156976D01*
X113997541Y-108156976D01*
X113997541Y-108156977D01*
X113807364Y-108230651D01*
X113807357Y-108230655D01*
X113633960Y-108338017D01*
X113633958Y-108338019D01*
X113483237Y-108475418D01*
X113360327Y-108638178D01*
X113269422Y-108820739D01*
X113269417Y-108820752D01*
X113213602Y-109016917D01*
X113194785Y-109219999D01*
X113194785Y-109220000D01*
X112865215Y-109220000D01*
X112846397Y-109016917D01*
X112790582Y-108820750D01*
X112775274Y-108790008D01*
X112740415Y-108720000D01*
X112699673Y-108638179D01*
X112576764Y-108475421D01*
X112576762Y-108475418D01*
X112426041Y-108338019D01*
X112426039Y-108338017D01*
X112252642Y-108230655D01*
X112252635Y-108230651D01*
X112126769Y-108181891D01*
X112062456Y-108156976D01*
X111861976Y-108119500D01*
X111658024Y-108119500D01*
X111457544Y-108156976D01*
X111457541Y-108156976D01*
X111457541Y-108156977D01*
X111267364Y-108230651D01*
X111267357Y-108230655D01*
X111093960Y-108338017D01*
X111093958Y-108338019D01*
X110943237Y-108475418D01*
X110820327Y-108638178D01*
X110729422Y-108820739D01*
X110729417Y-108820752D01*
X110673602Y-109016917D01*
X110654785Y-109219999D01*
X110654785Y-109220000D01*
X110325215Y-109220000D01*
X110306397Y-109016917D01*
X110250582Y-108820750D01*
X110235274Y-108790008D01*
X110200415Y-108720000D01*
X110159673Y-108638179D01*
X110036764Y-108475421D01*
X110036762Y-108475418D01*
X109886041Y-108338019D01*
X109886039Y-108338017D01*
X109712642Y-108230655D01*
X109712635Y-108230651D01*
X109586769Y-108181891D01*
X109522456Y-108156976D01*
X109321976Y-108119500D01*
X109118024Y-108119500D01*
X108917544Y-108156976D01*
X108917541Y-108156976D01*
X108917541Y-108156977D01*
X108727364Y-108230651D01*
X108727357Y-108230655D01*
X108553960Y-108338017D01*
X108553958Y-108338019D01*
X108403237Y-108475418D01*
X108280327Y-108638178D01*
X108189422Y-108820739D01*
X108189417Y-108820752D01*
X108133602Y-109016917D01*
X108114785Y-109219999D01*
X108114785Y-109220000D01*
X107785215Y-109220000D01*
X107766397Y-109016917D01*
X107710582Y-108820750D01*
X107695274Y-108790008D01*
X107660415Y-108720000D01*
X107619673Y-108638179D01*
X107496764Y-108475421D01*
X107496762Y-108475418D01*
X107346041Y-108338019D01*
X107346039Y-108338017D01*
X107172642Y-108230655D01*
X107172635Y-108230651D01*
X107046769Y-108181891D01*
X106982456Y-108156976D01*
X106781976Y-108119500D01*
X106578024Y-108119500D01*
X106377544Y-108156976D01*
X106377541Y-108156976D01*
X106377541Y-108156977D01*
X106187364Y-108230651D01*
X106187357Y-108230655D01*
X106013960Y-108338017D01*
X106013958Y-108338019D01*
X105863237Y-108475418D01*
X105740327Y-108638178D01*
X105649422Y-108820739D01*
X105649417Y-108820752D01*
X105593602Y-109016917D01*
X105574785Y-109219999D01*
X105574785Y-109220000D01*
X105245215Y-109220000D01*
X105226397Y-109016917D01*
X105170582Y-108820750D01*
X105155274Y-108790008D01*
X105120415Y-108720000D01*
X105079673Y-108638179D01*
X104956764Y-108475421D01*
X104956762Y-108475418D01*
X104806041Y-108338019D01*
X104806039Y-108338017D01*
X104632642Y-108230655D01*
X104632635Y-108230651D01*
X104506769Y-108181891D01*
X104442456Y-108156976D01*
X104241976Y-108119500D01*
X104038024Y-108119500D01*
X103837544Y-108156976D01*
X103837541Y-108156976D01*
X103837541Y-108156977D01*
X103647364Y-108230651D01*
X103647357Y-108230655D01*
X103473960Y-108338017D01*
X103473958Y-108338019D01*
X103323237Y-108475418D01*
X103200327Y-108638178D01*
X103109422Y-108820739D01*
X103109417Y-108820752D01*
X103053602Y-109016917D01*
X103034785Y-109219999D01*
X103034785Y-109220000D01*
X102700500Y-109220000D01*
X102700500Y-108345326D01*
X102700500Y-108345323D01*
X102700499Y-108345321D01*
X102685967Y-108272264D01*
X102685966Y-108272260D01*
X102630601Y-108189399D01*
X102630599Y-108189397D01*
X102630598Y-108189396D01*
X102625855Y-108184653D01*
X102592370Y-108123330D01*
X102597354Y-108053638D01*
X102615158Y-108021488D01*
X102632536Y-107998841D01*
X102693044Y-107852762D01*
X102713682Y-107696000D01*
X102709690Y-107665680D01*
X102696962Y-107569001D01*
X125124318Y-107569001D01*
X125144955Y-107725760D01*
X125144956Y-107725762D01*
X125205464Y-107871841D01*
X125301718Y-107997282D01*
X125427159Y-108093536D01*
X125573238Y-108154044D01*
X125651618Y-108164362D01*
X125729999Y-108174682D01*
X125730000Y-108174682D01*
X125730001Y-108174682D01*
X125782253Y-108167802D01*
X125886762Y-108154044D01*
X126032841Y-108093536D01*
X126158282Y-107997282D01*
X126254536Y-107871841D01*
X126315044Y-107725762D01*
X126315044Y-107725754D01*
X126317147Y-107717912D01*
X126319429Y-107718523D01*
X126342796Y-107665680D01*
X126401114Y-107627199D01*
X126453666Y-107622807D01*
X126526311Y-107632371D01*
X126526312Y-107632371D01*
X126598957Y-107622807D01*
X126683073Y-107611733D01*
X126829152Y-107551225D01*
X126954593Y-107454971D01*
X127050847Y-107329530D01*
X127111355Y-107183451D01*
X127118993Y-107125433D01*
X127147257Y-107061539D01*
X127205581Y-107023067D01*
X127225738Y-107018682D01*
X127283762Y-107011044D01*
X127405194Y-106960745D01*
X127983821Y-106960745D01*
X128004458Y-107117504D01*
X128004459Y-107117506D01*
X128031773Y-107183449D01*
X128064967Y-107263585D01*
X128161221Y-107389026D01*
X128286662Y-107485280D01*
X128432741Y-107545788D01*
X128511122Y-107556106D01*
X128589502Y-107566426D01*
X128589503Y-107566426D01*
X128589504Y-107566426D01*
X128641757Y-107559546D01*
X128746265Y-107545788D01*
X128892344Y-107485280D01*
X129017785Y-107389026D01*
X129114039Y-107263585D01*
X129174547Y-107117506D01*
X129195185Y-106960744D01*
X129174547Y-106803982D01*
X129174545Y-106803979D01*
X129174098Y-106800577D01*
X129184863Y-106731541D01*
X129221548Y-106686017D01*
X129333282Y-106600282D01*
X129429536Y-106474841D01*
X129449766Y-106426001D01*
X135538318Y-106426001D01*
X135558955Y-106582760D01*
X135558956Y-106582762D01*
X135604797Y-106693433D01*
X135619464Y-106728841D01*
X135715718Y-106854282D01*
X135841159Y-106950536D01*
X135987238Y-107011044D01*
X136045247Y-107018681D01*
X136143999Y-107031682D01*
X136144000Y-107031682D01*
X136144001Y-107031682D01*
X136209438Y-107023067D01*
X136300762Y-107011044D01*
X136446841Y-106950536D01*
X136572282Y-106854282D01*
X136668536Y-106728841D01*
X136729044Y-106582762D01*
X136749682Y-106426000D01*
X136729044Y-106269238D01*
X136668536Y-106123159D01*
X136572282Y-105997718D01*
X136446841Y-105901464D01*
X136423599Y-105891837D01*
X136300762Y-105840956D01*
X136300760Y-105840955D01*
X136144001Y-105820318D01*
X136143999Y-105820318D01*
X135987239Y-105840955D01*
X135987237Y-105840956D01*
X135841160Y-105901463D01*
X135715718Y-105997718D01*
X135619463Y-106123160D01*
X135558956Y-106269237D01*
X135558955Y-106269239D01*
X135538318Y-106425998D01*
X135538318Y-106426001D01*
X129449766Y-106426001D01*
X129490044Y-106328762D01*
X129510682Y-106172000D01*
X129510271Y-106168881D01*
X129490044Y-106015239D01*
X129490044Y-106015238D01*
X129429536Y-105869159D01*
X129333282Y-105743718D01*
X129229392Y-105664001D01*
X131982318Y-105664001D01*
X132002955Y-105820760D01*
X132002956Y-105820762D01*
X132046979Y-105927044D01*
X132063464Y-105966841D01*
X132159718Y-106092282D01*
X132285159Y-106188536D01*
X132431238Y-106249044D01*
X132509619Y-106259363D01*
X132587999Y-106269682D01*
X132588000Y-106269682D01*
X132588001Y-106269682D01*
X132640253Y-106262802D01*
X132744762Y-106249044D01*
X132890841Y-106188536D01*
X133016282Y-106092282D01*
X133112536Y-105966841D01*
X133173044Y-105820762D01*
X133193058Y-105668738D01*
X133193682Y-105664001D01*
X133193682Y-105663998D01*
X133176962Y-105537001D01*
X138332318Y-105537001D01*
X138352955Y-105693760D01*
X138352956Y-105693762D01*
X138412072Y-105836482D01*
X138413464Y-105839841D01*
X138509718Y-105965282D01*
X138635159Y-106061536D01*
X138781238Y-106122044D01*
X138859618Y-106132363D01*
X138937999Y-106142682D01*
X138938000Y-106142682D01*
X138938001Y-106142682D01*
X138990253Y-106135802D01*
X139094762Y-106122044D01*
X139240841Y-106061536D01*
X139366282Y-105965282D01*
X139462536Y-105839841D01*
X139523044Y-105693762D01*
X139526172Y-105670000D01*
X146954364Y-105670000D01*
X147011567Y-105883486D01*
X147011570Y-105883492D01*
X147111399Y-106097578D01*
X147246894Y-106291082D01*
X147413917Y-106458105D01*
X147607421Y-106593600D01*
X147821507Y-106693429D01*
X147821516Y-106693433D01*
X148035000Y-106750634D01*
X148035000Y-106032301D01*
X148054685Y-105965262D01*
X148107489Y-105919507D01*
X148176647Y-105909563D01*
X148249237Y-105920000D01*
X148249238Y-105920000D01*
X148320762Y-105920000D01*
X148320763Y-105920000D01*
X148393353Y-105909563D01*
X148462512Y-105919507D01*
X148515315Y-105965262D01*
X148535000Y-106032301D01*
X148535000Y-106750633D01*
X148748483Y-106693433D01*
X148748492Y-106693429D01*
X148962578Y-106593600D01*
X149156082Y-106458105D01*
X149323105Y-106291082D01*
X149458600Y-106097578D01*
X149558429Y-105883492D01*
X149558432Y-105883486D01*
X149615636Y-105670000D01*
X148898347Y-105670000D01*
X148831308Y-105650315D01*
X148785553Y-105597511D01*
X148775609Y-105528353D01*
X148779369Y-105511067D01*
X148782982Y-105498762D01*
X148785000Y-105491889D01*
X148785000Y-105348111D01*
X148779368Y-105328933D01*
X148779370Y-105259064D01*
X148817145Y-105200286D01*
X148880701Y-105171262D01*
X148898347Y-105170000D01*
X149615636Y-105170000D01*
X149615635Y-105169999D01*
X149558432Y-104956513D01*
X149558429Y-104956507D01*
X149458600Y-104742422D01*
X149458599Y-104742420D01*
X149323113Y-104548926D01*
X149323108Y-104548920D01*
X149156082Y-104381894D01*
X148962578Y-104246399D01*
X148748492Y-104146570D01*
X148748477Y-104146564D01*
X148709414Y-104136097D01*
X148649754Y-104099732D01*
X148619226Y-104036885D01*
X148627521Y-103967509D01*
X148672007Y-103913632D01*
X148696710Y-103900698D01*
X148777637Y-103869348D01*
X148951041Y-103761981D01*
X149090173Y-103635146D01*
X149101762Y-103624581D01*
X149101764Y-103624579D01*
X149224673Y-103461821D01*
X149290730Y-103329160D01*
X149315579Y-103279257D01*
X149315579Y-103279254D01*
X149315582Y-103279250D01*
X149371397Y-103083083D01*
X149390215Y-102880000D01*
X149371397Y-102676917D01*
X149315582Y-102480750D01*
X149303835Y-102457159D01*
X149228159Y-102305180D01*
X149224673Y-102298179D01*
X149131620Y-102174957D01*
X149101762Y-102135418D01*
X148951041Y-101998019D01*
X148951039Y-101998017D01*
X148777642Y-101890655D01*
X148777635Y-101890651D01*
X148632128Y-101834282D01*
X148587456Y-101816976D01*
X148386976Y-101779500D01*
X148183024Y-101779500D01*
X147982544Y-101816976D01*
X147982541Y-101816976D01*
X147982541Y-101816977D01*
X147792364Y-101890651D01*
X147792357Y-101890655D01*
X147618960Y-101998017D01*
X147618958Y-101998019D01*
X147468237Y-102135418D01*
X147345327Y-102298178D01*
X147254422Y-102480739D01*
X147254417Y-102480752D01*
X147198602Y-102676917D01*
X147179785Y-102879999D01*
X147179785Y-102880000D01*
X147198602Y-103083082D01*
X147254417Y-103279247D01*
X147254421Y-103279257D01*
X147345327Y-103461821D01*
X147468237Y-103624581D01*
X147618958Y-103761980D01*
X147618960Y-103761982D01*
X147662212Y-103788762D01*
X147792363Y-103869348D01*
X147873283Y-103900696D01*
X147928685Y-103943269D01*
X147952276Y-104009035D01*
X147936565Y-104077116D01*
X147886542Y-104125895D01*
X147860586Y-104136097D01*
X147821519Y-104146565D01*
X147821507Y-104146570D01*
X147607422Y-104246399D01*
X147607420Y-104246400D01*
X147413926Y-104381886D01*
X147413920Y-104381891D01*
X147246891Y-104548920D01*
X147246886Y-104548926D01*
X147111400Y-104742420D01*
X147111399Y-104742422D01*
X147011570Y-104956507D01*
X147011567Y-104956513D01*
X146954364Y-105169999D01*
X146954364Y-105170000D01*
X147671653Y-105170000D01*
X147738692Y-105189685D01*
X147784447Y-105242489D01*
X147794391Y-105311647D01*
X147790631Y-105328933D01*
X147785000Y-105348111D01*
X147785000Y-105491889D01*
X147787018Y-105498762D01*
X147790631Y-105511067D01*
X147790630Y-105580936D01*
X147752855Y-105639714D01*
X147689299Y-105668738D01*
X147671653Y-105670000D01*
X146954364Y-105670000D01*
X139526172Y-105670000D01*
X139543682Y-105537000D01*
X139523044Y-105380238D01*
X139462536Y-105234159D01*
X139366282Y-105108718D01*
X139240841Y-105012464D01*
X139201827Y-104996304D01*
X139094762Y-104951956D01*
X139094760Y-104951955D01*
X138938001Y-104931318D01*
X138937999Y-104931318D01*
X138781239Y-104951955D01*
X138781237Y-104951956D01*
X138635160Y-105012463D01*
X138509718Y-105108718D01*
X138413463Y-105234160D01*
X138352956Y-105380237D01*
X138352955Y-105380239D01*
X138332318Y-105536998D01*
X138332318Y-105537001D01*
X133176962Y-105537001D01*
X133173044Y-105507239D01*
X133173044Y-105507238D01*
X133112536Y-105361159D01*
X133016282Y-105235718D01*
X132890841Y-105139464D01*
X132744762Y-105078956D01*
X132744760Y-105078955D01*
X132588001Y-105058318D01*
X132587999Y-105058318D01*
X132431239Y-105078955D01*
X132431237Y-105078956D01*
X132285160Y-105139463D01*
X132159718Y-105235718D01*
X132063463Y-105361160D01*
X132002956Y-105507237D01*
X132002955Y-105507239D01*
X131982318Y-105663998D01*
X131982318Y-105664001D01*
X129229392Y-105664001D01*
X129207841Y-105647464D01*
X129094013Y-105600315D01*
X129061762Y-105586956D01*
X129061760Y-105586955D01*
X128905001Y-105566318D01*
X128904999Y-105566318D01*
X128748239Y-105586955D01*
X128748237Y-105586956D01*
X128602160Y-105647463D01*
X128476718Y-105743718D01*
X128380463Y-105869160D01*
X128319956Y-106015237D01*
X128319955Y-106015239D01*
X128299318Y-106171998D01*
X128299318Y-106172001D01*
X128320404Y-106332167D01*
X128309638Y-106401202D01*
X128272952Y-106446727D01*
X128161223Y-106532460D01*
X128064966Y-106657904D01*
X128004459Y-106803981D01*
X128004458Y-106803983D01*
X127983821Y-106960742D01*
X127983821Y-106960745D01*
X127405194Y-106960745D01*
X127429841Y-106950536D01*
X127555282Y-106854282D01*
X127651536Y-106728841D01*
X127712044Y-106582762D01*
X127732682Y-106426000D01*
X127712044Y-106269238D01*
X127651536Y-106123159D01*
X127555282Y-105997718D01*
X127429841Y-105901464D01*
X127406599Y-105891837D01*
X127283762Y-105840956D01*
X127283760Y-105840955D01*
X127127001Y-105820318D01*
X127126999Y-105820318D01*
X126970239Y-105840955D01*
X126970237Y-105840956D01*
X126824160Y-105901463D01*
X126698718Y-105997718D01*
X126602463Y-106123160D01*
X126541956Y-106269238D01*
X126534317Y-106327255D01*
X126506049Y-106391151D01*
X126447724Y-106429621D01*
X126427566Y-106434006D01*
X126369549Y-106441645D01*
X126223471Y-106502152D01*
X126098029Y-106598407D01*
X126001774Y-106723849D01*
X125941265Y-106869930D01*
X125939163Y-106877778D01*
X125936884Y-106877167D01*
X125913495Y-106930030D01*
X125855168Y-106968497D01*
X125802643Y-106972881D01*
X125730001Y-106963318D01*
X125729999Y-106963318D01*
X125573239Y-106983955D01*
X125573237Y-106983956D01*
X125427160Y-107044463D01*
X125301718Y-107140718D01*
X125205463Y-107266160D01*
X125144956Y-107412237D01*
X125144955Y-107412239D01*
X125124318Y-107568998D01*
X125124318Y-107569001D01*
X102696962Y-107569001D01*
X102693044Y-107539239D01*
X102693044Y-107539238D01*
X102632536Y-107393159D01*
X102536282Y-107267718D01*
X102410841Y-107171464D01*
X102410840Y-107171463D01*
X102410838Y-107171462D01*
X102295666Y-107123757D01*
X102241262Y-107079916D01*
X102219197Y-107013622D01*
X102236476Y-106945923D01*
X102287613Y-106898312D01*
X102305997Y-106890883D01*
X102456382Y-106843699D01*
X102456391Y-106843695D01*
X102634215Y-106744994D01*
X102634216Y-106744994D01*
X102788530Y-106612521D01*
X102788531Y-106612520D01*
X102913018Y-106451695D01*
X103002588Y-106269093D01*
X103028246Y-106170000D01*
X102464979Y-106170000D01*
X102397940Y-106150315D01*
X102352185Y-106097511D01*
X102342241Y-106028353D01*
X102345713Y-106012066D01*
X102363894Y-105948162D01*
X102363895Y-105948160D01*
X102361938Y-105927043D01*
X102353546Y-105836479D01*
X102353544Y-105836475D01*
X102351115Y-105827937D01*
X102351701Y-105758070D01*
X102389966Y-105699610D01*
X102453763Y-105671119D01*
X102470381Y-105670000D01*
X103033366Y-105670000D01*
X103033068Y-105668053D01*
X103033066Y-105668047D01*
X102962437Y-105477342D01*
X102962434Y-105477335D01*
X102854850Y-105304732D01*
X102714735Y-105157331D01*
X102714733Y-105157330D01*
X102547804Y-105041143D01*
X102360907Y-104960940D01*
X102161690Y-104920000D01*
X101910000Y-104920000D01*
X101910000Y-105496000D01*
X101890315Y-105563039D01*
X101837511Y-105608794D01*
X101786000Y-105620000D01*
X101534000Y-105620000D01*
X101466961Y-105600315D01*
X101421206Y-105547511D01*
X101410000Y-105496000D01*
X101410000Y-104920000D01*
X101209287Y-104920000D01*
X101057661Y-104935418D01*
X100863618Y-104996299D01*
X100863608Y-104996304D01*
X100685784Y-105095005D01*
X100685783Y-105095005D01*
X100531469Y-105227478D01*
X100531468Y-105227479D01*
X100406981Y-105388304D01*
X100317411Y-105570906D01*
X100291754Y-105670000D01*
X100855021Y-105670000D01*
X100922060Y-105689685D01*
X100967815Y-105742489D01*
X100977759Y-105811647D01*
X100974287Y-105827934D01*
X100956105Y-105891837D01*
X100956104Y-105891837D01*
X100966453Y-106003517D01*
X100968885Y-106012063D01*
X100968299Y-106081930D01*
X100930034Y-106140390D01*
X100866237Y-106168881D01*
X100849619Y-106170000D01*
X100286634Y-106170000D01*
X99310500Y-106170000D01*
X99310500Y-103124001D01*
X104296318Y-103124001D01*
X104316955Y-103280760D01*
X104316956Y-103280762D01*
X104350383Y-103361463D01*
X104377464Y-103426841D01*
X104473718Y-103552282D01*
X104599159Y-103648536D01*
X104720906Y-103698965D01*
X104775309Y-103742806D01*
X104797374Y-103809100D01*
X104780095Y-103876799D01*
X104758728Y-103903549D01*
X104707124Y-103952431D01*
X104707123Y-103952431D01*
X104606358Y-104101051D01*
X104606357Y-104101053D01*
X104539900Y-104267847D01*
X104539899Y-104267852D01*
X104539899Y-104267853D01*
X104516508Y-104410536D01*
X104510850Y-104445048D01*
X104520571Y-104624338D01*
X104520571Y-104624343D01*
X104568605Y-104797348D01*
X104568608Y-104797354D01*
X104652714Y-104955993D01*
X104667738Y-104973680D01*
X104696137Y-105037518D01*
X104685513Y-105106575D01*
X104654001Y-105148043D01*
X104561470Y-105227478D01*
X104561468Y-105227479D01*
X104436981Y-105388304D01*
X104347411Y-105570906D01*
X104321754Y-105670000D01*
X104885021Y-105670000D01*
X104952060Y-105689685D01*
X104997815Y-105742489D01*
X105007759Y-105811647D01*
X105004287Y-105827934D01*
X104986105Y-105891837D01*
X104986104Y-105891837D01*
X104996453Y-106003517D01*
X104998885Y-106012063D01*
X104998299Y-106081930D01*
X104960034Y-106140390D01*
X104896237Y-106168881D01*
X104879619Y-106170000D01*
X104316634Y-106170000D01*
X104316931Y-106171946D01*
X104316933Y-106171952D01*
X104387562Y-106362657D01*
X104387565Y-106362664D01*
X104495149Y-106535267D01*
X104635264Y-106682668D01*
X104635266Y-106682669D01*
X104802195Y-106798856D01*
X104989092Y-106879059D01*
X105188310Y-106920000D01*
X105590000Y-106920000D01*
X105590000Y-106344000D01*
X105609685Y-106276961D01*
X105662489Y-106231206D01*
X105714000Y-106220000D01*
X105966000Y-106220000D01*
X106033039Y-106239685D01*
X106078794Y-106292489D01*
X106090000Y-106344000D01*
X106090000Y-106920000D01*
X106440713Y-106920000D01*
X106592338Y-106904581D01*
X106786381Y-106843700D01*
X106786391Y-106843695D01*
X106964215Y-106744994D01*
X106964216Y-106744994D01*
X107118530Y-106612521D01*
X107118531Y-106612520D01*
X107243018Y-106451695D01*
X107332588Y-106269093D01*
X107358246Y-106170000D01*
X106794979Y-106170000D01*
X106727940Y-106150315D01*
X106682185Y-106097511D01*
X106672241Y-106028353D01*
X106675713Y-106012066D01*
X106693894Y-105948162D01*
X106693895Y-105948160D01*
X106691938Y-105927043D01*
X106683546Y-105836479D01*
X106683544Y-105836475D01*
X106681115Y-105827937D01*
X106681701Y-105758070D01*
X106719966Y-105699610D01*
X106783763Y-105671119D01*
X106800381Y-105670000D01*
X107363366Y-105670000D01*
X107363068Y-105668053D01*
X107363066Y-105668047D01*
X107292437Y-105477342D01*
X107292434Y-105477335D01*
X107208080Y-105342001D01*
X116547318Y-105342001D01*
X116567955Y-105498760D01*
X116567956Y-105498762D01*
X116618174Y-105620000D01*
X116628464Y-105644841D01*
X116724718Y-105770282D01*
X116850159Y-105866536D01*
X116996238Y-105927044D01*
X117074618Y-105937363D01*
X117152999Y-105947682D01*
X117153000Y-105947682D01*
X117153001Y-105947682D01*
X117205253Y-105940802D01*
X117309762Y-105927044D01*
X117455841Y-105866536D01*
X117581282Y-105770282D01*
X117677536Y-105644841D01*
X117738044Y-105498762D01*
X117756160Y-105361159D01*
X117758682Y-105342001D01*
X117758682Y-105341998D01*
X117738044Y-105185239D01*
X117738044Y-105185238D01*
X117677536Y-105039159D01*
X117581282Y-104913718D01*
X117455841Y-104817464D01*
X117407291Y-104797354D01*
X117309762Y-104756956D01*
X117309760Y-104756955D01*
X117153001Y-104736318D01*
X117152999Y-104736318D01*
X116996239Y-104756955D01*
X116996237Y-104756956D01*
X116850160Y-104817463D01*
X116724718Y-104913718D01*
X116628463Y-105039160D01*
X116567956Y-105185237D01*
X116567955Y-105185239D01*
X116547318Y-105341998D01*
X116547318Y-105342001D01*
X107208080Y-105342001D01*
X107184850Y-105304732D01*
X107044735Y-105157331D01*
X107044733Y-105157330D01*
X106877804Y-105041143D01*
X106690907Y-104960940D01*
X106491690Y-104920000D01*
X106240172Y-104920000D01*
X106173133Y-104900315D01*
X106127378Y-104847511D01*
X106117434Y-104778353D01*
X106124979Y-104750104D01*
X106140099Y-104712153D01*
X106140099Y-104712151D01*
X106140101Y-104712147D01*
X106169150Y-104534955D01*
X106159429Y-104355661D01*
X106157674Y-104349339D01*
X106111394Y-104182651D01*
X106111391Y-104182645D01*
X106027285Y-104024006D01*
X105911044Y-103887157D01*
X105887611Y-103869344D01*
X105768099Y-103778493D01*
X105605138Y-103703099D01*
X105605134Y-103703097D01*
X105461399Y-103671460D01*
X105400158Y-103637824D01*
X105396997Y-103632001D01*
X110392318Y-103632001D01*
X110412955Y-103788760D01*
X110412956Y-103788762D01*
X110453712Y-103887157D01*
X110473464Y-103934841D01*
X110569718Y-104060282D01*
X110695159Y-104156536D01*
X110841238Y-104217044D01*
X110919619Y-104227362D01*
X110997999Y-104237682D01*
X110998000Y-104237682D01*
X110998001Y-104237682D01*
X111050254Y-104230802D01*
X111154762Y-104217044D01*
X111300841Y-104156536D01*
X111426282Y-104060282D01*
X111522536Y-103934841D01*
X111583044Y-103788762D01*
X111603682Y-103632000D01*
X111602705Y-103624581D01*
X111585625Y-103494841D01*
X111583044Y-103475238D01*
X111522536Y-103329159D01*
X111426282Y-103203718D01*
X111411012Y-103192001D01*
X113694318Y-103192001D01*
X113714955Y-103348760D01*
X113714956Y-103348762D01*
X113771195Y-103484536D01*
X113775464Y-103494841D01*
X113871718Y-103620282D01*
X113997159Y-103716536D01*
X114143238Y-103777044D01*
X114221619Y-103787363D01*
X114299999Y-103797682D01*
X114300000Y-103797682D01*
X114300001Y-103797682D01*
X114367754Y-103788762D01*
X114456762Y-103777044D01*
X114500322Y-103759001D01*
X118393318Y-103759001D01*
X118413955Y-103915760D01*
X118413956Y-103915762D01*
X118474464Y-104061841D01*
X118570718Y-104187282D01*
X118696159Y-104283536D01*
X118842238Y-104344044D01*
X118920618Y-104354363D01*
X118998999Y-104364682D01*
X118999000Y-104364682D01*
X118999001Y-104364682D01*
X119051253Y-104357802D01*
X119115532Y-104349340D01*
X122584318Y-104349340D01*
X122604955Y-104506099D01*
X122604956Y-104506101D01*
X122653933Y-104624343D01*
X122665464Y-104652180D01*
X122761718Y-104777621D01*
X122887159Y-104873875D01*
X123033238Y-104934383D01*
X123111619Y-104944701D01*
X123189999Y-104955021D01*
X123190000Y-104955021D01*
X123190001Y-104955021D01*
X123242254Y-104948141D01*
X123346762Y-104934383D01*
X123492841Y-104873875D01*
X123618282Y-104777621D01*
X123714536Y-104652180D01*
X123775044Y-104506101D01*
X123791396Y-104381894D01*
X123795682Y-104349340D01*
X123795682Y-104349337D01*
X123775044Y-104192578D01*
X123775044Y-104192577D01*
X123714536Y-104046498D01*
X123618282Y-103921057D01*
X123492841Y-103824803D01*
X123405830Y-103788762D01*
X123346762Y-103764295D01*
X123346760Y-103764294D01*
X123190001Y-103743657D01*
X123189999Y-103743657D01*
X123033239Y-103764294D01*
X123033237Y-103764295D01*
X122887160Y-103824802D01*
X122761718Y-103921057D01*
X122665463Y-104046499D01*
X122604956Y-104192576D01*
X122604955Y-104192578D01*
X122584318Y-104349337D01*
X122584318Y-104349340D01*
X119115532Y-104349340D01*
X119155762Y-104344044D01*
X119301841Y-104283536D01*
X119427282Y-104187282D01*
X119523536Y-104061841D01*
X119584044Y-103915762D01*
X119602116Y-103778493D01*
X119604682Y-103759001D01*
X119604682Y-103758998D01*
X119586985Y-103624579D01*
X119584044Y-103602238D01*
X119556894Y-103536694D01*
X119550626Y-103478387D01*
X132209704Y-103478387D01*
X132230341Y-103635146D01*
X132230342Y-103635148D01*
X132289717Y-103778493D01*
X132290850Y-103781227D01*
X132387104Y-103906668D01*
X132512545Y-104002922D01*
X132658624Y-104063430D01*
X132737005Y-104073748D01*
X132815385Y-104084068D01*
X132815386Y-104084068D01*
X132815387Y-104084068D01*
X132868192Y-104077116D01*
X132972148Y-104063430D01*
X133118227Y-104002922D01*
X133243668Y-103906668D01*
X133339922Y-103781227D01*
X133400430Y-103635148D01*
X133421068Y-103478386D01*
X133420653Y-103475237D01*
X133404003Y-103348762D01*
X133400430Y-103321624D01*
X133339922Y-103175545D01*
X133243668Y-103050104D01*
X133126243Y-102960001D01*
X137632236Y-102960001D01*
X137652873Y-103116760D01*
X137652874Y-103116762D01*
X137713382Y-103262841D01*
X137809636Y-103388282D01*
X137935077Y-103484536D01*
X138081156Y-103545044D01*
X138158261Y-103555195D01*
X138245976Y-103566743D01*
X138245708Y-103568773D01*
X138302220Y-103585367D01*
X138347975Y-103638171D01*
X138357919Y-103707329D01*
X138354956Y-103721775D01*
X138352955Y-103729239D01*
X138332318Y-103885998D01*
X138332318Y-103886001D01*
X138352955Y-104042760D01*
X138352956Y-104042762D01*
X138410897Y-104182645D01*
X138413464Y-104188841D01*
X138509718Y-104314282D01*
X138635159Y-104410536D01*
X138781238Y-104471044D01*
X138859618Y-104481363D01*
X138937999Y-104491682D01*
X138938000Y-104491682D01*
X138938001Y-104491682D01*
X138990253Y-104484802D01*
X139094762Y-104471044D01*
X139240841Y-104410536D01*
X139366282Y-104314282D01*
X139462536Y-104188841D01*
X139523044Y-104042762D01*
X139543682Y-103886000D01*
X139523044Y-103729238D01*
X139462536Y-103583159D01*
X139366282Y-103457718D01*
X139240841Y-103361464D01*
X139201197Y-103345043D01*
X139094762Y-103300956D01*
X139094760Y-103300955D01*
X138929942Y-103279257D01*
X138930209Y-103277226D01*
X138873698Y-103260633D01*
X138827943Y-103207829D01*
X138817999Y-103138671D01*
X138820962Y-103124225D01*
X138822960Y-103116765D01*
X138822962Y-103116762D01*
X138843600Y-102960000D01*
X138842790Y-102953850D01*
X138822962Y-102803239D01*
X138822962Y-102803238D01*
X138762454Y-102657159D01*
X138666200Y-102531718D01*
X138540759Y-102435464D01*
X138394680Y-102374956D01*
X138394678Y-102374955D01*
X138237919Y-102354318D01*
X138237917Y-102354318D01*
X138081157Y-102374955D01*
X138081155Y-102374956D01*
X137935078Y-102435463D01*
X137809636Y-102531718D01*
X137713381Y-102657160D01*
X137652874Y-102803237D01*
X137652873Y-102803239D01*
X137632236Y-102959998D01*
X137632236Y-102960001D01*
X133126243Y-102960001D01*
X133118227Y-102953850D01*
X132972148Y-102893342D01*
X132972146Y-102893341D01*
X132815387Y-102872704D01*
X132815385Y-102872704D01*
X132658625Y-102893341D01*
X132658623Y-102893342D01*
X132512546Y-102953849D01*
X132387104Y-103050104D01*
X132290849Y-103175546D01*
X132230342Y-103321623D01*
X132230341Y-103321625D01*
X132209704Y-103478384D01*
X132209704Y-103478387D01*
X119550626Y-103478387D01*
X119549426Y-103467227D01*
X119580701Y-103404747D01*
X119640790Y-103369095D01*
X119655271Y-103366304D01*
X119659997Y-103365681D01*
X119660000Y-103365682D01*
X119816762Y-103345044D01*
X119962841Y-103284536D01*
X120088282Y-103188282D01*
X120184536Y-103062841D01*
X120245044Y-102916762D01*
X120263267Y-102778336D01*
X120291533Y-102714443D01*
X120349857Y-102675971D01*
X120419722Y-102675139D01*
X120433651Y-102679960D01*
X120465238Y-102693044D01*
X120543619Y-102703363D01*
X120621999Y-102713682D01*
X120622000Y-102713682D01*
X120622001Y-102713682D01*
X120674254Y-102706802D01*
X120778762Y-102693044D01*
X120924841Y-102632536D01*
X121050282Y-102536282D01*
X121146536Y-102410841D01*
X121207044Y-102264762D01*
X121227682Y-102108000D01*
X121207044Y-101951238D01*
X121146536Y-101805159D01*
X121050282Y-101679718D01*
X120924841Y-101583464D01*
X120778762Y-101522956D01*
X120778760Y-101522955D01*
X120622001Y-101502318D01*
X120621999Y-101502318D01*
X120465239Y-101522955D01*
X120465237Y-101522956D01*
X120319160Y-101583463D01*
X120193718Y-101679718D01*
X120097463Y-101805160D01*
X120036956Y-101951237D01*
X120036956Y-101951238D01*
X120018732Y-102089661D01*
X119990465Y-102153557D01*
X119932141Y-102192028D01*
X119862276Y-102192859D01*
X119848341Y-102188036D01*
X119816765Y-102174957D01*
X119816760Y-102174955D01*
X119660001Y-102154318D01*
X119659999Y-102154318D01*
X119503239Y-102174955D01*
X119503237Y-102174956D01*
X119357160Y-102235463D01*
X119231718Y-102331718D01*
X119135463Y-102457160D01*
X119074956Y-102603237D01*
X119074955Y-102603239D01*
X119054318Y-102759998D01*
X119054318Y-102760001D01*
X119074955Y-102916760D01*
X119074957Y-102916765D01*
X119102104Y-102982304D01*
X119109573Y-103051773D01*
X119078298Y-103114252D01*
X119018209Y-103149904D01*
X119003729Y-103152695D01*
X118842238Y-103173956D01*
X118842237Y-103173956D01*
X118696160Y-103234463D01*
X118570718Y-103330718D01*
X118474463Y-103456160D01*
X118413956Y-103602237D01*
X118413955Y-103602239D01*
X118393318Y-103758998D01*
X118393318Y-103759001D01*
X114500322Y-103759001D01*
X114602841Y-103716536D01*
X114728282Y-103620282D01*
X114824536Y-103494841D01*
X114885044Y-103348762D01*
X114905682Y-103192000D01*
X114905192Y-103188281D01*
X114886587Y-103046956D01*
X114885044Y-103035238D01*
X114824536Y-102889159D01*
X114728282Y-102763718D01*
X114602841Y-102667464D01*
X114518517Y-102632536D01*
X114456762Y-102606956D01*
X114456760Y-102606955D01*
X114300001Y-102586318D01*
X114299999Y-102586318D01*
X114143239Y-102606955D01*
X114143237Y-102606956D01*
X113997160Y-102667463D01*
X113871718Y-102763718D01*
X113775463Y-102889160D01*
X113714956Y-103035237D01*
X113714955Y-103035239D01*
X113694318Y-103191998D01*
X113694318Y-103192001D01*
X111411012Y-103192001D01*
X111300841Y-103107464D01*
X111154762Y-103046956D01*
X111154760Y-103046955D01*
X110998001Y-103026318D01*
X110997999Y-103026318D01*
X110841239Y-103046955D01*
X110841237Y-103046956D01*
X110695160Y-103107463D01*
X110569718Y-103203718D01*
X110473463Y-103329160D01*
X110412956Y-103475237D01*
X110412955Y-103475239D01*
X110392318Y-103631998D01*
X110392318Y-103632001D01*
X105396997Y-103632001D01*
X105366824Y-103576419D01*
X105371980Y-103506740D01*
X105389676Y-103474877D01*
X105426536Y-103426841D01*
X105487044Y-103280762D01*
X105505751Y-103138671D01*
X105507682Y-103124001D01*
X105507682Y-103123998D01*
X105487044Y-102967239D01*
X105487044Y-102967238D01*
X105426536Y-102821159D01*
X105330282Y-102695718D01*
X105330278Y-102695715D01*
X105327034Y-102691487D01*
X105301840Y-102626318D01*
X105315878Y-102557873D01*
X105327034Y-102540513D01*
X105330278Y-102536284D01*
X105330282Y-102536282D01*
X105426536Y-102410841D01*
X105487044Y-102264762D01*
X105507682Y-102108000D01*
X105487044Y-101951238D01*
X105426536Y-101805159D01*
X105330282Y-101679718D01*
X105330278Y-101679715D01*
X105327034Y-101675487D01*
X105301840Y-101610318D01*
X105315878Y-101541873D01*
X105327034Y-101524513D01*
X105330278Y-101520284D01*
X105330282Y-101520282D01*
X105426536Y-101394841D01*
X105446766Y-101346001D01*
X113313318Y-101346001D01*
X113333955Y-101502760D01*
X113333956Y-101502762D01*
X113367383Y-101583463D01*
X113394464Y-101648841D01*
X113490718Y-101774282D01*
X113616159Y-101870536D01*
X113762238Y-101931044D01*
X113840618Y-101941363D01*
X113918999Y-101951682D01*
X113919000Y-101951682D01*
X113919001Y-101951682D01*
X113971254Y-101944802D01*
X114075762Y-101931044D01*
X114221841Y-101870536D01*
X114347282Y-101774282D01*
X114443536Y-101648841D01*
X114504044Y-101502762D01*
X114507962Y-101473001D01*
X131220318Y-101473001D01*
X131240955Y-101629760D01*
X131240956Y-101629762D01*
X131259895Y-101675486D01*
X131301464Y-101775841D01*
X131397718Y-101901282D01*
X131523159Y-101997536D01*
X131669238Y-102058044D01*
X131747618Y-102068363D01*
X131825999Y-102078682D01*
X131826000Y-102078682D01*
X131826001Y-102078682D01*
X131878254Y-102071802D01*
X131982762Y-102058044D01*
X132128841Y-101997536D01*
X132254282Y-101901282D01*
X132350536Y-101775841D01*
X132411044Y-101629762D01*
X132423884Y-101532231D01*
X132452149Y-101468337D01*
X132510473Y-101429865D01*
X132530622Y-101425481D01*
X132549140Y-101423044D01*
X132590285Y-101406001D01*
X140872318Y-101406001D01*
X140892955Y-101562760D01*
X140892956Y-101562762D01*
X140920707Y-101629760D01*
X140953464Y-101708841D01*
X141049718Y-101834282D01*
X141175159Y-101930536D01*
X141321238Y-101991044D01*
X141374219Y-101998019D01*
X141477999Y-102011682D01*
X141478000Y-102011682D01*
X141478001Y-102011682D01*
X141530253Y-102004802D01*
X141634762Y-101991044D01*
X141780841Y-101930536D01*
X141906282Y-101834282D01*
X142002536Y-101708841D01*
X142063044Y-101562762D01*
X142083682Y-101406000D01*
X142063044Y-101249238D01*
X142002536Y-101103159D01*
X141906282Y-100977718D01*
X141780841Y-100881464D01*
X141757761Y-100871904D01*
X141634762Y-100820956D01*
X141634760Y-100820955D01*
X141478001Y-100800318D01*
X141477999Y-100800318D01*
X141321239Y-100820955D01*
X141321237Y-100820956D01*
X141175160Y-100881463D01*
X141049718Y-100977718D01*
X140953463Y-101103160D01*
X140892956Y-101249237D01*
X140892955Y-101249239D01*
X140872318Y-101405998D01*
X140872318Y-101406001D01*
X132590285Y-101406001D01*
X132695219Y-101362536D01*
X132820660Y-101266282D01*
X132916914Y-101140841D01*
X132977422Y-100994762D01*
X132992381Y-100881133D01*
X132998060Y-100838001D01*
X132998060Y-100837998D01*
X132981072Y-100708960D01*
X132977422Y-100681238D01*
X132916914Y-100535159D01*
X132820660Y-100409718D01*
X132695219Y-100313464D01*
X132549140Y-100252956D01*
X132549138Y-100252955D01*
X132392379Y-100232318D01*
X132392377Y-100232318D01*
X132235617Y-100252955D01*
X132235615Y-100252956D01*
X132089538Y-100313463D01*
X131964096Y-100409718D01*
X131867841Y-100535160D01*
X131807334Y-100681237D01*
X131807334Y-100681238D01*
X131794494Y-100778766D01*
X131766227Y-100842662D01*
X131707903Y-100881133D01*
X131687746Y-100885518D01*
X131669241Y-100887955D01*
X131669238Y-100887955D01*
X131669238Y-100887956D01*
X131626454Y-100905677D01*
X131523160Y-100948463D01*
X131397718Y-101044718D01*
X131301463Y-101170160D01*
X131240956Y-101316237D01*
X131240955Y-101316239D01*
X131220318Y-101472998D01*
X131220318Y-101473001D01*
X114507962Y-101473001D01*
X114524682Y-101346000D01*
X114504044Y-101189238D01*
X114443536Y-101043159D01*
X114347282Y-100917718D01*
X114347280Y-100917717D01*
X114347280Y-100917716D01*
X114243391Y-100838000D01*
X114239655Y-100835133D01*
X114198453Y-100778706D01*
X114194298Y-100708960D01*
X114228510Y-100648040D01*
X114290228Y-100615287D01*
X114298957Y-100613819D01*
X114299998Y-100613681D01*
X114300000Y-100613682D01*
X114456762Y-100593044D01*
X114602841Y-100532536D01*
X114728282Y-100436282D01*
X114824536Y-100310841D01*
X114885044Y-100164762D01*
X114896730Y-100076001D01*
X139221318Y-100076001D01*
X139241955Y-100232760D01*
X139241956Y-100232762D01*
X139286375Y-100340000D01*
X139302464Y-100378841D01*
X139398718Y-100504282D01*
X139524159Y-100600536D01*
X139670238Y-100661044D01*
X139748618Y-100671363D01*
X139826999Y-100681682D01*
X139827000Y-100681682D01*
X139827001Y-100681682D01*
X139879254Y-100674802D01*
X139983762Y-100661044D01*
X140129841Y-100600536D01*
X140255282Y-100504282D01*
X140351536Y-100378841D01*
X140367624Y-100340000D01*
X147179785Y-100340000D01*
X147198602Y-100543082D01*
X147254417Y-100739247D01*
X147254422Y-100739260D01*
X147345327Y-100921821D01*
X147468237Y-101084581D01*
X147618958Y-101221980D01*
X147618960Y-101221982D01*
X147662982Y-101249239D01*
X147792363Y-101329348D01*
X147982544Y-101403024D01*
X148183024Y-101440500D01*
X148183026Y-101440500D01*
X148386974Y-101440500D01*
X148386976Y-101440500D01*
X148587456Y-101403024D01*
X148777637Y-101329348D01*
X148951041Y-101221981D01*
X149081383Y-101103159D01*
X149101762Y-101084581D01*
X149101764Y-101084579D01*
X149224673Y-100921821D01*
X149315582Y-100739250D01*
X149371397Y-100543083D01*
X149390215Y-100340000D01*
X149371397Y-100136917D01*
X149315582Y-99940750D01*
X149304870Y-99919238D01*
X149271010Y-99851237D01*
X149224673Y-99758179D01*
X149165704Y-99680091D01*
X149101762Y-99595418D01*
X148951041Y-99458019D01*
X148951039Y-99458017D01*
X148777642Y-99350655D01*
X148777635Y-99350651D01*
X148666563Y-99307622D01*
X148587456Y-99276976D01*
X148386976Y-99239500D01*
X148183024Y-99239500D01*
X147982544Y-99276976D01*
X147982541Y-99276976D01*
X147982541Y-99276977D01*
X147792364Y-99350651D01*
X147792357Y-99350655D01*
X147618960Y-99458017D01*
X147618958Y-99458019D01*
X147468237Y-99595418D01*
X147345327Y-99758178D01*
X147254422Y-99940739D01*
X147254417Y-99940752D01*
X147198602Y-100136917D01*
X147179785Y-100339999D01*
X147179785Y-100340000D01*
X140367624Y-100340000D01*
X140412044Y-100232762D01*
X140432682Y-100076000D01*
X140423729Y-100007998D01*
X140412044Y-99919239D01*
X140412044Y-99919238D01*
X140351536Y-99773159D01*
X140255282Y-99647718D01*
X140255279Y-99647715D01*
X140255277Y-99647713D01*
X140255000Y-99647436D01*
X140254840Y-99647144D01*
X140250334Y-99641271D01*
X140251249Y-99640568D01*
X140221515Y-99586113D01*
X140222810Y-99568001D01*
X145444318Y-99568001D01*
X145464955Y-99724760D01*
X145464956Y-99724762D01*
X145517344Y-99851239D01*
X145525464Y-99870841D01*
X145621718Y-99996282D01*
X145747159Y-100092536D01*
X145893238Y-100153044D01*
X145971618Y-100163363D01*
X146049999Y-100173682D01*
X146050000Y-100173682D01*
X146050001Y-100173682D01*
X146117754Y-100164762D01*
X146206762Y-100153044D01*
X146352841Y-100092536D01*
X146478282Y-99996282D01*
X146574536Y-99870841D01*
X146635044Y-99724762D01*
X146655682Y-99568000D01*
X146654375Y-99558076D01*
X146636587Y-99422956D01*
X146635044Y-99411238D01*
X146574536Y-99265159D01*
X146478282Y-99139718D01*
X146352841Y-99043464D01*
X146334430Y-99035838D01*
X146206762Y-98982956D01*
X146206760Y-98982955D01*
X146050001Y-98962318D01*
X146049999Y-98962318D01*
X145893239Y-98982955D01*
X145893237Y-98982956D01*
X145747160Y-99043463D01*
X145621718Y-99139718D01*
X145525463Y-99265160D01*
X145464956Y-99411237D01*
X145464955Y-99411239D01*
X145444318Y-99567998D01*
X145444318Y-99568001D01*
X140222810Y-99568001D01*
X140222822Y-99567833D01*
X140209164Y-99572928D01*
X140140891Y-99558076D01*
X140136907Y-99555482D01*
X140136881Y-99555528D01*
X140129843Y-99551465D01*
X140129838Y-99551463D01*
X139983762Y-99490956D01*
X139983760Y-99490955D01*
X139827001Y-99470318D01*
X139826999Y-99470318D01*
X139670239Y-99490955D01*
X139670237Y-99490956D01*
X139524160Y-99551463D01*
X139398718Y-99647718D01*
X139302463Y-99773160D01*
X139241956Y-99919237D01*
X139241955Y-99919239D01*
X139221318Y-100075998D01*
X139221318Y-100076001D01*
X114896730Y-100076001D01*
X114905682Y-100008000D01*
X114904139Y-99996282D01*
X114887625Y-99870841D01*
X114885044Y-99851238D01*
X114824536Y-99705159D01*
X114728282Y-99579718D01*
X114602841Y-99483464D01*
X114554938Y-99463622D01*
X114456762Y-99422956D01*
X114456760Y-99422955D01*
X114300001Y-99402318D01*
X114299999Y-99402318D01*
X114143239Y-99422955D01*
X114143237Y-99422956D01*
X113997160Y-99483463D01*
X113871718Y-99579718D01*
X113775463Y-99705160D01*
X113714956Y-99851237D01*
X113714955Y-99851239D01*
X113694318Y-100007998D01*
X113694318Y-100008001D01*
X113714955Y-100164760D01*
X113714956Y-100164762D01*
X113743122Y-100232762D01*
X113775464Y-100310841D01*
X113871718Y-100436282D01*
X113965850Y-100508512D01*
X113979343Y-100518865D01*
X114020546Y-100575293D01*
X114024701Y-100645039D01*
X113990489Y-100705959D01*
X113928772Y-100738712D01*
X113920043Y-100740180D01*
X113762238Y-100760956D01*
X113762237Y-100760956D01*
X113616160Y-100821463D01*
X113490718Y-100917718D01*
X113394463Y-101043160D01*
X113333956Y-101189237D01*
X113333955Y-101189239D01*
X113313318Y-101345998D01*
X113313318Y-101346001D01*
X105446766Y-101346001D01*
X105487044Y-101248762D01*
X105507682Y-101092000D01*
X105506705Y-101084581D01*
X105487044Y-100935239D01*
X105487044Y-100935238D01*
X105426536Y-100789159D01*
X105426535Y-100789158D01*
X105426535Y-100789157D01*
X105327034Y-100659485D01*
X105301840Y-100594316D01*
X105315878Y-100525871D01*
X105327035Y-100508512D01*
X105330279Y-100504284D01*
X105330282Y-100504282D01*
X105426536Y-100378841D01*
X105487044Y-100232762D01*
X105507682Y-100076000D01*
X105498729Y-100007998D01*
X105487044Y-99919239D01*
X105487044Y-99919238D01*
X105426536Y-99773159D01*
X105426535Y-99773158D01*
X105426535Y-99773157D01*
X105389224Y-99724533D01*
X105364029Y-99659364D01*
X105378067Y-99590919D01*
X105426881Y-99540929D01*
X105474191Y-99525773D01*
X105518505Y-99520954D01*
X105688662Y-99463622D01*
X105842517Y-99371050D01*
X105972875Y-99247569D01*
X106073640Y-99098951D01*
X106140101Y-98932147D01*
X106148801Y-98879077D01*
X108868318Y-98879077D01*
X108888955Y-99035836D01*
X108888956Y-99035838D01*
X108931984Y-99139718D01*
X108949464Y-99181917D01*
X109045718Y-99307358D01*
X109171159Y-99403612D01*
X109317238Y-99464120D01*
X109364317Y-99470318D01*
X109473999Y-99484758D01*
X109474000Y-99484758D01*
X109474001Y-99484758D01*
X109526253Y-99477878D01*
X109630762Y-99464120D01*
X109776841Y-99403612D01*
X109902282Y-99307358D01*
X109998536Y-99181917D01*
X110059044Y-99035838D01*
X110072582Y-98933001D01*
X140110318Y-98933001D01*
X140130955Y-99089760D01*
X140130956Y-99089762D01*
X140191464Y-99235841D01*
X140287718Y-99361282D01*
X140287720Y-99361283D01*
X140287722Y-99361286D01*
X140287999Y-99361563D01*
X140288157Y-99361853D01*
X140292666Y-99367729D01*
X140291749Y-99368432D01*
X140321484Y-99422886D01*
X140320176Y-99441165D01*
X140333835Y-99436071D01*
X140402108Y-99450923D01*
X140406092Y-99453517D01*
X140406119Y-99453472D01*
X140413157Y-99457534D01*
X140413159Y-99457536D01*
X140559238Y-99518044D01*
X140581327Y-99520952D01*
X140715999Y-99538682D01*
X140716000Y-99538682D01*
X140716001Y-99538682D01*
X140768253Y-99531802D01*
X140872762Y-99518044D01*
X141018841Y-99457536D01*
X141144282Y-99361282D01*
X141240536Y-99235841D01*
X141301044Y-99089762D01*
X141321682Y-98933000D01*
X141321570Y-98932152D01*
X141301044Y-98776239D01*
X141301044Y-98776238D01*
X141258976Y-98674678D01*
X147184500Y-98674678D01*
X147199032Y-98747735D01*
X147199033Y-98747739D01*
X147199034Y-98747740D01*
X147254399Y-98830601D01*
X147326945Y-98879074D01*
X147337260Y-98885966D01*
X147337264Y-98885967D01*
X147410321Y-98900499D01*
X147410324Y-98900500D01*
X147410326Y-98900500D01*
X149159676Y-98900500D01*
X149159677Y-98900499D01*
X149232740Y-98885966D01*
X149315601Y-98830601D01*
X149370966Y-98747740D01*
X149385500Y-98674674D01*
X149385500Y-96925326D01*
X149370966Y-96852260D01*
X149315601Y-96769399D01*
X149232740Y-96714034D01*
X149232739Y-96714033D01*
X149232735Y-96714032D01*
X149159677Y-96699500D01*
X149159674Y-96699500D01*
X147410326Y-96699500D01*
X147410323Y-96699500D01*
X147337264Y-96714032D01*
X147337260Y-96714033D01*
X147254399Y-96769399D01*
X147199033Y-96852260D01*
X147199032Y-96852264D01*
X147184500Y-96925321D01*
X147184500Y-98674678D01*
X141258976Y-98674678D01*
X141240536Y-98630159D01*
X141240535Y-98630158D01*
X141240535Y-98630157D01*
X141208805Y-98588806D01*
X141195601Y-98571599D01*
X141170407Y-98506431D01*
X141184445Y-98437986D01*
X141233259Y-98387996D01*
X141301350Y-98372332D01*
X141313145Y-98374243D01*
X141313180Y-98373983D01*
X141321237Y-98375043D01*
X141321238Y-98375044D01*
X141400894Y-98385530D01*
X141477999Y-98395682D01*
X141478000Y-98395682D01*
X141478001Y-98395682D01*
X141536381Y-98387996D01*
X141634762Y-98375044D01*
X141780841Y-98314536D01*
X141906282Y-98218282D01*
X142002536Y-98092841D01*
X142063044Y-97946762D01*
X142083682Y-97790000D01*
X142074065Y-97716955D01*
X142063044Y-97633239D01*
X142063044Y-97633238D01*
X142002536Y-97487159D01*
X141906282Y-97361718D01*
X141780841Y-97265464D01*
X141761264Y-97257355D01*
X141634762Y-97204956D01*
X141634760Y-97204955D01*
X141478001Y-97184318D01*
X141477999Y-97184318D01*
X141321239Y-97204955D01*
X141321237Y-97204956D01*
X141175160Y-97265463D01*
X141049718Y-97361718D01*
X140953463Y-97487160D01*
X140892956Y-97633237D01*
X140892955Y-97633239D01*
X140872318Y-97789998D01*
X140872318Y-97790001D01*
X140892955Y-97946760D01*
X140892956Y-97946762D01*
X140923208Y-98019798D01*
X140953464Y-98092841D01*
X140998399Y-98151401D01*
X141023592Y-98216568D01*
X141009554Y-98285013D01*
X140960740Y-98335003D01*
X140892649Y-98350667D01*
X140880854Y-98348756D01*
X140880820Y-98349017D01*
X140872762Y-98347956D01*
X140774374Y-98335003D01*
X140716001Y-98327318D01*
X140715999Y-98327318D01*
X140559239Y-98347955D01*
X140559237Y-98347956D01*
X140413160Y-98408463D01*
X140287718Y-98504718D01*
X140191463Y-98630160D01*
X140130956Y-98776237D01*
X140130955Y-98776239D01*
X140110318Y-98932998D01*
X140110318Y-98933001D01*
X110072582Y-98933001D01*
X110072802Y-98931329D01*
X110079682Y-98879077D01*
X110079682Y-98879074D01*
X110059044Y-98722315D01*
X110059044Y-98722314D01*
X109998536Y-98576235D01*
X109902282Y-98450794D01*
X109776841Y-98354540D01*
X109763507Y-98349017D01*
X109630762Y-98294032D01*
X109630760Y-98294031D01*
X109474001Y-98273394D01*
X109473999Y-98273394D01*
X109317239Y-98294031D01*
X109317237Y-98294032D01*
X109171160Y-98354539D01*
X109045718Y-98450794D01*
X108949463Y-98576236D01*
X108888956Y-98722313D01*
X108888955Y-98722315D01*
X108868318Y-98879074D01*
X108868318Y-98879077D01*
X106148801Y-98879077D01*
X106169150Y-98754955D01*
X106159429Y-98575661D01*
X106159428Y-98575656D01*
X106120979Y-98437173D01*
X106122011Y-98367311D01*
X106160650Y-98309097D01*
X106224627Y-98281015D01*
X106240459Y-98280000D01*
X106440713Y-98280000D01*
X106592338Y-98264581D01*
X106786381Y-98203700D01*
X106786391Y-98203695D01*
X106964215Y-98104994D01*
X106964216Y-98104994D01*
X107118530Y-97972521D01*
X107118531Y-97972520D01*
X107243018Y-97811695D01*
X107332588Y-97629093D01*
X107358246Y-97530000D01*
X106794979Y-97530000D01*
X106727940Y-97510315D01*
X106682185Y-97457511D01*
X106675946Y-97414117D01*
X123976202Y-97414117D01*
X123996839Y-97570876D01*
X123996840Y-97570878D01*
X124024212Y-97636961D01*
X124057348Y-97716957D01*
X124153602Y-97842398D01*
X124279043Y-97938652D01*
X124425122Y-97999160D01*
X124503503Y-98009478D01*
X124581883Y-98019798D01*
X124581884Y-98019798D01*
X124581885Y-98019798D01*
X124634137Y-98012918D01*
X124738646Y-97999160D01*
X124884725Y-97938652D01*
X125010166Y-97842398D01*
X125106420Y-97716957D01*
X125166928Y-97570878D01*
X125187566Y-97414116D01*
X125166928Y-97257354D01*
X125106420Y-97111275D01*
X125010166Y-96985834D01*
X124884725Y-96889580D01*
X124794636Y-96852264D01*
X124738646Y-96829072D01*
X124738644Y-96829071D01*
X124581885Y-96808434D01*
X124581883Y-96808434D01*
X124425123Y-96829071D01*
X124425121Y-96829072D01*
X124279044Y-96889579D01*
X124153602Y-96985834D01*
X124057347Y-97111276D01*
X123996840Y-97257353D01*
X123996839Y-97257355D01*
X123976202Y-97414114D01*
X123976202Y-97414117D01*
X106675946Y-97414117D01*
X106672241Y-97388353D01*
X106675713Y-97372066D01*
X106693894Y-97308162D01*
X106693895Y-97308160D01*
X106693003Y-97298536D01*
X106683546Y-97196479D01*
X106683544Y-97196475D01*
X106681115Y-97187937D01*
X106681701Y-97118070D01*
X106719966Y-97059610D01*
X106783763Y-97031119D01*
X106800381Y-97030000D01*
X107363366Y-97030000D01*
X107363068Y-97028053D01*
X107363066Y-97028047D01*
X107292437Y-96837342D01*
X107292434Y-96837335D01*
X107252958Y-96774001D01*
X114710318Y-96774001D01*
X114730955Y-96930760D01*
X114730956Y-96930762D01*
X114780215Y-97049685D01*
X114791464Y-97076841D01*
X114887718Y-97202282D01*
X115013159Y-97298536D01*
X115159238Y-97359044D01*
X115237619Y-97369363D01*
X115315999Y-97379682D01*
X115316000Y-97379682D01*
X115316001Y-97379682D01*
X115368253Y-97372802D01*
X115472762Y-97359044D01*
X115618841Y-97298536D01*
X115744282Y-97202282D01*
X115840536Y-97076841D01*
X115901044Y-96930762D01*
X115921682Y-96774000D01*
X115921076Y-96769399D01*
X115904962Y-96647001D01*
X129569318Y-96647001D01*
X129589955Y-96803760D01*
X129589956Y-96803762D01*
X129640309Y-96925326D01*
X129650464Y-96949841D01*
X129746718Y-97075282D01*
X129872159Y-97171536D01*
X130018238Y-97232044D01*
X130096618Y-97242363D01*
X130174999Y-97252682D01*
X130175000Y-97252682D01*
X130175001Y-97252682D01*
X130227254Y-97245802D01*
X130331762Y-97232044D01*
X130477841Y-97171536D01*
X130603282Y-97075282D01*
X130699536Y-96949841D01*
X130760044Y-96803762D01*
X130780682Y-96647000D01*
X130760044Y-96490238D01*
X130699536Y-96344159D01*
X130603282Y-96218718D01*
X130477841Y-96122464D01*
X130331762Y-96061956D01*
X130331760Y-96061955D01*
X130175001Y-96041318D01*
X130174999Y-96041318D01*
X130018239Y-96061955D01*
X130018237Y-96061956D01*
X129872160Y-96122463D01*
X129746718Y-96218718D01*
X129650463Y-96344160D01*
X129589956Y-96490237D01*
X129589955Y-96490239D01*
X129569318Y-96646998D01*
X129569318Y-96647001D01*
X115904962Y-96647001D01*
X115901044Y-96617239D01*
X115901044Y-96617238D01*
X115840536Y-96471159D01*
X115744282Y-96345718D01*
X115618841Y-96249464D01*
X115472762Y-96188956D01*
X115472760Y-96188955D01*
X115316001Y-96168318D01*
X115315999Y-96168318D01*
X115159239Y-96188955D01*
X115159237Y-96188956D01*
X115013160Y-96249463D01*
X114887718Y-96345718D01*
X114791463Y-96471160D01*
X114730956Y-96617237D01*
X114730955Y-96617239D01*
X114710318Y-96773998D01*
X114710318Y-96774001D01*
X107252958Y-96774001D01*
X107184850Y-96664732D01*
X107044735Y-96517331D01*
X107044733Y-96517330D01*
X106877804Y-96401143D01*
X106690907Y-96320940D01*
X106491690Y-96280000D01*
X106090000Y-96280000D01*
X106090000Y-96856000D01*
X106070315Y-96923039D01*
X106017511Y-96968794D01*
X105966000Y-96980000D01*
X105714000Y-96980000D01*
X105646961Y-96960315D01*
X105601206Y-96907511D01*
X105590000Y-96856000D01*
X105590000Y-96280000D01*
X105239287Y-96280000D01*
X105087661Y-96295418D01*
X104893618Y-96356299D01*
X104893608Y-96356304D01*
X104715784Y-96455005D01*
X104715783Y-96455005D01*
X104561469Y-96587478D01*
X104561468Y-96587479D01*
X104436981Y-96748304D01*
X104347411Y-96930906D01*
X104321754Y-97030000D01*
X104885021Y-97030000D01*
X104952060Y-97049685D01*
X104997815Y-97102489D01*
X105007759Y-97171647D01*
X105004287Y-97187934D01*
X104986105Y-97251837D01*
X104986104Y-97251837D01*
X104996453Y-97363517D01*
X104998885Y-97372063D01*
X104998299Y-97441930D01*
X104960034Y-97500390D01*
X104896237Y-97528881D01*
X104879619Y-97530000D01*
X104316634Y-97530000D01*
X104316931Y-97531946D01*
X104316933Y-97531952D01*
X104387562Y-97722657D01*
X104387565Y-97722664D01*
X104495149Y-97895267D01*
X104635264Y-98042668D01*
X104635268Y-98042671D01*
X104643322Y-98048277D01*
X104687100Y-98102731D01*
X104694488Y-98172209D01*
X104675118Y-98219637D01*
X104606358Y-98321051D01*
X104606357Y-98321053D01*
X104539900Y-98487847D01*
X104539899Y-98487852D01*
X104539899Y-98487853D01*
X104516570Y-98630159D01*
X104510850Y-98665048D01*
X104520571Y-98844338D01*
X104520571Y-98844343D01*
X104568605Y-99017348D01*
X104568608Y-99017354D01*
X104652714Y-99175993D01*
X104764521Y-99307622D01*
X104792919Y-99371460D01*
X104782295Y-99440518D01*
X104736022Y-99492869D01*
X104717466Y-99502459D01*
X104599160Y-99551463D01*
X104473718Y-99647718D01*
X104377463Y-99773160D01*
X104316956Y-99919237D01*
X104316955Y-99919239D01*
X104296318Y-100075998D01*
X104296318Y-100076001D01*
X104316955Y-100232760D01*
X104316956Y-100232762D01*
X104377464Y-100378842D01*
X104476965Y-100508514D01*
X104502159Y-100573683D01*
X104488121Y-100642128D01*
X104476965Y-100659486D01*
X104377464Y-100789157D01*
X104316956Y-100935237D01*
X104316955Y-100935239D01*
X104296318Y-101091998D01*
X104296318Y-101092001D01*
X104316955Y-101248760D01*
X104316956Y-101248762D01*
X104377464Y-101394842D01*
X104476965Y-101524514D01*
X104502159Y-101589683D01*
X104488121Y-101658128D01*
X104476965Y-101675486D01*
X104377464Y-101805157D01*
X104316956Y-101951237D01*
X104316955Y-101951239D01*
X104296318Y-102107998D01*
X104296318Y-102108001D01*
X104316955Y-102264760D01*
X104316956Y-102264762D01*
X104362599Y-102374955D01*
X104377464Y-102410841D01*
X104473718Y-102536282D01*
X104473720Y-102536284D01*
X104476965Y-102540512D01*
X104502159Y-102605682D01*
X104488121Y-102674126D01*
X104476965Y-102691485D01*
X104377464Y-102821157D01*
X104316956Y-102967237D01*
X104316955Y-102967239D01*
X104296318Y-103123998D01*
X104296318Y-103124001D01*
X99310500Y-103124001D01*
X99310500Y-97530000D01*
X100286634Y-97530000D01*
X100286931Y-97531946D01*
X100286933Y-97531952D01*
X100357562Y-97722657D01*
X100357565Y-97722664D01*
X100465149Y-97895267D01*
X100605264Y-98042668D01*
X100605266Y-98042669D01*
X100772195Y-98158856D01*
X100959092Y-98239059D01*
X101158310Y-98280000D01*
X101410000Y-98280000D01*
X101410000Y-97704000D01*
X101429685Y-97636961D01*
X101482489Y-97591206D01*
X101534000Y-97580000D01*
X101786000Y-97580000D01*
X101853039Y-97599685D01*
X101898794Y-97652489D01*
X101910000Y-97704000D01*
X101910000Y-98280000D01*
X102110713Y-98280000D01*
X102262338Y-98264581D01*
X102456381Y-98203700D01*
X102456391Y-98203695D01*
X102634215Y-98104994D01*
X102634216Y-98104994D01*
X102788530Y-97972521D01*
X102788531Y-97972520D01*
X102913018Y-97811695D01*
X103002588Y-97629093D01*
X103028246Y-97530000D01*
X102464979Y-97530000D01*
X102397940Y-97510315D01*
X102352185Y-97457511D01*
X102342241Y-97388353D01*
X102345713Y-97372066D01*
X102363894Y-97308162D01*
X102363895Y-97308160D01*
X102363003Y-97298536D01*
X102353546Y-97196479D01*
X102353544Y-97196475D01*
X102351115Y-97187937D01*
X102351701Y-97118070D01*
X102389966Y-97059610D01*
X102453763Y-97031119D01*
X102470381Y-97030000D01*
X103033366Y-97030000D01*
X103033068Y-97028053D01*
X103033066Y-97028047D01*
X102962437Y-96837342D01*
X102962434Y-96837335D01*
X102854850Y-96664732D01*
X102714735Y-96517331D01*
X102714733Y-96517330D01*
X102547804Y-96401143D01*
X102360907Y-96320940D01*
X102161690Y-96280000D01*
X101910000Y-96280000D01*
X101910000Y-96856000D01*
X101890315Y-96923039D01*
X101837511Y-96968794D01*
X101786000Y-96980000D01*
X101534000Y-96980000D01*
X101466961Y-96960315D01*
X101421206Y-96907511D01*
X101410000Y-96856000D01*
X101410000Y-96280000D01*
X101209287Y-96280000D01*
X101057661Y-96295418D01*
X100863618Y-96356299D01*
X100863608Y-96356304D01*
X100685784Y-96455005D01*
X100685783Y-96455005D01*
X100531469Y-96587478D01*
X100531468Y-96587479D01*
X100406981Y-96748304D01*
X100317411Y-96930906D01*
X100291754Y-97030000D01*
X100855021Y-97030000D01*
X100922060Y-97049685D01*
X100967815Y-97102489D01*
X100977759Y-97171647D01*
X100974287Y-97187934D01*
X100956105Y-97251837D01*
X100956104Y-97251837D01*
X100966453Y-97363517D01*
X100968885Y-97372063D01*
X100968299Y-97441930D01*
X100930034Y-97500390D01*
X100866237Y-97528881D01*
X100849619Y-97530000D01*
X100286634Y-97530000D01*
X99310500Y-97530000D01*
X99310500Y-95316001D01*
X107918318Y-95316001D01*
X107938955Y-95472760D01*
X107938956Y-95472762D01*
X107999464Y-95618841D01*
X108095718Y-95744282D01*
X108221159Y-95840536D01*
X108367238Y-95901044D01*
X108445619Y-95911363D01*
X108523999Y-95921682D01*
X108524000Y-95921682D01*
X108524001Y-95921682D01*
X108576253Y-95914802D01*
X108680762Y-95901044D01*
X108826841Y-95840536D01*
X108952282Y-95744282D01*
X109048536Y-95618841D01*
X109109044Y-95472762D01*
X109129682Y-95316000D01*
X109128976Y-95310634D01*
X109117134Y-95220685D01*
X109127900Y-95151650D01*
X109174280Y-95099394D01*
X109240073Y-95080500D01*
X109321974Y-95080500D01*
X109321976Y-95080500D01*
X109522456Y-95043024D01*
X109712637Y-94969348D01*
X109886041Y-94861981D01*
X110036764Y-94724579D01*
X110159673Y-94561821D01*
X110250582Y-94379250D01*
X110306397Y-94183083D01*
X110325215Y-93980000D01*
X110654785Y-93980000D01*
X110673602Y-94183082D01*
X110729417Y-94379247D01*
X110729422Y-94379260D01*
X110820327Y-94561821D01*
X110943237Y-94724581D01*
X111093958Y-94861980D01*
X111093960Y-94861982D01*
X111193141Y-94923392D01*
X111267363Y-94969348D01*
X111457544Y-95043024D01*
X111658024Y-95080500D01*
X111658026Y-95080500D01*
X111861974Y-95080500D01*
X111861976Y-95080500D01*
X112062456Y-95043024D01*
X112252637Y-94969348D01*
X112426041Y-94861981D01*
X112576764Y-94724579D01*
X112699673Y-94561821D01*
X112790582Y-94379250D01*
X112846397Y-94183083D01*
X112865215Y-93980000D01*
X113194785Y-93980000D01*
X113213602Y-94183082D01*
X113269417Y-94379247D01*
X113269422Y-94379260D01*
X113360327Y-94561821D01*
X113483237Y-94724581D01*
X113633958Y-94861980D01*
X113633960Y-94861982D01*
X113733141Y-94923392D01*
X113807363Y-94969348D01*
X113997544Y-95043024D01*
X114198024Y-95080500D01*
X114198026Y-95080500D01*
X114401974Y-95080500D01*
X114401976Y-95080500D01*
X114602456Y-95043024D01*
X114792637Y-94969348D01*
X114966041Y-94861981D01*
X115116764Y-94724579D01*
X115239673Y-94561821D01*
X115330582Y-94379250D01*
X115386397Y-94183083D01*
X115405215Y-93980000D01*
X115734785Y-93980000D01*
X115753602Y-94183082D01*
X115809417Y-94379247D01*
X115809422Y-94379260D01*
X115900327Y-94561821D01*
X116023237Y-94724581D01*
X116173958Y-94861980D01*
X116173960Y-94861982D01*
X116273141Y-94923392D01*
X116347363Y-94969348D01*
X116537544Y-95043024D01*
X116738024Y-95080500D01*
X116738026Y-95080500D01*
X116941974Y-95080500D01*
X116941976Y-95080500D01*
X117142456Y-95043024D01*
X117332637Y-94969348D01*
X117506041Y-94861981D01*
X117656764Y-94724579D01*
X117779673Y-94561821D01*
X117870582Y-94379250D01*
X117926397Y-94183083D01*
X117945215Y-93980000D01*
X118274785Y-93980000D01*
X118293602Y-94183082D01*
X118349417Y-94379247D01*
X118349422Y-94379260D01*
X118440327Y-94561821D01*
X118563237Y-94724581D01*
X118713958Y-94861980D01*
X118713960Y-94861982D01*
X118813141Y-94923392D01*
X118887363Y-94969348D01*
X119077544Y-95043024D01*
X119278024Y-95080500D01*
X119278026Y-95080500D01*
X119481974Y-95080500D01*
X119481976Y-95080500D01*
X119682456Y-95043024D01*
X119872637Y-94969348D01*
X120046041Y-94861981D01*
X120196764Y-94724579D01*
X120319673Y-94561821D01*
X120410582Y-94379250D01*
X120466397Y-94183083D01*
X120485215Y-93980000D01*
X120814785Y-93980000D01*
X120833602Y-94183082D01*
X120889417Y-94379247D01*
X120889422Y-94379260D01*
X120980327Y-94561821D01*
X121103237Y-94724581D01*
X121253958Y-94861980D01*
X121253960Y-94861982D01*
X121353141Y-94923392D01*
X121427363Y-94969348D01*
X121617544Y-95043024D01*
X121818024Y-95080500D01*
X121818026Y-95080500D01*
X122021974Y-95080500D01*
X122021976Y-95080500D01*
X122222456Y-95043024D01*
X122412637Y-94969348D01*
X122586041Y-94861981D01*
X122736764Y-94724579D01*
X122859673Y-94561821D01*
X122950582Y-94379250D01*
X123006397Y-94183083D01*
X123025215Y-93980000D01*
X123354785Y-93980000D01*
X123373602Y-94183082D01*
X123429417Y-94379247D01*
X123429422Y-94379260D01*
X123520327Y-94561821D01*
X123643237Y-94724581D01*
X123793958Y-94861980D01*
X123793960Y-94861982D01*
X123893141Y-94923392D01*
X123967363Y-94969348D01*
X124157544Y-95043024D01*
X124358024Y-95080500D01*
X124358026Y-95080500D01*
X124561974Y-95080500D01*
X124561976Y-95080500D01*
X124762456Y-95043024D01*
X124952637Y-94969348D01*
X125126041Y-94861981D01*
X125276764Y-94724579D01*
X125399673Y-94561821D01*
X125490582Y-94379250D01*
X125546397Y-94183083D01*
X125565215Y-93980000D01*
X125894785Y-93980000D01*
X125913602Y-94183082D01*
X125969417Y-94379247D01*
X125969422Y-94379260D01*
X126060327Y-94561821D01*
X126183237Y-94724581D01*
X126333958Y-94861980D01*
X126333960Y-94861982D01*
X126433141Y-94923392D01*
X126507363Y-94969348D01*
X126697544Y-95043024D01*
X126898024Y-95080500D01*
X126898026Y-95080500D01*
X127101974Y-95080500D01*
X127101976Y-95080500D01*
X127302456Y-95043024D01*
X127492637Y-94969348D01*
X127666041Y-94861981D01*
X127816764Y-94724579D01*
X127939673Y-94561821D01*
X128030582Y-94379250D01*
X128086397Y-94183083D01*
X128105215Y-93980000D01*
X128434785Y-93980000D01*
X128453602Y-94183082D01*
X128509417Y-94379247D01*
X128509422Y-94379260D01*
X128600327Y-94561821D01*
X128723237Y-94724581D01*
X128873958Y-94861980D01*
X128873960Y-94861982D01*
X128973141Y-94923392D01*
X129047363Y-94969348D01*
X129237544Y-95043024D01*
X129438024Y-95080500D01*
X129438026Y-95080500D01*
X129641974Y-95080500D01*
X129641976Y-95080500D01*
X129842456Y-95043024D01*
X130032637Y-94969348D01*
X130206041Y-94861981D01*
X130356764Y-94724579D01*
X130479673Y-94561821D01*
X130570582Y-94379250D01*
X130626397Y-94183083D01*
X130645215Y-93980000D01*
X130974785Y-93980000D01*
X130993602Y-94183082D01*
X131049417Y-94379247D01*
X131049422Y-94379260D01*
X131140327Y-94561821D01*
X131263237Y-94724581D01*
X131413958Y-94861980D01*
X131413960Y-94861982D01*
X131513141Y-94923392D01*
X131587363Y-94969348D01*
X131777544Y-95043024D01*
X131978024Y-95080500D01*
X131978026Y-95080500D01*
X132181974Y-95080500D01*
X132181976Y-95080500D01*
X132382456Y-95043024D01*
X132572637Y-94969348D01*
X132746041Y-94861981D01*
X132896764Y-94724579D01*
X133019673Y-94561821D01*
X133110582Y-94379250D01*
X133166397Y-94183083D01*
X133185215Y-93980000D01*
X133514785Y-93980000D01*
X133533602Y-94183082D01*
X133589417Y-94379247D01*
X133589422Y-94379260D01*
X133680327Y-94561821D01*
X133803237Y-94724581D01*
X133953958Y-94861980D01*
X133953960Y-94861982D01*
X134053141Y-94923392D01*
X134127363Y-94969348D01*
X134317544Y-95043024D01*
X134518024Y-95080500D01*
X134518026Y-95080500D01*
X134721974Y-95080500D01*
X134721976Y-95080500D01*
X134922456Y-95043024D01*
X135112637Y-94969348D01*
X135286041Y-94861981D01*
X135436764Y-94724579D01*
X135559673Y-94561821D01*
X135650582Y-94379250D01*
X135706397Y-94183083D01*
X135725215Y-93980000D01*
X136054785Y-93980000D01*
X136073602Y-94183082D01*
X136129417Y-94379247D01*
X136129422Y-94379260D01*
X136220327Y-94561821D01*
X136343237Y-94724581D01*
X136493958Y-94861980D01*
X136493960Y-94861982D01*
X136593141Y-94923392D01*
X136667363Y-94969348D01*
X136857544Y-95043024D01*
X137058024Y-95080500D01*
X137058026Y-95080500D01*
X137261974Y-95080500D01*
X137261976Y-95080500D01*
X137462456Y-95043024D01*
X137652637Y-94969348D01*
X137826041Y-94861981D01*
X137976764Y-94724579D01*
X138099673Y-94561821D01*
X138190582Y-94379250D01*
X138246397Y-94183083D01*
X138265215Y-93980000D01*
X138594785Y-93980000D01*
X138613602Y-94183082D01*
X138669417Y-94379247D01*
X138669422Y-94379260D01*
X138760327Y-94561821D01*
X138883237Y-94724581D01*
X139033958Y-94861980D01*
X139033960Y-94861982D01*
X139133141Y-94923392D01*
X139207363Y-94969348D01*
X139397544Y-95043024D01*
X139598024Y-95080500D01*
X139598026Y-95080500D01*
X139801974Y-95080500D01*
X139801976Y-95080500D01*
X140002456Y-95043024D01*
X140192637Y-94969348D01*
X140366041Y-94861981D01*
X140516764Y-94724579D01*
X140639673Y-94561821D01*
X140730582Y-94379250D01*
X140786397Y-94183083D01*
X140805215Y-93980000D01*
X141134785Y-93980000D01*
X141153602Y-94183082D01*
X141209417Y-94379247D01*
X141209422Y-94379260D01*
X141300327Y-94561821D01*
X141423237Y-94724581D01*
X141573958Y-94861980D01*
X141573960Y-94861982D01*
X141673141Y-94923392D01*
X141747363Y-94969348D01*
X141937544Y-95043024D01*
X142138024Y-95080500D01*
X142138026Y-95080500D01*
X142341974Y-95080500D01*
X142341976Y-95080500D01*
X142542456Y-95043024D01*
X142732637Y-94969348D01*
X142906041Y-94861981D01*
X143056764Y-94724579D01*
X143179673Y-94561821D01*
X143270582Y-94379250D01*
X143326397Y-94183083D01*
X143345215Y-93980000D01*
X143674785Y-93980000D01*
X143693602Y-94183082D01*
X143749417Y-94379247D01*
X143749422Y-94379260D01*
X143840327Y-94561821D01*
X143963237Y-94724581D01*
X144113958Y-94861980D01*
X144113960Y-94861982D01*
X144213141Y-94923392D01*
X144287363Y-94969348D01*
X144477544Y-95043024D01*
X144678024Y-95080500D01*
X144678026Y-95080500D01*
X144881974Y-95080500D01*
X144881976Y-95080500D01*
X145082456Y-95043024D01*
X145272637Y-94969348D01*
X145446041Y-94861981D01*
X145596764Y-94724579D01*
X145719673Y-94561821D01*
X145810582Y-94379250D01*
X145866397Y-94183083D01*
X145885215Y-93980000D01*
X146214785Y-93980000D01*
X146233602Y-94183082D01*
X146289417Y-94379247D01*
X146289422Y-94379260D01*
X146380327Y-94561821D01*
X146503237Y-94724581D01*
X146653958Y-94861980D01*
X146653960Y-94861982D01*
X146753141Y-94923392D01*
X146827363Y-94969348D01*
X147017544Y-95043024D01*
X147218024Y-95080500D01*
X147218026Y-95080500D01*
X147421974Y-95080500D01*
X147421976Y-95080500D01*
X147622456Y-95043024D01*
X147812637Y-94969348D01*
X147986041Y-94861981D01*
X148136764Y-94724579D01*
X148259673Y-94561821D01*
X148350582Y-94379250D01*
X148406397Y-94183083D01*
X148425215Y-93980000D01*
X148754785Y-93980000D01*
X148773602Y-94183082D01*
X148829417Y-94379247D01*
X148829422Y-94379260D01*
X148920327Y-94561821D01*
X149043237Y-94724581D01*
X149193958Y-94861980D01*
X149193960Y-94861982D01*
X149293141Y-94923392D01*
X149367363Y-94969348D01*
X149557544Y-95043024D01*
X149758024Y-95080500D01*
X149758026Y-95080500D01*
X149961974Y-95080500D01*
X149961976Y-95080500D01*
X150162456Y-95043024D01*
X150352637Y-94969348D01*
X150526041Y-94861981D01*
X150676764Y-94724579D01*
X150799673Y-94561821D01*
X150890582Y-94379250D01*
X150946397Y-94183083D01*
X150965215Y-93980000D01*
X150946397Y-93776917D01*
X150890582Y-93580750D01*
X150875274Y-93550008D01*
X150819160Y-93437314D01*
X150799673Y-93398179D01*
X150676764Y-93235421D01*
X150676762Y-93235418D01*
X150526041Y-93098019D01*
X150526039Y-93098017D01*
X150352642Y-92990655D01*
X150352635Y-92990651D01*
X150226769Y-92941891D01*
X150162456Y-92916976D01*
X149961976Y-92879500D01*
X149758024Y-92879500D01*
X149557544Y-92916976D01*
X149557541Y-92916976D01*
X149557541Y-92916977D01*
X149367364Y-92990651D01*
X149367357Y-92990655D01*
X149193960Y-93098017D01*
X149193958Y-93098019D01*
X149043237Y-93235418D01*
X148920327Y-93398178D01*
X148829422Y-93580739D01*
X148829417Y-93580752D01*
X148773602Y-93776917D01*
X148754785Y-93979999D01*
X148754785Y-93980000D01*
X148425215Y-93980000D01*
X148406397Y-93776917D01*
X148350582Y-93580750D01*
X148335274Y-93550008D01*
X148279160Y-93437314D01*
X148259673Y-93398179D01*
X148136764Y-93235421D01*
X148136762Y-93235418D01*
X147986041Y-93098019D01*
X147986039Y-93098017D01*
X147812642Y-92990655D01*
X147812635Y-92990651D01*
X147686769Y-92941891D01*
X147622456Y-92916976D01*
X147421976Y-92879500D01*
X147218024Y-92879500D01*
X147017544Y-92916976D01*
X147017541Y-92916976D01*
X147017541Y-92916977D01*
X146827364Y-92990651D01*
X146827357Y-92990655D01*
X146653960Y-93098017D01*
X146653958Y-93098019D01*
X146503237Y-93235418D01*
X146380327Y-93398178D01*
X146289422Y-93580739D01*
X146289417Y-93580752D01*
X146233602Y-93776917D01*
X146214785Y-93979999D01*
X146214785Y-93980000D01*
X145885215Y-93980000D01*
X145866397Y-93776917D01*
X145810582Y-93580750D01*
X145795274Y-93550008D01*
X145739160Y-93437314D01*
X145719673Y-93398179D01*
X145596764Y-93235421D01*
X145596762Y-93235418D01*
X145446041Y-93098019D01*
X145446039Y-93098017D01*
X145272642Y-92990655D01*
X145272635Y-92990651D01*
X145146769Y-92941891D01*
X145082456Y-92916976D01*
X144881976Y-92879500D01*
X144678024Y-92879500D01*
X144477544Y-92916976D01*
X144477541Y-92916976D01*
X144477541Y-92916977D01*
X144287364Y-92990651D01*
X144287357Y-92990655D01*
X144113960Y-93098017D01*
X144113958Y-93098019D01*
X143963237Y-93235418D01*
X143840327Y-93398178D01*
X143749422Y-93580739D01*
X143749417Y-93580752D01*
X143693602Y-93776917D01*
X143674785Y-93979999D01*
X143674785Y-93980000D01*
X143345215Y-93980000D01*
X143326397Y-93776917D01*
X143270582Y-93580750D01*
X143255274Y-93550008D01*
X143199160Y-93437314D01*
X143179673Y-93398179D01*
X143056764Y-93235421D01*
X143056762Y-93235418D01*
X142906041Y-93098019D01*
X142906039Y-93098017D01*
X142732642Y-92990655D01*
X142732635Y-92990651D01*
X142606769Y-92941891D01*
X142542456Y-92916976D01*
X142341976Y-92879500D01*
X142138024Y-92879500D01*
X141937544Y-92916976D01*
X141937541Y-92916976D01*
X141937541Y-92916977D01*
X141747364Y-92990651D01*
X141747357Y-92990655D01*
X141573960Y-93098017D01*
X141573958Y-93098019D01*
X141423237Y-93235418D01*
X141300327Y-93398178D01*
X141209422Y-93580739D01*
X141209417Y-93580752D01*
X141153602Y-93776917D01*
X141134785Y-93979999D01*
X141134785Y-93980000D01*
X140805215Y-93980000D01*
X140786397Y-93776917D01*
X140730582Y-93580750D01*
X140715274Y-93550008D01*
X140659160Y-93437314D01*
X140639673Y-93398179D01*
X140516764Y-93235421D01*
X140516762Y-93235418D01*
X140366041Y-93098019D01*
X140366039Y-93098017D01*
X140192642Y-92990655D01*
X140192635Y-92990651D01*
X140066769Y-92941891D01*
X140002456Y-92916976D01*
X139801976Y-92879500D01*
X139598024Y-92879500D01*
X139397544Y-92916976D01*
X139397541Y-92916976D01*
X139397541Y-92916977D01*
X139207364Y-92990651D01*
X139207357Y-92990655D01*
X139033960Y-93098017D01*
X139033958Y-93098019D01*
X138883237Y-93235418D01*
X138760327Y-93398178D01*
X138669422Y-93580739D01*
X138669417Y-93580752D01*
X138613602Y-93776917D01*
X138594785Y-93979999D01*
X138594785Y-93980000D01*
X138265215Y-93980000D01*
X138246397Y-93776917D01*
X138190582Y-93580750D01*
X138175274Y-93550008D01*
X138119160Y-93437314D01*
X138099673Y-93398179D01*
X137976764Y-93235421D01*
X137976762Y-93235418D01*
X137826041Y-93098019D01*
X137826039Y-93098017D01*
X137652642Y-92990655D01*
X137652635Y-92990651D01*
X137526769Y-92941891D01*
X137462456Y-92916976D01*
X137261976Y-92879500D01*
X137058024Y-92879500D01*
X136857544Y-92916976D01*
X136857541Y-92916976D01*
X136857541Y-92916977D01*
X136667364Y-92990651D01*
X136667357Y-92990655D01*
X136493960Y-93098017D01*
X136493958Y-93098019D01*
X136343237Y-93235418D01*
X136220327Y-93398178D01*
X136129422Y-93580739D01*
X136129417Y-93580752D01*
X136073602Y-93776917D01*
X136054785Y-93979999D01*
X136054785Y-93980000D01*
X135725215Y-93980000D01*
X135706397Y-93776917D01*
X135650582Y-93580750D01*
X135635274Y-93550008D01*
X135579160Y-93437314D01*
X135559673Y-93398179D01*
X135436764Y-93235421D01*
X135436762Y-93235418D01*
X135286041Y-93098019D01*
X135286039Y-93098017D01*
X135112642Y-92990655D01*
X135112635Y-92990651D01*
X134986769Y-92941891D01*
X134922456Y-92916976D01*
X134721976Y-92879500D01*
X134518024Y-92879500D01*
X134317544Y-92916976D01*
X134317541Y-92916976D01*
X134317541Y-92916977D01*
X134127364Y-92990651D01*
X134127357Y-92990655D01*
X133953960Y-93098017D01*
X133953958Y-93098019D01*
X133803237Y-93235418D01*
X133680327Y-93398178D01*
X133589422Y-93580739D01*
X133589417Y-93580752D01*
X133533602Y-93776917D01*
X133514785Y-93979999D01*
X133514785Y-93980000D01*
X133185215Y-93980000D01*
X133166397Y-93776917D01*
X133110582Y-93580750D01*
X133095274Y-93550008D01*
X133039160Y-93437314D01*
X133019673Y-93398179D01*
X132896764Y-93235421D01*
X132896762Y-93235418D01*
X132746041Y-93098019D01*
X132746039Y-93098017D01*
X132572642Y-92990655D01*
X132572635Y-92990651D01*
X132446769Y-92941891D01*
X132382456Y-92916976D01*
X132181976Y-92879500D01*
X131978024Y-92879500D01*
X131777544Y-92916976D01*
X131777541Y-92916976D01*
X131777541Y-92916977D01*
X131587364Y-92990651D01*
X131587357Y-92990655D01*
X131413960Y-93098017D01*
X131413958Y-93098019D01*
X131263237Y-93235418D01*
X131140327Y-93398178D01*
X131049422Y-93580739D01*
X131049417Y-93580752D01*
X130993602Y-93776917D01*
X130974785Y-93979999D01*
X130974785Y-93980000D01*
X130645215Y-93980000D01*
X130626397Y-93776917D01*
X130570582Y-93580750D01*
X130555274Y-93550008D01*
X130499160Y-93437314D01*
X130479673Y-93398179D01*
X130356764Y-93235421D01*
X130356762Y-93235418D01*
X130206041Y-93098019D01*
X130206039Y-93098017D01*
X130032642Y-92990655D01*
X130032635Y-92990651D01*
X129906769Y-92941891D01*
X129842456Y-92916976D01*
X129641976Y-92879500D01*
X129438024Y-92879500D01*
X129237544Y-92916976D01*
X129237541Y-92916976D01*
X129237541Y-92916977D01*
X129047364Y-92990651D01*
X129047357Y-92990655D01*
X128873960Y-93098017D01*
X128873958Y-93098019D01*
X128723237Y-93235418D01*
X128600327Y-93398178D01*
X128509422Y-93580739D01*
X128509417Y-93580752D01*
X128453602Y-93776917D01*
X128434785Y-93979999D01*
X128434785Y-93980000D01*
X128105215Y-93980000D01*
X128086397Y-93776917D01*
X128030582Y-93580750D01*
X128015274Y-93550008D01*
X127959160Y-93437314D01*
X127939673Y-93398179D01*
X127816764Y-93235421D01*
X127816762Y-93235418D01*
X127666041Y-93098019D01*
X127666039Y-93098017D01*
X127492642Y-92990655D01*
X127492635Y-92990651D01*
X127366769Y-92941891D01*
X127302456Y-92916976D01*
X127101976Y-92879500D01*
X126898024Y-92879500D01*
X126697544Y-92916976D01*
X126697541Y-92916976D01*
X126697541Y-92916977D01*
X126507364Y-92990651D01*
X126507357Y-92990655D01*
X126333960Y-93098017D01*
X126333958Y-93098019D01*
X126183237Y-93235418D01*
X126060327Y-93398178D01*
X125969422Y-93580739D01*
X125969417Y-93580752D01*
X125913602Y-93776917D01*
X125894785Y-93979999D01*
X125894785Y-93980000D01*
X125565215Y-93980000D01*
X125546397Y-93776917D01*
X125490582Y-93580750D01*
X125475274Y-93550008D01*
X125419160Y-93437314D01*
X125399673Y-93398179D01*
X125276764Y-93235421D01*
X125276762Y-93235418D01*
X125126041Y-93098019D01*
X125126039Y-93098017D01*
X124952642Y-92990655D01*
X124952635Y-92990651D01*
X124826769Y-92941891D01*
X124762456Y-92916976D01*
X124561976Y-92879500D01*
X124358024Y-92879500D01*
X124157544Y-92916976D01*
X124157541Y-92916976D01*
X124157541Y-92916977D01*
X123967364Y-92990651D01*
X123967357Y-92990655D01*
X123793960Y-93098017D01*
X123793958Y-93098019D01*
X123643237Y-93235418D01*
X123520327Y-93398178D01*
X123429422Y-93580739D01*
X123429417Y-93580752D01*
X123373602Y-93776917D01*
X123354785Y-93979999D01*
X123354785Y-93980000D01*
X123025215Y-93980000D01*
X123006397Y-93776917D01*
X122950582Y-93580750D01*
X122935274Y-93550008D01*
X122879160Y-93437314D01*
X122859673Y-93398179D01*
X122736764Y-93235421D01*
X122736762Y-93235418D01*
X122586041Y-93098019D01*
X122586039Y-93098017D01*
X122412642Y-92990655D01*
X122412635Y-92990651D01*
X122286769Y-92941891D01*
X122222456Y-92916976D01*
X122021976Y-92879500D01*
X121818024Y-92879500D01*
X121617544Y-92916976D01*
X121617541Y-92916976D01*
X121617541Y-92916977D01*
X121427364Y-92990651D01*
X121427357Y-92990655D01*
X121253960Y-93098017D01*
X121253958Y-93098019D01*
X121103237Y-93235418D01*
X120980327Y-93398178D01*
X120889422Y-93580739D01*
X120889417Y-93580752D01*
X120833602Y-93776917D01*
X120814785Y-93979999D01*
X120814785Y-93980000D01*
X120485215Y-93980000D01*
X120466397Y-93776917D01*
X120410582Y-93580750D01*
X120395274Y-93550008D01*
X120339160Y-93437314D01*
X120319673Y-93398179D01*
X120196764Y-93235421D01*
X120196762Y-93235418D01*
X120046041Y-93098019D01*
X120046039Y-93098017D01*
X119872642Y-92990655D01*
X119872635Y-92990651D01*
X119746769Y-92941891D01*
X119682456Y-92916976D01*
X119481976Y-92879500D01*
X119278024Y-92879500D01*
X119077544Y-92916976D01*
X119077541Y-92916976D01*
X119077541Y-92916977D01*
X118887364Y-92990651D01*
X118887357Y-92990655D01*
X118713960Y-93098017D01*
X118713958Y-93098019D01*
X118563237Y-93235418D01*
X118440327Y-93398178D01*
X118349422Y-93580739D01*
X118349417Y-93580752D01*
X118293602Y-93776917D01*
X118274785Y-93979999D01*
X118274785Y-93980000D01*
X117945215Y-93980000D01*
X117926397Y-93776917D01*
X117870582Y-93580750D01*
X117855274Y-93550008D01*
X117799160Y-93437314D01*
X117779673Y-93398179D01*
X117656764Y-93235421D01*
X117656762Y-93235418D01*
X117506041Y-93098019D01*
X117506039Y-93098017D01*
X117332642Y-92990655D01*
X117332635Y-92990651D01*
X117206769Y-92941891D01*
X117142456Y-92916976D01*
X116941976Y-92879500D01*
X116738024Y-92879500D01*
X116537544Y-92916976D01*
X116537541Y-92916976D01*
X116537541Y-92916977D01*
X116347364Y-92990651D01*
X116347357Y-92990655D01*
X116173960Y-93098017D01*
X116173958Y-93098019D01*
X116023237Y-93235418D01*
X115900327Y-93398178D01*
X115809422Y-93580739D01*
X115809417Y-93580752D01*
X115753602Y-93776917D01*
X115734785Y-93979999D01*
X115734785Y-93980000D01*
X115405215Y-93980000D01*
X115386397Y-93776917D01*
X115330582Y-93580750D01*
X115315274Y-93550008D01*
X115259160Y-93437314D01*
X115239673Y-93398179D01*
X115116764Y-93235421D01*
X115116762Y-93235418D01*
X114966041Y-93098019D01*
X114966039Y-93098017D01*
X114792642Y-92990655D01*
X114792635Y-92990651D01*
X114666769Y-92941891D01*
X114602456Y-92916976D01*
X114401976Y-92879500D01*
X114198024Y-92879500D01*
X113997544Y-92916976D01*
X113997541Y-92916976D01*
X113997541Y-92916977D01*
X113807364Y-92990651D01*
X113807357Y-92990655D01*
X113633960Y-93098017D01*
X113633958Y-93098019D01*
X113483237Y-93235418D01*
X113360327Y-93398178D01*
X113269422Y-93580739D01*
X113269417Y-93580752D01*
X113213602Y-93776917D01*
X113194785Y-93979999D01*
X113194785Y-93980000D01*
X112865215Y-93980000D01*
X112846397Y-93776917D01*
X112790582Y-93580750D01*
X112775274Y-93550008D01*
X112719160Y-93437314D01*
X112699673Y-93398179D01*
X112576764Y-93235421D01*
X112576762Y-93235418D01*
X112426041Y-93098019D01*
X112426039Y-93098017D01*
X112252642Y-92990655D01*
X112252635Y-92990651D01*
X112126769Y-92941891D01*
X112062456Y-92916976D01*
X111861976Y-92879500D01*
X111658024Y-92879500D01*
X111457544Y-92916976D01*
X111457541Y-92916976D01*
X111457541Y-92916977D01*
X111267364Y-92990651D01*
X111267357Y-92990655D01*
X111093960Y-93098017D01*
X111093958Y-93098019D01*
X110943237Y-93235418D01*
X110820327Y-93398178D01*
X110729422Y-93580739D01*
X110729417Y-93580752D01*
X110673602Y-93776917D01*
X110654785Y-93979999D01*
X110654785Y-93980000D01*
X110325215Y-93980000D01*
X110306397Y-93776917D01*
X110250582Y-93580750D01*
X110235274Y-93550008D01*
X110179160Y-93437314D01*
X110159673Y-93398179D01*
X110036764Y-93235421D01*
X110036762Y-93235418D01*
X109886041Y-93098019D01*
X109886039Y-93098017D01*
X109712642Y-92990655D01*
X109712635Y-92990651D01*
X109586769Y-92941891D01*
X109522456Y-92916976D01*
X109321976Y-92879500D01*
X109118024Y-92879500D01*
X108917544Y-92916976D01*
X108917541Y-92916976D01*
X108917541Y-92916977D01*
X108727364Y-92990651D01*
X108727357Y-92990655D01*
X108553960Y-93098017D01*
X108553958Y-93098019D01*
X108403237Y-93235418D01*
X108280327Y-93398178D01*
X108189422Y-93580739D01*
X108189417Y-93580752D01*
X108133602Y-93776917D01*
X108114785Y-93979999D01*
X108114785Y-93980000D01*
X108133602Y-94183082D01*
X108189417Y-94379247D01*
X108189422Y-94379260D01*
X108280328Y-94561824D01*
X108301713Y-94590142D01*
X108326405Y-94655503D01*
X108311840Y-94723838D01*
X108262642Y-94773450D01*
X108250214Y-94779428D01*
X108221161Y-94791462D01*
X108095718Y-94887718D01*
X107999463Y-95013160D01*
X107938956Y-95159237D01*
X107938955Y-95159239D01*
X107918318Y-95315998D01*
X107918318Y-95316001D01*
X99310500Y-95316001D01*
X99310500Y-94854678D01*
X100499500Y-94854678D01*
X100514032Y-94927735D01*
X100514033Y-94927739D01*
X100514034Y-94927740D01*
X100569399Y-95010601D01*
X100652260Y-95065966D01*
X100652264Y-95065967D01*
X100725321Y-95080499D01*
X100725324Y-95080500D01*
X100725326Y-95080500D01*
X102474676Y-95080500D01*
X102474677Y-95080499D01*
X102547740Y-95065966D01*
X102630601Y-95010601D01*
X102685966Y-94927740D01*
X102700500Y-94854674D01*
X102700500Y-94646681D01*
X102720185Y-94579642D01*
X102772989Y-94533887D01*
X102842147Y-94523943D01*
X102905703Y-94552968D01*
X102936882Y-94594277D01*
X102966398Y-94657575D01*
X102966399Y-94657577D01*
X103101894Y-94851082D01*
X103268917Y-95018105D01*
X103462421Y-95153600D01*
X103676507Y-95253429D01*
X103676516Y-95253433D01*
X103890000Y-95310634D01*
X103890000Y-94592301D01*
X103909685Y-94525262D01*
X103962489Y-94479507D01*
X104031647Y-94469563D01*
X104104237Y-94480000D01*
X104104238Y-94480000D01*
X104175762Y-94480000D01*
X104175763Y-94480000D01*
X104248353Y-94469563D01*
X104317512Y-94479507D01*
X104370315Y-94525262D01*
X104390000Y-94592301D01*
X104390000Y-95310633D01*
X104603483Y-95253433D01*
X104603492Y-95253429D01*
X104817578Y-95153600D01*
X105011082Y-95018105D01*
X105178105Y-94851082D01*
X105313600Y-94657578D01*
X105413429Y-94443492D01*
X105413431Y-94443489D01*
X105422406Y-94409992D01*
X105458770Y-94350331D01*
X105521616Y-94319800D01*
X105590992Y-94328094D01*
X105644871Y-94372578D01*
X105653182Y-94386811D01*
X105740327Y-94561821D01*
X105863237Y-94724581D01*
X106013958Y-94861980D01*
X106013960Y-94861982D01*
X106113141Y-94923392D01*
X106187363Y-94969348D01*
X106377544Y-95043024D01*
X106578024Y-95080500D01*
X106578026Y-95080500D01*
X106781974Y-95080500D01*
X106781976Y-95080500D01*
X106982456Y-95043024D01*
X107172637Y-94969348D01*
X107346041Y-94861981D01*
X107496764Y-94724579D01*
X107619673Y-94561821D01*
X107710582Y-94379250D01*
X107766397Y-94183083D01*
X107785215Y-93980000D01*
X107766397Y-93776917D01*
X107710582Y-93580750D01*
X107695274Y-93550008D01*
X107639160Y-93437314D01*
X107619673Y-93398179D01*
X107496764Y-93235421D01*
X107496762Y-93235418D01*
X107346041Y-93098019D01*
X107346039Y-93098017D01*
X107172642Y-92990655D01*
X107172635Y-92990651D01*
X107046769Y-92941891D01*
X106982456Y-92916976D01*
X106781976Y-92879500D01*
X106578024Y-92879500D01*
X106377544Y-92916976D01*
X106377541Y-92916976D01*
X106377541Y-92916977D01*
X106187364Y-92990651D01*
X106187357Y-92990655D01*
X106013960Y-93098017D01*
X106013958Y-93098019D01*
X105863237Y-93235418D01*
X105740327Y-93398178D01*
X105653182Y-93573188D01*
X105605679Y-93624425D01*
X105538016Y-93641846D01*
X105471676Y-93619920D01*
X105427721Y-93565609D01*
X105422407Y-93550008D01*
X105413434Y-93516518D01*
X105413429Y-93516507D01*
X105313600Y-93302422D01*
X105313599Y-93302420D01*
X105178113Y-93108926D01*
X105178108Y-93108920D01*
X105011082Y-92941894D01*
X104817578Y-92806399D01*
X104603492Y-92706570D01*
X104603486Y-92706567D01*
X104390000Y-92649364D01*
X104390000Y-93367698D01*
X104370315Y-93434737D01*
X104317511Y-93480492D01*
X104248355Y-93490436D01*
X104175766Y-93480000D01*
X104175763Y-93480000D01*
X104104237Y-93480000D01*
X104104233Y-93480000D01*
X104031645Y-93490436D01*
X103962487Y-93480492D01*
X103909684Y-93434736D01*
X103890000Y-93367698D01*
X103890000Y-92649364D01*
X103889999Y-92649364D01*
X103676513Y-92706567D01*
X103676507Y-92706570D01*
X103462422Y-92806399D01*
X103462420Y-92806400D01*
X103268926Y-92941886D01*
X103268920Y-92941891D01*
X103101891Y-93108920D01*
X103101886Y-93108926D01*
X102966400Y-93302420D01*
X102966399Y-93302422D01*
X102936882Y-93365723D01*
X102890710Y-93418162D01*
X102823516Y-93437314D01*
X102756635Y-93417098D01*
X102711300Y-93363933D01*
X102700500Y-93313318D01*
X102700500Y-93105323D01*
X102700499Y-93105321D01*
X102685967Y-93032264D01*
X102685966Y-93032260D01*
X102685965Y-93032260D01*
X102630601Y-92949399D01*
X102547740Y-92894034D01*
X102547739Y-92894033D01*
X102547735Y-92894032D01*
X102474677Y-92879500D01*
X102474674Y-92879500D01*
X100725326Y-92879500D01*
X100725323Y-92879500D01*
X100652264Y-92894032D01*
X100652260Y-92894033D01*
X100569399Y-92949399D01*
X100514033Y-93032260D01*
X100514032Y-93032264D01*
X100499500Y-93105321D01*
X100499500Y-94854678D01*
X99310500Y-94854678D01*
X99310500Y-92751290D01*
X99330185Y-92684251D01*
X99382989Y-92638496D01*
X99452147Y-92628552D01*
X99481944Y-92636726D01*
X99538238Y-92660044D01*
X99616618Y-92670363D01*
X99694999Y-92680682D01*
X99695000Y-92680682D01*
X99695001Y-92680682D01*
X99747254Y-92673802D01*
X99851762Y-92660044D01*
X99997841Y-92599536D01*
X100123282Y-92503282D01*
X100219536Y-92377841D01*
X100280044Y-92231762D01*
X100300682Y-92075000D01*
X100280044Y-91918238D01*
X100256730Y-91861952D01*
X100249261Y-91792483D01*
X100280536Y-91730004D01*
X100340626Y-91694352D01*
X100371291Y-91690500D01*
X151088709Y-91690500D01*
X151155748Y-91710185D01*
G37*
%TD.AperFunction*%
%TD*%
M02*
