%TF.GenerationSoftware,KiCad,Pcbnew,7.0.7*%
%TF.CreationDate,2023-11-28T23:11:37+01:00*%
%TF.ProjectId,STM32G474_Black-Pill_v3.0,53544d33-3247-4343-9734-5f426c61636b,A*%
%TF.SameCoordinates,Original*%
%TF.FileFunction,Legend,Top*%
%TF.FilePolarity,Positive*%
%FSLAX46Y46*%
G04 Gerber Fmt 4.6, Leading zero omitted, Abs format (unit mm)*
G04 Created by KiCad (PCBNEW 7.0.7) date 2023-11-28 23:11:37*
%MOMM*%
%LPD*%
G01*
G04 APERTURE LIST*
%ADD10C,0.200000*%
%ADD11C,0.120000*%
G04 APERTURE END LIST*
D10*
X139492421Y-97133695D02*
X139111469Y-97133695D01*
X139111469Y-97133695D02*
X139111469Y-96333695D01*
X139759088Y-96714647D02*
X140025754Y-96714647D01*
X140140040Y-97133695D02*
X139759088Y-97133695D01*
X139759088Y-97133695D02*
X139759088Y-96333695D01*
X139759088Y-96333695D02*
X140140040Y-96333695D01*
X140482898Y-97133695D02*
X140482898Y-96333695D01*
X140482898Y-96333695D02*
X140673374Y-96333695D01*
X140673374Y-96333695D02*
X140787660Y-96371790D01*
X140787660Y-96371790D02*
X140863850Y-96447980D01*
X140863850Y-96447980D02*
X140901945Y-96524171D01*
X140901945Y-96524171D02*
X140940041Y-96676552D01*
X140940041Y-96676552D02*
X140940041Y-96790838D01*
X140940041Y-96790838D02*
X140901945Y-96943219D01*
X140901945Y-96943219D02*
X140863850Y-97019409D01*
X140863850Y-97019409D02*
X140787660Y-97095600D01*
X140787660Y-97095600D02*
X140673374Y-97133695D01*
X140673374Y-97133695D02*
X140482898Y-97133695D01*
X136836190Y-110898647D02*
X136950476Y-110936742D01*
X136950476Y-110936742D02*
X136988571Y-110974838D01*
X136988571Y-110974838D02*
X137026667Y-111051028D01*
X137026667Y-111051028D02*
X137026667Y-111165314D01*
X137026667Y-111165314D02*
X136988571Y-111241504D01*
X136988571Y-111241504D02*
X136950476Y-111279600D01*
X136950476Y-111279600D02*
X136874286Y-111317695D01*
X136874286Y-111317695D02*
X136569524Y-111317695D01*
X136569524Y-111317695D02*
X136569524Y-110517695D01*
X136569524Y-110517695D02*
X136836190Y-110517695D01*
X136836190Y-110517695D02*
X136912381Y-110555790D01*
X136912381Y-110555790D02*
X136950476Y-110593885D01*
X136950476Y-110593885D02*
X136988571Y-110670076D01*
X136988571Y-110670076D02*
X136988571Y-110746266D01*
X136988571Y-110746266D02*
X136950476Y-110822457D01*
X136950476Y-110822457D02*
X136912381Y-110860552D01*
X136912381Y-110860552D02*
X136836190Y-110898647D01*
X136836190Y-110898647D02*
X136569524Y-110898647D01*
X137293333Y-110517695D02*
X137826667Y-110517695D01*
X137826667Y-110517695D02*
X137483809Y-111317695D01*
X141268571Y-92601695D02*
X141268571Y-91801695D01*
X141268571Y-91801695D02*
X141573333Y-91801695D01*
X141573333Y-91801695D02*
X141649523Y-91839790D01*
X141649523Y-91839790D02*
X141687618Y-91877885D01*
X141687618Y-91877885D02*
X141725714Y-91954076D01*
X141725714Y-91954076D02*
X141725714Y-92068361D01*
X141725714Y-92068361D02*
X141687618Y-92144552D01*
X141687618Y-92144552D02*
X141649523Y-92182647D01*
X141649523Y-92182647D02*
X141573333Y-92220742D01*
X141573333Y-92220742D02*
X141268571Y-92220742D01*
X142487618Y-92601695D02*
X142030475Y-92601695D01*
X142259047Y-92601695D02*
X142259047Y-91801695D01*
X142259047Y-91801695D02*
X142182856Y-91915980D01*
X142182856Y-91915980D02*
X142106666Y-91992171D01*
X142106666Y-91992171D02*
X142030475Y-92030266D01*
X142754285Y-91801695D02*
X143287619Y-91801695D01*
X143287619Y-91801695D02*
X142944761Y-92601695D01*
X148869523Y-110517695D02*
X149364761Y-110517695D01*
X149364761Y-110517695D02*
X149098095Y-110822457D01*
X149098095Y-110822457D02*
X149212380Y-110822457D01*
X149212380Y-110822457D02*
X149288571Y-110860552D01*
X149288571Y-110860552D02*
X149326666Y-110898647D01*
X149326666Y-110898647D02*
X149364761Y-110974838D01*
X149364761Y-110974838D02*
X149364761Y-111165314D01*
X149364761Y-111165314D02*
X149326666Y-111241504D01*
X149326666Y-111241504D02*
X149288571Y-111279600D01*
X149288571Y-111279600D02*
X149212380Y-111317695D01*
X149212380Y-111317695D02*
X148983809Y-111317695D01*
X148983809Y-111317695D02*
X148907618Y-111279600D01*
X148907618Y-111279600D02*
X148869523Y-111241504D01*
X149593333Y-110517695D02*
X149860000Y-111317695D01*
X149860000Y-111317695D02*
X150126666Y-110517695D01*
X150317142Y-110517695D02*
X150812380Y-110517695D01*
X150812380Y-110517695D02*
X150545714Y-110822457D01*
X150545714Y-110822457D02*
X150659999Y-110822457D01*
X150659999Y-110822457D02*
X150736190Y-110860552D01*
X150736190Y-110860552D02*
X150774285Y-110898647D01*
X150774285Y-110898647D02*
X150812380Y-110974838D01*
X150812380Y-110974838D02*
X150812380Y-111165314D01*
X150812380Y-111165314D02*
X150774285Y-111241504D01*
X150774285Y-111241504D02*
X150736190Y-111279600D01*
X150736190Y-111279600D02*
X150659999Y-111317695D01*
X150659999Y-111317695D02*
X150431428Y-111317695D01*
X150431428Y-111317695D02*
X150355237Y-111279600D01*
X150355237Y-111279600D02*
X150317142Y-111241504D01*
X105975237Y-110898647D02*
X106089523Y-110936742D01*
X106089523Y-110936742D02*
X106127618Y-110974838D01*
X106127618Y-110974838D02*
X106165714Y-111051028D01*
X106165714Y-111051028D02*
X106165714Y-111165314D01*
X106165714Y-111165314D02*
X106127618Y-111241504D01*
X106127618Y-111241504D02*
X106089523Y-111279600D01*
X106089523Y-111279600D02*
X106013333Y-111317695D01*
X106013333Y-111317695D02*
X105708571Y-111317695D01*
X105708571Y-111317695D02*
X105708571Y-110517695D01*
X105708571Y-110517695D02*
X105975237Y-110517695D01*
X105975237Y-110517695D02*
X106051428Y-110555790D01*
X106051428Y-110555790D02*
X106089523Y-110593885D01*
X106089523Y-110593885D02*
X106127618Y-110670076D01*
X106127618Y-110670076D02*
X106127618Y-110746266D01*
X106127618Y-110746266D02*
X106089523Y-110822457D01*
X106089523Y-110822457D02*
X106051428Y-110860552D01*
X106051428Y-110860552D02*
X105975237Y-110898647D01*
X105975237Y-110898647D02*
X105708571Y-110898647D01*
X106927618Y-111317695D02*
X106470475Y-111317695D01*
X106699047Y-111317695D02*
X106699047Y-110517695D01*
X106699047Y-110517695D02*
X106622856Y-110631980D01*
X106622856Y-110631980D02*
X106546666Y-110708171D01*
X106546666Y-110708171D02*
X106470475Y-110746266D01*
X107613333Y-110784361D02*
X107613333Y-111317695D01*
X107422857Y-110479600D02*
X107232380Y-111051028D01*
X107232380Y-111051028D02*
X107727619Y-111051028D01*
X134048571Y-92373123D02*
X134429524Y-92373123D01*
X133972381Y-92601695D02*
X134239048Y-91801695D01*
X134239048Y-91801695D02*
X134505714Y-92601695D01*
X135191428Y-92601695D02*
X134734285Y-92601695D01*
X134962857Y-92601695D02*
X134962857Y-91801695D01*
X134962857Y-91801695D02*
X134886666Y-91915980D01*
X134886666Y-91915980D02*
X134810476Y-91992171D01*
X134810476Y-91992171D02*
X134734285Y-92030266D01*
X116516190Y-92182647D02*
X116630476Y-92220742D01*
X116630476Y-92220742D02*
X116668571Y-92258838D01*
X116668571Y-92258838D02*
X116706667Y-92335028D01*
X116706667Y-92335028D02*
X116706667Y-92449314D01*
X116706667Y-92449314D02*
X116668571Y-92525504D01*
X116668571Y-92525504D02*
X116630476Y-92563600D01*
X116630476Y-92563600D02*
X116554286Y-92601695D01*
X116554286Y-92601695D02*
X116249524Y-92601695D01*
X116249524Y-92601695D02*
X116249524Y-91801695D01*
X116249524Y-91801695D02*
X116516190Y-91801695D01*
X116516190Y-91801695D02*
X116592381Y-91839790D01*
X116592381Y-91839790D02*
X116630476Y-91877885D01*
X116630476Y-91877885D02*
X116668571Y-91954076D01*
X116668571Y-91954076D02*
X116668571Y-92030266D01*
X116668571Y-92030266D02*
X116630476Y-92106457D01*
X116630476Y-92106457D02*
X116592381Y-92144552D01*
X116592381Y-92144552D02*
X116516190Y-92182647D01*
X116516190Y-92182647D02*
X116249524Y-92182647D01*
X117201905Y-91801695D02*
X117278095Y-91801695D01*
X117278095Y-91801695D02*
X117354286Y-91839790D01*
X117354286Y-91839790D02*
X117392381Y-91877885D01*
X117392381Y-91877885D02*
X117430476Y-91954076D01*
X117430476Y-91954076D02*
X117468571Y-92106457D01*
X117468571Y-92106457D02*
X117468571Y-92296933D01*
X117468571Y-92296933D02*
X117430476Y-92449314D01*
X117430476Y-92449314D02*
X117392381Y-92525504D01*
X117392381Y-92525504D02*
X117354286Y-92563600D01*
X117354286Y-92563600D02*
X117278095Y-92601695D01*
X117278095Y-92601695D02*
X117201905Y-92601695D01*
X117201905Y-92601695D02*
X117125714Y-92563600D01*
X117125714Y-92563600D02*
X117087619Y-92525504D01*
X117087619Y-92525504D02*
X117049524Y-92449314D01*
X117049524Y-92449314D02*
X117011428Y-92296933D01*
X117011428Y-92296933D02*
X117011428Y-92106457D01*
X117011428Y-92106457D02*
X117049524Y-91954076D01*
X117049524Y-91954076D02*
X117087619Y-91877885D01*
X117087619Y-91877885D02*
X117125714Y-91839790D01*
X117125714Y-91839790D02*
X117201905Y-91801695D01*
X128968571Y-92373123D02*
X129349524Y-92373123D01*
X128892381Y-92601695D02*
X129159048Y-91801695D01*
X129159048Y-91801695D02*
X129425714Y-92601695D01*
X129616190Y-91801695D02*
X130111428Y-91801695D01*
X130111428Y-91801695D02*
X129844762Y-92106457D01*
X129844762Y-92106457D02*
X129959047Y-92106457D01*
X129959047Y-92106457D02*
X130035238Y-92144552D01*
X130035238Y-92144552D02*
X130073333Y-92182647D01*
X130073333Y-92182647D02*
X130111428Y-92258838D01*
X130111428Y-92258838D02*
X130111428Y-92449314D01*
X130111428Y-92449314D02*
X130073333Y-92525504D01*
X130073333Y-92525504D02*
X130035238Y-92563600D01*
X130035238Y-92563600D02*
X129959047Y-92601695D01*
X129959047Y-92601695D02*
X129730476Y-92601695D01*
X129730476Y-92601695D02*
X129654285Y-92563600D01*
X129654285Y-92563600D02*
X129616190Y-92525504D01*
X129216190Y-110898647D02*
X129330476Y-110936742D01*
X129330476Y-110936742D02*
X129368571Y-110974838D01*
X129368571Y-110974838D02*
X129406667Y-111051028D01*
X129406667Y-111051028D02*
X129406667Y-111165314D01*
X129406667Y-111165314D02*
X129368571Y-111241504D01*
X129368571Y-111241504D02*
X129330476Y-111279600D01*
X129330476Y-111279600D02*
X129254286Y-111317695D01*
X129254286Y-111317695D02*
X128949524Y-111317695D01*
X128949524Y-111317695D02*
X128949524Y-110517695D01*
X128949524Y-110517695D02*
X129216190Y-110517695D01*
X129216190Y-110517695D02*
X129292381Y-110555790D01*
X129292381Y-110555790D02*
X129330476Y-110593885D01*
X129330476Y-110593885D02*
X129368571Y-110670076D01*
X129368571Y-110670076D02*
X129368571Y-110746266D01*
X129368571Y-110746266D02*
X129330476Y-110822457D01*
X129330476Y-110822457D02*
X129292381Y-110860552D01*
X129292381Y-110860552D02*
X129216190Y-110898647D01*
X129216190Y-110898647D02*
X128949524Y-110898647D01*
X130092381Y-110784361D02*
X130092381Y-111317695D01*
X129901905Y-110479600D02*
X129711428Y-111051028D01*
X129711428Y-111051028D02*
X130206667Y-111051028D01*
X115887618Y-111089123D02*
X116268571Y-111089123D01*
X115811428Y-111317695D02*
X116078095Y-110517695D01*
X116078095Y-110517695D02*
X116344761Y-111317695D01*
X117030475Y-111317695D02*
X116573332Y-111317695D01*
X116801904Y-111317695D02*
X116801904Y-110517695D01*
X116801904Y-110517695D02*
X116725713Y-110631980D01*
X116725713Y-110631980D02*
X116649523Y-110708171D01*
X116649523Y-110708171D02*
X116573332Y-110746266D01*
X117525714Y-110517695D02*
X117601904Y-110517695D01*
X117601904Y-110517695D02*
X117678095Y-110555790D01*
X117678095Y-110555790D02*
X117716190Y-110593885D01*
X117716190Y-110593885D02*
X117754285Y-110670076D01*
X117754285Y-110670076D02*
X117792380Y-110822457D01*
X117792380Y-110822457D02*
X117792380Y-111012933D01*
X117792380Y-111012933D02*
X117754285Y-111165314D01*
X117754285Y-111165314D02*
X117716190Y-111241504D01*
X117716190Y-111241504D02*
X117678095Y-111279600D01*
X117678095Y-111279600D02*
X117601904Y-111317695D01*
X117601904Y-111317695D02*
X117525714Y-111317695D01*
X117525714Y-111317695D02*
X117449523Y-111279600D01*
X117449523Y-111279600D02*
X117411428Y-111241504D01*
X117411428Y-111241504D02*
X117373333Y-111165314D01*
X117373333Y-111165314D02*
X117335237Y-111012933D01*
X117335237Y-111012933D02*
X117335237Y-110822457D01*
X117335237Y-110822457D02*
X117373333Y-110670076D01*
X117373333Y-110670076D02*
X117411428Y-110593885D01*
X117411428Y-110593885D02*
X117449523Y-110555790D01*
X117449523Y-110555790D02*
X117525714Y-110517695D01*
X134296190Y-110898647D02*
X134410476Y-110936742D01*
X134410476Y-110936742D02*
X134448571Y-110974838D01*
X134448571Y-110974838D02*
X134486667Y-111051028D01*
X134486667Y-111051028D02*
X134486667Y-111165314D01*
X134486667Y-111165314D02*
X134448571Y-111241504D01*
X134448571Y-111241504D02*
X134410476Y-111279600D01*
X134410476Y-111279600D02*
X134334286Y-111317695D01*
X134334286Y-111317695D02*
X134029524Y-111317695D01*
X134029524Y-111317695D02*
X134029524Y-110517695D01*
X134029524Y-110517695D02*
X134296190Y-110517695D01*
X134296190Y-110517695D02*
X134372381Y-110555790D01*
X134372381Y-110555790D02*
X134410476Y-110593885D01*
X134410476Y-110593885D02*
X134448571Y-110670076D01*
X134448571Y-110670076D02*
X134448571Y-110746266D01*
X134448571Y-110746266D02*
X134410476Y-110822457D01*
X134410476Y-110822457D02*
X134372381Y-110860552D01*
X134372381Y-110860552D02*
X134296190Y-110898647D01*
X134296190Y-110898647D02*
X134029524Y-110898647D01*
X135172381Y-110517695D02*
X135020000Y-110517695D01*
X135020000Y-110517695D02*
X134943809Y-110555790D01*
X134943809Y-110555790D02*
X134905714Y-110593885D01*
X134905714Y-110593885D02*
X134829524Y-110708171D01*
X134829524Y-110708171D02*
X134791428Y-110860552D01*
X134791428Y-110860552D02*
X134791428Y-111165314D01*
X134791428Y-111165314D02*
X134829524Y-111241504D01*
X134829524Y-111241504D02*
X134867619Y-111279600D01*
X134867619Y-111279600D02*
X134943809Y-111317695D01*
X134943809Y-111317695D02*
X135096190Y-111317695D01*
X135096190Y-111317695D02*
X135172381Y-111279600D01*
X135172381Y-111279600D02*
X135210476Y-111241504D01*
X135210476Y-111241504D02*
X135248571Y-111165314D01*
X135248571Y-111165314D02*
X135248571Y-110974838D01*
X135248571Y-110974838D02*
X135210476Y-110898647D01*
X135210476Y-110898647D02*
X135172381Y-110860552D01*
X135172381Y-110860552D02*
X135096190Y-110822457D01*
X135096190Y-110822457D02*
X134943809Y-110822457D01*
X134943809Y-110822457D02*
X134867619Y-110860552D01*
X134867619Y-110860552D02*
X134829524Y-110898647D01*
X134829524Y-110898647D02*
X134791428Y-110974838D01*
X138768612Y-106785695D02*
X138768612Y-105985695D01*
X138768612Y-105985695D02*
X139073374Y-105985695D01*
X139073374Y-105985695D02*
X139149564Y-106023790D01*
X139149564Y-106023790D02*
X139187659Y-106061885D01*
X139187659Y-106061885D02*
X139225755Y-106138076D01*
X139225755Y-106138076D02*
X139225755Y-106252361D01*
X139225755Y-106252361D02*
X139187659Y-106328552D01*
X139187659Y-106328552D02*
X139149564Y-106366647D01*
X139149564Y-106366647D02*
X139073374Y-106404742D01*
X139073374Y-106404742D02*
X138768612Y-106404742D01*
X139492421Y-105985695D02*
X139682897Y-106785695D01*
X139682897Y-106785695D02*
X139835278Y-106214266D01*
X139835278Y-106214266D02*
X139987659Y-106785695D01*
X139987659Y-106785695D02*
X140178136Y-105985695D01*
X140940041Y-106785695D02*
X140673374Y-106404742D01*
X140482898Y-106785695D02*
X140482898Y-105985695D01*
X140482898Y-105985695D02*
X140787660Y-105985695D01*
X140787660Y-105985695D02*
X140863850Y-106023790D01*
X140863850Y-106023790D02*
X140901945Y-106061885D01*
X140901945Y-106061885D02*
X140940041Y-106138076D01*
X140940041Y-106138076D02*
X140940041Y-106252361D01*
X140940041Y-106252361D02*
X140901945Y-106328552D01*
X140901945Y-106328552D02*
X140863850Y-106366647D01*
X140863850Y-106366647D02*
X140787660Y-106404742D01*
X140787660Y-106404742D02*
X140482898Y-106404742D01*
X118427618Y-111089123D02*
X118808571Y-111089123D01*
X118351428Y-111317695D02*
X118618095Y-110517695D01*
X118618095Y-110517695D02*
X118884761Y-111317695D01*
X119570475Y-111317695D02*
X119113332Y-111317695D01*
X119341904Y-111317695D02*
X119341904Y-110517695D01*
X119341904Y-110517695D02*
X119265713Y-110631980D01*
X119265713Y-110631980D02*
X119189523Y-110708171D01*
X119189523Y-110708171D02*
X119113332Y-110746266D01*
X120332380Y-111317695D02*
X119875237Y-111317695D01*
X120103809Y-111317695D02*
X120103809Y-110517695D01*
X120103809Y-110517695D02*
X120027618Y-110631980D01*
X120027618Y-110631980D02*
X119951428Y-110708171D01*
X119951428Y-110708171D02*
X119875237Y-110746266D01*
X120967618Y-111089123D02*
X121348571Y-111089123D01*
X120891428Y-111317695D02*
X121158095Y-110517695D01*
X121158095Y-110517695D02*
X121424761Y-111317695D01*
X122110475Y-111317695D02*
X121653332Y-111317695D01*
X121881904Y-111317695D02*
X121881904Y-110517695D01*
X121881904Y-110517695D02*
X121805713Y-110631980D01*
X121805713Y-110631980D02*
X121729523Y-110708171D01*
X121729523Y-110708171D02*
X121653332Y-110746266D01*
X122415237Y-110593885D02*
X122453333Y-110555790D01*
X122453333Y-110555790D02*
X122529523Y-110517695D01*
X122529523Y-110517695D02*
X122719999Y-110517695D01*
X122719999Y-110517695D02*
X122796190Y-110555790D01*
X122796190Y-110555790D02*
X122834285Y-110593885D01*
X122834285Y-110593885D02*
X122872380Y-110670076D01*
X122872380Y-110670076D02*
X122872380Y-110746266D01*
X122872380Y-110746266D02*
X122834285Y-110860552D01*
X122834285Y-110860552D02*
X122377142Y-111317695D01*
X122377142Y-111317695D02*
X122872380Y-111317695D01*
X141916190Y-110898647D02*
X142030476Y-110936742D01*
X142030476Y-110936742D02*
X142068571Y-110974838D01*
X142068571Y-110974838D02*
X142106667Y-111051028D01*
X142106667Y-111051028D02*
X142106667Y-111165314D01*
X142106667Y-111165314D02*
X142068571Y-111241504D01*
X142068571Y-111241504D02*
X142030476Y-111279600D01*
X142030476Y-111279600D02*
X141954286Y-111317695D01*
X141954286Y-111317695D02*
X141649524Y-111317695D01*
X141649524Y-111317695D02*
X141649524Y-110517695D01*
X141649524Y-110517695D02*
X141916190Y-110517695D01*
X141916190Y-110517695D02*
X141992381Y-110555790D01*
X141992381Y-110555790D02*
X142030476Y-110593885D01*
X142030476Y-110593885D02*
X142068571Y-110670076D01*
X142068571Y-110670076D02*
X142068571Y-110746266D01*
X142068571Y-110746266D02*
X142030476Y-110822457D01*
X142030476Y-110822457D02*
X141992381Y-110860552D01*
X141992381Y-110860552D02*
X141916190Y-110898647D01*
X141916190Y-110898647D02*
X141649524Y-110898647D01*
X142487619Y-111317695D02*
X142640000Y-111317695D01*
X142640000Y-111317695D02*
X142716190Y-111279600D01*
X142716190Y-111279600D02*
X142754286Y-111241504D01*
X142754286Y-111241504D02*
X142830476Y-111127219D01*
X142830476Y-111127219D02*
X142868571Y-110974838D01*
X142868571Y-110974838D02*
X142868571Y-110670076D01*
X142868571Y-110670076D02*
X142830476Y-110593885D01*
X142830476Y-110593885D02*
X142792381Y-110555790D01*
X142792381Y-110555790D02*
X142716190Y-110517695D01*
X142716190Y-110517695D02*
X142563809Y-110517695D01*
X142563809Y-110517695D02*
X142487619Y-110555790D01*
X142487619Y-110555790D02*
X142449524Y-110593885D01*
X142449524Y-110593885D02*
X142411428Y-110670076D01*
X142411428Y-110670076D02*
X142411428Y-110860552D01*
X142411428Y-110860552D02*
X142449524Y-110936742D01*
X142449524Y-110936742D02*
X142487619Y-110974838D01*
X142487619Y-110974838D02*
X142563809Y-111012933D01*
X142563809Y-111012933D02*
X142716190Y-111012933D01*
X142716190Y-111012933D02*
X142792381Y-110974838D01*
X142792381Y-110974838D02*
X142830476Y-110936742D01*
X142830476Y-110936742D02*
X142868571Y-110860552D01*
X126428571Y-92373123D02*
X126809524Y-92373123D01*
X126352381Y-92601695D02*
X126619048Y-91801695D01*
X126619048Y-91801695D02*
X126885714Y-92601695D01*
X127495238Y-92068361D02*
X127495238Y-92601695D01*
X127304762Y-91763600D02*
X127114285Y-92335028D01*
X127114285Y-92335028D02*
X127609524Y-92335028D01*
X139261905Y-92601695D02*
X138995238Y-92220742D01*
X138804762Y-92601695D02*
X138804762Y-91801695D01*
X138804762Y-91801695D02*
X139109524Y-91801695D01*
X139109524Y-91801695D02*
X139185714Y-91839790D01*
X139185714Y-91839790D02*
X139223809Y-91877885D01*
X139223809Y-91877885D02*
X139261905Y-91954076D01*
X139261905Y-91954076D02*
X139261905Y-92068361D01*
X139261905Y-92068361D02*
X139223809Y-92144552D01*
X139223809Y-92144552D02*
X139185714Y-92182647D01*
X139185714Y-92182647D02*
X139109524Y-92220742D01*
X139109524Y-92220742D02*
X138804762Y-92220742D01*
X139566666Y-92563600D02*
X139680952Y-92601695D01*
X139680952Y-92601695D02*
X139871428Y-92601695D01*
X139871428Y-92601695D02*
X139947619Y-92563600D01*
X139947619Y-92563600D02*
X139985714Y-92525504D01*
X139985714Y-92525504D02*
X140023809Y-92449314D01*
X140023809Y-92449314D02*
X140023809Y-92373123D01*
X140023809Y-92373123D02*
X139985714Y-92296933D01*
X139985714Y-92296933D02*
X139947619Y-92258838D01*
X139947619Y-92258838D02*
X139871428Y-92220742D01*
X139871428Y-92220742D02*
X139719047Y-92182647D01*
X139719047Y-92182647D02*
X139642857Y-92144552D01*
X139642857Y-92144552D02*
X139604762Y-92106457D01*
X139604762Y-92106457D02*
X139566666Y-92030266D01*
X139566666Y-92030266D02*
X139566666Y-91954076D01*
X139566666Y-91954076D02*
X139604762Y-91877885D01*
X139604762Y-91877885D02*
X139642857Y-91839790D01*
X139642857Y-91839790D02*
X139719047Y-91801695D01*
X139719047Y-91801695D02*
X139909524Y-91801695D01*
X139909524Y-91801695D02*
X140023809Y-91839790D01*
X140252381Y-91801695D02*
X140709524Y-91801695D01*
X140480952Y-92601695D02*
X140480952Y-91801695D01*
X105689523Y-91801695D02*
X106184761Y-91801695D01*
X106184761Y-91801695D02*
X105918095Y-92106457D01*
X105918095Y-92106457D02*
X106032380Y-92106457D01*
X106032380Y-92106457D02*
X106108571Y-92144552D01*
X106108571Y-92144552D02*
X106146666Y-92182647D01*
X106146666Y-92182647D02*
X106184761Y-92258838D01*
X106184761Y-92258838D02*
X106184761Y-92449314D01*
X106184761Y-92449314D02*
X106146666Y-92525504D01*
X106146666Y-92525504D02*
X106108571Y-92563600D01*
X106108571Y-92563600D02*
X106032380Y-92601695D01*
X106032380Y-92601695D02*
X105803809Y-92601695D01*
X105803809Y-92601695D02*
X105727618Y-92563600D01*
X105727618Y-92563600D02*
X105689523Y-92525504D01*
X106413333Y-91801695D02*
X106680000Y-92601695D01*
X106680000Y-92601695D02*
X106946666Y-91801695D01*
X107137142Y-91801695D02*
X107632380Y-91801695D01*
X107632380Y-91801695D02*
X107365714Y-92106457D01*
X107365714Y-92106457D02*
X107479999Y-92106457D01*
X107479999Y-92106457D02*
X107556190Y-92144552D01*
X107556190Y-92144552D02*
X107594285Y-92182647D01*
X107594285Y-92182647D02*
X107632380Y-92258838D01*
X107632380Y-92258838D02*
X107632380Y-92449314D01*
X107632380Y-92449314D02*
X107594285Y-92525504D01*
X107594285Y-92525504D02*
X107556190Y-92563600D01*
X107556190Y-92563600D02*
X107479999Y-92601695D01*
X107479999Y-92601695D02*
X107251428Y-92601695D01*
X107251428Y-92601695D02*
X107175237Y-92563600D01*
X107175237Y-92563600D02*
X107137142Y-92525504D01*
X112985714Y-96665695D02*
X112985714Y-95865695D01*
X112985714Y-95865695D02*
X113442857Y-96665695D01*
X113442857Y-96665695D02*
X113442857Y-95865695D01*
X114280952Y-96665695D02*
X114014285Y-96284742D01*
X113823809Y-96665695D02*
X113823809Y-95865695D01*
X113823809Y-95865695D02*
X114128571Y-95865695D01*
X114128571Y-95865695D02*
X114204761Y-95903790D01*
X114204761Y-95903790D02*
X114242856Y-95941885D01*
X114242856Y-95941885D02*
X114280952Y-96018076D01*
X114280952Y-96018076D02*
X114280952Y-96132361D01*
X114280952Y-96132361D02*
X114242856Y-96208552D01*
X114242856Y-96208552D02*
X114204761Y-96246647D01*
X114204761Y-96246647D02*
X114128571Y-96284742D01*
X114128571Y-96284742D02*
X113823809Y-96284742D01*
X114585713Y-96627600D02*
X114699999Y-96665695D01*
X114699999Y-96665695D02*
X114890475Y-96665695D01*
X114890475Y-96665695D02*
X114966666Y-96627600D01*
X114966666Y-96627600D02*
X115004761Y-96589504D01*
X115004761Y-96589504D02*
X115042856Y-96513314D01*
X115042856Y-96513314D02*
X115042856Y-96437123D01*
X115042856Y-96437123D02*
X115004761Y-96360933D01*
X115004761Y-96360933D02*
X114966666Y-96322838D01*
X114966666Y-96322838D02*
X114890475Y-96284742D01*
X114890475Y-96284742D02*
X114738094Y-96246647D01*
X114738094Y-96246647D02*
X114661904Y-96208552D01*
X114661904Y-96208552D02*
X114623809Y-96170457D01*
X114623809Y-96170457D02*
X114585713Y-96094266D01*
X114585713Y-96094266D02*
X114585713Y-96018076D01*
X114585713Y-96018076D02*
X114623809Y-95941885D01*
X114623809Y-95941885D02*
X114661904Y-95903790D01*
X114661904Y-95903790D02*
X114738094Y-95865695D01*
X114738094Y-95865695D02*
X114928571Y-95865695D01*
X114928571Y-95865695D02*
X115042856Y-95903790D01*
X115271428Y-95865695D02*
X115728571Y-95865695D01*
X115499999Y-96665695D02*
X115499999Y-95865695D01*
X121348571Y-92373123D02*
X121729524Y-92373123D01*
X121272381Y-92601695D02*
X121539048Y-91801695D01*
X121539048Y-91801695D02*
X121805714Y-92601695D01*
X122415238Y-91801695D02*
X122262857Y-91801695D01*
X122262857Y-91801695D02*
X122186666Y-91839790D01*
X122186666Y-91839790D02*
X122148571Y-91877885D01*
X122148571Y-91877885D02*
X122072381Y-91992171D01*
X122072381Y-91992171D02*
X122034285Y-92144552D01*
X122034285Y-92144552D02*
X122034285Y-92449314D01*
X122034285Y-92449314D02*
X122072381Y-92525504D01*
X122072381Y-92525504D02*
X122110476Y-92563600D01*
X122110476Y-92563600D02*
X122186666Y-92601695D01*
X122186666Y-92601695D02*
X122339047Y-92601695D01*
X122339047Y-92601695D02*
X122415238Y-92563600D01*
X122415238Y-92563600D02*
X122453333Y-92525504D01*
X122453333Y-92525504D02*
X122491428Y-92449314D01*
X122491428Y-92449314D02*
X122491428Y-92258838D01*
X122491428Y-92258838D02*
X122453333Y-92182647D01*
X122453333Y-92182647D02*
X122415238Y-92144552D01*
X122415238Y-92144552D02*
X122339047Y-92106457D01*
X122339047Y-92106457D02*
X122186666Y-92106457D01*
X122186666Y-92106457D02*
X122110476Y-92144552D01*
X122110476Y-92144552D02*
X122072381Y-92182647D01*
X122072381Y-92182647D02*
X122034285Y-92258838D01*
X138918647Y-104298666D02*
X138956742Y-104184380D01*
X138956742Y-104184380D02*
X138994838Y-104146285D01*
X138994838Y-104146285D02*
X139071028Y-104108189D01*
X139071028Y-104108189D02*
X139185314Y-104108189D01*
X139185314Y-104108189D02*
X139261504Y-104146285D01*
X139261504Y-104146285D02*
X139299600Y-104184380D01*
X139299600Y-104184380D02*
X139337695Y-104260570D01*
X139337695Y-104260570D02*
X139337695Y-104565332D01*
X139337695Y-104565332D02*
X138537695Y-104565332D01*
X138537695Y-104565332D02*
X138537695Y-104298666D01*
X138537695Y-104298666D02*
X138575790Y-104222475D01*
X138575790Y-104222475D02*
X138613885Y-104184380D01*
X138613885Y-104184380D02*
X138690076Y-104146285D01*
X138690076Y-104146285D02*
X138766266Y-104146285D01*
X138766266Y-104146285D02*
X138842457Y-104184380D01*
X138842457Y-104184380D02*
X138880552Y-104222475D01*
X138880552Y-104222475D02*
X138918647Y-104298666D01*
X138918647Y-104298666D02*
X138918647Y-104565332D01*
X138537695Y-103879618D02*
X138537695Y-103422475D01*
X139337695Y-103651047D02*
X138537695Y-103651047D01*
X139337695Y-103155808D02*
X138537695Y-103155808D01*
X138537695Y-103155808D02*
X139337695Y-102698665D01*
X139337695Y-102698665D02*
X138537695Y-102698665D01*
X123888571Y-92373123D02*
X124269524Y-92373123D01*
X123812381Y-92601695D02*
X124079048Y-91801695D01*
X124079048Y-91801695D02*
X124345714Y-92601695D01*
X124993333Y-91801695D02*
X124612381Y-91801695D01*
X124612381Y-91801695D02*
X124574285Y-92182647D01*
X124574285Y-92182647D02*
X124612381Y-92144552D01*
X124612381Y-92144552D02*
X124688571Y-92106457D01*
X124688571Y-92106457D02*
X124879047Y-92106457D01*
X124879047Y-92106457D02*
X124955238Y-92144552D01*
X124955238Y-92144552D02*
X124993333Y-92182647D01*
X124993333Y-92182647D02*
X125031428Y-92258838D01*
X125031428Y-92258838D02*
X125031428Y-92449314D01*
X125031428Y-92449314D02*
X124993333Y-92525504D01*
X124993333Y-92525504D02*
X124955238Y-92563600D01*
X124955238Y-92563600D02*
X124879047Y-92601695D01*
X124879047Y-92601695D02*
X124688571Y-92601695D01*
X124688571Y-92601695D02*
X124612381Y-92563600D01*
X124612381Y-92563600D02*
X124574285Y-92525504D01*
X100895237Y-110898647D02*
X101009523Y-110936742D01*
X101009523Y-110936742D02*
X101047618Y-110974838D01*
X101047618Y-110974838D02*
X101085714Y-111051028D01*
X101085714Y-111051028D02*
X101085714Y-111165314D01*
X101085714Y-111165314D02*
X101047618Y-111241504D01*
X101047618Y-111241504D02*
X101009523Y-111279600D01*
X101009523Y-111279600D02*
X100933333Y-111317695D01*
X100933333Y-111317695D02*
X100628571Y-111317695D01*
X100628571Y-111317695D02*
X100628571Y-110517695D01*
X100628571Y-110517695D02*
X100895237Y-110517695D01*
X100895237Y-110517695D02*
X100971428Y-110555790D01*
X100971428Y-110555790D02*
X101009523Y-110593885D01*
X101009523Y-110593885D02*
X101047618Y-110670076D01*
X101047618Y-110670076D02*
X101047618Y-110746266D01*
X101047618Y-110746266D02*
X101009523Y-110822457D01*
X101009523Y-110822457D02*
X100971428Y-110860552D01*
X100971428Y-110860552D02*
X100895237Y-110898647D01*
X100895237Y-110898647D02*
X100628571Y-110898647D01*
X101847618Y-111317695D02*
X101390475Y-111317695D01*
X101619047Y-111317695D02*
X101619047Y-110517695D01*
X101619047Y-110517695D02*
X101542856Y-110631980D01*
X101542856Y-110631980D02*
X101466666Y-110708171D01*
X101466666Y-110708171D02*
X101390475Y-110746266D01*
X102152380Y-110593885D02*
X102190476Y-110555790D01*
X102190476Y-110555790D02*
X102266666Y-110517695D01*
X102266666Y-110517695D02*
X102457142Y-110517695D01*
X102457142Y-110517695D02*
X102533333Y-110555790D01*
X102533333Y-110555790D02*
X102571428Y-110593885D01*
X102571428Y-110593885D02*
X102609523Y-110670076D01*
X102609523Y-110670076D02*
X102609523Y-110746266D01*
X102609523Y-110746266D02*
X102571428Y-110860552D01*
X102571428Y-110860552D02*
X102114285Y-111317695D01*
X102114285Y-111317695D02*
X102609523Y-111317695D01*
X111188571Y-111089123D02*
X111569524Y-111089123D01*
X111112381Y-111317695D02*
X111379048Y-110517695D01*
X111379048Y-110517695D02*
X111645714Y-111317695D01*
X112026666Y-110860552D02*
X111950476Y-110822457D01*
X111950476Y-110822457D02*
X111912381Y-110784361D01*
X111912381Y-110784361D02*
X111874285Y-110708171D01*
X111874285Y-110708171D02*
X111874285Y-110670076D01*
X111874285Y-110670076D02*
X111912381Y-110593885D01*
X111912381Y-110593885D02*
X111950476Y-110555790D01*
X111950476Y-110555790D02*
X112026666Y-110517695D01*
X112026666Y-110517695D02*
X112179047Y-110517695D01*
X112179047Y-110517695D02*
X112255238Y-110555790D01*
X112255238Y-110555790D02*
X112293333Y-110593885D01*
X112293333Y-110593885D02*
X112331428Y-110670076D01*
X112331428Y-110670076D02*
X112331428Y-110708171D01*
X112331428Y-110708171D02*
X112293333Y-110784361D01*
X112293333Y-110784361D02*
X112255238Y-110822457D01*
X112255238Y-110822457D02*
X112179047Y-110860552D01*
X112179047Y-110860552D02*
X112026666Y-110860552D01*
X112026666Y-110860552D02*
X111950476Y-110898647D01*
X111950476Y-110898647D02*
X111912381Y-110936742D01*
X111912381Y-110936742D02*
X111874285Y-111012933D01*
X111874285Y-111012933D02*
X111874285Y-111165314D01*
X111874285Y-111165314D02*
X111912381Y-111241504D01*
X111912381Y-111241504D02*
X111950476Y-111279600D01*
X111950476Y-111279600D02*
X112026666Y-111317695D01*
X112026666Y-111317695D02*
X112179047Y-111317695D01*
X112179047Y-111317695D02*
X112255238Y-111279600D01*
X112255238Y-111279600D02*
X112293333Y-111241504D01*
X112293333Y-111241504D02*
X112331428Y-111165314D01*
X112331428Y-111165314D02*
X112331428Y-111012933D01*
X112331428Y-111012933D02*
X112293333Y-110936742D01*
X112293333Y-110936742D02*
X112255238Y-110898647D01*
X112255238Y-110898647D02*
X112179047Y-110860552D01*
X146805714Y-92525504D02*
X146767618Y-92563600D01*
X146767618Y-92563600D02*
X146653333Y-92601695D01*
X146653333Y-92601695D02*
X146577142Y-92601695D01*
X146577142Y-92601695D02*
X146462856Y-92563600D01*
X146462856Y-92563600D02*
X146386666Y-92487409D01*
X146386666Y-92487409D02*
X146348571Y-92411219D01*
X146348571Y-92411219D02*
X146310475Y-92258838D01*
X146310475Y-92258838D02*
X146310475Y-92144552D01*
X146310475Y-92144552D02*
X146348571Y-91992171D01*
X146348571Y-91992171D02*
X146386666Y-91915980D01*
X146386666Y-91915980D02*
X146462856Y-91839790D01*
X146462856Y-91839790D02*
X146577142Y-91801695D01*
X146577142Y-91801695D02*
X146653333Y-91801695D01*
X146653333Y-91801695D02*
X146767618Y-91839790D01*
X146767618Y-91839790D02*
X146805714Y-91877885D01*
X147567618Y-92601695D02*
X147110475Y-92601695D01*
X147339047Y-92601695D02*
X147339047Y-91801695D01*
X147339047Y-91801695D02*
X147262856Y-91915980D01*
X147262856Y-91915980D02*
X147186666Y-91992171D01*
X147186666Y-91992171D02*
X147110475Y-92030266D01*
X147834285Y-91801695D02*
X148329523Y-91801695D01*
X148329523Y-91801695D02*
X148062857Y-92106457D01*
X148062857Y-92106457D02*
X148177142Y-92106457D01*
X148177142Y-92106457D02*
X148253333Y-92144552D01*
X148253333Y-92144552D02*
X148291428Y-92182647D01*
X148291428Y-92182647D02*
X148329523Y-92258838D01*
X148329523Y-92258838D02*
X148329523Y-92449314D01*
X148329523Y-92449314D02*
X148291428Y-92525504D01*
X148291428Y-92525504D02*
X148253333Y-92563600D01*
X148253333Y-92563600D02*
X148177142Y-92601695D01*
X148177142Y-92601695D02*
X147948571Y-92601695D01*
X147948571Y-92601695D02*
X147872380Y-92563600D01*
X147872380Y-92563600D02*
X147834285Y-92525504D01*
X138995237Y-110898647D02*
X139109523Y-110936742D01*
X139109523Y-110936742D02*
X139147618Y-110974838D01*
X139147618Y-110974838D02*
X139185714Y-111051028D01*
X139185714Y-111051028D02*
X139185714Y-111165314D01*
X139185714Y-111165314D02*
X139147618Y-111241504D01*
X139147618Y-111241504D02*
X139109523Y-111279600D01*
X139109523Y-111279600D02*
X139033333Y-111317695D01*
X139033333Y-111317695D02*
X138728571Y-111317695D01*
X138728571Y-111317695D02*
X138728571Y-110517695D01*
X138728571Y-110517695D02*
X138995237Y-110517695D01*
X138995237Y-110517695D02*
X139071428Y-110555790D01*
X139071428Y-110555790D02*
X139109523Y-110593885D01*
X139109523Y-110593885D02*
X139147618Y-110670076D01*
X139147618Y-110670076D02*
X139147618Y-110746266D01*
X139147618Y-110746266D02*
X139109523Y-110822457D01*
X139109523Y-110822457D02*
X139071428Y-110860552D01*
X139071428Y-110860552D02*
X138995237Y-110898647D01*
X138995237Y-110898647D02*
X138728571Y-110898647D01*
X139947618Y-111317695D02*
X139490475Y-111317695D01*
X139719047Y-111317695D02*
X139719047Y-110517695D01*
X139719047Y-110517695D02*
X139642856Y-110631980D01*
X139642856Y-110631980D02*
X139566666Y-110708171D01*
X139566666Y-110708171D02*
X139490475Y-110746266D01*
X140709523Y-111317695D02*
X140252380Y-111317695D01*
X140480952Y-111317695D02*
X140480952Y-110517695D01*
X140480952Y-110517695D02*
X140404761Y-110631980D01*
X140404761Y-110631980D02*
X140328571Y-110708171D01*
X140328571Y-110708171D02*
X140252380Y-110746266D01*
X126676190Y-110898647D02*
X126790476Y-110936742D01*
X126790476Y-110936742D02*
X126828571Y-110974838D01*
X126828571Y-110974838D02*
X126866667Y-111051028D01*
X126866667Y-111051028D02*
X126866667Y-111165314D01*
X126866667Y-111165314D02*
X126828571Y-111241504D01*
X126828571Y-111241504D02*
X126790476Y-111279600D01*
X126790476Y-111279600D02*
X126714286Y-111317695D01*
X126714286Y-111317695D02*
X126409524Y-111317695D01*
X126409524Y-111317695D02*
X126409524Y-110517695D01*
X126409524Y-110517695D02*
X126676190Y-110517695D01*
X126676190Y-110517695D02*
X126752381Y-110555790D01*
X126752381Y-110555790D02*
X126790476Y-110593885D01*
X126790476Y-110593885D02*
X126828571Y-110670076D01*
X126828571Y-110670076D02*
X126828571Y-110746266D01*
X126828571Y-110746266D02*
X126790476Y-110822457D01*
X126790476Y-110822457D02*
X126752381Y-110860552D01*
X126752381Y-110860552D02*
X126676190Y-110898647D01*
X126676190Y-110898647D02*
X126409524Y-110898647D01*
X127133333Y-110517695D02*
X127628571Y-110517695D01*
X127628571Y-110517695D02*
X127361905Y-110822457D01*
X127361905Y-110822457D02*
X127476190Y-110822457D01*
X127476190Y-110822457D02*
X127552381Y-110860552D01*
X127552381Y-110860552D02*
X127590476Y-110898647D01*
X127590476Y-110898647D02*
X127628571Y-110974838D01*
X127628571Y-110974838D02*
X127628571Y-111165314D01*
X127628571Y-111165314D02*
X127590476Y-111241504D01*
X127590476Y-111241504D02*
X127552381Y-111279600D01*
X127552381Y-111279600D02*
X127476190Y-111317695D01*
X127476190Y-111317695D02*
X127247619Y-111317695D01*
X127247619Y-111317695D02*
X127171428Y-111279600D01*
X127171428Y-111279600D02*
X127133333Y-111241504D01*
X123507618Y-111089123D02*
X123888571Y-111089123D01*
X123431428Y-111317695D02*
X123698095Y-110517695D01*
X123698095Y-110517695D02*
X123964761Y-111317695D01*
X124650475Y-111317695D02*
X124193332Y-111317695D01*
X124421904Y-111317695D02*
X124421904Y-110517695D01*
X124421904Y-110517695D02*
X124345713Y-110631980D01*
X124345713Y-110631980D02*
X124269523Y-110708171D01*
X124269523Y-110708171D02*
X124193332Y-110746266D01*
X125374285Y-110517695D02*
X124993333Y-110517695D01*
X124993333Y-110517695D02*
X124955237Y-110898647D01*
X124955237Y-110898647D02*
X124993333Y-110860552D01*
X124993333Y-110860552D02*
X125069523Y-110822457D01*
X125069523Y-110822457D02*
X125259999Y-110822457D01*
X125259999Y-110822457D02*
X125336190Y-110860552D01*
X125336190Y-110860552D02*
X125374285Y-110898647D01*
X125374285Y-110898647D02*
X125412380Y-110974838D01*
X125412380Y-110974838D02*
X125412380Y-111165314D01*
X125412380Y-111165314D02*
X125374285Y-111241504D01*
X125374285Y-111241504D02*
X125336190Y-111279600D01*
X125336190Y-111279600D02*
X125259999Y-111317695D01*
X125259999Y-111317695D02*
X125069523Y-111317695D01*
X125069523Y-111317695D02*
X124993333Y-111279600D01*
X124993333Y-111279600D02*
X124955237Y-111241504D01*
X111436190Y-92182647D02*
X111550476Y-92220742D01*
X111550476Y-92220742D02*
X111588571Y-92258838D01*
X111588571Y-92258838D02*
X111626667Y-92335028D01*
X111626667Y-92335028D02*
X111626667Y-92449314D01*
X111626667Y-92449314D02*
X111588571Y-92525504D01*
X111588571Y-92525504D02*
X111550476Y-92563600D01*
X111550476Y-92563600D02*
X111474286Y-92601695D01*
X111474286Y-92601695D02*
X111169524Y-92601695D01*
X111169524Y-92601695D02*
X111169524Y-91801695D01*
X111169524Y-91801695D02*
X111436190Y-91801695D01*
X111436190Y-91801695D02*
X111512381Y-91839790D01*
X111512381Y-91839790D02*
X111550476Y-91877885D01*
X111550476Y-91877885D02*
X111588571Y-91954076D01*
X111588571Y-91954076D02*
X111588571Y-92030266D01*
X111588571Y-92030266D02*
X111550476Y-92106457D01*
X111550476Y-92106457D02*
X111512381Y-92144552D01*
X111512381Y-92144552D02*
X111436190Y-92182647D01*
X111436190Y-92182647D02*
X111169524Y-92182647D01*
X111931428Y-91877885D02*
X111969524Y-91839790D01*
X111969524Y-91839790D02*
X112045714Y-91801695D01*
X112045714Y-91801695D02*
X112236190Y-91801695D01*
X112236190Y-91801695D02*
X112312381Y-91839790D01*
X112312381Y-91839790D02*
X112350476Y-91877885D01*
X112350476Y-91877885D02*
X112388571Y-91954076D01*
X112388571Y-91954076D02*
X112388571Y-92030266D01*
X112388571Y-92030266D02*
X112350476Y-92144552D01*
X112350476Y-92144552D02*
X111893333Y-92601695D01*
X111893333Y-92601695D02*
X112388571Y-92601695D01*
X113976190Y-92182647D02*
X114090476Y-92220742D01*
X114090476Y-92220742D02*
X114128571Y-92258838D01*
X114128571Y-92258838D02*
X114166667Y-92335028D01*
X114166667Y-92335028D02*
X114166667Y-92449314D01*
X114166667Y-92449314D02*
X114128571Y-92525504D01*
X114128571Y-92525504D02*
X114090476Y-92563600D01*
X114090476Y-92563600D02*
X114014286Y-92601695D01*
X114014286Y-92601695D02*
X113709524Y-92601695D01*
X113709524Y-92601695D02*
X113709524Y-91801695D01*
X113709524Y-91801695D02*
X113976190Y-91801695D01*
X113976190Y-91801695D02*
X114052381Y-91839790D01*
X114052381Y-91839790D02*
X114090476Y-91877885D01*
X114090476Y-91877885D02*
X114128571Y-91954076D01*
X114128571Y-91954076D02*
X114128571Y-92030266D01*
X114128571Y-92030266D02*
X114090476Y-92106457D01*
X114090476Y-92106457D02*
X114052381Y-92144552D01*
X114052381Y-92144552D02*
X113976190Y-92182647D01*
X113976190Y-92182647D02*
X113709524Y-92182647D01*
X114928571Y-92601695D02*
X114471428Y-92601695D01*
X114700000Y-92601695D02*
X114700000Y-91801695D01*
X114700000Y-91801695D02*
X114623809Y-91915980D01*
X114623809Y-91915980D02*
X114547619Y-91992171D01*
X114547619Y-91992171D02*
X114471428Y-92030266D01*
X149193333Y-91801695D02*
X149460000Y-92601695D01*
X149460000Y-92601695D02*
X149726666Y-91801695D01*
X150259999Y-92182647D02*
X150374285Y-92220742D01*
X150374285Y-92220742D02*
X150412380Y-92258838D01*
X150412380Y-92258838D02*
X150450476Y-92335028D01*
X150450476Y-92335028D02*
X150450476Y-92449314D01*
X150450476Y-92449314D02*
X150412380Y-92525504D01*
X150412380Y-92525504D02*
X150374285Y-92563600D01*
X150374285Y-92563600D02*
X150298095Y-92601695D01*
X150298095Y-92601695D02*
X149993333Y-92601695D01*
X149993333Y-92601695D02*
X149993333Y-91801695D01*
X149993333Y-91801695D02*
X150259999Y-91801695D01*
X150259999Y-91801695D02*
X150336190Y-91839790D01*
X150336190Y-91839790D02*
X150374285Y-91877885D01*
X150374285Y-91877885D02*
X150412380Y-91954076D01*
X150412380Y-91954076D02*
X150412380Y-92030266D01*
X150412380Y-92030266D02*
X150374285Y-92106457D01*
X150374285Y-92106457D02*
X150336190Y-92144552D01*
X150336190Y-92144552D02*
X150259999Y-92182647D01*
X150259999Y-92182647D02*
X149993333Y-92182647D01*
X136588571Y-92373123D02*
X136969524Y-92373123D01*
X136512381Y-92601695D02*
X136779048Y-91801695D01*
X136779048Y-91801695D02*
X137045714Y-92601695D01*
X137464762Y-91801695D02*
X137540952Y-91801695D01*
X137540952Y-91801695D02*
X137617143Y-91839790D01*
X137617143Y-91839790D02*
X137655238Y-91877885D01*
X137655238Y-91877885D02*
X137693333Y-91954076D01*
X137693333Y-91954076D02*
X137731428Y-92106457D01*
X137731428Y-92106457D02*
X137731428Y-92296933D01*
X137731428Y-92296933D02*
X137693333Y-92449314D01*
X137693333Y-92449314D02*
X137655238Y-92525504D01*
X137655238Y-92525504D02*
X137617143Y-92563600D01*
X137617143Y-92563600D02*
X137540952Y-92601695D01*
X137540952Y-92601695D02*
X137464762Y-92601695D01*
X137464762Y-92601695D02*
X137388571Y-92563600D01*
X137388571Y-92563600D02*
X137350476Y-92525504D01*
X137350476Y-92525504D02*
X137312381Y-92449314D01*
X137312381Y-92449314D02*
X137274285Y-92296933D01*
X137274285Y-92296933D02*
X137274285Y-92106457D01*
X137274285Y-92106457D02*
X137312381Y-91954076D01*
X137312381Y-91954076D02*
X137350476Y-91877885D01*
X137350476Y-91877885D02*
X137388571Y-91839790D01*
X137388571Y-91839790D02*
X137464762Y-91801695D01*
X118808571Y-92373123D02*
X119189524Y-92373123D01*
X118732381Y-92601695D02*
X118999048Y-91801695D01*
X118999048Y-91801695D02*
X119265714Y-92601695D01*
X119456190Y-91801695D02*
X119989524Y-91801695D01*
X119989524Y-91801695D02*
X119646666Y-92601695D01*
X146710476Y-110555790D02*
X146634286Y-110517695D01*
X146634286Y-110517695D02*
X146520000Y-110517695D01*
X146520000Y-110517695D02*
X146405714Y-110555790D01*
X146405714Y-110555790D02*
X146329524Y-110631980D01*
X146329524Y-110631980D02*
X146291429Y-110708171D01*
X146291429Y-110708171D02*
X146253333Y-110860552D01*
X146253333Y-110860552D02*
X146253333Y-110974838D01*
X146253333Y-110974838D02*
X146291429Y-111127219D01*
X146291429Y-111127219D02*
X146329524Y-111203409D01*
X146329524Y-111203409D02*
X146405714Y-111279600D01*
X146405714Y-111279600D02*
X146520000Y-111317695D01*
X146520000Y-111317695D02*
X146596191Y-111317695D01*
X146596191Y-111317695D02*
X146710476Y-111279600D01*
X146710476Y-111279600D02*
X146748572Y-111241504D01*
X146748572Y-111241504D02*
X146748572Y-110974838D01*
X146748572Y-110974838D02*
X146596191Y-110974838D01*
X147091429Y-111317695D02*
X147091429Y-110517695D01*
X147091429Y-110517695D02*
X147548572Y-111317695D01*
X147548572Y-111317695D02*
X147548572Y-110517695D01*
X147929524Y-111317695D02*
X147929524Y-110517695D01*
X147929524Y-110517695D02*
X148120000Y-110517695D01*
X148120000Y-110517695D02*
X148234286Y-110555790D01*
X148234286Y-110555790D02*
X148310476Y-110631980D01*
X148310476Y-110631980D02*
X148348571Y-110708171D01*
X148348571Y-110708171D02*
X148386667Y-110860552D01*
X148386667Y-110860552D02*
X148386667Y-110974838D01*
X148386667Y-110974838D02*
X148348571Y-111127219D01*
X148348571Y-111127219D02*
X148310476Y-111203409D01*
X148310476Y-111203409D02*
X148234286Y-111279600D01*
X148234286Y-111279600D02*
X148120000Y-111317695D01*
X148120000Y-111317695D02*
X147929524Y-111317695D01*
X112833333Y-106834647D02*
X112947619Y-106872742D01*
X112947619Y-106872742D02*
X112985714Y-106910838D01*
X112985714Y-106910838D02*
X113023810Y-106987028D01*
X113023810Y-106987028D02*
X113023810Y-107101314D01*
X113023810Y-107101314D02*
X112985714Y-107177504D01*
X112985714Y-107177504D02*
X112947619Y-107215600D01*
X112947619Y-107215600D02*
X112871429Y-107253695D01*
X112871429Y-107253695D02*
X112566667Y-107253695D01*
X112566667Y-107253695D02*
X112566667Y-106453695D01*
X112566667Y-106453695D02*
X112833333Y-106453695D01*
X112833333Y-106453695D02*
X112909524Y-106491790D01*
X112909524Y-106491790D02*
X112947619Y-106529885D01*
X112947619Y-106529885D02*
X112985714Y-106606076D01*
X112985714Y-106606076D02*
X112985714Y-106682266D01*
X112985714Y-106682266D02*
X112947619Y-106758457D01*
X112947619Y-106758457D02*
X112909524Y-106796552D01*
X112909524Y-106796552D02*
X112833333Y-106834647D01*
X112833333Y-106834647D02*
X112566667Y-106834647D01*
X113519048Y-106453695D02*
X113671429Y-106453695D01*
X113671429Y-106453695D02*
X113747619Y-106491790D01*
X113747619Y-106491790D02*
X113823810Y-106567980D01*
X113823810Y-106567980D02*
X113861905Y-106720361D01*
X113861905Y-106720361D02*
X113861905Y-106987028D01*
X113861905Y-106987028D02*
X113823810Y-107139409D01*
X113823810Y-107139409D02*
X113747619Y-107215600D01*
X113747619Y-107215600D02*
X113671429Y-107253695D01*
X113671429Y-107253695D02*
X113519048Y-107253695D01*
X113519048Y-107253695D02*
X113442857Y-107215600D01*
X113442857Y-107215600D02*
X113366667Y-107139409D01*
X113366667Y-107139409D02*
X113328571Y-106987028D01*
X113328571Y-106987028D02*
X113328571Y-106720361D01*
X113328571Y-106720361D02*
X113366667Y-106567980D01*
X113366667Y-106567980D02*
X113442857Y-106491790D01*
X113442857Y-106491790D02*
X113519048Y-106453695D01*
X114357143Y-106453695D02*
X114509524Y-106453695D01*
X114509524Y-106453695D02*
X114585714Y-106491790D01*
X114585714Y-106491790D02*
X114661905Y-106567980D01*
X114661905Y-106567980D02*
X114700000Y-106720361D01*
X114700000Y-106720361D02*
X114700000Y-106987028D01*
X114700000Y-106987028D02*
X114661905Y-107139409D01*
X114661905Y-107139409D02*
X114585714Y-107215600D01*
X114585714Y-107215600D02*
X114509524Y-107253695D01*
X114509524Y-107253695D02*
X114357143Y-107253695D01*
X114357143Y-107253695D02*
X114280952Y-107215600D01*
X114280952Y-107215600D02*
X114204762Y-107139409D01*
X114204762Y-107139409D02*
X114166666Y-106987028D01*
X114166666Y-106987028D02*
X114166666Y-106720361D01*
X114166666Y-106720361D02*
X114204762Y-106567980D01*
X114204762Y-106567980D02*
X114280952Y-106491790D01*
X114280952Y-106491790D02*
X114357143Y-106453695D01*
X114928571Y-106453695D02*
X115385714Y-106453695D01*
X115157142Y-107253695D02*
X115157142Y-106453695D01*
X115804762Y-106453695D02*
X115880952Y-106453695D01*
X115880952Y-106453695D02*
X115957143Y-106491790D01*
X115957143Y-106491790D02*
X115995238Y-106529885D01*
X115995238Y-106529885D02*
X116033333Y-106606076D01*
X116033333Y-106606076D02*
X116071428Y-106758457D01*
X116071428Y-106758457D02*
X116071428Y-106948933D01*
X116071428Y-106948933D02*
X116033333Y-107101314D01*
X116033333Y-107101314D02*
X115995238Y-107177504D01*
X115995238Y-107177504D02*
X115957143Y-107215600D01*
X115957143Y-107215600D02*
X115880952Y-107253695D01*
X115880952Y-107253695D02*
X115804762Y-107253695D01*
X115804762Y-107253695D02*
X115728571Y-107215600D01*
X115728571Y-107215600D02*
X115690476Y-107177504D01*
X115690476Y-107177504D02*
X115652381Y-107101314D01*
X115652381Y-107101314D02*
X115614285Y-106948933D01*
X115614285Y-106948933D02*
X115614285Y-106758457D01*
X115614285Y-106758457D02*
X115652381Y-106606076D01*
X115652381Y-106606076D02*
X115690476Y-106529885D01*
X115690476Y-106529885D02*
X115728571Y-106491790D01*
X115728571Y-106491790D02*
X115804762Y-106453695D01*
X131508571Y-92373123D02*
X131889524Y-92373123D01*
X131432381Y-92601695D02*
X131699048Y-91801695D01*
X131699048Y-91801695D02*
X131965714Y-92601695D01*
X132194285Y-91877885D02*
X132232381Y-91839790D01*
X132232381Y-91839790D02*
X132308571Y-91801695D01*
X132308571Y-91801695D02*
X132499047Y-91801695D01*
X132499047Y-91801695D02*
X132575238Y-91839790D01*
X132575238Y-91839790D02*
X132613333Y-91877885D01*
X132613333Y-91877885D02*
X132651428Y-91954076D01*
X132651428Y-91954076D02*
X132651428Y-92030266D01*
X132651428Y-92030266D02*
X132613333Y-92144552D01*
X132613333Y-92144552D02*
X132156190Y-92601695D01*
X132156190Y-92601695D02*
X132651428Y-92601695D01*
X103435237Y-110898647D02*
X103549523Y-110936742D01*
X103549523Y-110936742D02*
X103587618Y-110974838D01*
X103587618Y-110974838D02*
X103625714Y-111051028D01*
X103625714Y-111051028D02*
X103625714Y-111165314D01*
X103625714Y-111165314D02*
X103587618Y-111241504D01*
X103587618Y-111241504D02*
X103549523Y-111279600D01*
X103549523Y-111279600D02*
X103473333Y-111317695D01*
X103473333Y-111317695D02*
X103168571Y-111317695D01*
X103168571Y-111317695D02*
X103168571Y-110517695D01*
X103168571Y-110517695D02*
X103435237Y-110517695D01*
X103435237Y-110517695D02*
X103511428Y-110555790D01*
X103511428Y-110555790D02*
X103549523Y-110593885D01*
X103549523Y-110593885D02*
X103587618Y-110670076D01*
X103587618Y-110670076D02*
X103587618Y-110746266D01*
X103587618Y-110746266D02*
X103549523Y-110822457D01*
X103549523Y-110822457D02*
X103511428Y-110860552D01*
X103511428Y-110860552D02*
X103435237Y-110898647D01*
X103435237Y-110898647D02*
X103168571Y-110898647D01*
X104387618Y-111317695D02*
X103930475Y-111317695D01*
X104159047Y-111317695D02*
X104159047Y-110517695D01*
X104159047Y-110517695D02*
X104082856Y-110631980D01*
X104082856Y-110631980D02*
X104006666Y-110708171D01*
X104006666Y-110708171D02*
X103930475Y-110746266D01*
X104654285Y-110517695D02*
X105149523Y-110517695D01*
X105149523Y-110517695D02*
X104882857Y-110822457D01*
X104882857Y-110822457D02*
X104997142Y-110822457D01*
X104997142Y-110822457D02*
X105073333Y-110860552D01*
X105073333Y-110860552D02*
X105111428Y-110898647D01*
X105111428Y-110898647D02*
X105149523Y-110974838D01*
X105149523Y-110974838D02*
X105149523Y-111165314D01*
X105149523Y-111165314D02*
X105111428Y-111241504D01*
X105111428Y-111241504D02*
X105073333Y-111279600D01*
X105073333Y-111279600D02*
X104997142Y-111317695D01*
X104997142Y-111317695D02*
X104768571Y-111317695D01*
X104768571Y-111317695D02*
X104692380Y-111279600D01*
X104692380Y-111279600D02*
X104654285Y-111241504D01*
X131756190Y-110898647D02*
X131870476Y-110936742D01*
X131870476Y-110936742D02*
X131908571Y-110974838D01*
X131908571Y-110974838D02*
X131946667Y-111051028D01*
X131946667Y-111051028D02*
X131946667Y-111165314D01*
X131946667Y-111165314D02*
X131908571Y-111241504D01*
X131908571Y-111241504D02*
X131870476Y-111279600D01*
X131870476Y-111279600D02*
X131794286Y-111317695D01*
X131794286Y-111317695D02*
X131489524Y-111317695D01*
X131489524Y-111317695D02*
X131489524Y-110517695D01*
X131489524Y-110517695D02*
X131756190Y-110517695D01*
X131756190Y-110517695D02*
X131832381Y-110555790D01*
X131832381Y-110555790D02*
X131870476Y-110593885D01*
X131870476Y-110593885D02*
X131908571Y-110670076D01*
X131908571Y-110670076D02*
X131908571Y-110746266D01*
X131908571Y-110746266D02*
X131870476Y-110822457D01*
X131870476Y-110822457D02*
X131832381Y-110860552D01*
X131832381Y-110860552D02*
X131756190Y-110898647D01*
X131756190Y-110898647D02*
X131489524Y-110898647D01*
X132670476Y-110517695D02*
X132289524Y-110517695D01*
X132289524Y-110517695D02*
X132251428Y-110898647D01*
X132251428Y-110898647D02*
X132289524Y-110860552D01*
X132289524Y-110860552D02*
X132365714Y-110822457D01*
X132365714Y-110822457D02*
X132556190Y-110822457D01*
X132556190Y-110822457D02*
X132632381Y-110860552D01*
X132632381Y-110860552D02*
X132670476Y-110898647D01*
X132670476Y-110898647D02*
X132708571Y-110974838D01*
X132708571Y-110974838D02*
X132708571Y-111165314D01*
X132708571Y-111165314D02*
X132670476Y-111241504D01*
X132670476Y-111241504D02*
X132632381Y-111279600D01*
X132632381Y-111279600D02*
X132556190Y-111317695D01*
X132556190Y-111317695D02*
X132365714Y-111317695D01*
X132365714Y-111317695D02*
X132289524Y-111279600D01*
X132289524Y-111279600D02*
X132251428Y-111241504D01*
X108515237Y-110898647D02*
X108629523Y-110936742D01*
X108629523Y-110936742D02*
X108667618Y-110974838D01*
X108667618Y-110974838D02*
X108705714Y-111051028D01*
X108705714Y-111051028D02*
X108705714Y-111165314D01*
X108705714Y-111165314D02*
X108667618Y-111241504D01*
X108667618Y-111241504D02*
X108629523Y-111279600D01*
X108629523Y-111279600D02*
X108553333Y-111317695D01*
X108553333Y-111317695D02*
X108248571Y-111317695D01*
X108248571Y-111317695D02*
X108248571Y-110517695D01*
X108248571Y-110517695D02*
X108515237Y-110517695D01*
X108515237Y-110517695D02*
X108591428Y-110555790D01*
X108591428Y-110555790D02*
X108629523Y-110593885D01*
X108629523Y-110593885D02*
X108667618Y-110670076D01*
X108667618Y-110670076D02*
X108667618Y-110746266D01*
X108667618Y-110746266D02*
X108629523Y-110822457D01*
X108629523Y-110822457D02*
X108591428Y-110860552D01*
X108591428Y-110860552D02*
X108515237Y-110898647D01*
X108515237Y-110898647D02*
X108248571Y-110898647D01*
X109467618Y-111317695D02*
X109010475Y-111317695D01*
X109239047Y-111317695D02*
X109239047Y-110517695D01*
X109239047Y-110517695D02*
X109162856Y-110631980D01*
X109162856Y-110631980D02*
X109086666Y-110708171D01*
X109086666Y-110708171D02*
X109010475Y-110746266D01*
X110191428Y-110517695D02*
X109810476Y-110517695D01*
X109810476Y-110517695D02*
X109772380Y-110898647D01*
X109772380Y-110898647D02*
X109810476Y-110860552D01*
X109810476Y-110860552D02*
X109886666Y-110822457D01*
X109886666Y-110822457D02*
X110077142Y-110822457D01*
X110077142Y-110822457D02*
X110153333Y-110860552D01*
X110153333Y-110860552D02*
X110191428Y-110898647D01*
X110191428Y-110898647D02*
X110229523Y-110974838D01*
X110229523Y-110974838D02*
X110229523Y-111165314D01*
X110229523Y-111165314D02*
X110191428Y-111241504D01*
X110191428Y-111241504D02*
X110153333Y-111279600D01*
X110153333Y-111279600D02*
X110077142Y-111317695D01*
X110077142Y-111317695D02*
X109886666Y-111317695D01*
X109886666Y-111317695D02*
X109810476Y-111279600D01*
X109810476Y-111279600D02*
X109772380Y-111241504D01*
X103530476Y-91839790D02*
X103454286Y-91801695D01*
X103454286Y-91801695D02*
X103340000Y-91801695D01*
X103340000Y-91801695D02*
X103225714Y-91839790D01*
X103225714Y-91839790D02*
X103149524Y-91915980D01*
X103149524Y-91915980D02*
X103111429Y-91992171D01*
X103111429Y-91992171D02*
X103073333Y-92144552D01*
X103073333Y-92144552D02*
X103073333Y-92258838D01*
X103073333Y-92258838D02*
X103111429Y-92411219D01*
X103111429Y-92411219D02*
X103149524Y-92487409D01*
X103149524Y-92487409D02*
X103225714Y-92563600D01*
X103225714Y-92563600D02*
X103340000Y-92601695D01*
X103340000Y-92601695D02*
X103416191Y-92601695D01*
X103416191Y-92601695D02*
X103530476Y-92563600D01*
X103530476Y-92563600D02*
X103568572Y-92525504D01*
X103568572Y-92525504D02*
X103568572Y-92258838D01*
X103568572Y-92258838D02*
X103416191Y-92258838D01*
X103911429Y-92601695D02*
X103911429Y-91801695D01*
X103911429Y-91801695D02*
X104368572Y-92601695D01*
X104368572Y-92601695D02*
X104368572Y-91801695D01*
X104749524Y-92601695D02*
X104749524Y-91801695D01*
X104749524Y-91801695D02*
X104940000Y-91801695D01*
X104940000Y-91801695D02*
X105054286Y-91839790D01*
X105054286Y-91839790D02*
X105130476Y-91915980D01*
X105130476Y-91915980D02*
X105168571Y-91992171D01*
X105168571Y-91992171D02*
X105206667Y-92144552D01*
X105206667Y-92144552D02*
X105206667Y-92258838D01*
X105206667Y-92258838D02*
X105168571Y-92411219D01*
X105168571Y-92411219D02*
X105130476Y-92487409D01*
X105130476Y-92487409D02*
X105054286Y-92563600D01*
X105054286Y-92563600D02*
X104940000Y-92601695D01*
X104940000Y-92601695D02*
X104749524Y-92601695D01*
X113728571Y-111089123D02*
X114109524Y-111089123D01*
X113652381Y-111317695D02*
X113919048Y-110517695D01*
X113919048Y-110517695D02*
X114185714Y-111317695D01*
X114490476Y-111317695D02*
X114642857Y-111317695D01*
X114642857Y-111317695D02*
X114719047Y-111279600D01*
X114719047Y-111279600D02*
X114757143Y-111241504D01*
X114757143Y-111241504D02*
X114833333Y-111127219D01*
X114833333Y-111127219D02*
X114871428Y-110974838D01*
X114871428Y-110974838D02*
X114871428Y-110670076D01*
X114871428Y-110670076D02*
X114833333Y-110593885D01*
X114833333Y-110593885D02*
X114795238Y-110555790D01*
X114795238Y-110555790D02*
X114719047Y-110517695D01*
X114719047Y-110517695D02*
X114566666Y-110517695D01*
X114566666Y-110517695D02*
X114490476Y-110555790D01*
X114490476Y-110555790D02*
X114452381Y-110593885D01*
X114452381Y-110593885D02*
X114414285Y-110670076D01*
X114414285Y-110670076D02*
X114414285Y-110860552D01*
X114414285Y-110860552D02*
X114452381Y-110936742D01*
X114452381Y-110936742D02*
X114490476Y-110974838D01*
X114490476Y-110974838D02*
X114566666Y-111012933D01*
X114566666Y-111012933D02*
X114719047Y-111012933D01*
X114719047Y-111012933D02*
X114795238Y-110974838D01*
X114795238Y-110974838D02*
X114833333Y-110936742D01*
X114833333Y-110936742D02*
X114871428Y-110860552D01*
X101447619Y-91801695D02*
X101066667Y-91801695D01*
X101066667Y-91801695D02*
X101028571Y-92182647D01*
X101028571Y-92182647D02*
X101066667Y-92144552D01*
X101066667Y-92144552D02*
X101142857Y-92106457D01*
X101142857Y-92106457D02*
X101333333Y-92106457D01*
X101333333Y-92106457D02*
X101409524Y-92144552D01*
X101409524Y-92144552D02*
X101447619Y-92182647D01*
X101447619Y-92182647D02*
X101485714Y-92258838D01*
X101485714Y-92258838D02*
X101485714Y-92449314D01*
X101485714Y-92449314D02*
X101447619Y-92525504D01*
X101447619Y-92525504D02*
X101409524Y-92563600D01*
X101409524Y-92563600D02*
X101333333Y-92601695D01*
X101333333Y-92601695D02*
X101142857Y-92601695D01*
X101142857Y-92601695D02*
X101066667Y-92563600D01*
X101066667Y-92563600D02*
X101028571Y-92525504D01*
X101714286Y-91801695D02*
X101980953Y-92601695D01*
X101980953Y-92601695D02*
X102247619Y-91801695D01*
X108515237Y-92182647D02*
X108629523Y-92220742D01*
X108629523Y-92220742D02*
X108667618Y-92258838D01*
X108667618Y-92258838D02*
X108705714Y-92335028D01*
X108705714Y-92335028D02*
X108705714Y-92449314D01*
X108705714Y-92449314D02*
X108667618Y-92525504D01*
X108667618Y-92525504D02*
X108629523Y-92563600D01*
X108629523Y-92563600D02*
X108553333Y-92601695D01*
X108553333Y-92601695D02*
X108248571Y-92601695D01*
X108248571Y-92601695D02*
X108248571Y-91801695D01*
X108248571Y-91801695D02*
X108515237Y-91801695D01*
X108515237Y-91801695D02*
X108591428Y-91839790D01*
X108591428Y-91839790D02*
X108629523Y-91877885D01*
X108629523Y-91877885D02*
X108667618Y-91954076D01*
X108667618Y-91954076D02*
X108667618Y-92030266D01*
X108667618Y-92030266D02*
X108629523Y-92106457D01*
X108629523Y-92106457D02*
X108591428Y-92144552D01*
X108591428Y-92144552D02*
X108515237Y-92182647D01*
X108515237Y-92182647D02*
X108248571Y-92182647D01*
X109467618Y-92601695D02*
X109010475Y-92601695D01*
X109239047Y-92601695D02*
X109239047Y-91801695D01*
X109239047Y-91801695D02*
X109162856Y-91915980D01*
X109162856Y-91915980D02*
X109086666Y-91992171D01*
X109086666Y-91992171D02*
X109010475Y-92030266D01*
X109962857Y-91801695D02*
X110039047Y-91801695D01*
X110039047Y-91801695D02*
X110115238Y-91839790D01*
X110115238Y-91839790D02*
X110153333Y-91877885D01*
X110153333Y-91877885D02*
X110191428Y-91954076D01*
X110191428Y-91954076D02*
X110229523Y-92106457D01*
X110229523Y-92106457D02*
X110229523Y-92296933D01*
X110229523Y-92296933D02*
X110191428Y-92449314D01*
X110191428Y-92449314D02*
X110153333Y-92525504D01*
X110153333Y-92525504D02*
X110115238Y-92563600D01*
X110115238Y-92563600D02*
X110039047Y-92601695D01*
X110039047Y-92601695D02*
X109962857Y-92601695D01*
X109962857Y-92601695D02*
X109886666Y-92563600D01*
X109886666Y-92563600D02*
X109848571Y-92525504D01*
X109848571Y-92525504D02*
X109810476Y-92449314D01*
X109810476Y-92449314D02*
X109772380Y-92296933D01*
X109772380Y-92296933D02*
X109772380Y-92106457D01*
X109772380Y-92106457D02*
X109810476Y-91954076D01*
X109810476Y-91954076D02*
X109848571Y-91877885D01*
X109848571Y-91877885D02*
X109886666Y-91839790D01*
X109886666Y-91839790D02*
X109962857Y-91801695D01*
X143808571Y-92601695D02*
X143808571Y-91801695D01*
X143808571Y-91801695D02*
X144113333Y-91801695D01*
X144113333Y-91801695D02*
X144189523Y-91839790D01*
X144189523Y-91839790D02*
X144227618Y-91877885D01*
X144227618Y-91877885D02*
X144265714Y-91954076D01*
X144265714Y-91954076D02*
X144265714Y-92068361D01*
X144265714Y-92068361D02*
X144227618Y-92144552D01*
X144227618Y-92144552D02*
X144189523Y-92182647D01*
X144189523Y-92182647D02*
X144113333Y-92220742D01*
X144113333Y-92220742D02*
X143808571Y-92220742D01*
X145027618Y-92601695D02*
X144570475Y-92601695D01*
X144799047Y-92601695D02*
X144799047Y-91801695D01*
X144799047Y-91801695D02*
X144722856Y-91915980D01*
X144722856Y-91915980D02*
X144646666Y-91992171D01*
X144646666Y-91992171D02*
X144570475Y-92030266D01*
X145484761Y-92144552D02*
X145408571Y-92106457D01*
X145408571Y-92106457D02*
X145370476Y-92068361D01*
X145370476Y-92068361D02*
X145332380Y-91992171D01*
X145332380Y-91992171D02*
X145332380Y-91954076D01*
X145332380Y-91954076D02*
X145370476Y-91877885D01*
X145370476Y-91877885D02*
X145408571Y-91839790D01*
X145408571Y-91839790D02*
X145484761Y-91801695D01*
X145484761Y-91801695D02*
X145637142Y-91801695D01*
X145637142Y-91801695D02*
X145713333Y-91839790D01*
X145713333Y-91839790D02*
X145751428Y-91877885D01*
X145751428Y-91877885D02*
X145789523Y-91954076D01*
X145789523Y-91954076D02*
X145789523Y-91992171D01*
X145789523Y-91992171D02*
X145751428Y-92068361D01*
X145751428Y-92068361D02*
X145713333Y-92106457D01*
X145713333Y-92106457D02*
X145637142Y-92144552D01*
X145637142Y-92144552D02*
X145484761Y-92144552D01*
X145484761Y-92144552D02*
X145408571Y-92182647D01*
X145408571Y-92182647D02*
X145370476Y-92220742D01*
X145370476Y-92220742D02*
X145332380Y-92296933D01*
X145332380Y-92296933D02*
X145332380Y-92449314D01*
X145332380Y-92449314D02*
X145370476Y-92525504D01*
X145370476Y-92525504D02*
X145408571Y-92563600D01*
X145408571Y-92563600D02*
X145484761Y-92601695D01*
X145484761Y-92601695D02*
X145637142Y-92601695D01*
X145637142Y-92601695D02*
X145713333Y-92563600D01*
X145713333Y-92563600D02*
X145751428Y-92525504D01*
X145751428Y-92525504D02*
X145789523Y-92449314D01*
X145789523Y-92449314D02*
X145789523Y-92296933D01*
X145789523Y-92296933D02*
X145751428Y-92220742D01*
X145751428Y-92220742D02*
X145713333Y-92182647D01*
X145713333Y-92182647D02*
X145637142Y-92144552D01*
X144627619Y-110517695D02*
X144246667Y-110517695D01*
X144246667Y-110517695D02*
X144208571Y-110898647D01*
X144208571Y-110898647D02*
X144246667Y-110860552D01*
X144246667Y-110860552D02*
X144322857Y-110822457D01*
X144322857Y-110822457D02*
X144513333Y-110822457D01*
X144513333Y-110822457D02*
X144589524Y-110860552D01*
X144589524Y-110860552D02*
X144627619Y-110898647D01*
X144627619Y-110898647D02*
X144665714Y-110974838D01*
X144665714Y-110974838D02*
X144665714Y-111165314D01*
X144665714Y-111165314D02*
X144627619Y-111241504D01*
X144627619Y-111241504D02*
X144589524Y-111279600D01*
X144589524Y-111279600D02*
X144513333Y-111317695D01*
X144513333Y-111317695D02*
X144322857Y-111317695D01*
X144322857Y-111317695D02*
X144246667Y-111279600D01*
X144246667Y-111279600D02*
X144208571Y-111241504D01*
X144894286Y-110517695D02*
X145160953Y-111317695D01*
X145160953Y-111317695D02*
X145427619Y-110517695D01*
D11*
%TO.C,R106*%
X132434359Y-96267000D02*
X132741641Y-96267000D01*
X132434359Y-97027000D02*
X132741641Y-97027000D01*
%TO.C,C105*%
X133879000Y-103231836D02*
X133879000Y-103016164D01*
X134599000Y-103231836D02*
X134599000Y-103016164D01*
%TO.C,L101*%
X111343221Y-95629000D02*
X111668779Y-95629000D01*
X111343221Y-96649000D02*
X111668779Y-96649000D01*
%TO.C,C120*%
X121137000Y-97428164D02*
X121137000Y-97643836D01*
X120417000Y-97428164D02*
X120417000Y-97643836D01*
%TO.C,D103*%
X142025000Y-96039000D02*
X142025000Y-97509000D01*
X142025000Y-97509000D02*
X144310000Y-97509000D01*
X144310000Y-96039000D02*
X142025000Y-96039000D01*
%TO.C,R109*%
X145416000Y-97181641D02*
X145416000Y-96874359D01*
X146176000Y-97181641D02*
X146176000Y-96874359D01*
%TO.C,C118*%
X119994000Y-97428164D02*
X119994000Y-97643836D01*
X119274000Y-97428164D02*
X119274000Y-97643836D01*
%TO.C,D101*%
X142025000Y-105691000D02*
X142025000Y-107161000D01*
X142025000Y-107161000D02*
X144310000Y-107161000D01*
X144310000Y-105691000D02*
X142025000Y-105691000D01*
%TO.C,Y101*%
X134944000Y-99444000D02*
X137344000Y-99444000D01*
X137344000Y-99444000D02*
X137344000Y-96644000D01*
%TO.C,C115*%
X108858164Y-96795000D02*
X109073836Y-96795000D01*
X108858164Y-97515000D02*
X109073836Y-97515000D01*
%TO.C,R107*%
X146176000Y-106018359D02*
X146176000Y-106325641D01*
X145416000Y-106018359D02*
X145416000Y-106325641D01*
%TO.C,U103*%
X107914000Y-99822000D02*
X107914000Y-101622000D01*
X107914000Y-99822000D02*
X107914000Y-99022000D01*
X111034000Y-99822000D02*
X111034000Y-100622000D01*
X111034000Y-99822000D02*
X111034000Y-99022000D01*
%TO.C,C109*%
X132257190Y-102437693D02*
X132409693Y-102285190D01*
X132766307Y-102946810D02*
X132918810Y-102794307D01*
%TO.C,D102*%
X143256000Y-101128000D02*
X144931000Y-101128000D01*
X143256000Y-101128000D02*
X142606000Y-101128000D01*
X143256000Y-98008000D02*
X143906000Y-98008000D01*
X143256000Y-98008000D02*
X142606000Y-98008000D01*
%TO.C,R103*%
X112929641Y-101726000D02*
X112622359Y-101726000D01*
X112929641Y-100966000D02*
X112622359Y-100966000D01*
%TO.C,SW103*%
X140040000Y-101932000D02*
X140040000Y-102052000D01*
X140040000Y-103062000D02*
X140040000Y-104202000D01*
X140040000Y-105212000D02*
X140040000Y-105332000D01*
X140040000Y-105332000D02*
X144440000Y-105332000D01*
X144440000Y-101932000D02*
X140040000Y-101932000D01*
X144440000Y-102052000D02*
X144440000Y-101932000D01*
X144440000Y-104202000D02*
X144440000Y-103062000D01*
X144440000Y-105332000D02*
X144440000Y-105212000D01*
%TO.C,C102*%
X134472000Y-98952164D02*
X134472000Y-99167836D01*
X133752000Y-98952164D02*
X133752000Y-99167836D01*
%TO.C,SW101*%
X112100000Y-97233000D02*
X112100000Y-97353000D01*
X112100000Y-98363000D02*
X112100000Y-99503000D01*
X112100000Y-100513000D02*
X112100000Y-100633000D01*
X112100000Y-100633000D02*
X116500000Y-100633000D01*
X116500000Y-97233000D02*
X112100000Y-97233000D01*
X116500000Y-97353000D02*
X116500000Y-97233000D01*
X116500000Y-99503000D02*
X116500000Y-98363000D01*
X116500000Y-100633000D02*
X116500000Y-100513000D01*
%TO.C,C119*%
X120417000Y-99675836D02*
X120417000Y-99460164D01*
X121137000Y-99675836D02*
X121137000Y-99460164D01*
%TO.C,SW102*%
X112100000Y-102567000D02*
X112100000Y-102687000D01*
X112100000Y-103697000D02*
X112100000Y-104837000D01*
X112100000Y-105847000D02*
X112100000Y-105967000D01*
X112100000Y-105967000D02*
X116500000Y-105967000D01*
X116500000Y-102567000D02*
X112100000Y-102567000D01*
X116500000Y-102687000D02*
X116500000Y-102567000D01*
X116500000Y-104837000D02*
X116500000Y-103697000D01*
X116500000Y-105967000D02*
X116500000Y-105847000D01*
%TO.C,C113*%
X108858164Y-103272000D02*
X109073836Y-103272000D01*
X108858164Y-103992000D02*
X109073836Y-103992000D01*
%TO.C,C116*%
X108858164Y-95779000D02*
X109073836Y-95779000D01*
X108858164Y-96499000D02*
X109073836Y-96499000D01*
%TO.C,U102*%
X127000000Y-96494689D02*
X127335876Y-96830565D01*
X131769435Y-101935876D02*
X132105311Y-101600000D01*
X126664124Y-96830565D02*
X127000000Y-96494689D01*
X127335876Y-106369435D02*
X127000000Y-106705311D01*
X122230565Y-101264124D02*
X121894689Y-101600000D01*
X127000000Y-106705311D02*
X126664124Y-106369435D01*
X121894689Y-101600000D02*
X122230565Y-101935876D01*
%TO.C,Y102*%
X137044000Y-100158000D02*
X135244000Y-100158000D01*
X137094000Y-101558000D02*
X137094000Y-102658000D01*
X135194000Y-101558000D02*
X135194000Y-102658000D01*
%TO.C,C104*%
X130448164Y-97430000D02*
X130663836Y-97430000D01*
X130448164Y-98150000D02*
X130663836Y-98150000D01*
%TO.C,C110*%
X120249836Y-101706000D02*
X120034164Y-101706000D01*
X120249836Y-100986000D02*
X120034164Y-100986000D01*
%TO.C,C117*%
X119274000Y-99675836D02*
X119274000Y-99460164D01*
X119994000Y-99675836D02*
X119994000Y-99460164D01*
%TO.C,C107*%
X134599000Y-105810164D02*
X134599000Y-106025836D01*
X133879000Y-105810164D02*
X133879000Y-106025836D01*
%TO.C,C103*%
X133752000Y-97135836D02*
X133752000Y-96920164D01*
X134472000Y-97135836D02*
X134472000Y-96920164D01*
%TO.C,R108*%
X115977641Y-102234000D02*
X115670359Y-102234000D01*
X115977641Y-101474000D02*
X115670359Y-101474000D01*
%TO.C,C114*%
X108858164Y-102178000D02*
X109073836Y-102178000D01*
X108858164Y-102898000D02*
X109073836Y-102898000D01*
%TO.C,J104*%
X147015000Y-96530000D02*
X148285000Y-96530000D01*
X147015000Y-97800000D02*
X147015000Y-96530000D01*
X149327929Y-99960000D02*
X149725000Y-99960000D01*
X149327929Y-100720000D02*
X149725000Y-100720000D01*
X149327929Y-102500000D02*
X149725000Y-102500000D01*
X149327929Y-103260000D02*
X149725000Y-103260000D01*
X149327929Y-105040000D02*
X149725000Y-105040000D01*
X149327929Y-105800000D02*
X149725000Y-105800000D01*
X149395000Y-97420000D02*
X149725000Y-97420000D01*
X149395000Y-98180000D02*
X149725000Y-98180000D01*
X149725000Y-96470000D02*
X149725000Y-106750000D01*
X149725000Y-99070000D02*
X152185000Y-99070000D01*
X149725000Y-101610000D02*
X152185000Y-101610000D01*
X149725000Y-104150000D02*
X152185000Y-104150000D01*
X149725000Y-106750000D02*
X152185000Y-106700000D01*
X152185000Y-96470000D02*
X149725000Y-96470000D01*
%TO.C,C112*%
X141076000Y-99968164D02*
X141076000Y-100183836D01*
X140356000Y-99968164D02*
X140356000Y-100183836D01*
%TO.C,C108*%
X125425810Y-107112307D02*
X125273307Y-107264810D01*
X124916693Y-106603190D02*
X124764190Y-106755693D01*
%TO.C,J101*%
X102735000Y-96930000D02*
X104535000Y-96930000D01*
X100635000Y-96930000D02*
X99485000Y-96930000D01*
X102735000Y-106270000D02*
X104535000Y-106270000D01*
X100635000Y-106270000D02*
X99485000Y-106270000D01*
%TO.C,C106*%
X133879000Y-101199836D02*
X133879000Y-100984164D01*
X134599000Y-101199836D02*
X134599000Y-100984164D01*
%TD*%
M02*
