%TF.GenerationSoftware,KiCad,Pcbnew,7.0.7*%
%TF.CreationDate,2023-11-28T23:11:37+01:00*%
%TF.ProjectId,STM32G474_Black-Pill_v3.0,53544d33-3247-4343-9734-5f426c61636b,A*%
%TF.SameCoordinates,Original*%
%TF.FileFunction,Legend,Bot*%
%TF.FilePolarity,Positive*%
%FSLAX46Y46*%
G04 Gerber Fmt 4.6, Leading zero omitted, Abs format (unit mm)*
G04 Created by KiCad (PCBNEW 7.0.7) date 2023-11-28 23:11:37*
%MOMM*%
%LPD*%
G01*
G04 APERTURE LIST*
%ADD10C,0.200000*%
%ADD11C,0.120000*%
G04 APERTURE END LIST*
D10*
X145317863Y-97311504D02*
X145355959Y-97349600D01*
X145355959Y-97349600D02*
X145470244Y-97387695D01*
X145470244Y-97387695D02*
X145546435Y-97387695D01*
X145546435Y-97387695D02*
X145660721Y-97349600D01*
X145660721Y-97349600D02*
X145736911Y-97273409D01*
X145736911Y-97273409D02*
X145775006Y-97197219D01*
X145775006Y-97197219D02*
X145813102Y-97044838D01*
X145813102Y-97044838D02*
X145813102Y-96930552D01*
X145813102Y-96930552D02*
X145775006Y-96778171D01*
X145775006Y-96778171D02*
X145736911Y-96701980D01*
X145736911Y-96701980D02*
X145660721Y-96625790D01*
X145660721Y-96625790D02*
X145546435Y-96587695D01*
X145546435Y-96587695D02*
X145470244Y-96587695D01*
X145470244Y-96587695D02*
X145355959Y-96625790D01*
X145355959Y-96625790D02*
X145317863Y-96663885D01*
X144632149Y-96854361D02*
X144632149Y-97387695D01*
X144822625Y-96549600D02*
X145013102Y-97121028D01*
X145013102Y-97121028D02*
X144517863Y-97121028D01*
X145317863Y-103915504D02*
X145355959Y-103953600D01*
X145355959Y-103953600D02*
X145470244Y-103991695D01*
X145470244Y-103991695D02*
X145546435Y-103991695D01*
X145546435Y-103991695D02*
X145660721Y-103953600D01*
X145660721Y-103953600D02*
X145736911Y-103877409D01*
X145736911Y-103877409D02*
X145775006Y-103801219D01*
X145775006Y-103801219D02*
X145813102Y-103648838D01*
X145813102Y-103648838D02*
X145813102Y-103534552D01*
X145813102Y-103534552D02*
X145775006Y-103382171D01*
X145775006Y-103382171D02*
X145736911Y-103305980D01*
X145736911Y-103305980D02*
X145660721Y-103229790D01*
X145660721Y-103229790D02*
X145546435Y-103191695D01*
X145546435Y-103191695D02*
X145470244Y-103191695D01*
X145470244Y-103191695D02*
X145355959Y-103229790D01*
X145355959Y-103229790D02*
X145317863Y-103267885D01*
X144632149Y-103191695D02*
X144784530Y-103191695D01*
X144784530Y-103191695D02*
X144860721Y-103229790D01*
X144860721Y-103229790D02*
X144898816Y-103267885D01*
X144898816Y-103267885D02*
X144975006Y-103382171D01*
X144975006Y-103382171D02*
X145013102Y-103534552D01*
X145013102Y-103534552D02*
X145013102Y-103839314D01*
X145013102Y-103839314D02*
X144975006Y-103915504D01*
X144975006Y-103915504D02*
X144936911Y-103953600D01*
X144936911Y-103953600D02*
X144860721Y-103991695D01*
X144860721Y-103991695D02*
X144708340Y-103991695D01*
X144708340Y-103991695D02*
X144632149Y-103953600D01*
X144632149Y-103953600D02*
X144594054Y-103915504D01*
X144594054Y-103915504D02*
X144555959Y-103839314D01*
X144555959Y-103839314D02*
X144555959Y-103648838D01*
X144555959Y-103648838D02*
X144594054Y-103572647D01*
X144594054Y-103572647D02*
X144632149Y-103534552D01*
X144632149Y-103534552D02*
X144708340Y-103496457D01*
X144708340Y-103496457D02*
X144860721Y-103496457D01*
X144860721Y-103496457D02*
X144936911Y-103534552D01*
X144936911Y-103534552D02*
X144975006Y-103572647D01*
X144975006Y-103572647D02*
X145013102Y-103648838D01*
X146079768Y-99851504D02*
X146117864Y-99889600D01*
X146117864Y-99889600D02*
X146232149Y-99927695D01*
X146232149Y-99927695D02*
X146308340Y-99927695D01*
X146308340Y-99927695D02*
X146422626Y-99889600D01*
X146422626Y-99889600D02*
X146498816Y-99813409D01*
X146498816Y-99813409D02*
X146536911Y-99737219D01*
X146536911Y-99737219D02*
X146575007Y-99584838D01*
X146575007Y-99584838D02*
X146575007Y-99470552D01*
X146575007Y-99470552D02*
X146536911Y-99318171D01*
X146536911Y-99318171D02*
X146498816Y-99241980D01*
X146498816Y-99241980D02*
X146422626Y-99165790D01*
X146422626Y-99165790D02*
X146308340Y-99127695D01*
X146308340Y-99127695D02*
X146232149Y-99127695D01*
X146232149Y-99127695D02*
X146117864Y-99165790D01*
X146117864Y-99165790D02*
X146079768Y-99203885D01*
X145317864Y-99927695D02*
X145775007Y-99927695D01*
X145546435Y-99927695D02*
X145546435Y-99127695D01*
X145546435Y-99127695D02*
X145622626Y-99241980D01*
X145622626Y-99241980D02*
X145698816Y-99318171D01*
X145698816Y-99318171D02*
X145775007Y-99356266D01*
X144822625Y-99127695D02*
X144746435Y-99127695D01*
X144746435Y-99127695D02*
X144670244Y-99165790D01*
X144670244Y-99165790D02*
X144632149Y-99203885D01*
X144632149Y-99203885D02*
X144594054Y-99280076D01*
X144594054Y-99280076D02*
X144555959Y-99432457D01*
X144555959Y-99432457D02*
X144555959Y-99622933D01*
X144555959Y-99622933D02*
X144594054Y-99775314D01*
X144594054Y-99775314D02*
X144632149Y-99851504D01*
X144632149Y-99851504D02*
X144670244Y-99889600D01*
X144670244Y-99889600D02*
X144746435Y-99927695D01*
X144746435Y-99927695D02*
X144822625Y-99927695D01*
X144822625Y-99927695D02*
X144898816Y-99889600D01*
X144898816Y-99889600D02*
X144936911Y-99851504D01*
X144936911Y-99851504D02*
X144975006Y-99775314D01*
X144975006Y-99775314D02*
X145013102Y-99622933D01*
X145013102Y-99622933D02*
X145013102Y-99432457D01*
X145013102Y-99432457D02*
X144975006Y-99280076D01*
X144975006Y-99280076D02*
X144936911Y-99203885D01*
X144936911Y-99203885D02*
X144898816Y-99165790D01*
X144898816Y-99165790D02*
X144822625Y-99127695D01*
X141583695Y-97326571D02*
X140783695Y-97326571D01*
X140783695Y-97326571D02*
X140783695Y-97631333D01*
X140783695Y-97631333D02*
X140821790Y-97707523D01*
X140821790Y-97707523D02*
X140859885Y-97745618D01*
X140859885Y-97745618D02*
X140936076Y-97783714D01*
X140936076Y-97783714D02*
X141050361Y-97783714D01*
X141050361Y-97783714D02*
X141126552Y-97745618D01*
X141126552Y-97745618D02*
X141164647Y-97707523D01*
X141164647Y-97707523D02*
X141202742Y-97631333D01*
X141202742Y-97631333D02*
X141202742Y-97326571D01*
X141583695Y-98545618D02*
X141583695Y-98088475D01*
X141583695Y-98317047D02*
X140783695Y-98317047D01*
X140783695Y-98317047D02*
X140897980Y-98240856D01*
X140897980Y-98240856D02*
X140974171Y-98164666D01*
X140974171Y-98164666D02*
X141012266Y-98088475D01*
X140783695Y-98812285D02*
X140783695Y-99345619D01*
X140783695Y-99345619D02*
X141583695Y-99002761D01*
X147095292Y-102213695D02*
X147095292Y-101413695D01*
X147095292Y-101413695D02*
X146828626Y-101985123D01*
X146828626Y-101985123D02*
X146561959Y-101413695D01*
X146561959Y-101413695D02*
X146561959Y-102213695D01*
X145723863Y-102137504D02*
X145761959Y-102175600D01*
X145761959Y-102175600D02*
X145876244Y-102213695D01*
X145876244Y-102213695D02*
X145952435Y-102213695D01*
X145952435Y-102213695D02*
X146066721Y-102175600D01*
X146066721Y-102175600D02*
X146142911Y-102099409D01*
X146142911Y-102099409D02*
X146181006Y-102023219D01*
X146181006Y-102023219D02*
X146219102Y-101870838D01*
X146219102Y-101870838D02*
X146219102Y-101756552D01*
X146219102Y-101756552D02*
X146181006Y-101604171D01*
X146181006Y-101604171D02*
X146142911Y-101527980D01*
X146142911Y-101527980D02*
X146066721Y-101451790D01*
X146066721Y-101451790D02*
X145952435Y-101413695D01*
X145952435Y-101413695D02*
X145876244Y-101413695D01*
X145876244Y-101413695D02*
X145761959Y-101451790D01*
X145761959Y-101451790D02*
X145723863Y-101489885D01*
X145381006Y-101413695D02*
X145381006Y-102061314D01*
X145381006Y-102061314D02*
X145342911Y-102137504D01*
X145342911Y-102137504D02*
X145304816Y-102175600D01*
X145304816Y-102175600D02*
X145228625Y-102213695D01*
X145228625Y-102213695D02*
X145076244Y-102213695D01*
X145076244Y-102213695D02*
X145000054Y-102175600D01*
X145000054Y-102175600D02*
X144961959Y-102137504D01*
X144961959Y-102137504D02*
X144923863Y-102061314D01*
X144923863Y-102061314D02*
X144923863Y-101413695D01*
X143933387Y-102213695D02*
X143933387Y-101413695D01*
X143933387Y-101413695D02*
X143628625Y-101413695D01*
X143628625Y-101413695D02*
X143552435Y-101451790D01*
X143552435Y-101451790D02*
X143514340Y-101489885D01*
X143514340Y-101489885D02*
X143476244Y-101566076D01*
X143476244Y-101566076D02*
X143476244Y-101680361D01*
X143476244Y-101680361D02*
X143514340Y-101756552D01*
X143514340Y-101756552D02*
X143552435Y-101794647D01*
X143552435Y-101794647D02*
X143628625Y-101832742D01*
X143628625Y-101832742D02*
X143933387Y-101832742D01*
X143209578Y-101413695D02*
X143019102Y-102213695D01*
X143019102Y-102213695D02*
X142866721Y-101642266D01*
X142866721Y-101642266D02*
X142714340Y-102213695D01*
X142714340Y-102213695D02*
X142523864Y-101413695D01*
X141761958Y-102213695D02*
X142028625Y-101832742D01*
X142219101Y-102213695D02*
X142219101Y-101413695D01*
X142219101Y-101413695D02*
X141914339Y-101413695D01*
X141914339Y-101413695D02*
X141838149Y-101451790D01*
X141838149Y-101451790D02*
X141800054Y-101489885D01*
X141800054Y-101489885D02*
X141761958Y-101566076D01*
X141761958Y-101566076D02*
X141761958Y-101680361D01*
X141761958Y-101680361D02*
X141800054Y-101756552D01*
X141800054Y-101756552D02*
X141838149Y-101794647D01*
X141838149Y-101794647D02*
X141914339Y-101832742D01*
X141914339Y-101832742D02*
X142219101Y-101832742D01*
X141583695Y-103930571D02*
X140783695Y-103930571D01*
X140783695Y-103930571D02*
X140783695Y-104235333D01*
X140783695Y-104235333D02*
X140821790Y-104311523D01*
X140821790Y-104311523D02*
X140859885Y-104349618D01*
X140859885Y-104349618D02*
X140936076Y-104387714D01*
X140936076Y-104387714D02*
X141050361Y-104387714D01*
X141050361Y-104387714D02*
X141126552Y-104349618D01*
X141126552Y-104349618D02*
X141164647Y-104311523D01*
X141164647Y-104311523D02*
X141202742Y-104235333D01*
X141202742Y-104235333D02*
X141202742Y-103930571D01*
X141583695Y-105149618D02*
X141583695Y-104692475D01*
X141583695Y-104921047D02*
X140783695Y-104921047D01*
X140783695Y-104921047D02*
X140897980Y-104844856D01*
X140897980Y-104844856D02*
X140974171Y-104768666D01*
X140974171Y-104768666D02*
X141012266Y-104692475D01*
X141126552Y-105606761D02*
X141088457Y-105530571D01*
X141088457Y-105530571D02*
X141050361Y-105492476D01*
X141050361Y-105492476D02*
X140974171Y-105454380D01*
X140974171Y-105454380D02*
X140936076Y-105454380D01*
X140936076Y-105454380D02*
X140859885Y-105492476D01*
X140859885Y-105492476D02*
X140821790Y-105530571D01*
X140821790Y-105530571D02*
X140783695Y-105606761D01*
X140783695Y-105606761D02*
X140783695Y-105759142D01*
X140783695Y-105759142D02*
X140821790Y-105835333D01*
X140821790Y-105835333D02*
X140859885Y-105873428D01*
X140859885Y-105873428D02*
X140936076Y-105911523D01*
X140936076Y-105911523D02*
X140974171Y-105911523D01*
X140974171Y-105911523D02*
X141050361Y-105873428D01*
X141050361Y-105873428D02*
X141088457Y-105835333D01*
X141088457Y-105835333D02*
X141126552Y-105759142D01*
X141126552Y-105759142D02*
X141126552Y-105606761D01*
X141126552Y-105606761D02*
X141164647Y-105530571D01*
X141164647Y-105530571D02*
X141202742Y-105492476D01*
X141202742Y-105492476D02*
X141278933Y-105454380D01*
X141278933Y-105454380D02*
X141431314Y-105454380D01*
X141431314Y-105454380D02*
X141507504Y-105492476D01*
X141507504Y-105492476D02*
X141545600Y-105530571D01*
X141545600Y-105530571D02*
X141583695Y-105606761D01*
X141583695Y-105606761D02*
X141583695Y-105759142D01*
X141583695Y-105759142D02*
X141545600Y-105835333D01*
X141545600Y-105835333D02*
X141507504Y-105873428D01*
X141507504Y-105873428D02*
X141431314Y-105911523D01*
X141431314Y-105911523D02*
X141278933Y-105911523D01*
X141278933Y-105911523D02*
X141202742Y-105873428D01*
X141202742Y-105873428D02*
X141164647Y-105835333D01*
X141164647Y-105835333D02*
X141126552Y-105759142D01*
X146079768Y-106455504D02*
X146117864Y-106493600D01*
X146117864Y-106493600D02*
X146232149Y-106531695D01*
X146232149Y-106531695D02*
X146308340Y-106531695D01*
X146308340Y-106531695D02*
X146422626Y-106493600D01*
X146422626Y-106493600D02*
X146498816Y-106417409D01*
X146498816Y-106417409D02*
X146536911Y-106341219D01*
X146536911Y-106341219D02*
X146575007Y-106188838D01*
X146575007Y-106188838D02*
X146575007Y-106074552D01*
X146575007Y-106074552D02*
X146536911Y-105922171D01*
X146536911Y-105922171D02*
X146498816Y-105845980D01*
X146498816Y-105845980D02*
X146422626Y-105769790D01*
X146422626Y-105769790D02*
X146308340Y-105731695D01*
X146308340Y-105731695D02*
X146232149Y-105731695D01*
X146232149Y-105731695D02*
X146117864Y-105769790D01*
X146117864Y-105769790D02*
X146079768Y-105807885D01*
X145317864Y-106531695D02*
X145775007Y-106531695D01*
X145546435Y-106531695D02*
X145546435Y-105731695D01*
X145546435Y-105731695D02*
X145622626Y-105845980D01*
X145622626Y-105845980D02*
X145698816Y-105922171D01*
X145698816Y-105922171D02*
X145775007Y-105960266D01*
X144555959Y-106531695D02*
X145013102Y-106531695D01*
X144784530Y-106531695D02*
X144784530Y-105731695D01*
X144784530Y-105731695D02*
X144860721Y-105845980D01*
X144860721Y-105845980D02*
X144936911Y-105922171D01*
X144936911Y-105922171D02*
X145013102Y-105960266D01*
D11*
%TO.C,U101*%
X111575000Y-104325000D02*
X111835000Y-104325000D01*
X116765000Y-104325000D02*
X116765000Y-106000000D01*
X117025000Y-104325000D02*
X116765000Y-104325000D01*
X111575000Y-101600000D02*
X111575000Y-104325000D01*
X111575000Y-101600000D02*
X111575000Y-98875000D01*
X117025000Y-101600000D02*
X117025000Y-104325000D01*
X117025000Y-101600000D02*
X117025000Y-98875000D01*
X111575000Y-98875000D02*
X111835000Y-98875000D01*
X117025000Y-98875000D02*
X116765000Y-98875000D01*
%TO.C,R105*%
X106272359Y-101728000D02*
X106579641Y-101728000D01*
X106272359Y-102488000D02*
X106579641Y-102488000D01*
%TO.C,R104*%
X106272359Y-100712000D02*
X106579641Y-100712000D01*
X106272359Y-101472000D02*
X106579641Y-101472000D01*
%TO.C,C101*%
X111231000Y-104667164D02*
X111231000Y-104882836D01*
X110511000Y-104667164D02*
X110511000Y-104882836D01*
%TO.C,J102*%
X151190000Y-107890000D02*
X151190000Y-110550000D01*
X102870000Y-107890000D02*
X151190000Y-107890000D01*
X102870000Y-107890000D02*
X102870000Y-110550000D01*
X101600000Y-107890000D02*
X100270000Y-107890000D01*
X100270000Y-107890000D02*
X100270000Y-109220000D01*
X102870000Y-110550000D02*
X151190000Y-110550000D01*
%TO.C,JP101*%
X143302000Y-96248000D02*
X142702000Y-96248000D01*
X142002000Y-96898000D02*
X142002000Y-99698000D01*
X144002000Y-99698000D02*
X144002000Y-96898000D01*
X142702000Y-100348000D02*
X143302000Y-100348000D01*
X144002000Y-96948000D02*
G75*
G03*
X143302000Y-96248000I-699999J1D01*
G01*
X142702000Y-96248000D02*
G75*
G03*
X142002000Y-96948000I-1J-699999D01*
G01*
X143302000Y-100348000D02*
G75*
G03*
X144002000Y-99648000I0J700000D01*
G01*
X142002000Y-99648000D02*
G75*
G03*
X142702000Y-100348000I700000J0D01*
G01*
%TO.C,R102*%
X103785641Y-103504000D02*
X103478359Y-103504000D01*
X103785641Y-102744000D02*
X103478359Y-102744000D01*
%TO.C,JP102*%
X143302000Y-102852000D02*
X142702000Y-102852000D01*
X142002000Y-103502000D02*
X142002000Y-106302000D01*
X144002000Y-106302000D02*
X144002000Y-103502000D01*
X142702000Y-106952000D02*
X143302000Y-106952000D01*
X144002000Y-103552000D02*
G75*
G03*
X143302000Y-102852000I-699999J1D01*
G01*
X142702000Y-102852000D02*
G75*
G03*
X142002000Y-103552000I-1J-699999D01*
G01*
X143302000Y-106952000D02*
G75*
G03*
X144002000Y-106252000I0J700000D01*
G01*
X142002000Y-106252000D02*
G75*
G03*
X142702000Y-106952000I700000J0D01*
G01*
%TO.C,J103*%
X151190000Y-92650000D02*
X151190000Y-95310000D01*
X102870000Y-92650000D02*
X151190000Y-92650000D01*
X102870000Y-92650000D02*
X102870000Y-95310000D01*
X101600000Y-92650000D02*
X100270000Y-92650000D01*
X100270000Y-92650000D02*
X100270000Y-93980000D01*
X102870000Y-95310000D02*
X151190000Y-95310000D01*
%TO.C,R101*%
X103785641Y-100456000D02*
X103478359Y-100456000D01*
X103785641Y-99696000D02*
X103478359Y-99696000D01*
%TO.C,JP103*%
X140035000Y-103254000D02*
X140635000Y-103254000D01*
X141335000Y-102554000D02*
X141335000Y-101154000D01*
X139335000Y-101154000D02*
X139335000Y-102554000D01*
X140635000Y-100454000D02*
X140035000Y-100454000D01*
X139335000Y-102554000D02*
G75*
G03*
X140035000Y-103254000I699999J-1D01*
G01*
X140635000Y-103254000D02*
G75*
G03*
X141335000Y-102554000I1J699999D01*
G01*
X140035000Y-100454000D02*
G75*
G03*
X139335000Y-101154000I0J-700000D01*
G01*
X141335000Y-101154000D02*
G75*
G03*
X140635000Y-100454000I-700000J0D01*
G01*
%TD*%
M02*
