M48
; DRILL file {KiCad 7.0.7} date Mon Nov 13 21:48:57 2023
; FORMAT={-:-/ absolute / metric / decimal}
; #@! TF.CreationDate,2023-11-13T21:48:57+01:00
; #@! TF.GenerationSoftware,Kicad,Pcbnew,7.0.7
; #@! TF.FileFunction,Plated,1,4,PTH
FMAT,2
METRIC
; #@! TA.AperFunction,Plated,PTH,ViaDrill
T1C0.200
; #@! TA.AperFunction,Plated,PTH,ComponentDrill
T2C0.600
; #@! TA.AperFunction,Plated,PTH,ComponentDrill
T3C1.000
%
G90
G05
T1
X104.902Y-100.076
X104.902Y-101.092
X104.902Y-102.108
X104.902Y-103.124
X108.524Y-95.316
X109.474Y-98.879
X110.109Y-97.282
X110.109Y-102.489
X110.109Y-103.632
X110.998Y-97.536
X110.998Y-103.632
X113.919Y-101.346
X114.3Y-100.008
X114.3Y-103.192
X114.681Y-101.854
X115.316Y-96.774
X116.713Y-96.647
X117.153Y-105.342
X117.602Y-96.647
X117.729Y-103.759
X117.983Y-100.838
X118.745Y-102.362
X119.606Y-101.6
X120.396Y-99.314
X121.92Y-104.349
X123.19Y-101.6
X123.19Y-107.823
X123.312Y-97.414
X124.46Y-100.33
X124.46Y-101.6
X124.46Y-102.87
X124.46Y-107.569
X125.256Y-107.027
X125.73Y-99.06
X125.73Y-100.33
X125.73Y-101.6
X125.73Y-102.743
X125.73Y-104.14
X125.857Y-106.426
X127.0Y-100.33
X127.0Y-101.6
X127.0Y-102.743
X127.32Y-106.961
X127.635Y-106.172
X128.27Y-101.6
X128.905Y-96.647
X129.766Y-97.056
X130.556Y-101.473
X131.122Y-100.838
X131.318Y-105.791
X131.38Y-101.679
X131.545Y-103.478
X132.207Y-97.663
X132.235Y-98.58
X133.35Y-104.013
X133.413Y-101.79
X133.731Y-106.236
X136.144Y-96.647
X137.16Y-102.489
X137.922Y-100.838
X138.176Y-104.14
X138.176Y-106.172
X138.811Y-101.346
X139.855Y-99.596
X141.351Y-106.426
X141.704Y-100.556
X145.542Y-102.235
T3
X101.6Y-93.98
X101.6Y-109.22
X104.14Y-93.98
X104.14Y-109.22
X106.68Y-93.98
X106.68Y-109.22
X109.22Y-93.98
X109.22Y-109.22
X111.76Y-93.98
X111.76Y-109.22
X114.3Y-93.98
X114.3Y-109.22
X116.84Y-93.98
X116.84Y-109.22
X119.38Y-93.98
X119.38Y-109.22
X121.92Y-93.98
X121.92Y-109.22
X124.46Y-93.98
X124.46Y-109.22
X127.0Y-93.98
X127.0Y-109.22
X129.54Y-93.98
X129.54Y-109.22
X132.08Y-93.98
X132.08Y-109.22
X134.62Y-93.98
X134.62Y-109.22
X137.16Y-93.98
X137.16Y-109.22
X139.7Y-93.98
X139.7Y-109.22
X142.24Y-93.98
X142.24Y-109.22
X144.78Y-93.98
X144.78Y-109.22
X147.32Y-93.98
X147.32Y-109.22
X148.285Y-97.8
X148.285Y-100.34
X148.285Y-102.88
X148.285Y-105.42
X149.86Y-93.98
X149.86Y-109.22
T2
G00X102.06Y-97.28
M15
G01X101.26Y-97.28
M16
G05
G00X102.06Y-105.92
M15
G01X101.26Y-105.92
M16
G05
G00X106.39Y-97.28
M15
G01X105.29Y-97.28
M16
G05
G00X106.39Y-105.92
M15
G01X105.29Y-105.92
M16
G05
T0
M30
